<svg xmlns="http://www.w3.org/2000/svg" viewBox="0 0 81.22 14.01"><title>Asset 12</title><g style="isolation:isolate"><g id="Layer_2" data-name="Layer 2"><g id="Layer_1-2" data-name="Layer 1"><path d="M4.84,13.92h.89c.44,0,.67-.4.59-1L4.9.89C4.84.33,4.62.14,4.28.14H2.06c-.34,0-.56.19-.62.74L0,12.95c-.07.57.15,1,.59,1h.89c.28,0,.56-.15.61-.69l.18-1.9H4.06l.18,1.9C4.28,13.77,4.56,13.92,4.84,13.92ZM2.68,7,3.09,2h.15L3.66,7,3.85,9.2H2.47Zm5-6.89c-.38,0-.61.29-.61.78V13.14c0,.49.22.78.61.78h1c.39,0,.61-.29.61-.78v-5h1.58c.38,0,.61-.29.61-.78V6.75c0-.49-.22-.78-.61-.78H9.27V2.27h2.15c.38,0,.61-.29.61-.78V.92c0-.49-.22-.78-.61-.78ZM18.55,5.62V3.17c0-2.07-1-3-2.93-3H13.29c-.38,0-.61.29-.61.78V13.14c0,.49.22.78.61.78h1c.39,0,.61-.29.61-.78V8.65h.44l1.32,4.76a.6.6,0,0,0,.59.51h1c.61,0,.68-.72.56-1.12l-1.35-4.6A2.85,2.85,0,0,0,18.55,5.62Zm-3.67.89V2.27h.74c.49,0,.74.38.74.89V5.62c0,.51-.25.89-.74.89ZM22.66,0c-1.91,0-2.93,1-2.93,3V11c0,2.07,1,3,2.93,3s2.93-1,2.93-3V3.07C25.6,1,24.57,0,22.66,0Zm0,2.13c.49,0,.74.38.74.89V11c0,.51-.25.89-.74.89s-.74-.38-.74-.89V3.07C21.92,2.56,22.18,2.18,22.66,2.18Zm9.06,0c.38,0,.61-.29.61-.78V.88c0-.49-.22-.78-.61-.78h-5c-.38,0-.61.29-.61.78v.57c0,.49.22.78.61.78h1.41V13.09c0,.49.22.78.61.78h1c.39,0,.61-.29.61-.78V2.23ZM33.54.1c-.38,0-.61.29-.61.78V13.09c0,.49.22.78.61.78h3.73c.38,0,.61-.29.61-.78v-.57c0-.49-.22-.78-.61-.78H35.12V8H36.7c.38,0,.61-.29.61-.78V6.7c0-.49-.22-.78-.61-.78H35.12V2.23h2.15c.38,0,.61-.29.61-.78V.88c0-.49-.22-.78-.61-.78ZM44.48,3c0-2.07-1-3-2.93-3s-2.93,1-2.93,3v7.91c0,2.07,1,3,2.93,3s2.93-1,2.93-3V9c0-.49-.22-.78-.61-.78h-1c-.38,0-.61.29-.61.78v1.92c0,.51-.25.89-.74.89s-.74-.38-.74-.89V3c0-.51.25-.89.74-.89s.74.38.74.89V4.95c0,.49.22.78.61.78h1c.38,0,.61-.29.61-.78ZM47.85.88c0-.49-.22-.78-.61-.78h-1c-.38,0-.61.29-.61.78V13.09c0,.49.22.78.61.78h1c.39,0,.61-.29.61-.78V8h1.48v5c0,.49.22.78.61.78h1c.38,0,.61-.29.61-.78V.88c0-.49-.22-.78-.61-.78h-1c-.38,0-.61.29-.61.78v5H47.85Zm10.86,13a.54.54,0,0,0,.5-.54V7.35h2.73a.49.49,0,0,0,0-1H59.21V1.31h2.86a.49.49,0,0,0,.45-.5.47.47,0,0,0-.45-.48H58.76a.51.51,0,0,0-.54.58V13.28A.52.52,0,0,0,58.71,13.83Zm6.39-.06H68.4a.47.47,0,0,0,.45-.48.49.49,0,0,0-.45-.5H65.54V7.35h2.73a.49.49,0,0,0,0-1H65.54V1.31H68.4a.49.49,0,0,0,.45-.5A.47.47,0,0,0,68.4.32H65.1a.51.51,0,0,0-.54.58V13.18A.51.51,0,0,0,65.1,13.77Zm5.26-.65a3.05,3.05,0,0,0,2.14.89c1.65,0,2.73-1.45,2.73-3.37a5.81,5.81,0,0,0-2.14-4.36A4.42,4.42,0,0,1,71.41,3.2c0-1.31.74-2.12,1.6-2.12a1.76,1.76,0,0,1,1.19.44.4.4,0,0,0,.26.08.47.47,0,0,0,.45-.48.48.48,0,0,0-.19-.4A2.63,2.63,0,0,0,73,.1c-1.43,0-2.58,1.25-2.58,3.13a5.29,5.29,0,0,0,2,4,4.7,4.7,0,0,1,1.82,3.49c0,1.43-.8,2.34-1.76,2.34a2.2,2.2,0,0,1-1.5-.71.36.36,0,0,0-.3-.1.48.48,0,0,0-.46.5A.5.5,0,0,0,70.35,13.12Zm8.3.71a.54.54,0,0,0,.5-.54v-12h1.6a.51.51,0,0,0,.46-.5.49.49,0,0,0-.46-.48h-4.2a.47.47,0,0,0-.45.48.49.49,0,0,0,.45.5h1.6v12A.54.54,0,0,0,78.66,13.83Z" style="fill:#fff;mix-blend-mode:multiply"/></g></g></g></svg>