<svg id="Layer_1" data-name="Layer 1" xmlns="http://www.w3.org/2000/svg" viewBox="0 0 200 200"><title>atf-logo-black</title><g id="Layer_2" data-name="Layer 2"><g id="Header"><path d="M61.18,177.17H13.9c-10.68,0-17.35-10.79-12-19.43l21.78-35.21A78.29,78.29,0,0,0,61.18,177.17ZM121.8,34.34,112,18.52c-5.34-8.64-18.69-8.64-24,0L77.83,34.94a78.65,78.65,0,0,1,44-.58Zm76.32,123.4-20.48-33.12a78.31,78.31,0,0,1-37.16,52.54H186.1C196.79,177.17,203.46,166.38,198.12,157.74Zm-20.48-33.12a78.3,78.3,0,0,0-55.86-90.29l10.35,16.73ZM127,175.14c-1.11-13-12.8-23.28-27-23.28a28.83,28.83,0,0,0-8.58,1.3c-10.11,3.15-17.57,11.7-18.44,22a2.28,2.28,0,0,1-2.33,2H61.18a78.28,78.28,0,0,0,79.3,0H129.35a2.28,2.28,0,0,1-2.33-2ZM68.08,50.68l9.74-15.74a78.3,78.3,0,0,0-54.17,87.6l12.8-20.69Zm13.16,31h1.9c1,0,1.43-.86,1.27-2.08l-3-25.87c-.13-1.16-.58-1.59-1.33-1.59H75.28c-.73,0-1.2.41-1.33,1.59l-3,25.87c-.16,1.22.32,2.08,1.27,2.08h1.9c.58,0,1.2-.33,1.3-1.47l.38-4.07h3.81l.38,4.07c.12,1.15.72,1.47,1.32,1.47ZM76.59,67l.89-10.89h.32L78.69,67l.41,4.66h-3ZM87.36,52.2c-.83,0-1.3.61-1.3,1.67V80.05c0,1.06.48,1.67,1.3,1.67h2.09c.83,0,1.3-.61,1.3-1.67V69.23h3.4c.83,0,1.3-.61,1.3-1.67V66.34c0-1.06-.48-1.67-1.3-1.67H90.78V56.75h4.6c.83,0,1.3-.61,1.3-1.67V53.85c0-1.06-.48-1.67-1.3-1.67ZM110.63,64V58.71c0-4.45-2.19-6.49-6.28-6.49h-5c-.83,0-1.3.61-1.3,1.67V80.08c0,1.06.48,1.67,1.3,1.67h2.09c.83,0,1.3-.61,1.3-1.67V70.42h1l2.83,10.2a1.28,1.28,0,0,0,1.27,1.1H110c1.3,0,1.46-1.55,1.2-2.41l-2.91-9.89c1.54-1,2.34-2.8,2.34-5.49Zm-7.87,1.91V56.75h1.59c1,0,1.59.81,1.59,1.92V63.9c0,1.1-.54,1.91-1.59,1.91ZM119.46,52c-4.07,0-6.28,2-6.28,6.49v17c0,4.45,2.19,6.49,6.28,6.49s6.28-2,6.28-6.49v-17c0-4.45-2.16-6.49-6.26-6.49Zm0,4.57c1,0,1.59.81,1.59,1.91v17c0,1.1-.54,1.92-1.59,1.92s-1.59-.81-1.59-1.92v-17c0-1.1.57-1.92,1.62-1.92ZM82.92,89.25c.83,0,1.3-.61,1.3-1.67V86.35c0-1.06-.48-1.67-1.3-1.67H72.22c-.83,0-1.3.61-1.3,1.67v1.22c0,1.06.48,1.67,1.3,1.67h3v23.28c0,1.06.48,1.67,1.3,1.67h2.09c.83,0,1.3-.61,1.3-1.67V89.25Zm3.88-4.57c-.83,0-1.3.61-1.3,1.67v26.19c0,1.06.48,1.67,1.3,1.67h8c.83,0,1.3-.61,1.3-1.67v-1.22c0-1.06-.48-1.67-1.3-1.67H90.2v-7.93h3.4c.83,0,1.3-.61,1.3-1.67V98.82c0-1.06-.48-1.67-1.3-1.67H90.2V89.23h4.6c.83,0,1.3-.61,1.3-1.67V86.34c0-1.06-.48-1.67-1.3-1.67ZM110.26,91c0-4.45-2.19-6.49-6.28-6.49s-6.28,2-6.28,6.49v17c0,4.45,2.19,6.49,6.28,6.49s6.28-2,6.28-6.49v-4.12c0-1.06-.48-1.67-1.3-1.67h-2.09c-.83,0-1.3.61-1.3,1.67v4.12c0,1.1-.54,1.92-1.59,1.92s-1.59-.81-1.59-1.92v-17c0-1.1.54-1.91,1.59-1.91s1.59.81,1.59,1.91v4.12c0,1.06.48,1.67,1.3,1.67H109c.83,0,1.3-.61,1.3-1.67Zm7.29-4.63c0-1.06-.48-1.67-1.3-1.67h-2.09c-.83,0-1.3.61-1.3,1.67v26.19c0,1.06.48,1.67,1.3,1.67h2.09c.83,0,1.3-.61,1.3-1.67V101.72h3.18v10.81c0,1.06.48,1.67,1.3,1.67h2.09c.83,0,1.3-.61,1.3-1.67V86.34c0-1.06-.48-1.67-1.3-1.67H122c-.83,0-1.3.61-1.3,1.67V97.15h-3.18Zm-41.07,59.9a1.11,1.11,0,0,0,1.08-1.08v-11.8h5.89a1,1,0,0,0,0-1.93H77.56V121.33h6.18a1,1,0,0,0,1-1,1,1,0,0,0-1-1H76.6a1.06,1.06,0,0,0-1.16,1.16v24.63A1.07,1.07,0,0,0,76.48,146.24Zm13.8-.12h7.14a1,1,0,0,0,1-1,1,1,0,0,0-1-1H91.23V133.36h5.89a1,1,0,0,0,0-1.93H91.23V121.33h6.18a1,1,0,0,0,1-1,1,1,0,0,0-1-1H90.27a1.06,1.06,0,0,0-1.16,1.16V145a1.06,1.06,0,0,0,1,1.15Zm11.35-1.29a6.89,6.89,0,0,0,4.61,1.75c3.57,0,5.89-2.91,5.89-6.7,0-4.29-2.41-6.58-4.61-8.66-1.89-1.8-3.61-3.49-3.61-6.14s1.61-4.21,3.45-4.21a4,4,0,0,1,2.57.88.92.92,0,0,0,.58.16,1,1,0,0,0,1-1,.94.94,0,0,0-.4-.8,6,6,0,0,0-3.73-1.25c-3.09,0-5.57,2.48-5.57,6.21,0,3.89,2.21,5.94,4.29,7.9S110,136.71,110,140c0,2.85-1.75,4.66-3.81,4.66a4.93,4.93,0,0,1-3.25-1.4.83.83,0,0,0-.64-.2,1,1,0,0,0-1,1h0a1,1,0,0,0,.34.83Zm17.93,1.4a1.11,1.11,0,0,0,1.08-1.08V121.33h3.45a1,1,0,0,0,1-1,1,1,0,0,0-1-1H115a1,1,0,0,0-1,1,1,1,0,0,0,1,1h3.45v23.82a1.11,1.11,0,0,0,1.08,1.09Z" style="fill:#061a25"/></g></g></svg>