<svg xmlns="http://www.w3.org/2000/svg" viewBox="0 0 157.05 27.11"><title>atf-text</title><g id="Layer_2" data-name="Layer 2"><g id="Layer_1-2" data-name="Layer 1"><g id="Layer_2-2" data-name="Layer 2"><g id="Layer_1-2-2" data-name="Layer 1-2"><path d="M9.38,26.91H11.1c.86,0,1.29-.75,1.14-1.88L9.49,1.69C9.38.65,9,.28,8.31.28H4C3.35.28,2.92.65,2.8,1.71L0,25c-.14,1.1.29,1.88,1.14,1.88H2.92c.54,0,1.08-.29,1.17-1.33l.35-3.68H7.88l.33,3.71C8.31,26.61,8.84,26.91,9.38,26.91ZM5.2,13.56,6,3.77h.29l.8,9.79.37,4.2H4.8ZM14.88.28c-.75,0-1.17.55-1.17,1.51V25.4c0,1,.43,1.51,1.17,1.51h1.89c.75,0,1.17-.55,1.17-1.51V15.65H21c.75,0,1.17-.55,1.17-1.51V13c0-1-.43-1.51-1.17-1.51H17.94V4.4h4.15c.75,0,1.17-.55,1.17-1.51V1.79c0-1-.43-1.51-1.17-1.51Zm21,10.59V6.12c0-4-2-5.84-5.66-5.84H25.7c-.75,0-1.17.55-1.17,1.51V25.4c0,1,.43,1.51,1.17,1.51h1.89c.75,0,1.17-.55,1.17-1.51V16.72h.86l2.55,9.2a1.15,1.15,0,0,0,1.14,1h2c1.17,0,1.32-1.4,1.08-2.17L33.8,15.82C35.17,14.92,35.89,13.3,35.89,10.87Zm-7.09,1.72V4.4h1.43c.94,0,1.43.75,1.43,1.73v4.74c0,1-.49,1.72-1.43,1.72ZM43.85.09c-3.69,0-5.66,1.84-5.66,5.84v15.3c0,4,2,5.85,5.66,5.85s5.66-1.84,5.66-5.85V5.94c0-4-2-5.85-5.68-5.85Zm0,4.12c.94,0,1.43.75,1.43,1.72v15.3c0,1-.49,1.73-1.43,1.73s-1.43-.75-1.43-1.73V5.94c0-1,.47-1.73,1.42-1.73Zm18.28.09c.75,0,1.17-.55,1.17-1.51V1.69c0-1-.43-1.51-1.17-1.51H52.45c-.75,0-1.17.55-1.17,1.51v1.1c0,1,.43,1.51,1.17,1.51h2.72v21c0,1,.43,1.51,1.17,1.51h1.89c.75,0,1.17-.55,1.17-1.51V4.3ZM65.61.18c-.75,0-1.17.55-1.17,1.51V25.31c0,1,.43,1.51,1.17,1.51h7.21c.75,0,1.17-.55,1.17-1.51V24.2c0-1-.43-1.51-1.17-1.51H68.67V15.56h3.07c.75,0,1.17-.55,1.17-1.51V12.95c0-1-.43-1.51-1.17-1.51H68.67V4.3h4.15c.75,0,1.17-.55,1.17-1.51V1.69c0-1-.43-1.51-1.17-1.51ZM86.76,5.84c0-4-2-5.84-5.66-5.84s-5.66,1.84-5.66,5.84v15.3c0,4,2,5.85,5.66,5.85s5.66-1.84,5.66-5.85V17.44c0-1-.43-1.51-1.17-1.51H83.7c-.75,0-1.17.55-1.17,1.51v3.71c0,1-.49,1.73-1.43,1.73s-1.43-.75-1.43-1.73V5.84c0-1,.49-1.72,1.43-1.72s1.43.75,1.43,1.72V9.57c0,1,.43,1.51,1.17,1.51h1.89c.75,0,1.17-.55,1.17-1.51Zm6.53-4.16c0-1-.43-1.51-1.17-1.51H90.23c-.75,0-1.17.55-1.17,1.51V25.31c0,1,.43,1.51,1.17,1.51h1.89c.75,0,1.17-.55,1.17-1.51V15.56h2.86v9.75c0,1,.43,1.51,1.17,1.51h1.89c.75,0,1.17-.55,1.17-1.51V1.69c0-1-.43-1.51-1.17-1.51H97.33c-.75,0-1.17.55-1.17,1.51v9.75H93.29Zm20.24,25a1,1,0,0,0,1-1.05V14.22h5.27a.94.94,0,0,0,0-1.87H114.5V2.56H120a1,1,0,0,0,.86-1,.91.91,0,0,0-.85-1h-6.41a1,1,0,0,0-1,1.13V25.68a1,1,0,0,0,.93,1.05Zm12.35-.11h6.39a.91.91,0,0,0,.86-.93,1,1,0,0,0-.86-1h-5.53V14.22H132a.94.94,0,0,0,0-1.87h-5.27V2.56h5.53a1,1,0,0,0,.86-1,.91.91,0,0,0-.85-1h-6.41a1,1,0,0,0-1,1.13V25.48a1,1,0,0,0,.82,1.13h.22ZM136,25.36a5.9,5.9,0,0,0,4.13,1.75c3.19,0,5.27-2.81,5.27-6.51,0-4.17-2.15-6.39-4.13-8.42-1.69-1.75-3.23-3.39-3.23-6s1.44-4.09,3.09-4.09a3.4,3.4,0,0,1,2.3.86.75.75,0,0,0,.5.16.91.91,0,0,0,.86-.93.93.93,0,0,0-.36-.75A5.08,5.08,0,0,0,141.13.26c-2.76,0-5,2.42-5,6,0,3.77,2,5.77,3.84,7.68s3.52,3.59,3.52,6.78c0,2.76-1.54,4.52-3.41,4.52a4.26,4.26,0,0,1-2.91-1.36.7.7,0,0,0-.57-.2.93.93,0,0,0-.9,1v0a1,1,0,0,0,.32.69Zm16.05,1.36a1,1,0,0,0,1-1.05V2.52h3.09a1,1,0,0,0,.9-1,.94.94,0,0,0-.9-.93H148a.91.91,0,0,0-.86.93,1,1,0,0,0,.86,1h3.09V25.68a1,1,0,0,0,1,1.05Z" style="fill:#fff"/></g></g></g></g></svg>