<?xml version="1.0" encoding="utf-8"?>
<!-- Generator: Adobe Illustrator 21.1.0, SVG Export Plug-In . SVG Version: 6.00 Build 0)  -->
<svg version="1.1" id="Layer_1" xmlns="http://www.w3.org/2000/svg" xmlns:xlink="http://www.w3.org/1999/xlink" x="0px" y="0px"
	 viewBox="0 0 208.5 36" style="enable-background:new 0 0 208.5 36;" xml:space="preserve">
<style type="text/css">
	.st0{fill:#FFFFFF;}
</style>
<title>atf-text</title>
<g>
	<g id="Layer_2">
		<g id="Layer_1-2">
			<path class="st0" d="M12.4,35.7h2.3c1.1,0,1.7-1,1.5-2.5l-3.6-31c-0.1-1.4-0.7-1.9-1.6-1.9H5.3c-0.9,0-1.4,0.5-1.6,1.9L0,33.2
				c-0.2,1.5,0.4,2.5,1.5,2.5h2.3c0.7,0,1.4-0.4,1.6-1.8l0.5-4.9h4.6l0.4,4.9C11,35.3,11.7,35.7,12.4,35.7z M6.9,18L7.9,5h0.4
				l1.1,13l0.5,5.6H6.3L6.9,18z M19.7,0.4c-1,0-1.6,0.7-1.6,2v31.4c0,1.3,0.6,2,1.6,2h2.5c1,0,1.6-0.7,1.6-2V20.8h4.1
				c1,0,1.6-0.7,1.6-2v-1.5c0-1.3-0.6-2-1.6-2h-4.1V5.8h5.5c1,0,1.6-0.7,1.6-2V2.4c0-1.3-0.6-2-1.6-2L19.7,0.4z M47.6,14.4V8.1
				c0-5.3-2.6-7.8-7.5-7.8h-6c-1,0-1.6,0.7-1.6,2v31.4c0,1.3,0.6,2,1.6,2h2.5c1,0,1.6-0.7,1.6-2V22.2h1.1l3.4,12.2
				c0.1,0.8,0.8,1.3,1.5,1.3h2.6c1.6,0,1.8-1.9,1.4-2.9L44.8,21C46.7,19.8,47.6,17.7,47.6,14.4z M38.2,16.7V5.8h1.9
				c1.2,0,1.9,1,1.9,2.3v6.3c0,1.3-0.7,2.3-1.9,2.3L38.2,16.7z M58.2,0.1c-4.9,0-7.5,2.4-7.5,7.8v20.3c0,5.3,2.6,7.8,7.5,7.8
				s7.5-2.4,7.5-7.8V7.9C65.7,2.6,63.1,0.1,58.2,0.1L58.2,0.1z M58.2,5.6c1.2,0,1.9,1,1.9,2.3v20.3c0,1.3-0.7,2.3-1.9,2.3
				s-1.9-1-1.9-2.3V7.9C56.3,6.6,56.9,5.6,58.2,5.6L58.2,5.6z M81.5,5.7c1,0,1.6-0.7,1.6-2V2.2c0-1.3-0.6-2-1.6-2H68.6
				c-1,0-1.6,0.7-1.6,2v1.5c0,1.3,0.6,2,1.6,2h3.6v27.9c0,1.3,0.6,2,1.6,2h2.5c1,0,1.6-0.7,1.6-2V5.7L81.5,5.7z M86.1,0.2
				c-1,0-1.6,0.7-1.6,2v31.4c0,1.3,0.6,2,1.6,2h9.6c1,0,1.6-0.7,1.6-2v-1.5c0-1.3-0.6-2-1.6-2h-5.5v-9.5h4.1c1,0,1.6-0.7,1.6-2v-1.5
				c0-1.3-0.6-2-1.6-2h-4.1V5.7h5.5c1,0,1.6-0.7,1.6-2V2.2c0-1.3-0.6-2-1.6-2L86.1,0.2z M114.2,7.8c0-5.3-2.6-7.8-7.5-7.8
				s-7.5,2.4-7.5,7.8v20.3c0,5.3,2.6,7.8,7.5,7.8s7.5-2.4,7.5-7.8v-4.9c0-1.3-0.6-2-1.6-2h-2.5c-1,0-1.6,0.7-1.6,2v4.9
				c0,1.3-0.7,2.3-1.9,2.3s-1.9-1-1.9-2.3V7.8c0-1.3,0.7-2.3,1.9-2.3s1.9,1,1.9,2.3v4.9c0,1.3,0.6,2,1.6,2h2.5c1,0,1.6-0.7,1.6-2
				V7.8z M122.8,2.2c0-1.3-0.6-2-1.6-2h-2.5c-1,0-1.6,0.7-1.6,2v31.4c0,1.3,0.6,2,1.6,2h2.5c1,0,1.6-0.7,1.6-2V20.7h3.8v12.9
				c0,1.3,0.6,2,1.6,2h2.5c1,0,1.6-0.7,1.6-2V2.2c0-1.3-0.6-2-1.6-2h-2.5c-1,0-1.6,0.7-1.6,2v12.9h-3.8V2.2z M150.7,35.5
				c0.7,0,1.3-0.7,1.3-1.4V18.9h7c0.7-0.1,1.2-0.7,1.1-1.4c-0.1-0.6-0.5-1-1.1-1.1h-7v-13h7.3c0.7-0.1,1.2-0.6,1.1-1.3
				c0-0.7-0.5-1.2-1.1-1.3c0,0,0,0,0,0h-8.5c-0.7,0-1.3,0.5-1.4,1.2c0,0.1,0,0.2,0,0.3v31.8C149.4,34.8,150,35.4,150.7,35.5
				L150.7,35.5z M167.1,35.3h8.5c0.7,0,1.2-0.6,1.1-1.2c0-0.7-0.5-1.2-1.1-1.3h-7.3V18.9h7c0.7-0.1,1.2-0.7,1.1-1.4
				c-0.1-0.6-0.5-1-1.1-1.1h-7v-13h7.3c0.7-0.1,1.2-0.6,1.1-1.3c0-0.7-0.5-1.2-1.1-1.3c0,0,0,0,0,0h-8.5c-0.7,0-1.3,0.5-1.4,1.2
				c0,0.1,0,0.2,0,0.3v31.5c-0.1,0.7,0.4,1.4,1.1,1.5C166.9,35.3,167,35.3,167.1,35.3L167.1,35.3z M180.6,33.7
				c1.4,1.5,3.4,2.3,5.5,2.3c4.2,0,7-3.7,7-8.6c0-5.5-2.9-8.5-5.5-11.2c-2.2-2.3-4.3-4.5-4.3-7.9s1.9-5.4,4.1-5.4
				c1.1,0,2.2,0.4,3.1,1.1c0.2,0.1,0.4,0.2,0.7,0.2c0.7,0,1.2-0.6,1.1-1.2c0-0.4-0.2-0.8-0.5-1c-1.2-1-2.8-1.6-4.4-1.6
				c-3.7,0-6.6,3.2-6.6,8c0,5,2.6,7.7,5.1,10.2c2.4,2.4,4.7,4.8,4.7,9c0,3.7-2.1,6-4.5,6c-1.5-0.1-2.9-0.7-3.9-1.8
				c-0.2-0.2-0.5-0.3-0.8-0.3c-0.7,0-1.2,0.6-1.2,1.3c0,0,0,0,0,0C180.2,33.1,180.3,33.4,180.6,33.7L180.6,33.7z M201.9,35.5
				c0.7,0,1.3-0.7,1.3-1.4V3.3h4.1c0.7-0.1,1.2-0.6,1.2-1.3c0-0.7-0.5-1.2-1.2-1.2h-10.8c-0.7,0-1.2,0.6-1.1,1.2
				c0,0.7,0.5,1.2,1.1,1.3h4.1v30.7C200.6,34.8,201.2,35.4,201.9,35.5L201.9,35.5z"/>
		</g>
	</g>
</g>
</svg>
