<?xml version="1.0" encoding="utf-8"?>
<!-- Generator: Adobe Illustrator 21.1.0, SVG Export Plug-In . SVG Version: 6.00 Build 0)  -->
<svg version="1.1" id="Layer_1" xmlns="http://www.w3.org/2000/svg" xmlns:xlink="http://www.w3.org/1999/xlink" x="0px" y="0px"
	 viewBox="0 0 121.9 21.1" style="enable-background:new 0 0 121.9 21.1;" xml:space="preserve">
<style type="text/css">
	.st0{fill:#FFFFFF;}
</style>
<title>atf-text</title>
<g>
	<title>aft-text</title>
	<g>
		<g id="Layer_2_2_">
			<g id="Layer_1-2_2_">
				<path class="st0" d="M7.3,20.9h1.3c0.7,0,1-0.6,0.9-1.5L7.4,1.3C7.3,0.5,7,0.2,6.5,0.2H3.1c-0.5,0-0.8,0.3-0.9,1.1L0,19.4
					c-0.1,0.9,0.2,1.5,0.9,1.5h1.4c0.4,0,0.8-0.2,0.9-1L3.4,17h2.7l0.3,2.9C6.5,20.7,6.9,20.9,7.3,20.9z M4,10.5l0.6-7.6h0.2
					l0.6,7.6l0.3,3.3H3.7L4,10.5z M11.6,0.2c-0.6,0-0.9,0.4-0.9,1.2v18.3c0,0.7,0.3,1.2,0.9,1.2H13c0.6,0,0.9-0.4,0.9-1.2v-7.6h2.4
					c0.6,0,0.9-0.4,0.9-1.2v-0.9c0-0.7-0.3-1.2-0.9-1.2h-2.4V3.4h3.2c0.6,0,0.9-0.4,0.9-1.2V1.4c0-0.7-0.3-1.2-0.9-1.2L11.6,0.2z
					 M27.9,8.4V4.8c0-3.1-1.5-4.5-4.4-4.5H20c-0.6,0-0.9,0.4-0.9,1.2v18.3c0,0.7,0.3,1.2,0.9,1.2h1.5c0.6,0,0.9-0.4,0.9-1.2V13H23
					l2,7.1c0.1,0.4,0.4,0.8,0.9,0.8h1.5c0.9,0,1-1.1,0.8-1.7l-2-6.9C27.3,11.6,27.9,10.3,27.9,8.4z M22.4,9.8V3.4h1.1
					c0.7,0,1.1,0.6,1.1,1.3v3.7c0,0.8-0.4,1.3-1.1,1.3L22.4,9.8z M34.1,0.1c-2.9,0-4.4,1.4-4.4,4.5v11.9c0,3.1,1.5,4.5,4.4,4.5
					s4.4-1.4,4.4-4.5V4.6C38.4,1.5,36.9,0.1,34.1,0.1L34.1,0.1z M34.1,3.3c0.7,0,1.1,0.6,1.1,1.3v11.9c0,0.8-0.4,1.3-1.1,1.3
					c-0.7,0-1.1-0.6-1.1-1.3V4.6C32.9,3.8,33.3,3.3,34.1,3.3L34.1,3.3z M48.2,3.3c0.6,0,0.9-0.4,0.9-1.2V1.3c0-0.7-0.3-1.2-0.9-1.2
					h-7.5c-0.6,0-0.9,0.4-0.9,1.2v0.9c0,0.7,0.3,1.2,0.9,1.2h2.1v16.3c0,0.7,0.3,1.2,0.9,1.2h1.5c0.6,0,0.9-0.4,0.9-1.2V3.3
					L48.2,3.3z M50.9,0.1c-0.6,0-0.9,0.4-0.9,1.2v18.3c0,0.7,0.3,1.2,0.9,1.2h5.6c0.6,0,0.9-0.4,0.9-1.2v-0.9c0-0.7-0.3-1.2-0.9-1.2
					h-3.2v-5.5h2.4c0.6,0,0.9-0.4,0.9-1.2v-0.9c0-0.7-0.3-1.2-0.9-1.2h-2.4V3.3h3.2c0.6,0,0.9-0.4,0.9-1.2V1.3
					c0-0.7-0.3-1.2-0.9-1.2L50.9,0.1z M67.4,4.5C67.4,1.4,65.8,0,63,0s-4.4,1.4-4.4,4.5v11.9c0,3.1,1.5,4.5,4.4,4.5s4.4-1.4,4.4-4.5
					v-2.9c0-0.7-0.3-1.2-0.9-1.2H65c-0.6,0-0.9,0.4-0.9,1.2v2.9c0,0.8-0.4,1.3-1.1,1.3c-0.7,0-1.1-0.6-1.1-1.3V4.5
					c0-0.8,0.4-1.3,1.1-1.3c0.7,0,1.1,0.6,1.1,1.3v2.9c0,0.7,0.3,1.2,0.9,1.2h1.5c0.6,0,0.9-0.4,0.9-1.2V4.5z M72.4,1.3
					c0-0.7-0.3-1.2-0.9-1.2h-1.5c-0.6,0-0.9,0.4-0.9,1.2v18.3c0,0.7,0.3,1.2,0.9,1.2h1.5c0.6,0,0.9-0.4,0.9-1.2v-7.6h2.2v7.6
					c0,0.7,0.3,1.2,0.9,1.2H77c0.6,0,0.9-0.4,0.9-1.2V1.3c0-0.7-0.3-1.2-0.9-1.2h-1.5c-0.6,0-0.9,0.4-0.9,1.2v7.6h-2.2V1.3z
					 M88.2,20.8c0.4,0,0.8-0.4,0.8-0.8V11H93c0.4-0.1,0.7-0.4,0.6-0.8c0-0.3-0.3-0.6-0.6-0.6h-4.1V2h4.3c0.4,0,0.7-0.4,0.7-0.8
					c0-0.4-0.3-0.7-0.7-0.8c0,0,0,0,0,0h-5c-0.4,0-0.8,0.3-0.8,0.7c0,0.1,0,0.1,0,0.2v18.6C87.4,20.4,87.7,20.7,88.2,20.8L88.2,20.8
					z M97.7,20.7h5c0.4,0,0.7-0.3,0.7-0.7c0-0.4-0.3-0.7-0.7-0.8h-4.3V11h4.1c0.4-0.1,0.7-0.4,0.6-0.8c0-0.3-0.3-0.6-0.6-0.6h-4.1V2
					h4.3c0.4,0,0.7-0.4,0.7-0.8c0-0.4-0.3-0.7-0.7-0.8c0,0,0,0,0,0h-5c-0.4,0-0.8,0.3-0.8,0.7c0,0.1,0,0.1,0,0.2v18.4
					c-0.1,0.4,0.2,0.8,0.6,0.9C97.6,20.7,97.7,20.7,97.7,20.7L97.7,20.7z M105.6,19.7c0.8,0.9,2,1.3,3.2,1.4c2.5,0,4.1-2.2,4.1-5.1
					c0-3.2-1.7-5-3.2-6.5c-1.3-1.4-2.5-2.6-2.5-4.6s1.1-3.2,2.4-3.2c0.7,0,1.3,0.2,1.8,0.7c0.1,0.1,0.3,0.1,0.4,0.1
					c0.4,0,0.7-0.3,0.7-0.7c0-0.2-0.1-0.4-0.3-0.6c-0.7-0.6-1.6-0.9-2.6-0.9c-2.1,0-3.9,1.9-3.9,4.7c0,2.9,1.5,4.5,3,6
					c1.4,1.4,2.7,2.8,2.7,5.3c0,2.1-1.2,3.5-2.6,3.5c-0.9,0-1.7-0.4-2.3-1.1c-0.1-0.1-0.3-0.2-0.4-0.2c-0.4,0-0.7,0.3-0.7,0.7
					c0,0,0,0,0,0C105.4,19.4,105.5,19.6,105.6,19.7L105.6,19.7z M118.1,20.8c0.4,0,0.8-0.4,0.8-0.8V2h2.4c0.4,0,0.7-0.4,0.7-0.8
					c0-0.4-0.3-0.7-0.7-0.7h-6.3c-0.4,0-0.7,0.3-0.7,0.7c0,0.4,0.3,0.7,0.7,0.8h2.4v18C117.3,20.4,117.7,20.7,118.1,20.8L118.1,20.8
					z"/>
			</g>
		</g>
	</g>
</g>
</svg>
