<svg xmlns="http://www.w3.org/2000/svg" xmlns:xlink="http://www.w3.org/1999/xlink" viewBox="0 0 1278.54 854.1"><defs><linearGradient id="New_Gradient_Swatch_4" x1="318.84" y1="409.82" x2="463.59" y2="409.82" gradientUnits="userSpaceOnUse"><stop offset="0" stop-color="#fc746c"/><stop offset="1" stop-color="#ff8f68"/></linearGradient><linearGradient id="New_Gradient_Swatch_5" x1="141" y1="893.98" x2="271.69" y2="893.98" gradientTransform="translate(875.05 -84.95) rotate(30.28)" gradientUnits="userSpaceOnUse"><stop offset="0" stop-color="#ff512f"/><stop offset="1" stop-color="#dc2476"/></linearGradient><linearGradient id="New_Gradient_Swatch_2" x1="146.88" y1="282.68" x2="277.56" y2="282.68" gradientTransform="translate(875.05 -84.95) rotate(30.28)" gradientUnits="userSpaceOnUse"><stop offset="0" stop-color="#dfec3a"/><stop offset="1" stop-color="#4ff0d6"/></linearGradient><linearGradient id="New_Gradient_Swatch_5-2" x1="787.11" y1="747.44" x2="941.8" y2="747.44" gradientTransform="matrix(1, 0, 0, 1, 0, 0)" xlink:href="#New_Gradient_Swatch_5"/><linearGradient id="New_Gradient_Swatch_2-2" x1="1180.99" y1="97.55" x2="1278.54" y2="97.55" gradientTransform="matrix(1, 0, 0, 1, 0, 0)" xlink:href="#New_Gradient_Swatch_2"/><linearGradient id="New_Gradient_Swatch_2-3" x1="1140.04" y1="559.08" x2="1237.58" y2="559.08" gradientTransform="translate(1735.13 -397.63) rotate(90)" xlink:href="#New_Gradient_Swatch_2"/><linearGradient id="New_Gradient_Swatch_2-4" x1="976.02" y1="687.96" x2="1066.38" y2="687.96" gradientTransform="matrix(1, 0, 0, 1, 0, 0)" xlink:href="#New_Gradient_Swatch_2"/><linearGradient id="New_Gradient_Swatch_4-2" x1="1081.5" y1="102.07" x2="1226.25" y2="102.07" xlink:href="#New_Gradient_Swatch_4"/><linearGradient id="New_Gradient_Swatch_2-5" x1="0" y1="435.83" x2="337.77" y2="435.83" gradientTransform="matrix(1, 0, 0, 1, 0, 0)" xlink:href="#New_Gradient_Swatch_2"/><linearGradient id="New_Gradient_Swatch_4-3" x1="727.03" y1="345.7" x2="849.2" y2="345.7" xlink:href="#New_Gradient_Swatch_4"/><linearGradient id="New_Gradient_Swatch_5-3" x1="-147.44" y1="216.25" x2="167.99" y2="216.25" gradientTransform="translate(402.03 4.45) rotate(21.88)" xlink:href="#New_Gradient_Swatch_5"/></defs><title>bg-image</title><g style="isolation:isolate"><g id="Layer_2" data-name="Layer 2"><g id="Layer_1-2" data-name="Layer 1"><path d="M629.85,134.29a43.1,43.1,0,0,1,42.63,42.63c.09,7.79,12.21,7.81,12.12,0a55.42,55.42,0,0,0-54.74-54.74c-7.8-.09-7.8,12,0,12.12Z" style="fill:#061a25"/><path d="M1256.39,405.28a43.1,43.1,0,0,1-60.28,0c-5.57-5.45-14.15,3.11-8.57,8.57a55.42,55.42,0,0,0,77.42,0c5.58-5.45-3-14-8.57-8.57Z" style="fill:#4ff0d6"/><path d="M380.86,46.61a43.1,43.1,0,0,1,60.28,0c5.57,5.45,14.15-3.11,8.57-8.57a55.42,55.42,0,0,0-77.42,0c-5.58,5.45,3,14,8.57,8.57Z" style="fill:#4ff0d6"/><path d="M403.28,809.93A56.92,56.92,0,0,1,347,753.64c-.12-10.29-16.12-10.32-16,0a73.19,73.19,0,0,0,72.29,72.29c10.3.12,10.31-15.88,0-16Z" style="fill:#061a25"/><polygon points="947.86 523.63 928.89 500.61 909.92 523.63 890.96 500.61 871.99 523.63 849.2 495.98 856.84 489.68 871.99 508.05 890.96 485.04 909.92 508.05 928.89 485.04 947.86 508.05 963 489.68 970.65 495.98 947.86 523.63" style="fill:#061a25"/><polygon points="436.43 432.82 413.82 405.39 391.22 432.82 368.61 405.39 346 432.82 318.84 399.86 327.95 392.35 346 414.25 368.61 386.82 391.22 414.25 413.82 386.82 436.43 414.25 454.48 392.35 463.59 399.86 436.43 432.82" style="fill:url(#New_Gradient_Swatch_4)"/><polygon points="627.32 829.64 622.18 797.96 592.07 809.06 586.93 777.38 556.81 788.48 550.64 750.42 561.16 748.71 565.26 774.01 595.38 762.91 600.51 794.59 630.63 783.49 635.77 815.17 659.81 806.3 663.5 816.31 627.32 829.64" style="fill:url(#New_Gradient_Swatch_5)"/><g style="mix-blend-mode:multiply"><polygon points="940.59 304.68 935.45 273 905.34 284.1 900.2 252.42 870.09 263.52 863.91 225.46 874.43 223.75 878.54 249.05 908.65 237.95 913.79 269.63 943.9 258.53 949.04 290.21 973.09 281.35 976.77 291.35 940.59 304.68" style="fill:url(#New_Gradient_Swatch_2)"/></g><path d="M788.11,817c6.36-5.8,12.72,0,19.08-5.8s0-11.59,6.37-17.39,12.72,0,19.08-5.81,0-11.59,6.37-17.39,12.72,0,19.08-5.8,0-11.59,6.37-17.39,12.72,0,19.08-5.81,0-11.59,6.37-17.39,12.72,0,19.08-5.81,0-11.59,6.37-17.39,12.72,0,19.08-5.81,0-11.59,6.37-17.39" style="fill:none;stroke-linecap:round;stroke-miterlimit:10;stroke-width:2px;stroke:url(#New_Gradient_Swatch_5-2)"/><path d="M1278.54,195.09a97.55,97.55,0,1,1,0-195.09" style="fill:url(#New_Gradient_Swatch_2-2)"/><path d="M1078.5,840a97.55,97.55,0,1,1,195.09,0" style="fill:url(#New_Gradient_Swatch_2-3)"/><g style="mix-blend-mode:multiply"><circle cx="1021.2" cy="687.96" r="45.18" style="fill:url(#New_Gradient_Swatch_2-4)"/></g><circle cx="1034.12" cy="339.93" r="15.01" style="fill:#061a25"/><circle cx="995.96" cy="97.55" r="15.01" style="fill:#4ff0d6"/><circle cx="1127.14" cy="763.73" r="15.01" style="fill:#4ff0d6"/><circle cx="624" cy="668.75" r="15.01" style="fill:#4ff0d6"/><circle cx="554.54" cy="504.87" r="15.01" style="fill:#e0ed3a"/><circle cx="727.03" cy="582.32" r="15.01" style="fill:#f83c7a"/><circle cx="522.18" cy="271.82" r="15.01" style="fill:#061a25"/><circle cx="150.51" cy="538.64" r="15.01" style="fill:#f55254"/><polygon points="1199.09 125.07 1176.48 97.64 1153.88 125.07 1131.27 97.64 1108.66 125.07 1081.5 92.11 1090.61 84.6 1108.66 106.5 1131.27 79.07 1153.88 106.5 1176.48 79.07 1199.09 106.5 1217.14 84.6 1226.25 92.11 1199.09 125.07" style="fill:url(#New_Gradient_Swatch_4-2)"/><path d="M0,17.55c186.55,0,337.77,187.27,337.77,418.28S186.55,854.1,0,854.1" style="fill:url(#New_Gradient_Swatch_2-5)"/><circle cx="788.11" cy="345.7" r="61.09" style="fill:url(#New_Gradient_Swatch_4-3)"/><path d="M1200.38,561.22a2.5,2.5,0,0,1-1.77-4.27l20.16-20.16a2.5,2.5,0,1,1,3.54,3.54l-20.16,20.16A2.49,2.49,0,0,1,1200.38,561.22Z" style="fill:#f83c7a"/><circle cx="1200.38" cy="558.72" r="2.4" style="fill:#1d1d1b"/><path d="M1200.38,556.44a2.27,2.27,0,1,1-2.27,2.27,2.28,2.28,0,0,1,2.27-2.27m0-.25a2.52,2.52,0,1,0,2.52,2.52,2.52,2.52,0,0,0-2.52-2.52Z" style="fill:#f83c7a"/><path d="M1180.25,639.27a2.5,2.5,0,0,1-1.77-4.27l20.16-20.16a2.5,2.5,0,0,1,3.54,3.54L1182,638.54A2.49,2.49,0,0,1,1180.25,639.27Z" style="fill:#f83c7a"/><circle cx="1180.25" cy="636.77" r="2.4" style="fill:#1d1d1b"/><path d="M1180.25,634.5a2.27,2.27,0,1,1-2.27,2.27,2.28,2.28,0,0,1,2.27-2.27m0-.25a2.52,2.52,0,1,0,2.52,2.52,2.52,2.52,0,0,0-2.52-2.52Z" style="fill:#f83c7a"/><path d="M1201.58,511.34a2.5,2.5,0,0,1-1.77-4.27L1220,486.92a2.5,2.5,0,0,1,3.54,3.54l-20.16,20.16A2.49,2.49,0,0,1,1201.58,511.34Z" style="fill:#f83c7a"/><circle cx="1201.58" cy="508.84" r="2.4" style="fill:#1d1d1b"/><path d="M1201.58,506.57a2.27,2.27,0,1,1-2.27,2.27,2.28,2.28,0,0,1,2.27-2.27m0-.25a2.52,2.52,0,1,0,2.52,2.52,2.52,2.52,0,0,0-2.52-2.52Z" style="fill:#f83c7a"/><circle cx="1171.93" cy="520.73" r="1.55" style="fill:#f83c7a"/><circle cx="1133.28" cy="498.76" r="1.55" style="fill:#f83c7a"/><circle cx="1182.77" cy="579.44" r="1.55" style="fill:#f83c7a"/><circle cx="1136.61" cy="617.61" r="1.55" style="fill:#f83c7a"/><circle cx="1091.52" cy="602.01" r="1.55" style="fill:#f83c7a"/><circle cx="1211.66" cy="603.56" r="1.55" style="fill:#f83c7a"/><circle cx="1239.14" cy="532.39" r="1.55" style="fill:#f83c7a"/><path d="M1145.62,593.12a2.5,2.5,0,0,1-1.77-4.27l72.31-72.31a2.5,2.5,0,1,1,3.54,3.54l-72.31,72.31A2.49,2.49,0,0,1,1145.62,593.12Z" style="fill:#f83c7a"/><path d="M1145.62,593a2.4,2.4,0,1,1,.87-.17A2.39,2.39,0,0,1,1145.62,593Z" style="fill:#1d1d1b"/><path d="M1145.62,588.35h0a2.28,2.28,0,1,1-.83.16,2.26,2.26,0,0,1,.83-.16m0-.25a2.52,2.52,0,1,0,2.35,1.6,2.52,2.52,0,0,0-2.35-1.6Z" style="fill:#f83c7a"/><path d="M1097.12,566.32a2.5,2.5,0,0,1-1.77-4.27l72.31-72.31a2.5,2.5,0,1,1,3.54,3.54l-72.31,72.31A2.49,2.49,0,0,1,1097.12,566.32Z" style="fill:#f83c7a"/><path d="M1097.12,566.22a2.4,2.4,0,1,1,.87-.17A2.39,2.39,0,0,1,1097.12,566.22Z" style="fill:#091a25"/><path d="M1097.12,561.55h0a2.27,2.27,0,1,1-.83.16,2.26,2.26,0,0,1,.83-.16m0-.25a2.52,2.52,0,1,0,2.35,1.6,2.52,2.52,0,0,0-2.35-1.6Z" style="fill:#f83c7a"/><path d="M1126.26,654.35a1,1,0,0,1-.71-1.71l99.57-99.57a1,1,0,0,1,1.41,1.41L1127,654.06A1,1,0,0,1,1126.26,654.35Z" style="fill:#f83c7a"/><circle cx="1126.14" cy="653.47" r="1" style="fill:#1d1d1b"/><path d="M1117.67,585.76a1,1,0,0,1-.71-1.71l37.89-37.89a1,1,0,0,1,1.41,1.41l-37.89,37.89A1,1,0,0,1,1117.67,585.76Z" style="fill:#f83c7a"/><circle cx="1117.65" cy="584.77" r="1" style="fill:#1d1d1b"/><path d="M880,102.49a2.5,2.5,0,0,1-1.77-4.27l20.16-20.16a2.5,2.5,0,0,1,3.54,3.54l-20.16,20.16A2.49,2.49,0,0,1,880,102.49Z" style="fill:#f83c7a"/><circle cx="880.03" cy="99.99" r="2.4" style="fill:#1d1d1b"/><path d="M880,97.72a2.27,2.27,0,1,1-2.27,2.27A2.28,2.28,0,0,1,880,97.72m0-.25a2.52,2.52,0,1,0,2.52,2.52A2.52,2.52,0,0,0,880,97.47Z" style="fill:#f83c7a"/><path d="M859.89,180.55a2.5,2.5,0,0,1-1.77-4.27l20.16-20.16a2.5,2.5,0,0,1,3.54,3.54l-20.16,20.16A2.49,2.49,0,0,1,859.89,180.55Z" style="fill:#f83c7a"/><circle cx="859.89" cy="178.05" r="2.4" style="fill:#1d1d1b"/><path d="M859.89,175.78a2.27,2.27,0,1,1-2.27,2.27,2.28,2.28,0,0,1,2.27-2.27m0-.25a2.52,2.52,0,1,0,2.52,2.52,2.52,2.52,0,0,0-2.52-2.52Z" style="fill:#f83c7a"/><path d="M881.23,52.62a2.5,2.5,0,0,1-1.77-4.27l20.16-20.16a2.5,2.5,0,0,1,3.54,3.54L883,51.88A2.49,2.49,0,0,1,881.23,52.62Z" style="fill:#f83c7a"/><circle cx="881.23" cy="50.12" r="2.4" style="fill:#1d1d1b"/><path d="M881.23,47.84A2.27,2.27,0,1,1,879,50.12a2.28,2.28,0,0,1,2.27-2.27m0-.25a2.52,2.52,0,1,0,2.52,2.52,2.52,2.52,0,0,0-2.52-2.52Z" style="fill:#f83c7a"/><circle cx="851.58" cy="62" r="1.55" style="fill:#f83c7a"/><circle cx="812.92" cy="40.04" r="1.55" style="fill:#f83c7a"/><circle cx="862.42" cy="120.72" r="1.55" style="fill:#f83c7a"/><circle cx="816.26" cy="158.89" r="1.55" style="fill:#f83c7a"/><circle cx="771.16" cy="143.29" r="1.55" style="fill:#f83c7a"/><circle cx="891.31" cy="144.84" r="1.55" style="fill:#f83c7a"/><circle cx="918.79" cy="73.67" r="1.55" style="fill:#f83c7a"/><path d="M825.26,134.4a2.5,2.5,0,0,1-1.77-4.27l72.31-72.31a2.5,2.5,0,1,1,3.54,3.54L827,133.67A2.49,2.49,0,0,1,825.26,134.4Z" style="fill:#f83c7a"/><path d="M825.26,134.3a2.4,2.4,0,1,1,.87-.17A2.39,2.39,0,0,1,825.26,134.3Z" style="fill:#1d1d1b"/><path d="M825.26,129.63h0a2.28,2.28,0,1,1-.83.16,2.26,2.26,0,0,1,.83-.16m0-.25a2.52,2.52,0,1,0,2.35,1.6,2.52,2.52,0,0,0-2.35-1.6Z" style="fill:#f83c7a"/><path d="M776.77,107.6a2.5,2.5,0,0,1-1.77-4.27L847.31,31a2.5,2.5,0,1,1,3.54,3.54l-72.31,72.31A2.49,2.49,0,0,1,776.77,107.6Z" style="fill:#f83c7a"/><path d="M776.77,107.5a2.4,2.4,0,1,1,.87-.17A2.39,2.39,0,0,1,776.77,107.5Z" style="fill:#091a25"/><path d="M776.77,102.83h0a2.27,2.27,0,1,1-.83.16,2.26,2.26,0,0,1,.83-.16m0-.25a2.52,2.52,0,1,0,2.35,1.6,2.52,2.52,0,0,0-2.35-1.6Z" style="fill:#f83c7a"/><path d="M805.91,195.62a1,1,0,0,1-.71-1.71l99.57-99.57a1,1,0,0,1,1.41,1.41l-99.57,99.57A1,1,0,0,1,805.91,195.62Z" style="fill:#f83c7a"/><circle cx="805.79" cy="194.75" r="1" style="fill:#1d1d1b"/><path d="M797.31,127a1,1,0,0,1-.71-1.71L834.5,87.44a1,1,0,0,1,1.41,1.41L798,126.74A1,1,0,0,1,797.31,127Z" style="fill:#f83c7a"/><circle cx="797.3" cy="126.05" r="1" style="fill:#1d1d1b"/><path d="M213.77,536.76a2.5,2.5,0,0,1-1.77-4.27l20.16-20.16a2.5,2.5,0,0,1,3.54,3.54L215.54,536A2.49,2.49,0,0,1,213.77,536.76Z" style="fill:#f83c7a"/><circle cx="213.77" cy="534.26" r="2.4" style="fill:#1d1d1b"/><path d="M213.77,532a2.27,2.27,0,1,1-2.27,2.27,2.28,2.28,0,0,1,2.27-2.27m0-.25a2.52,2.52,0,1,0,2.52,2.52,2.52,2.52,0,0,0-2.52-2.52Z" style="fill:#f83c7a"/><path d="M193.64,614.81a2.5,2.5,0,0,1-1.77-4.27L212,590.39a2.5,2.5,0,0,1,3.54,3.54l-20.16,20.16A2.49,2.49,0,0,1,193.64,614.81Z" style="fill:#f83c7a"/><circle cx="193.64" cy="612.31" r="2.4" style="fill:#1d1d1b"/><path d="M193.64,610a2.27,2.27,0,1,1-2.27,2.27,2.28,2.28,0,0,1,2.27-2.27m0-.25a2.52,2.52,0,1,0,2.52,2.52,2.52,2.52,0,0,0-2.52-2.52Z" style="fill:#f83c7a"/><path d="M215,486.88a2.5,2.5,0,0,1-1.77-4.27l20.16-20.16A2.5,2.5,0,1,1,236.9,466l-20.16,20.16A2.49,2.49,0,0,1,215,486.88Z" style="fill:#f83c7a"/><circle cx="214.98" cy="484.38" r="2.4" style="fill:#1d1d1b"/><path d="M215,482.11a2.27,2.27,0,1,1-2.27,2.27,2.28,2.28,0,0,1,2.27-2.27m0-.25a2.52,2.52,0,1,0,2.52,2.52,2.52,2.52,0,0,0-2.52-2.52Z" style="fill:#f83c7a"/><circle cx="185.33" cy="496.27" r="1.55" style="fill:#f83c7a"/><circle cx="146.67" cy="474.3" r="1.55" style="fill:#f83c7a"/><circle cx="196.16" cy="554.98" r="1.55" style="fill:#f83c7a"/><circle cx="150.01" cy="593.15" r="1.55" style="fill:#f83c7a"/><circle cx="104.91" cy="577.55" r="1.55" style="fill:#f83c7a"/><circle cx="225.06" cy="579.1" r="1.55" style="fill:#f83c7a"/><circle cx="252.54" cy="507.93" r="1.55" style="fill:#f83c7a"/><path d="M159,568.66a2.5,2.5,0,0,1-1.77-4.27l72.31-72.31a2.5,2.5,0,1,1,3.54,3.54l-72.31,72.31A2.49,2.49,0,0,1,159,568.66Z" style="fill:#f83c7a"/><path d="M159,568.56a2.4,2.4,0,1,1,.87-.17A2.39,2.39,0,0,1,159,568.56Z" style="fill:#1d1d1b"/><path d="M159,563.89h0a2.27,2.27,0,1,1-.83.16,2.26,2.26,0,0,1,.83-.16m0-.25a2.52,2.52,0,1,0,2.35,1.6,2.52,2.52,0,0,0-2.35-1.6Z" style="fill:#f83c7a"/><path d="M110.51,541.86a2.5,2.5,0,0,1-1.77-4.27l72.31-72.31a2.5,2.5,0,1,1,3.54,3.54l-72.31,72.31A2.49,2.49,0,0,1,110.51,541.86Z" style="fill:#f83c7a"/><path d="M110.51,541.76a2.4,2.4,0,1,1,.87-.17A2.39,2.39,0,0,1,110.51,541.76Z" style="fill:#091a25"/><path d="M110.51,537.09h0a2.27,2.27,0,1,1-.83.16,2.26,2.26,0,0,1,.83-.16m0-.25a2.52,2.52,0,1,0,2.35,1.6,2.52,2.52,0,0,0-2.35-1.6Z" style="fill:#f83c7a"/><path d="M139.65,629.89a1,1,0,0,1-.71-1.71l99.57-99.57a1,1,0,0,1,1.41,1.41l-99.57,99.57A1,1,0,0,1,139.65,629.89Z" style="fill:#f83c7a"/><circle cx="139.53" cy="629.01" r="1" style="fill:#1d1d1b"/><path d="M131.06,561.3a1,1,0,0,1-.71-1.71l37.89-37.89a1,1,0,0,1,1.41,1.41L131.77,561A1,1,0,0,1,131.06,561.3Z" style="fill:#f83c7a"/><circle cx="131.05" cy="560.31" r="1" style="fill:#1d1d1b"/><path d="M135.5,281.93c16.29-6.08,23.84,9.56,40.13,3.48s8.74-21.72,25-27.8,23.84,9.56,40.13,3.48,8.73-21.72,25-27.8,23.84,9.56,40.13,3.48S314.68,215,331,209s23.84,9.56,40.13,3.48,8.74-21.72,25-27.8,23.84,9.56,40.14,3.48,8.74-21.72,25-27.8,23.85,9.56,40.14,3.48,8.74-21.72,25-27.8" style="fill:none;stroke-linecap:round;stroke-miterlimit:10;stroke-width:7px;stroke:url(#New_Gradient_Swatch_5-3)"/></g></g></g></svg>