<svg id="Layer_1" data-name="Layer 1" xmlns="http://www.w3.org/2000/svg" xmlns:xlink="http://www.w3.org/1999/xlink" viewBox="0 0 1190.55 841.89"><defs><linearGradient id="New_Gradient_Swatch_6" x1="1098.32" y1="661.38" x2="1128.19" y2="661.38" gradientUnits="userSpaceOnUse"><stop offset="0" stop-color="#0ceaea"/><stop offset="0.5" stop-color="#20e2b1"/><stop offset="1" stop-color="#29ffc5"/></linearGradient><linearGradient id="New_Gradient_Swatch_2" x1="-288.23" y1="806.31" x2="-226.77" y2="806.31" gradientTransform="translate(1183.18 -187.2)" gradientUnits="userSpaceOnUse"><stop offset="0" stop-color="#dfec3a"/><stop offset="1" stop-color="#4ff0d6"/></linearGradient><linearGradient id="New_Gradient_Swatch_5" x1="932.41" y1="525.56" x2="973.83" y2="531.07" gradientUnits="userSpaceOnUse"><stop offset="0" stop-color="#ff512f"/><stop offset="1" stop-color="#dc2476"/></linearGradient><linearGradient id="New_Gradient_Swatch_5-2" x1="931.06" y1="535.66" x2="972.49" y2="541.17" xlink:href="#New_Gradient_Swatch_5"/><linearGradient id="New_Gradient_Swatch_5-3" x1="929.77" y1="545.44" x2="971.19" y2="550.96" xlink:href="#New_Gradient_Swatch_5"/><linearGradient id="New_Gradient_Swatch_5-4" x1="934.47" y1="510.16" x2="975.88" y2="515.67" xlink:href="#New_Gradient_Swatch_5"/><linearGradient id="New_Gradient_Swatch_5-5" x1="924.12" y1="587.92" x2="965.53" y2="593.43" xlink:href="#New_Gradient_Swatch_5"/><linearGradient id="New_Gradient_Swatch_2-2" x1="187.05" y1="-857" x2="214.85" y2="-857" gradientTransform="translate(876.53 1480.07)" xlink:href="#New_Gradient_Swatch_2"/><linearGradient id="linear-gradient" x1="291.07" y1="-743.93" x2="329.45" y2="-743.93" gradientTransform="translate(1822.85 975.5) rotate(-88.86)" gradientUnits="userSpaceOnUse"><stop offset="0" stop-color="#dfec3a"/><stop offset="0.94" stop-color="#d9ec41"/><stop offset="0.96" stop-color="#d7ec43"/><stop offset="0.97" stop-color="#d1ec4a"/><stop offset="0.98" stop-color="#c6ed55"/><stop offset="0.98" stop-color="#b6ed66"/><stop offset="0.99" stop-color="#a2ee7c"/><stop offset="0.99" stop-color="#89ee98"/><stop offset="1" stop-color="#6cefb7"/><stop offset="1" stop-color="#4ff0d6"/></linearGradient><linearGradient id="linear-gradient-2" x1="1103.17" y1="669.69" x2="1104.03" y2="669.69" gradientTransform="translate(1751.28 -446.97) rotate(88.86)" xlink:href="#linear-gradient"/><linearGradient id="linear-gradient-3" x1="293.63" y1="-744.15" x2="337.54" y2="-744.15" gradientTransform="translate(1822.85 975.5) rotate(-88.86)" gradientUnits="userSpaceOnUse"><stop offset="0.57" stop-color="#dfec3a"/><stop offset="0.68" stop-color="#ddec3d"/><stop offset="0.75" stop-color="#d5ec45"/><stop offset="0.81" stop-color="#c7ed54"/><stop offset="0.86" stop-color="#b4ed69"/><stop offset="0.9" stop-color="#9bee84"/><stop offset="0.95" stop-color="#7cefa5"/><stop offset="0.99" stop-color="#59f0cc"/><stop offset="1" stop-color="#4ff0d6"/></linearGradient><linearGradient id="linear-gradient-4" x1="295.57" y1="-742.28" x2="342.09" y2="-742.28" gradientTransform="translate(1822.85 975.5) rotate(-88.86)" gradientUnits="userSpaceOnUse"><stop offset="0" stop-color="#dfec3a"/><stop offset="0.35" stop-color="#ddec3c"/><stop offset="0.5" stop-color="#d6ec43"/><stop offset="0.62" stop-color="#cbed50"/><stop offset="0.72" stop-color="#baed62"/><stop offset="0.8" stop-color="#a4ee79"/><stop offset="0.88" stop-color="#8aee96"/><stop offset="0.95" stop-color="#6befb8"/><stop offset="1" stop-color="#4ff0d6"/></linearGradient><linearGradient id="linear-gradient-5" x1="305.36" y1="-743.78" x2="345.53" y2="-743.78" gradientTransform="translate(1822.85 975.5) rotate(-88.86)" gradientUnits="userSpaceOnUse"><stop offset="0" stop-color="#dfec3a"/><stop offset="0.17" stop-color="#dcec3e"/><stop offset="0.33" stop-color="#d1ec49"/><stop offset="0.49" stop-color="#c0ed5c"/><stop offset="0.64" stop-color="#a8ee76"/><stop offset="0.79" stop-color="#88ee98"/><stop offset="0.93" stop-color="#63efc1"/><stop offset="1" stop-color="#4ff0d6"/></linearGradient><linearGradient id="linear-gradient-6" x1="299.5" y1="-737.1" x2="348.19" y2="-737.1" gradientTransform="translate(1822.85 975.5) rotate(-88.86)" gradientUnits="userSpaceOnUse"><stop offset="0" stop-color="#dfec3a"/><stop offset="0.33" stop-color="#ddec3c"/><stop offset="0.45" stop-color="#d7ec43"/><stop offset="0.54" stop-color="#cced4f"/><stop offset="0.61" stop-color="#bced60"/><stop offset="0.67" stop-color="#a8ee76"/><stop offset="0.69" stop-color="#a1ee7d"/><stop offset="0.75" stop-color="#97ee88"/><stop offset="0.86" stop-color="#7cefa6"/><stop offset="1" stop-color="#50f0d5"/><stop offset="1" stop-color="#4ff0d6"/></linearGradient><linearGradient id="linear-gradient-7" x1="307.71" y1="-737.12" x2="350.25" y2="-737.12" gradientTransform="translate(1822.85 975.5) rotate(-88.86)" gradientUnits="userSpaceOnUse"><stop offset="0" stop-color="#dfec3a"/><stop offset="0.24" stop-color="#ddec3c"/><stop offset="0.36" stop-color="#d6ec44"/><stop offset="0.47" stop-color="#c9ed52"/><stop offset="0.55" stop-color="#b7ed65"/><stop offset="0.63" stop-color="#a0ee7e"/><stop offset="0.71" stop-color="#83ef9d"/><stop offset="0.77" stop-color="#62efc1"/><stop offset="0.81" stop-color="#4ff0d6"/></linearGradient><linearGradient id="linear-gradient-8" x1="311.23" y1="-733.38" x2="351.39" y2="-733.38" gradientTransform="translate(1822.85 975.5) rotate(-88.86)" gradientUnits="userSpaceOnUse"><stop offset="0" stop-color="#dfec3a"/><stop offset="0.72" stop-color="#55f0cf"/><stop offset="0.82" stop-color="#4ff0d6"/></linearGradient><linearGradient id="New_Gradient_Swatch_2-3" x1="310.01" y1="-724.75" x2="348.39" y2="-724.75" gradientTransform="translate(1822.85 975.5) rotate(-88.86)" xlink:href="#New_Gradient_Swatch_2"/><linearGradient id="New_Gradient_Swatch_5-6" x1="651.03" y1="51.5" x2="872.45" y2="51.5" gradientTransform="translate(779.09 1192.17) rotate(-90)" xlink:href="#New_Gradient_Swatch_5"/><linearGradient id="New_Gradient_Swatch_5-7" x1="1420.47" y1="-169.49" x2="1641.89" y2="-169.49" gradientTransform="translate(551.03 -1182.62) rotate(90)" xlink:href="#New_Gradient_Swatch_5"/><linearGradient id="New_Gradient_Swatch_2-4" x1="1684.13" y1="-188.7" x2="1826.17" y2="-188.7" gradientTransform="translate(551.03 -1182.62) rotate(90)" xlink:href="#New_Gradient_Swatch_2"/><linearGradient id="New_Gradient_Swatch_2-5" x1="1054.65" y1="385.52" x2="1123.73" y2="385.52" gradientTransform="translate(-411.49 7.96)" xlink:href="#New_Gradient_Swatch_2"/><linearGradient id="New_Gradient_Swatch_2-6" x1="657.08" y1="436.93" x2="684.85" y2="436.93" gradientTransform="matrix(1, 0, 0, 1, 0, 0)" xlink:href="#New_Gradient_Swatch_2"/><linearGradient id="New_Gradient_Swatch_2-7" x1="627.66" y1="434.81" x2="666.03" y2="434.81" gradientTransform="matrix(1, 0, 0, 1, 0, 0)" xlink:href="#New_Gradient_Swatch_2"/><linearGradient id="New_Gradient_Swatch_2-8" x1="642.48" y1="401.82" x2="662.21" y2="401.82" gradientTransform="matrix(1, 0, 0, 1, 0, 0)" xlink:href="#New_Gradient_Swatch_2"/><linearGradient id="New_Gradient_Swatch_2-9" x1="604.65" y1="428.34" x2="679.17" y2="428.34" gradientTransform="matrix(1, 0, 0, 1, 0, 0)" xlink:href="#New_Gradient_Swatch_2"/><linearGradient id="New_Gradient_Swatch_2-10" x1="597.65" y1="406.81" x2="666.89" y2="406.81" gradientTransform="matrix(1, 0, 0, 1, 0, 0)" xlink:href="#New_Gradient_Swatch_2"/><linearGradient id="New_Gradient_Swatch_2-11" x1="616.09" y1="445.21" x2="687.52" y2="445.21" gradientTransform="matrix(1, 0, 0, 1, 0, 0)" xlink:href="#New_Gradient_Swatch_2"/><linearGradient id="New_Gradient_Swatch_2-12" x1="604.75" y1="431.6" x2="636.67" y2="431.6" gradientTransform="matrix(1, 0, 0, 1, 0, 0)" xlink:href="#New_Gradient_Swatch_2"/><linearGradient id="New_Gradient_Swatch_2-13" x1="652.86" y1="165.91" x2="670.84" y2="165.91" gradientTransform="matrix(1, 0, 0, 1, 0, 0)" xlink:href="#New_Gradient_Swatch_2"/><linearGradient id="New_Gradient_Swatch_2-14" x1="633.81" y1="164.54" x2="658.65" y2="164.54" gradientTransform="matrix(1, 0, 0, 1, 0, 0)" xlink:href="#New_Gradient_Swatch_2"/><linearGradient id="New_Gradient_Swatch_2-15" x1="643.41" y1="143.18" x2="656.18" y2="143.18" gradientTransform="matrix(1, 0, 0, 1, 0, 0)" xlink:href="#New_Gradient_Swatch_2"/><linearGradient id="New_Gradient_Swatch_2-16" x1="618.92" y1="160.35" x2="667.17" y2="160.35" gradientTransform="matrix(1, 0, 0, 1, 0, 0)" xlink:href="#New_Gradient_Swatch_2"/><linearGradient id="New_Gradient_Swatch_2-17" x1="614.39" y1="146.41" x2="659.22" y2="146.41" gradientTransform="matrix(1, 0, 0, 1, 0, 0)" xlink:href="#New_Gradient_Swatch_2"/><linearGradient id="New_Gradient_Swatch_2-18" x1="626.32" y1="171.27" x2="672.57" y2="171.27" gradientTransform="matrix(1, 0, 0, 1, 0, 0)" xlink:href="#New_Gradient_Swatch_2"/><linearGradient id="New_Gradient_Swatch_2-19" x1="618.98" y1="162.46" x2="639.65" y2="162.46" gradientTransform="matrix(1, 0, 0, 1, 0, 0)" xlink:href="#New_Gradient_Swatch_2"/><linearGradient id="New_Gradient_Swatch_6-2" x1="314.16" y1="822.71" x2="390.88" y2="822.71" xlink:href="#New_Gradient_Swatch_6"/></defs><title>bg-wallpaper</title><rect width="1190.55" height="841.89" style="fill:#fbf7ee"/><circle cx="52.6" cy="498.58" r="5.14" style="fill:#f83c7a"/><circle cx="588.68" cy="267.26" r="1.21" style="fill:#061a25"/><circle cx="343.04" cy="132.9" r="1.43" style="fill:#061a25"/><circle cx="163.55" cy="127.26" r="1.43" style="fill:#f83c7a"/><circle cx="132.78" cy="305.52" r="1.43" style="fill:#061a25"/><circle cx="911.04" cy="474.76" r="1.07" style="fill:#f83c7a"/><circle cx="1063.57" cy="749.89" r="1.21" style="fill:#061a25"/><circle cx="820.28" cy="555.46" r="1.07" style="fill:#061a25"/><circle cx="1058.97" cy="274.54" r="1.21" style="fill:#061a25"/><circle cx="352.52" cy="588.11" r="4.99" style="fill:#061a25"/><circle cx="186.94" cy="720.59" r="1.43" style="fill:#f83c7a"/><circle cx="708.35" cy="148.11" r="1.21" style="fill:#f83c7a"/><circle cx="1017.09" cy="133.74" r="4.23" style="fill:#061a25"/><circle cx="704.22" cy="473.45" r="1.07" style="fill:#f83c7a"/><circle cx="469.84" cy="647.01" r="1.21" style="fill:#061a25"/><circle cx="132.78" cy="587.58" r="1.43" style="fill:#f83c7a"/><circle cx="1113.26" cy="661.38" r="14.93" style="fill:url(#New_Gradient_Swatch_6)"/><circle cx="552.71" cy="154.84" r="3.9" style="fill:#f83c7a"/><circle cx="519.61" cy="336.79" r="3.9" style="fill:#e0ed3a"/><circle cx="960.95" cy="781.11" r="3.9" style="fill:#f83c7a"/><circle cx="1045.22" cy="442.12" r="3.9" style="fill:#e0ed3a"/><circle cx="117.22" cy="436.86" r="4.58" style="fill:#e0ed3a"/><circle cx="293.73" cy="654.26" r="4.58" style="fill:#f83c7a"/><circle cx="593.04" cy="579.75" r="7.78" style="fill:#f83c7a"/><circle cx="73.87" cy="89.79" r="9.14" style="fill:#f83c7a"/><path d="M895,598.92a36,36,0,1,1,50.91,50.91Z" style="fill:url(#New_Gradient_Swatch_2)"/><path d="M967.41,537.15a5.09,5.09,0,0,1-2.29.05c-2.38-.43-3.45-1.82-4.69-3.44s-2.85-3.72-6.11-4.31-5.17.81-6.8,2.06a13.8,13.8,0,0,1-1.6,1.12,68.71,68.71,0,0,0-3.57-7.91,8.6,8.6,0,0,0,1.16.29c3.33.6,5.17-.81,6.8-2.06s2.66-2,5-1.62,3.45,1.82,4.69,3.44,2.52,3.3,5.11,4.07C966,531.58,966.78,534.36,967.41,537.15Z" style="fill:url(#New_Gradient_Swatch_5)"/><path d="M938.68,518.57a8.72,8.72,0,0,0-5.57-3.61c-3.33-.6-5.17.81-6.8,2.06s-2.66,2-5,1.62-3.45-1.83-4.69-3.44-2.85-3.72-6.12-4.31-5.17.81-6.8,2.06-2.66,2-5,1.61-3.45-1.82-4.69-3.44-2.85-3.72-6.11-4.31a1.16,1.16,0,0,0-1.35.93,1.16,1.16,0,0,0,.93,1.35c2.38.43,3.45,1.83,4.69,3.44s2.85,3.72,6.11,4.31,5.18-.81,6.81-2.06,2.66-2,5-1.62,3.45,1.83,4.69,3.44,2.85,3.72,6.12,4.31,5.17-.81,6.8-2.06,2.66-2,5-1.62,3.45,1.83,4.69,3.44a10,10,0,0,0,5,4,8.6,8.6,0,0,0,1.16.29c3.33.6,5.17-.81,6.8-2.06s2.66-2,5-1.62,3.45,1.82,4.69,3.44,2.52,3.3,5.11,4.07c-.35-1-.72-2.08-1.1-3.11a12,12,0,0,1-2.17-2.37c-1.33-1.74-2.85-3.72-6.11-4.31s-5.17.81-6.8,2.06-2.67,2-5,1.62-3.45-1.83-4.69-3.44Z" style="fill:#e0ed3a"/><path d="M968.88,545.32l-.07,0c-1.49,1.14-2.66,2-5,1.62s-3.45-1.82-4.69-3.44-2.85-3.72-6.11-4.31a7,7,0,0,0-4.81.7q-.65-2.57-1.51-5.11a14.12,14.12,0,0,0,2.23-1.48c1.49-1.14,2.66-2,5-1.62s3.45,1.82,4.69,3.44,2.85,3.72,6.12,4.31a7.35,7.35,0,0,0,3.19-.06Q968.49,542.36,968.88,545.32Z" style="fill:url(#New_Gradient_Swatch_5-2)"/><path d="M945.92,532.62a4.76,4.76,0,0,1-3.38.5c-2.38-.43-3.45-1.83-4.69-3.44s-2.85-3.72-6.12-4.31-5.17.81-6.8,2.06-2.66,2-5,1.62-3.45-1.83-4.69-3.44-2.85-3.72-6.12-4.31-5.17.81-6.8,2.06-2.66,2-5,1.61-3.45-1.82-4.69-3.44-2.85-3.72-6.11-4.31a1.16,1.16,0,0,0-1.35.94,1.14,1.14,0,0,0,.22.91,1.16,1.16,0,0,0,.71.44c2.38.43,3.45,1.83,4.69,3.44s2.85,3.72,6.11,4.31,5.18-.81,6.81-2.05,2.66-2,5-1.62,3.45,1.83,4.69,3.44,2.85,3.72,6.12,4.31,5.17-.81,6.8-2.06,2.66-2,5-1.62,3.45,1.83,4.69,3.44,2.85,3.72,6.12,4.31a7,7,0,0,0,4.58-.58,14.12,14.12,0,0,0,2.23-1.48c1.49-1.14,2.66-2,5-1.62s3.45,1.82,4.69,3.44,2.85,3.72,6.12,4.31a7.35,7.35,0,0,0,3.19-.06c-.15-.76-.31-1.51-.49-2.27a5.09,5.09,0,0,1-2.29.05c-2.38-.43-3.45-1.82-4.69-3.44s-2.85-3.72-6.11-4.31-5.17.81-6.8,2.06A13.8,13.8,0,0,1,945.92,532.62Z" style="fill:#e0ed3a"/><path d="M969.18,548q.29,2.89.39,5.79a14,14,0,0,0-2.06,1.39c-1.49,1.14-2.66,2-5,1.62s-3.45-1.82-4.69-3.44-2.85-3.72-6.12-4.31a7.84,7.84,0,0,0-1.85-.13c-.26-2.2-.62-4.41-1.1-6.6a4.8,4.8,0,0,1,3.84-.78c2.38.43,3.45,1.82,4.69,3.44s2.85,3.72,6.11,4.31A7.13,7.13,0,0,0,969.18,548Z" style="fill:url(#New_Gradient_Swatch_5-3)"/><path d="M964,525.73a12,12,0,0,1-2.17-2.37c-1.33-1.74-2.85-3.72-6.11-4.31s-5.17.81-6.8,2.06-2.67,2-5,1.62-3.45-1.83-4.69-3.44l-.55-.7c-.67-1-1.38-2-2.11-3-7.48-10,7.94-21.81,15.42-11.79A88.55,88.55,0,0,1,964,525.73Z" style="fill:url(#New_Gradient_Swatch_5-4)"/><path d="M948.21,539.93a14.83,14.83,0,0,0-2,1.36c-1.49,1.13-2.67,2-5,1.61s-3.45-1.83-4.69-3.44-2.85-3.72-6.12-4.31-5.17.81-6.8,2.06-2.66,2-5,1.62-3.45-1.83-4.69-3.44-2.85-3.72-6.12-4.31-5.17.81-6.8,2.06-2.66,2-5,1.61-3.45-1.82-4.69-3.44-2.85-3.72-6.11-4.31a1.16,1.16,0,0,0-.41,2.28c2.38.43,3.45,1.83,4.69,3.44s2.85,3.72,6.12,4.31,5.18-.81,6.81-2.05,2.66-2,5-1.62,3.45,1.83,4.69,3.44,2.85,3.72,6.12,4.31,5.17-.81,6.8-2.06,2.66-2,5-1.62,3.45,1.83,4.69,3.44,2.85,3.72,6.12,4.31,5.17-.81,6.8-2.06c.4-.3.77-.59,1.14-.83a4.8,4.8,0,0,1,3.84-.78c2.38.43,3.45,1.82,4.69,3.44s2.85,3.72,6.11,4.31a7.13,7.13,0,0,0,5.77-1.29c-.09-.89-.19-1.77-.3-2.66l-.07,0c-1.49,1.14-2.66,2-5,1.62s-3.45-1.82-4.69-3.44-2.85-3.72-6.11-4.31A7,7,0,0,0,948.21,539.93Z" style="fill:#e0ed3a"/><path d="M969.62,556.47a88.65,88.65,0,0,1-34,70.28c-9.85,7.72-21.63-7.72-11.8-15.42a69,69,0,0,0,26.27-60.13,5.93,5.93,0,0,1,1.21.1c2.38.43,3.45,1.82,4.69,3.44s2.85,3.72,6.11,4.31,5.18-.81,6.81-2.05Z" style="fill:url(#New_Gradient_Swatch_5-5)"/><path d="M949.86,548.89a8.36,8.36,0,0,0-4.95,2.19c-1.49,1.13-2.67,2-5,1.61s-3.45-1.83-4.69-3.44-2.85-3.72-6.12-4.31-5.17.81-6.8,2.06-2.66,2-5,1.62-3.45-1.83-4.69-3.44-2.85-3.72-6.12-4.31-5.17.81-6.8,2.06-2.66,2-5,1.62-3.45-1.82-4.69-3.44-2.85-3.72-6.11-4.31a1.16,1.16,0,0,0-.41,2.28c2.38.43,3.45,1.83,4.69,3.44s2.85,3.72,6.12,4.31,5.18-.81,6.81-2.05,2.66-2,5-1.62,3.45,1.83,4.69,3.44,2.85,3.72,6.12,4.31,5.17-.81,6.8-2.06,2.66-2,5-1.62,3.45,1.83,4.69,3.44,2.85,3.72,6.12,4.31,5.17-.81,6.8-2.06a6.16,6.16,0,0,1,3.77-1.72,5.93,5.93,0,0,1,1.21.1c2.38.43,3.45,1.82,4.69,3.44s2.85,3.72,6.11,4.31,5.18-.81,6.81-2.05l.7-.52c0-.9,0-1.8-.05-2.71a14,14,0,0,0-2.06,1.39c-1.49,1.14-2.66,2-5,1.62s-3.45-1.82-4.69-3.44-2.85-3.72-6.12-4.31A7.84,7.84,0,0,0,949.86,548.89Z" style="fill:#e0ed3a"/><circle cx="1077.48" cy="623.08" r="13.9" transform="translate(433.17 1688) rotate(-88.86)" style="fill:url(#New_Gradient_Swatch_2-2)"/><path d="M1104,669.69a.43.43,0,0,1-.74.29l-36.77-38.26a.43.43,0,0,1,.62-.6l36.77,38.26A.43.43,0,0,1,1104,669.69Z" style="fill:url(#linear-gradient)"/><circle cx="1103.6" cy="669.69" r="0.43" transform="translate(412.17 1759.8) rotate(-88.86)" style="fill:url(#linear-gradient-2)"/><path d="M1106.63,667.12a.49.49,0,0,1-.85.33l-42.07-43.77a.49.49,0,0,1,.71-.68l42.07,43.77A.49.49,0,0,1,1106.63,667.12Z" style="fill:url(#linear-gradient-3)"/><circle cx="1106.15" cy="667.12" r="0.5" transform="translate(417.24 1759.82) rotate(-88.86)" style="fill:#f83c7a"/><path d="M1109.84,665.21a.52.52,0,0,1-.9.35l-44.56-46.36a.52.52,0,1,1,.75-.73l44.56,46.36A.52.52,0,0,1,1109.84,665.21Z" style="fill:url(#linear-gradient-4)"/><circle cx="1109.32" cy="665.21" r="0.53" transform="translate(422.26 1761.12) rotate(-88.86)" style="fill:#f83c7a"/><path d="M1105.35,655.4a.45.45,0,0,1-.78.3l-38.47-40a.45.45,0,1,1,.65-.63l38.47,40A.45.45,0,0,1,1105.35,655.4Z" style="fill:url(#linear-gradient-5)"/><circle cx="1104.9" cy="655.39" r="0.45" transform="translate(427.74 1747.09) rotate(-88.86)" style="fill:#f83c7a"/><path d="M1116.19,661.38a.55.55,0,0,1-.94.37l-46.65-48.54a.55.55,0,0,1,.79-.76L1116,661A.55.55,0,0,1,1116.19,661.38Z" style="fill:url(#linear-gradient-6)"/><circle cx="1115.65" cy="661.38" r="0.55" transform="translate(432.28 1763.7) rotate(-88.86)" style="fill:#f83c7a"/><path d="M1113.25,653.18a.48.48,0,0,1-.82.32l-40.75-42.4a.48.48,0,1,1,.69-.66l40.75,42.4A.48.48,0,0,1,1113.25,653.18Z" style="fill:url(#linear-gradient-7)"/><circle cx="1112.78" cy="653.18" r="0.48" transform="translate(437.67 1752.79) rotate(-88.86)" style="fill:#f83c7a"/><path d="M1115.87,649.74a.45.45,0,0,1-.78.3l-38.47-40a.45.45,0,0,1,.65-.63l38.47,40A.45.45,0,0,1,1115.87,649.74Z" style="fill:url(#linear-gradient-8)"/><circle cx="1115.42" cy="649.74" r="0.45" transform="translate(443.71 1752.06) rotate(-88.86)" style="fill:#f83c7a"/><path d="M1123.59,651.13a.43.43,0,0,1-.74.29l-36.77-38.26a.43.43,0,0,1,.62-.6l36.77,38.26A.43.43,0,0,1,1123.59,651.13Z" style="fill:url(#New_Gradient_Swatch_2-3)"/><circle cx="1123.16" cy="651.13" r="0.43" transform="translate(449.9 1761.16) rotate(-88.86)" style="fill:#f83c7a"/><path d="M955.54,343.42a2.39,2.39,0,0,0,2.32-2.53,2.5,2.5,0,0,0-2.67-2.48,2.35,2.35,0,0,0-2.31,2.53A2.45,2.45,0,0,0,955.54,343.42Zm-2.65-57.77a2.37,2.37,0,0,0,2.31,2.47,2.58,2.58,0,0,0,2.67-2.6,2.37,2.37,0,0,0-2.4-2.45A2.52,2.52,0,0,0,952.89,285.65Zm-221,44.13a2.56,2.56,0,0,0,2.51,2.65,2.38,2.38,0,0,0,2.36-2.42,2.56,2.56,0,0,0-2.53-2.63A2.31,2.31,0,0,0,731.9,329.78Zm198.89-88.34a2.33,2.33,0,0,0,2.3,2.45,2.52,2.52,0,0,0,2.56-2.52,2.38,2.38,0,0,0-2.36-2.5A2.49,2.49,0,0,0,930.79,241.44Zm-196.74,102a2.51,2.51,0,0,0,2.53-2.54,2.42,2.42,0,0,0-2.34-2.46,2.47,2.47,0,0,0-2.54,2.51A2.34,2.34,0,0,0,734.05,343.42ZM930.79,385.1a2.45,2.45,0,0,0,2.52,2.52,2.49,2.49,0,0,0-.16-5A2.32,2.32,0,0,0,930.79,385.1ZM765,396.15a2.48,2.48,0,0,0,2.46,2.52,2.39,2.39,0,0,0,2.3-2.48,2.47,2.47,0,0,0-2.46-2.52A2.36,2.36,0,0,0,765,396.15ZM736.57,285.63a2.48,2.48,0,0,0-1.86-2.5,2.35,2.35,0,0,0-2.83,2.72,2.4,2.4,0,0,0,2.45,2.26A2.42,2.42,0,0,0,736.57,285.63Zm22.12-44.28a2.36,2.36,0,1,0-2.33,2.54A2.41,2.41,0,0,0,758.68,241.35ZM922.06,398.67a2.41,2.41,0,0,0,2.39-2.49,2.45,2.45,0,0,0-2.38-2.52,2.51,2.51,0,0,0,0,5ZM891.26,263.5a2.38,2.38,0,0,0-2.32-2.47,2.44,2.44,0,0,0-2.37,2.51A2.41,2.41,0,0,0,888.9,266,2.38,2.38,0,0,0,891.26,263.5Zm-13.37-35.61a2.36,2.36,0,0,0-2.35,2.43,2.39,2.39,0,0,0,2.32,2.54,2.49,2.49,0,0,0,0-5Zm-90.74,57.76a2.37,2.37,0,0,0,2.32,2.46,2.49,2.49,0,0,0,0-5A2.37,2.37,0,0,0,787.14,285.66Zm15.72,0a2.35,2.35,0,1,0-4.69,0,2.42,2.42,0,0,0,2.29,2.51A2.39,2.39,0,0,0,802.87,285.65Zm72.67,33.15a2.36,2.36,0,0,0,2.39,2.47,2.49,2.49,0,0,0,0-5A2.38,2.38,0,0,0,875.54,318.8Zm57.57-2.51a2.49,2.49,0,0,0,0,5,2.49,2.49,0,0,0,0-5Zm-57.57-30.66a2.38,2.38,0,0,0,2.3,2.49,2.49,2.49,0,0,0,.08-5A2.36,2.36,0,0,0,875.54,285.63ZM802.87,396.16a2.38,2.38,0,0,0-2.36-2.5,2.49,2.49,0,1,0,2.36,2.5Zm-15.72,0a2.37,2.37,0,0,0,2.36,2.51,2.49,2.49,0,0,0,0-5A2.36,2.36,0,0,0,787.14,396.13Zm0-22.11a2.35,2.35,0,0,0,2.35,2.51,2.49,2.49,0,0,0,0-5A2.37,2.37,0,0,0,787.15,374Zm15.72,0a2.35,2.35,0,1,0-2.3,2.49A2.4,2.4,0,0,0,802.87,374ZM836,263.55a2.39,2.39,0,0,0-2.36-2.51,2.43,2.43,0,0,0-2.33,2.47,2.35,2.35,0,1,0,4.69,0Zm39.53-55.25a2.36,2.36,0,0,0,2.32,2.46,2.49,2.49,0,0,0,0-5A2.39,2.39,0,0,0,875.54,208.3Zm0,55.25a2.37,2.37,0,0,0,2.32,2.46,2.49,2.49,0,1,0-2.32-2.46Zm-88.39,77.33a2.36,2.36,0,0,0,2.28,2.5,2.49,2.49,0,0,0,0-5A2.35,2.35,0,0,0,787.15,340.88Zm88.39,33.2a2.36,2.36,0,0,0,2.34,2.44,2.49,2.49,0,1,0-2.34-2.44Zm-72.67-33.24a2.37,2.37,0,0,0-2.34-2.44,2.49,2.49,0,1,0,2.34,2.44Zm17.42,0a2.38,2.38,0,0,0,2.34,2.52,2.49,2.49,0,0,0,0-5A2.38,2.38,0,0,0,820.29,340.85ZM789.48,261a2.49,2.49,0,0,0,0,5,2.49,2.49,0,0,0,0-5Zm-19.75,2.51a2.42,2.42,0,0,0-2.37-2.51,2.49,2.49,0,0,0,0,5A2.42,2.42,0,0,0,769.73,263.55Zm-22.11,22a2.35,2.35,0,1,0-2.34,2.53A2.41,2.41,0,0,0,747.62,285.59Zm0,55.29a2.35,2.35,0,1,0-4.69,0,2.42,2.42,0,0,0,2.32,2.48A2.39,2.39,0,0,0,747.62,340.88Zm0-77.37a2.35,2.35,0,1,0-2.36,2.5A2.38,2.38,0,0,0,747.62,263.51Zm185.49,90.9a2.38,2.38,0,0,0,2.37-2.41,2.42,2.42,0,0,0-2.34-2.53,2.37,2.37,0,0,0-2.35,2.43A2.34,2.34,0,0,0,933.11,354.41Zm-90.72-90.85a2.35,2.35,0,0,0,2.32,2.45,2.49,2.49,0,0,0,0-5A2.38,2.38,0,0,0,842.39,263.56Zm33.15,132.63a2.37,2.37,0,0,0,2.33,2.45,2.45,2.45,0,0,0,2.36-2.53,2.41,2.41,0,0,0-2.36-2.44A2.36,2.36,0,0,0,875.54,396.18ZM911,272.11a2.47,2.47,0,1,0,2.33,2.52A2.34,2.34,0,0,0,911,272.11Zm-35.5,68.73a2.35,2.35,0,1,0,4.69.08,2.43,2.43,0,0,0-2.35-2.52A2.37,2.37,0,0,0,875.54,340.85Zm35.47-97a2.36,2.36,0,0,0,2.37-2.41,2.35,2.35,0,1,0-4.69-.12A2.37,2.37,0,0,0,911,243.89Zm19.79,8.59a2.37,2.37,0,0,0,2.31,2.47,2.41,2.41,0,0,0,2.39-2.49,2.38,2.38,0,0,0-2.32-2.46A2.34,2.34,0,0,0,930.79,252.48ZM754,385.1a2.38,2.38,0,0,0,2.33,2.52,2.45,2.45,0,0,0,2.36-2.52,2.4,2.4,0,0,0-2.32-2.46A2.34,2.34,0,0,0,754,385.1Zm176.8-121.54a2.36,2.36,0,0,0,2.33,2.45,2.49,2.49,0,0,0,0-5A2.39,2.39,0,0,0,930.79,263.56Zm0,22a2.38,2.38,0,0,0,2.33,2.53,2.49,2.49,0,0,0,0-5A2.35,2.35,0,0,0,930.79,285.59ZM787.14,318.76a2.36,2.36,0,0,0,2.35,2.5,2.43,2.43,0,0,0,2.34-2.46,2.45,2.45,0,0,0-2.38-2.51A2.37,2.37,0,0,0,787.14,318.76ZM836,374a2.39,2.39,0,0,0-2.32-2.46,2.44,2.44,0,0,0-2.37,2.52A2.35,2.35,0,1,0,836,374Zm77.36-11a2.35,2.35,0,1,0-2.39,2.48A2.37,2.37,0,0,0,913.37,363Zm-55.25,11a2.35,2.35,0,1,0-4.69,0,2.35,2.35,0,1,0,4.69,0Zm-60,44.12a2.38,2.38,0,0,0,2.28,2.48,2.28,2.28,0,0,0,2.41-2.39,2.35,2.35,0,1,0-4.7-.09Zm132.63-44.09a2.37,2.37,0,0,0,2.33,2.45,2.41,2.41,0,0,0,2.36-2.51,2.44,2.44,0,0,0-2.35-2.46A2.38,2.38,0,0,0,930.79,374.07ZM802.87,318.78a2.35,2.35,0,1,0-4.69,0,2.35,2.35,0,1,0,4.69,0Zm-33.14-88.42a2.41,2.41,0,0,0-2.32-2.47,2.37,2.37,0,0,0-2.37,2.49,2.35,2.35,0,1,0,4.69,0Zm163.37,74.9a2.33,2.33,0,0,0-2.31,2.46,2.37,2.37,0,0,0,2.36,2.5,2.43,2.43,0,0,0,2.33-2.47A2.39,2.39,0,0,0,933.1,305.26ZM825,396.17a2.41,2.41,0,0,0-2.28-2.51,2.37,2.37,0,0,0-2.41,2.45,2.35,2.35,0,1,0,4.69.06ZM844.7,205.78a2.38,2.38,0,0,0-2.3,2.56,2.35,2.35,0,0,0,2.36,2.42,2.49,2.49,0,0,0-.05-5ZM825,318.86a2.43,2.43,0,0,0-2.32-2.56,2.49,2.49,0,0,0-.07,5A2.42,2.42,0,0,0,825,318.86Zm-2.35,96.92a2.34,2.34,0,0,0-2.34,2.43,2.35,2.35,0,1,0,2.34-2.43Zm22.13-187.89a2.35,2.35,0,0,0-2.37,2.4,2.39,2.39,0,0,0,2.3,2.56,2.49,2.49,0,0,0,.07-5Zm-24.47,57.7a2.39,2.39,0,0,0,2.34,2.52,2.49,2.49,0,0,0,0-5A2.38,2.38,0,0,0,820.29,285.59Zm0-55.26a2.35,2.35,0,1,0,2.33-2.45A2.37,2.37,0,0,0,820.29,230.34Zm-11-22a2.38,2.38,0,0,0,2.33,2.46,2.49,2.49,0,1,0-2.33-2.46Zm15.74,0a2.43,2.43,0,0,0-2.34-2.47,2.49,2.49,0,1,0,2.34,2.47Zm-22.11,22.16a2.37,2.37,0,0,0-2.34-2.51,2.49,2.49,0,1,0,2.34,2.51Zm39.53,55.12a2.38,2.38,0,0,0,2.26,2.6,2.49,2.49,0,0,0,.14-5A2.34,2.34,0,0,0,842.4,285.52Zm48.86,11.19a2.39,2.39,0,0,0-2.35-2.52,2.42,2.42,0,0,0-2.35,2.46,2.38,2.38,0,0,0,2.36,2.5A2.35,2.35,0,0,0,891.26,296.72Zm52.94,8.55a2.48,2.48,0,1,0,2.31,2.54A2.37,2.37,0,0,0,944.2,305.26Zm-174.47-8.62a2.35,2.35,0,1,0-4.69.08,2.34,2.34,0,0,0,2.42,2.43A2.4,2.4,0,0,0,769.73,296.64Zm52.88,2.51a2.38,2.38,0,0,0,2.37-2.41,2.42,2.42,0,0,0-2.33-2.54,2.39,2.39,0,0,0-2.36,2.43A2.35,2.35,0,0,0,822.61,299.15Zm-75,19.61a2.39,2.39,0,0,0-2.4-2.47,2.43,2.43,0,0,0-2.29,2.51,2.35,2.35,0,1,0,4.69,0Zm183.17-22.07a2.34,2.34,0,0,0,2.3,2.46,2.39,2.39,0,0,0,2.39-2.47,2.42,2.42,0,0,0-2.4-2.48A2.4,2.4,0,0,0,930.79,296.69Zm-17.42,33.14a2.35,2.35,0,1,0-2.3,2.47A2.36,2.36,0,0,0,913.37,329.83Zm11-66.32A2.35,2.35,0,1,0,922,266,2.39,2.39,0,0,0,924.41,263.51ZM836,318.78a2.35,2.35,0,1,0-2.37,2.49A2.38,2.38,0,0,0,836,318.78Zm-79.67-35.63a2.35,2.35,0,0,0-2.35,2.43,2.38,2.38,0,0,0,2.32,2.54,2.49,2.49,0,0,0,0-5Zm101.78,113a2.35,2.35,0,1,0-2.3,2.5A2.43,2.43,0,0,0,858.12,396.14Zm-15.72-77.39a2.35,2.35,0,0,0,2.34,2.51,2.42,2.42,0,0,0,2.36-2.45,2.45,2.45,0,0,0-2.37-2.52A2.37,2.37,0,0,0,842.39,318.75Zm-6.39-33a2.35,2.35,0,1,0-4.69-.16,2.43,2.43,0,0,0,2.31,2.57A2.38,2.38,0,0,0,836,285.71Zm22.11,33.1a2.35,2.35,0,1,0-4.69-.06,2.35,2.35,0,1,0,4.69.06Zm0-33.16a2.35,2.35,0,1,0-2.33,2.46A2.39,2.39,0,0,0,858.12,285.66ZM900,316.29a2.49,2.49,0,0,0,0,5,2.42,2.42,0,0,0,2.37-2.43A2.45,2.45,0,0,0,900,316.29Zm24.42,2.49a2.39,2.39,0,0,0-2.3-2.49,2.49,2.49,0,0,0,0,5A2.38,2.38,0,0,0,924.41,318.78Zm-33.15,77.34a2.38,2.38,0,0,0-2.32-2.46,2.49,2.49,0,0,0,0,5A2.39,2.39,0,0,0,891.26,396.13Zm55.25-77.37a2.4,2.4,0,0,0-2.33-2.46,2.44,2.44,0,0,0-2.36,2.53,2.35,2.35,0,1,0,4.69-.06ZM842.39,396.09a2.38,2.38,0,0,0,2.32,2.54,2.49,2.49,0,0,0,0-5A2.37,2.37,0,0,0,842.39,396.09Zm101.79-96.94a2.35,2.35,0,0,0,2.32-2.45,2.39,2.39,0,0,0-2.35-2.51,2.42,2.42,0,0,0-2.34,2.46A2.37,2.37,0,0,0,944.19,299.15Zm11,17.14a2.49,2.49,0,0,0,0,5,2.49,2.49,0,0,0,0-5Zm-57.59,79.85a2.36,2.36,0,0,0,2.36,2.49,2.46,2.46,0,0,0,2.33-2.49,2.42,2.42,0,0,0-2.4-2.49A2.36,2.36,0,0,0,897.64,396.14Zm-6.39-110.51a2.37,2.37,0,0,0-2.29-2.49,2.49,2.49,0,0,0,0,5A2.38,2.38,0,0,0,891.26,285.63Zm55.25-22.11A2.4,2.4,0,0,0,944.2,261a2.43,2.43,0,0,0-2.39,2.5,2.35,2.35,0,1,0,4.69,0Zm-22.1,22.1a2.35,2.35,0,1,0-2.29,2.5A2.38,2.38,0,0,0,924.41,285.62ZM911,387.56a2.47,2.47,0,1,0-2.33-2.51A2.36,2.36,0,0,0,911,387.56ZM767.32,354.41a2.37,2.37,0,0,0,2.41-2.37,2.43,2.43,0,0,0-2.3-2.58,2.48,2.48,0,0,0-.11,5Zm57.66-113a2.4,2.4,0,0,0-2.37-2.5,2.37,2.37,0,0,0-2.31,2.47,2.35,2.35,0,0,0,2.36,2.49A2.39,2.39,0,0,0,825,241.44Zm-55.25,0a2.35,2.35,0,1,0-4.69,0,2.35,2.35,0,0,0,2.4,2.45A2.37,2.37,0,0,0,769.73,241.41Zm143.64-11a2.35,2.35,0,1,0-2.34,2.46A2.39,2.39,0,0,0,913.37,230.4Zm-15.73-.05a2.37,2.37,0,0,0,2.34,2.51,2.49,2.49,0,0,0,0-5A2.36,2.36,0,0,0,897.64,230.35Zm-6.38.06a2.37,2.37,0,0,0-2.34-2.51,2.49,2.49,0,0,0,0,5A2.38,2.38,0,0,0,891.26,230.4Zm-33.14,0a2.35,2.35,0,1,0-2.3,2.49A2.39,2.39,0,0,0,858.12,230.37Zm-22.11,0a2.37,2.37,0,0,0-2.31-2.47,2.49,2.49,0,0,0-.05,5A2.38,2.38,0,0,0,836,230.36Zm-55.25,0a2.36,2.36,0,0,0-2.33-2.45,2.49,2.49,0,1,0,2.33,2.45ZM858.12,363a2.37,2.37,0,0,0-2.4-2.46,2.48,2.48,0,1,0,2.4,2.46Zm-88.39,11.1a2.42,2.42,0,0,0-2.36-2.52,2.49,2.49,0,1,0,2.36,2.52Zm121.54,33.09a2.35,2.35,0,1,0-2.34,2.5A2.35,2.35,0,0,0,891.26,407.17ZM825,374a2.42,2.42,0,0,0-2.41-2.47,2.39,2.39,0,0,0-2.28,2.51,2.37,2.37,0,0,0,2.32,2.46A2.4,2.4,0,0,0,825,374Zm66.27-165.68a2.38,2.38,0,0,0-2.33-2.51,2.35,2.35,0,0,0-2.37,2.38,2.36,2.36,0,1,0,4.7.13ZM900,371.55a2.39,2.39,0,0,0-2.31,2.56,2.35,2.35,0,0,0,2.36,2.42,2.49,2.49,0,0,0-.05-5Zm8.73,2.46a2.35,2.35,0,1,0,4.69.07,2.35,2.35,0,1,0-4.69-.07Zm15.73,0a2.4,2.4,0,0,0-2.39-2.48,2.44,2.44,0,0,0-2.3,2.5,2.35,2.35,0,1,0,4.69,0ZM836,208.23a2.39,2.39,0,0,0-2.33-2.46,2.49,2.49,0,0,0,0,5A2.38,2.38,0,0,0,836,208.23Zm19.78,207.55a2.48,2.48,0,1,0,2.33,2.45A2.38,2.38,0,0,0,855.79,415.78Zm41.86-74.91a2.36,2.36,0,0,0,2.35,2.5,2.49,2.49,0,0,0,0-5A2.35,2.35,0,0,0,897.64,340.87ZM800.5,409.67a2.35,2.35,0,0,0,2.36-2.4,2.35,2.35,0,1,0-2.36,2.4Zm-44.2-71.26a2.49,2.49,0,0,0,0,5,2.49,2.49,0,0,0,0-5Zm46.56-74.88a2.35,2.35,0,1,0-2.3,2.49A2.41,2.41,0,0,0,802.87,263.52Zm-22.11,77.35a2.35,2.35,0,1,0-4.69,0,2.42,2.42,0,0,0,2.33,2.47A2.39,2.39,0,0,0,780.76,340.87Zm55.25,0a2.37,2.37,0,0,0-2.33-2.44,2.49,2.49,0,1,0,2.33,2.44Zm-11-88.4a2.35,2.35,0,1,0-2.37,2.5A2.4,2.4,0,0,0,825,252.45Zm-4.69,11.05a2.37,2.37,0,0,0,2.35,2.5,2.49,2.49,0,1,0-2.35-2.5Zm104.13,77.36a2.37,2.37,0,0,0-2.4-2.46,2.49,2.49,0,0,0,0,5A2.39,2.39,0,0,0,924.41,340.87Zm8.71-2.46a2.49,2.49,0,0,0,0,5,2.49,2.49,0,0,0,0-5ZM754,318.75a2.37,2.37,0,0,0,2.34,2.51,2.41,2.41,0,0,0,2.35-2.45,2.44,2.44,0,0,0-2.36-2.53A2.4,2.4,0,0,0,754,318.75Zm90.75,52.8a2.39,2.39,0,0,0-2.34,2.44,2.36,2.36,0,0,0,2.32,2.53,2.42,2.42,0,0,0,2.37-2.43A2.46,2.46,0,0,0,844.74,371.55Zm46.52,2.51a2.39,2.39,0,0,0-2.35-2.51,2.49,2.49,0,0,0,0,5A2.37,2.37,0,0,0,891.26,374.06Zm-157-57.77a2.39,2.39,0,0,0-2.32,2.55,2.35,2.35,0,0,0,2.35,2.43,2.49,2.49,0,0,0,0-5Zm75,79.82a2.39,2.39,0,0,0,2.34,2.52,2.49,2.49,0,0,0,.06-5A2.36,2.36,0,0,0,809.24,396.11Zm35.5-57.71a2.49,2.49,0,0,0,0,5,2.49,2.49,0,0,0,0-5ZM754,374.07a2.37,2.37,0,0,0,2.32,2.45,2.49,2.49,0,1,0-2.32-2.45ZM933.1,332.3a2.47,2.47,0,0,0,.06-4.93,2.47,2.47,0,0,0-.06,4.93Zm13.41-2.43a2.35,2.35,0,1,0-2.33,2.43A2.34,2.34,0,0,0,946.51,329.87ZM836,396.15a2.38,2.38,0,0,0-2.3-2.48,2.49,2.49,0,1,0,2.3,2.48Zm22.11-88.39a2.35,2.35,0,1,0-2.32,2.46A2.37,2.37,0,0,0,858.12,307.75Zm-35.52-2.49a2.35,2.35,0,0,0-2.31,2.46,2.38,2.38,0,0,0,2.37,2.5,2.43,2.43,0,0,0,2.32-2.48A2.37,2.37,0,0,0,822.6,305.26Zm0,82.29a2.47,2.47,0,0,0,0-4.93,2.47,2.47,0,0,0,0,4.93ZM765,307.71a2.35,2.35,0,1,0,2.33-2.44A2.38,2.38,0,0,0,765,307.71Zm-17.42.06a2.35,2.35,0,1,0-4.69-.06,2.4,2.4,0,0,0,2.36,2.51A2.37,2.37,0,0,0,747.61,307.76Zm19.74,74.86a2.47,2.47,0,0,0,0,4.93,2.47,2.47,0,0,0,0-4.93Zm33.11,4.93a2.47,2.47,0,1,0-2.29-2.56A2.36,2.36,0,0,0,800.47,387.56Zm146-46.67a2.37,2.37,0,0,0-2.37-2.49,2.49,2.49,0,1,0,2.37,2.49ZM747.62,352a2.35,2.35,0,1,0-2.33,2.45A2.38,2.38,0,0,0,747.62,352Zm55.25,0a2.35,2.35,0,1,0-4.69.05,2.35,2.35,0,1,0,4.69-.05Zm55.25,0a2.35,2.35,0,1,0-4.69,0,2.35,2.35,0,1,0,4.69,0Zm33.14-33.14a2.4,2.4,0,0,0-2.35-2.51,2.44,2.44,0,0,0-2.34,2.47,2.4,2.4,0,0,0,2.37,2.5A2.37,2.37,0,0,0,891.26,318.81Zm0,66.3a2.35,2.35,0,1,0-2.32,2.45A2.34,2.34,0,0,0,891.26,385.11Zm-13.43-30.7a2.38,2.38,0,0,0,2.4-2.46,2.42,2.42,0,0,0-2.31-2.49,2.48,2.48,0,0,0-.1,4.95ZM747.62,329.84a2.36,2.36,0,0,0-2.37-2.47,2.39,2.39,0,0,0-2.32,2.46,2.35,2.35,0,1,0,4.69,0Zm165.75,22.09a2.35,2.35,0,1,0-4.69,0,2.35,2.35,0,1,0,4.69,0Zm33.14,0a2.38,2.38,0,0,0-2.39-2.47,2.42,2.42,0,0,0-2.3,2.5,2.35,2.35,0,1,0,4.69,0Zm-68.62,35.63a2.47,2.47,0,1,0-2.35-2.41A2.33,2.33,0,0,0,877.89,387.56Zm35.48-46.68a2.35,2.35,0,1,0-2.29,2.5A2.4,2.4,0,0,0,913.37,340.87Zm-57.59,46.68a2.47,2.47,0,1,0-2.36-2.49A2.35,2.35,0,0,0,855.78,387.56Zm-52.92-57.73a2.35,2.35,0,1,0-2.37,2.48A2.35,2.35,0,0,0,802.87,329.82Zm19.76-2.45a2.47,2.47,0,0,0,0,4.93,2.47,2.47,0,0,0,0-4.93Zm-75,35.6a2.35,2.35,0,1,0-4.69,0,2.35,2.35,0,1,0,4.69,0Zm130.26-35.6a2.47,2.47,0,0,0,0,4.93,2.47,2.47,0,0,0,0-4.93Zm-68.64-8.61a2.37,2.37,0,0,0,2.35,2.51,2.4,2.4,0,0,0,2.34-2.45,2.43,2.43,0,0,0-2.36-2.52A2.39,2.39,0,0,0,809.24,318.76Zm82,22.15a2.35,2.35,0,1,0-4.69,0,2.42,2.42,0,0,0,2.37,2.51A2.39,2.39,0,0,0,891.26,340.91ZM769.73,363a2.35,2.35,0,1,0-2.37,2.5A2.4,2.4,0,0,0,769.73,363Zm30.77-2.45a2.48,2.48,0,1,0,2.37,2.48A2.36,2.36,0,0,0,800.5,360.52Zm57.62-19.64a2.35,2.35,0,1,0-2.3,2.49A2.39,2.39,0,0,0,858.12,340.88ZM897.64,363a2.36,2.36,0,0,0,2.34,2.51,2.48,2.48,0,0,0,0-5A2.34,2.34,0,0,0,897.64,363ZM875.54,252.5a2.36,2.36,0,0,0,2.4,2.46,2.43,2.43,0,0,0,2.29-2.5,2.35,2.35,0,1,0-4.69,0Zm-88.4-22.1a2.37,2.37,0,0,0,2.32,2.46,2.44,2.44,0,0,0,2.37-2.52,2.41,2.41,0,0,0-2.42-2.45A2.38,2.38,0,0,0,787.14,230.4Zm22.09,0a2.38,2.38,0,0,0,2.3,2.48,2.49,2.49,0,0,0,.06-5A2.37,2.37,0,0,0,809.24,230.38Zm13.4,179.29a2.37,2.37,0,0,0,2.34-2.44,2.35,2.35,0,1,0-4.69,0A2.34,2.34,0,0,0,822.63,409.66ZM802.87,274.6a2.35,2.35,0,1,0-2.33,2.44A2.36,2.36,0,0,0,802.87,274.6Zm-22.1-33.15a2.38,2.38,0,0,0-2.35-2.51,2.42,2.42,0,0,0-2.35,2.46,2.39,2.39,0,0,0,2.37,2.5A2.37,2.37,0,0,0,780.76,241.45Zm-33.15,55.19a2.35,2.35,0,1,0-2.26,2.51A2.38,2.38,0,0,0,747.62,296.64Zm75-24.53a2.47,2.47,0,0,0,0,4.93,2.47,2.47,0,0,0,0-4.93Zm123.89,13.51a2.36,2.36,0,0,0-2.31-2.47,2.49,2.49,0,1,0,2.31,2.47Zm-146-41.72a2.36,2.36,0,0,0,2.36-2.41,2.35,2.35,0,1,0-4.69,0A2.37,2.37,0,0,0,800.5,243.89Zm41.89-2.47a2.34,2.34,0,0,0,2.3,2.47,2.41,2.41,0,0,0,2.4-2.47,2.44,2.44,0,0,0-2.33-2.48A2.36,2.36,0,0,0,842.39,241.43Zm15.72,0a2.39,2.39,0,0,0-2.4-2.47,2.42,2.42,0,0,0-2.29,2.51,2.35,2.35,0,1,0,4.69,0Zm39.53,44.22a2.37,2.37,0,0,0,2.36,2.5,2.49,2.49,0,0,0,0-5A2.37,2.37,0,0,0,897.64,285.62Zm-39.53-11a2.35,2.35,0,1,0-2.31,2.46A2.36,2.36,0,0,0,858.12,274.58Zm-88.39,11a2.35,2.35,0,1,0-2.35,2.53A2.4,2.4,0,0,0,769.73,285.59ZM944.17,277a2.47,2.47,0,1,0-2.35-2.5A2.35,2.35,0,0,0,944.17,277ZM900,243.89a2.48,2.48,0,0,0,0-5,2.48,2.48,0,0,0,0,5Zm-97.1,8.59a2.35,2.35,0,1,0-4.69,0,2.35,2.35,0,1,0,4.69,0Zm-15.72-.05a2.37,2.37,0,0,0,2.33,2.52,2.48,2.48,0,0,0,.08-4.95A2.33,2.33,0,0,0,787.14,252.43Zm126.23,11.11a2.43,2.43,0,0,0-2.3-2.51,2.49,2.49,0,1,0,2.3,2.51Zm-15.72,0A2.35,2.35,0,0,0,900,266a2.49,2.49,0,0,0-.08-5A2.39,2.39,0,0,0,897.65,263.53Zm-28.48.1a2.41,2.41,0,0,0-2.27-2.59,2.49,2.49,0,1,0,2.27,2.59Zm0-55.28a2.41,2.41,0,0,0-2.3-2.57,2.49,2.49,0,1,0,2.3,2.57Zm-66.31-.06a2.31,2.31,0,0,0-2.28-2.45,2.47,2.47,0,1,0,2.28,2.45ZM745.21,277a2.47,2.47,0,1,0-2.29-2.49A2.34,2.34,0,0,0,745.21,277Zm57.66-57.72a2.35,2.35,0,1,0-2.38,2.47A2.36,2.36,0,0,0,802.87,219.32Zm55.25,44.18a2.35,2.35,0,1,0-4.69,0,2.35,2.35,0,1,0,4.69,0Zm0,33.14a2.35,2.35,0,1,0-2.27,2.51A2.38,2.38,0,0,0,858.12,296.64Zm-77.36-33.12a2.38,2.38,0,0,0-2.38-2.49,2.45,2.45,0,0,0-2.32,2.5,2.42,2.42,0,0,0,2.32,2.48A2.37,2.37,0,0,0,780.76,263.52ZM756.31,261a2.4,2.4,0,0,0-2.32,2.55,2.36,2.36,0,0,0,2.35,2.43,2.49,2.49,0,0,0,0-5Zm88.39,38.12a2.48,2.48,0,0,0,0-5,2.48,2.48,0,0,0,0,5Zm68.67,97a2.35,2.35,0,1,0-2.29,2.51A2.43,2.43,0,0,0,913.37,396.12Zm-35.52,13.54a2.39,2.39,0,0,0,2.38-2.4,2.41,2.41,0,0,0-2.33-2.54,2.48,2.48,0,0,0-.05,4.95ZM811.57,261a2.49,2.49,0,1,0,2.35,2.53A2.4,2.4,0,0,0,811.57,261Zm57.59,79.82a2.37,2.37,0,0,0-2.41-2.45,2.49,2.49,0,1,0,2.41,2.45ZM833.68,250a2.48,2.48,0,0,0,0,4.95,2.37,2.37,0,0,0,2.34-2.52A2.34,2.34,0,0,0,833.68,250ZM789.44,409.67a2.48,2.48,0,0,0,.07-4.95,2.48,2.48,0,0,0-.07,4.95Zm46.57-2.5a2.37,2.37,0,0,0-2.33-2.45,2.42,2.42,0,0,0-2.36,2.51,2.35,2.35,0,1,0,4.69-.06Zm-66.28-66.24a2.41,2.41,0,0,0-2.35-2.52,2.49,2.49,0,0,0,0,5A2.42,2.42,0,0,0,769.73,340.92ZM911,250a2.48,2.48,0,1,0,2.34,2.43A2.37,2.37,0,0,0,911,250Zm-19.77,2.44a2.34,2.34,0,0,0-2.4-2.44,2.48,2.48,0,0,0,0,4.95A2.37,2.37,0,0,0,891.26,252.45ZM877.9,415.78a2.34,2.34,0,0,0-2.36,2.4,2.39,2.39,0,0,0,2.31,2.55,2.48,2.48,0,0,0,.05-5Zm-35.51,2.5a2.37,2.37,0,0,0,2.32,2.45,2.43,2.43,0,0,0,2.37-2.51,2.41,2.41,0,0,0-2.35-2.44A2.34,2.34,0,0,0,842.39,418.28Zm15.72-210a2.35,2.35,0,1,0-2.35,2.52A2.41,2.41,0,0,0,858.12,208.24Zm11,165.83a2.35,2.35,0,1,0-2.33,2.46A2.4,2.4,0,0,0,869.17,374.07ZM822.66,221.79a2.47,2.47,0,0,0-.06-4.93,2.47,2.47,0,0,0,.06,4.93ZM809.24,374a2.35,2.35,0,1,0,4.69,0,2.43,2.43,0,0,0-2.39-2.5A2.39,2.39,0,0,0,809.24,374Zm48.88-154.71a2.35,2.35,0,1,0-2.31,2.46A2.35,2.35,0,0,0,858.12,219.33ZM780.76,374.05a2.35,2.35,0,1,0-2.31,2.47A2.38,2.38,0,0,0,780.76,374.05Zm97.1-152.27a2.47,2.47,0,0,0,0-4.93,2.47,2.47,0,0,0,0,4.93ZM944.2,360.52a2.38,2.38,0,0,0-2.38,2.48,2.4,2.4,0,0,0,2.32,2.47,2.48,2.48,0,0,0,.06-5ZM930.79,363a2.37,2.37,0,0,0,2.32,2.46,2.42,2.42,0,0,0,2.38-2.5,2.4,2.4,0,0,0-2.34-2.45A2.34,2.34,0,0,0,930.79,363Zm-41.85-2.49a2.37,2.37,0,0,0-2.37,2.41,2.41,2.41,0,0,0,2.33,2.54,2.48,2.48,0,0,0,0-5Zm-11,0a2.34,2.34,0,0,0-2.39,2.37,2.38,2.38,0,0,0,2.27,2.58,2.48,2.48,0,0,0,.12-5Zm-55.35,0a2.48,2.48,0,0,0,.08,5A2.41,2.41,0,0,0,825,363,2.37,2.37,0,0,0,822.59,360.52Zm46.58-130.16a2.35,2.35,0,1,0-2.29,2.51A2.42,2.42,0,0,0,869.17,230.36Zm55.25,0a2.38,2.38,0,0,0-2.35-2.51,2.49,2.49,0,1,0,2.35,2.51Zm-135,13.49a2.39,2.39,0,0,0,2.39-2.48,2.43,2.43,0,0,0-2.33-2.48,2.36,2.36,0,0,0-2.36,2.49A2.34,2.34,0,0,0,789.44,243.89Zm30.84,107.94A2.35,2.35,0,1,0,825,352a2.42,2.42,0,0,0-2.29-2.58A2.37,2.37,0,0,0,820.29,351.83Zm-33.14,0a2.34,2.34,0,0,0,2.29,2.54,2.48,2.48,0,0,0,.07-4.95A2.35,2.35,0,0,0,787.15,351.87Zm90.74-108a2.39,2.39,0,0,0,2.34-2.44,2.43,2.43,0,0,0-2.37-2.51,2.38,2.38,0,0,0-2.32,2.54A2.34,2.34,0,0,0,877.89,243.89Zm13.37-2.5a2.35,2.35,0,1,0-2.34,2.5A2.36,2.36,0,0,0,891.26,241.39ZM765,252.47a2.35,2.35,0,1,0,2.39-2.46A2.37,2.37,0,0,0,765,252.47Zm15.73,0a2.35,2.35,0,1,0-4.69,0,2.4,2.4,0,0,0,2.31,2.48A2.37,2.37,0,0,0,780.76,252.48Zm127.92,33.19a2.35,2.35,0,1,0,2.35-2.52A2.4,2.4,0,0,0,908.68,285.66Zm-139,33.11a2.43,2.43,0,0,0-2.33-2.48,2.49,2.49,0,1,0,2.33,2.48Zm11,.07a2.35,2.35,0,1,0-2.35,2.43A2.37,2.37,0,0,0,780.76,318.84Zm8.67-19.69a2.48,2.48,0,0,0,.1-5,2.48,2.48,0,0,0-.1,5Zm79.74-13.5a2.35,2.35,0,1,0-4.69-.05,2.35,2.35,0,1,0,4.69.05Zm44.2,22.06a2.35,2.35,0,1,0-2.37,2.5A2.37,2.37,0,0,0,913.37,307.71ZM900,305.26a2.48,2.48,0,0,0,0,5,2.48,2.48,0,0,0,0-5Zm-30.82,90.89a2.35,2.35,0,1,0-4.69,0,2.35,2.35,0,1,0,4.69,0Zm0-77.41a2.35,2.35,0,1,0-2.35,2.52A2.41,2.41,0,0,0,869.17,318.75Zm22.09-11a2.34,2.34,0,0,0-2.36-2.48,2.48,2.48,0,1,0,2.36,2.48ZM933.13,277a2.47,2.47,0,0,0,0-4.93,2.47,2.47,0,0,0,0,4.93Zm-19.76,41.71a2.35,2.35,0,1,0-2.36,2.52A2.41,2.41,0,0,0,913.37,318.75ZM877.86,277a2.47,2.47,0,0,0,0-4.93,2.47,2.47,0,0,0,0,4.93Zm-2.32,30.73a2.36,2.36,0,0,0,2.33,2.44,2.41,2.41,0,0,0,2.36-2.52,2.38,2.38,0,0,0-2.35-2.43A2.35,2.35,0,0,0,875.54,307.77ZM802.87,296.7a2.38,2.38,0,0,0-2.36-2.5,2.41,2.41,0,0,0-2.33,2.46,2.35,2.35,0,1,0,4.69,0Zm108.19,2.45a2.48,2.48,0,1,0-2.38-2.47A2.37,2.37,0,0,0,911.06,299.15ZM769.73,329.84a2.35,2.35,0,1,0-2.32,2.46A2.36,2.36,0,0,0,769.73,329.84Zm33.14-22.13a2.36,2.36,0,0,0-2.4-2.45,2.48,2.48,0,1,0,2.4,2.45Zm-22.11,88.45a2.35,2.35,0,1,0-4.69-.05,2.44,2.44,0,0,0,2.37,2.52A2.39,2.39,0,0,0,780.76,396.17Zm97.09-97a2.37,2.37,0,0,0,2.38-2.4,2.42,2.42,0,0,0-2.33-2.55,2.38,2.38,0,0,0-2.36,2.42A2.35,2.35,0,0,0,877.85,299.15Zm-146,8.6a2.37,2.37,0,0,0,2.31,2.46,2.44,2.44,0,0,0,2.38-2.51,2.39,2.39,0,0,0-2.34-2.44A2.34,2.34,0,0,0,731.89,307.75Zm35.44-35.64a2.47,2.47,0,0,0,.07,4.93,2.47,2.47,0,0,0-.07-4.93ZM891.25,418.28a2.4,2.4,0,0,0-2.36-2.56,2.37,2.37,0,0,0-2.34,2.43,2.33,2.33,0,0,0,2.31,2.51A2.4,2.4,0,0,0,891.25,418.28ZM734.19,299.15a2.48,2.48,0,0,0,.08-5,2.48,2.48,0,0,0-.08,5Zm44.26,0a2.35,2.35,0,0,0,2.31-2.45,2.38,2.38,0,0,0-2.36-2.5,2.42,2.42,0,0,0-2.33,2.47A2.38,2.38,0,0,0,778.45,299.15ZM836,418.3a2.35,2.35,0,1,0-4.69-.1,2.41,2.41,0,0,0,2.34,2.53A2.38,2.38,0,0,0,836,418.3Zm64-119.15a2.48,2.48,0,0,0,0-5,2.38,2.38,0,0,0-2.35,2.51A2.34,2.34,0,0,0,900,299.15ZM778.43,360.52a2.48,2.48,0,1,0,2.33,2.43A2.34,2.34,0,0,0,778.43,360.52Zm11,0a2.48,2.48,0,0,0,.06,5,2.42,2.42,0,0,0,2.33-2.47A2.39,2.39,0,0,0,789.45,360.52Zm55.23,22.11a2.47,2.47,0,0,0,.09,4.93,2.47,2.47,0,0,0-.09-4.93Zm110.51-83.48a2.4,2.4,0,0,0,2.39-2.48,2.44,2.44,0,0,0-2.33-2.48,2.48,2.48,0,0,0-.07,5Zm-174.43,8.57a2.35,2.35,0,0,0-2.3-2.46,2.48,2.48,0,1,0,2.3,2.46Zm52.91,52.8a2.39,2.39,0,0,0-2.35,2.51,2.42,2.42,0,0,0,2.36,2.44,2.39,2.39,0,0,0,2.33-2.53A2.35,2.35,0,0,0,833.67,360.52ZM787.14,307.7a2.36,2.36,0,0,0,2.34,2.51,2.48,2.48,0,0,0,0-4.95A2.35,2.35,0,0,0,787.14,307.7ZM842.39,363a2.38,2.38,0,0,0,2.33,2.52,2.48,2.48,0,0,0,.08-5A2.33,2.33,0,0,0,842.39,363Zm15.72,44.21a2.35,2.35,0,1,0-4.69.08,2.35,2.35,0,1,0,4.69-.08ZM836,296.68a2.35,2.35,0,1,0-2.38,2.47A2.36,2.36,0,0,0,836,296.68Zm-2.34,8.58a2.48,2.48,0,0,0,0,5,2.48,2.48,0,0,0,0-5Zm8.73,2.43a2.36,2.36,0,0,0,2.33,2.52,2.48,2.48,0,0,0,0-4.95A2.33,2.33,0,0,0,842.39,307.7Zm55.25,22.08A2.33,2.33,0,0,0,900,332.3a2.47,2.47,0,0,0,0-4.93A2.33,2.33,0,0,0,897.64,329.78Zm-39.53.07a2.35,2.35,0,1,0-2.32,2.45A2.35,2.35,0,0,0,858.12,329.85Zm0-77.41A2.35,2.35,0,0,0,855.7,250a2.48,2.48,0,1,0,2.42,2.43ZM900,277a2.47,2.47,0,0,0,0-4.93,2.47,2.47,0,0,0,0,4.93Zm-119.19,8.61a2.37,2.37,0,0,0-2.35-2.51,2.49,2.49,0,1,0,2.35,2.51Zm0,66.31a2.38,2.38,0,0,0-2.34-2.51,2.48,2.48,0,0,0,0,5A2.35,2.35,0,0,0,780.76,352Zm28.48-66.45a2.35,2.35,0,1,0,2.49-2.37A2.36,2.36,0,0,0,809.24,285.52Zm90.7,68.89a2.48,2.48,0,0,0,.07-4.95,2.48,2.48,0,0,0-.07,4.95Zm-55.21,0a2.4,2.4,0,0,0,2.36-2.43,2.43,2.43,0,0,0-2.36-2.52,2.37,2.37,0,0,0-2.33,2.45A2.33,2.33,0,0,0,844.73,354.41Zm-11-110.51a2.48,2.48,0,0,0,0-5,2.43,2.43,0,0,0-2.34,2.47A2.39,2.39,0,0,0,833.7,243.89Zm57.57,108a2.37,2.37,0,0,0-2.33-2.45,2.42,2.42,0,0,0-2.36,2.51,2.35,2.35,0,1,0,4.69-.07ZM778.42,387.56a2.47,2.47,0,0,0,0-4.93,2.47,2.47,0,0,0,0,4.93Zm112.84-57.74a2.34,2.34,0,0,0-2.39-2.45,2.4,2.4,0,0,0-2.3,2.48,2.37,2.37,0,0,0,2.33,2.45A2.33,2.33,0,0,0,891.26,329.82Zm33.15-33.14a2.35,2.35,0,1,0-2.31,2.47A2.38,2.38,0,0,0,924.41,296.69ZM811.59,243.89a2.38,2.38,0,0,0,2.33-2.45,2.41,2.41,0,0,0-2.37-2.51,2.38,2.38,0,0,0-2.32,2.46A2.36,2.36,0,0,0,811.59,243.89Zm-2.36,174.37a2.37,2.37,0,0,0,2.4,2.46,2.41,2.41,0,0,0,2.3-2.5,2.35,2.35,0,1,0-4.69,0ZM789.48,221.79a2.47,2.47,0,0,0,0-4.93,2.47,2.47,0,0,0,0,4.93ZM900,409.67a2.48,2.48,0,0,0,0-4.95,2.48,2.48,0,0,0,0,4.95ZM844.77,221.78a2.47,2.47,0,0,0-.09-4.93,2.35,2.35,0,0,0-2.29,2.55A2.31,2.31,0,0,0,844.77,221.78ZM809.24,340.86a2.38,2.38,0,0,0,2.35,2.52,2.49,2.49,0,0,0,0-5A2.36,2.36,0,0,0,809.24,340.86Zm82-121.55a2.34,2.34,0,0,0-2.31-2.45,2.47,2.47,0,0,0-.06,4.93A2.33,2.33,0,0,0,891.26,219.31Zm-48.86,33.2a2.36,2.36,0,0,0,2.33,2.45,2.45,2.45,0,0,0,2.36-2.53,2.4,2.4,0,0,0-2.44-2.43A2.33,2.33,0,0,0,842.39,252.51Zm79.68,108a2.48,2.48,0,1,0,2.33,2.52A2.38,2.38,0,0,0,922.08,360.52ZM836,352a2.38,2.38,0,0,0-2.34-2.52,2.42,2.42,0,0,0-2.35,2.45,2.38,2.38,0,0,0,2.36,2.5A2.35,2.35,0,0,0,836,352Zm-79.65-52.82a2.48,2.48,0,1,0-2.37-2.48A2.35,2.35,0,0,0,756.36,299.15Zm88.39,110.51a2.48,2.48,0,0,0,0-4.95,2.37,2.37,0,0,0-2.31,2.47A2.33,2.33,0,0,0,844.75,409.67Zm-57.6-24.6a2.32,2.32,0,0,0,2.34,2.49,2.47,2.47,0,0,0,0-4.93A2.32,2.32,0,0,0,787.15,385.07Zm-30.78-24.55A2.34,2.34,0,0,0,754,363a2.38,2.38,0,0,0,2.3,2.48,2.48,2.48,0,0,0,.08-5Zm110.48,55.26a2.48,2.48,0,1,0,2.33,2.52A2.38,2.38,0,0,0,866.84,415.78Zm0-171.88a2.48,2.48,0,0,0,.05-5,2.42,2.42,0,0,0-2.37,2.5A2.37,2.37,0,0,0,866.8,243.89ZM833.7,387.56A2.35,2.35,0,0,0,836,385a2.33,2.33,0,0,0-2.36-2.4,2.47,2.47,0,0,0,0,4.93Zm11-55.26a2.47,2.47,0,0,0,.07-4.93,2.32,2.32,0,0,0-2.37,2.39A2.34,2.34,0,0,0,844.69,332.3ZM836,329.82a2.34,2.34,0,0,0-2.39-2.45,2.47,2.47,0,0,0,0,4.93A2.34,2.34,0,0,0,836,329.82Zm-55.25-55.27a2.35,2.35,0,0,0-2.4-2.44,2.4,2.4,0,0,0-2.29,2.49,2.35,2.35,0,1,0,4.69-.05Zm143.65-33.11a2.35,2.35,0,1,0-2.4,2.45A2.35,2.35,0,0,0,924.41,241.44ZM787.14,329.78a2.33,2.33,0,0,0,2.31,2.52,2.47,2.47,0,0,0,0-4.93A2.33,2.33,0,0,0,787.14,329.78Zm82-33a2.35,2.35,0,1,0-2.46,2.39A2.36,2.36,0,0,0,869.17,296.76Zm22.09-22.18a2.34,2.34,0,0,0-2.37-2.47,2.47,2.47,0,0,0,0,4.93A2.34,2.34,0,0,0,891.26,274.58ZM754,307.73a2.36,2.36,0,0,0,2.37,2.49,2.48,2.48,0,0,0,0-4.95A2.35,2.35,0,0,0,754,307.73Zm82-88.4a2.34,2.34,0,0,0-2.29-2.47,2.46,2.46,0,0,0,0,4.93A2.34,2.34,0,0,0,836,219.33ZM899.94,250A2.48,2.48,0,0,0,900,255a2.42,2.42,0,0,0,2.33-2.47A2.39,2.39,0,0,0,899.94,250ZM866.84,360.52a2.48,2.48,0,0,0,0,5,2.4,2.4,0,0,0,2.36-2.51A2.37,2.37,0,0,0,866.84,360.52ZM780.76,329.8a2.35,2.35,0,0,0-2.33-2.43,2.47,2.47,0,0,0,0,4.93A2.35,2.35,0,0,0,780.76,329.8Zm64-52.76a2.47,2.47,0,0,0-.09-4.93,2.35,2.35,0,0,0-2.29,2.55A2.32,2.32,0,0,0,844.77,277Zm-55.3,0a2.47,2.47,0,0,0,0-4.93,2.47,2.47,0,0,0,0,4.93Zm44.23,0a2.47,2.47,0,0,0,0-4.93,2.47,2.47,0,0,0,0,4.93Zm88.38,77.37a2.36,2.36,0,0,0,2.34-2.43,2.38,2.38,0,0,0-2.34-2.52,2.42,2.42,0,0,0-2.35,2.45A2.38,2.38,0,0,0,922.08,354.41ZM809.24,296.66a2.36,2.36,0,0,0,2.36,2.49,2.48,2.48,0,1,0-2.36-2.49ZM900,221.78a2.47,2.47,0,0,0,0-4.93,2.47,2.47,0,0,0,0,4.93Zm0,165.77a2.47,2.47,0,0,0,0-4.93,2.47,2.47,0,0,0,0,4.93Zm-88.36-82.3a2.48,2.48,0,0,0,0,4.95,2.48,2.48,0,0,0,0-4.95ZM754,252.46a2.36,2.36,0,0,0,2.36,2.49,2.48,2.48,0,0,0,0-4.95A2.34,2.34,0,0,0,754,252.46Zm57.58,108.06a2.35,2.35,0,0,0-2.33,2.44,2.35,2.35,0,1,0,2.33-2.44Zm0-110.51a2.48,2.48,0,0,0,0,4.95,2.48,2.48,0,0,0,0-4.95Zm55.24,0a2.48,2.48,0,1,0,2.36,2.49A2.36,2.36,0,0,0,866.81,250ZM869.17,352a2.35,2.35,0,1,0-4.69,0,2.35,2.35,0,1,0,4.69,0Zm-112.85,2.46a2.39,2.39,0,0,0,2.37-2.5,2.42,2.42,0,0,0-2.35-2.45,2.37,2.37,0,0,0-2.34,2.43A2.34,2.34,0,0,0,756.32,354.41Zm168.1-46.67a2.36,2.36,0,0,0-2.37-2.48,2.48,2.48,0,1,0,2.37,2.48Zm28.48,0a2.37,2.37,0,0,0,2.32,2.46,2.43,2.43,0,0,0,2.38-2.5,2.4,2.4,0,0,0-2.34-2.45A2.34,2.34,0,0,0,952.89,307.75Zm-28.48-55.25a2.35,2.35,0,1,0-4.69-.06,2.35,2.35,0,1,0,4.69.06ZM811.59,354.41a2.48,2.48,0,1,0-2.36-2.49A2.34,2.34,0,0,0,811.59,354.41Zm57.57-46.64a2.35,2.35,0,1,0-4.69-.07,2.35,2.35,0,1,0,4.69.07Zm-57.61,101.9a2.38,2.38,0,0,0,2.37-2.49,2.41,2.41,0,0,0-2.34-2.46,2.37,2.37,0,0,0-2.36,2.5A2.35,2.35,0,0,0,811.56,409.67ZM922.1,327.37a2.47,2.47,0,1,0,2.32,2.45A2.37,2.37,0,0,0,922.1,327.37Zm0-50.33a2.47,2.47,0,0,0,0-4.93,2.47,2.47,0,0,0,0,4.93Zm-165.78,0a2.47,2.47,0,0,0,.08-4.93,2.47,2.47,0,0,0-.08,4.93ZM922,387.56a2.47,2.47,0,0,0,.06-4.93,2.47,2.47,0,0,0-.06,4.93Zm-55.19,22.11a2.48,2.48,0,1,0-2.37-2.48A2.35,2.35,0,0,0,866.85,409.67Zm88.33-77.37a2.47,2.47,0,0,0,.07-4.93,2.47,2.47,0,0,0-.07,4.93ZM811.55,221.79a2.47,2.47,0,0,0,0-4.93,2.47,2.47,0,0,0,0,4.93Zm0,165.77a2.47,2.47,0,1,0-2.36-2.41A2.34,2.34,0,0,0,811.59,387.56ZM756.32,332.3a2.47,2.47,0,0,0,0-4.93,2.47,2.47,0,0,0,0,4.93ZM811.56,277a2.47,2.47,0,1,0-2.32-2.52A2.36,2.36,0,0,0,811.56,277Zm0,55.26a2.47,2.47,0,1,0-2.34-2.5A2.36,2.36,0,0,0,811.58,332.3Zm55.36-115.44a2.35,2.35,0,0,0-2.46,2.39,2.37,2.37,0,0,0,2.23,2.54,2.34,2.34,0,0,0,2.46-2.39A2.38,2.38,0,0,0,866.94,216.86Zm-.07,165.77a2.47,2.47,0,1,0,2.31,2.47A2.36,2.36,0,0,0,866.86,382.63Zm0-105.59a2.47,2.47,0,1,0-2.4-2.45A2.35,2.35,0,0,0,866.87,277Zm0,55.26a2.47,2.47,0,1,0-2.35-2.49A2.35,2.35,0,0,0,866.84,332.3Zm-2.05,96.25a1.64,1.64,0,0,0,1.49,1.77,1.7,1.7,0,0,0,.16-3.39A1.61,1.61,0,0,0,864.79,428.55Zm-127.25-77a1.69,1.69,0,0,0-1.65-1.65,1.71,1.71,0,0,0-1.75,1.63,1.68,1.68,0,0,0,1.7,1.59A1.65,1.65,0,0,0,737.53,351.53ZM943.2,372a1.71,1.71,0,0,0-1.7,1.6,1.68,1.68,0,0,0,1.74,1.62,1.65,1.65,0,0,0,1.65-1.63A1.69,1.69,0,0,0,943.2,372Zm-197,3.23a1.65,1.65,0,0,0,1.67-1.61,1.7,1.7,0,1,0-1.67,1.61ZM854,199a1.61,1.61,0,0,0,1.59,1.67,1.74,1.74,0,0,0,1.63-1.69,1.71,1.71,0,0,0-1.68-1.71A1.62,1.62,0,0,0,854,199Zm55.26,20.83a1.64,1.64,0,0,0,1.55,1.72,1.7,1.7,0,0,0,0-3.39A1.64,1.64,0,0,0,909.3,219.83ZM854,428.6a1.62,1.62,0,0,0,1.53,1.73,1.74,1.74,0,0,0,1.68-1.71,1.72,1.72,0,0,0-1.62-1.69A1.61,1.61,0,0,0,854,428.6Zm23.09-1.66a1.7,1.7,0,0,0,0,3.39,1.74,1.74,0,0,0,1.67-1.72A1.72,1.72,0,0,0,877.13,426.93Zm-54.79-.09a1.66,1.66,0,0,0-1.57,1.71,1.61,1.61,0,0,0,1.58,1.68,1.66,1.66,0,0,0,1.63-1.73A1.7,1.7,0,0,0,822.34,426.85Zm-43.7-208.69a1.7,1.7,0,0,0,0,3.39,1.7,1.7,0,0,0,0-3.39Zm10.56-11.55a1.66,1.66,0,0,0-1.56,1.72,1.61,1.61,0,0,0,1.59,1.67,1.66,1.66,0,0,0,1.62-1.74A1.7,1.7,0,0,0,789.21,206.61Zm87.91-9.42a1.68,1.68,0,0,0-1.56,1.74,1.62,1.62,0,0,0,1.64,1.64,1.65,1.65,0,0,0,1.57-1.73A1.68,1.68,0,0,0,877.11,197.19Zm-54.8,3.38A1.65,1.65,0,0,0,824,199a1.71,1.71,0,0,0-1.6-1.77,1.66,1.66,0,0,0-1.61,1.67A1.61,1.61,0,0,0,822.32,200.58Zm12.41,228a1.63,1.63,0,0,0-1.61-1.68,1.7,1.7,0,0,0,0,3.39A1.65,1.65,0,0,0,834.72,428.61Zm11.62-.29a1.59,1.59,0,0,0-1.55-1.71,1.66,1.66,0,0,0-1.65,1.65,1.73,1.73,0,0,0,1.59,1.74A1.64,1.64,0,0,0,846.35,428.33Zm-35,1.45a1.61,1.61,0,0,0,1.7-1.58,1.7,1.7,0,1,0-1.7,1.58Zm89.83-11.6a1.69,1.69,0,0,0-3.38,0,1.66,1.66,0,0,0,1.75,1.6A1.62,1.62,0,0,0,901.17,418.18Zm-112-1.58a1.69,1.69,0,0,0-1.71,1.58,1.66,1.66,0,0,0,1.71,1.65,1.63,1.63,0,0,0,1.66-1.61A1.68,1.68,0,0,0,789.15,416.6Zm57.19-218a1.58,1.58,0,0,0-1.62-1.65,1.67,1.67,0,0,0-1.58,1.72,1.72,1.72,0,0,0,1.65,1.67A1.65,1.65,0,0,0,846.35,198.6Zm-33.13.3a1.61,1.61,0,1,0-3.21,0,1.62,1.62,0,0,0,1.59,1.69A1.64,1.64,0,0,0,813.22,198.9Zm54.79,0a1.66,1.66,0,0,0-1.6-1.7,1.68,1.68,0,0,0-1.61,1.7,1.6,1.6,0,1,0,3.2,0Zm-33.28.1a1.63,1.63,0,0,0-1.57-1.72,1.7,1.7,0,0,0,0,3.39A1.64,1.64,0,0,0,834.72,199Zm67,9.3a1.66,1.66,0,0,0-1.62-1.68,1.7,1.7,0,0,0-1.58,1.73,1.6,1.6,0,1,0,3.2,0Zm9.37,200.28a1.64,1.64,0,0,0,1.62-1.67,1.61,1.61,0,1,0-3.21,0A1.62,1.62,0,0,0,911.12,408.57Zm-132.53,0a1.63,1.63,0,0,0,1.66-1.63,1.68,1.68,0,0,0-1.55-1.75,1.66,1.66,0,0,0-1.65,1.65A1.62,1.62,0,0,0,778.59,408.57Zm176.85-57a1.66,1.66,0,0,0-1.62-1.68,1.7,1.7,0,0,0-1.58,1.73,1.6,1.6,0,1,0,3.2,0Zm-209.4-97a1.61,1.61,0,0,0,1.7-1.58,1.7,1.7,0,1,0-1.7,1.58Zm197.2,0A1.61,1.61,0,0,0,944.9,253a1.7,1.7,0,1,0-1.66,1.61Zm12.2,20.92a1.66,1.66,0,0,0-1.58-1.72,1.68,1.68,0,0,0-1.62,1.69,1.6,1.6,0,1,0,3.2,0ZM734.79,277a1.6,1.6,0,0,0,1.71-1.56,1.63,1.63,0,0,0-1.66-1.63,1.64,1.64,0,0,0-1.72,1.57A1.62,1.62,0,0,0,734.79,277Z" style="fill:#e0ed3a"/><path d="M955.54,343.42a2.45,2.45,0,0,1-2.65-2.47,2.35,2.35,0,0,1,2.31-2.53,2.5,2.5,0,0,1,2.67,2.48A2.39,2.39,0,0,1,955.54,343.42Z" style="fill:#e0ed3a"/><path d="M952.89,285.65a2.52,2.52,0,0,1,2.57-2.58,2.37,2.37,0,0,1,2.4,2.45,2.58,2.58,0,0,1-2.67,2.6A2.37,2.37,0,0,1,952.89,285.65Z" style="fill:#e0ed3a"/><path d="M731.9,329.78a2.31,2.31,0,0,1,2.34-2.4,2.56,2.56,0,0,1,2.53,2.63,2.38,2.38,0,0,1-2.36,2.42A2.56,2.56,0,0,1,731.9,329.78Z" style="fill:#e0ed3a"/><path d="M930.79,241.44a2.49,2.49,0,0,1,2.5-2.56,2.38,2.38,0,0,1,2.36,2.5,2.52,2.52,0,0,1-2.56,2.52A2.33,2.33,0,0,1,930.79,241.44Z" style="fill:#e0ed3a"/><path d="M734.05,343.42a2.34,2.34,0,0,1-2.35-2.49,2.47,2.47,0,0,1,2.54-2.51,2.42,2.42,0,0,1,2.34,2.46A2.51,2.51,0,0,1,734.05,343.42Z" style="fill:#e0ed3a"/><path d="M930.79,385.1a2.32,2.32,0,0,1,2.36-2.46,2.49,2.49,0,0,1,.16,5A2.45,2.45,0,0,1,930.79,385.1Z" style="fill:#e0ed3a"/><path d="M765,396.15a2.36,2.36,0,0,1,2.3-2.48,2.47,2.47,0,0,1,2.46,2.52,2.39,2.39,0,0,1-2.3,2.48A2.48,2.48,0,0,1,765,396.15Z" style="fill:#e0ed3a"/><path d="M736.57,285.63a2.42,2.42,0,0,1-2.24,2.48,2.4,2.4,0,0,1-2.45-2.26,2.35,2.35,0,0,1,2.83-2.72A2.48,2.48,0,0,1,736.57,285.63Z" style="fill:#e0ed3a"/><path d="M758.68,241.35a2.43,2.43,0,0,1-2.33,2.54,2.51,2.51,0,1,1,2.33-2.54Z" style="fill:#e0ed3a"/><path d="M922.06,398.67a2.51,2.51,0,0,1,0-5,2.45,2.45,0,0,1,2.38,2.52A2.41,2.41,0,0,1,922.06,398.67Z" style="fill:#e0ed3a"/><path d="M891.26,263.5A2.38,2.38,0,0,1,888.9,266a2.41,2.41,0,0,1-2.34-2.46,2.44,2.44,0,0,1,2.37-2.51A2.38,2.38,0,0,1,891.26,263.5Z" style="fill:#e0ed3a"/><path d="M877.89,227.89a2.49,2.49,0,0,1,0,5,2.39,2.39,0,0,1-2.32-2.54A2.36,2.36,0,0,1,877.89,227.89Z" style="fill:#e0ed3a"/><path d="M787.14,285.66a2.37,2.37,0,0,1,2.35-2.51,2.49,2.49,0,0,1,0,5A2.37,2.37,0,0,1,787.14,285.66Z" style="fill:#e0ed3a"/><path d="M802.87,285.65a2.39,2.39,0,0,1-2.4,2.47,2.42,2.42,0,0,1-2.29-2.51,2.35,2.35,0,1,1,4.69,0Z" style="fill:#e0ed3a"/><path d="M875.54,318.8a2.38,2.38,0,0,1,2.36-2.51,2.49,2.49,0,0,1,0,5A2.36,2.36,0,0,1,875.54,318.8Z" style="fill:#e0ed3a"/><path d="M933.11,316.29a2.49,2.49,0,0,1,0,5,2.49,2.49,0,0,1,0-5Z" style="fill:#e0ed3a"/><path d="M875.54,285.63a2.36,2.36,0,0,1,2.37-2.48,2.49,2.49,0,0,1-.08,5A2.38,2.38,0,0,1,875.54,285.63Z" style="fill:#e0ed3a"/><path d="M802.87,396.16a2.35,2.35,0,1,1-2.36-2.5A2.38,2.38,0,0,1,802.87,396.16Z" style="fill:#e0ed3a"/><path d="M787.14,396.13a2.36,2.36,0,0,1,2.31-2.46,2.49,2.49,0,0,1,0,5A2.37,2.37,0,0,1,787.14,396.13Z" style="fill:#e0ed3a"/><path d="M787.15,374a2.37,2.37,0,0,1,2.32-2.47,2.49,2.49,0,0,1,0,5A2.35,2.35,0,0,1,787.15,374Z" style="fill:#e0ed3a"/><path d="M802.87,374a2.35,2.35,0,1,1-4.69,0,2.35,2.35,0,1,1,4.69,0Z" style="fill:#e0ed3a"/><path d="M836,263.55a2.35,2.35,0,1,1-4.69,0,2.43,2.43,0,0,1,2.33-2.47A2.39,2.39,0,0,1,836,263.55Z" style="fill:#e0ed3a"/><path d="M875.54,208.3a2.39,2.39,0,0,1,2.35-2.52,2.49,2.49,0,0,1,0,5A2.36,2.36,0,0,1,875.54,208.3Z" style="fill:#e0ed3a"/><path d="M875.54,263.55a2.39,2.39,0,0,1,2.35-2.51,2.49,2.49,0,0,1,0,5A2.37,2.37,0,0,1,875.54,263.55Z" style="fill:#e0ed3a"/><path d="M787.15,340.88a2.35,2.35,0,0,1,2.3-2.47,2.49,2.49,0,0,1,0,5A2.36,2.36,0,0,1,787.15,340.88Z" style="fill:#e0ed3a"/><path d="M875.54,374.08a2.35,2.35,0,1,1,2.34,2.44A2.36,2.36,0,0,1,875.54,374.08Z" style="fill:#e0ed3a"/><path d="M802.87,340.85a2.35,2.35,0,1,1-2.34-2.44A2.4,2.4,0,0,1,802.87,340.85Z" style="fill:#e0ed3a"/><path d="M820.29,340.85a2.38,2.38,0,0,1,2.34-2.45,2.49,2.49,0,0,1,0,5A2.38,2.38,0,0,1,820.29,340.85Z" style="fill:#e0ed3a"/><path d="M789.48,261a2.49,2.49,0,0,1,0,5,2.49,2.49,0,0,1,0-5Z" style="fill:#e0ed3a"/><path d="M769.73,263.55a2.42,2.42,0,0,1-2.33,2.46,2.49,2.49,0,0,1,0-5A2.42,2.42,0,0,1,769.73,263.55Z" style="fill:#e0ed3a"/><path d="M747.62,285.59a2.35,2.35,0,1,1-2.34-2.44A2.38,2.38,0,0,1,747.62,285.59Z" style="fill:#e0ed3a"/><path d="M747.62,340.88a2.39,2.39,0,0,1-2.37,2.49,2.49,2.49,0,0,1,0-5A2.39,2.39,0,0,1,747.62,340.88Z" style="fill:#e0ed3a"/><path d="M747.62,263.51a2.35,2.35,0,1,1-4.69,0,2.35,2.35,0,1,1,4.69,0Z" style="fill:#e0ed3a"/><path d="M933.11,354.41a2.34,2.34,0,0,1-2.32-2.52,2.37,2.37,0,0,1,2.35-2.43,2.42,2.42,0,0,1,2.34,2.53A2.38,2.38,0,0,1,933.11,354.41Z" style="fill:#e0ed3a"/><path d="M842.39,263.56a2.38,2.38,0,0,1,2.34-2.52,2.49,2.49,0,0,1,0,5A2.35,2.35,0,0,1,842.39,263.56Z" style="fill:#e0ed3a"/><path d="M875.54,396.18a2.36,2.36,0,0,1,2.33-2.52,2.41,2.41,0,0,1,2.36,2.44,2.45,2.45,0,0,1-2.36,2.53A2.37,2.37,0,0,1,875.54,396.18Z" style="fill:#e0ed3a"/><path d="M911,272.11a2.47,2.47,0,1,1-2.36,2.41A2.36,2.36,0,0,1,911,272.11Z" style="fill:#e0ed3a"/><path d="M875.54,340.85a2.37,2.37,0,0,1,2.34-2.44,2.49,2.49,0,0,1,0,5A2.39,2.39,0,0,1,875.54,340.85Z" style="fill:#e0ed3a"/><path d="M911,243.89a2.48,2.48,0,0,1,0-5,2.4,2.4,0,0,1,2.32,2.54A2.36,2.36,0,0,1,911,243.89Z" style="fill:#e0ed3a"/><path d="M930.79,252.48a2.34,2.34,0,0,1,2.37-2.48,2.38,2.38,0,0,1,2.32,2.46,2.41,2.41,0,0,1-2.39,2.49A2.37,2.37,0,0,1,930.79,252.48Z" style="fill:#e0ed3a"/><path d="M754,385.1a2.34,2.34,0,0,1,2.37-2.46,2.4,2.4,0,0,1,2.32,2.46,2.45,2.45,0,0,1-2.36,2.52A2.38,2.38,0,0,1,754,385.1Z" style="fill:#e0ed3a"/><path d="M930.79,263.56a2.39,2.39,0,0,1,2.34-2.52,2.49,2.49,0,0,1,0,5A2.36,2.36,0,0,1,930.79,263.56Z" style="fill:#e0ed3a"/><path d="M930.79,285.59a2.35,2.35,0,0,1,2.34-2.44,2.49,2.49,0,0,1,0,5A2.38,2.38,0,0,1,930.79,285.59Z" style="fill:#e0ed3a"/><path d="M787.14,318.76a2.37,2.37,0,0,1,2.31-2.47,2.45,2.45,0,0,1,2.38,2.51,2.43,2.43,0,0,1-2.34,2.46A2.36,2.36,0,0,1,787.14,318.76Z" style="fill:#e0ed3a"/><path d="M836,374a2.35,2.35,0,1,1-4.69.05,2.44,2.44,0,0,1,2.37-2.52A2.39,2.39,0,0,1,836,374Z" style="fill:#e0ed3a"/><path d="M913.37,363a2.35,2.35,0,1,1-4.69,0,2.35,2.35,0,1,1,4.69,0Z" style="fill:#e0ed3a"/><path d="M858.12,374a2.35,2.35,0,1,1-2.31-2.49A2.39,2.39,0,0,1,858.12,374Z" style="fill:#e0ed3a"/><path d="M798.16,418.17a2.35,2.35,0,1,1,4.7.09,2.28,2.28,0,0,1-2.41,2.39A2.38,2.38,0,0,1,798.16,418.17Z" style="fill:#e0ed3a"/><path d="M930.79,374.07a2.38,2.38,0,0,1,2.34-2.52,2.44,2.44,0,0,1,2.35,2.46,2.41,2.41,0,0,1-2.36,2.51A2.37,2.37,0,0,1,930.79,374.07Z" style="fill:#e0ed3a"/><path d="M802.87,318.78a2.35,2.35,0,1,1-4.69,0,2.35,2.35,0,1,1,4.69,0Z" style="fill:#e0ed3a"/><path d="M769.73,230.36a2.35,2.35,0,1,1-4.69,0,2.37,2.37,0,0,1,2.37-2.49A2.41,2.41,0,0,1,769.73,230.36Z" style="fill:#e0ed3a"/><path d="M933.1,305.26a2.39,2.39,0,0,1,2.39,2.48,2.43,2.43,0,0,1-2.33,2.47,2.37,2.37,0,0,1-2.36-2.5A2.33,2.33,0,0,1,933.1,305.26Z" style="fill:#e0ed3a"/><path d="M825,396.17a2.35,2.35,0,1,1-4.69-.06,2.37,2.37,0,0,1,2.41-2.45A2.41,2.41,0,0,1,825,396.17Z" style="fill:#e0ed3a"/><path d="M844.7,205.78a2.49,2.49,0,0,1,.05,5,2.35,2.35,0,0,1-2.36-2.42A2.38,2.38,0,0,1,844.7,205.78Z" style="fill:#e0ed3a"/><path d="M825,318.86a2.42,2.42,0,0,1-2.39,2.41,2.49,2.49,0,0,1,.07-5A2.43,2.43,0,0,1,825,318.86Z" style="fill:#e0ed3a"/><path d="M822.63,415.78a2.48,2.48,0,1,1-2.34,2.43A2.34,2.34,0,0,1,822.63,415.78Z" style="fill:#e0ed3a"/><path d="M844.76,227.89a2.49,2.49,0,0,1-.07,5,2.39,2.39,0,0,1-2.3-2.56A2.35,2.35,0,0,1,844.76,227.89Z" style="fill:#e0ed3a"/><path d="M820.29,285.59a2.38,2.38,0,0,1,2.34-2.45,2.49,2.49,0,1,1-2.34,2.45Z" style="fill:#e0ed3a"/><path d="M820.29,230.34a2.37,2.37,0,0,1,2.33-2.45,2.49,2.49,0,1,1-2.33,2.45Z" style="fill:#e0ed3a"/><path d="M809.24,208.3a2.35,2.35,0,1,1,2.33,2.46A2.39,2.39,0,0,1,809.24,208.3Z" style="fill:#e0ed3a"/><path d="M825,208.25a2.4,2.4,0,0,1-2.37,2.51,2.49,2.49,0,0,1,0-5A2.43,2.43,0,0,1,825,208.25Z" style="fill:#e0ed3a"/><path d="M802.87,230.41a2.35,2.35,0,1,1-2.34-2.51A2.37,2.37,0,0,1,802.87,230.41Z" style="fill:#e0ed3a"/><path d="M842.4,285.52a2.34,2.34,0,0,1,2.4-2.37,2.49,2.49,0,0,1-.14,5A2.38,2.38,0,0,1,842.4,285.52Z" style="fill:#e0ed3a"/><path d="M891.26,296.72a2.35,2.35,0,0,1-2.33,2.44,2.38,2.38,0,0,1-2.36-2.5,2.42,2.42,0,0,1,2.35-2.46A2.39,2.39,0,0,1,891.26,296.72Z" style="fill:#e0ed3a"/><path d="M944.2,305.26a2.48,2.48,0,0,1-.06,4.95,2.48,2.48,0,0,1,.06-4.95Z" style="fill:#e0ed3a"/><path d="M769.73,296.64a2.4,2.4,0,0,1-2.27,2.51,2.34,2.34,0,0,1-2.42-2.43,2.35,2.35,0,1,1,4.69-.08Z" style="fill:#e0ed3a"/><path d="M822.61,299.15a2.35,2.35,0,0,1-2.32-2.52,2.39,2.39,0,0,1,2.36-2.43,2.42,2.42,0,0,1,2.33,2.54A2.38,2.38,0,0,1,822.61,299.15Z" style="fill:#e0ed3a"/><path d="M747.62,318.76a2.35,2.35,0,1,1-4.69,0,2.43,2.43,0,0,1,2.29-2.51A2.39,2.39,0,0,1,747.62,318.76Z" style="fill:#e0ed3a"/><path d="M930.79,296.69a2.4,2.4,0,0,1,2.29-2.49,2.42,2.42,0,0,1,2.4,2.48,2.39,2.39,0,0,1-2.39,2.47A2.34,2.34,0,0,1,930.79,296.69Z" style="fill:#e0ed3a"/><path d="M913.37,329.83a2.35,2.35,0,1,1-2.31-2.46A2.36,2.36,0,0,1,913.37,329.83Z" style="fill:#e0ed3a"/><path d="M924.41,263.51a2.35,2.35,0,1,1-4.69,0,2.35,2.35,0,1,1,4.69,0Z" style="fill:#e0ed3a"/><path d="M836,318.78a2.38,2.38,0,0,1-2.37,2.49,2.49,2.49,0,1,1,2.37-2.49Z" style="fill:#e0ed3a"/><path d="M756.34,283.15a2.49,2.49,0,0,1,0,5,2.38,2.38,0,0,1-2.32-2.54A2.35,2.35,0,0,1,756.34,283.15Z" style="fill:#e0ed3a"/><path d="M858.12,396.14a2.35,2.35,0,1,1-4.69,0,2.35,2.35,0,1,1,4.69,0Z" style="fill:#e0ed3a"/><path d="M842.39,318.75a2.37,2.37,0,0,1,2.32-2.46,2.45,2.45,0,0,1,2.37,2.52,2.42,2.42,0,0,1-2.36,2.45A2.35,2.35,0,0,1,842.39,318.75Z" style="fill:#e0ed3a"/><path d="M836,285.71a2.38,2.38,0,0,1-2.38,2.4,2.43,2.43,0,0,1-2.31-2.57,2.35,2.35,0,1,1,4.69.16Z" style="fill:#e0ed3a"/><path d="M858.12,318.81a2.35,2.35,0,1,1-2.36-2.52A2.4,2.4,0,0,1,858.12,318.81Z" style="fill:#e0ed3a"/><path d="M858.12,285.66a2.35,2.35,0,1,1-2.36-2.51A2.41,2.41,0,0,1,858.12,285.66Z" style="fill:#e0ed3a"/><path d="M900,316.29a2.45,2.45,0,0,1,2.35,2.55,2.42,2.42,0,0,1-2.37,2.43,2.49,2.49,0,0,1,0-5Z" style="fill:#e0ed3a"/><path d="M924.41,318.78a2.35,2.35,0,1,1-4.69,0,2.42,2.42,0,0,1,2.39-2.49A2.39,2.39,0,0,1,924.41,318.78Z" style="fill:#e0ed3a"/><path d="M891.26,396.13a2.35,2.35,0,1,1-4.69,0,2.42,2.42,0,0,1,2.38-2.5A2.38,2.38,0,0,1,891.26,396.13Z" style="fill:#e0ed3a"/><path d="M946.51,318.75a2.35,2.35,0,1,1-4.69.06,2.44,2.44,0,0,1,2.36-2.53A2.4,2.4,0,0,1,946.51,318.75Z" style="fill:#e0ed3a"/><path d="M842.39,396.09a2.37,2.37,0,0,1,2.35-2.43,2.49,2.49,0,0,1,0,5A2.38,2.38,0,0,1,842.39,396.09Z" style="fill:#e0ed3a"/><path d="M944.19,299.15a2.37,2.37,0,0,1-2.37-2.49,2.42,2.42,0,0,1,2.34-2.46,2.39,2.39,0,0,1,2.35,2.51A2.35,2.35,0,0,1,944.19,299.15Z" style="fill:#e0ed3a"/><path d="M955.23,316.29a2.49,2.49,0,0,1,0,5,2.49,2.49,0,0,1,0-5Z" style="fill:#e0ed3a"/><path d="M897.64,396.14a2.36,2.36,0,0,1,2.29-2.48,2.42,2.42,0,0,1,2.4,2.49,2.46,2.46,0,0,1-2.33,2.49A2.36,2.36,0,0,1,897.64,396.14Z" style="fill:#e0ed3a"/><path d="M891.26,285.63a2.38,2.38,0,0,1-2.3,2.48,2.49,2.49,0,0,1,0-5A2.37,2.37,0,0,1,891.26,285.63Z" style="fill:#e0ed3a"/><path d="M946.51,263.52a2.35,2.35,0,1,1-4.69,0,2.43,2.43,0,0,1,2.39-2.5A2.4,2.4,0,0,1,946.51,263.52Z" style="fill:#e0ed3a"/><path d="M924.41,285.62a2.35,2.35,0,1,1-2.31-2.47A2.39,2.39,0,0,1,924.41,285.62Z" style="fill:#e0ed3a"/><path d="M911,387.56a2.47,2.47,0,1,1,2.36-2.41A2.35,2.35,0,0,1,911,387.56Z" style="fill:#e0ed3a"/><path d="M767.32,354.41a2.48,2.48,0,0,1,.11-5,2.43,2.43,0,0,1,2.3,2.58A2.37,2.37,0,0,1,767.32,354.41Z" style="fill:#e0ed3a"/><path d="M825,241.44a2.39,2.39,0,0,1-2.33,2.46,2.35,2.35,0,0,1-2.36-2.49,2.37,2.37,0,0,1,2.31-2.47A2.4,2.4,0,0,1,825,241.44Z" style="fill:#e0ed3a"/><path d="M769.73,241.41a2.37,2.37,0,0,1-2.29,2.49,2.35,2.35,0,0,1-2.4-2.45,2.35,2.35,0,1,1,4.69,0Z" style="fill:#e0ed3a"/><path d="M913.37,230.4a2.35,2.35,0,1,1-2.36-2.51A2.41,2.41,0,0,1,913.37,230.4Z" style="fill:#e0ed3a"/><path d="M897.64,230.35a2.36,2.36,0,0,1,2.32-2.45,2.49,2.49,0,0,1,0,5A2.37,2.37,0,0,1,897.64,230.35Z" style="fill:#e0ed3a"/><path d="M891.26,230.4a2.38,2.38,0,0,1-2.33,2.46,2.49,2.49,0,0,1,0-5A2.37,2.37,0,0,1,891.26,230.4Z" style="fill:#e0ed3a"/><path d="M858.12,230.37a2.35,2.35,0,1,1-2.31-2.47A2.4,2.4,0,0,1,858.12,230.37Z" style="fill:#e0ed3a"/><path d="M836,230.36a2.38,2.38,0,0,1-2.36,2.5,2.49,2.49,0,0,1,.05-5A2.37,2.37,0,0,1,836,230.36Z" style="fill:#e0ed3a"/><path d="M780.76,230.34a2.39,2.39,0,0,1-2.34,2.52,2.49,2.49,0,0,1,0-5A2.36,2.36,0,0,1,780.76,230.34Z" style="fill:#e0ed3a"/><path d="M858.12,363a2.35,2.35,0,1,1-2.4-2.46A2.37,2.37,0,0,1,858.12,363Z" style="fill:#e0ed3a"/><path d="M769.72,374.07a2.41,2.41,0,0,1-2.34,2.45,2.49,2.49,0,0,1,0-5A2.42,2.42,0,0,1,769.72,374.07Z" style="fill:#e0ed3a"/><path d="M891.26,407.17a2.35,2.35,0,0,1-2.34,2.5,2.37,2.37,0,0,1-2.35-2.44,2.35,2.35,0,1,1,4.69-.06Z" style="fill:#e0ed3a"/><path d="M825,374a2.4,2.4,0,0,1-2.37,2.5,2.37,2.37,0,0,1-2.32-2.46,2.39,2.39,0,0,1,2.28-2.51A2.42,2.42,0,0,1,825,374Z" style="fill:#e0ed3a"/><path d="M891.25,208.34a2.36,2.36,0,1,1-4.7-.13,2.35,2.35,0,0,1,2.37-2.38A2.38,2.38,0,0,1,891.25,208.34Z" style="fill:#e0ed3a"/><path d="M900,371.55a2.49,2.49,0,0,1,.05,5,2.35,2.35,0,0,1-2.36-2.42A2.39,2.39,0,0,1,900,371.55Z" style="fill:#e0ed3a"/><path d="M908.68,374a2.35,2.35,0,1,1,4.69.07,2.35,2.35,0,1,1-4.69-.07Z" style="fill:#e0ed3a"/><path d="M924.41,374a2.35,2.35,0,1,1-4.69,0,2.44,2.44,0,0,1,2.3-2.5A2.4,2.4,0,0,1,924.41,374Z" style="fill:#e0ed3a"/><path d="M836,208.23a2.38,2.38,0,0,1-2.34,2.52,2.49,2.49,0,0,1,0-5A2.39,2.39,0,0,1,836,208.23Z" style="fill:#e0ed3a"/><path d="M855.79,415.78a2.48,2.48,0,1,1-2.36,2.5A2.37,2.37,0,0,1,855.79,415.78Z" style="fill:#e0ed3a"/><path d="M897.64,340.87a2.35,2.35,0,0,1,2.3-2.47,2.49,2.49,0,0,1,0,5A2.36,2.36,0,0,1,897.64,340.87Z" style="fill:#e0ed3a"/><path d="M800.5,409.67a2.48,2.48,0,1,1,2.36-2.4A2.37,2.37,0,0,1,800.5,409.67Z" style="fill:#e0ed3a"/><path d="M756.3,338.41a2.49,2.49,0,0,1,0,5,2.49,2.49,0,0,1,0-5Z" style="fill:#e0ed3a"/><path d="M802.87,263.52a2.35,2.35,0,1,1-2.31-2.49A2.4,2.4,0,0,1,802.87,263.52Z" style="fill:#e0ed3a"/><path d="M780.76,340.87a2.39,2.39,0,0,1-2.36,2.5,2.49,2.49,0,0,1,0-5A2.39,2.39,0,0,1,780.76,340.87Z" style="fill:#e0ed3a"/><path d="M836,340.85a2.39,2.39,0,0,1-2.34,2.53,2.49,2.49,0,0,1,0-5A2.37,2.37,0,0,1,836,340.85Z" style="fill:#e0ed3a"/><path d="M825,252.45a2.4,2.4,0,0,1-2.37,2.5,2.48,2.48,0,1,1,2.37-2.5Z" style="fill:#e0ed3a"/><path d="M820.29,263.51a2.39,2.39,0,0,1,2.32-2.47,2.49,2.49,0,0,1,0,5A2.37,2.37,0,0,1,820.29,263.51Z" style="fill:#e0ed3a"/><path d="M924.41,340.87a2.39,2.39,0,0,1-2.36,2.51,2.49,2.49,0,0,1,0-5A2.37,2.37,0,0,1,924.41,340.87Z" style="fill:#e0ed3a"/><path d="M933.12,338.4a2.49,2.49,0,1,1-2.33,2.45A2.38,2.38,0,0,1,933.12,338.4Z" style="fill:#e0ed3a"/><path d="M754,318.75a2.4,2.4,0,0,1,2.33-2.46,2.44,2.44,0,0,1,2.36,2.53,2.41,2.41,0,0,1-2.35,2.45A2.37,2.37,0,0,1,754,318.75Z" style="fill:#e0ed3a"/><path d="M844.74,371.55a2.46,2.46,0,0,1,2.35,2.54,2.42,2.42,0,0,1-2.37,2.43,2.36,2.36,0,0,1-2.32-2.53A2.39,2.39,0,0,1,844.74,371.55Z" style="fill:#e0ed3a"/><path d="M891.26,374.06a2.37,2.37,0,0,1-2.32,2.46,2.49,2.49,0,0,1,0-5A2.39,2.39,0,0,1,891.26,374.06Z" style="fill:#e0ed3a"/><path d="M734.21,316.29a2.49,2.49,0,0,1,0,5,2.35,2.35,0,0,1-2.35-2.43A2.39,2.39,0,0,1,734.21,316.29Z" style="fill:#e0ed3a"/><path d="M809.24,396.11a2.36,2.36,0,0,1,2.41-2.45,2.49,2.49,0,0,1-.06,5A2.39,2.39,0,0,1,809.24,396.11Z" style="fill:#e0ed3a"/><path d="M844.73,338.41a2.49,2.49,0,0,1,0,5,2.49,2.49,0,0,1,0-5Z" style="fill:#e0ed3a"/><path d="M754,374.07a2.35,2.35,0,1,1,2.32,2.45A2.37,2.37,0,0,1,754,374.07Z" style="fill:#e0ed3a"/><path d="M933.1,332.3a2.47,2.47,0,0,1,.06-4.93,2.47,2.47,0,0,1-.06,4.93Z" style="fill:#e0ed3a"/><path d="M946.51,329.87a2.35,2.35,0,1,1-2.34-2.5A2.36,2.36,0,0,1,946.51,329.87Z" style="fill:#e0ed3a"/><path d="M836,396.15a2.35,2.35,0,1,1-2.3-2.48A2.38,2.38,0,0,1,836,396.15Z" style="fill:#e0ed3a"/><path d="M858.12,307.75a2.35,2.35,0,1,1-2.36-2.49A2.38,2.38,0,0,1,858.12,307.75Z" style="fill:#e0ed3a"/><path d="M822.6,305.26a2.37,2.37,0,0,1,2.38,2.48,2.43,2.43,0,0,1-2.32,2.48,2.38,2.38,0,0,1-2.37-2.5A2.35,2.35,0,0,1,822.6,305.26Z" style="fill:#e0ed3a"/><path d="M822.62,387.56a2.47,2.47,0,0,1,0-4.93,2.47,2.47,0,0,1,0,4.93Z" style="fill:#e0ed3a"/><path d="M765,307.71a2.35,2.35,0,1,1,4.69.06,2.35,2.35,0,1,1-4.69-.06Z" style="fill:#e0ed3a"/><path d="M747.61,307.76a2.37,2.37,0,0,1-2.33,2.45,2.4,2.4,0,0,1-2.36-2.51,2.35,2.35,0,1,1,4.69.06Z" style="fill:#e0ed3a"/><path d="M767.35,382.63a2.47,2.47,0,0,1,0,4.93,2.47,2.47,0,0,1,0-4.93Z" style="fill:#e0ed3a"/><path d="M800.47,387.56a2.47,2.47,0,1,1,2.4-2.37A2.37,2.37,0,0,1,800.47,387.56Z" style="fill:#e0ed3a"/><path d="M946.51,340.89a2.35,2.35,0,1,1-2.37-2.49A2.37,2.37,0,0,1,946.51,340.89Z" style="fill:#e0ed3a"/><path d="M747.62,352a2.35,2.35,0,1,1-2.36-2.5A2.37,2.37,0,0,1,747.62,352Z" style="fill:#e0ed3a"/><path d="M802.87,351.91a2.35,2.35,0,1,1-2.33-2.46A2.37,2.37,0,0,1,802.87,351.91Z" style="fill:#e0ed3a"/><path d="M858.12,352a2.35,2.35,0,1,1-4.69,0,2.35,2.35,0,1,1,4.69,0Z" style="fill:#e0ed3a"/><path d="M891.26,318.81a2.37,2.37,0,0,1-2.32,2.46,2.4,2.4,0,0,1-2.37-2.5,2.44,2.44,0,0,1,2.34-2.47A2.4,2.4,0,0,1,891.26,318.81Z" style="fill:#e0ed3a"/><path d="M891.26,385.11a2.35,2.35,0,1,1-2.36-2.48A2.34,2.34,0,0,1,891.26,385.11Z" style="fill:#e0ed3a"/><path d="M877.83,354.41a2.48,2.48,0,0,1,.1-4.95,2.42,2.42,0,0,1,2.31,2.49A2.38,2.38,0,0,1,877.83,354.41Z" style="fill:#e0ed3a"/><path d="M747.62,329.84a2.35,2.35,0,1,1-4.69,0,2.39,2.39,0,0,1,2.32-2.46A2.36,2.36,0,0,1,747.62,329.84Z" style="fill:#e0ed3a"/><path d="M913.37,351.94a2.35,2.35,0,1,1-2.31-2.48A2.39,2.39,0,0,1,913.37,351.94Z" style="fill:#e0ed3a"/><path d="M946.51,351.93a2.35,2.35,0,1,1-4.69,0,2.42,2.42,0,0,1,2.3-2.5A2.38,2.38,0,0,1,946.51,351.93Z" style="fill:#e0ed3a"/><path d="M877.89,387.56a2.33,2.33,0,0,1-2.35-2.41,2.35,2.35,0,1,1,2.35,2.41Z" style="fill:#e0ed3a"/><path d="M913.37,340.87a2.35,2.35,0,1,1-2.32-2.47A2.42,2.42,0,0,1,913.37,340.87Z" style="fill:#e0ed3a"/><path d="M855.78,387.56a2.47,2.47,0,1,1,2.33-2.44A2.36,2.36,0,0,1,855.78,387.56Z" style="fill:#e0ed3a"/><path d="M802.87,329.82a2.35,2.35,0,1,1-2.4-2.45A2.35,2.35,0,0,1,802.87,329.82Z" style="fill:#e0ed3a"/><path d="M822.63,327.37a2.47,2.47,0,0,1,0,4.93,2.47,2.47,0,0,1,0-4.93Z" style="fill:#e0ed3a"/><path d="M747.62,363a2.35,2.35,0,1,1-2.31-2.45A2.35,2.35,0,0,1,747.62,363Z" style="fill:#e0ed3a"/><path d="M877.88,327.37a2.47,2.47,0,0,1,0,4.93,2.47,2.47,0,0,1,0-4.93Z" style="fill:#e0ed3a"/><path d="M809.24,318.76a2.39,2.39,0,0,1,2.33-2.46,2.43,2.43,0,0,1,2.36,2.52,2.4,2.4,0,0,1-2.34,2.45A2.37,2.37,0,0,1,809.24,318.76Z" style="fill:#e0ed3a"/><path d="M891.26,340.91a2.39,2.39,0,0,1-2.32,2.47,2.49,2.49,0,0,1,0-5A2.39,2.39,0,0,1,891.26,340.91Z" style="fill:#e0ed3a"/><path d="M769.73,363a2.35,2.35,0,1,1-4.69,0,2.35,2.35,0,1,1,4.69,0Z" style="fill:#e0ed3a"/><path d="M800.5,360.52a2.48,2.48,0,1,1-2.32,2.46A2.37,2.37,0,0,1,800.5,360.52Z" style="fill:#e0ed3a"/><path d="M858.12,340.88a2.35,2.35,0,1,1-2.31-2.48A2.4,2.4,0,0,1,858.12,340.88Z" style="fill:#e0ed3a"/><path d="M897.64,363a2.34,2.34,0,0,1,2.32-2.44,2.48,2.48,0,0,1,0,5A2.36,2.36,0,0,1,897.64,363Z" style="fill:#e0ed3a"/><path d="M875.54,252.5a2.35,2.35,0,1,1,4.69,0,2.43,2.43,0,0,1-2.29,2.5A2.36,2.36,0,0,1,875.54,252.5Z" style="fill:#e0ed3a"/><path d="M787.14,230.4a2.38,2.38,0,0,1,2.27-2.51,2.41,2.41,0,0,1,2.42,2.45,2.44,2.44,0,0,1-2.37,2.52A2.37,2.37,0,0,1,787.14,230.4Z" style="fill:#e0ed3a"/><path d="M809.24,230.38a2.37,2.37,0,0,1,2.37-2.49,2.49,2.49,0,0,1-.06,5A2.38,2.38,0,0,1,809.24,230.38Z" style="fill:#e0ed3a"/><path d="M822.63,409.66a2.34,2.34,0,0,1-2.35-2.42,2.35,2.35,0,1,1,4.69,0A2.37,2.37,0,0,1,822.63,409.66Z" style="fill:#e0ed3a"/><path d="M802.87,274.6a2.35,2.35,0,1,1-2.36-2.49A2.35,2.35,0,0,1,802.87,274.6Z" style="fill:#e0ed3a"/><path d="M780.76,241.45a2.37,2.37,0,0,1-2.33,2.44,2.39,2.39,0,0,1-2.37-2.5,2.42,2.42,0,0,1,2.35-2.46A2.38,2.38,0,0,1,780.76,241.45Z" style="fill:#e0ed3a"/><path d="M747.62,296.64a2.35,2.35,0,1,1-2.35-2.44A2.38,2.38,0,0,1,747.62,296.64Z" style="fill:#e0ed3a"/><path d="M822.62,272.11a2.47,2.47,0,0,1,0,4.93,2.47,2.47,0,0,1,0-4.93Z" style="fill:#e0ed3a"/><path d="M946.51,285.62a2.39,2.39,0,0,1-2.37,2.5,2.49,2.49,0,0,1,.06-5A2.36,2.36,0,0,1,946.51,285.62Z" style="fill:#e0ed3a"/><path d="M800.5,243.89a2.37,2.37,0,0,1-2.33-2.45,2.35,2.35,0,1,1,4.69,0A2.36,2.36,0,0,1,800.5,243.89Z" style="fill:#e0ed3a"/><path d="M842.39,241.43a2.36,2.36,0,0,1,2.37-2.49,2.44,2.44,0,0,1,2.33,2.48,2.41,2.41,0,0,1-2.4,2.47A2.34,2.34,0,0,1,842.39,241.43Z" style="fill:#e0ed3a"/><path d="M858.12,241.4a2.35,2.35,0,1,1-4.69,0,2.42,2.42,0,0,1,2.29-2.51A2.39,2.39,0,0,1,858.12,241.4Z" style="fill:#e0ed3a"/><path d="M897.64,285.62a2.37,2.37,0,0,1,2.31-2.47,2.49,2.49,0,0,1,0,5A2.37,2.37,0,0,1,897.64,285.62Z" style="fill:#e0ed3a"/><path d="M858.12,274.58a2.35,2.35,0,1,1-4.69,0,2.35,2.35,0,1,1,4.69,0Z" style="fill:#e0ed3a"/><path d="M769.73,285.59a2.41,2.41,0,0,1-2.35,2.53,2.49,2.49,0,1,1,2.35-2.53Z" style="fill:#e0ed3a"/><path d="M944.17,277a2.47,2.47,0,0,1,0-4.93,2.47,2.47,0,0,1,0,4.93Z" style="fill:#e0ed3a"/><path d="M900,243.89a2.48,2.48,0,0,1,0-5,2.48,2.48,0,0,1,0,5Z" style="fill:#e0ed3a"/><path d="M802.87,252.49a2.35,2.35,0,1,1-4.69,0,2.35,2.35,0,1,1,4.69,0Z" style="fill:#e0ed3a"/><path d="M787.14,252.43a2.33,2.33,0,0,1,2.41-2.43,2.48,2.48,0,0,1-.08,4.95A2.37,2.37,0,0,1,787.14,252.43Z" style="fill:#e0ed3a"/><path d="M913.37,263.54a2.35,2.35,0,1,1-2.3-2.51A2.43,2.43,0,0,1,913.37,263.54Z" style="fill:#e0ed3a"/><path d="M897.65,263.53a2.39,2.39,0,0,1,2.29-2.5,2.49,2.49,0,0,1,.08,5A2.35,2.35,0,0,1,897.65,263.53Z" style="fill:#e0ed3a"/><path d="M869.17,263.63a2.35,2.35,0,1,1-2.27-2.59A2.39,2.39,0,0,1,869.17,263.63Z" style="fill:#e0ed3a"/><path d="M869.17,208.35a2.35,2.35,0,1,1-2.3-2.57A2.4,2.4,0,0,1,869.17,208.35Z" style="fill:#e0ed3a"/><path d="M802.86,208.29a2.35,2.35,0,1,1-2.28-2.45A2.31,2.31,0,0,1,802.86,208.29Z" style="fill:#e0ed3a"/><path d="M745.21,277a2.47,2.47,0,1,1,2.4-2.36A2.36,2.36,0,0,1,745.21,277Z" style="fill:#e0ed3a"/><path d="M802.87,219.32a2.35,2.35,0,1,1-2.39-2.46A2.34,2.34,0,0,1,802.87,219.32Z" style="fill:#e0ed3a"/><path d="M858.12,263.5a2.35,2.35,0,1,1-2.33-2.47A2.4,2.4,0,0,1,858.12,263.5Z" style="fill:#e0ed3a"/><path d="M858.12,296.64a2.39,2.39,0,0,1-2.27,2.51,2.37,2.37,0,0,1-2.42-2.43,2.35,2.35,0,1,1,4.69-.08Z" style="fill:#e0ed3a"/><path d="M780.76,263.52a2.37,2.37,0,0,1-2.37,2.49,2.42,2.42,0,0,1-2.32-2.48,2.45,2.45,0,0,1,2.32-2.5A2.38,2.38,0,0,1,780.76,263.52Z" style="fill:#e0ed3a"/><path d="M756.31,261a2.49,2.49,0,0,1,0,5,2.36,2.36,0,0,1-2.35-2.43A2.4,2.4,0,0,1,756.31,261Z" style="fill:#e0ed3a"/><path d="M844.7,299.15a2.48,2.48,0,0,1,0-5,2.48,2.48,0,0,1,0,5Z" style="fill:#e0ed3a"/><path d="M913.37,396.12a2.43,2.43,0,0,1-2.29,2.51,2.49,2.49,0,1,1,2.29-2.51Z" style="fill:#e0ed3a"/><path d="M877.85,409.67a2.48,2.48,0,0,1,.05-4.95,2.41,2.41,0,0,1,2.33,2.54A2.39,2.39,0,0,1,877.85,409.67Z" style="fill:#e0ed3a"/><path d="M811.57,261a2.49,2.49,0,0,1,0,5,2.49,2.49,0,0,1,0-5Z" style="fill:#e0ed3a"/><path d="M869.17,340.85a2.35,2.35,0,1,1-2.41-2.45A2.37,2.37,0,0,1,869.17,340.85Z" style="fill:#e0ed3a"/><path d="M833.68,250a2.34,2.34,0,0,1,2.33,2.43,2.37,2.37,0,0,1-2.34,2.52,2.48,2.48,0,0,1,0-4.95Z" style="fill:#e0ed3a"/><path d="M789.44,409.67a2.48,2.48,0,0,1,.07-4.95,2.48,2.48,0,0,1-.07,4.95Z" style="fill:#e0ed3a"/><path d="M836,407.17a2.35,2.35,0,1,1-4.69.06,2.42,2.42,0,0,1,2.36-2.51A2.37,2.37,0,0,1,836,407.17Z" style="fill:#e0ed3a"/><path d="M769.73,340.92a2.42,2.42,0,0,1-2.35,2.45,2.49,2.49,0,1,1,2.35-2.45Z" style="fill:#e0ed3a"/><path d="M911,250a2.36,2.36,0,0,1,2.34,2.43A2.35,2.35,0,1,1,911,250Z" style="fill:#e0ed3a"/><path d="M891.26,252.45a2.37,2.37,0,0,1-2.35,2.5,2.48,2.48,0,0,1,0-4.95A2.34,2.34,0,0,1,891.26,252.45Z" style="fill:#e0ed3a"/><path d="M877.9,415.78a2.48,2.48,0,1,1-2.36,2.4A2.34,2.34,0,0,1,877.9,415.78Z" style="fill:#e0ed3a"/><path d="M842.39,418.28a2.34,2.34,0,0,1,2.34-2.5,2.41,2.41,0,0,1,2.35,2.44,2.43,2.43,0,0,1-2.37,2.51A2.37,2.37,0,0,1,842.39,418.28Z" style="fill:#e0ed3a"/><path d="M858.12,208.24a2.35,2.35,0,1,1-2.34-2.46A2.4,2.4,0,0,1,858.12,208.24Z" style="fill:#e0ed3a"/><path d="M869.17,374.07a2.35,2.35,0,1,1-2.35-2.52A2.38,2.38,0,0,1,869.17,374.07Z" style="fill:#e0ed3a"/><path d="M822.66,221.79a2.47,2.47,0,0,1-.06-4.93,2.47,2.47,0,0,1,.06,4.93Z" style="fill:#e0ed3a"/><path d="M809.24,374a2.39,2.39,0,0,1,2.3-2.49,2.43,2.43,0,0,1,2.39,2.5,2.35,2.35,0,1,1-4.69,0Z" style="fill:#e0ed3a"/><path d="M858.12,219.33a2.35,2.35,0,1,1-2.29-2.47A2.35,2.35,0,0,1,858.12,219.33Z" style="fill:#e0ed3a"/><path d="M780.76,374.05a2.38,2.38,0,0,1-2.31,2.47,2.49,2.49,0,1,1,2.31-2.47Z" style="fill:#e0ed3a"/><path d="M877.86,221.79a2.47,2.47,0,0,1,0-4.93,2.47,2.47,0,0,1,0,4.93Z" style="fill:#e0ed3a"/><path d="M944.2,360.52a2.48,2.48,0,0,1-.06,5,2.4,2.4,0,0,1-2.32-2.47A2.38,2.38,0,0,1,944.2,360.52Z" style="fill:#e0ed3a"/><path d="M930.79,363a2.34,2.34,0,0,1,2.35-2.49,2.4,2.4,0,0,1,2.34,2.45,2.42,2.42,0,0,1-2.38,2.5A2.37,2.37,0,0,1,930.79,363Z" style="fill:#e0ed3a"/><path d="M888.94,360.52a2.48,2.48,0,0,1,0,5,2.41,2.41,0,0,1-2.33-2.54A2.37,2.37,0,0,1,888.94,360.52Z" style="fill:#e0ed3a"/><path d="M877.93,360.52a2.48,2.48,0,1,1-2.39,2.37A2.34,2.34,0,0,1,877.93,360.52Z" style="fill:#e0ed3a"/><path d="M822.59,360.52A2.37,2.37,0,0,1,825,363a2.41,2.41,0,0,1-2.31,2.48,2.48,2.48,0,0,1-.08-5Z" style="fill:#e0ed3a"/><path d="M869.17,230.36a2.35,2.35,0,1,1-2.4-2.46A2.39,2.39,0,0,1,869.17,230.36Z" style="fill:#e0ed3a"/><path d="M924.41,230.4a2.35,2.35,0,1,1-2.35-2.51A2.38,2.38,0,0,1,924.41,230.4Z" style="fill:#e0ed3a"/><path d="M789.44,243.89a2.34,2.34,0,0,1-2.3-2.46,2.36,2.36,0,0,1,2.36-2.49,2.43,2.43,0,0,1,2.33,2.48A2.39,2.39,0,0,1,789.44,243.89Z" style="fill:#e0ed3a"/><path d="M820.29,351.83a2.37,2.37,0,0,1,2.4-2.38A2.42,2.42,0,0,1,825,352a2.35,2.35,0,1,1-4.69-.21Z" style="fill:#e0ed3a"/><path d="M787.15,351.87a2.35,2.35,0,0,1,2.36-2.41,2.48,2.48,0,0,1-.07,4.95A2.34,2.34,0,0,1,787.15,351.87Z" style="fill:#e0ed3a"/><path d="M877.89,243.89a2.34,2.34,0,0,1-2.35-2.42,2.38,2.38,0,0,1,2.32-2.54,2.43,2.43,0,0,1,2.37,2.51A2.39,2.39,0,0,1,877.89,243.89Z" style="fill:#e0ed3a"/><path d="M891.26,241.39a2.36,2.36,0,0,1-2.34,2.5,2.38,2.38,0,0,1-2.35-2.44,2.35,2.35,0,1,1,4.69-.07Z" style="fill:#e0ed3a"/><path d="M765,252.47a2.35,2.35,0,1,1,4.69,0,2.35,2.35,0,1,1-4.69,0Z" style="fill:#e0ed3a"/><path d="M780.76,252.48a2.37,2.37,0,0,1-2.38,2.47,2.48,2.48,0,0,1,.09-4.95A2.37,2.37,0,0,1,780.76,252.48Z" style="fill:#e0ed3a"/><path d="M908.68,285.66a2.35,2.35,0,1,1,2.34,2.45A2.4,2.4,0,0,1,908.68,285.66Z" style="fill:#e0ed3a"/><path d="M769.73,318.77a2.35,2.35,0,1,1-2.33-2.48A2.43,2.43,0,0,1,769.73,318.77Z" style="fill:#e0ed3a"/><path d="M780.76,318.84a2.37,2.37,0,0,1-2.35,2.43,2.49,2.49,0,1,1,2.35-2.43Z" style="fill:#e0ed3a"/><path d="M789.43,299.15a2.48,2.48,0,0,1,.1-5,2.48,2.48,0,0,1-.1,5Z" style="fill:#e0ed3a"/><path d="M869.17,285.66a2.35,2.35,0,1,1-2.28-2.51A2.4,2.4,0,0,1,869.17,285.66Z" style="fill:#e0ed3a"/><path d="M913.37,307.71a2.35,2.35,0,1,1-4.69,0,2.35,2.35,0,1,1,4.69,0Z" style="fill:#e0ed3a"/><path d="M900,305.26a2.48,2.48,0,0,1,0,5,2.48,2.48,0,0,1,0-5Z" style="fill:#e0ed3a"/><path d="M869.17,396.16a2.35,2.35,0,1,1-2.29-2.5A2.4,2.4,0,0,1,869.17,396.16Z" style="fill:#e0ed3a"/><path d="M869.17,318.75a2.35,2.35,0,1,1-2.34-2.46A2.39,2.39,0,0,1,869.17,318.75Z" style="fill:#e0ed3a"/><path d="M891.26,307.75a2.38,2.38,0,0,1-2.31,2.47,2.48,2.48,0,0,1,0-4.95A2.34,2.34,0,0,1,891.26,307.75Z" style="fill:#e0ed3a"/><path d="M933.13,277a2.47,2.47,0,0,1,0-4.93,2.47,2.47,0,0,1,0,4.93Z" style="fill:#e0ed3a"/><path d="M913.37,318.75a2.35,2.35,0,1,1-2.34-2.46A2.41,2.41,0,0,1,913.37,318.75Z" style="fill:#e0ed3a"/><path d="M877.86,277a2.47,2.47,0,0,1,0-4.93,2.47,2.47,0,0,1,0,4.93Z" style="fill:#e0ed3a"/><path d="M875.54,307.77a2.35,2.35,0,0,1,2.34-2.51,2.38,2.38,0,0,1,2.35,2.43,2.41,2.41,0,0,1-2.36,2.52A2.36,2.36,0,0,1,875.54,307.77Z" style="fill:#e0ed3a"/><path d="M802.87,296.7a2.35,2.35,0,1,1-4.69,0,2.41,2.41,0,0,1,2.33-2.46A2.38,2.38,0,0,1,802.87,296.7Z" style="fill:#e0ed3a"/><path d="M911.06,299.15a2.36,2.36,0,0,1-2.38-2.47,2.35,2.35,0,1,1,2.38,2.47Z" style="fill:#e0ed3a"/><path d="M769.73,329.84a2.35,2.35,0,1,1-2.38-2.47A2.36,2.36,0,0,1,769.73,329.84Z" style="fill:#e0ed3a"/><path d="M802.87,307.72a2.35,2.35,0,1,1-2.4-2.45A2.36,2.36,0,0,1,802.87,307.72Z" style="fill:#e0ed3a"/><path d="M780.76,396.17a2.39,2.39,0,0,1-2.32,2.46,2.44,2.44,0,0,1-2.37-2.52,2.35,2.35,0,1,1,4.69.05Z" style="fill:#e0ed3a"/><path d="M877.85,299.15a2.35,2.35,0,0,1-2.31-2.53,2.38,2.38,0,0,1,2.36-2.42,2.42,2.42,0,0,1,2.33,2.55A2.37,2.37,0,0,1,877.85,299.15Z" style="fill:#e0ed3a"/><path d="M731.89,307.75a2.34,2.34,0,0,1,2.35-2.49,2.39,2.39,0,0,1,2.34,2.44,2.44,2.44,0,0,1-2.38,2.51A2.37,2.37,0,0,1,731.89,307.75Z" style="fill:#e0ed3a"/><path d="M767.34,272.11a2.47,2.47,0,1,1-2.3,2.46A2.36,2.36,0,0,1,767.34,272.11Z" style="fill:#e0ed3a"/><path d="M891.25,418.28a2.4,2.4,0,0,1-2.39,2.37,2.33,2.33,0,0,1-2.31-2.51,2.37,2.37,0,0,1,2.34-2.43A2.4,2.4,0,0,1,891.25,418.28Z" style="fill:#e0ed3a"/><path d="M734.19,299.15a2.48,2.48,0,0,1,.08-5,2.48,2.48,0,0,1-.08,5Z" style="fill:#e0ed3a"/><path d="M778.45,299.15a2.38,2.38,0,0,1-2.38-2.48,2.42,2.42,0,0,1,2.33-2.47,2.38,2.38,0,0,1,2.36,2.5A2.35,2.35,0,0,1,778.45,299.15Z" style="fill:#e0ed3a"/><path d="M836,418.3a2.38,2.38,0,0,1-2.35,2.43,2.41,2.41,0,0,1-2.34-2.53,2.35,2.35,0,1,1,4.69.1Z" style="fill:#e0ed3a"/><path d="M900,299.15a2.34,2.34,0,0,1-2.32-2.44A2.38,2.38,0,0,1,900,294.2a2.48,2.48,0,0,1,0,5Z" style="fill:#e0ed3a"/><path d="M778.43,360.52a2.34,2.34,0,0,1,2.33,2.43,2.38,2.38,0,0,1-2.34,2.52,2.48,2.48,0,0,1,0-5Z" style="fill:#e0ed3a"/><path d="M789.45,360.52a2.39,2.39,0,0,1,2.39,2.48,2.42,2.42,0,0,1-2.33,2.47,2.48,2.48,0,0,1-.06-5Z" style="fill:#e0ed3a"/><path d="M844.68,382.63a2.47,2.47,0,0,1,.09,4.93,2.47,2.47,0,0,1-.09-4.93Z" style="fill:#e0ed3a"/><path d="M955.19,299.15a2.48,2.48,0,0,1,.07-5,2.44,2.44,0,0,1,2.33,2.48A2.4,2.4,0,0,1,955.19,299.15Z" style="fill:#e0ed3a"/><path d="M780.76,307.73a2.37,2.37,0,0,1-2.29,2.49,2.48,2.48,0,0,1,0-4.95A2.35,2.35,0,0,1,780.76,307.73Z" style="fill:#e0ed3a"/><path d="M833.67,360.52a2.35,2.35,0,0,1,2.34,2.42,2.39,2.39,0,0,1-2.33,2.53,2.42,2.42,0,0,1-2.36-2.44A2.39,2.39,0,0,1,833.67,360.52Z" style="fill:#e0ed3a"/><path d="M787.14,307.7a2.35,2.35,0,0,1,2.33-2.44,2.48,2.48,0,0,1,0,4.95A2.36,2.36,0,0,1,787.14,307.7Z" style="fill:#e0ed3a"/><path d="M842.39,363a2.33,2.33,0,0,1,2.41-2.43,2.48,2.48,0,0,1-.08,5A2.38,2.38,0,0,1,842.39,363Z" style="fill:#e0ed3a"/><path d="M858.12,407.16a2.35,2.35,0,1,1-2.35-2.44A2.37,2.37,0,0,1,858.12,407.16Z" style="fill:#e0ed3a"/><path d="M836,296.68a2.36,2.36,0,0,1-2.38,2.47,2.48,2.48,0,1,1,2.38-2.47Z" style="fill:#e0ed3a"/><path d="M833.67,305.26a2.48,2.48,0,0,1,0,5,2.48,2.48,0,0,1,0-5Z" style="fill:#e0ed3a"/><path d="M842.39,307.7a2.33,2.33,0,0,1,2.33-2.43,2.48,2.48,0,0,1,0,4.95A2.36,2.36,0,0,1,842.39,307.7Z" style="fill:#e0ed3a"/><path d="M897.64,329.78a2.33,2.33,0,0,1,2.35-2.41,2.47,2.47,0,0,1,0,4.93A2.33,2.33,0,0,1,897.64,329.78Z" style="fill:#e0ed3a"/><path d="M858.12,329.85a2.35,2.35,0,1,1-2.37-2.48A2.36,2.36,0,0,1,858.12,329.85Z" style="fill:#e0ed3a"/><path d="M858.12,252.44A2.35,2.35,0,1,1,855.7,250,2.35,2.35,0,0,1,858.12,252.44Z" style="fill:#e0ed3a"/><path d="M900,277a2.47,2.47,0,0,1,0-4.93,2.47,2.47,0,0,1,0,4.93Z" style="fill:#e0ed3a"/><path d="M780.76,285.66a2.4,2.4,0,0,1-2.33,2.46,2.49,2.49,0,0,1,0-5A2.37,2.37,0,0,1,780.76,285.66Z" style="fill:#e0ed3a"/><path d="M780.76,352a2.35,2.35,0,0,1-2.33,2.44,2.48,2.48,0,1,1,2.33-2.44Z" style="fill:#e0ed3a"/><path d="M809.24,285.52a2.36,2.36,0,0,1,2.49-2.37,2.43,2.43,0,0,1,2.2,2.59,2.35,2.35,0,1,1-4.69-.22Z" style="fill:#e0ed3a"/><path d="M899.94,354.41a2.48,2.48,0,0,1,.07-4.95,2.48,2.48,0,0,1-.07,4.95Z" style="fill:#e0ed3a"/><path d="M844.73,354.41a2.33,2.33,0,0,1-2.33-2.5,2.37,2.37,0,0,1,2.33-2.45,2.43,2.43,0,0,1,2.36,2.52A2.4,2.4,0,0,1,844.73,354.41Z" style="fill:#e0ed3a"/><path d="M833.7,243.89a2.39,2.39,0,0,1-2.38-2.49,2.43,2.43,0,0,1,2.34-2.47,2.48,2.48,0,0,1,0,5Z" style="fill:#e0ed3a"/><path d="M891.26,351.9a2.35,2.35,0,1,1-4.69.07,2.42,2.42,0,0,1,2.36-2.51A2.37,2.37,0,0,1,891.26,351.9Z" style="fill:#e0ed3a"/><path d="M778.42,387.56a2.47,2.47,0,0,1,0-4.93,2.47,2.47,0,0,1,0,4.93Z" style="fill:#e0ed3a"/><path d="M891.26,329.82a2.33,2.33,0,0,1-2.36,2.48,2.37,2.37,0,0,1-2.33-2.45,2.4,2.4,0,0,1,2.3-2.48A2.34,2.34,0,0,1,891.26,329.82Z" style="fill:#e0ed3a"/><path d="M924.41,296.69a2.35,2.35,0,1,1-4.69,0,2.35,2.35,0,1,1,4.69,0Z" style="fill:#e0ed3a"/><path d="M811.59,243.89a2.36,2.36,0,0,1-2.36-2.49,2.38,2.38,0,0,1,2.32-2.46,2.41,2.41,0,0,1,2.37,2.51A2.38,2.38,0,0,1,811.59,243.89Z" style="fill:#e0ed3a"/><path d="M809.23,418.27a2.35,2.35,0,1,1,4.69,0,2.41,2.41,0,0,1-2.3,2.5A2.37,2.37,0,0,1,809.23,418.27Z" style="fill:#e0ed3a"/><path d="M789.48,221.79a2.47,2.47,0,0,1,0-4.93,2.47,2.47,0,0,1,0,4.93Z" style="fill:#e0ed3a"/><path d="M900,409.67a2.48,2.48,0,0,1,0-4.95,2.48,2.48,0,0,1,0,4.95Z" style="fill:#e0ed3a"/><path d="M844.77,221.78a2.31,2.31,0,0,1-2.38-2.38,2.35,2.35,0,0,1,2.29-2.55,2.47,2.47,0,0,1,.09,4.93Z" style="fill:#e0ed3a"/><path d="M809.24,340.86a2.34,2.34,0,1,1,4.68.06,2.41,2.41,0,0,1-2.33,2.46A2.38,2.38,0,0,1,809.24,340.86Z" style="fill:#e0ed3a"/><path d="M891.26,219.31a2.33,2.33,0,0,1-2.36,2.47,2.47,2.47,0,0,1,.06-4.93A2.34,2.34,0,0,1,891.26,219.31Z" style="fill:#e0ed3a"/><path d="M842.39,252.51a2.33,2.33,0,0,1,2.25-2.51,2.4,2.4,0,0,1,2.44,2.43,2.45,2.45,0,0,1-2.36,2.53A2.36,2.36,0,0,1,842.39,252.51Z" style="fill:#e0ed3a"/><path d="M922.08,360.52a2.37,2.37,0,0,1,2.33,2.52,2.35,2.35,0,1,1-2.33-2.52Z" style="fill:#e0ed3a"/><path d="M836,352a2.35,2.35,0,0,1-2.33,2.43,2.38,2.38,0,0,1-2.36-2.5,2.42,2.42,0,0,1,2.35-2.45A2.38,2.38,0,0,1,836,352Z" style="fill:#e0ed3a"/><path d="M756.36,299.15a2.48,2.48,0,0,1-.06-5,2.48,2.48,0,0,1,.06,5Z" style="fill:#e0ed3a"/><path d="M844.75,409.67a2.33,2.33,0,0,1-2.36-2.48,2.37,2.37,0,0,1,2.31-2.47,2.48,2.48,0,0,1,0,4.95Z" style="fill:#e0ed3a"/><path d="M787.15,385.07a2.32,2.32,0,0,1,2.32-2.44,2.47,2.47,0,0,1,0,4.93A2.32,2.32,0,0,1,787.15,385.07Z" style="fill:#e0ed3a"/><path d="M756.36,360.52a2.48,2.48,0,0,1-.08,5A2.38,2.38,0,0,1,754,363,2.34,2.34,0,0,1,756.36,360.52Z" style="fill:#e0ed3a"/><path d="M866.84,415.78a2.48,2.48,0,0,1,0,5,2.48,2.48,0,0,1,0-5Z" style="fill:#e0ed3a"/><path d="M866.8,243.89a2.37,2.37,0,0,1-2.32-2.46,2.42,2.42,0,0,1,2.37-2.5,2.48,2.48,0,0,1-.05,5Z" style="fill:#e0ed3a"/><path d="M833.7,387.56a2.47,2.47,0,0,1,0-4.93A2.33,2.33,0,0,1,836,385,2.35,2.35,0,0,1,833.7,387.56Z" style="fill:#e0ed3a"/><path d="M844.69,332.3a2.34,2.34,0,0,1-2.3-2.54,2.32,2.32,0,0,1,2.37-2.39,2.47,2.47,0,0,1-.07,4.93Z" style="fill:#e0ed3a"/><path d="M836,329.82a2.34,2.34,0,0,1-2.37,2.47,2.47,2.47,0,0,1,0-4.93A2.34,2.34,0,0,1,836,329.82Z" style="fill:#e0ed3a"/><path d="M780.76,274.56a2.35,2.35,0,1,1-4.69.05,2.4,2.4,0,0,1,2.29-2.49A2.35,2.35,0,0,1,780.76,274.56Z" style="fill:#e0ed3a"/><path d="M924.41,241.44a2.35,2.35,0,0,1-2.4,2.45,2.48,2.48,0,1,1,2.4-2.45Z" style="fill:#e0ed3a"/><path d="M787.14,329.78a2.33,2.33,0,0,1,2.35-2.41,2.47,2.47,0,0,1,0,4.93A2.33,2.33,0,0,1,787.14,329.78Z" style="fill:#e0ed3a"/><path d="M869.17,296.76a2.35,2.35,0,1,1-4.69-.16,2.35,2.35,0,1,1,4.69.16Z" style="fill:#e0ed3a"/><path d="M891.26,274.58a2.34,2.34,0,0,1-2.38,2.46,2.47,2.47,0,0,1,0-4.93A2.34,2.34,0,0,1,891.26,274.58Z" style="fill:#e0ed3a"/><path d="M754,307.73a2.35,2.35,0,0,1,2.38-2.46,2.48,2.48,0,0,1,0,4.95A2.36,2.36,0,0,1,754,307.73Z" style="fill:#e0ed3a"/><path d="M836,219.33a2.34,2.34,0,0,1-2.3,2.46,2.46,2.46,0,0,1,0-4.93A2.34,2.34,0,0,1,836,219.33Z" style="fill:#e0ed3a"/><path d="M899.94,250a2.39,2.39,0,0,1,2.39,2.47A2.42,2.42,0,0,1,900,255a2.48,2.48,0,0,1-.07-4.95Z" style="fill:#e0ed3a"/><path d="M866.84,360.52a2.37,2.37,0,0,1,2.33,2.45,2.35,2.35,0,1,1-4.69,0A2.37,2.37,0,0,1,866.84,360.52Z" style="fill:#e0ed3a"/><path d="M780.76,329.8a2.35,2.35,0,0,1-2.34,2.5,2.47,2.47,0,0,1,0-4.93A2.35,2.35,0,0,1,780.76,329.8Z" style="fill:#e0ed3a"/><path d="M844.77,277a2.32,2.32,0,0,1-2.38-2.38,2.35,2.35,0,0,1,2.29-2.55,2.47,2.47,0,0,1,.09,4.93Z" style="fill:#e0ed3a"/><path d="M789.47,277a2.47,2.47,0,0,1,0-4.93,2.47,2.47,0,0,1,0,4.93Z" style="fill:#e0ed3a"/><path d="M833.7,277A2.47,2.47,0,1,1,836,274.6,2.34,2.34,0,0,1,833.7,277Z" style="fill:#e0ed3a"/><path d="M922.08,354.41a2.38,2.38,0,0,1-2.35-2.5,2.42,2.42,0,0,1,2.35-2.45,2.38,2.38,0,0,1,2.34,2.52A2.36,2.36,0,0,1,922.08,354.41Z" style="fill:#e0ed3a"/><path d="M809.24,296.66a2.38,2.38,0,0,1,2.32-2.46,2.48,2.48,0,0,1,0,5A2.36,2.36,0,0,1,809.24,296.66Z" style="fill:#e0ed3a"/><path d="M900,221.78a2.47,2.47,0,0,1,0-4.93,2.47,2.47,0,0,1,0,4.93Z" style="fill:#e0ed3a"/><path d="M900,387.56a2.47,2.47,0,0,1,0-4.93,2.47,2.47,0,0,1,0,4.93Z" style="fill:#e0ed3a"/><path d="M811.59,305.26a2.48,2.48,0,1,1-2.36,2.49A2.38,2.38,0,0,1,811.59,305.26Z" style="fill:#e0ed3a"/><path d="M754,252.46a2.34,2.34,0,0,1,2.39-2.46,2.48,2.48,0,0,1,0,4.95A2.36,2.36,0,0,1,754,252.46Z" style="fill:#e0ed3a"/><path d="M811.57,360.52a2.48,2.48,0,1,1-2.33,2.44A2.35,2.35,0,0,1,811.57,360.52Z" style="fill:#e0ed3a"/><path d="M811.57,250a2.48,2.48,0,1,1-2.34,2.44A2.39,2.39,0,0,1,811.57,250Z" style="fill:#e0ed3a"/><path d="M866.81,250a2.48,2.48,0,1,1-2.33,2.45A2.37,2.37,0,0,1,866.81,250Z" style="fill:#e0ed3a"/><path d="M869.17,352a2.35,2.35,0,1,1-4.69,0,2.35,2.35,0,1,1,4.69,0Z" style="fill:#e0ed3a"/><path d="M756.32,354.41a2.34,2.34,0,0,1-2.32-2.52,2.37,2.37,0,0,1,2.34-2.43,2.42,2.42,0,0,1,2.35,2.45A2.39,2.39,0,0,1,756.32,354.41Z" style="fill:#e0ed3a"/><path d="M924.41,307.74a2.35,2.35,0,1,1-2.37-2.48A2.36,2.36,0,0,1,924.41,307.74Z" style="fill:#e0ed3a"/><path d="M952.89,307.75a2.34,2.34,0,0,1,2.35-2.49,2.4,2.4,0,0,1,2.34,2.45,2.43,2.43,0,0,1-2.38,2.5A2.37,2.37,0,0,1,952.89,307.75Z" style="fill:#e0ed3a"/><path d="M924.41,252.51a2.35,2.35,0,1,1-2.27-2.5A2.36,2.36,0,0,1,924.41,252.51Z" style="fill:#e0ed3a"/><path d="M811.59,354.41a2.34,2.34,0,0,1-2.36-2.49,2.37,2.37,0,0,1,2.32-2.46,2.48,2.48,0,0,1,0,5Z" style="fill:#e0ed3a"/><path d="M869.17,307.77a2.35,2.35,0,1,1-2.34-2.5A2.36,2.36,0,0,1,869.17,307.77Z" style="fill:#e0ed3a"/><path d="M811.56,409.67a2.35,2.35,0,0,1-2.32-2.45,2.37,2.37,0,0,1,2.36-2.5,2.41,2.41,0,0,1,2.34,2.46A2.38,2.38,0,0,1,811.56,409.67Z" style="fill:#e0ed3a"/><path d="M922.1,327.37a2.47,2.47,0,1,1-2.38,2.48A2.35,2.35,0,0,1,922.1,327.37Z" style="fill:#e0ed3a"/><path d="M922.07,277a2.47,2.47,0,1,1,2.35-2.41A2.34,2.34,0,0,1,922.07,277Z" style="fill:#e0ed3a"/><path d="M756.29,277a2.47,2.47,0,0,1,.08-4.93,2.47,2.47,0,0,1-.08,4.93Z" style="fill:#e0ed3a"/><path d="M922,387.56a2.47,2.47,0,1,1,2.37-2.4A2.34,2.34,0,0,1,922,387.56Z" style="fill:#e0ed3a"/><path d="M866.85,409.67a2.48,2.48,0,0,1-.06-4.95,2.48,2.48,0,0,1,.06,4.95Z" style="fill:#e0ed3a"/><path d="M955.19,332.3a2.47,2.47,0,0,1,.07-4.93,2.47,2.47,0,0,1-.07,4.93Z" style="fill:#e0ed3a"/><path d="M811.55,221.79a2.47,2.47,0,0,1,0-4.93,2.47,2.47,0,0,1,0,4.93Z" style="fill:#e0ed3a"/><path d="M811.59,387.56a2.47,2.47,0,0,1,0-4.93,2.47,2.47,0,0,1,0,4.93Z" style="fill:#e0ed3a"/><path d="M756.32,332.3a2.47,2.47,0,0,1,0-4.93,2.47,2.47,0,0,1,0,4.93Z" style="fill:#e0ed3a"/><path d="M811.56,277a2.47,2.47,0,0,1,0-4.93,2.47,2.47,0,0,1,0,4.93Z" style="fill:#e0ed3a"/><path d="M811.58,332.3a2.47,2.47,0,0,1,0-4.93,2.47,2.47,0,0,1,0,4.93Z" style="fill:#e0ed3a"/><path d="M866.94,216.86a2.38,2.38,0,0,1,2.23,2.54,2.34,2.34,0,0,1-2.46,2.39,2.37,2.37,0,0,1-2.23-2.54A2.35,2.35,0,0,1,866.94,216.86Z" style="fill:#e0ed3a"/><path d="M866.86,382.63a2.47,2.47,0,1,1-2.39,2.46A2.37,2.37,0,0,1,866.86,382.63Z" style="fill:#e0ed3a"/><path d="M866.87,277a2.47,2.47,0,1,1,2.3-2.48A2.38,2.38,0,0,1,866.87,277Z" style="fill:#e0ed3a"/><path d="M866.84,332.3a2.47,2.47,0,1,1,2.33-2.44A2.34,2.34,0,0,1,866.84,332.3Z" style="fill:#e0ed3a"/><path d="M864.79,428.55a1.61,1.61,0,0,1,1.65-1.61,1.7,1.7,0,0,1-.16,3.39A1.64,1.64,0,0,1,864.79,428.55Z" style="fill:#e0ed3a"/><path d="M737.53,351.53a1.65,1.65,0,0,1-1.7,1.58,1.68,1.68,0,0,1-1.7-1.59,1.71,1.71,0,0,1,1.75-1.63A1.69,1.69,0,0,1,737.53,351.53Z" style="fill:#e0ed3a"/><path d="M943.2,372a1.69,1.69,0,0,1,1.7,1.6,1.65,1.65,0,0,1-1.65,1.63,1.68,1.68,0,0,1-1.74-1.62A1.71,1.71,0,0,1,943.2,372Z" style="fill:#e0ed3a"/><path d="M746.23,375.25a1.61,1.61,0,1,1,1.67-1.61A1.65,1.65,0,0,1,746.23,375.25Z" style="fill:#e0ed3a"/><path d="M854,199a1.62,1.62,0,0,1,1.54-1.72,1.71,1.71,0,0,1,1.68,1.71,1.74,1.74,0,0,1-1.63,1.69A1.61,1.61,0,0,1,854,199Z" style="fill:#e0ed3a"/><path d="M909.3,219.83a1.64,1.64,0,0,1,1.6-1.67,1.7,1.7,0,0,1,0,3.39A1.64,1.64,0,0,1,909.3,219.83Z" style="fill:#e0ed3a"/><path d="M854,428.6a1.61,1.61,0,0,1,1.6-1.66,1.72,1.72,0,0,1,1.62,1.69,1.74,1.74,0,0,1-1.68,1.71A1.62,1.62,0,0,1,854,428.6Z" style="fill:#e0ed3a"/><path d="M877.13,426.93a1.72,1.72,0,0,1,1.63,1.68,1.74,1.74,0,0,1-1.67,1.72,1.7,1.7,0,0,1,0-3.39Z" style="fill:#e0ed3a"/><path d="M822.34,426.85a1.7,1.7,0,0,1,1.64,1.66,1.66,1.66,0,0,1-1.63,1.73,1.61,1.61,0,0,1-1.58-1.68A1.66,1.66,0,0,1,822.34,426.85Z" style="fill:#e0ed3a"/><path d="M778.64,218.16a1.7,1.7,0,1,1-1.6,1.7A1.66,1.66,0,0,1,778.64,218.16Z" style="fill:#e0ed3a"/><path d="M789.21,206.61a1.7,1.7,0,0,1,1.65,1.65,1.66,1.66,0,0,1-1.62,1.74,1.61,1.61,0,0,1-1.59-1.67A1.66,1.66,0,0,1,789.21,206.61Z" style="fill:#e0ed3a"/><path d="M877.11,197.19a1.68,1.68,0,0,1,1.65,1.66,1.65,1.65,0,0,1-1.57,1.73,1.62,1.62,0,0,1-1.64-1.64A1.68,1.68,0,0,1,877.11,197.19Z" style="fill:#e0ed3a"/><path d="M822.32,200.58a1.61,1.61,0,0,1-1.55-1.71,1.66,1.66,0,0,1,1.61-1.67A1.71,1.71,0,0,1,824,199,1.65,1.65,0,0,1,822.32,200.58Z" style="fill:#e0ed3a"/><path d="M834.72,428.61a1.65,1.65,0,0,1-1.58,1.71,1.7,1.7,0,0,1,0-3.39A1.63,1.63,0,0,1,834.72,428.61Z" style="fill:#e0ed3a"/><path d="M846.35,428.33a1.64,1.64,0,0,1-1.61,1.68,1.73,1.73,0,0,1-1.59-1.74,1.66,1.66,0,0,1,1.65-1.65A1.59,1.59,0,0,1,846.35,428.33Z" style="fill:#e0ed3a"/><path d="M811.34,429.78a1.64,1.64,0,0,1-1.7-1.59,1.7,1.7,0,0,1,3.39,0A1.61,1.61,0,0,1,811.34,429.78Z" style="fill:#e0ed3a"/><path d="M901.17,418.18a1.62,1.62,0,0,1-1.62,1.65,1.66,1.66,0,0,1-1.75-1.6,1.69,1.69,0,0,1,3.38,0Z" style="fill:#e0ed3a"/><path d="M789.15,416.6a1.68,1.68,0,0,1,1.67,1.62,1.63,1.63,0,0,1-1.66,1.61,1.66,1.66,0,0,1-1.71-1.65A1.69,1.69,0,0,1,789.15,416.6Z" style="fill:#e0ed3a"/><path d="M846.35,198.6a1.65,1.65,0,0,1-1.55,1.74,1.72,1.72,0,0,1-1.65-1.67,1.67,1.67,0,0,1,1.58-1.72A1.58,1.58,0,0,1,846.35,198.6Z" style="fill:#e0ed3a"/><path d="M813.22,198.9a1.64,1.64,0,0,1-1.61,1.67,1.62,1.62,0,0,1-1.59-1.69,1.61,1.61,0,1,1,3.21,0Z" style="fill:#e0ed3a"/><path d="M868,198.89a1.6,1.6,0,1,1-3.2,0,1.68,1.68,0,0,1,1.61-1.7A1.66,1.66,0,0,1,868,198.89Z" style="fill:#e0ed3a"/><path d="M834.72,199a1.64,1.64,0,0,1-1.62,1.68,1.7,1.7,0,0,1,0-3.39A1.63,1.63,0,0,1,834.72,199Z" style="fill:#e0ed3a"/><path d="M901.75,208.29a1.6,1.6,0,1,1-3.2,0,1.7,1.7,0,0,1,1.58-1.73A1.66,1.66,0,0,1,901.75,208.29Z" style="fill:#e0ed3a"/><path d="M911.12,408.57a1.62,1.62,0,0,1-1.59-1.69,1.61,1.61,0,1,1,3.21,0A1.64,1.64,0,0,1,911.12,408.57Z" style="fill:#e0ed3a"/><path d="M778.59,408.57a1.62,1.62,0,0,1-1.54-1.74,1.66,1.66,0,0,1,1.65-1.65,1.68,1.68,0,0,1,1.55,1.75A1.63,1.63,0,0,1,778.59,408.57Z" style="fill:#e0ed3a"/><path d="M955.44,351.61a1.6,1.6,0,1,1-3.2,0,1.7,1.7,0,0,1,1.58-1.73A1.66,1.66,0,0,1,955.44,351.61Z" style="fill:#e0ed3a"/><path d="M746,254.59a1.64,1.64,0,0,1-1.7-1.59,1.7,1.7,0,0,1,3.39,0A1.61,1.61,0,0,1,746,254.59Z" style="fill:#e0ed3a"/><path d="M943.24,254.59A1.6,1.6,0,1,1,944.9,253,1.61,1.61,0,0,1,943.24,254.59Z" style="fill:#e0ed3a"/><path d="M955.44,275.52a1.6,1.6,0,1,1-3.2,0,1.68,1.68,0,0,1,1.62-1.69A1.66,1.66,0,0,1,955.44,275.52Z" style="fill:#e0ed3a"/><path d="M734.79,277a1.62,1.62,0,0,1-1.66-1.62,1.64,1.64,0,0,1,1.72-1.57,1.63,1.63,0,0,1,1.66,1.63A1.6,1.6,0,0,1,734.79,277Z" style="fill:#e0ed3a"/><path d="M775.23,319.72a110.71,110.71,0,0,1,0,221.42Z" style="fill:url(#New_Gradient_Swatch_5-6)"/><path d="M775.87,459.27a110.71,110.71,0,0,1,0-221.42Z" style="fill:url(#New_Gradient_Swatch_5-7)"/><path d="M775.23,643.55a71,71,0,0,1,0-142Z" style="fill:url(#New_Gradient_Swatch_2-4)"/><circle cx="777.62" cy="586.34" r="23.65" style="fill:#f83c7a"/><circle cx="677.7" cy="393.48" r="34.54" style="fill:url(#New_Gradient_Swatch_2-5)"/><path d="M658,450.82a.9.9,0,0,1-.63-1.53l26-26a.9.9,0,0,1,1.27,1.27l-26,26A.89.89,0,0,1,658,450.82Z" style="fill:url(#New_Gradient_Swatch_2-6)"/><circle cx="657.98" cy="449.92" r="0.86" style="fill:#f83c7a"/><path d="M658,449.11a.82.82,0,1,1-.82.82.82.82,0,0,1,.82-.82m0-.09a.91.91,0,1,0,.91.91A.91.91,0,0,0,658,449Z" style="fill:#f83c7a"/><path d="M628.54,454a.9.9,0,0,1-.68-.32.94.94,0,0,1,.09-1.26l36.5-36.5c.55-.55,1.65-.23,1.57,1l-36.84,36.84A.89.89,0,0,1,628.54,454Z" style="fill:url(#New_Gradient_Swatch_2-7)"/><circle cx="628.54" cy="453.08" r="0.86" style="fill:#f83c7a"/><path d="M628.54,452.26a.82.82,0,1,1-.82.82.82.82,0,0,1,.82-.82m0-.09a.91.91,0,1,0,.91.91.91.91,0,0,0-.91-.91Z" style="fill:#f83c7a"/><path d="M643.38,411.69a.9.9,0,0,1-.63-1.53l17.93-17.93a.9.9,0,1,1,1.27,1.27L644,411.42A.89.89,0,0,1,643.38,411.69Z" style="fill:url(#New_Gradient_Swatch_2-8)"/><circle cx="643.38" cy="410.79" r="0.86" style="fill:#f83c7a"/><path d="M643.38,410a.82.82,0,1,1-.82.82.82.82,0,0,1,.82-.82m0-.09a.91.91,0,1,0,.91.91.91.91,0,0,0-.91-.91Z" style="fill:#f83c7a"/><circle cx="633.93" cy="426.68" r="0.56" style="fill:#f83c7a"/><circle cx="612.66" cy="416.71" r="0.56" style="fill:#f83c7a"/><circle cx="618.08" cy="443.14" r="0.56" style="fill:#f83c7a"/><circle cx="617.18" cy="465.6" r="0.56" style="fill:#f83c7a"/><circle cx="599.31" cy="456.99" r="0.56" style="fill:#f83c7a"/><circle cx="639.36" cy="386.15" r="0.56" style="fill:#f83c7a"/><circle cx="644.28" cy="464.71" r="0.56" style="fill:#f83c7a"/><circle cx="676.34" cy="453.08" r="0.56" style="fill:#f83c7a"/><circle cx="656.51" cy="432.54" r="0.56" style="fill:#f83c7a"/><circle cx="676.34" cy="407.83" r="0.56" style="fill:#f83c7a"/><circle cx="676.34" cy="381.27" r="0.56" style="fill:#f83c7a"/><path d="M605.55,465.6a.9.9,0,0,1-.63-1.53l72.72-72.72a.9.9,0,0,1,1.27,1.27l-72.72,72.72A.89.89,0,0,1,605.55,465.6Z" style="fill:url(#New_Gradient_Swatch_2-9)"/><path d="M605.55,465.57a.86.86,0,0,1-.31-1.66.84.84,0,0,1,.31-.06.86.86,0,0,1,0,1.72Z" style="fill:#f83c7a"/><path d="M605.55,463.89a.82.82,0,1,1-.3.06.81.81,0,0,1,.3-.06m0-.09a.91.91,0,1,0,.84.58.9.9,0,0,0-.84-.58Z" style="fill:#f83c7a"/><path d="M598.55,441.4a.9.9,0,0,1-.63-1.53l67.44-67.39a.9.9,0,1,1,1.27,1.27l-67.44,67.39A.89.89,0,0,1,598.55,441.4Z" style="fill:url(#New_Gradient_Swatch_2-10)"/><path d="M598.55,441.37a.86.86,0,1,1,.31-.06A.84.84,0,0,1,598.55,441.37Z" style="fill:#f83c7a"/><path d="M598.55,439.69h0a.82.82,0,1,1-.3.06.81.81,0,0,1,.3-.06m0-.09a.91.91,0,1,0,.84.58.9.9,0,0,0-.84-.58Z" style="fill:#f83c7a"/><path d="M616.45,480.93a.36.36,0,0,1-.25-.61l70.71-70.71a.36.36,0,0,1,.51.51L616.7,480.82A.36.36,0,0,1,616.45,480.93Z" style="fill:url(#New_Gradient_Swatch_2-11)"/><circle cx="616.41" cy="480.61" r="0.36" style="fill:#f83c7a"/><path d="M605.11,447.56a.36.36,0,0,1-.25-.61l31.2-31.2a.36.36,0,0,1,.51.51l-31.2,31.2A.36.36,0,0,1,605.11,447.56Z" style="fill:url(#New_Gradient_Swatch_2-12)"/><circle cx="605.1" cy="447.21" r="0.36" style="fill:#f83c7a"/><path d="M653.44,174.9a.58.58,0,0,1-.41-1l16.82-16.82a.58.58,0,0,1,.82.82l-16.82,16.82A.58.58,0,0,1,653.44,174.9Z" style="fill:url(#New_Gradient_Swatch_2-13)"/><circle cx="653.44" cy="174.32" r="0.56" style="fill:#f83c7a"/><path d="M653.44,173.79a.53.53,0,1,1-.53.53.53.53,0,0,1,.53-.53m0-.06a.59.59,0,1,0,.59.59.59.59,0,0,0-.59-.59Z" style="fill:#f83c7a"/><path d="M634.39,176.95a.58.58,0,0,1-.44-.2.61.61,0,0,1,.06-.81l23.63-23.63c.36-.36,1.07-.15,1,.63L634.8,176.78A.58.58,0,0,1,634.39,176.95Z" style="fill:url(#New_Gradient_Swatch_2-14)"/><circle cx="634.39" cy="176.37" r="0.56" style="fill:#f83c7a"/><path d="M634.39,175.84a.53.53,0,1,1-.53.53.53.53,0,0,1,.53-.53m0-.06a.59.59,0,1,0,.59.59.59.59,0,0,0-.59-.59Z" style="fill:#f83c7a"/><path d="M644,149.57a.58.58,0,0,1-.41-1L655.19,137a.58.58,0,0,1,.82.82L644.4,149.4A.58.58,0,0,1,644,149.57Z" style="fill:url(#New_Gradient_Swatch_2-15)"/><circle cx="643.99" cy="148.99" r="0.56" style="fill:#f83c7a"/><path d="M644,148.46a.53.53,0,1,1-.53.53.53.53,0,0,1,.53-.53m0-.06a.59.59,0,1,0,.59.59.59.59,0,0,0-.59-.59Z" style="fill:#f83c7a"/><circle cx="637.88" cy="159.27" r="0.36" style="fill:#f83c7a"/><circle cx="624.1" cy="152.82" r="0.36" style="fill:#f83c7a"/><circle cx="627.61" cy="169.93" r="0.36" style="fill:#f83c7a"/><circle cx="627.03" cy="184.48" r="0.36" style="fill:#f83c7a"/><circle cx="615.46" cy="178.9" r="0.36" style="fill:#f83c7a"/><circle cx="641.39" cy="133.03" r="0.36" style="fill:#f83c7a"/><circle cx="644.58" cy="183.89" r="0.36" style="fill:#f83c7a"/><circle cx="665.33" cy="176.37" r="0.36" style="fill:#f83c7a"/><circle cx="652.5" cy="163.07" r="0.36" style="fill:#f83c7a"/><circle cx="665.33" cy="147.07" r="0.36" style="fill:#f83c7a"/><circle cx="665.33" cy="129.88" r="0.36" style="fill:#f83c7a"/><path d="M619.5,184.48a.58.58,0,0,1-.41-1l47.09-47.09a.58.58,0,0,1,.82.82l-47.09,47.09A.58.58,0,0,1,619.5,184.48Z" style="fill:url(#New_Gradient_Swatch_2-16)"/><path d="M619.5,184.45a.56.56,0,1,1,.2,0A.55.55,0,0,1,619.5,184.45Z" style="fill:#f83c7a"/><path d="M619.5,183.37h0a.53.53,0,1,1-.19,0,.53.53,0,0,1,.19,0m0-.06a.59.59,0,1,0,.55.37.59.59,0,0,0-.55-.37Z" style="fill:#f83c7a"/><path d="M615,168.81a.58.58,0,0,1-.41-1l43.67-43.63a.58.58,0,0,1,.82.82l-43.67,43.63A.58.58,0,0,1,615,168.81Z" style="fill:url(#New_Gradient_Swatch_2-17)"/><path d="M615,168.78a.56.56,0,1,1,.2,0A.55.55,0,0,1,615,168.78Z" style="fill:#f83c7a"/><path d="M615,167.7h0a.53.53,0,1,1-.19,0,.53.53,0,0,1,.19,0m0-.06a.59.59,0,1,0,.55.37.59.59,0,0,0-.55-.37Z" style="fill:#f83c7a"/><path d="M626.56,194.4a.23.23,0,0,1-.16-.4l45.78-45.78a.23.23,0,0,1,.33.33l-45.78,45.78A.23.23,0,0,1,626.56,194.4Z" style="fill:url(#New_Gradient_Swatch_2-18)"/><circle cx="626.53" cy="194.19" r="0.23" style="fill:#f83c7a"/><path d="M619.21,172.79a.23.23,0,0,1-.16-.4l20.2-20.2a.23.23,0,1,1,.33.33l-20.2,20.2A.23.23,0,0,1,619.21,172.79Z" style="fill:url(#New_Gradient_Swatch_2-19)"/><circle cx="619.21" cy="172.56" r="0.23" style="fill:#f83c7a"/><circle cx="1103.6" cy="669.69" r="0.5" transform="translate(412.17 1759.8) rotate(-88.86)" style="fill:#f83c7a"/><path d="M314.16,841.89a38.36,38.36,0,1,1,76.71,0" style="fill:url(#New_Gradient_Swatch_6-2)"/><circle cx="1137.05" cy="110.59" r="3.89" style="fill:#f83c7a"/></svg>