<svg xmlns="http://www.w3.org/2000/svg" xmlns:xlink="http://www.w3.org/1999/xlink" viewBox="0 0 93.3 93.07"><defs><linearGradient id="New_Gradient_Swatch" x1="-540.66" y1="-1620.96" x2="-447.36" y2="-1620.96" gradientTransform="translate(540.66 1667.5)" gradientUnits="userSpaceOnUse"><stop offset="0" stop-color="#ff512f"/><stop offset="1" stop-color="#dd2476"/></linearGradient></defs><title>comet</title><g id="Layer_2" data-name="Layer 2"><g id="Layer_1-2" data-name="Layer 1"><path d="M63.07,91.74a.67.67,0,1,1-.67.67A.67.67,0,0,1,63.07,91.74Zm3.08-3.37a.76.76,0,1,0,.76-.76A.76.76,0,0,0,66.14,88.37Zm4.79-3a.81.81,0,1,0,.81-.81A.81.81,0,0,0,70.93,85.33Zm-7-15a.7.7,0,1,0,.7-.7A.7.7,0,0,0,63.94,70.35Zm16.58,8.89a.85.85,0,1,0,.85-.85A.85.85,0,0,0,80.52,79.25ZM76,66.7a.74.74,0,1,0,.74-.74A.74.74,0,0,0,76,66.7Zm4-5.38a.7.7,0,1,0,.7-.7A.7.7,0,0,0,80,61.32Zm12,1.91a.67.67,0,1,0,.67-.67A.67.67,0,0,0,92,63.22ZM4.79,35.07,6.2,36.48a21.53,21.53,0,0,1-1.6-1.82A.66.66,0,0,0,4.79,35.07Zm57.8,57.8a.67.67,0,1,0,.94-.94L12.47,40.87a21.46,21.46,0,0,1-6.13-4.24ZM0,22.41c0-.11,0-.23,0-.34A.76.76,0,0,0,0,22.41ZM20.26,42.8,66.36,88.9a.76.76,0,1,0,1.08-1.08l-45-45-1,0C21,42.83,20.64,42.82,20.26,42.8Zm50.9,43.1a.81.81,0,1,0,1.14-1.14L29,41.44q-.84.32-1.72.57ZM.88,15.35q.09-.3.19-.6A.8.8,0,0,0,.88,15.35ZM64.14,70.84a.7.7,0,1,0,1-1L34,38.73q-.57.42-1.17.8ZM3.65,9.37a.69.69,0,0,0-.19.38l.31-.47ZM81,80.09a1,1,0,0,0,.94-.25.84.84,0,0,0,0-1.19L38.12,34.81q-.53.66-1.11,1.28Zm-68.91-78,0,0,.51-.23A.73.73,0,0,0,12.11,2.11Zm64.06,65.1a.74.74,0,1,0,1-1L41,30q-.31.72-.68,1.41Zm4-5.41a.7.7,0,1,0,1-1L42.8,22.47c0,.61-.09,1.21-.17,1.8Zm12.93.95L35.29,4.94a.66.66,0,0,0-.43-.19,21.49,21.49,0,0,1,6,7.6L92.15,63.69a.67.67,0,1,0,.94-.94Zm-58.23-58A21.4,21.4,0,0,0,12.6,1.9l-.51.23A21.5,21.5,0,0,0,3.78,9.28l-.31.47a21.32,21.32,0,0,0-2.4,5q-.1.3-.19.6A21.41,21.41,0,0,0,0,21.41c0,.22,0,.44,0,.66s0,.23,0,.34A21.31,21.31,0,0,0,4.6,34.66a21.53,21.53,0,0,0,1.6,1.82l.15.15A21.4,21.4,0,0,0,20.26,42.8c.38,0,.77,0,1.16,0l1,0A21.36,21.36,0,0,0,27.28,42q.87-.25,1.72-.57a21.33,21.33,0,0,0,3.84-1.91q.6-.38,1.17-.8a21.52,21.52,0,0,0,3-2.65q.58-.62,1.11-1.28a21.44,21.44,0,0,0,2.24-3.4q.36-.69.68-1.41a21.26,21.26,0,0,0,1.6-5.73c.08-.59.14-1.19.17-1.8,0-.35,0-.7,0-1.05a21.39,21.39,0,0,0-8-16.66Z" style="fill:url(#New_Gradient_Swatch)"/></g></g></svg>