<svg xmlns="http://www.w3.org/2000/svg" viewBox="0 0 181.14 31.35"><title>logo-letter</title><g id="Layer_2" data-name="Layer 2"><g id="Layer_1-2" data-name="Layer 1"><g id="Layer_2-2" data-name="Layer 2"><g id="Layer_1-2-2" data-name="Layer 1-2"><path d="M10.82,31h2c1,0,1.49-.89,1.32-2.23L11,2C10.82.74,10.33.31,9.57.31h-5C3.86.31,3.37.74,3.24,2L0,28.88c-.16,1.27.33,2.23,1.32,2.23h2c.62,0,1.25-.33,1.36-1.54l.4-4.24h4l.4,4.24C9.57,30.71,10.2,31,10.82,31ZM6,15.61,6.92,4.46h.33l.94,11.15.42,4.91H5.54ZM17.15.25c-.85,0-1.36.65-1.36,1.74V29.3c0,1.09.49,1.74,1.36,1.74h2.23c.87,0,1.36-.65,1.36-1.74V18.15h3.52c.85,0,1.36-.65,1.36-1.74V15.05c0-1.09-.49-1.74-1.36-1.74H20.7V5.06h4.79c.85,0,1.36-.65,1.36-1.74V2.05C26.85,1,26.36.31,25.49.31ZM41.39,12.53V7.07c0-4.62-2.23-6.69-6.53-6.69h-5.2c-.85,0-1.36.65-1.36,1.74V29.3c0,1.09.49,1.74,1.36,1.74h2.23c.87,0,1.36-.65,1.36-1.74v-10h1L37.18,29.9A1.34,1.34,0,0,0,38.49,31h2.23c1.36,0,1.52-1.61,1.25-2.5L39,18.29A6.36,6.36,0,0,0,41.39,12.53Zm-8.18,2V5.06h1.65c1.09,0,1.65.85,1.65,2v5.49c0,1.14-.56,2-1.65,2ZM50.56,0C46.3,0,44,2.23,44,6.69V24.53c0,4.62,2.23,6.69,6.53,6.69s6.53-2.23,6.53-6.69V6.85C57.11,2.23,54.82,0,50.56,0Zm0,4.75c1.09,0,1.65.85,1.65,2V24.53c0,1.14-.56,2-1.65,2s-1.65-.85-1.65-2V6.85c0-1.14.58-2,1.65-2Zm20.2,0c.85,0,1.36-.65,1.36-1.74V2c0-1.09-.49-1.74-1.36-1.74H59.61c-.85,0-1.36.65-1.36,1.74V3.23c0,1.09.49,1.74,1.36,1.74h3.14V29.19c0,1.09.49,1.74,1.36,1.74h2.23c.87,0,1.36-.65,1.36-1.74V5ZM74.82.22C74,.22,73.46.87,73.46,2V29.19c0,1.09.49,1.74,1.36,1.74h8.32c.85,0,1.36-.65,1.36-1.74V27.92c0-1.09-.49-1.74-1.36-1.74H78.34V17.84h3.52c.85,0,1.36-.65,1.36-1.74V14.94c0-1.09-.49-1.74-1.36-1.74H78.34V5h4.79C84,5,84.5,4.33,84.5,3.23V2C84.5.87,84,.22,83.14.22Zm24.4,6.47C99.21,2.07,97,0,92.68,0s-6.53,2.23-6.53,6.69V24.33c0,4.62,2.23,6.69,6.53,6.69s6.53-2.23,6.53-6.69V20.07c0-1.09-.49-1.74-1.36-1.74H95.62c-.85,0-1.36.65-1.36,1.74v4.28c0,1.14-.56,2-1.65,2s-1.65-.85-1.65-2V6.69c0-1.14.56-2,1.65-2s1.65.85,1.65,2V11c0,1.09.49,1.74,1.36,1.74h2.23c.85,0,1.36-.65,1.36-1.74ZM106.73,2c0-1.09-.49-1.74-1.36-1.74h-2.23c-.85,0-1.36.65-1.36,1.74V29.19c0,1.09.49,1.74,1.36,1.74h2.23c.87,0,1.36-.65,1.36-1.74V17.84H110V29c0,1.09.49,1.74,1.36,1.74h2.23c.85,0,1.36-.65,1.36-1.74V2c0-1.09-.49-1.74-1.36-1.74h-2.23C110.54.22,110,.87,110,2V13.11h-3.3Zm24.22,29a1.2,1.2,0,0,0,1.11-1.2V16.39h6.09a1.11,1.11,0,1,0,0-2.23h-6.09V2.92h6.38a1.09,1.09,0,0,0,1-1.11,1,1,0,0,0-1-1.07h-7.38A1.14,1.14,0,0,0,129.85,2V29.61a1.16,1.16,0,0,0,1.09,1.23h0Zm14.25-.13h7.36a1,1,0,0,0,1-1.07,1.09,1.09,0,0,0-1-1.11h-6.38V16.39h6.09a1.11,1.11,0,1,0,0-2.23h-6.09V2.92h6.38a1.09,1.09,0,0,0,1-1.11,1,1,0,0,0-1-1.09h-7.36A1.14,1.14,0,0,0,144,2V29.39a1.14,1.14,0,0,0,1.2,1.32Zm11.73-1.45a6.8,6.8,0,0,0,4.77,2c3.68,0,6.09-3.23,6.09-7.51A13,13,0,0,0,163,14.12a9.86,9.86,0,0,1-3.75-7c0-2.92,1.65-4.73,3.57-4.73a3.92,3.92,0,0,1,2.65,1,.89.89,0,0,0,.58.18,1,1,0,0,0,1-1.07,1.07,1.07,0,0,0-.42-.89A5.86,5.86,0,0,0,162.81.22c-3.19,0-5.75,2.79-5.75,7a11.8,11.8,0,0,0,4.46,8.92,10.48,10.48,0,0,1,4.06,7.78c0,3.19-1.78,5.22-3.92,5.22a4.91,4.91,0,0,1-3.34-1.58.8.8,0,0,0-.67-.22,1.07,1.07,0,0,0-1,1.11h0a1.11,1.11,0,0,0,.29.83ZM175.43,31a1.2,1.2,0,0,0,1.11-1.2V3h3.57a1.14,1.14,0,0,0,1-1.11,1.09,1.09,0,0,0-1-1.07h-9.37a1,1,0,0,0-1,1.07,1.09,1.09,0,0,0,1,1.11h3.57V29.75a1.2,1.2,0,0,0,1.11,1.09Z" style="fill:#fff"/></g></g></g></g></svg>