<svg xmlns="http://www.w3.org/2000/svg" viewBox="0 0 106.63 18.46"><title>logo-letter-small</title><g id="Layer_2" data-name="Layer 2"><g id="Layer_1-2" data-name="Layer 1"><g id="Layer_2-2" data-name="Layer 2"><g id="Layer_1-2-2" data-name="Layer 1-2"><path d="M6.37,18.27H7.54c.58,0,.88-.53.77-1.31L6.45,1.17c-.08-.74-.37-1-.81-1H2.72c-.45,0-.74.25-.81,1L0,17c-.09.75.2,1.31.77,1.31H2c.37,0,.74-.2.8-.91L3,14.91H5.35l.24,2.49C5.63,18.08,6,18.27,6.37,18.27ZM3.53,9.19l.54-6.56h.2l.55,6.56.25,2.89H3.26Zm6.56-9c-.5,0-.8.38-.8,1V17.25c0,.64.29,1,.8,1h1.31c.51,0,.8-.38.8-1V10.68h2.07c.5,0,.8-.38.8-1v-.8c0-.64-.29-1-.8-1h-2.1V3H15c.5,0,.8-.38.8-1V1.21c0-.64-.29-1-.8-1ZM24.37,7.38V4.16c0-2.72-1.31-3.94-3.85-3.94H17.46c-.5,0-.8.38-.8,1v16c0,.64.29,1,.8,1h1.31c.51,0,.8-.38.8-1V11.35h.58l1.73,6.25a.79.79,0,0,0,.77.67H24c.8,0,.89-.95.74-1.47l-1.77-6A3.74,3.74,0,0,0,24.37,7.38ZM19.55,8.55V3h1c.64,0,1,.5,1,1.17V7.38c0,.67-.33,1.17-1,1.17ZM29.76,0c-2.51,0-3.85,1.31-3.85,3.94v10.5c0,2.72,1.31,3.94,3.85,3.94s3.85-1.31,3.85-3.94V4C33.62,1.31,32.27,0,29.76,0Zm0,2.8c.64,0,1,.5,1,1.17V14.44c0,.67-.33,1.17-1,1.17s-1-.5-1-1.17V4c0-.67.34-1.17,1-1.17Zm11.89,0c.5,0,.8-.38.8-1V1.16c0-.64-.29-1-.8-1H35.09c-.5,0-.8.38-.8,1V1.9c0,.64.29,1,.8,1h1.85V17.18c0,.64.29,1,.8,1h1.31c.51,0,.8-.38.8-1V2.93ZM44,.13c-.5,0-.8.38-.8,1v16c0,.64.29,1,.8,1h4.9c.5,0,.8-.38.8-1v-.75c0-.64-.29-1-.8-1H46.12V10.5h2.07c.5,0,.8-.38.8-1V8.79c0-.64-.29-1-.8-1H46.12V2.93h2.82c.5,0,.8-.38.8-1V1.16c0-.64-.29-1-.8-1ZM58.4,3.94C58.4,1.22,57.09,0,54.56,0s-3.85,1.31-3.85,3.94V14.32c0,2.72,1.31,3.94,3.85,3.94s3.85-1.31,3.85-3.94V11.81c0-.64-.29-1-.8-1H56.29c-.5,0-.8.38-.8,1v2.52c0,.67-.33,1.17-1,1.17s-1-.5-1-1.17V3.94c0-.67.33-1.17,1-1.17s1,.5,1,1.17V6.5c0,.64.29,1,.8,1H57.6c.5,0,.8-.38.8-1Zm4.42-2.78c0-.64-.29-1-.8-1H60.71c-.5,0-.8.38-.8,1v16c0,.64.29,1,.8,1H62c.51,0,.8-.38.8-1V10.5h1.94v6.56c0,.64.29,1,.8,1h1.31c.5,0,.8-.38.8-1V1.16c0-.64-.29-1-.8-1H65.57c-.5,0-.8.38-.8,1V7.72H62.83ZM77.08,18.22a.71.71,0,0,0,.66-.71V9.65h3.58a.66.66,0,1,0,0-1.31H77.74V1.72h3.75a.64.64,0,0,0,.59-.66.62.62,0,0,0-.59-.63H77.15a.67.67,0,0,0-.71.76V17.43a.68.68,0,0,0,.64.72h0Zm8.39-.08H89.8a.62.62,0,0,0,.59-.63.64.64,0,0,0-.59-.66H86V9.65h3.58a.66.66,0,1,0,0-1.31H86V1.72H89.8a.64.64,0,0,0,.59-.66A.62.62,0,0,0,89.8.42H85.47a.67.67,0,0,0-.71.76V17.3a.67.67,0,0,0,.55.77h.15Zm6.9-.85a4,4,0,0,0,2.81,1.17c2.17,0,3.58-1.9,3.58-4.42A7.63,7.63,0,0,0,96,8.31,5.8,5.8,0,0,1,93.75,4.2c0-1.72,1-2.78,2.1-2.78A2.31,2.31,0,0,1,97.41,2a.53.53,0,0,0,.34.11.62.62,0,0,0,.59-.63A.63.63,0,0,0,98.1.95,3.45,3.45,0,0,0,95.84.13c-1.88,0-3.39,1.64-3.39,4.11a6.94,6.94,0,0,0,2.63,5.25,6.17,6.17,0,0,1,2.39,4.58c0,1.88-1.05,3.07-2.31,3.07a2.89,2.89,0,0,1-2-.93.47.47,0,0,0-.39-.13.63.63,0,0,0-.6.66h0a.66.66,0,0,0,.17.49Zm10.89.93a.71.71,0,0,0,.66-.71V1.76H106a.67.67,0,0,0,.6-.66.64.64,0,0,0-.6-.63h-5.51a.62.62,0,0,0-.59.63.64.64,0,0,0,.59.66h2.1V17.51a.71.71,0,0,0,.66.64Z" style="fill:#fff"/></g></g></g></g></svg>