<svg width="45" height="auto" xmlns="http://www.w3.org/2000/svg" xmlns:xlink="http://www.w3.org/1999/xlink" id="Layer_1" data-name="Layer 1" viewBox="0 0 87.76 100">
    <defs>
        <linearGradient id="New_Gradient_Swatch" x1="5.11" x2="80.01" y1="50" y2="50" gradientUnits="userSpaceOnUse">
            <stop offset="0" stop-color="#ff512f"/>
            <stop offset="1" stop-color="#dd2476"/>
        </linearGradient>
    </defs>
    <title>
        marker
    </title>
    <path d="M42.61,0C22,0,5.31,16.9,5.11,37.8A37.48,37.48,0,0,0,11,57.7l28.7,40.1a3.53,3.53,0,0,0,2.9,2.2h0c1.1,0,2.1-.7,2.9-2.2l28.6-40.1A36.88,36.88,0,0,0,80,37.8C79.91,16.9,63.21,0,42.61,0Zm0,53.9A16.4,16.4,0,1,1,59,37.5,16.35,16.35,0,0,1,42.61,53.9Z" style="fill:url(#New_Gradient_Swatch)"/>
    <circle cx="10.71" cy="16" r="10.71" style="fill:#e0ed3a"/>
</svg>
