<svg width="30" height="auto" xmlns="http://www.w3.org/2000/svg" xmlns:xlink="http://www.w3.org/1999/xlink" id="Layer_1" data-name="Layer 1" viewBox="0 0 74.9 100">
    <defs>
        <linearGradient id="New_Gradient_Swatch_2" x2="74.9" y1="50" y2="50" gradientUnits="userSpaceOnUse">
            <stop offset="0" stop-color="#0ceaea"/>
            <stop offset="0.5" stop-color="#20e2b1"/>
            <stop offset="1" stop-color="#29ffc5"/>
        </linearGradient>
    </defs>
    <title>
        marker
    </title>
    <path d="M37.5,0C16.9,0,.2,16.9,0,37.8A37.48,37.48,0,0,0,5.9,57.7L34.6,97.8a3.53,3.53,0,0,0,2.9,2.2h0c1.1,0,2.1-.7,2.9-2.2L69,57.7a36.88,36.88,0,0,0,5.9-19.9C74.8,16.9,58.1,0,37.5,0Zm0,53.9A16.4,16.4,0,1,1,53.9,37.5,16.35,16.35,0,0,1,37.5,53.9Z" style="fill:url(#New_Gradient_Swatch_2)"/>
</svg>
