<?xml version="1.0" encoding="utf-8"?>
<!-- Generator: Adobe Illustrator 21.1.0, SVG Export Plug-In . SVG Version: 6.00 Build 0)  -->
<svg version="1.1" id="Layer_1" xmlns="http://www.w3.org/2000/svg" xmlns:xlink="http://www.w3.org/1999/xlink" x="0px" y="0px"
	 viewBox="0 0 426.6 44.1" style="enable-background:new 0 0 426.6 44.1;" xml:space="preserve">
<style type="text/css">
	.st0{fill:#061A25;}
	.st1{fill:url(#SVGID_1_);}
	.st2{fill:url(#SVGID_2_);}
</style>
<title>pattern-31</title>
<g id="Layer_2">
	<g id="Base">
		<path class="st0" d="M23.9,10.4H10.9v7h11.9v9.2H10.9V43H0V1.2h23.9V10.4z"/>
		<path class="st0" d="M28.5,22c-0.1-9,5.4-17.1,13.8-20.3c3-1.2,6.1-1.7,9.3-1.7c3.2,0,6.3,0.5,9.3,1.7c2.7,1.1,5.2,2.6,7.3,4.7
			c2,2,3.7,4.4,4.8,7c1.2,2.7,1.7,5.7,1.7,8.6c0,3-0.6,6-1.7,8.7c-1.1,2.6-2.7,5-4.8,7c-2.1,2-4.6,3.6-7.3,4.7
			c-3,1.2-6.1,1.7-9.3,1.7c-3.2,0-6.4-0.5-9.3-1.7C33.8,39.1,28.4,31,28.5,22z M39.8,22c0,1.6,0.3,3.2,0.9,4.6
			c1.2,2.8,3.5,5,6.3,6.1c4.4,1.8,9.4,0.8,12.8-2.4c1.1-1,2-2.3,2.6-3.7c0.6-1.4,1-3,0.9-4.6c0-1.6-0.3-3.2-0.9-4.6
			c-0.6-1.4-1.5-2.6-2.6-3.7c-1.1-1-2.4-1.9-3.8-2.4c-2.9-1.1-6.1-1.1-9,0c-2.8,1.1-5.1,3.3-6.3,6.1C40.2,18.9,39.8,20.4,39.8,22z"
			/>
		<path class="st0" d="M116.3,42.9h-13.5L92.4,26.9v16.1H81.6V1.2h16.9c2.1-0.1,4.1,0.3,6.1,1c3.2,1.2,5.7,3.7,6.8,6.9
			c0.6,1.6,0.9,3.3,0.9,5c0.1,2.8-0.7,5.5-2.3,7.7c-1.7,2.1-4.1,3.5-6.8,4L116.3,42.9z M92.4,19.8h2c1.7,0.1,3.5-0.4,4.9-1.3
			c1.2-0.9,1.8-2.3,1.7-3.8c0.1-1.5-0.6-2.9-1.7-3.8c-1.4-1-3.2-1.4-4.9-1.3h-2L92.4,19.8z"/>
		
			<linearGradient id="SVGID_1_" gradientUnits="userSpaceOnUse" x1="139.7" y1="23.9507" x2="213.832" y2="23.9507" gradientTransform="matrix(1 0 0 -1 0 46)">
			<stop  offset="0" style="stop-color:#FF512F"/>
			<stop  offset="1" style="stop-color:#DD2476"/>
		</linearGradient>
		<path class="st1" d="M150.6,1.2v22.7c0,1.2,0,2.5,0.1,3.7c0.1,1.2,0.4,2.4,0.8,3.5c0.5,1,1.2,1.9,2.2,2.5c1.3,0.7,2.7,1.1,4.2,1
			c1.5,0.1,2.9-0.3,4.2-1c1-0.6,1.7-1.5,2.2-2.5c0.5-1.1,0.8-2.3,0.9-3.5c0.1-1.3,0.1-2.5,0.1-3.7V1.2h10.8v24.2
			c0,6.5-1.5,11.2-4.5,14.2c-3,3-7.5,4.5-13.7,4.5c-6.2,0-10.7-1.5-13.7-4.5c-3-3-4.5-7.7-4.5-14.2V1.2H150.6z M207.8,11.8
			c-1.1-0.9-2.3-1.6-3.6-2.1C203.1,9.3,202,9,200.8,9c-1.2-0.1-2.4,0.3-3.4,1c-0.8,0.6-1.3,1.6-1.3,2.6c0,0.7,0.2,1.3,0.7,1.8
			c0.5,0.5,1.1,0.9,1.8,1.2c0.8,0.4,1.6,0.7,2.4,0.9c0.9,0.3,1.8,0.5,2.7,0.8c3.5,1.2,6.1,2.8,7.8,4.7c1.7,2.2,2.6,4.9,2.5,7.7
			c0,2-0.3,4-1.1,5.8c-0.7,1.7-1.8,3.2-3.2,4.5c-1.5,1.3-3.2,2.3-5.1,2.9c-2.2,0.7-4.5,1-6.8,1c-5.2,0-10.4-1.6-14.6-4.7l4.6-8.8
			c1.4,1.3,3.1,2.4,4.8,3.2c1.5,0.7,3.1,1,4.7,1c1.4,0.1,2.9-0.3,4-1.2c1.3-1.1,1.7-2.9,1-4.4c-0.3-0.5-0.7-1-1.2-1.3
			c-0.6-0.4-1.3-0.8-2-1.1c-0.8-0.3-1.8-0.7-3-1.1c-1.4-0.4-2.8-0.9-4.1-1.5c-1.3-0.5-2.5-1.2-3.6-2.1c-1.1-0.9-2-2.1-2.6-3.4
			c-0.7-1.6-1.1-3.4-1-5.1c0-1.9,0.3-3.8,1-5.6c0.6-1.6,1.6-3.1,2.9-4.3c1.3-1.2,2.8-2.2,4.5-2.8c1.9-0.7,4-1,6-1
			c2.2,0,4.4,0.3,6.5,0.9c2.3,0.6,4.4,1.4,6.5,2.5L207.8,11.8z"/>
		<path class="st0" d="M239.5,1.2h16.2c3.8,0,6.8,0.9,8.8,2.8s3,4.5,3,8c0.1,1.8-0.3,3.6-1.1,5.2c-0.8,1.5-2,2.7-3.5,3.5
			c1.4,0.2,2.7,0.7,4,1.4c1,0.6,1.9,1.3,2.7,2.2c0.7,0.9,1.2,1.9,1.5,3c0.3,1.2,0.4,2.3,0.4,3.5c0,1.8-0.3,3.6-1,5.2
			c-0.7,1.5-1.6,2.8-2.9,3.8c-1.3,1.1-2.9,1.9-4.5,2.3c-2,0.5-4,0.8-6,0.8h-17.5V1.2z M250.3,17.6h2c3.4,0,5.1-1.3,5.1-4
			s-1.7-4-5.1-4h-2L250.3,17.6z M250.3,34.6h2.4c2.7,0,4.7-0.4,5.9-1c1.2-0.7,1.9-2,1.8-3.4c0.1-1.4-0.6-2.7-1.8-3.4
			c-1.2-0.7-3.1-1-5.9-1h-2.4L250.3,34.6z"/>
		<path class="st0" d="M285.4,22.9L270.2,1.2h13l7.8,11.4l7.7-11.4h13l-15.4,21.7v20.1h-10.9V22.9z"/>
		<linearGradient id="SVGID_2_" gradientUnits="userSpaceOnUse" x1="334.14" y1="22.0493" x2="426.64" y2="22.0493">
			<stop  offset="0" style="stop-color:#E0ED3A"/>
			<stop  offset="1" style="stop-color:#4FF0D6"/>
		</linearGradient>
		<path class="st2" d="M345,1.2v22.7c0,1.2,0,2.5,0.1,3.7c0.1,1.2,0.4,2.4,0.8,3.5c0.5,1,1.2,1.9,2.2,2.5c1.3,0.7,2.7,1.1,4.2,1
			c1.5,0.1,2.9-0.3,4.2-1c1-0.6,1.7-1.5,2.2-2.5c0.5-1.1,0.8-2.3,0.9-3.5c0.1-1.3,0.1-2.5,0.1-3.7V1.2h10.8v24.2
			c0,6.5-1.5,11.2-4.5,14.2s-7.5,4.5-13.7,4.5c-6.2,0-10.7-1.5-13.7-4.5s-4.5-7.7-4.5-14.2V1.2H345z M402.2,11.8
			c-1.1-0.9-2.3-1.6-3.5-2.1c-1.1-0.4-2.2-0.7-3.4-0.7c-1.2-0.1-2.4,0.3-3.4,1c-0.8,0.6-1.3,1.6-1.3,2.6c0,0.7,0.2,1.3,0.7,1.8
			c0.5,0.5,1.1,0.9,1.8,1.2c0.8,0.4,1.6,0.7,2.4,0.9c0.9,0.3,1.8,0.5,2.7,0.8c3.5,1.2,6.1,2.8,7.8,4.7c1.7,2.2,2.6,4.9,2.5,7.7
			c0,2-0.3,4-1.1,5.8c-0.7,1.7-1.8,3.2-3.2,4.5c-1.5,1.3-3.2,2.3-5.1,2.9c-2.2,0.7-4.5,1-6.8,1c-5.3,0-10.4-1.6-14.7-4.7l4.6-8.8
			c1.4,1.3,3.1,2.4,4.8,3.2c1.5,0.7,3.1,1,4.7,1c1.4,0.1,2.9-0.3,4-1.2c1.3-1.1,1.7-2.9,1-4.4c-0.3-0.5-0.7-0.9-1.2-1.2
			c-0.6-0.4-1.3-0.8-2-1.1c-0.8-0.3-1.8-0.7-3-1.1c-1.4-0.4-2.8-0.9-4.1-1.5c-1.3-0.5-2.5-1.2-3.6-2.1c-1.1-0.9-2-2.1-2.5-3.4
			c-0.7-1.6-1.1-3.4-1-5.1c0-1.9,0.3-3.8,1-5.6c0.6-1.6,1.6-3.1,2.9-4.3c1.3-1.2,2.9-2.2,4.6-2.8c1.9-0.7,4-1,6-1
			c2.2,0,4.4,0.3,6.5,0.9c2.3,0.6,4.4,1.4,6.5,2.5L402.2,11.8z M413.7,37.6c0-1.7,0.7-3.4,1.9-4.6c0.6-0.6,1.3-1.1,2.1-1.4
			c3.3-1.4,7.1,0.2,8.5,3.5c0.7,1.6,0.7,3.4,0,5c-0.6,1.6-1.9,2.8-3.5,3.5c-1.6,0.7-3.4,0.7-5,0c-1.6-0.6-2.8-1.9-3.5-3.5
			C413.9,39.3,413.7,38.5,413.7,37.6z"/>
	</g>
</g>
</svg>
