<svg id="Layer_1" data-name="Layer 1" xmlns="http://www.w3.org/2000/svg" viewBox="0 0 187 32.29"><title>site-logo</title><g id="Layer_2" data-name="Layer 2"><g id="Layer_1-2" data-name="Layer 1-2"><path d="M11.17,32h2c1,0,1.53-.9,1.36-2.23L11.31,2C11.17.77,10.66.33,9.9.33H4.77C4,.33,3.48.77,3.33,2L0,29.8C-.14,31.11.37,32,1.4,32H3.48c.65,0,1.29-.35,1.4-1.58l.41-4.38H9.38l.39,4.41C9.9,31.68,10.53,32,11.17,32Zm-5-15.9,1-11.66h.34l1,11.66.44,5H5.72ZM17.72.33c-.9,0-1.4.65-1.4,1.79V30.24c0,1.14.51,1.79,1.4,1.79H20c.9,0,1.4-.65,1.4-1.79V18.64H25c.9,0,1.4-.65,1.4-1.79V15.52c0-1.14-.51-1.79-1.4-1.79H21.37V5.24h4.94c.9,0,1.4-.65,1.4-1.79V2.13C27.71,1,27.2.33,26.31.33Zm25,12.61V7.29c0-4.77-2.34-7-6.74-7H30.6c-.9,0-1.4.65-1.4,1.79V30.24c0,1.14.51,1.79,1.4,1.79h2.25c.9,0,1.4-.65,1.4-1.79V19.91h1l3,11A1.37,1.37,0,0,0,39.67,32H42c1.4,0,1.57-1.67,1.29-2.58L40.25,18.83C41.88,17.77,42.73,15.84,42.73,12.94ZM34.28,15V5.24H36c1.12,0,1.7.9,1.7,2.06v5.65c0,1.18-.58,2.05-1.7,2.05ZM52.22.11c-4.39,0-6.74,2.19-6.74,7V25.29c0,4.77,2.35,7,6.74,7s6.74-2.19,6.74-7V7.08c0-4.77-2.36-7-6.76-7Zm0,4.91c1.12,0,1.7.9,1.7,2.05V25.29c0,1.18-.58,2.06-1.7,2.06s-1.7-.9-1.7-2.06V7.08C50.5,5.89,51.08,5,52.2,5ZM74,5.12c.9,0,1.4-.65,1.4-1.79V2C75.38.88,74.87.22,74,.22H62.45c-.9,0-1.4.65-1.4,1.79V3.33c0,1.14.51,1.79,1.4,1.79h3.24v25c0,1.14.51,1.79,1.4,1.79h2.25c.9,0,1.4-.65,1.4-1.79v-25ZM78.13.22c-.9,0-1.4.65-1.4,1.79V30.13c0,1.14.51,1.79,1.4,1.79h8.58c.9,0,1.4-.65,1.4-1.79V28.81c0-1.14-.51-1.79-1.4-1.79H81.77V18.53h3.65c.9,0,1.4-.65,1.4-1.79V15.42c0-1.14-.51-1.79-1.4-1.79H81.77V5.12h4.94c.9,0,1.4-.65,1.4-1.79V2c0-1.14-.51-1.79-1.4-1.79ZM103.31,7c0-4.77-2.35-7-6.74-7s-6.74,2.19-6.74,7V25.18c0,4.77,2.35,7,6.74,7s6.74-2.19,6.74-7V20.76c0-1.14-.51-1.79-1.4-1.79H99.66c-.9,0-1.4.65-1.4,1.79v4.42c0,1.18-.58,2.06-1.7,2.06s-1.7-.9-1.7-2.06V7c0-1.18.58-2.05,1.7-2.05s1.7.9,1.7,2.05v4.43c0,1.14.51,1.79,1.4,1.79h2.25c.9,0,1.4-.65,1.4-1.79Zm7.78-5c0-1.14-.51-1.79-1.4-1.79h-2.25c-.9,0-1.4.65-1.4,1.79V30.13c0,1.14.51,1.79,1.4,1.79h2.25c.9,0,1.4-.65,1.4-1.79V18.53h3.41v11.6c0,1.14.51,1.79,1.4,1.79h2.25c.9,0,1.4-.65,1.4-1.79V2c0-1.14-.51-1.79-1.4-1.79h-2.25c-.9,0-1.4.65-1.4,1.79v11.6h-3.41Zm24.1,29.81a1.23,1.23,0,0,0,1.16-1.26V16.93h6.28a1.12,1.12,0,0,0,0-2.22h-6.28V3h6.58a1.13,1.13,0,0,0,1-1.16,1.09,1.09,0,0,0-1-1.16H135.3a1.17,1.17,0,0,0-1.24,1.35V30.57a1.19,1.19,0,0,0,1.11,1.26Zm14.71-.13h7.61a1.09,1.09,0,0,0,1-1.11,1.13,1.13,0,0,0-1-1.16h-6.58V16.93h6.28a1.12,1.12,0,0,0,0-2.22h-6.28V3h6.58a1.13,1.13,0,0,0,1-1.16,1.09,1.09,0,0,0-1-1.16h-7.64a1.17,1.17,0,0,0-1.24,1.35V30.34a1.17,1.17,0,0,0,1,1.34h.27ZM162,30.2a7,7,0,0,0,4.91,2.09c3.8,0,6.28-3.35,6.28-7.75,0-5-2.56-7.61-4.91-10-2-2.09-3.85-4-3.85-7.1s1.71-4.87,3.68-4.87a4.05,4.05,0,0,1,2.74,1,.9.9,0,0,0,.6.19,1.09,1.09,0,0,0,1-1.11,1.11,1.11,0,0,0-.43-.9,6,6,0,0,0-4-1.43c-3.29,0-5.95,2.88-5.95,7.17,0,4.48,2.35,6.87,4.57,9.15s4.19,4.27,4.19,8.07c0,3.29-1.84,5.38-4.06,5.38a5.07,5.07,0,0,1-3.46-1.62.83.83,0,0,0-.68-.23,1.1,1.1,0,0,0-1.07,1.14v0a1.15,1.15,0,0,0,.39.83Zm19.11,1.62a1.23,1.23,0,0,0,1.16-1.26V3h3.68A1.17,1.17,0,0,0,187,1.85,1.12,1.12,0,0,0,185.92.74h-9.66a1.09,1.09,0,0,0-1,1.11,1.13,1.13,0,0,0,1,1.16h3.68V30.57a1.23,1.23,0,0,0,1.16,1.26Z" style="fill:#fff"/></g></g></svg>