<svg xmlns="http://www.w3.org/2000/svg" viewBox="0 0 250 250"><title>atf-logo-black</title><g style="isolation:isolate"><g id="Layer_1" data-name="Layer 1"><path d="M77.92,219H21.33C8.54,219,.55,206.08,7,195.75L33,153.62A93.68,93.68,0,0,0,77.92,219ZM150.46,48.06,138.75,29.13c-6.39-10.33-22.36-10.33-28.76,0L97.85,48.77a94.23,94.23,0,0,1,52.61-.71ZM241.8,195.75l-24.51-39.63A93.71,93.71,0,0,1,172.83,219h54.59C240.21,219,248.19,206.08,241.8,195.75Zm-24.51-39.63A93.68,93.68,0,0,0,150.46,48.06l12.39,20Zm-60.57,60.46c-1.32-15.6-15.3-27.87-32.35-27.87a34.36,34.36,0,0,0-10.27,1.56c-12.1,3.76-21,14-22.07,26.31A2.74,2.74,0,0,1,89.24,219H77.92a93.67,93.67,0,0,0,94.91,0H159.51A2.74,2.74,0,0,1,156.72,216.58Zm-70.53-149L97.85,48.77A93.76,93.76,0,0,0,33,153.62l15.32-24.76ZM102,104.77h2.28c1.14,0,1.71-1,1.52-2.49l-3.65-31c-.15-1.42-.72-1.91-1.6-1.91H94.8c-.87,0-1.44.49-1.59,1.91l-3.65,31c-.19,1.46.38,2.49,1.52,2.49h2.28c.72,0,1.44-.39,1.56-1.76l.45-4.88h4.56l.46,4.88C100.5,104.38,101.22,104.77,102,104.77ZM96.4,87.09l1.06-13h.38l1.07,13,.49,5.57H95.87Zm12.84-17.68c-1,0-1.55.73-1.55,2v31.36c0,1.27.57,2,1.55,2h2.51c1,0,1.56-.73,1.56-2V89.83h4.06c1,0,1.56-.74,1.56-2V86.36c0-1.27-.57-2-1.56-2h-4.06V74.88h5.51c1,0,1.56-.73,1.56-2V71.41c0-1.27-.57-2-1.56-2Zm27.89,14.07v-6.3c0-5.33-2.62-7.77-7.52-7.77h-6c-1,0-1.56.73-1.56,2v31.36c0,1.27.57,2,1.56,2h2.5c1,0,1.56-.73,1.56-2V91.24h1.14l3.38,12.21a1.54,1.54,0,0,0,1.52,1.32h2.62c1.56,0,1.75-1.86,1.45-2.88l-3.46-11.82C136.18,88.85,137.13,86.7,137.13,83.48Zm-9.42,2.29V74.88h1.9c1.25,0,1.9,1,1.9,2.3v6.3c0,1.32-.65,2.29-1.9,2.29Zm20-16.6c-4.9,0-7.52,2.44-7.52,7.76V97.25c0,5.32,2.62,7.76,7.52,7.76s7.52-2.44,7.52-7.76V76.93C155.22,71.61,152.6,69.17,147.7,69.17Zm0,5.47c1.25,0,1.9,1,1.9,2.29V97.25c0,1.32-.65,2.29-1.9,2.29s-1.9-1-1.9-2.29V76.93C145.8,75.61,146.44,74.64,147.7,74.64ZM104,113.76c1,0,1.56-.73,1.56-2v-1.47c0-1.27-.57-2-1.56-2H91.12c-1,0-1.56.73-1.56,2v1.47c0,1.27.57,2,1.56,2h3.61v27.88c0,1.27.57,2,1.56,2H98.8c1,0,1.55-.73,1.55-2V113.76Zm4.64-5.47c-1,0-1.56.73-1.56,2v31.35c0,1.27.57,2,1.56,2h9.58c1,0,1.55-.73,1.55-2v-1.46c0-1.27-.57-2-1.55-2h-5.51V128.7h4.06c1,0,1.56-.73,1.56-2v-1.47c0-1.27-.57-2-1.56-2h-4.06v-9.47h5.51c1,0,1.55-.73,1.55-2v-1.47c0-1.27-.57-2-1.55-2Zm28.08,7.52c0-5.32-2.62-7.77-7.52-7.77s-7.53,2.45-7.53,7.77v20.31c0,5.33,2.63,7.77,7.53,7.77s7.52-2.44,7.52-7.77v-4.93c0-1.27-.57-2-1.56-2h-2.5c-1,0-1.56.73-1.56,2v4.93c0,1.32-.65,2.3-1.9,2.3s-1.9-1-1.9-2.3V115.81c0-1.32.64-2.3,1.9-2.3s1.9,1,1.9,2.3v4.93c0,1.27.57,2,1.56,2h2.5c1,0,1.56-.73,1.56-2Zm8.67-5.52c0-1.27-.57-2-1.56-2h-2.51c-1,0-1.56.73-1.56,2v31.35c0,1.27.57,2,1.56,2h2.51c1,0,1.56-.73,1.56-2V128.7h3.8v12.94c0,1.27.57,2,1.55,2h2.51c1,0,1.56-.73,1.56-2V110.29c0-1.27-.57-2-1.56-2H150.7c-1,0-1.55.73-1.55,2v12.94h-3.8ZM96.22,182a1.32,1.32,0,0,0,1.3-1.3V166.57h7a1.15,1.15,0,1,0,0-2.3h-7v-12.1h7.39a1.21,1.21,0,0,0,1.15-1.2,1.17,1.17,0,0,0-1.15-1.15H96.36A1.26,1.26,0,0,0,95,151.21v29.47A1.28,1.28,0,0,0,96.22,182Zm16.51-.14h8.55a1.17,1.17,0,0,0,1.15-1.16,1.21,1.21,0,0,0-1.15-1.2h-7.4V166.57h7.06a1.15,1.15,0,1,0,0-2.3h-7.06v-12.1h7.4a1.21,1.21,0,0,0,1.15-1.2,1.17,1.17,0,0,0-1.15-1.15h-8.55a1.26,1.26,0,0,0-1.39,1.39v29.23A1.27,1.27,0,0,0,112.73,181.84Zm13.58-1.54a8.27,8.27,0,0,0,5.52,2.11c4.28,0,7.06-3.45,7.06-8,0-5.14-2.88-7.88-5.52-10.37-2.26-2.16-4.32-4.18-4.32-7.35s1.92-5,4.13-5a4.78,4.78,0,0,1,3.07,1.06,1.12,1.12,0,0,0,.67.19,1.17,1.17,0,0,0,1.16-1.15,1.14,1.14,0,0,0-.48-1,7.16,7.16,0,0,0-4.47-1.49c-3.7,0-6.67,3-6.67,7.44,0,4.66,2.64,7.11,5.13,9.46s4.71,4.41,4.71,8.3c0,3.41-2.07,5.57-4.56,5.57a5.87,5.87,0,0,1-3.89-1.68,1,1,0,0,0-.77-.24,1.19,1.19,0,0,0-1.2,1.2A1.17,1.17,0,0,0,126.31,180.3ZM147.77,182a1.32,1.32,0,0,0,1.3-1.3V152.17h4.13a1.25,1.25,0,0,0,1.2-1.2,1.21,1.21,0,0,0-1.2-1.15H142.35a1.17,1.17,0,0,0-1.16,1.15,1.21,1.21,0,0,0,1.16,1.2h4.12v28.51A1.32,1.32,0,0,0,147.77,182Z" style="fill:#061a25;mix-blend-mode:multiply"/></g></g></svg>