<svg width="100%" height="100%" xmlns="http://www.w3.org/2000/svg" viewBox="0 0 314.9 214.87">
    <title>
        pattern-36
    </title>
    <g id="Layer_2" data-name="Layer 2">
        <g id="Base">
            <path d="M250.1,134.85a2.2,2.2,0,0,0,2.14-2.33,2.3,2.3,0,0,0-2.45-2.28,2.17,2.17,0,0,0-2.12,2.33A2.25,2.25,0,0,0,250.1,134.85Zm-2.44-53.19a2.18,2.18,0,0,0,2.12,2.27,2.37,2.37,0,0,0,2.45-2.39A2.18,2.18,0,0,0,250,79.29,2.32,2.32,0,0,0,247.66,81.66ZM44.18,122.3a2.36,2.36,0,0,0,2.31,2.44,2.19,2.19,0,0,0,2.17-2.22,2.36,2.36,0,0,0-2.33-2.43A2.12,2.12,0,0,0,44.18,122.3ZM227.31,41a2.15,2.15,0,0,0,2.12,2.26,2.32,2.32,0,0,0,2.35-2.32,2.19,2.19,0,0,0-2.17-2.3A2.29,2.29,0,0,0,227.31,41ZM46.17,134.85a2.31,2.31,0,0,0,2.33-2.34,2.23,2.23,0,0,0-2.15-2.27A2.27,2.27,0,0,0,44,132.56,2.16,2.16,0,0,0,46.17,134.85Zm181.14,38.38a2.26,2.26,0,0,0,2.32,2.32,2.3,2.3,0,0,0-.15-4.59A2.13,2.13,0,0,0,227.31,173.23ZM74.71,183.4A2.28,2.28,0,0,0,77,185.73a2.2,2.2,0,0,0,2.12-2.28,2.27,2.27,0,0,0-2.27-2.32A2.18,2.18,0,0,0,74.71,183.4ZM48.48,81.64a2.28,2.28,0,0,0-1.71-2.3,2.17,2.17,0,0,0-2.61,2.5,2.21,2.21,0,0,0,2.26,2.08A2.23,2.23,0,0,0,48.48,81.64ZM68.85,40.87a2.17,2.17,0,1,0-2.14,2.34A2.22,2.22,0,0,0,68.85,40.87ZM219.26,185.73a2.22,2.22,0,0,0,2.2-2.29,2.25,2.25,0,0,0-2.19-2.32,2.31,2.31,0,0,0,0,4.61ZM190.91,61.27A2.19,2.19,0,0,0,188.78,59a2.25,2.25,0,0,0-2.19,2.31,2.22,2.22,0,0,0,2.15,2.27A2.19,2.19,0,0,0,190.91,61.27ZM178.6,28.48a2.17,2.17,0,0,0-2.16,2.24,2.2,2.2,0,0,0,2.14,2.34,2.29,2.29,0,0,0,0-4.58ZM95,81.67a2.18,2.18,0,0,0,2.13,2.27,2.29,2.29,0,0,0,0-4.58A2.18,2.18,0,0,0,95,81.67Zm14.48,0a2.16,2.16,0,1,0-4.32,0,2.23,2.23,0,0,0,2.11,2.31A2.2,2.2,0,0,0,109.53,81.66Zm66.91,30.52a2.17,2.17,0,0,0,2.2,2.27,2.3,2.3,0,0,0,0-4.58A2.2,2.2,0,0,0,176.44,112.19Zm53-2.31a2.3,2.3,0,0,0,0,4.58,2.29,2.29,0,0,0,0-4.58Zm-53-28.23a2.19,2.19,0,0,0,2.12,2.29,2.29,2.29,0,0,0,.07-4.58A2.17,2.17,0,0,0,176.44,81.65ZM109.52,183.41a2.19,2.19,0,0,0-2.18-2.3,2.29,2.29,0,1,0,2.18,2.3Zm-14.48,0a2.19,2.19,0,0,0,2.17,2.31,2.29,2.29,0,0,0,0-4.58A2.17,2.17,0,0,0,95,183.38ZM95,163a2.17,2.17,0,0,0,2.16,2.31,2.29,2.29,0,0,0,0-4.58A2.18,2.18,0,0,0,95,163Zm14.47,0a2.16,2.16,0,1,0-2.11,2.29A2.21,2.21,0,0,0,109.52,163ZM140,61.31A2.21,2.21,0,0,0,137.87,59a2.24,2.24,0,0,0-2.15,2.28,2.16,2.16,0,1,0,4.32,0Zm36.39-50.87a2.17,2.17,0,0,0,2.14,2.26,2.23,2.23,0,0,0,2.18-2.31,2.24,2.24,0,0,0-2.16-2.27A2.2,2.2,0,0,0,176.44,10.44Zm0,50.87a2.18,2.18,0,0,0,2.14,2.27,2.29,2.29,0,1,0-2.14-2.27ZM95,132.52a2.18,2.18,0,0,0,2.1,2.3,2.29,2.29,0,0,0,0-4.58A2.17,2.17,0,0,0,95,132.52Zm81.38,30.57a2.17,2.17,0,0,0,2.15,2.25,2.29,2.29,0,1,0-2.15-2.25Zm-66.91-30.6a2.19,2.19,0,0,0-2.15-2.25,2.29,2.29,0,1,0,2.15,2.25Zm16,0a2.2,2.2,0,0,0,2.16,2.32,2.29,2.29,0,0,0,0-4.58A2.19,2.19,0,0,0,125.56,132.49ZM97.2,59a2.29,2.29,0,0,0,0,4.58,2.29,2.29,0,0,0,0-4.58ZM79,61.31A2.23,2.23,0,0,0,76.83,59a2.29,2.29,0,0,0,0,4.58A2.23,2.23,0,0,0,79,61.31ZM58.65,81.61a2.16,2.16,0,1,0-2.16,2.33A2.22,2.22,0,0,0,58.65,81.61Zm0,50.91a2.16,2.16,0,1,0-4.32,0,2.23,2.23,0,0,0,2.13,2.29A2.2,2.2,0,0,0,58.65,132.52Zm0-71.24a2.16,2.16,0,1,0-2.18,2.3A2.19,2.19,0,0,0,58.65,61.28ZM229.44,145a2.2,2.2,0,0,0,2.18-2.22,2.23,2.23,0,0,0-2.16-2.33,2.19,2.19,0,0,0-2.16,2.24A2.16,2.16,0,0,0,229.44,145ZM145.92,61.32a2.16,2.16,0,0,0,2.14,2.26,2.29,2.29,0,0,0,0-4.58A2.19,2.19,0,0,0,145.92,61.32Zm30.52,122.11a2.19,2.19,0,0,0,2.15,2.26,2.25,2.25,0,0,0,2.17-2.33,2.22,2.22,0,0,0-2.17-2.25A2.18,2.18,0,0,0,176.44,183.44ZM209.12,69.2a2.27,2.27,0,1,0,2.14,2.32A2.16,2.16,0,0,0,209.12,69.2Zm-32.69,63.28a2.16,2.16,0,1,0,4.32.08,2.23,2.23,0,0,0-2.17-2.32A2.18,2.18,0,0,0,176.44,132.49Zm32.65-89.27A2.17,2.17,0,0,0,211.27,41a2.16,2.16,0,1,0-4.32-.11A2.18,2.18,0,0,0,209.09,43.22Zm18.22,7.91a2.18,2.18,0,0,0,2.12,2.28,2.22,2.22,0,0,0,2.2-2.29,2.19,2.19,0,0,0-2.14-2.26A2.16,2.16,0,0,0,227.31,51.13ZM64.52,173.23a2.19,2.19,0,0,0,2.15,2.32,2.26,2.26,0,0,0,2.17-2.32A2.21,2.21,0,0,0,66.71,171,2.15,2.15,0,0,0,64.52,173.23ZM227.31,61.33a2.17,2.17,0,0,0,2.14,2.26,2.29,2.29,0,0,0,0-4.58A2.2,2.2,0,0,0,227.31,61.33Zm0,20.28a2.19,2.19,0,0,0,2.15,2.33,2.29,2.29,0,0,0,0-4.58A2.17,2.17,0,0,0,227.31,81.61ZM95,112.15a2.18,2.18,0,0,0,2.16,2.31,2.23,2.23,0,0,0,2.16-2.27,2.26,2.26,0,0,0-2.19-2.31A2.18,2.18,0,0,0,95,112.15ZM140,163a2.2,2.2,0,0,0-2.14-2.27,2.25,2.25,0,0,0-2.18,2.32,2.16,2.16,0,1,0,4.32,0Zm71.23-10.15a2.16,2.16,0,1,0-2.2,2.28A2.19,2.19,0,0,0,211.27,152.88ZM160.4,163a2.16,2.16,0,1,0-4.32,0,2.16,2.16,0,1,0,4.32,0Zm-55.2,40.63a2.19,2.19,0,0,0,2.1,2.28,2.1,2.1,0,0,0,2.22-2.2,2.17,2.17,0,1,0-4.33-.08Zm122.11-40.6a2.18,2.18,0,0,0,2.14,2.26,2.22,2.22,0,0,0,2.18-2.31,2.25,2.25,0,0,0-2.16-2.27A2.2,2.2,0,0,0,227.31,163.08ZM109.52,112.17a2.16,2.16,0,1,0-4.32,0,2.16,2.16,0,1,0,4.32,0ZM79,30.76a2.22,2.22,0,0,0-2.14-2.27,2.18,2.18,0,0,0-2.18,2.29,2.16,2.16,0,1,0,4.32,0Zm150.42,69a2.15,2.15,0,0,0-2.12,2.26,2.18,2.18,0,0,0,2.17,2.3,2.24,2.24,0,0,0,2.15-2.28A2.2,2.2,0,0,0,229.43,99.72Zm-99.55,83.7a2.22,2.22,0,0,0-2.1-2.31,2.18,2.18,0,0,0-2.22,2.26,2.16,2.16,0,1,0,4.32.05ZM148,8.12a2.19,2.19,0,0,0-2.12,2.35,2.16,2.16,0,0,0,2.17,2.23,2.29,2.29,0,0,0,0-4.58ZM129.88,112.24a2.24,2.24,0,0,0-2.14-2.36,2.29,2.29,0,0,0-.06,4.58A2.23,2.23,0,0,0,129.88,112.24Zm-2.16,89.24a2.16,2.16,0,0,0-2.15,2.24,2.16,2.16,0,1,0,2.15-2.24Zm20.38-173a2.16,2.16,0,0,0-2.18,2.21A2.2,2.2,0,0,0,148,33.06a2.29,2.29,0,0,0,.06-4.58ZM125.56,81.61a2.2,2.2,0,0,0,2.16,2.32,2.29,2.29,0,0,0,0-4.58A2.19,2.19,0,0,0,125.56,81.61Zm0-50.87a2.16,2.16,0,1,0,2.15-2.25A2.18,2.18,0,0,0,125.56,30.74Zm-10.17-20.3a2.19,2.19,0,0,0,2.14,2.26,2.22,2.22,0,0,0,2.17-2.31,2.16,2.16,0,1,0-4.32.05Zm14.49,0a2.24,2.24,0,0,0-2.15-2.27,2.2,2.2,0,0,0-2.17,2.32,2.18,2.18,0,0,0,2.14,2.26A2.21,2.21,0,0,0,129.88,10.4ZM109.52,30.8a2.19,2.19,0,0,0-2.16-2.32,2.29,2.29,0,1,0,2.16,2.32Zm36.4,50.75A2.19,2.19,0,0,0,148,83.94a2.29,2.29,0,0,0,.13-4.58A2.15,2.15,0,0,0,145.92,81.55Zm45,10.31a2.2,2.2,0,0,0-2.16-2.32,2.23,2.23,0,0,0-2.16,2.26,2.19,2.19,0,0,0,2.17,2.3A2.16,2.16,0,0,0,190.91,91.85Zm48.74,7.87a2.28,2.28,0,1,0,2.13,2.33A2.18,2.18,0,0,0,239.65,99.72ZM79,91.78a2.16,2.16,0,1,0-4.32.08,2.16,2.16,0,0,0,2.23,2.24A2.21,2.21,0,0,0,79,91.78ZM127.7,94.1a2.19,2.19,0,0,0,2.18-2.22,2.22,2.22,0,0,0-2.15-2.34,2.2,2.2,0,0,0-2.17,2.24A2.16,2.16,0,0,0,127.7,94.1Zm-69,18.06a2.2,2.2,0,0,0-2.21-2.27,2.24,2.24,0,0,0-2.11,2.31,2.16,2.16,0,1,0,4.32,0ZM227.31,91.83a2.15,2.15,0,0,0,2.12,2.27,2.2,2.2,0,0,0,2.2-2.28,2.23,2.23,0,0,0-2.21-2.28A2.21,2.21,0,0,0,227.31,91.83Zm-16,30.51a2.16,2.16,0,1,0-2.12,2.27A2.17,2.17,0,0,0,211.27,122.34Zm10.17-61.06a2.16,2.16,0,1,0-2.18,2.3A2.2,2.2,0,0,0,221.44,61.28ZM140,112.16a2.16,2.16,0,1,0-2.18,2.29A2.19,2.19,0,0,0,140,112.16ZM66.68,79.36a2.17,2.17,0,0,0-2.16,2.24,2.19,2.19,0,0,0,2.13,2.34,2.29,2.29,0,0,0,0-4.58Zm93.71,104a2.16,2.16,0,1,0-2.12,2.3A2.24,2.24,0,0,0,160.4,183.4Zm-14.48-71.25a2.17,2.17,0,0,0,2.15,2.31,2.23,2.23,0,0,0,2.17-2.26,2.26,2.26,0,0,0-2.18-2.32A2.19,2.19,0,0,0,145.92,112.14ZM140,81.72a2.16,2.16,0,1,0-4.32-.15,2.24,2.24,0,0,0,2.13,2.37A2.19,2.19,0,0,0,140,81.72ZM160.4,112.2a2.16,2.16,0,1,0-4.32-.05,2.16,2.16,0,1,0,4.32.05Zm0-30.53a2.16,2.16,0,1,0-2.15,2.27A2.2,2.2,0,0,0,160.4,81.67Zm38.55,28.21a2.29,2.29,0,0,0,0,4.58,2.22,2.22,0,0,0,2.19-2.24A2.26,2.26,0,0,0,198.95,109.88Zm22.49,2.29a2.2,2.2,0,0,0-2.12-2.29,2.29,2.29,0,0,0,0,4.58A2.19,2.19,0,0,0,221.44,112.17Zm-30.52,71.21a2.19,2.19,0,0,0-2.13-2.27,2.29,2.29,0,0,0,0,4.58A2.2,2.2,0,0,0,190.91,183.38Zm50.87-71.24a2.21,2.21,0,0,0-2.15-2.27,2.25,2.25,0,0,0-2.17,2.33,2.16,2.16,0,1,0,4.32-.06Zm-95.86,71.21a2.19,2.19,0,0,0,2.13,2.34,2.29,2.29,0,0,0,0-4.58A2.18,2.18,0,0,0,145.92,183.35ZM239.64,94.1a2.17,2.17,0,0,0,2.14-2.25,2.2,2.2,0,0,0-2.17-2.31,2.23,2.23,0,0,0-2.15,2.27A2.19,2.19,0,0,0,239.64,94.1Zm10.17,15.78a2.29,2.29,0,0,0,0,4.58,2.29,2.29,0,0,0,0-4.58Zm-53,73.52a2.18,2.18,0,0,0,2.18,2.3,2.26,2.26,0,0,0,2.14-2.29,2.23,2.23,0,0,0-2.21-2.29A2.17,2.17,0,0,0,196.79,183.4ZM190.91,81.65a2.19,2.19,0,0,0-2.11-2.29,2.29,2.29,0,0,0,0,4.58A2.19,2.19,0,0,0,190.91,81.65Zm50.87-20.36A2.21,2.21,0,0,0,239.66,59a2.24,2.24,0,0,0-2.2,2.3,2.16,2.16,0,1,0,4.32,0ZM221.44,81.64a2.16,2.16,0,1,0-2.11,2.3A2.19,2.19,0,0,0,221.44,81.64ZM209.1,175.49a2.27,2.27,0,1,0-2.15-2.31A2.17,2.17,0,0,0,209.1,175.49ZM76.79,145A2.18,2.18,0,0,0,79,142.79a2.24,2.24,0,0,0-2.11-2.38,2.28,2.28,0,0,0-.1,4.56ZM129.88,41a2.21,2.21,0,0,0-2.19-2.3,2.18,2.18,0,0,0-2.13,2.27,2.16,2.16,0,0,0,2.17,2.29A2.2,2.2,0,0,0,129.88,41ZM79,40.93a2.16,2.16,0,1,0-4.32,0,2.16,2.16,0,0,0,2.21,2.26A2.19,2.19,0,0,0,79,40.93ZM211.27,30.79a2.16,2.16,0,1,0-2.15,2.26A2.2,2.2,0,0,0,211.27,30.79Zm-14.48,0a2.18,2.18,0,0,0,2.16,2.32,2.29,2.29,0,0,0,0-4.58A2.18,2.18,0,0,0,196.79,30.74Zm-5.88.05a2.18,2.18,0,0,0-2.16-2.31,2.29,2.29,0,0,0,0,4.58A2.19,2.19,0,0,0,190.91,30.8Zm-30.51,0a2.16,2.16,0,1,0-2.11,2.3A2.2,2.2,0,0,0,160.4,30.76Zm-20.36,0a2.18,2.18,0,0,0-2.13-2.27,2.29,2.29,0,0,0,0,4.57A2.19,2.19,0,0,0,140,30.76Zm-50.87,0A2.18,2.18,0,0,0,87,28.48a2.29,2.29,0,1,0,2.15,2.25ZM160.4,152.86a2.18,2.18,0,0,0-2.21-2.26,2.28,2.28,0,1,0,2.21,2.26ZM79,163.08a2.22,2.22,0,0,0-2.17-2.32A2.29,2.29,0,1,0,79,163.08Zm111.9,30.47a2.16,2.16,0,1,0-2.16,2.3A2.16,2.16,0,0,0,190.91,193.55Zm-61-30.51a2.23,2.23,0,0,0-2.22-2.28,2.2,2.2,0,0,0-2.1,2.31,2.18,2.18,0,0,0,2.13,2.27A2.21,2.21,0,0,0,129.88,163Zm61-152.55a2.19,2.19,0,0,0-2.15-2.31,2.16,2.16,0,0,0-2.18,2.19,2.17,2.17,0,1,0,4.33.12Zm8,150.27a2.2,2.2,0,0,0-2.12,2.35,2.16,2.16,0,0,0,2.17,2.22,2.29,2.29,0,0,0,0-4.58Zm8,2.26a2.16,2.16,0,1,0,4.32.07,2.16,2.16,0,1,0-4.32-.07Zm14.49,0a2.21,2.21,0,0,0-2.2-2.29,2.25,2.25,0,0,0-2.12,2.31,2.16,2.16,0,1,0,4.32,0ZM140,10.38a2.2,2.2,0,0,0-2.15-2.26,2.24,2.24,0,0,0-2.17,2.32,2.23,2.23,0,0,0,2.17,2.26A2.19,2.19,0,0,0,140,10.38Zm18.21,191.09a2.28,2.28,0,1,0,2.14,2.25A2.19,2.19,0,0,0,158.25,201.48Zm38.54-69a2.17,2.17,0,0,0,2.17,2.31,2.29,2.29,0,0,0,0-4.58A2.17,2.17,0,0,0,196.79,132.51Zm-89.44,63.34a2.17,2.17,0,0,0,2.18-2.21,2.16,2.16,0,1,0-2.18,2.21ZM66.65,130.24a2.29,2.29,0,0,0,0,4.58,2.29,2.29,0,0,0,0-4.58Zm42.87-68.95a2.16,2.16,0,1,0-2.12,2.29A2.22,2.22,0,0,0,109.52,61.29ZM89.17,132.51a2.16,2.16,0,1,0-4.32,0A2.23,2.23,0,0,0,87,134.81,2.2,2.2,0,0,0,89.17,132.51Zm50.87,0a2.18,2.18,0,0,0-2.15-2.25,2.29,2.29,0,1,0,2.15,2.25ZM129.88,51.1a2.16,2.16,0,1,0-2.18,2.3A2.21,2.21,0,0,0,129.88,51.1Zm-4.32,10.18a2.18,2.18,0,0,0,2.17,2.31,2.29,2.29,0,1,0-2.17-2.31Zm95.87,71.23a2.18,2.18,0,0,0-2.21-2.27,2.29,2.29,0,0,0,0,4.58A2.2,2.2,0,0,0,221.44,132.5Zm8-2.27a2.29,2.29,0,0,0,0,4.58,2.29,2.29,0,0,0,0-4.58ZM64.52,112.14a2.18,2.18,0,0,0,2.16,2.31,2.21,2.21,0,0,0,2.16-2.25,2.25,2.25,0,0,0-2.17-2.33A2.21,2.21,0,0,0,64.52,112.14Zm83.55,48.61a2.2,2.2,0,0,0-2.16,2.25,2.17,2.17,0,0,0,2.14,2.33,2.23,2.23,0,0,0,2.18-2.24A2.26,2.26,0,0,0,148.08,160.76Zm42.83,2.31a2.2,2.2,0,0,0-2.17-2.31,2.29,2.29,0,0,0,0,4.58A2.19,2.19,0,0,0,190.91,163.07ZM46.32,109.88a2.2,2.2,0,0,0-2.14,2.34,2.17,2.17,0,0,0,2.16,2.24,2.29,2.29,0,0,0,0-4.58Zm69.08,73.49a2.2,2.2,0,0,0,2.16,2.32,2.29,2.29,0,0,0,.06-4.58A2.18,2.18,0,0,0,115.39,183.37Zm32.68-53.13a2.29,2.29,0,0,0,0,4.58,2.29,2.29,0,0,0,0-4.58ZM64.52,163.07a2.18,2.18,0,0,0,2.14,2.26,2.3,2.3,0,1,0-2.14-2.26Zm164.91-38.46a2.27,2.27,0,0,0,.06-4.54,2.27,2.27,0,0,0-.06,4.54Zm12.35-2.24a2.16,2.16,0,1,0-2.15,2.24A2.16,2.16,0,0,0,241.78,122.38ZM140,183.4a2.19,2.19,0,0,0-2.12-2.29A2.3,2.3,0,1,0,140,183.4ZM160.4,102a2.16,2.16,0,1,0-2.14,2.26A2.18,2.18,0,0,0,160.4,102Zm-32.7-2.29a2.17,2.17,0,0,0-2.13,2.26,2.19,2.19,0,0,0,2.18,2.3,2.23,2.23,0,0,0,2.14-2.28A2.19,2.19,0,0,0,127.69,99.72Zm0,75.77a2.27,2.27,0,0,0,0-4.54,2.27,2.27,0,0,0,0,4.54ZM74.69,102a2.16,2.16,0,1,0,2.15-2.25A2.19,2.19,0,0,0,74.69,102Zm-16,.05a2.16,2.16,0,1,0-4.32-.06,2.21,2.21,0,0,0,2.17,2.31A2.19,2.19,0,0,0,58.65,102ZM76.82,171a2.27,2.27,0,0,0,0,4.54,2.27,2.27,0,0,0,0-4.54Zm30.49,4.54a2.27,2.27,0,1,0-2.11-2.36A2.17,2.17,0,0,0,107.31,175.5Zm134.47-43a2.18,2.18,0,0,0-2.18-2.29,2.29,2.29,0,1,0,2.18,2.29ZM58.65,142.72A2.16,2.16,0,1,0,56.51,145,2.19,2.19,0,0,0,58.65,142.72Zm50.87,0a2.16,2.16,0,1,0-4.32,0,2.16,2.16,0,1,0,4.32,0Zm50.87,0a2.16,2.16,0,1,0-4.32,0,2.16,2.16,0,1,0,4.32,0Zm30.51-30.52a2.21,2.21,0,0,0-2.17-2.31,2.24,2.24,0,0,0-2.15,2.27,2.21,2.21,0,0,0,2.18,2.3A2.18,2.18,0,0,0,190.91,112.19Zm0,61a2.16,2.16,0,1,0-2.13,2.25A2.16,2.16,0,0,0,190.91,173.24ZM178.54,145a2.19,2.19,0,0,0,2.21-2.26,2.23,2.23,0,0,0-2.12-2.29,2.28,2.28,0,0,0-.09,4.56ZM58.65,122.35a2.17,2.17,0,0,0-2.19-2.28,2.2,2.2,0,0,0-2.13,2.27,2.16,2.16,0,1,0,4.32,0ZM211.27,142.7a2.16,2.16,0,1,0-4.32,0,2.16,2.16,0,1,0,4.32,0Zm30.51,0a2.19,2.19,0,0,0-2.2-2.28,2.23,2.23,0,0,0-2.12,2.3,2.16,2.16,0,1,0,4.32,0ZM178.6,175.49a2.27,2.27,0,1,0-2.16-2.22A2.15,2.15,0,0,0,178.6,175.49Zm32.67-43a2.16,2.16,0,1,0-2.11,2.31A2.21,2.21,0,0,0,211.27,132.51Zm-53,43a2.27,2.27,0,1,0-2.17-2.3A2.16,2.16,0,0,0,158.25,175.49Zm-48.72-53.16a2.16,2.16,0,1,0-2.18,2.28A2.17,2.17,0,0,0,109.52,122.34Zm18.19-2.26a2.27,2.27,0,0,0,0,4.54,2.27,2.27,0,0,0,0-4.54ZM58.65,152.86a2.16,2.16,0,1,0-4.32,0,2.16,2.16,0,1,0,4.32,0Zm119.93-32.78a2.27,2.27,0,0,0,0,4.54,2.27,2.27,0,0,0,0-4.54Zm-63.2-7.93a2.18,2.18,0,0,0,2.16,2.31,2.21,2.21,0,0,0,2.16-2.26,2.24,2.24,0,0,0-2.17-2.32A2.2,2.2,0,0,0,115.39,112.15Zm75.52,20.39a2.16,2.16,0,1,0-4.32,0,2.23,2.23,0,0,0,2.19,2.31A2.2,2.2,0,0,0,190.91,132.54ZM79,152.85a2.16,2.16,0,1,0-2.18,2.3A2.21,2.21,0,0,0,79,152.85Zm28.33-2.25a2.28,2.28,0,1,0,2.18,2.29A2.18,2.18,0,0,0,107.34,150.6Zm53.05-18.08a2.16,2.16,0,1,0-2.11,2.3A2.2,2.2,0,0,0,160.4,132.52Zm36.39,20.33a2.17,2.17,0,0,0,2.15,2.31,2.28,2.28,0,0,0,0-4.56A2.15,2.15,0,0,0,196.79,152.85ZM176.44,51.14a2.18,2.18,0,0,0,2.21,2.26,2.24,2.24,0,0,0,2.11-2.31,2.16,2.16,0,1,0-4.32,0ZM95,30.79a2.18,2.18,0,0,0,2.14,2.27,2.25,2.25,0,0,0,2.18-2.32,2.22,2.22,0,0,0-2.23-2.26A2.19,2.19,0,0,0,95,30.79Zm20.34,0a2.19,2.19,0,0,0,2.12,2.29,2.29,2.29,0,0,0,.06-4.58A2.18,2.18,0,0,0,115.39,30.77Zm12.34,165.07a2.19,2.19,0,0,0,2.16-2.24,2.17,2.17,0,1,0-4.32,0A2.16,2.16,0,0,0,127.73,195.85ZM109.52,71.49a2.16,2.16,0,1,0-2.14,2.25A2.17,2.17,0,0,0,109.52,71.49ZM89.17,41A2.19,2.19,0,0,0,87,38.66a2.23,2.23,0,0,0-2.16,2.26A2.2,2.2,0,0,0,87,43.22,2.18,2.18,0,0,0,89.17,41ZM58.65,91.78a2.16,2.16,0,1,0-2.08,2.31A2.19,2.19,0,0,0,58.65,91.78ZM127.72,69.2a2.27,2.27,0,0,0,0,4.54,2.27,2.27,0,0,0,0-4.54ZM241.78,81.64a2.18,2.18,0,0,0-2.12-2.27,2.29,2.29,0,1,0,2.12,2.27ZM107.35,43.22A2.17,2.17,0,0,0,109.52,41a2.17,2.17,0,1,0-4.32,0A2.18,2.18,0,0,0,107.35,43.22Zm38.57-2.27A2.16,2.16,0,0,0,148,43.22a2.22,2.22,0,0,0,2.21-2.28,2.25,2.25,0,0,0-2.14-2.28A2.18,2.18,0,0,0,145.92,40.95Zm14.48,0a2.2,2.2,0,0,0-2.21-2.27A2.23,2.23,0,0,0,156.08,41a2.16,2.16,0,1,0,4.32,0Zm36.39,40.71a2.18,2.18,0,0,0,2.17,2.3,2.29,2.29,0,0,0,0-4.58A2.18,2.18,0,0,0,196.79,81.63ZM160.4,71.47a2.16,2.16,0,1,0-2.12,2.27A2.17,2.17,0,0,0,160.4,71.47ZM79,81.61a2.16,2.16,0,1,0-2.16,2.33A2.21,2.21,0,0,0,79,81.61Zm160.62-7.87a2.27,2.27,0,1,0-2.17-2.3A2.17,2.17,0,0,0,239.63,73.74ZM198.92,43.22a2.28,2.28,0,0,0,0-4.56,2.28,2.28,0,0,0,0,4.56Zm-89.4,7.91a2.16,2.16,0,1,0-4.32,0,2.16,2.16,0,1,0,4.32,0ZM95,51.08a2.18,2.18,0,0,0,2.15,2.32,2.28,2.28,0,0,0,.07-4.55A2.14,2.14,0,0,0,95,51.08ZM211.27,61.31A2.24,2.24,0,0,0,209.15,59a2.3,2.3,0,1,0,2.11,2.31Zm-14.48,0A2.16,2.16,0,0,0,199,63.58,2.29,2.29,0,0,0,198.9,59,2.2,2.2,0,0,0,196.79,61.3Zm-26.22.09A2.22,2.22,0,0,0,168.47,59a2.29,2.29,0,1,0,2.09,2.39Zm0-50.9a2.22,2.22,0,0,0-2.12-2.37,2.2,2.2,0,0,0-2.19,2.22,2.16,2.16,0,1,0,4.32.15Zm-61-.06a2.13,2.13,0,0,0-2.1-2.26,2.18,2.18,0,0,0-2.22,2.24,2.17,2.17,0,1,0,4.33,0ZM56.44,73.74a2.27,2.27,0,1,0-2.1-2.29A2.15,2.15,0,0,0,56.44,73.74Zm53.09-53.15a2.16,2.16,0,1,0-2.19,2.27A2.16,2.16,0,0,0,109.53,20.59ZM160.4,61.27a2.16,2.16,0,1,0-4.32,0,2.16,2.16,0,1,0,4.32,0Zm0,30.51a2.16,2.16,0,1,0-2.09,2.31A2.2,2.2,0,0,0,160.4,91.78ZM89.17,61.29A2.19,2.19,0,0,0,87,59a2.26,2.26,0,0,0-2.13,2.3A2.22,2.22,0,0,0,87,63.58,2.18,2.18,0,0,0,89.17,61.29ZM66.66,59a2.21,2.21,0,0,0-2.14,2.34,2.17,2.17,0,0,0,2.16,2.24,2.29,2.29,0,0,0,0-4.58ZM148,94.1a2.28,2.28,0,0,0,0-4.56,2.28,2.28,0,0,0,0,4.56Zm63.23,89.28a2.16,2.16,0,1,0-2.11,2.31A2.24,2.24,0,0,0,211.27,183.38Zm-32.71,12.47a2.2,2.2,0,0,0,2.19-2.21,2.22,2.22,0,0,0-2.14-2.34,2.28,2.28,0,0,0,0,4.55ZM117.54,59a2.29,2.29,0,1,0,2.17,2.33A2.21,2.21,0,0,0,117.54,59Zm53,73.49a2.19,2.19,0,0,0-2.22-2.25,2.29,2.29,0,1,0,2.22,2.25ZM137.89,48.85a2.28,2.28,0,0,0,0,4.56A2.18,2.18,0,0,0,140,51.08,2.16,2.16,0,0,0,137.89,48.85Zm-40.73,147a2.28,2.28,0,0,0,.07-4.55,2.28,2.28,0,0,0-.07,4.55Zm42.88-2.3a2.18,2.18,0,0,0-2.14-2.25,2.23,2.23,0,0,0-2.18,2.31,2.16,2.16,0,1,0,4.32-.06Zm-61-61a2.22,2.22,0,0,0-2.17-2.32,2.29,2.29,0,0,0,0,4.58A2.23,2.23,0,0,0,79,132.56Zm130.1-83.71a2.28,2.28,0,1,0,2.16,2.24A2.18,2.18,0,0,0,209.11,48.85Zm-18.2,2.25a2.16,2.16,0,0,0-2.21-2.25,2.28,2.28,0,0,0,0,4.55A2.19,2.19,0,0,0,190.91,51.09Zm-12.3,150.38a2.15,2.15,0,0,0-2.18,2.21,2.2,2.2,0,0,0,2.13,2.35,2.28,2.28,0,0,0,.05-4.56Zm-32.69,2.3a2.18,2.18,0,0,0,2.14,2.26,2.24,2.24,0,0,0,2.18-2.31,2.22,2.22,0,0,0-2.17-2.25A2.15,2.15,0,0,0,145.92,203.78ZM160.4,10.39a2.16,2.16,0,1,0-4.32.06,2.16,2.16,0,1,0,4.32-.06Zm10.17,152.68a2.16,2.16,0,1,0-2.15,2.26A2.21,2.21,0,0,0,170.57,163.07ZM127.75,22.86a2.27,2.27,0,0,0-.06-4.54,2.15,2.15,0,0,0-2.12,2.26A2.16,2.16,0,0,0,127.75,22.86ZM115.39,163a2.16,2.16,0,1,0,4.32,0,2.24,2.24,0,0,0-2.2-2.3A2.2,2.2,0,0,0,115.39,163Zm45-142.44a2.16,2.16,0,1,0-2.13,2.26A2.17,2.17,0,0,0,160.4,20.6ZM89.17,163.06A2.16,2.16,0,1,0,87,165.33,2.19,2.19,0,0,0,89.17,163.06Zm89.4-140.2a2.27,2.27,0,0,0,0-4.54,2.15,2.15,0,0,0-2.16,2.22A2.15,2.15,0,0,0,178.57,22.86ZM239.66,150.6a2.19,2.19,0,0,0-2.19,2.28,2.21,2.21,0,0,0,2.14,2.28,2.28,2.28,0,0,0,.06-4.56Zm-12.35,2.29a2.19,2.19,0,0,0,2.13,2.27,2.23,2.23,0,0,0,2.19-2.3,2.21,2.21,0,0,0-2.15-2.25A2.16,2.16,0,0,0,227.31,152.89Zm-38.53-2.29a2.18,2.18,0,0,0-2.18,2.22,2.22,2.22,0,0,0,2.15,2.34,2.28,2.28,0,0,0,0-4.56Zm-10.13,0a2.15,2.15,0,0,0-2.2,2.18,2.19,2.19,0,0,0,2.09,2.37,2.28,2.28,0,0,0,.11-4.56Zm-51,0a2.28,2.28,0,0,0,.08,4.56,2.21,2.21,0,0,0,2.13-2.29A2.18,2.18,0,0,0,127.68,150.6ZM170.57,30.75a2.16,2.16,0,1,0-2.11,2.31A2.23,2.23,0,0,0,170.57,30.75Zm50.87,0a2.19,2.19,0,0,0-2.16-2.31,2.29,2.29,0,1,0,2.16,2.31ZM97.17,43.22a2.2,2.2,0,0,0,2.2-2.28,2.24,2.24,0,0,0-2.14-2.28A2.18,2.18,0,0,0,95,41,2.15,2.15,0,0,0,97.17,43.22Zm28.4,99.38a2.16,2.16,0,1,0,4.32.19,2.23,2.23,0,0,0-2.11-2.38A2.18,2.18,0,0,0,125.56,142.6Zm-30.51,0A2.15,2.15,0,0,0,97.16,145a2.28,2.28,0,0,0,.07-4.56A2.16,2.16,0,0,0,95.05,142.63ZM178.6,43.22A2.2,2.2,0,0,0,180.75,41a2.24,2.24,0,0,0-2.18-2.31A2.19,2.19,0,0,0,176.44,41,2.15,2.15,0,0,0,178.6,43.22Zm12.31-2.3a2.16,2.16,0,1,0-2.16,2.31A2.17,2.17,0,0,0,190.91,40.91ZM74.69,51.11a2.16,2.16,0,1,0,2.2-2.27A2.18,2.18,0,0,0,74.69,51.11Zm14.48,0a2.16,2.16,0,1,0-4.32,0A2.21,2.21,0,0,0,87,53.4,2.18,2.18,0,0,0,89.17,51.12ZM206.95,81.68a2.16,2.16,0,1,0,2.17-2.32A2.21,2.21,0,0,0,206.95,81.68ZM79,112.16a2.24,2.24,0,0,0-2.14-2.28A2.29,2.29,0,1,0,79,112.16Zm10.16.06A2.16,2.16,0,1,0,87,114.46,2.18,2.18,0,0,0,89.17,112.22Zm8-18.13a2.28,2.28,0,0,0,.09-4.56,2.28,2.28,0,0,0-.09,4.56Zm73.42-12.43a2.16,2.16,0,1,0-4.32,0,2.16,2.16,0,1,0,4.32,0ZM211.27,102a2.16,2.16,0,1,0-2.18,2.3A2.19,2.19,0,0,0,211.27,102Zm-12.32-2.25a2.28,2.28,0,0,0,0,4.56,2.28,2.28,0,0,0,0-4.56Zm-28.38,83.69a2.16,2.16,0,1,0-4.32,0,2.16,2.16,0,1,0,4.32,0Zm0-71.27a2.16,2.16,0,1,0-2.16,2.32A2.22,2.22,0,0,0,170.57,112.14ZM190.91,102a2.16,2.16,0,0,0-2.17-2.29,2.28,2.28,0,1,0,2.17,2.29Zm38.55-28.27a2.27,2.27,0,0,0,0-4.54,2.27,2.27,0,0,0,0,4.54Zm-18.19,38.4a2.16,2.16,0,1,0-2.17,2.32A2.21,2.21,0,0,0,211.27,112.14Zm-32.7-38.4a2.27,2.27,0,0,0,0-4.54,2.27,2.27,0,0,0,0,4.54ZM176.44,102a2.17,2.17,0,0,0,2.15,2.25,2.22,2.22,0,0,0,2.17-2.32,2.2,2.2,0,0,0-2.17-2.24A2.16,2.16,0,0,0,176.44,102ZM109.52,91.84a2.19,2.19,0,0,0-2.17-2.3,2.22,2.22,0,0,0-2.15,2.27,2.16,2.16,0,1,0,4.32,0Zm99.61,2.26a2.28,2.28,0,1,0-2.19-2.28A2.19,2.19,0,0,0,209.14,94.1ZM79,122.35a2.16,2.16,0,1,0-2.13,2.26A2.18,2.18,0,0,0,79,122.35ZM109.52,102a2.18,2.18,0,0,0-2.21-2.26,2.28,2.28,0,1,0,2.21,2.26ZM89.17,183.42a2.16,2.16,0,1,0-4.32,0A2.25,2.25,0,0,0,87,185.69,2.2,2.2,0,0,0,89.17,183.42Zm89.4-89.33a2.18,2.18,0,0,0,2.19-2.21,2.22,2.22,0,0,0-2.14-2.34,2.19,2.19,0,0,0-2.17,2.23A2.16,2.16,0,0,0,178.57,94.1ZM44.18,102a2.18,2.18,0,0,0,2.13,2.27A2.25,2.25,0,0,0,48.5,102a2.2,2.2,0,0,0-2.16-2.25A2.15,2.15,0,0,0,44.18,102ZM76.81,69.2a2.27,2.27,0,0,0,.07,4.54,2.27,2.27,0,0,0-.07-4.54ZM190.9,203.78a2.21,2.21,0,0,0-2.18-2.36,2.18,2.18,0,0,0-2.15,2.23A2.14,2.14,0,0,0,188.7,206,2.21,2.21,0,0,0,190.9,203.78ZM46.29,94.1a2.28,2.28,0,0,0,.07-4.56,2.28,2.28,0,0,0-.07,4.56ZM87,94.1a2.17,2.17,0,0,0,2.13-2.26A2.19,2.19,0,0,0,87,89.54a2.23,2.23,0,0,0-2.15,2.27A2.19,2.19,0,0,0,87,94.1Zm53,109.7a2.16,2.16,0,1,0-4.32-.09,2.22,2.22,0,0,0,2.16,2.33A2.19,2.19,0,0,0,140,203.8ZM198.92,94.1a2.28,2.28,0,0,0,0-4.56,2.19,2.19,0,0,0-2.16,2.31A2.15,2.15,0,0,0,198.92,94.1ZM87,150.6a2.28,2.28,0,1,0,2.15,2.24A2.15,2.15,0,0,0,87,150.6Zm10.14,0a2.28,2.28,0,0,0,.06,4.56,2.23,2.23,0,0,0,2.14-2.28A2.2,2.2,0,0,0,97.17,150.6ZM148,171a2.27,2.27,0,0,0,.09,4.54A2.27,2.27,0,0,0,148,171ZM249.77,94.1a2.21,2.21,0,0,0,2.2-2.28,2.24,2.24,0,0,0-2.14-2.28,2.28,2.28,0,0,0-.06,4.56ZM89.17,102a2.16,2.16,0,0,0-2.12-2.27A2.28,2.28,0,1,0,89.17,102Zm48.71,48.61a2.2,2.2,0,0,0-2.16,2.31,2.23,2.23,0,0,0,2.17,2.25,2.2,2.2,0,0,0,2.15-2.33A2.17,2.17,0,0,0,137.88,150.6ZM95,102a2.17,2.17,0,0,0,2.15,2.31,2.28,2.28,0,0,0,0-4.56A2.16,2.16,0,0,0,95,102Zm50.87,50.87a2.19,2.19,0,0,0,2.15,2.32,2.28,2.28,0,0,0,.07-4.56A2.15,2.15,0,0,0,145.92,152.84Zm14.48,40.7a2.16,2.16,0,1,0-4.32.07,2.16,2.16,0,1,0,4.32-.07ZM140,91.82a2.16,2.16,0,1,0-2.19,2.27A2.17,2.17,0,0,0,140,91.82Zm-2.16,7.9a2.28,2.28,0,0,0,0,4.56,2.28,2.28,0,0,0,0-4.56Zm8,2.24a2.17,2.17,0,0,0,2.15,2.32,2.28,2.28,0,0,0,0-4.56A2.14,2.14,0,0,0,145.92,102Zm50.87,20.33a2.15,2.15,0,0,0,2.13,2.32,2.27,2.27,0,0,0,0-4.54A2.14,2.14,0,0,0,196.79,122.3Zm-36.39.06a2.16,2.16,0,1,0-2.13,2.26A2.17,2.17,0,0,0,160.4,122.36Zm0-71.28a2.17,2.17,0,0,0-2.23-2.24,2.28,2.28,0,1,0,2.23,2.24Zm38.52,22.66a2.27,2.27,0,0,0,0-4.54,2.27,2.27,0,0,0,0,4.54ZM89.17,81.67A2.19,2.19,0,0,0,87,79.36a2.29,2.29,0,1,0,2.17,2.31Zm0,61.06A2.19,2.19,0,0,0,87,140.41,2.28,2.28,0,0,0,87,145,2.16,2.16,0,0,0,89.17,142.73Zm26.22-61.18a2.16,2.16,0,1,0,2.29-2.18A2.17,2.17,0,0,0,115.39,81.54ZM198.9,145a2.28,2.28,0,0,0,.06-4.56,2.28,2.28,0,0,0-.06,4.56Zm-50.83,0a2.21,2.21,0,0,0,2.17-2.24,2.24,2.24,0,0,0-2.18-2.32,2.18,2.18,0,0,0-2.14,2.25A2.15,2.15,0,0,0,148.07,145ZM137.91,43.22a2.29,2.29,0,0,0,0-4.56,2.24,2.24,0,0,0-2.15,2.27A2.2,2.2,0,0,0,137.91,43.22Zm53,99.45a2.18,2.18,0,0,0-2.15-2.25,2.23,2.23,0,0,0-2.17,2.31,2.16,2.16,0,1,0,4.32-.06ZM87,175.49A2.27,2.27,0,0,0,87,171a2.27,2.27,0,0,0,0,4.54Zm103.89-53.16a2.15,2.15,0,0,0-2.2-2.26,2.21,2.21,0,0,0-2.12,2.29,2.18,2.18,0,0,0,2.14,2.25A2.15,2.15,0,0,0,190.91,122.33Zm30.53-30.51a2.16,2.16,0,1,0-2.12,2.27A2.2,2.2,0,0,0,221.44,91.82ZM117.56,43.22A2.19,2.19,0,0,0,119.71,41a2.22,2.22,0,0,0-2.18-2.31,2.19,2.19,0,0,0-2.14,2.27A2.17,2.17,0,0,0,117.56,43.22Zm-2.17,160.55a2.18,2.18,0,0,0,2.21,2.27,2.22,2.22,0,0,0,2.11-2.3,2.16,2.16,0,1,0-4.32,0ZM97.2,22.86a2.27,2.27,0,0,0,0-4.54A2.15,2.15,0,0,0,95,20.63,2.14,2.14,0,0,0,97.2,22.86Zm101.72,173a2.28,2.28,0,0,0,0-4.56,2.28,2.28,0,0,0,0,4.56Zm-50.81-173a2.27,2.27,0,0,0-.08-4.54,2.17,2.17,0,0,0-2.11,2.35A2.13,2.13,0,0,0,148.11,22.86ZM115.39,132.5a2.19,2.19,0,0,0,2.16,2.32,2.29,2.29,0,0,0,0-4.58A2.18,2.18,0,0,0,115.39,132.5ZM190.91,20.58a2.15,2.15,0,0,0-2.12-2.26,2.27,2.27,0,0,0-.05,4.54A2.15,2.15,0,0,0,190.91,20.58Zm-45,30.57a2.17,2.17,0,0,0,2.14,2.25,2.26,2.26,0,0,0,2.18-2.33A2.21,2.21,0,0,0,148,48.85,2.15,2.15,0,0,0,145.92,51.16Zm73.37,99.44a2.28,2.28,0,1,0,2.15,2.32A2.2,2.2,0,0,0,219.29,150.6ZM140,142.73a2.19,2.19,0,0,0-2.15-2.32,2.23,2.23,0,0,0-2.16,2.26,2.19,2.19,0,0,0,2.17,2.3A2.16,2.16,0,0,0,140,142.73ZM66.7,94.09a2.28,2.28,0,1,0-2.18-2.28A2.16,2.16,0,0,0,66.7,94.09Zm81.38,101.75a2.28,2.28,0,0,0,0-4.55,2.18,2.18,0,0,0-2.13,2.27A2.15,2.15,0,0,0,148.09,195.85ZM95,173.2a2.14,2.14,0,0,0,2.16,2.29,2.27,2.27,0,0,0,0-4.54A2.14,2.14,0,0,0,95,173.2ZM66.71,150.6a2.16,2.16,0,0,0-2.19,2.27,2.19,2.19,0,0,0,2.11,2.29,2.28,2.28,0,0,0,.07-4.56Zm101.72,50.88a2.28,2.28,0,1,0,2.14,2.32A2.19,2.19,0,0,0,168.43,201.47Zm0-158.26a2.29,2.29,0,0,0,0-4.56,2.23,2.23,0,0,0-2.19,2.3A2.19,2.19,0,0,0,168.39,43.22ZM137.91,175.49a2.17,2.17,0,0,0,2.13-2.33,2.14,2.14,0,0,0-2.17-2.21,2.27,2.27,0,0,0,0,4.54ZM148,124.62a2.27,2.27,0,0,0,.07-4.54,2.14,2.14,0,0,0-2.18,2.2A2.16,2.16,0,0,0,148,124.62Zm-8-2.28a2.15,2.15,0,0,0-2.2-2.26,2.27,2.27,0,0,0,0,4.54A2.16,2.16,0,0,0,140,122.34ZM89.17,71.45A2.16,2.16,0,0,0,87,69.2a2.21,2.21,0,0,0-2.11,2.3,2.16,2.16,0,1,0,4.32,0ZM221.44,41a2.16,2.16,0,1,0-2.21,2.26A2.17,2.17,0,0,0,221.44,41ZM95,122.3a2.15,2.15,0,0,0,2.13,2.32,2.27,2.27,0,0,0,0-4.54A2.14,2.14,0,0,0,95,122.3Zm75.52-30.4a2.16,2.16,0,1,0-2.27,2.2A2.17,2.17,0,0,0,170.57,91.89Zm20.34-20.42a2.15,2.15,0,0,0-2.18-2.27,2.27,2.27,0,0,0,0,4.54A2.16,2.16,0,0,0,190.91,71.47ZM64.52,102a2.17,2.17,0,0,0,2.18,2.29,2.28,2.28,0,0,0,0-4.56A2.16,2.16,0,0,0,64.52,102ZM140,20.6a2.16,2.16,0,0,0-2.11-2.27,2.27,2.27,0,0,0,0,4.54A2.15,2.15,0,0,0,140,20.6Zm58.87,28.25A2.28,2.28,0,0,0,199,53.4a2.23,2.23,0,0,0,2.14-2.28A2.2,2.2,0,0,0,198.91,48.85ZM168.42,150.6a2.28,2.28,0,0,0,0,4.56,2.21,2.21,0,0,0,2.17-2.31A2.18,2.18,0,0,0,168.42,150.6ZM89.17,122.32A2.16,2.16,0,0,0,87,120.08a2.27,2.27,0,0,0,0,4.54A2.16,2.16,0,0,0,89.17,122.32Zm58.94-48.58A2.27,2.27,0,0,0,148,69.2a2.16,2.16,0,0,0-2.11,2.35A2.13,2.13,0,0,0,148.11,73.74Zm-50.92,0a2.27,2.27,0,0,0,0-4.54,2.27,2.27,0,0,0,0,4.54Zm40.72,0a2.27,2.27,0,0,0,0-4.54,2.27,2.27,0,0,0,0,4.54ZM219.29,145a2.17,2.17,0,0,0,2.15-2.24,2.19,2.19,0,0,0-2.16-2.32,2.22,2.22,0,0,0-2.16,2.25A2.2,2.2,0,0,0,219.29,145ZM115.39,91.8a2.17,2.17,0,0,0,2.17,2.3,2.28,2.28,0,1,0-2.17-2.3Zm83.56-68.94a2.27,2.27,0,0,0,0-4.54,2.16,2.16,0,0,0-2.14,2.32A2.14,2.14,0,0,0,198.95,22.86Zm0,152.63a2.27,2.27,0,0,0,0-4.54,2.27,2.27,0,0,0,0,4.54ZM117.56,99.72a2.28,2.28,0,0,0,0,4.56,2.28,2.28,0,0,0,0-4.56Zm-53-48.62A2.18,2.18,0,0,0,66.7,53.4a2.28,2.28,0,0,0,0-4.55A2.16,2.16,0,0,0,64.52,51.11Zm53,99.49a2.16,2.16,0,0,0-2.15,2.24,2.16,2.16,0,1,0,2.15-2.24Zm0-101.75a2.28,2.28,0,0,0,0,4.56,2.28,2.28,0,0,0,0-4.56Zm50.86,0a2.28,2.28,0,1,0,2.18,2.29A2.17,2.17,0,0,0,168.39,48.85Zm2.18,93.86a2.16,2.16,0,1,0-4.32,0,2.16,2.16,0,1,0,4.32,0ZM66.67,145a2.2,2.2,0,0,0,2.18-2.3,2.23,2.23,0,0,0-2.16-2.26,2.18,2.18,0,0,0-2.16,2.24A2.16,2.16,0,0,0,66.67,145Zm154.77-43a2.17,2.17,0,0,0-2.18-2.28,2.28,2.28,0,1,0,2.18,2.28Zm26.22,0a2.18,2.18,0,0,0,2.13,2.27A2.24,2.24,0,0,0,252,102a2.21,2.21,0,0,0-2.16-2.25A2.15,2.15,0,0,0,247.66,102ZM221.44,51.15a2.16,2.16,0,1,0-4.32-.06,2.16,2.16,0,1,0,4.32.06ZM117.56,145a2.28,2.28,0,1,0-2.17-2.29A2.16,2.16,0,0,0,117.56,145Zm53-42.94a2.16,2.16,0,1,0-4.32-.06,2.16,2.16,0,1,0,4.32.06Zm-53,93.82a2.19,2.19,0,0,0,2.18-2.29,2.22,2.22,0,0,0-2.15-2.26,2.19,2.19,0,0,0-2.17,2.3A2.16,2.16,0,0,0,117.53,195.85ZM219.3,120.08a2.27,2.27,0,1,0,2.13,2.26A2.18,2.18,0,0,0,219.3,120.08Zm0-46.34a2.27,2.27,0,0,0,0-4.54,2.27,2.27,0,0,0,0,4.54Zm-152.64,0a2.27,2.27,0,0,0,.08-4.54,2.27,2.27,0,0,0-.08,4.54ZM219.26,175.49a2.27,2.27,0,0,0,.05-4.54,2.27,2.27,0,0,0-.05,4.54Zm-50.82,20.36a2.28,2.28,0,1,0-2.18-2.28A2.17,2.17,0,0,0,168.44,195.85Zm81.33-71.23a2.27,2.27,0,0,0,.07-4.54,2.27,2.27,0,0,0-.07,4.54ZM117.52,22.86a2.27,2.27,0,0,0,0-4.54,2.16,2.16,0,0,0-2.17,2.28A2.16,2.16,0,0,0,117.52,22.86Zm0,152.63a2.27,2.27,0,1,0-2.17-2.22A2.16,2.16,0,0,0,117.56,175.49ZM66.67,124.62a2.27,2.27,0,0,0,0-4.54,2.27,2.27,0,0,0,0,4.54Zm50.85-50.88a2.27,2.27,0,1,0-2.14-2.32A2.17,2.17,0,0,0,117.53,73.74Zm0,50.88a2.27,2.27,0,1,0-2.15-2.3A2.17,2.17,0,0,0,117.54,124.62Zm51-106.29a2.16,2.16,0,0,0-2.26,2.2,2.18,2.18,0,0,0,2.05,2.33,2.16,2.16,0,0,0,2.26-2.2A2.19,2.19,0,0,0,168.51,18.33ZM168.45,171a2.27,2.27,0,1,0,2.12,2.27A2.17,2.17,0,0,0,168.45,171Zm0-97.22a2.27,2.27,0,1,0-2.21-2.26A2.16,2.16,0,0,0,168.46,73.74Zm0,50.88a2.27,2.27,0,1,0-2.16-2.29A2.17,2.17,0,0,0,168.42,124.62Zm-1.89,88.62a1.51,1.51,0,0,0,1.37,1.63,1.56,1.56,0,0,0,.15-3.12A1.49,1.49,0,0,0,166.54,213.24ZM49.37,142.33a1.55,1.55,0,0,0-1.52-1.52,1.58,1.58,0,0,0-1.61,1.5,1.55,1.55,0,0,0,1.56,1.47A1.52,1.52,0,0,0,49.37,142.33Zm189.37,18.86a1.58,1.58,0,0,0-1.56,1.48,1.55,1.55,0,0,0,1.61,1.5,1.52,1.52,0,0,0,1.52-1.5A1.56,1.56,0,0,0,238.74,161.19Zm-181.36,3a1.52,1.52,0,0,0,1.53-1.49,1.57,1.57,0,1,0-1.53,1.49ZM156.64,1.88a1.48,1.48,0,0,0,1.46,1.54,1.61,1.61,0,0,0,1.5-1.55A1.57,1.57,0,0,0,158.06.3,1.49,1.49,0,0,0,156.64,1.88Zm50.88,19.18A1.51,1.51,0,0,0,209,22.64a1.56,1.56,0,0,0,0-3.12A1.51,1.51,0,0,0,207.52,21.06ZM156.64,213.28a1.49,1.49,0,0,0,1.41,1.59,1.6,1.6,0,0,0,1.55-1.57,1.58,1.58,0,0,0-1.49-1.55A1.48,1.48,0,0,0,156.64,213.28Zm21.26-1.53a1.57,1.57,0,0,0,0,3.13,1.6,1.6,0,0,0,1.54-1.58A1.58,1.58,0,0,0,177.9,211.75Zm-50.45-.08a1.53,1.53,0,0,0-1.45,1.57,1.48,1.48,0,0,0,1.46,1.54,1.53,1.53,0,0,0,1.5-1.59A1.57,1.57,0,0,0,127.45,211.67ZM87.22,19.52a1.57,1.57,0,0,0,0,3.13,1.57,1.57,0,0,0,0-3.13ZM96.95,8.89a1.53,1.53,0,0,0-1.44,1.58A1.48,1.48,0,0,0,97,12a1.53,1.53,0,0,0,1.49-1.6A1.57,1.57,0,0,0,96.95,8.89ZM177.89.22a1.55,1.55,0,0,0-1.44,1.61A1.49,1.49,0,0,0,178,3.34a1.52,1.52,0,0,0,1.44-1.59A1.55,1.55,0,0,0,177.89.22ZM127.43,3.33A1.52,1.52,0,0,0,129,1.85,1.57,1.57,0,0,0,127.49.22,1.53,1.53,0,0,0,126,1.76,1.49,1.49,0,0,0,127.43,3.33Zm11.43,210a1.5,1.5,0,0,0-1.48-1.55,1.57,1.57,0,0,0,0,3.13A1.52,1.52,0,0,0,138.86,213.29Zm10.7-.26a1.46,1.46,0,0,0-1.43-1.58,1.53,1.53,0,0,0-1.52,1.52,1.59,1.59,0,0,0,1.46,1.6A1.51,1.51,0,0,0,149.56,213Zm-32.23,1.34a1.48,1.48,0,0,0,1.56-1.45,1.57,1.57,0,1,0-1.56,1.45ZM200,203.69a1.56,1.56,0,0,0-3.11,0,1.53,1.53,0,0,0,1.62,1.48A1.5,1.5,0,0,0,200,203.69ZM96.9,202.24a1.56,1.56,0,0,0-1.57,1.46,1.53,1.53,0,0,0,1.58,1.52,1.5,1.5,0,0,0,1.53-1.48A1.54,1.54,0,0,0,96.9,202.24ZM149.56,1.52A1.46,1.46,0,0,0,148.07,0a1.54,1.54,0,0,0-1.45,1.59,1.58,1.58,0,0,0,1.52,1.54A1.52,1.52,0,0,0,149.56,1.52Zm-30.5.28a1.48,1.48,0,1,0-3,0,1.49,1.49,0,0,0,1.46,1.56A1.51,1.51,0,0,0,119.05,1.79Zm50.44,0A1.53,1.53,0,0,0,168,.22a1.55,1.55,0,0,0-1.48,1.57,1.48,1.48,0,1,0,3,0Zm-30.64.09A1.5,1.5,0,0,0,137.41.3a1.54,1.54,0,0,0-1.5,1.54,1.54,1.54,0,0,0,1.46,1.59A1.51,1.51,0,0,0,138.86,1.88Zm61.71,8.56a1.53,1.53,0,0,0-1.49-1.55,1.56,1.56,0,0,0-1.46,1.59,1.48,1.48,0,1,0,3,0Zm8.63,184.4a1.51,1.51,0,0,0,1.49-1.54,1.48,1.48,0,1,0-3,0A1.49,1.49,0,0,0,209.2,194.84Zm-122,0a1.5,1.5,0,0,0,1.53-1.5,1.55,1.55,0,0,0-1.43-1.61,1.53,1.53,0,0,0-1.52,1.52A1.49,1.49,0,0,0,87.17,194.84ZM250,142.4a1.53,1.53,0,0,0-1.49-1.55,1.56,1.56,0,0,0-1.46,1.59,1.48,1.48,0,1,0,3,0ZM57.2,53.07a1.48,1.48,0,0,0,1.56-1.45,1.57,1.57,0,1,0-1.56,1.45Zm181.56,0a1.48,1.48,0,0,0,1.53-1.49,1.57,1.57,0,1,0-1.53,1.49ZM250,72.33a1.53,1.53,0,0,0-1.46-1.58,1.55,1.55,0,0,0-1.49,1.55,1.48,1.48,0,1,0,2.95,0ZM46.85,73.74a1.47,1.47,0,0,0,1.58-1.43,1.5,1.5,0,0,0-1.52-1.5,1.51,1.51,0,0,0-1.58,1.44A1.49,1.49,0,0,0,46.85,73.74Z" style="fill:#e0ed3a"/>
            <path d="M250.1,134.85a2.25,2.25,0,0,1-2.44-2.28,2.17,2.17,0,0,1,2.12-2.33,2.3,2.3,0,0,1,2.45,2.28A2.2,2.2,0,0,1,250.1,134.85Z" style="fill:#e0ed3a"/>
            <path d="M247.66,81.66A2.32,2.32,0,0,1,250,79.29a2.18,2.18,0,0,1,2.21,2.26,2.37,2.37,0,0,1-2.45,2.39A2.18,2.18,0,0,1,247.66,81.66Z" style="fill:#e0ed3a"/>
            <path d="M44.18,122.3a2.12,2.12,0,0,1,2.15-2.21,2.36,2.36,0,0,1,2.33,2.43,2.19,2.19,0,0,1-2.17,2.22A2.36,2.36,0,0,1,44.18,122.3Z" style="fill:#e0ed3a"/>
            <path d="M227.31,41a2.29,2.29,0,0,1,2.3-2.36,2.19,2.19,0,0,1,2.17,2.3,2.32,2.32,0,0,1-2.35,2.32A2.15,2.15,0,0,1,227.31,41Z" style="fill:#e0ed3a"/>
            <path d="M46.17,134.85A2.16,2.16,0,0,1,44,132.56a2.27,2.27,0,0,1,2.34-2.32,2.23,2.23,0,0,1,2.15,2.27A2.31,2.31,0,0,1,46.17,134.85Z" style="fill:#e0ed3a"/>
            <path d="M227.31,173.23a2.13,2.13,0,0,1,2.18-2.27,2.3,2.3,0,0,1,.15,4.59A2.26,2.26,0,0,1,227.31,173.23Z" style="fill:#e0ed3a"/>
            <path d="M74.71,183.4a2.18,2.18,0,0,1,2.11-2.28,2.27,2.27,0,0,1,2.27,2.32A2.2,2.2,0,0,1,77,185.73,2.28,2.28,0,0,1,74.71,183.4Z" style="fill:#e0ed3a"/>
            <path d="M48.48,81.64a2.23,2.23,0,0,1-2.06,2.28,2.21,2.21,0,0,1-2.26-2.08,2.17,2.17,0,0,1,2.61-2.5A2.28,2.28,0,0,1,48.48,81.64Z" style="fill:#e0ed3a"/>
            <path d="M68.85,40.87a2.24,2.24,0,0,1-2.14,2.34,2.31,2.31,0,1,1,2.14-2.34Z" style="fill:#e0ed3a"/>
            <path d="M219.26,185.73a2.31,2.31,0,0,1,0-4.61,2.25,2.25,0,0,1,2.19,2.32A2.22,2.22,0,0,1,219.26,185.73Z" style="fill:#e0ed3a"/>
            <path d="M190.91,61.27a2.19,2.19,0,0,1-2.17,2.31,2.22,2.22,0,0,1-2.15-2.27A2.25,2.25,0,0,1,188.78,59,2.19,2.19,0,0,1,190.91,61.27Z" style="fill:#e0ed3a"/>
            <path d="M178.6,28.48a2.29,2.29,0,0,1,0,4.58,2.2,2.2,0,0,1-2.14-2.34A2.17,2.17,0,0,1,178.6,28.48Z" style="fill:#e0ed3a"/>
            <path d="M95,81.67a2.18,2.18,0,0,1,2.16-2.31,2.29,2.29,0,0,1,0,4.58A2.18,2.18,0,0,1,95,81.67Z" style="fill:#e0ed3a"/>
            <path d="M109.53,81.66a2.2,2.2,0,0,1-2.21,2.27,2.23,2.23,0,0,1-2.11-2.31,2.16,2.16,0,1,1,4.32,0Z" style="fill:#e0ed3a"/>
            <path d="M176.44,112.19a2.2,2.2,0,0,1,2.17-2.31,2.3,2.3,0,0,1,0,4.58A2.17,2.17,0,0,1,176.44,112.19Z" style="fill:#e0ed3a"/>
            <path d="M229.44,109.88a2.29,2.29,0,0,1,0,4.58,2.3,2.3,0,0,1,0-4.58Z" style="fill:#e0ed3a"/>
            <path d="M176.44,81.65a2.17,2.17,0,0,1,2.18-2.29,2.29,2.29,0,0,1-.07,4.58A2.19,2.19,0,0,1,176.44,81.65Z" style="fill:#e0ed3a"/>
            <path d="M109.52,183.41a2.16,2.16,0,1,1-2.18-2.3A2.19,2.19,0,0,1,109.52,183.41Z" style="fill:#e0ed3a"/>
            <path d="M95,183.38a2.17,2.17,0,0,1,2.13-2.27,2.29,2.29,0,0,1,0,4.58A2.19,2.19,0,0,1,95,183.38Z" style="fill:#e0ed3a"/>
            <path d="M95,163a2.18,2.18,0,0,1,2.13-2.27,2.29,2.29,0,0,1,0,4.58A2.17,2.17,0,0,1,95,163Z" style="fill:#e0ed3a"/>
            <path d="M109.52,163a2.16,2.16,0,1,1-4.32,0,2.16,2.16,0,1,1,4.32,0Z" style="fill:#e0ed3a"/>
            <path d="M140,61.31a2.16,2.16,0,1,1-4.32,0A2.24,2.24,0,0,1,137.87,59,2.21,2.21,0,0,1,140,61.31Z" style="fill:#e0ed3a"/>
            <path d="M176.44,10.44a2.2,2.2,0,0,1,2.16-2.32,2.24,2.24,0,0,1,2.16,2.27,2.23,2.23,0,0,1-2.18,2.31A2.17,2.17,0,0,1,176.44,10.44Z" style="fill:#e0ed3a"/>
            <path d="M176.44,61.32A2.2,2.2,0,0,1,178.6,59a2.29,2.29,0,0,1,0,4.58A2.18,2.18,0,0,1,176.44,61.32Z" style="fill:#e0ed3a"/>
            <path d="M95,132.52a2.17,2.17,0,0,1,2.12-2.28,2.29,2.29,0,0,1,0,4.58A2.18,2.18,0,0,1,95,132.52Z" style="fill:#e0ed3a"/>
            <path d="M176.43,163.09a2.16,2.16,0,1,1,2.15,2.25A2.17,2.17,0,0,1,176.43,163.09Z" style="fill:#e0ed3a"/>
            <path d="M109.52,132.49a2.16,2.16,0,1,1-2.15-2.25A2.21,2.21,0,0,1,109.52,132.49Z" style="fill:#e0ed3a"/>
            <path d="M125.56,132.49a2.19,2.19,0,0,1,2.15-2.25,2.29,2.29,0,0,1,0,4.58A2.2,2.2,0,0,1,125.56,132.49Z" style="fill:#e0ed3a"/>
            <path d="M97.2,59a2.29,2.29,0,0,1,0,4.58,2.29,2.29,0,0,1,0-4.58Z" style="fill:#e0ed3a"/>
            <path d="M79,61.31a2.23,2.23,0,0,1-2.15,2.27,2.29,2.29,0,0,1,0-4.58A2.23,2.23,0,0,1,79,61.31Z" style="fill:#e0ed3a"/>
            <path d="M58.65,81.61a2.16,2.16,0,1,1-2.16-2.25A2.19,2.19,0,0,1,58.65,81.61Z" style="fill:#e0ed3a"/>
            <path d="M58.65,132.52a2.2,2.2,0,0,1-2.18,2.3,2.29,2.29,0,0,1,0-4.58A2.2,2.2,0,0,1,58.65,132.52Z" style="fill:#e0ed3a"/>
            <path d="M58.65,61.28a2.16,2.16,0,1,1-4.32,0,2.16,2.16,0,1,1,4.32,0Z" style="fill:#e0ed3a"/>
            <path d="M229.44,145a2.16,2.16,0,0,1-2.14-2.32,2.19,2.19,0,0,1,2.16-2.24,2.23,2.23,0,0,1,2.16,2.33A2.2,2.2,0,0,1,229.44,145Z" style="fill:#e0ed3a"/>
            <path d="M145.92,61.32A2.19,2.19,0,0,1,148.07,59a2.29,2.29,0,0,1,0,4.58A2.16,2.16,0,0,1,145.92,61.32Z" style="fill:#e0ed3a"/>
            <path d="M176.44,183.44a2.18,2.18,0,0,1,2.15-2.32,2.22,2.22,0,0,1,2.17,2.25,2.25,2.25,0,0,1-2.17,2.33A2.19,2.19,0,0,1,176.44,183.44Z" style="fill:#e0ed3a"/>
            <path d="M209.12,69.2A2.27,2.27,0,1,1,207,71.42,2.18,2.18,0,0,1,209.12,69.2Z" style="fill:#e0ed3a"/>
            <path d="M176.44,132.49a2.18,2.18,0,0,1,2.15-2.25,2.29,2.29,0,0,1,0,4.58A2.2,2.2,0,0,1,176.44,132.49Z" style="fill:#e0ed3a"/>
            <path d="M209.09,43.22a2.28,2.28,0,0,1,0-4.56A2.21,2.21,0,0,1,211.27,41,2.17,2.17,0,0,1,209.09,43.22Z" style="fill:#e0ed3a"/>
            <path d="M227.31,51.13a2.16,2.16,0,0,1,2.18-2.28,2.19,2.19,0,0,1,2.14,2.26,2.22,2.22,0,0,1-2.2,2.29A2.18,2.18,0,0,1,227.31,51.13Z" style="fill:#e0ed3a"/>
            <path d="M64.52,173.23A2.15,2.15,0,0,1,66.71,171a2.21,2.21,0,0,1,2.14,2.27,2.26,2.26,0,0,1-2.17,2.32A2.19,2.19,0,0,1,64.52,173.23Z" style="fill:#e0ed3a"/>
            <path d="M227.31,61.33A2.2,2.2,0,0,1,229.46,59a2.29,2.29,0,0,1,0,4.58A2.17,2.17,0,0,1,227.31,61.33Z" style="fill:#e0ed3a"/>
            <path d="M227.31,81.61a2.17,2.17,0,0,1,2.15-2.25,2.29,2.29,0,0,1,0,4.58A2.19,2.19,0,0,1,227.31,81.61Z" style="fill:#e0ed3a"/>
            <path d="M95,112.15a2.18,2.18,0,0,1,2.13-2.27,2.26,2.26,0,0,1,2.19,2.31,2.23,2.23,0,0,1-2.16,2.27A2.18,2.18,0,0,1,95,112.15Z" style="fill:#e0ed3a"/>
            <path d="M140,163a2.16,2.16,0,1,1-4.32,0,2.25,2.25,0,0,1,2.18-2.32A2.2,2.2,0,0,1,140,163Z" style="fill:#e0ed3a"/>
            <path d="M211.27,152.88a2.16,2.16,0,1,1-4.32,0,2.16,2.16,0,1,1,4.32,0Z" style="fill:#e0ed3a"/>
            <path d="M160.4,163a2.16,2.16,0,1,1-2.12-2.29A2.2,2.2,0,0,1,160.4,163Z" style="fill:#e0ed3a"/>
            <path d="M105.19,203.68a2.17,2.17,0,1,1,4.33.08,2.1,2.1,0,0,1-2.22,2.2A2.19,2.19,0,0,1,105.19,203.68Z" style="fill:#e0ed3a"/>
            <path d="M227.31,163.08a2.2,2.2,0,0,1,2.16-2.32,2.25,2.25,0,0,1,2.16,2.27,2.22,2.22,0,0,1-2.18,2.31A2.18,2.18,0,0,1,227.31,163.08Z" style="fill:#e0ed3a"/>
            <path d="M109.52,112.17a2.16,2.16,0,1,1-4.32,0,2.16,2.16,0,1,1,4.32,0Z" style="fill:#e0ed3a"/>
            <path d="M79,30.76a2.16,2.16,0,1,1-4.32,0,2.18,2.18,0,0,1,2.18-2.29A2.22,2.22,0,0,1,79,30.76Z" style="fill:#e0ed3a"/>
            <path d="M229.43,99.72a2.2,2.2,0,0,1,2.2,2.28,2.24,2.24,0,0,1-2.15,2.28,2.18,2.18,0,0,1-2.17-2.3A2.15,2.15,0,0,1,229.43,99.72Z" style="fill:#e0ed3a"/>
            <path d="M129.88,183.42a2.16,2.16,0,1,1-4.32-.05,2.18,2.18,0,0,1,2.22-2.26A2.22,2.22,0,0,1,129.88,183.42Z" style="fill:#e0ed3a"/>
            <path d="M148,8.12a2.29,2.29,0,0,1,0,4.58,2.16,2.16,0,0,1-2.17-2.23A2.19,2.19,0,0,1,148,8.12Z" style="fill:#e0ed3a"/>
            <path d="M129.88,112.24a2.23,2.23,0,0,1-2.2,2.22,2.29,2.29,0,0,1,.06-4.58A2.24,2.24,0,0,1,129.88,112.24Z" style="fill:#e0ed3a"/>
            <path d="M127.72,201.48a2.28,2.28,0,1,1-2.15,2.24A2.16,2.16,0,0,1,127.72,201.48Z" style="fill:#e0ed3a"/>
            <path d="M148.1,28.48a2.29,2.29,0,0,1-.06,4.58,2.2,2.2,0,0,1-2.11-2.36A2.16,2.16,0,0,1,148.1,28.48Z" style="fill:#e0ed3a"/>
            <path d="M125.56,81.61a2.19,2.19,0,0,1,2.15-2.25,2.29,2.29,0,1,1-2.15,2.25Z" style="fill:#e0ed3a"/>
            <path d="M125.56,30.74a2.18,2.18,0,0,1,2.15-2.25,2.29,2.29,0,1,1-2.15,2.25Z" style="fill:#e0ed3a"/>
            <path d="M115.39,10.44a2.16,2.16,0,1,1,4.32-.05,2.22,2.22,0,0,1-2.17,2.31A2.19,2.19,0,0,1,115.39,10.44Z" style="fill:#e0ed3a"/>
            <path d="M129.88,10.4a2.21,2.21,0,0,1-2.18,2.31,2.18,2.18,0,0,1-2.14-2.26,2.2,2.2,0,0,1,2.17-2.32A2.24,2.24,0,0,1,129.88,10.4Z" style="fill:#e0ed3a"/>
            <path d="M109.52,30.8a2.16,2.16,0,1,1-2.16-2.32A2.19,2.19,0,0,1,109.52,30.8Z" style="fill:#e0ed3a"/>
            <path d="M145.92,81.55a2.15,2.15,0,0,1,2.21-2.18,2.29,2.29,0,0,1-.13,4.58A2.19,2.19,0,0,1,145.92,81.55Z" style="fill:#e0ed3a"/>
            <path d="M190.91,91.85a2.16,2.16,0,0,1-2.15,2.24,2.19,2.19,0,0,1-2.17-2.3,2.23,2.23,0,0,1,2.16-2.26A2.2,2.2,0,0,1,190.91,91.85Z" style="fill:#e0ed3a"/>
            <path d="M239.65,99.72a2.28,2.28,0,0,1-.05,4.56,2.28,2.28,0,0,1,.05-4.56Z" style="fill:#e0ed3a"/>
            <path d="M79,91.78a2.21,2.21,0,0,1-2.09,2.31,2.16,2.16,0,0,1-2.23-2.24A2.16,2.16,0,1,1,79,91.78Z" style="fill:#e0ed3a"/>
            <path d="M127.7,94.1a2.16,2.16,0,0,1-2.14-2.32,2.2,2.2,0,0,1,2.17-2.24,2.22,2.22,0,0,1,2.15,2.34A2.19,2.19,0,0,1,127.7,94.1Z" style="fill:#e0ed3a"/>
            <path d="M58.65,112.15a2.16,2.16,0,1,1-4.32,0,2.24,2.24,0,0,1,2.11-2.31A2.2,2.2,0,0,1,58.65,112.15Z" style="fill:#e0ed3a"/>
            <path d="M227.31,91.83a2.21,2.21,0,0,1,2.11-2.3,2.23,2.23,0,0,1,2.21,2.28,2.2,2.2,0,0,1-2.2,2.28A2.15,2.15,0,0,1,227.31,91.83Z" style="fill:#e0ed3a"/>
            <path d="M211.27,122.34a2.16,2.16,0,1,1-2.13-2.27A2.18,2.18,0,0,1,211.27,122.34Z" style="fill:#e0ed3a"/>
            <path d="M221.44,61.28a2.16,2.16,0,1,1-4.32,0,2.16,2.16,0,1,1,4.32,0Z" style="fill:#e0ed3a"/>
            <path d="M140,112.16a2.19,2.19,0,0,1-2.18,2.29,2.29,2.29,0,1,1,2.18-2.29Z" style="fill:#e0ed3a"/>
            <path d="M66.68,79.36a2.29,2.29,0,0,1,0,4.58,2.19,2.19,0,0,1-2.13-2.34A2.17,2.17,0,0,1,66.68,79.36Z" style="fill:#e0ed3a"/>
            <path d="M160.4,183.4a2.16,2.16,0,1,1-4.32,0,2.16,2.16,0,1,1,4.32,0Z" style="fill:#e0ed3a"/>
            <path d="M145.92,112.14a2.19,2.19,0,0,1,2.14-2.26,2.26,2.26,0,0,1,2.18,2.32,2.23,2.23,0,0,1-2.17,2.26A2.17,2.17,0,0,1,145.92,112.14Z" style="fill:#e0ed3a"/>
            <path d="M140,81.72a2.19,2.19,0,0,1-2.19,2.21,2.24,2.24,0,0,1-2.13-2.37,2.16,2.16,0,1,1,4.32.15Z" style="fill:#e0ed3a"/>
            <path d="M160.4,112.2a2.16,2.16,0,1,1-2.17-2.32A2.21,2.21,0,0,1,160.4,112.2Z" style="fill:#e0ed3a"/>
            <path d="M160.4,81.67a2.16,2.16,0,1,1-2.17-2.31A2.22,2.22,0,0,1,160.4,81.67Z" style="fill:#e0ed3a"/>
            <path d="M198.95,109.88a2.26,2.26,0,0,1,2.16,2.34,2.22,2.22,0,0,1-2.19,2.24,2.29,2.29,0,0,1,0-4.58Z" style="fill:#e0ed3a"/>
            <path d="M221.44,112.17a2.16,2.16,0,1,1-4.32,0,2.22,2.22,0,0,1,2.2-2.29A2.2,2.2,0,0,1,221.44,112.17Z" style="fill:#e0ed3a"/>
            <path d="M190.91,183.38a2.16,2.16,0,1,1-4.32,0,2.23,2.23,0,0,1,2.19-2.31A2.19,2.19,0,0,1,190.91,183.38Z" style="fill:#e0ed3a"/>
            <path d="M241.78,112.14a2.16,2.16,0,1,1-4.32.06,2.25,2.25,0,0,1,2.17-2.33A2.21,2.21,0,0,1,241.78,112.14Z" style="fill:#e0ed3a"/>
            <path d="M145.92,183.35a2.18,2.18,0,0,1,2.16-2.24,2.29,2.29,0,0,1,0,4.58A2.19,2.19,0,0,1,145.92,183.35Z" style="fill:#e0ed3a"/>
            <path d="M239.64,94.1a2.19,2.19,0,0,1-2.18-2.29,2.23,2.23,0,0,1,2.15-2.27,2.2,2.2,0,0,1,2.17,2.31A2.17,2.17,0,0,1,239.64,94.1Z" style="fill:#e0ed3a"/>
            <path d="M249.81,109.88a2.29,2.29,0,0,1,0,4.58,2.29,2.29,0,0,1,0-4.58Z" style="fill:#e0ed3a"/>
            <path d="M196.79,183.4a2.17,2.17,0,0,1,2.11-2.28,2.23,2.23,0,0,1,2.21,2.29,2.26,2.26,0,0,1-2.14,2.29A2.18,2.18,0,0,1,196.79,183.4Z" style="fill:#e0ed3a"/>
            <path d="M190.91,81.65a2.19,2.19,0,0,1-2.12,2.29,2.29,2.29,0,0,1,0-4.58A2.19,2.19,0,0,1,190.91,81.65Z" style="fill:#e0ed3a"/>
            <path d="M241.78,61.29a2.16,2.16,0,1,1-4.32,0,2.24,2.24,0,0,1,2.2-2.3A2.21,2.21,0,0,1,241.78,61.29Z" style="fill:#e0ed3a"/>
            <path d="M221.44,81.64a2.16,2.16,0,1,1-2.13-2.28A2.2,2.2,0,0,1,221.44,81.64Z" style="fill:#e0ed3a"/>
            <path d="M209.1,175.49a2.27,2.27,0,1,1,2.17-2.22A2.17,2.17,0,0,1,209.1,175.49Z" style="fill:#e0ed3a"/>
            <path d="M76.79,145a2.28,2.28,0,0,1,.1-4.56A2.24,2.24,0,0,1,79,142.79,2.18,2.18,0,0,1,76.79,145Z" style="fill:#e0ed3a"/>
            <path d="M129.88,41a2.2,2.2,0,0,1-2.14,2.26,2.16,2.16,0,0,1-2.17-2.29,2.18,2.18,0,0,1,2.13-2.27A2.21,2.21,0,0,1,129.88,41Z" style="fill:#e0ed3a"/>
            <path d="M79,40.93a2.19,2.19,0,0,1-2.11,2.29A2.16,2.16,0,0,1,74.69,41a2.16,2.16,0,1,1,4.32,0Z" style="fill:#e0ed3a"/>
            <path d="M211.27,30.79a2.16,2.16,0,1,1-2.17-2.31A2.22,2.22,0,0,1,211.27,30.79Z" style="fill:#e0ed3a"/>
            <path d="M196.79,30.74a2.18,2.18,0,0,1,2.14-2.26,2.29,2.29,0,0,1,0,4.58A2.18,2.18,0,0,1,196.79,30.74Z" style="fill:#e0ed3a"/>
            <path d="M190.91,30.8a2.19,2.19,0,0,1-2.14,2.26,2.29,2.29,0,0,1,0-4.58A2.18,2.18,0,0,1,190.91,30.8Z" style="fill:#e0ed3a"/>
            <path d="M160.4,30.76a2.16,2.16,0,1,1-2.13-2.28A2.21,2.21,0,0,1,160.4,30.76Z" style="fill:#e0ed3a"/>
            <path d="M140,30.76a2.19,2.19,0,0,1-2.17,2.3,2.29,2.29,0,0,1,0-4.57A2.18,2.18,0,0,1,140,30.76Z" style="fill:#e0ed3a"/>
            <path d="M89.17,30.74A2.2,2.2,0,0,1,87,33.06a2.29,2.29,0,0,1,0-4.57A2.18,2.18,0,0,1,89.17,30.74Z" style="fill:#e0ed3a"/>
            <path d="M160.4,152.86a2.16,2.16,0,1,1-2.21-2.26A2.18,2.18,0,0,1,160.4,152.86Z" style="fill:#e0ed3a"/>
            <path d="M79,163.08a2.22,2.22,0,0,1-2.16,2.26,2.29,2.29,0,0,1,0-4.58A2.22,2.22,0,0,1,79,163.08Z" style="fill:#e0ed3a"/>
            <path d="M190.91,193.55a2.16,2.16,0,0,1-2.16,2.3,2.19,2.19,0,0,1-2.16-2.24,2.16,2.16,0,1,1,4.32-.06Z" style="fill:#e0ed3a"/>
            <path d="M129.88,163a2.21,2.21,0,0,1-2.19,2.3,2.18,2.18,0,0,1-2.13-2.27,2.2,2.2,0,0,1,2.1-2.31A2.23,2.23,0,0,1,129.88,163Z" style="fill:#e0ed3a"/>
            <path d="M190.9,10.49a2.17,2.17,0,1,1-4.33-.12,2.16,2.16,0,0,1,2.18-2.19A2.19,2.19,0,0,1,190.9,10.49Z" style="fill:#e0ed3a"/>
            <path d="M198.91,160.76a2.29,2.29,0,0,1,0,4.58,2.16,2.16,0,0,1-2.17-2.22A2.2,2.2,0,0,1,198.91,160.76Z" style="fill:#e0ed3a"/>
            <path d="M206.95,163a2.16,2.16,0,1,1,4.32.07,2.16,2.16,0,1,1-4.32-.07Z" style="fill:#e0ed3a"/>
            <path d="M221.44,163a2.16,2.16,0,1,1-4.32,0,2.25,2.25,0,0,1,2.12-2.31A2.21,2.21,0,0,1,221.44,163Z" style="fill:#e0ed3a"/>
            <path d="M140,10.38a2.19,2.19,0,0,1-2.16,2.32,2.23,2.23,0,0,1-2.17-2.26,2.24,2.24,0,0,1,2.17-2.32A2.2,2.2,0,0,1,140,10.38Z" style="fill:#e0ed3a"/>
            <path d="M158.25,201.48a2.28,2.28,0,1,1-2.18,2.3A2.18,2.18,0,0,1,158.25,201.48Z" style="fill:#e0ed3a"/>
            <path d="M196.79,132.51a2.17,2.17,0,0,1,2.12-2.27,2.29,2.29,0,0,1,0,4.58A2.17,2.17,0,0,1,196.79,132.51Z" style="fill:#e0ed3a"/>
            <path d="M107.35,195.85a2.28,2.28,0,1,1,2.18-2.21A2.18,2.18,0,0,1,107.35,195.85Z" style="fill:#e0ed3a"/>
            <path d="M66.65,130.24a2.29,2.29,0,0,1,0,4.58,2.29,2.29,0,0,1,0-4.58Z" style="fill:#e0ed3a"/>
            <path d="M109.52,61.29A2.16,2.16,0,1,1,107.4,59,2.21,2.21,0,0,1,109.52,61.29Z" style="fill:#e0ed3a"/>
            <path d="M89.17,132.51a2.2,2.2,0,0,1-2.18,2.3,2.29,2.29,0,0,1,0-4.58A2.2,2.2,0,0,1,89.17,132.51Z" style="fill:#e0ed3a"/>
            <path d="M140,132.49a2.2,2.2,0,0,1-2.15,2.33,2.29,2.29,0,0,1,0-4.58A2.18,2.18,0,0,1,140,132.49Z" style="fill:#e0ed3a"/>
            <path d="M129.88,51.1a2.21,2.21,0,0,1-2.18,2.3,2.28,2.28,0,1,1,2.18-2.3Z" style="fill:#e0ed3a"/>
            <path d="M125.56,61.28A2.2,2.2,0,0,1,127.7,59a2.29,2.29,0,0,1,0,4.58A2.18,2.18,0,0,1,125.56,61.28Z" style="fill:#e0ed3a"/>
            <path d="M221.44,132.5a2.2,2.2,0,0,1-2.17,2.31,2.29,2.29,0,0,1,0-4.58A2.18,2.18,0,0,1,221.44,132.5Z" style="fill:#e0ed3a"/>
            <path d="M229.45,130.24a2.29,2.29,0,1,1-2.15,2.26A2.19,2.19,0,0,1,229.45,130.24Z" style="fill:#e0ed3a"/>
            <path d="M64.52,112.14a2.21,2.21,0,0,1,2.15-2.26,2.25,2.25,0,0,1,2.17,2.33,2.21,2.21,0,0,1-2.16,2.25A2.18,2.18,0,0,1,64.52,112.14Z" style="fill:#e0ed3a"/>
            <path d="M148.08,160.76a2.26,2.26,0,0,1,2.16,2.34,2.23,2.23,0,0,1-2.18,2.24,2.17,2.17,0,0,1-2.14-2.33A2.2,2.2,0,0,1,148.08,160.76Z" style="fill:#e0ed3a"/>
            <path d="M190.91,163.07a2.19,2.19,0,0,1-2.14,2.27,2.29,2.29,0,0,1,0-4.58A2.2,2.2,0,0,1,190.91,163.07Z" style="fill:#e0ed3a"/>
            <path d="M46.32,109.88a2.29,2.29,0,0,1,0,4.58,2.17,2.17,0,0,1-2.16-2.24A2.2,2.2,0,0,1,46.32,109.88Z" style="fill:#e0ed3a"/>
            <path d="M115.39,183.37a2.18,2.18,0,0,1,2.22-2.25,2.29,2.29,0,0,1-.06,4.58A2.2,2.2,0,0,1,115.39,183.37Z" style="fill:#e0ed3a"/>
            <path d="M148.07,130.24a2.29,2.29,0,0,1,0,4.58,2.29,2.29,0,0,1,0-4.58Z" style="fill:#e0ed3a"/>
            <path d="M64.52,163.07a2.16,2.16,0,1,1,2.14,2.26A2.18,2.18,0,0,1,64.52,163.07Z" style="fill:#e0ed3a"/>
            <path d="M229.43,124.62a2.27,2.27,0,0,1,.06-4.54,2.27,2.27,0,0,1-.06,4.54Z" style="fill:#e0ed3a"/>
            <path d="M241.78,122.38a2.16,2.16,0,1,1-2.16-2.3A2.17,2.17,0,0,1,241.78,122.38Z" style="fill:#e0ed3a"/>
            <path d="M140,183.4a2.16,2.16,0,1,1-2.12-2.29A2.19,2.19,0,0,1,140,183.4Z" style="fill:#e0ed3a"/>
            <path d="M160.4,102a2.16,2.16,0,1,1-2.17-2.29A2.19,2.19,0,0,1,160.4,102Z" style="fill:#e0ed3a"/>
            <path d="M127.69,99.72a2.19,2.19,0,0,1,2.19,2.28,2.23,2.23,0,0,1-2.14,2.28,2.19,2.19,0,0,1-2.18-2.3A2.17,2.17,0,0,1,127.69,99.72Z" style="fill:#e0ed3a"/>
            <path d="M127.71,175.49a2.27,2.27,0,0,1,0-4.54,2.27,2.27,0,0,1,0,4.54Z" style="fill:#e0ed3a"/>
            <path d="M74.69,102A2.16,2.16,0,1,1,79,102a2.16,2.16,0,1,1-4.32-.05Z" style="fill:#e0ed3a"/>
            <path d="M58.65,102a2.19,2.19,0,0,1-2.15,2.26A2.21,2.21,0,0,1,54.33,102a2.16,2.16,0,1,1,4.32.06Z" style="fill:#e0ed3a"/>
            <path d="M76.82,171a2.27,2.27,0,0,1,0,4.54,2.27,2.27,0,0,1,0-4.54Z" style="fill:#e0ed3a"/>
            <path d="M107.31,175.5a2.27,2.27,0,1,1,2.21-2.18A2.18,2.18,0,0,1,107.31,175.5Z" style="fill:#e0ed3a"/>
            <path d="M241.78,132.53a2.16,2.16,0,1,1-2.18-2.29A2.18,2.18,0,0,1,241.78,132.53Z" style="fill:#e0ed3a"/>
            <path d="M58.65,142.72a2.16,2.16,0,1,1-2.17-2.3A2.18,2.18,0,0,1,58.65,142.72Z" style="fill:#e0ed3a"/>
            <path d="M109.52,142.68a2.16,2.16,0,1,1-2.15-2.26A2.18,2.18,0,0,1,109.52,142.68Z" style="fill:#e0ed3a"/>
            <path d="M160.4,142.71a2.16,2.16,0,1,1-4.32,0,2.16,2.16,0,1,1,4.32,0Z" style="fill:#e0ed3a"/>
            <path d="M190.91,112.19a2.18,2.18,0,0,1-2.14,2.26,2.21,2.21,0,0,1-2.18-2.3,2.24,2.24,0,0,1,2.15-2.27A2.21,2.21,0,0,1,190.91,112.19Z" style="fill:#e0ed3a"/>
            <path d="M190.91,173.24a2.16,2.16,0,1,1-2.17-2.29A2.15,2.15,0,0,1,190.91,173.24Z" style="fill:#e0ed3a"/>
            <path d="M178.54,145a2.28,2.28,0,0,1,.09-4.56,2.23,2.23,0,0,1,2.12,2.29A2.19,2.19,0,0,1,178.54,145Z" style="fill:#e0ed3a"/>
            <path d="M58.65,122.35a2.16,2.16,0,1,1-4.32,0,2.2,2.2,0,0,1,2.13-2.27A2.17,2.17,0,0,1,58.65,122.35Z" style="fill:#e0ed3a"/>
            <path d="M211.27,142.7a2.16,2.16,0,1,1-2.13-2.28A2.2,2.2,0,0,1,211.27,142.7Z" style="fill:#e0ed3a"/>
            <path d="M241.78,142.69a2.16,2.16,0,1,1-4.32,0,2.23,2.23,0,0,1,2.12-2.3A2.19,2.19,0,0,1,241.78,142.69Z" style="fill:#e0ed3a"/>
            <path d="M178.6,175.49a2.15,2.15,0,0,1-2.16-2.22,2.16,2.16,0,1,1,2.16,2.22Z" style="fill:#e0ed3a"/>
            <path d="M211.27,132.51a2.16,2.16,0,1,1-2.14-2.27A2.22,2.22,0,0,1,211.27,132.51Z" style="fill:#e0ed3a"/>
            <path d="M158.25,175.49a2.27,2.27,0,1,1,2.15-2.24A2.17,2.17,0,0,1,158.25,175.49Z" style="fill:#e0ed3a"/>
            <path d="M109.52,122.34a2.16,2.16,0,1,1-2.21-2.26A2.16,2.16,0,0,1,109.52,122.34Z" style="fill:#e0ed3a"/>
            <path d="M127.72,120.08a2.27,2.27,0,0,1,0,4.54,2.27,2.27,0,0,1,0-4.54Z" style="fill:#e0ed3a"/>
            <path d="M58.65,152.86a2.16,2.16,0,1,1-2.13-2.26A2.17,2.17,0,0,1,58.65,152.86Z" style="fill:#e0ed3a"/>
            <path d="M178.59,120.08a2.27,2.27,0,0,1,0,4.54,2.27,2.27,0,0,1,0-4.54Z" style="fill:#e0ed3a"/>
            <path d="M115.39,112.15a2.2,2.2,0,0,1,2.14-2.27,2.24,2.24,0,0,1,2.17,2.32,2.21,2.21,0,0,1-2.16,2.26A2.18,2.18,0,0,1,115.39,112.15Z" style="fill:#e0ed3a"/>
            <path d="M190.91,132.54a2.2,2.2,0,0,1-2.13,2.27,2.29,2.29,0,0,1,0-4.58A2.2,2.2,0,0,1,190.91,132.54Z" style="fill:#e0ed3a"/>
            <path d="M79,152.85a2.16,2.16,0,1,1-4.32,0,2.16,2.16,0,1,1,4.32,0Z" style="fill:#e0ed3a"/>
            <path d="M107.34,150.6a2.28,2.28,0,1,1-2.14,2.26A2.18,2.18,0,0,1,107.34,150.6Z" style="fill:#e0ed3a"/>
            <path d="M160.4,132.52a2.16,2.16,0,1,1-2.13-2.28A2.21,2.21,0,0,1,160.4,132.52Z" style="fill:#e0ed3a"/>
            <path d="M196.79,152.85a2.15,2.15,0,0,1,2.14-2.25,2.28,2.28,0,0,1,0,4.56A2.17,2.17,0,0,1,196.79,152.85Z" style="fill:#e0ed3a"/>
            <path d="M176.44,51.14a2.16,2.16,0,1,1,4.32,0,2.24,2.24,0,0,1-2.11,2.31A2.18,2.18,0,0,1,176.44,51.14Z" style="fill:#e0ed3a"/>
            <path d="M95,30.79a2.19,2.19,0,0,1,2.09-2.31,2.22,2.22,0,0,1,2.23,2.26,2.25,2.25,0,0,1-2.18,2.32A2.18,2.18,0,0,1,95,30.79Z" style="fill:#e0ed3a"/>
            <path d="M115.39,30.77a2.18,2.18,0,0,1,2.18-2.29,2.29,2.29,0,0,1-.06,4.58A2.19,2.19,0,0,1,115.39,30.77Z" style="fill:#e0ed3a"/>
            <path d="M127.73,195.85a2.16,2.16,0,0,1-2.16-2.23,2.17,2.17,0,1,1,4.32,0A2.19,2.19,0,0,1,127.73,195.85Z" style="fill:#e0ed3a"/>
            <path d="M109.52,71.49a2.16,2.16,0,1,1-2.17-2.29A2.16,2.16,0,0,1,109.52,71.49Z" style="fill:#e0ed3a"/>
            <path d="M89.17,41A2.18,2.18,0,0,1,87,43.22a2.2,2.2,0,0,1-2.18-2.3A2.23,2.23,0,0,1,87,38.66,2.19,2.19,0,0,1,89.17,41Z" style="fill:#e0ed3a"/>
            <path d="M58.65,91.78a2.16,2.16,0,1,1-2.16-2.25A2.19,2.19,0,0,1,58.65,91.78Z" style="fill:#e0ed3a"/>
            <path d="M127.72,69.2a2.27,2.27,0,0,1,0,4.54,2.27,2.27,0,0,1,0-4.54Z" style="fill:#e0ed3a"/>
            <path d="M241.78,81.64a2.2,2.2,0,0,1-2.18,2.3,2.29,2.29,0,0,1,.05-4.58A2.18,2.18,0,0,1,241.78,81.64Z" style="fill:#e0ed3a"/>
            <path d="M107.35,43.22A2.18,2.18,0,0,1,105.21,41a2.17,2.17,0,1,1,4.32,0A2.17,2.17,0,0,1,107.35,43.22Z" style="fill:#e0ed3a"/>
            <path d="M145.92,40.95a2.18,2.18,0,0,1,2.18-2.29,2.25,2.25,0,0,1,2.14,2.28A2.22,2.22,0,0,1,148,43.22,2.16,2.16,0,0,1,145.92,40.95Z" style="fill:#e0ed3a"/>
            <path d="M160.4,40.92a2.16,2.16,0,1,1-4.32,0,2.23,2.23,0,0,1,2.11-2.31A2.2,2.2,0,0,1,160.4,40.92Z" style="fill:#e0ed3a"/>
            <path d="M196.79,81.63a2.18,2.18,0,0,1,2.13-2.27,2.29,2.29,0,0,1,0,4.58A2.18,2.18,0,0,1,196.79,81.63Z" style="fill:#e0ed3a"/>
            <path d="M160.4,71.47a2.16,2.16,0,1,1-4.32,0,2.16,2.16,0,1,1,4.32,0Z" style="fill:#e0ed3a"/>
            <path d="M79,81.61a2.22,2.22,0,0,1-2.16,2.33A2.29,2.29,0,1,1,79,81.61Z" style="fill:#e0ed3a"/>
            <path d="M239.63,73.74a2.27,2.27,0,0,1,0-4.54,2.27,2.27,0,0,1,0,4.54Z" style="fill:#e0ed3a"/>
            <path d="M198.92,43.22a2.28,2.28,0,0,1,0-4.56,2.28,2.28,0,0,1,0,4.56Z" style="fill:#e0ed3a"/>
            <path d="M109.52,51.13a2.16,2.16,0,1,1-4.32,0,2.16,2.16,0,1,1,4.32,0Z" style="fill:#e0ed3a"/>
            <path d="M95,51.08a2.14,2.14,0,0,1,2.22-2.23,2.28,2.28,0,0,1-.07,4.55A2.18,2.18,0,0,1,95,51.08Z" style="fill:#e0ed3a"/>
            <path d="M211.27,61.31A2.16,2.16,0,1,1,209.15,59,2.24,2.24,0,0,1,211.27,61.31Z" style="fill:#e0ed3a"/>
            <path d="M196.79,61.3A2.2,2.2,0,0,1,198.9,59a2.29,2.29,0,0,1,.07,4.58A2.16,2.16,0,0,1,196.79,61.3Z" style="fill:#e0ed3a"/>
            <path d="M170.57,61.39A2.16,2.16,0,1,1,168.47,59,2.2,2.2,0,0,1,170.57,61.39Z" style="fill:#e0ed3a"/>
            <path d="M170.57,10.49a2.16,2.16,0,1,1-4.32-.15,2.2,2.2,0,0,1,2.19-2.22A2.22,2.22,0,0,1,170.57,10.49Z" style="fill:#e0ed3a"/>
            <path d="M109.52,10.43a2.17,2.17,0,1,1-4.33,0,2.18,2.18,0,0,1,2.22-2.24A2.13,2.13,0,0,1,109.52,10.43Z" style="fill:#e0ed3a"/>
            <path d="M56.44,73.74a2.27,2.27,0,1,1,2.21-2.17A2.18,2.18,0,0,1,56.44,73.74Z" style="fill:#e0ed3a"/>
            <path d="M109.53,20.59a2.16,2.16,0,1,1-2.2-2.27A2.17,2.17,0,0,1,109.53,20.59Z" style="fill:#e0ed3a"/>
            <path d="M160.4,61.27A2.16,2.16,0,1,1,158.25,59,2.21,2.21,0,0,1,160.4,61.27Z" style="fill:#e0ed3a"/>
            <path d="M160.4,91.78a2.2,2.2,0,0,1-2.09,2.31,2.18,2.18,0,0,1-2.23-2.24,2.16,2.16,0,1,1,4.32-.07Z" style="fill:#e0ed3a"/>
            <path d="M89.17,61.29A2.18,2.18,0,0,1,87,63.58a2.22,2.22,0,0,1-2.14-2.28A2.26,2.26,0,0,1,87,59,2.19,2.19,0,0,1,89.17,61.29Z" style="fill:#e0ed3a"/>
            <path d="M66.66,59a2.29,2.29,0,0,1,0,4.58,2.17,2.17,0,0,1-2.16-2.24A2.21,2.21,0,0,1,66.66,59Z" style="fill:#e0ed3a"/>
            <path d="M148,94.1a2.28,2.28,0,0,1,0-4.56,2.28,2.28,0,0,1,0,4.56Z" style="fill:#e0ed3a"/>
            <path d="M211.27,183.38a2.24,2.24,0,0,1-2.11,2.31,2.3,2.3,0,1,1,2.11-2.31Z" style="fill:#e0ed3a"/>
            <path d="M178.56,195.85a2.28,2.28,0,0,1,0-4.55,2.22,2.22,0,0,1,2.14,2.34A2.2,2.2,0,0,1,178.56,195.85Z" style="fill:#e0ed3a"/>
            <path d="M117.54,59a2.29,2.29,0,0,1,0,4.58,2.3,2.3,0,0,1,0-4.58Z" style="fill:#e0ed3a"/>
            <path d="M170.57,132.49a2.16,2.16,0,1,1-2.22-2.25A2.19,2.19,0,0,1,170.57,132.49Z" style="fill:#e0ed3a"/>
            <path d="M137.89,48.85A2.16,2.16,0,0,1,140,51.08a2.18,2.18,0,0,1-2.15,2.32,2.28,2.28,0,0,1,0-4.56Z" style="fill:#e0ed3a"/>
            <path d="M97.16,195.85a2.28,2.28,0,0,1,.07-4.55,2.28,2.28,0,0,1-.07,4.55Z" style="fill:#e0ed3a"/>
            <path d="M140,193.55a2.16,2.16,0,1,1-4.32.06,2.23,2.23,0,0,1,2.18-2.31A2.18,2.18,0,0,1,140,193.55Z" style="fill:#e0ed3a"/>
            <path d="M79,132.56a2.23,2.23,0,0,1-2.16,2.26A2.29,2.29,0,1,1,79,132.56Z" style="fill:#e0ed3a"/>
            <path d="M209.11,48.85a2.17,2.17,0,0,1,2.16,2.24,2.16,2.16,0,1,1-2.16-2.24Z" style="fill:#e0ed3a"/>
            <path d="M190.91,51.09a2.19,2.19,0,0,1-2.16,2.31,2.28,2.28,0,0,1,0-4.55A2.16,2.16,0,0,1,190.91,51.09Z" style="fill:#e0ed3a"/>
            <path d="M178.61,201.48a2.28,2.28,0,1,1-2.18,2.21A2.15,2.15,0,0,1,178.61,201.48Z" style="fill:#e0ed3a"/>
            <path d="M145.92,203.78a2.15,2.15,0,0,1,2.16-2.3,2.22,2.22,0,0,1,2.17,2.25,2.24,2.24,0,0,1-2.18,2.31A2.18,2.18,0,0,1,145.92,203.78Z" style="fill:#e0ed3a"/>
            <path d="M160.4,10.39a2.16,2.16,0,1,1-4.32.06,2.16,2.16,0,1,1,4.32-.06Z" style="fill:#e0ed3a"/>
            <path d="M170.57,163.07a2.16,2.16,0,1,1-2.17-2.32A2.19,2.19,0,0,1,170.57,163.07Z" style="fill:#e0ed3a"/>
            <path d="M127.75,22.86a2.16,2.16,0,0,1-2.18-2.28,2.15,2.15,0,0,1,2.12-2.26,2.27,2.27,0,0,1,.06,4.54Z" style="fill:#e0ed3a"/>
            <path d="M115.39,163a2.2,2.2,0,0,1,2.12-2.29,2.24,2.24,0,0,1,2.2,2.3,2.16,2.16,0,1,1-4.32,0Z" style="fill:#e0ed3a"/>
            <path d="M160.4,20.6a2.16,2.16,0,1,1-2.11-2.28A2.16,2.16,0,0,1,160.4,20.6Z" style="fill:#e0ed3a"/>
            <path d="M89.17,163.06A2.19,2.19,0,0,1,87,165.33a2.3,2.3,0,1,1,2.13-2.27Z" style="fill:#e0ed3a"/>
            <path d="M178.57,22.86a2.15,2.15,0,0,1-2.14-2.32,2.15,2.15,0,0,1,2.16-2.22,2.27,2.27,0,0,1,0,4.54Z" style="fill:#e0ed3a"/>
            <path d="M239.66,150.6a2.28,2.28,0,0,1-.06,4.56,2.21,2.21,0,0,1-2.14-2.28A2.19,2.19,0,0,1,239.66,150.6Z" style="fill:#e0ed3a"/>
            <path d="M227.31,152.89a2.16,2.16,0,0,1,2.17-2.29,2.21,2.21,0,0,1,2.15,2.25,2.23,2.23,0,0,1-2.19,2.3A2.19,2.19,0,0,1,227.31,152.89Z" style="fill:#e0ed3a"/>
            <path d="M188.78,150.6a2.28,2.28,0,0,1,0,4.56,2.22,2.22,0,0,1-2.15-2.34A2.18,2.18,0,0,1,188.78,150.6Z" style="fill:#e0ed3a"/>
            <path d="M178.64,150.6a2.28,2.28,0,1,1-2.2,2.18A2.15,2.15,0,0,1,178.64,150.6Z" style="fill:#e0ed3a"/>
            <path d="M127.68,150.6a2.18,2.18,0,0,1,2.2,2.27,2.21,2.21,0,0,1-2.13,2.29,2.28,2.28,0,0,1-.08-4.56Z" style="fill:#e0ed3a"/>
            <path d="M170.57,30.75a2.16,2.16,0,1,1-2.21-2.27A2.2,2.2,0,0,1,170.57,30.75Z" style="fill:#e0ed3a"/>
            <path d="M221.44,30.8a2.16,2.16,0,1,1-2.16-2.31A2.19,2.19,0,0,1,221.44,30.8Z" style="fill:#e0ed3a"/>
            <path d="M97.17,43.22A2.15,2.15,0,0,1,95,41a2.18,2.18,0,0,1,2.18-2.29,2.24,2.24,0,0,1,2.14,2.28A2.2,2.2,0,0,1,97.17,43.22Z" style="fill:#e0ed3a"/>
            <path d="M125.56,142.6a2.18,2.18,0,0,1,2.21-2.19,2.23,2.23,0,0,1,2.11,2.38,2.16,2.16,0,1,1-4.32-.19Z" style="fill:#e0ed3a"/>
            <path d="M95.05,142.63a2.16,2.16,0,0,1,2.18-2.22,2.28,2.28,0,0,1-.07,4.56A2.15,2.15,0,0,1,95.05,142.63Z" style="fill:#e0ed3a"/>
            <path d="M178.6,43.22A2.15,2.15,0,0,1,176.44,41a2.19,2.19,0,0,1,2.14-2.34A2.24,2.24,0,0,1,180.75,41,2.2,2.2,0,0,1,178.6,43.22Z" style="fill:#e0ed3a"/>
            <path d="M190.91,40.91a2.17,2.17,0,0,1-2.16,2.31A2.19,2.19,0,0,1,186.59,41a2.16,2.16,0,1,1,4.32-.06Z" style="fill:#e0ed3a"/>
            <path d="M74.69,51.11a2.16,2.16,0,1,1,4.32,0,2.16,2.16,0,1,1-4.32,0Z" style="fill:#e0ed3a"/>
            <path d="M89.17,51.12A2.18,2.18,0,0,1,87,53.4a2.28,2.28,0,0,1,.08-4.56A2.18,2.18,0,0,1,89.17,51.12Z" style="fill:#e0ed3a"/>
            <path d="M206.95,81.68a2.16,2.16,0,1,1,2.15,2.26A2.21,2.21,0,0,1,206.95,81.68Z" style="fill:#e0ed3a"/>
            <path d="M79,112.16a2.16,2.16,0,1,1-2.14-2.28A2.24,2.24,0,0,1,79,112.16Z" style="fill:#e0ed3a"/>
            <path d="M89.17,112.22A2.18,2.18,0,0,1,87,114.46a2.29,2.29,0,1,1,2.17-2.24Z" style="fill:#e0ed3a"/>
            <path d="M97.15,94.09a2.28,2.28,0,0,1,.09-4.56,2.28,2.28,0,0,1-.09,4.56Z" style="fill:#e0ed3a"/>
            <path d="M170.57,81.67a2.16,2.16,0,1,1-2.1-2.31A2.21,2.21,0,0,1,170.57,81.67Z" style="fill:#e0ed3a"/>
            <path d="M211.27,102a2.16,2.16,0,1,1-4.32,0,2.16,2.16,0,1,1,4.32,0Z" style="fill:#e0ed3a"/>
            <path d="M198.95,99.72a2.28,2.28,0,0,1,0,4.56,2.28,2.28,0,0,1,0-4.56Z" style="fill:#e0ed3a"/>
            <path d="M170.57,183.41a2.16,2.16,0,1,1-2.11-2.3A2.21,2.21,0,0,1,170.57,183.41Z" style="fill:#e0ed3a"/>
            <path d="M170.57,112.14a2.16,2.16,0,1,1-2.16-2.26A2.2,2.2,0,0,1,170.57,112.14Z" style="fill:#e0ed3a"/>
            <path d="M190.91,102a2.19,2.19,0,0,1-2.13,2.27,2.28,2.28,0,0,1,0-4.56A2.16,2.16,0,0,1,190.91,102Z" style="fill:#e0ed3a"/>
            <path d="M229.46,73.74a2.27,2.27,0,0,1,0-4.54,2.27,2.27,0,0,1,0,4.54Z" style="fill:#e0ed3a"/>
            <path d="M211.27,112.14a2.16,2.16,0,1,1-2.15-2.26A2.22,2.22,0,0,1,211.27,112.14Z" style="fill:#e0ed3a"/>
            <path d="M178.57,73.74a2.27,2.27,0,0,1,0-4.54,2.27,2.27,0,0,1,0,4.54Z" style="fill:#e0ed3a"/>
            <path d="M176.44,102a2.16,2.16,0,0,1,2.15-2.31,2.2,2.2,0,0,1,2.17,2.24,2.22,2.22,0,0,1-2.17,2.32A2.17,2.17,0,0,1,176.44,102Z" style="fill:#e0ed3a"/>
            <path d="M109.52,91.84a2.16,2.16,0,1,1-4.32,0,2.22,2.22,0,0,1,2.15-2.27A2.19,2.19,0,0,1,109.52,91.84Z" style="fill:#e0ed3a"/>
            <path d="M209.14,94.1a2.17,2.17,0,0,1-2.19-2.28,2.16,2.16,0,1,1,2.19,2.28Z" style="fill:#e0ed3a"/>
            <path d="M79,122.35a2.16,2.16,0,1,1-2.19-2.28A2.17,2.17,0,0,1,79,122.35Z" style="fill:#e0ed3a"/>
            <path d="M109.52,102a2.16,2.16,0,1,1-2.21-2.26A2.18,2.18,0,0,1,109.52,102Z" style="fill:#e0ed3a"/>
            <path d="M89.17,183.42A2.2,2.2,0,0,1,87,185.69a2.25,2.25,0,0,1-2.18-2.32,2.16,2.16,0,1,1,4.32,0Z" style="fill:#e0ed3a"/>
            <path d="M178.57,94.1a2.16,2.16,0,0,1-2.13-2.33,2.19,2.19,0,0,1,2.17-2.23,2.22,2.22,0,0,1,2.14,2.34A2.18,2.18,0,0,1,178.57,94.1Z" style="fill:#e0ed3a"/>
            <path d="M44.18,102a2.15,2.15,0,0,1,2.16-2.29A2.2,2.2,0,0,1,48.5,102a2.25,2.25,0,0,1-2.19,2.31A2.18,2.18,0,0,1,44.18,102Z" style="fill:#e0ed3a"/>
            <path d="M76.81,69.2a2.27,2.27,0,1,1-2.12,2.27A2.17,2.17,0,0,1,76.81,69.2Z" style="fill:#e0ed3a"/>
            <path d="M190.9,203.78a2.21,2.21,0,0,1-2.2,2.19,2.14,2.14,0,0,1-2.13-2.31,2.18,2.18,0,0,1,2.15-2.23A2.21,2.21,0,0,1,190.9,203.78Z" style="fill:#e0ed3a"/>
            <path d="M46.29,94.1a2.28,2.28,0,0,1,.07-4.56,2.28,2.28,0,0,1-.07,4.56Z" style="fill:#e0ed3a"/>
            <path d="M87,94.1a2.19,2.19,0,0,1-2.19-2.29A2.23,2.23,0,0,1,87,89.54a2.19,2.19,0,0,1,2.17,2.3A2.17,2.17,0,0,1,87,94.1Z" style="fill:#e0ed3a"/>
            <path d="M140,203.8a2.19,2.19,0,0,1-2.16,2.24,2.22,2.22,0,0,1-2.16-2.33,2.16,2.16,0,1,1,4.32.09Z" style="fill:#e0ed3a"/>
            <path d="M198.92,94.1a2.15,2.15,0,0,1-2.13-2.25,2.19,2.19,0,0,1,2.16-2.31,2.28,2.28,0,0,1,0,4.56Z" style="fill:#e0ed3a"/>
            <path d="M87,150.6a2.15,2.15,0,0,1,2.15,2.24A2.19,2.19,0,0,1,87,155.16a2.28,2.28,0,0,1,0-4.56Z" style="fill:#e0ed3a"/>
            <path d="M97.17,150.6a2.2,2.2,0,0,1,2.2,2.28,2.23,2.23,0,0,1-2.14,2.28,2.28,2.28,0,0,1-.06-4.56Z" style="fill:#e0ed3a"/>
            <path d="M148,171a2.27,2.27,0,0,1,.09,4.54A2.27,2.27,0,0,1,148,171Z" style="fill:#e0ed3a"/>
            <path d="M249.77,94.1a2.28,2.28,0,0,1,.06-4.56A2.24,2.24,0,0,1,252,91.82,2.21,2.21,0,0,1,249.77,94.1Z" style="fill:#e0ed3a"/>
            <path d="M89.17,102a2.18,2.18,0,0,1-2.11,2.29,2.28,2.28,0,0,1,0-4.56A2.16,2.16,0,0,1,89.17,102Z" style="fill:#e0ed3a"/>
            <path d="M137.88,150.6a2.17,2.17,0,0,1,2.16,2.23,2.2,2.2,0,0,1-2.15,2.33,2.23,2.23,0,0,1-2.17-2.25A2.2,2.2,0,0,1,137.88,150.6Z" style="fill:#e0ed3a"/>
            <path d="M95,102a2.16,2.16,0,0,1,2.14-2.24,2.28,2.28,0,0,1,0,4.56A2.17,2.17,0,0,1,95,102Z" style="fill:#e0ed3a"/>
            <path d="M145.92,152.84a2.15,2.15,0,0,1,2.22-2.24,2.28,2.28,0,0,1-.07,4.56A2.19,2.19,0,0,1,145.92,152.84Z" style="fill:#e0ed3a"/>
            <path d="M160.4,193.54a2.16,2.16,0,1,1-2.16-2.25A2.19,2.19,0,0,1,160.4,193.54Z" style="fill:#e0ed3a"/>
            <path d="M140,91.82a2.17,2.17,0,0,1-2.19,2.27A2.28,2.28,0,1,1,140,91.82Z" style="fill:#e0ed3a"/>
            <path d="M137.88,99.72a2.28,2.28,0,0,1,0,4.56,2.28,2.28,0,0,1,0-4.56Z" style="fill:#e0ed3a"/>
            <path d="M145.92,102a2.14,2.14,0,0,1,2.14-2.24,2.28,2.28,0,0,1,0,4.56A2.17,2.17,0,0,1,145.92,102Z" style="fill:#e0ed3a"/>
            <path d="M196.79,122.3a2.14,2.14,0,0,1,2.17-2.22,2.27,2.27,0,0,1,0,4.54A2.15,2.15,0,0,1,196.79,122.3Z" style="fill:#e0ed3a"/>
            <path d="M160.4,122.36a2.16,2.16,0,1,1-2.18-2.28A2.17,2.17,0,0,1,160.4,122.36Z" style="fill:#e0ed3a"/>
            <path d="M160.4,51.08a2.16,2.16,0,1,1-2.23-2.24A2.17,2.17,0,0,1,160.4,51.08Z" style="fill:#e0ed3a"/>
            <path d="M198.92,73.74a2.27,2.27,0,0,1,0-4.54,2.27,2.27,0,0,1,0,4.54Z" style="fill:#e0ed3a"/>
            <path d="M89.17,81.67A2.21,2.21,0,0,1,87,83.94a2.29,2.29,0,0,1,0-4.58A2.19,2.19,0,0,1,89.17,81.67Z" style="fill:#e0ed3a"/>
            <path d="M89.17,142.73A2.16,2.16,0,0,1,87,145a2.28,2.28,0,1,1,2.14-2.24Z" style="fill:#e0ed3a"/>
            <path d="M115.39,81.54a2.17,2.17,0,0,1,2.29-2.18,2.24,2.24,0,0,1,2,2.38,2.16,2.16,0,1,1-4.31-.2Z" style="fill:#e0ed3a"/>
            <path d="M198.9,145a2.28,2.28,0,0,1,.06-4.56,2.28,2.28,0,0,1-.06,4.56Z" style="fill:#e0ed3a"/>
            <path d="M148.07,145a2.15,2.15,0,0,1-2.15-2.3,2.18,2.18,0,0,1,2.14-2.25,2.24,2.24,0,0,1,2.18,2.32A2.21,2.21,0,0,1,148.07,145Z" style="fill:#e0ed3a"/>
            <path d="M137.91,43.22a2.2,2.2,0,0,1-2.19-2.29,2.24,2.24,0,0,1,2.15-2.27,2.29,2.29,0,0,1,0,4.56Z" style="fill:#e0ed3a"/>
            <path d="M190.91,142.67a2.16,2.16,0,1,1-4.32.06,2.23,2.23,0,0,1,2.17-2.31A2.18,2.18,0,0,1,190.91,142.67Z" style="fill:#e0ed3a"/>
            <path d="M87,175.49A2.27,2.27,0,0,1,87,171a2.27,2.27,0,0,1,0,4.54Z" style="fill:#e0ed3a"/>
            <path d="M190.91,122.33a2.15,2.15,0,0,1-2.17,2.28,2.18,2.18,0,0,1-2.14-2.25,2.21,2.21,0,0,1,2.12-2.29A2.15,2.15,0,0,1,190.91,122.33Z" style="fill:#e0ed3a"/>
            <path d="M221.44,91.82a2.16,2.16,0,1,1-4.32,0,2.16,2.16,0,1,1,4.32,0Z" style="fill:#e0ed3a"/>
            <path d="M117.56,43.22a2.17,2.17,0,0,1-2.17-2.29,2.19,2.19,0,0,1,2.14-2.27A2.22,2.22,0,0,1,119.71,41,2.19,2.19,0,0,1,117.56,43.22Z" style="fill:#e0ed3a"/>
            <path d="M115.39,203.77a2.16,2.16,0,1,1,4.32,0,2.22,2.22,0,0,1-2.11,2.3A2.18,2.18,0,0,1,115.39,203.77Z" style="fill:#e0ed3a"/>
            <path d="M97.2,22.86A2.14,2.14,0,0,1,95,20.63a2.15,2.15,0,0,1,2.14-2.31,2.27,2.27,0,0,1,0,4.54Z" style="fill:#e0ed3a"/>
            <path d="M198.92,195.85a2.28,2.28,0,0,1,0-4.56,2.28,2.28,0,0,1,0,4.56Z" style="fill:#e0ed3a"/>
            <path d="M148.11,22.86a2.13,2.13,0,0,1-2.19-2.19A2.17,2.17,0,0,1,148,18.32a2.27,2.27,0,0,1,.08,4.54Z" style="fill:#e0ed3a"/>
            <path d="M115.39,132.5a2.16,2.16,0,1,1,4.31.05,2.22,2.22,0,0,1-2.15,2.27A2.19,2.19,0,0,1,115.39,132.5Z" style="fill:#e0ed3a"/>
            <path d="M190.91,20.58a2.15,2.15,0,0,1-2.18,2.28,2.27,2.27,0,0,1,.05-4.54A2.15,2.15,0,0,1,190.91,20.58Z" style="fill:#e0ed3a"/>
            <path d="M145.92,51.16A2.15,2.15,0,0,1,148,48.85a2.21,2.21,0,0,1,2.25,2.23,2.26,2.26,0,0,1-2.18,2.33A2.17,2.17,0,0,1,145.92,51.16Z" style="fill:#e0ed3a"/>
            <path d="M219.29,150.6a2.18,2.18,0,0,1,2.15,2.32,2.16,2.16,0,1,1-2.15-2.32Z" style="fill:#e0ed3a"/>
            <path d="M140,142.73a2.16,2.16,0,0,1-2.14,2.24,2.19,2.19,0,0,1-2.17-2.3,2.23,2.23,0,0,1,2.16-2.26A2.19,2.19,0,0,1,140,142.73Z" style="fill:#e0ed3a"/>
            <path d="M66.7,94.09a2.28,2.28,0,0,1-.05-4.56,2.28,2.28,0,0,1,.05,4.56Z" style="fill:#e0ed3a"/>
            <path d="M148.09,195.85a2.15,2.15,0,0,1-2.17-2.28,2.18,2.18,0,0,1,2.13-2.27,2.28,2.28,0,0,1,0,4.55Z" style="fill:#e0ed3a"/>
            <path d="M95,173.2A2.14,2.14,0,0,1,97.18,171a2.27,2.27,0,0,1,0,4.54A2.14,2.14,0,0,1,95,173.2Z" style="fill:#e0ed3a"/>
            <path d="M66.71,150.6a2.28,2.28,0,0,1-.07,4.56,2.19,2.19,0,0,1-2.11-2.29A2.16,2.16,0,0,1,66.71,150.6Z" style="fill:#e0ed3a"/>
            <path d="M168.43,201.47a2.28,2.28,0,0,1,0,4.56,2.28,2.28,0,0,1,0-4.56Z" style="fill:#e0ed3a"/>
            <path d="M168.39,43.22A2.19,2.19,0,0,1,166.25,41a2.23,2.23,0,0,1,2.19-2.3,2.29,2.29,0,0,1,0,4.56Z" style="fill:#e0ed3a"/>
            <path d="M137.91,175.49a2.27,2.27,0,0,1,0-4.54,2.14,2.14,0,0,1,2.17,2.21A2.17,2.17,0,0,1,137.91,175.49Z" style="fill:#e0ed3a"/>
            <path d="M148,124.62a2.16,2.16,0,0,1-2.11-2.34,2.14,2.14,0,0,1,2.18-2.2,2.27,2.27,0,0,1-.07,4.54Z" style="fill:#e0ed3a"/>
            <path d="M140,122.34a2.16,2.16,0,0,1-2.18,2.28,2.27,2.27,0,0,1,0-4.54A2.15,2.15,0,0,1,140,122.34Z" style="fill:#e0ed3a"/>
            <path d="M89.17,71.45a2.16,2.16,0,1,1-4.32,0A2.21,2.21,0,0,1,87,69.2,2.16,2.16,0,0,1,89.17,71.45Z" style="fill:#e0ed3a"/>
            <path d="M221.44,41a2.17,2.17,0,0,1-2.21,2.26A2.28,2.28,0,1,1,221.44,41Z" style="fill:#e0ed3a"/>
            <path d="M95,122.3a2.14,2.14,0,0,1,2.17-2.22,2.27,2.27,0,0,1,0,4.54A2.15,2.15,0,0,1,95,122.3Z" style="fill:#e0ed3a"/>
            <path d="M170.57,91.89a2.16,2.16,0,1,1-4.32-.14,2.16,2.16,0,1,1,4.32.14Z" style="fill:#e0ed3a"/>
            <path d="M190.91,71.47a2.16,2.16,0,0,1-2.19,2.27,2.27,2.27,0,0,1,0-4.54A2.15,2.15,0,0,1,190.91,71.47Z" style="fill:#e0ed3a"/>
            <path d="M64.52,102a2.16,2.16,0,0,1,2.2-2.27,2.28,2.28,0,0,1,0,4.56A2.17,2.17,0,0,1,64.52,102Z" style="fill:#e0ed3a"/>
            <path d="M140,20.6a2.15,2.15,0,0,1-2.12,2.26,2.27,2.27,0,0,1,0-4.54A2.16,2.16,0,0,1,140,20.6Z" style="fill:#e0ed3a"/>
            <path d="M198.91,48.85a2.2,2.2,0,0,1,2.2,2.28A2.23,2.23,0,0,1,199,53.4a2.28,2.28,0,0,1-.06-4.55Z" style="fill:#e0ed3a"/>
            <path d="M168.42,150.6a2.18,2.18,0,0,1,2.15,2.25,2.16,2.16,0,1,1-4.32,0A2.18,2.18,0,0,1,168.42,150.6Z" style="fill:#e0ed3a"/>
            <path d="M89.17,122.32a2.16,2.16,0,0,1-2.16,2.3,2.27,2.27,0,0,1,0-4.54A2.16,2.16,0,0,1,89.17,122.32Z" style="fill:#e0ed3a"/>
            <path d="M148.11,73.74a2.13,2.13,0,0,1-2.19-2.19A2.16,2.16,0,0,1,148,69.2a2.27,2.27,0,0,1,.08,4.54Z" style="fill:#e0ed3a"/>
            <path d="M97.19,73.74a2.27,2.27,0,0,1,0-4.54,2.27,2.27,0,0,1,0,4.54Z" style="fill:#e0ed3a"/>
            <path d="M137.91,73.74A2.27,2.27,0,1,1,140,71.49,2.15,2.15,0,0,1,137.91,73.74Z" style="fill:#e0ed3a"/>
            <path d="M219.29,145a2.2,2.2,0,0,1-2.17-2.31,2.22,2.22,0,0,1,2.16-2.25,2.19,2.19,0,0,1,2.16,2.32A2.17,2.17,0,0,1,219.29,145Z" style="fill:#e0ed3a"/>
            <path d="M115.39,91.8a2.2,2.2,0,0,1,2.14-2.27,2.28,2.28,0,0,1,0,4.56A2.17,2.17,0,0,1,115.39,91.8Z" style="fill:#e0ed3a"/>
            <path d="M198.95,22.86a2.14,2.14,0,0,1-2.16-2.22,2.16,2.16,0,0,1,2.14-2.32,2.27,2.27,0,0,1,0,4.54Z" style="fill:#e0ed3a"/>
            <path d="M198.91,175.49a2.27,2.27,0,0,1,0-4.54,2.27,2.27,0,0,1,0,4.54Z" style="fill:#e0ed3a"/>
            <path d="M117.56,99.72a2.28,2.28,0,1,1-2.17,2.3A2.19,2.19,0,0,1,117.56,99.72Z" style="fill:#e0ed3a"/>
            <path d="M64.52,51.11a2.16,2.16,0,0,1,2.2-2.26,2.28,2.28,0,0,1,0,4.55A2.18,2.18,0,0,1,64.52,51.11Z" style="fill:#e0ed3a"/>
            <path d="M117.54,150.6a2.28,2.28,0,1,1-2.15,2.24A2.16,2.16,0,0,1,117.54,150.6Z" style="fill:#e0ed3a"/>
            <path d="M117.54,48.85a2.28,2.28,0,1,1-2.15,2.25A2.2,2.2,0,0,1,117.54,48.85Z" style="fill:#e0ed3a"/>
            <path d="M168.39,48.85a2.28,2.28,0,1,1-2.14,2.25A2.18,2.18,0,0,1,168.39,48.85Z" style="fill:#e0ed3a"/>
            <path d="M170.57,142.71a2.16,2.16,0,1,1-4.32,0,2.16,2.16,0,1,1,4.32,0Z" style="fill:#e0ed3a"/>
            <path d="M66.67,145a2.16,2.16,0,0,1-2.14-2.32,2.18,2.18,0,0,1,2.16-2.24,2.23,2.23,0,0,1,2.16,2.26A2.2,2.2,0,0,1,66.67,145Z" style="fill:#e0ed3a"/>
            <path d="M221.43,102a2.16,2.16,0,1,1-2.18-2.28A2.17,2.17,0,0,1,221.43,102Z" style="fill:#e0ed3a"/>
            <path d="M247.66,102a2.15,2.15,0,0,1,2.16-2.29A2.21,2.21,0,0,1,252,102a2.24,2.24,0,0,1-2.19,2.31A2.18,2.18,0,0,1,247.66,102Z" style="fill:#e0ed3a"/>
            <path d="M221.44,51.15a2.16,2.16,0,1,1-2.09-2.3A2.17,2.17,0,0,1,221.44,51.15Z" style="fill:#e0ed3a"/>
            <path d="M117.56,145a2.16,2.16,0,0,1-2.17-2.29,2.18,2.18,0,0,1,2.13-2.27,2.28,2.28,0,0,1,0,4.56Z" style="fill:#e0ed3a"/>
            <path d="M170.57,102a2.16,2.16,0,1,1-2.16-2.3A2.17,2.17,0,0,1,170.57,102Z" style="fill:#e0ed3a"/>
            <path d="M117.53,195.85a2.16,2.16,0,0,1-2.14-2.25,2.19,2.19,0,0,1,2.17-2.3,2.22,2.22,0,0,1,2.15,2.26A2.19,2.19,0,0,1,117.53,195.85Z" style="fill:#e0ed3a"/>
            <path d="M219.3,120.08a2.27,2.27,0,1,1-2.19,2.28A2.17,2.17,0,0,1,219.3,120.08Z" style="fill:#e0ed3a"/>
            <path d="M219.27,73.74a2.27,2.27,0,1,1,2.16-2.22A2.15,2.15,0,0,1,219.27,73.74Z" style="fill:#e0ed3a"/>
            <path d="M66.64,73.74a2.27,2.27,0,0,1,.08-4.54,2.27,2.27,0,0,1-.08,4.54Z" style="fill:#e0ed3a"/>
            <path d="M219.26,175.49a2.27,2.27,0,1,1,2.18-2.21A2.15,2.15,0,0,1,219.26,175.49Z" style="fill:#e0ed3a"/>
            <path d="M168.44,195.85a2.28,2.28,0,0,1-.06-4.56,2.28,2.28,0,0,1,.06,4.56Z" style="fill:#e0ed3a"/>
            <path d="M249.77,124.62a2.27,2.27,0,0,1,.07-4.54,2.27,2.27,0,0,1-.07,4.54Z" style="fill:#e0ed3a"/>
            <path d="M117.52,22.86a2.16,2.16,0,0,1-2.13-2.25,2.16,2.16,0,0,1,2.17-2.28,2.27,2.27,0,0,1,0,4.54Z" style="fill:#e0ed3a"/>
            <path d="M117.56,175.49a2.27,2.27,0,0,1,0-4.54,2.27,2.27,0,0,1,0,4.54Z" style="fill:#e0ed3a"/>
            <path d="M66.67,124.62a2.27,2.27,0,0,1,0-4.54,2.27,2.27,0,0,1,0,4.54Z" style="fill:#e0ed3a"/>
            <path d="M117.53,73.74a2.27,2.27,0,0,1,0-4.54,2.27,2.27,0,0,1,0,4.54Z" style="fill:#e0ed3a"/>
            <path d="M117.54,124.62a2.27,2.27,0,0,1,0-4.54,2.27,2.27,0,0,1,0,4.54Z" style="fill:#e0ed3a"/>
            <path d="M168.51,18.33a2.19,2.19,0,0,1,2.05,2.34,2.16,2.16,0,0,1-2.26,2.2,2.18,2.18,0,0,1-2.05-2.33A2.16,2.16,0,0,1,168.51,18.33Z" style="fill:#e0ed3a"/>
            <path d="M168.45,171a2.27,2.27,0,1,1-2.2,2.27A2.18,2.18,0,0,1,168.45,171Z" style="fill:#e0ed3a"/>
            <path d="M168.46,73.74a2.27,2.27,0,1,1,2.11-2.28A2.19,2.19,0,0,1,168.46,73.74Z" style="fill:#e0ed3a"/>
            <path d="M168.42,124.62a2.27,2.27,0,1,1,2.14-2.24A2.16,2.16,0,0,1,168.42,124.62Z" style="fill:#e0ed3a"/>
            <path d="M166.54,213.24a1.49,1.49,0,0,1,1.52-1.49,1.56,1.56,0,0,1-.15,3.12A1.51,1.51,0,0,1,166.54,213.24Z" style="fill:#e0ed3a"/>
            <path d="M49.37,142.33a1.52,1.52,0,0,1-1.56,1.46,1.55,1.55,0,0,1-1.56-1.47,1.58,1.58,0,0,1,1.61-1.5A1.55,1.55,0,0,1,49.37,142.33Z" style="fill:#e0ed3a"/>
            <path d="M238.74,161.19a1.56,1.56,0,0,1,1.56,1.47,1.52,1.52,0,0,1-1.52,1.5,1.55,1.55,0,0,1-1.61-1.5A1.58,1.58,0,0,1,238.74,161.19Z" style="fill:#e0ed3a"/>
            <path d="M57.38,164.16a1.49,1.49,0,1,1,1.53-1.49A1.52,1.52,0,0,1,57.38,164.16Z" style="fill:#e0ed3a"/>
            <path d="M156.64,1.88A1.49,1.49,0,0,1,158.06.3a1.57,1.57,0,0,1,1.54,1.57,1.61,1.61,0,0,1-1.5,1.55A1.48,1.48,0,0,1,156.64,1.88Z" style="fill:#e0ed3a"/>
            <path d="M207.52,21.06A1.51,1.51,0,0,1,209,19.52a1.56,1.56,0,0,1,0,3.12A1.51,1.51,0,0,1,207.52,21.06Z" style="fill:#e0ed3a"/>
            <path d="M156.64,213.28a1.48,1.48,0,0,1,1.47-1.53,1.58,1.58,0,0,1,1.49,1.55,1.6,1.6,0,0,1-1.55,1.57A1.49,1.49,0,0,1,156.64,213.28Z" style="fill:#e0ed3a"/>
            <path d="M177.9,211.75a1.58,1.58,0,0,1,1.5,1.54,1.6,1.6,0,0,1-1.54,1.58,1.57,1.57,0,0,1,0-3.13Z" style="fill:#e0ed3a"/>
            <path d="M127.45,211.67A1.57,1.57,0,0,1,129,213.2a1.53,1.53,0,0,1-1.5,1.59,1.48,1.48,0,0,1-1.46-1.54A1.53,1.53,0,0,1,127.45,211.67Z" style="fill:#e0ed3a"/>
            <path d="M87.22,19.52a1.57,1.57,0,1,1-1.47,1.56A1.53,1.53,0,0,1,87.22,19.52Z" style="fill:#e0ed3a"/>
            <path d="M96.95,8.89a1.57,1.57,0,0,1,1.52,1.52A1.53,1.53,0,0,1,97,12a1.48,1.48,0,0,1-1.47-1.54A1.53,1.53,0,0,1,96.95,8.89Z" style="fill:#e0ed3a"/>
            <path d="M177.89.22a1.55,1.55,0,0,1,1.52,1.53A1.52,1.52,0,0,1,178,3.34a1.49,1.49,0,0,1-1.51-1.51A1.55,1.55,0,0,1,177.89.22Z" style="fill:#e0ed3a"/>
            <path d="M127.43,3.33A1.49,1.49,0,0,1,126,1.76,1.53,1.53,0,0,1,127.49.22,1.57,1.57,0,0,1,129,1.85,1.52,1.52,0,0,1,127.43,3.33Z" style="fill:#e0ed3a"/>
            <path d="M138.86,213.29a1.52,1.52,0,0,1-1.45,1.58,1.57,1.57,0,0,1,0-3.13A1.5,1.5,0,0,1,138.86,213.29Z" style="fill:#e0ed3a"/>
            <path d="M149.56,213a1.51,1.51,0,0,1-1.48,1.54,1.59,1.59,0,0,1-1.46-1.6,1.53,1.53,0,0,1,1.52-1.52A1.46,1.46,0,0,1,149.56,213Z" style="fill:#e0ed3a"/>
            <path d="M117.33,214.37a1.51,1.51,0,0,1-1.56-1.47,1.57,1.57,0,0,1,3.12,0A1.48,1.48,0,0,1,117.33,214.37Z" style="fill:#e0ed3a"/>
            <path d="M200,203.69a1.5,1.5,0,0,1-1.49,1.52,1.53,1.53,0,0,1-1.62-1.48,1.56,1.56,0,0,1,3.11,0Z" style="fill:#e0ed3a"/>
            <path d="M96.9,202.24a1.54,1.54,0,0,1,1.53,1.49,1.5,1.5,0,0,1-1.53,1.48,1.53,1.53,0,0,1-1.58-1.52A1.56,1.56,0,0,1,96.9,202.24Z" style="fill:#e0ed3a"/>
            <path d="M149.56,1.52a1.52,1.52,0,0,1-1.42,1.61,1.58,1.58,0,0,1-1.52-1.54A1.54,1.54,0,0,1,148.07,0,1.46,1.46,0,0,1,149.56,1.52Z" style="fill:#e0ed3a"/>
            <path d="M119.05,1.79a1.51,1.51,0,0,1-1.49,1.54,1.49,1.49,0,0,1-1.46-1.56,1.48,1.48,0,1,1,3,0Z" style="fill:#e0ed3a"/>
            <path d="M169.5,1.79a1.48,1.48,0,1,1-3,0A1.55,1.55,0,0,1,168,.22,1.53,1.53,0,0,1,169.5,1.79Z" style="fill:#e0ed3a"/>
            <path d="M138.86,1.88a1.51,1.51,0,0,1-1.49,1.54,1.54,1.54,0,0,1-1.46-1.59A1.54,1.54,0,0,1,137.41.3,1.5,1.5,0,0,1,138.86,1.88Z" style="fill:#e0ed3a"/>
            <path d="M200.57,10.44a1.48,1.48,0,1,1-3,0,1.56,1.56,0,0,1,1.46-1.59A1.53,1.53,0,0,1,200.57,10.44Z" style="fill:#e0ed3a"/>
            <path d="M209.2,194.84a1.49,1.49,0,0,1-1.46-1.56,1.48,1.48,0,1,1,3,0A1.51,1.51,0,0,1,209.2,194.84Z" style="fill:#e0ed3a"/>
            <path d="M87.17,194.84a1.49,1.49,0,0,1-1.42-1.6,1.53,1.53,0,0,1,1.52-1.52,1.55,1.55,0,0,1,1.43,1.61A1.5,1.5,0,0,1,87.17,194.84Z" style="fill:#e0ed3a"/>
            <path d="M250,142.4a1.48,1.48,0,1,1-3,0,1.56,1.56,0,0,1,1.46-1.59A1.53,1.53,0,0,1,250,142.4Z" style="fill:#e0ed3a"/>
            <path d="M57.2,53.07a1.51,1.51,0,0,1-1.56-1.47,1.57,1.57,0,0,1,3.12,0A1.48,1.48,0,0,1,57.2,53.07Z" style="fill:#e0ed3a"/>
            <path d="M238.77,53.07a1.47,1.47,0,1,1,1.53-1.49A1.48,1.48,0,0,1,238.77,53.07Z" style="fill:#e0ed3a"/>
            <path d="M250,72.33a1.48,1.48,0,1,1-2.95,0,1.55,1.55,0,0,1,1.49-1.55A1.53,1.53,0,0,1,250,72.33Z" style="fill:#e0ed3a"/>
            <path d="M46.85,73.74a1.49,1.49,0,0,1-1.53-1.49,1.51,1.51,0,0,1,1.58-1.44,1.5,1.5,0,0,1,1.52,1.5A1.47,1.47,0,0,1,46.85,73.74Z" style="fill:#e0ed3a"/>
            <path d="M27.91,164.49c-4.07,0-7.53-1.39-10.7-2.66-4.7-1.89-8.77-3.52-14.52-1.37a2,2,0,1,1-1.39-3.72c7.2-2.69,12.61-.52,17.39,1.4s8.77,3.51,14.52,1.37,7.11-5.74,8.8-9.93c1.78-4.43,3.8-9.45,11.1-12.18s12.61-.52,17.39,1.4,8.77,3.51,14.52,1.37,7.11-5.74,8.8-9.93c1.78-4.43,3.8-9.45,11.1-12.18s12.61-.51,17.39,1.4,8.77,3.51,14.52,1.37,7.11-5.74,8.8-9.93c1.78-4.43,3.8-9.45,11.1-12.18s12.61-.52,17.39,1.4,8.77,3.52,14.52,1.37,7.11-5.74,8.8-9.93c1.78-4.43,3.8-9.45,11.1-12.18s12.62-.52,17.39,1.4,8.77,3.51,14.52,1.37,7.11-5.74,8.8-9.94c1.78-4.43,3.8-9.45,11.1-12.18s12.62-.52,17.4,1.4,8.77,3.51,14.53,1.37,7.12-5.74,8.81-9.94c1.78-4.43,3.8-9.45,11.1-12.18a2,2,0,1,1,1.39,3.72c-5.66,2.11-7.12,5.74-8.81,9.94-1.78,4.43-3.8,9.45-11.1,12.18s-12.62.52-17.4-1.4-8.77-3.51-14.53-1.37-7.11,5.74-8.8,9.94c-1.78,4.43-3.8,9.45-11.1,12.18s-12.62.52-17.39-1.4-8.77-3.51-14.52-1.37-7.11,5.74-8.8,9.93c-1.78,4.43-3.8,9.45-11.1,12.18s-12.61.52-17.39-1.4-8.77-3.51-14.52-1.37-7.11,5.74-8.8,9.93c-1.78,4.43-3.8,9.45-11.1,12.18s-12.61.51-17.39-1.4-8.77-3.51-14.52-1.37-7.11,5.74-8.8,9.93c-1.78,4.43-3.8,9.45-11.1,12.17s-12.61.52-17.39-1.4S60.26,139,54.5,141.12s-7.11,5.74-8.8,9.93c-1.78,4.43-3.8,9.45-11.1,12.18A19,19,0,0,1,27.91,164.49Z" style="fill:#4ff0d6"/>
        </g>
    </g>
</svg>
