<svg width="100px" xmlns="http://www.w3.org/2000/svg" xmlns:xlink="http://www.w3.org/1999/xlink" viewBox="0 0 572.45 299.65">
    <defs>
        <linearGradient id="New_Gradient_Swatch" x1="282.05" x2="572.45" y1="149.83" y2="149.83" gradientUnits="userSpaceOnUse">
            <stop offset="0" stop-color="#ff512f"/>
            <stop offset="1" stop-color="#dd2476"/>
        </linearGradient>
    </defs>
    <title>
        pattern-10
    </title>
    <g id="Layer_2" data-name="Layer 2">
        <g id="Base">
            <path d="M569.46,188.06a3.07,3.07,0,0,0,3-3.24,3.21,3.21,0,0,0-3.42-3.18,3,3,0,0,0-3,3.25A3.14,3.14,0,0,0,569.46,188.06Zm-3.4-74.17a3,3,0,0,0,3,3.17,3.31,3.31,0,0,0,3.42-3.33,3,3,0,0,0-3.08-3.15A3.23,3.23,0,0,0,566.06,113.89ZM282.31,170.55a3.29,3.29,0,0,0,3.22,3.4,3.06,3.06,0,0,0,3-3.1,3.29,3.29,0,0,0-3.24-3.38A3,3,0,0,0,282.31,170.55ZM537.69,57.12a3,3,0,0,0,3,3.15A3.23,3.23,0,0,0,543.93,57a3.05,3.05,0,0,0-3-3.2A3.19,3.19,0,0,0,537.69,57.12ZM285.07,188.06a3.22,3.22,0,0,0,3.25-3.27,3.11,3.11,0,0,0-3-3.16,3.17,3.17,0,0,0-3.27,3.23A3,3,0,0,0,285.07,188.06Zm252.62,53.52a3.15,3.15,0,0,0,3.24,3.24,3.2,3.2,0,0,0-.2-6.4A3,3,0,0,0,537.69,241.58ZM324.87,255.77A3.18,3.18,0,0,0,328,259a3.06,3.06,0,0,0,3-3.19,3.17,3.17,0,0,0-3.16-3.24A3,3,0,0,0,324.87,255.77ZM288.3,113.86a3.18,3.18,0,0,0-2.39-3.21,3,3,0,0,0-3.63,3.49,3.08,3.08,0,0,0,3.15,2.9A3.11,3.11,0,0,0,288.3,113.86ZM316.7,57a3,3,0,1,0-3,3.27A3.1,3.1,0,0,0,316.7,57ZM526.47,259a3.1,3.1,0,0,0,3.07-3.19,3.14,3.14,0,0,0-3.05-3.23,3.22,3.22,0,0,0,0,6.42ZM486.93,85.45a3.06,3.06,0,0,0-3-3.17,3.14,3.14,0,0,0-3,3.23,3.1,3.1,0,0,0,3,3.16A3.06,3.06,0,0,0,486.93,85.45ZM469.75,39.72a3,3,0,0,0-3,3.12,3.06,3.06,0,0,0,3,3.26,3.19,3.19,0,0,0,0-6.38ZM353.24,113.89a3,3,0,0,0,3,3.16,3.2,3.2,0,0,0,0-6.38A3,3,0,0,0,353.24,113.89Zm20.19,0a3,3,0,1,0-6,0,3.11,3.11,0,0,0,2.94,3.22A3.07,3.07,0,0,0,373.43,113.88Zm93.31,42.57a3,3,0,0,0,3.07,3.17,3.2,3.2,0,0,0,0-6.39A3.06,3.06,0,0,0,466.74,156.45Zm73.92-3.22a3.2,3.2,0,0,0,0,6.39,3.2,3.2,0,0,0,0-6.39Zm-73.92-39.37a3.06,3.06,0,0,0,2.95,3.19,3.2,3.2,0,0,0,.1-6.38A3,3,0,0,0,466.74,113.86ZM373.43,255.78a3.05,3.05,0,0,0-3-3.21,3.2,3.2,0,1,0,3,3.21Zm-20.19,0a3,3,0,0,0,3,3.22,3.2,3.2,0,0,0-.06-6.38A3,3,0,0,0,353.24,255.74Zm0-28.39a3,3,0,0,0,3,3.22,3.2,3.2,0,0,0,0-6.38A3,3,0,0,0,353.24,227.35Zm20.19,0a3,3,0,1,0-2.95,3.19A3.08,3.08,0,0,0,373.43,227.38ZM416,85.5a3.08,3.08,0,0,0-3-3.22,3.12,3.12,0,0,0-3,3.17,3,3,0,1,0,6,0Zm50.75-70.94a3,3,0,0,0,3,3.16,3.11,3.11,0,0,0,3-3.22,3.12,3.12,0,0,0-3-3.17A3.07,3.07,0,0,0,466.74,14.56Zm0,70.95a3,3,0,0,0,3,3.16,3.2,3.2,0,1,0-3-3.16ZM353.24,184.8a3,3,0,0,0,2.93,3.2,3.19,3.19,0,0,0,0-6.38A3,3,0,0,0,353.24,184.8Zm113.5,42.64a3,3,0,0,0,3,3.13,3.2,3.2,0,1,0-3-3.13Zm-93.31-42.67a3,3,0,0,0-3-3.14,3.2,3.2,0,1,0,3,3.14Zm22.37,0a3.06,3.06,0,0,0,3,3.24,3.2,3.2,0,0,0,0-6.38A3.06,3.06,0,0,0,395.8,184.77ZM356.24,82.28a3.2,3.2,0,0,0,0,6.39,3.2,3.2,0,0,0,0-6.39ZM330.88,85.5a3.11,3.11,0,0,0-3-3.22,3.2,3.2,0,0,0,0,6.39A3.11,3.11,0,0,0,330.88,85.5Zm-28.39,28.31a3,3,0,1,0-3,3.25A3.09,3.09,0,0,0,302.49,113.81Zm0,71a3,3,0,1,0-6,0,3.11,3.11,0,0,0,3,3.19A3.07,3.07,0,0,0,302.49,184.8Zm0-99.35a3,3,0,1,0-3,3.21A3.05,3.05,0,0,0,302.49,85.46ZM540.66,202.17a3.06,3.06,0,0,0,3-3.1,3.1,3.1,0,0,0-3-3.25,3,3,0,0,0-3,3.12A3,3,0,0,0,540.66,202.17ZM424.18,85.52a3,3,0,0,0,3,3.15,3.2,3.2,0,0,0,0-6.39A3.05,3.05,0,0,0,424.18,85.52Zm42.56,170.29a3,3,0,0,0,3,3.15,3.14,3.14,0,0,0,3-3.25,3.09,3.09,0,0,0-3-3.13A3,3,0,0,0,466.74,255.81ZM512.33,96.51a3.17,3.17,0,1,0,3,3.24A3,3,0,0,0,512.33,96.51Zm-45.58,88.25a3,3,0,1,0,6,.11,3.11,3.11,0,0,0-3-3.24A3,3,0,0,0,466.74,184.76ZM512.28,60.27a3,3,0,0,0,3-3.09,3,3,0,1,0-6-.15A3,3,0,0,0,512.28,60.27Zm25.4,11a3,3,0,0,0,3,3.17,3.09,3.09,0,0,0,3.06-3.2,3.05,3.05,0,0,0-3-3.16A3,3,0,0,0,537.68,71.3Zm-227,170.28a3.05,3.05,0,0,0,3,3.24,3.15,3.15,0,0,0,3-3.24,3.09,3.09,0,0,0-3-3.16A3,3,0,0,0,310.67,241.58Zm227-156.06a3,3,0,0,0,3,3.15,3.2,3.2,0,0,0,0-6.39A3.07,3.07,0,0,0,537.68,85.52Zm0,28.28a3.05,3.05,0,0,0,3,3.25,3.2,3.2,0,0,0,0-6.38A3,3,0,0,0,537.68,113.81ZM353.24,156.4a3,3,0,0,0,3,3.22,3.11,3.11,0,0,0,3-3.16,3.15,3.15,0,0,0-3.05-3.23A3,3,0,0,0,353.24,156.4ZM416,227.35a3.06,3.06,0,0,0-3-3.16,3.13,3.13,0,0,0-3,3.23,3,3,0,1,0,6-.07Zm99.33-14.15a3,3,0,1,0-3.07,3.18A3,3,0,0,0,515.32,213.2Zm-70.94,14.19a3,3,0,1,0-6,0,3,3,0,1,0,6,0Zm-77,56.66a3.05,3.05,0,0,0,2.93,3.19,2.92,2.92,0,0,0,3.1-3.07,3,3,0,1,0-6-.12Zm170.29-56.62a3,3,0,0,0,3,3.15,3.1,3.1,0,0,0,3-3.23,3.13,3.13,0,0,0-3-3.16A3.06,3.06,0,0,0,537.68,227.42Zm-164.25-71a3,3,0,1,0-6,0,3,3,0,1,0,6,0ZM330.88,42.89a3.09,3.09,0,0,0-3-3.17,3,3,0,0,0-3,3.2,3,3,0,1,0,6,0Zm209.77,96.18a3,3,0,0,0-3,3.15,3,3,0,0,0,3,3.21,3.13,3.13,0,0,0,3-3.18A3.07,3.07,0,0,0,540.64,139.07ZM401.82,255.8a3.1,3.1,0,0,0-2.93-3.22,3,3,0,0,0-3.09,3.15,3,3,0,1,0,6,.07ZM427.14,11.33a3.06,3.06,0,0,0-3,3.28,3,3,0,0,0,3,3.11,3.2,3.2,0,0,0-.07-6.39ZM401.82,156.52a3.12,3.12,0,0,0-3-3.29,3.2,3.2,0,0,0-.09,6.39A3.1,3.1,0,0,0,401.82,156.52ZM398.8,281a3,3,0,0,0-3,3.12,3,3,0,1,0,3-3.12ZM427.22,39.72a3,3,0,0,0-3,3.09,3.07,3.07,0,0,0,2.95,3.29,3.19,3.19,0,0,0,.09-6.38ZM395.8,113.81a3.06,3.06,0,0,0,3,3.24,3.2,3.2,0,0,0,0-6.38A3.05,3.05,0,0,0,395.8,113.81Zm0-70.95a3,3,0,1,0,3-3.14A3,3,0,0,0,395.8,42.87Zm-14.19-28.3a3.05,3.05,0,0,0,3,3.16,3.09,3.09,0,0,0,3-3.23,3,3,0,1,0-6,.07Zm20.21-.06a3.12,3.12,0,0,0-3-3.17,3.06,3.06,0,0,0-3,3.23,3,3,0,0,0,3,3.16A3.09,3.09,0,0,0,401.82,14.5ZM373.43,43a3,3,0,0,0-3-3.23,3.2,3.2,0,1,0,3,3.23Zm50.76,70.77a3.05,3.05,0,0,0,2.9,3.33,3.2,3.2,0,0,0,.18-6.38A3,3,0,0,0,424.19,113.72Zm62.74,14.37a3.07,3.07,0,0,0-3-3.23,3.11,3.11,0,0,0-3,3.15,3.05,3.05,0,0,0,3,3.21A3,3,0,0,0,486.93,128.09Zm68,11a3.18,3.18,0,1,0,3,3.26A3,3,0,0,0,554.9,139.07ZM330.88,128a3,3,0,1,0-6,.11,3,3,0,0,0,3.1,3.12A3.08,3.08,0,0,0,330.88,128Zm67.9,3.22a3.06,3.06,0,0,0,3-3.1,3.1,3.1,0,0,0-3-3.26,3.07,3.07,0,0,0-3,3.12A3,3,0,0,0,398.78,131.22ZM302.49,156.4a3.07,3.07,0,0,0-3.08-3.17,3.13,3.13,0,0,0-2.95,3.22,3,3,0,1,0,6-.05Zm235.19-28.34a3,3,0,0,0,3,3.16,3.07,3.07,0,0,0,3.07-3.18,3.11,3.11,0,0,0-3.08-3.18A3.08,3.08,0,0,0,537.68,128.06Zm-22.37,42.55a3,3,0,1,0-3,3.17A3,3,0,0,0,515.32,170.62ZM529.5,85.46a3,3,0,1,0-3,3.21A3.07,3.07,0,0,0,529.5,85.46ZM416,156.42a3,3,0,1,0-3,3.2A3.05,3.05,0,0,0,416,156.42Zm-102.3-45.75a3,3,0,0,0-3,3.12,3.05,3.05,0,0,0,3,3.27,3.2,3.2,0,0,0,0-6.38ZM444.37,255.76a3,3,0,1,0-3,3.21A3.12,3.12,0,0,0,444.37,255.76Zm-20.19-99.36a3,3,0,0,0,3,3.23,3.11,3.11,0,0,0,3-3.15,3.15,3.15,0,0,0-3-3.24A3,3,0,0,0,424.18,156.39ZM416,114a3,3,0,1,0-6-.21,3.12,3.12,0,0,0,3,3.3A3.06,3.06,0,0,0,416,114Zm28.39,42.5a3,3,0,1,0-6-.07,3,3,0,1,0,6,.07Zm0-42.57a3,3,0,1,0-3,3.16A3.07,3.07,0,0,0,444.37,113.89Zm53.76,39.34a3.2,3.2,0,0,0,0,6.39,3.1,3.1,0,0,0,3-3.12A3.15,3.15,0,0,0,498.14,153.23Zm31.36,3.2a3.07,3.07,0,0,0-2.95-3.2,3.2,3.2,0,0,0,0,6.39A3.06,3.06,0,0,0,529.5,156.43Zm-42.57,99.31a3.05,3.05,0,0,0-3-3.16,3.19,3.19,0,0,0,0,6.38A3.07,3.07,0,0,0,486.93,255.74Zm70.94-99.35a3.08,3.08,0,0,0-3-3.16,3.14,3.14,0,0,0-3,3.24,3,3,0,1,0,6-.08Zm-133.69,99.3a3.05,3.05,0,0,0,3,3.27,3.2,3.2,0,0,0,0-6.38A3,3,0,0,0,424.18,255.69ZM554.89,131.22a3,3,0,0,0,3-3.14,3.07,3.07,0,0,0-3-3.22,3.11,3.11,0,0,0-3,3.16A3,3,0,0,0,554.89,131.22Zm14.18,22a3.2,3.2,0,0,0,0,6.39,3.2,3.2,0,0,0,0-6.39ZM495.12,255.76a3,3,0,0,0,3,3.2,3.16,3.16,0,0,0,3-3.19,3.11,3.11,0,0,0-3.08-3.19A3,3,0,0,0,495.12,255.76Zm-8.2-141.89a3,3,0,0,0-2.94-3.19,3.19,3.19,0,0,0,0,6.38A3.05,3.05,0,0,0,486.93,113.87Zm70.94-28.39a3.08,3.08,0,0,0-3-3.19,3.12,3.12,0,0,0-3.06,3.21,3,3,0,1,0,6,0ZM529.5,113.85a3,3,0,1,0-2.94,3.21A3.06,3.06,0,0,0,529.5,113.85ZM512.29,244.74a3.17,3.17,0,1,0-3-3.23A3,3,0,0,0,512.29,244.74Zm-184.5-42.57a3,3,0,0,0,3.09-3,3.12,3.12,0,0,0-2.95-3.31,3.19,3.19,0,0,0-.14,6.36Zm74-145.05a3.08,3.08,0,0,0-3-3.21,3,3,0,0,0-3,3.17,3,3,0,0,0,3,3.2A3.07,3.07,0,0,0,401.82,57.12Zm-70.94,0a3,3,0,1,0-6,0,3,3,0,0,0,3.08,3.15A3,3,0,0,0,330.88,57.08ZM515.32,42.94a3,3,0,1,0-3,3.16A3.07,3.07,0,0,0,515.32,42.94Zm-20.19-.07a3,3,0,0,0,3,3.23,3.19,3.19,0,0,0,0-6.38A3,3,0,0,0,495.12,42.88Zm-8.2.07a3,3,0,0,0-3-3.23,3.19,3.19,0,0,0,0,6.38A3.05,3.05,0,0,0,486.93,43Zm-42.55,0a3,3,0,1,0-2.95,3.2A3.06,3.06,0,0,0,444.37,42.9Zm-28.39,0a3,3,0,0,0-3-3.17A3.19,3.19,0,0,0,413,46.1,3.05,3.05,0,0,0,416,42.89Zm-70.94,0a3,3,0,0,0-3-3.14,3.2,3.2,0,1,0,3,3.14Zm99.33,170.31a3,3,0,0,0-3.08-3.15,3.18,3.18,0,1,0,3.08,3.15Zm-113.5,14.25a3.1,3.1,0,0,0-3-3.24,3.2,3.2,0,1,0,3,3.24Zm156.05,42.49a3,3,0,1,0-3,3.21A3,3,0,0,0,486.93,269.91Zm-85.11-42.55a3.11,3.11,0,0,0-3.09-3.18,3.07,3.07,0,0,0-2.93,3.22,3,3,0,0,0,3,3.16A3.08,3.08,0,0,0,401.82,227.36ZM486.91,14.62a3.05,3.05,0,0,0-3-3.22,3,3,0,0,0-3,3.06,3,3,0,1,0,6,.16Zm11.17,209.56a3.06,3.06,0,0,0-3,3.28,3,3,0,0,0,3,3.1,3.2,3.2,0,0,0-.06-6.39Zm11.21,3.16a3,3,0,1,0,6,.09,3,3,0,1,0-6-.09Zm20.2,0a3.08,3.08,0,0,0-3.07-3.19,3.14,3.14,0,0,0-3,3.21,3,3,0,1,0,6,0ZM416,14.48a3.07,3.07,0,0,0-3-3.15,3.12,3.12,0,0,0-3,3.24,3.11,3.11,0,0,0,3,3.15A3.06,3.06,0,0,0,416,14.48ZM441.38,281a3.18,3.18,0,1,0,3,3.14A3.06,3.06,0,0,0,441.38,281Zm53.74-96.18a3,3,0,0,0,3,3.21,3.2,3.2,0,0,0-.06-6.38A3,3,0,0,0,495.12,184.79ZM370.39,273.12a3,3,0,0,0,3-3.09,3,3,0,1,0-3,3.09Zm-56.75-91.5a3.2,3.2,0,0,0,.06,6.38,3.2,3.2,0,0,0-.06-6.38Zm59.79-96.15a3,3,0,1,0-3,3.19A3.1,3.1,0,0,0,373.43,85.47ZM345,184.79a3,3,0,1,0-6,0,3.11,3.11,0,0,0,3,3.17A3.06,3.06,0,0,0,345,184.79Zm70.94,0a3,3,0,0,0-3-3.14,3.2,3.2,0,1,0,3,3.14ZM401.82,71.26a3,3,0,1,0-3,3.21A3.08,3.08,0,0,0,401.82,71.26Zm-6,14.19a3,3,0,0,0,3,3.22,3.2,3.2,0,1,0-3-3.22Zm133.7,99.33a3,3,0,0,0-3.08-3.16,3.2,3.2,0,0,0,0,6.38A3.07,3.07,0,0,0,529.5,184.78Zm11.18-3.16a3.2,3.2,0,0,0,0,6.38,3.2,3.2,0,0,0,0-6.38Zm-230-25.23a3,3,0,0,0,3,3.23,3.09,3.09,0,0,0,3-3.14,3.13,3.13,0,0,0-3-3.25A3.08,3.08,0,0,0,310.67,156.39Zm116.52,67.79a3.06,3.06,0,0,0-3,3.14,3,3,0,0,0,3,3.25,3.11,3.11,0,0,0,3-3.12A3.15,3.15,0,0,0,427.19,224.18Zm59.74,3.22a3.07,3.07,0,0,0-3-3.23,3.2,3.2,0,0,0,0,6.38A3,3,0,0,0,486.93,227.41ZM285.28,153.23a3.07,3.07,0,0,0-3,3.27,3,3,0,0,0,3,3.12,3.2,3.2,0,0,0,0-6.39Zm96.33,102.49a3.07,3.07,0,0,0,3,3.24,3.2,3.2,0,0,0,.08-6.38A3,3,0,0,0,381.61,255.72Zm45.58-74.09a3.2,3.2,0,0,0,0,6.38,3.2,3.2,0,0,0,0-6.38ZM310.67,227.42a3,3,0,0,0,3,3.15,3.2,3.2,0,1,0-3-3.15Zm230-53.63a3.17,3.17,0,0,0,.08-6.33,3.17,3.17,0,0,0-.08,6.33Zm17.22-3.12a3,3,0,1,0-3,3.13A3,3,0,0,0,557.87,170.66ZM416,255.76a3.05,3.05,0,0,0-3-3.19,3.2,3.2,0,1,0,3,3.19Zm28.39-113.5a3,3,0,1,0-3,3.16A3,3,0,0,0,444.37,142.27Zm-45.61-3.2a3,3,0,0,0-3,3.16,3.06,3.06,0,0,0,3,3.2,3.12,3.12,0,0,0,3-3.18A3,3,0,0,0,398.76,139.07Zm0,105.67a3.17,3.17,0,0,0,0-6.33,3.17,3.17,0,0,0,0,6.33ZM324.85,142.21a3,3,0,1,0,3-3.14A3.05,3.05,0,0,0,324.85,142.21Zm-22.37.07a3,3,0,1,0-6-.08,3.08,3.08,0,0,0,3,3.22A3,3,0,0,0,302.49,142.28Zm25.34,96.13a3.17,3.17,0,0,0,.06,6.33,3.17,3.17,0,0,0-.06-6.33Zm42.52,6.33a3.17,3.17,0,1,0-2.94-3.29A3,3,0,0,0,370.35,244.74Zm187.52-59.92a3,3,0,0,0-3-3.2,3.2,3.2,0,1,0,3,3.2ZM302.49,199a3,3,0,1,0-3,3.14A3.06,3.06,0,0,0,302.49,199Zm70.94-.06a3,3,0,1,0-6,.07,3,3,0,1,0,6-.07Zm70.94,0a3,3,0,1,0-6,0,3,3,0,1,0,6,0Zm42.55-42.56a3.08,3.08,0,0,0-3-3.23,3.13,3.13,0,0,0-3,3.17,3.09,3.09,0,0,0,3,3.21A3,3,0,0,0,486.93,156.46Zm0,85.13a3,3,0,1,0-3,3.14A3,3,0,0,0,486.93,241.59Zm-17.25-39.42a3.05,3.05,0,0,0,3.08-3.16,3.11,3.11,0,0,0-3-3.2,3.18,3.18,0,0,0-.12,6.35ZM302.49,170.63a3,3,0,0,0-3-3.18,3.06,3.06,0,0,0-3,3.17,3,3,0,1,0,6,0ZM515.32,199a3,3,0,1,0-6,0,3,3,0,1,0,6,0Zm42.55,0a3.05,3.05,0,0,0-3.07-3.17,3.11,3.11,0,0,0-3,3.21,3,3,0,1,0,6,0Zm-88.11,45.75a3.17,3.17,0,1,0-3-3.1A3,3,0,0,0,469.76,244.73Zm45.56-59.94a3,3,0,1,0-2.94,3.21A3.08,3.08,0,0,0,515.32,184.79Zm-73.94,59.94a3.17,3.17,0,1,0-3-3.2A3,3,0,0,0,441.38,244.74Zm-67.95-74.13a3,3,0,1,0-3,3.18A3,3,0,0,0,373.43,170.61Zm25.37-3.15a3.17,3.17,0,0,0,0,6.33,3.17,3.17,0,0,0,0-6.33Zm-96.31,45.71a3,3,0,1,0-6,0,3,3,0,1,0,6,0Zm167.26-45.71a3.17,3.17,0,0,0,0,6.33,3.17,3.17,0,0,0,0-6.33ZM381.61,156.4a3,3,0,0,0,3,3.22,3.08,3.08,0,0,0,3-3.15,3.12,3.12,0,0,0-3-3.24A3.07,3.07,0,0,0,381.61,156.4Zm105.32,28.44a3,3,0,1,0-6,0,3.11,3.11,0,0,0,3,3.22A3.07,3.07,0,0,0,486.93,184.83ZM330.88,213.16a3,3,0,1,0-3,3.21A3.08,3.08,0,0,0,330.88,213.16ZM370.39,210a3.18,3.18,0,1,0,3,3.19A3,3,0,0,0,370.39,210Zm74-25.22a3,3,0,1,0-2.95,3.2A3.07,3.07,0,0,0,444.37,184.8Zm50.75,28.35a3,3,0,0,0,3,3.23,3.18,3.18,0,0,0,0-6.36A3,3,0,0,0,495.12,213.15ZM466.74,71.32a3,3,0,0,0,3.08,3.16,3.12,3.12,0,0,0,2.94-3.22,3,3,0,1,0-6,.06ZM353.24,42.94a3,3,0,0,0,3,3.16,3.13,3.13,0,0,0,3-3.23,3.09,3.09,0,0,0-3.11-3.15A3.05,3.05,0,0,0,353.24,42.94Zm28.37,0a3.06,3.06,0,0,0,3,3.19,3.2,3.2,0,0,0,.08-6.38A3,3,0,0,0,381.61,42.92Zm17.2,230.2a3,3,0,0,0,3-3.13,3,3,0,1,0-6,0A3,3,0,0,0,398.81,273.12ZM373.43,99.7a3,3,0,1,0-3,3.13A3,3,0,0,0,373.43,99.7ZM345,57.13a3.05,3.05,0,0,0-3-3.22,3.11,3.11,0,0,0-3,3.15,3.07,3.07,0,0,0,3,3.21A3,3,0,0,0,345,57.13ZM302.49,128a3,3,0,1,0-2.9,3.23A3.06,3.06,0,0,0,302.49,128ZM398.8,96.5a3.17,3.17,0,0,0,0,6.33,3.17,3.17,0,0,0,0-6.33Zm159.07,17.34a3,3,0,0,0-3-3.17,3.2,3.2,0,1,0,3,3.17ZM370.39,60.27a3,3,0,0,0,3-3.09,3,3,0,1,0-6-.06A3,3,0,0,0,370.39,60.27Zm53.79-3.17a3,3,0,0,0,2.95,3.17,3.09,3.09,0,0,0,3.08-3.18,3.14,3.14,0,0,0-3-3.19A3,3,0,0,0,424.18,57.1Zm20.19,0a3.07,3.07,0,0,0-3.08-3.17,3.11,3.11,0,0,0-2.94,3.22,3,3,0,1,0,6-.06Zm50.75,56.77a3,3,0,0,0,3,3.21,3.2,3.2,0,0,0-.06-6.38A3,3,0,0,0,495.12,113.84ZM444.37,99.67a3,3,0,1,0-3,3.16A3,3,0,0,0,444.37,99.67Zm-113.5,14.14a3,3,0,1,0-3,3.24A3.08,3.08,0,0,0,330.88,113.81Zm224-11a3.17,3.17,0,1,0-3-3.21A3,3,0,0,0,554.87,102.83ZM498.1,60.27a3.18,3.18,0,0,0,0-6.36,3.19,3.19,0,0,0,0,6.36Zm-124.67,11a3,3,0,1,0-6,0,3,3,0,1,0,6,0Zm-20.19-.07a3,3,0,0,0,3,3.24,3.18,3.18,0,0,0,.1-6.35A3,3,0,0,0,353.24,71.23ZM515.32,85.5a3.12,3.12,0,0,0-2.95-3.22,3.2,3.2,0,1,0,2.95,3.22Zm-20.19,0a3,3,0,0,0,3,3.19,3.2,3.2,0,0,0-.1-6.39A3.07,3.07,0,0,0,495.13,85.48Zm-36.57.13a3.1,3.1,0,0,0-2.92-3.33,3.2,3.2,0,1,0,2.92,3.33Zm0-71a3.1,3.1,0,0,0-3-3.3,3.07,3.07,0,0,0-3.06,3.09,3,3,0,1,0,6,.21Zm-85.14-.08a3,3,0,0,0-2.93-3.15,3,3,0,0,0-3.1,3.12,3,3,0,1,0,6,0Zm-74,88.28a3.17,3.17,0,1,0-2.93-3.19A3,3,0,0,0,299.4,102.83Zm74-74.12a3,3,0,1,0-3.05,3.17A3,3,0,0,0,373.43,28.72Zm70.94,56.73a3,3,0,1,0-6,.06,3,3,0,1,0,6-.06Zm0,42.55a3,3,0,1,0-2.91,3.22A3.06,3.06,0,0,0,444.37,128ZM345,85.47A3.06,3.06,0,0,0,342,82.28a3.15,3.15,0,0,0-3,3.21,3.1,3.1,0,0,0,3,3.18A3,3,0,0,0,345,85.47Zm-31.39-3.19a3.08,3.08,0,0,0-3,3.27,3,3,0,0,0,3,3.12,3.2,3.2,0,0,0,0-6.39Zm113.49,48.94a3.18,3.18,0,0,0,.06-6.36,3.19,3.19,0,0,0-.06,6.36Zm88.17,124.51a3,3,0,1,0-2.94,3.22A3.12,3.12,0,0,0,515.32,255.73Zm-45.61,17.39a3.06,3.06,0,0,0,3.06-3.09,3.1,3.1,0,0,0-3-3.27,3.18,3.18,0,0,0-.07,6.35ZM384.61,82.28a3.2,3.2,0,1,0,3,3.24A3.09,3.09,0,0,0,384.61,82.28Zm74,102.49a3,3,0,0,0-3.1-3.14,3.19,3.19,0,1,0,3.1,3.14ZM413,68.12a3.18,3.18,0,0,0,0,6.35,3,3,0,0,0,3-3.23A3,3,0,0,0,413,68.12Zm-56.8,205a3.18,3.18,0,0,0,.09-6.35,3.18,3.18,0,0,0-.09,6.35ZM416,269.92a3,3,0,0,0-3-3.14,3.1,3.1,0,0,0-3,3.22,3,3,0,1,0,6-.08Zm-85.11-85.06a3.1,3.1,0,0,0-3-3.23,3.2,3.2,0,0,0,0,6.38A3.1,3.1,0,0,0,330.88,184.86ZM512.31,68.12a3.18,3.18,0,1,0,3,3.12A3,3,0,0,0,512.31,68.12Zm-25.38,3.13a3,3,0,0,0-3.08-3.14,3.18,3.18,0,0,0,.06,6.35A3,3,0,0,0,486.93,71.25ZM469.77,281a3,3,0,0,0-3,3.08,3.07,3.07,0,0,0,3,3.28,3.18,3.18,0,0,0,.07-6.36Zm-45.59,3.21a3,3,0,0,0,3,3.15,3.12,3.12,0,0,0,3-3.23,3.09,3.09,0,0,0-3-3.13A3,3,0,0,0,424.18,284.18ZM444.37,14.49a3,3,0,1,0-6,.08,3,3,0,1,0,6-.08Zm14.19,212.93a3,3,0,1,0-3,3.15A3.08,3.08,0,0,0,458.56,227.41ZM398.84,31.88a3.17,3.17,0,0,0-.08-6.33,3,3,0,0,0-3,3.16A3,3,0,0,0,398.84,31.88ZM381.61,227.38a3,3,0,1,0,6,0,3.12,3.12,0,0,0-3.07-3.21A3.07,3.07,0,0,0,381.61,227.38ZM444.37,28.73a3,3,0,1,0-3,3.15A3,3,0,0,0,444.37,28.73ZM345,227.4a3,3,0,1,0-3,3.17A3.05,3.05,0,0,0,345,227.4ZM469.72,31.88a3.17,3.17,0,0,0,0-6.33,3,3,0,0,0-3,3.1A3,3,0,0,0,469.72,31.88ZM554.91,210a3.05,3.05,0,0,0-3.06,3.18,3.08,3.08,0,0,0,3,3.18,3.18,3.18,0,0,0,.08-6.36Zm-17.22,3.19a3,3,0,0,0,3,3.16,3.11,3.11,0,0,0,3.05-3.21,3.08,3.08,0,0,0-3-3.14A3,3,0,0,0,537.68,213.21ZM483.95,210a3,3,0,0,0-3,3.1,3.1,3.1,0,0,0,3,3.26,3.18,3.18,0,0,0,0-6.36Zm-14.13,0a3,3,0,0,0-3.07,3,3.05,3.05,0,0,0,2.92,3.31,3.18,3.18,0,0,0,.15-6.36Zm-71.07,0a3.18,3.18,0,0,0,.11,6.36,3.09,3.09,0,0,0,3-3.19A3,3,0,0,0,398.75,210ZM458.56,42.89a3,3,0,1,0-2.94,3.22A3.11,3.11,0,0,0,458.56,42.89Zm70.94.06a3.05,3.05,0,0,0-3-3.22,3.2,3.2,0,1,0,3,3.22ZM356.2,60.27a3.07,3.07,0,0,0,3.07-3.18,3.12,3.12,0,0,0-3-3.18,3,3,0,0,0-3,3.2A3,3,0,0,0,356.2,60.27Zm39.6,138.6a3,3,0,1,0,6,.27,3.11,3.11,0,0,0-2.94-3.32A3,3,0,0,0,395.8,198.87Zm-42.55,0a3,3,0,0,0,2.94,3.27,3.18,3.18,0,0,0,.09-6.35A3,3,0,0,0,353.24,198.91ZM469.75,60.27a3.06,3.06,0,0,0,3-3.14,3.12,3.12,0,0,0-3-3.23,3.05,3.05,0,0,0-3,3.26A3,3,0,0,0,469.75,60.27Zm17.17-3.21a3,3,0,1,0-3,3.21A3,3,0,0,0,486.93,57.06ZM324.85,71.28a3,3,0,1,0,3.07-3.16A3,3,0,0,0,324.85,71.28Zm20.19,0a3,3,0,1,0-6,0,3.09,3.09,0,0,0,3,3.19A3,3,0,0,0,345,71.29ZM509.29,113.9a3,3,0,1,0,3-3.23A3.08,3.08,0,0,0,509.29,113.9ZM330.88,156.41a3.12,3.12,0,0,0-3-3.18,3.2,3.2,0,1,0,3,3.18Zm14.17.08a3,3,0,1,0-3,3.12A3,3,0,0,0,345,156.5Zm11.13-25.28a3.18,3.18,0,0,0,.13-6.36,3.19,3.19,0,0,0-.13,6.36Zm102.39-17.33a3,3,0,1,0-6-.07,3,3,0,1,0,6,.07Zm56.75,28.32a3,3,0,1,0-3,3.21A3,3,0,0,0,515.32,142.21Zm-17.18-3.14a3.18,3.18,0,0,0,0,6.36,3.18,3.18,0,0,0,0-6.36ZM458.56,255.78a3,3,0,1,0-6,0,3,3,0,1,0,6,0Zm0-99.39a3,3,0,1,0-3,3.23A3.1,3.1,0,0,0,458.56,156.39Zm28.37-14.13a3,3,0,0,0-3-3.19,3.18,3.18,0,1,0,3,3.19Zm53.76-39.42a3.17,3.17,0,0,0,0-6.33,3.17,3.17,0,0,0,0,6.33Zm-25.37,53.55a3,3,0,1,0-3,3.23A3.09,3.09,0,0,0,515.32,156.39Zm-45.6-53.55a3.17,3.17,0,0,0,0-6.33,3.17,3.17,0,0,0,0,6.33Zm-3,39.46a3,3,0,0,0,3,3.14,3.1,3.1,0,0,0,3-3.24,3.06,3.06,0,0,0-3-3.12A3,3,0,0,0,466.74,142.29Zm-93.31-14.22a3.06,3.06,0,0,0-3-3.21,3.1,3.1,0,0,0-3,3.16,3,3,0,1,0,6,0Zm138.92,3.15a3.18,3.18,0,1,0-3.05-3.18A3,3,0,0,0,512.34,131.22ZM330.88,170.63a3,3,0,1,0-3,3.15A3,3,0,0,0,330.88,170.63Zm42.55-28.41a3,3,0,0,0-3.08-3.15,3.18,3.18,0,1,0,3.08,3.15ZM345,255.79a3,3,0,1,0-6-.07,3.13,3.13,0,0,0,3,3.23A3.07,3.07,0,0,0,345,255.79ZM469.71,131.22a3,3,0,0,0,3.05-3.09,3.1,3.1,0,0,0-3-3.27,3.05,3.05,0,0,0-3,3.11A3,3,0,0,0,469.71,131.22Zm-187.41,11a3,3,0,0,0,3,3.16,3.13,3.13,0,0,0,3.05-3.22,3.07,3.07,0,0,0-3-3.14A3,3,0,0,0,282.3,142.27ZM327.81,96.5a3.17,3.17,0,0,0,.09,6.33,3.17,3.17,0,0,0-.09-6.33Zm159.1,187.67a3.08,3.08,0,0,0-3-3.29,3,3,0,0,0-3,3.12,3,3,0,0,0,3,3.22A3.09,3.09,0,0,0,486.91,284.18Zm-201.67-153a3.18,3.18,0,0,0,.1-6.36,3.19,3.19,0,0,0-.1,6.36Zm56.83,0a3,3,0,0,0,3-3.15,3.06,3.06,0,0,0-3-3.21,3.11,3.11,0,0,0-3,3.17A3.06,3.06,0,0,0,342.07,131.22Zm73.91,153a3,3,0,1,0-6-.13,3.09,3.09,0,0,0,3,3.25A3.05,3.05,0,0,0,416,284.21Zm82.12-153a3.18,3.18,0,0,0,0-6.36,3.05,3.05,0,0,0-3,3.22A3,3,0,0,0,498.1,131.22Zm-156,78.8a3.18,3.18,0,1,0,3,3.12A3,3,0,0,0,342.05,210Zm14.15,0a3.18,3.18,0,0,0,.08,6.36,3.11,3.11,0,0,0,3-3.18A3.07,3.07,0,0,0,356.2,210Zm70.92,28.39a3.17,3.17,0,0,0,.12,6.33,3.17,3.17,0,0,0-.12-6.33ZM569,131.22a3.09,3.09,0,0,0,3.07-3.18,3.13,3.13,0,0,0-3-3.18,3.19,3.19,0,0,0-.09,6.36Zm-224,11a3,3,0,0,0-3-3.16,3.19,3.19,0,1,0,3,3.16ZM413,210a3.07,3.07,0,0,0-3,3.22,3.1,3.1,0,0,0,3,3.13,3.07,3.07,0,0,0,3-3.24A3,3,0,0,0,413,210ZM353.24,142.2a3,3,0,0,0,3,3.23,3.18,3.18,0,0,0,0-6.36A3,3,0,0,0,353.24,142.2Zm70.94,70.94a3.05,3.05,0,0,0,3,3.24,3.18,3.18,0,0,0,.1-6.36A3,3,0,0,0,424.18,213.14Zm20.19,56.76a3,3,0,1,0-6,.1,3,3,0,1,0,6-.1ZM416,128a3,3,0,1,0-3.05,3.17A3,3,0,0,0,416,128Zm-3,11a3.18,3.18,0,0,0,0,6.36,3.18,3.18,0,0,0,0-6.36Zm11.21,3.12a3,3,0,0,0,3,3.23,3.18,3.18,0,0,0,0-6.35A3,3,0,0,0,424.18,142.19Zm70.94,28.36a3,3,0,0,0,3,3.24,3.17,3.17,0,0,0,.05-6.33A3,3,0,0,0,495.12,170.55Zm-50.75.09a3,3,0,1,0-3,3.15A3,3,0,0,0,444.37,170.64Zm0-99.4a3,3,0,0,0-3.1-3.12,3.18,3.18,0,1,0,3.1,3.12Zm53.72,31.6a3.17,3.17,0,0,0,.05-6.33,3.17,3.17,0,0,0-.05,6.33ZM345,113.89a3,3,0,0,0-3-3.22,3.2,3.2,0,1,0,3,3.22ZM345,199a3.06,3.06,0,0,0-3-3.23,3.18,3.18,0,0,0,0,6.36A3,3,0,0,0,345,199Zm36.56-85.32a3,3,0,1,0,3.19-3A3,3,0,0,0,381.61,113.72Zm116.46,88.46a3.18,3.18,0,0,0,.09-6.36,3.18,3.18,0,0,0-.09,6.36Zm-70.89,0a3.08,3.08,0,0,0,3-3.12,3.13,3.13,0,0,0-3-3.23,3,3,0,0,0-3,3.14A3,3,0,0,0,427.18,202.17ZM413,60.27a3.19,3.19,0,0,0-.05-6.36,3.12,3.12,0,0,0-3,3.17A3.07,3.07,0,0,0,413,60.27ZM486.93,199a3,3,0,0,0-3-3.14,3.1,3.1,0,0,0-3,3.23,3,3,0,1,0,6-.08ZM342,244.74a3.17,3.17,0,0,0,0-6.33,3.17,3.17,0,0,0,0,6.33ZM486.93,170.6a3,3,0,0,0-3.07-3.15,3.08,3.08,0,0,0-3,3.19,3,3,0,0,0,3,3.14A3,3,0,0,0,486.93,170.6Zm42.57-42.55a3,3,0,1,0-3,3.17A3.06,3.06,0,0,0,529.5,128.06ZM384.63,60.27a3.05,3.05,0,0,0,3-3.14,3.09,3.09,0,0,0-3-3.22,3.06,3.06,0,0,0-3,3.16A3,3,0,0,0,384.63,60.27Zm-3,223.9a3,3,0,0,0,3.08,3.16,3.1,3.1,0,0,0,2.95-3.21,3,3,0,1,0-6,0ZM356.24,31.88a3.17,3.17,0,0,0,0-6.33,3,3,0,0,0-3,3.22A3,3,0,0,0,356.24,31.88ZM498.09,273.12a3.18,3.18,0,0,0,.05-6.35,3.18,3.18,0,0,0-.05,6.35ZM427.23,31.88a3.17,3.17,0,0,0-.11-6.33,3,3,0,0,0-2.94,3.28A3,3,0,0,0,427.23,31.88ZM381.61,184.77a3.06,3.06,0,0,0,3,3.24,3.2,3.2,0,0,0,0-6.39A3,3,0,0,0,381.61,184.77ZM486.93,28.71a3,3,0,0,0-3-3.15,3.17,3.17,0,0,0-.07,6.33A3,3,0,0,0,486.93,28.71ZM424.18,71.34a3,3,0,0,0,3,3.14,3.15,3.15,0,0,0,3-3.24,3.08,3.08,0,0,0-3.14-3.12A3,3,0,0,0,424.18,71.34ZM526.5,210a3.18,3.18,0,1,0,3,3.23A3.06,3.06,0,0,0,526.5,210ZM416,199a3.05,3.05,0,0,0-3-3.24,3.11,3.11,0,0,0-3,3.15,3.06,3.06,0,0,0,3,3.21A3,3,0,0,0,416,199ZM313.71,131.22a3.18,3.18,0,1,0-3-3.18A3,3,0,0,0,313.71,131.22Zm113.5,141.9a3.18,3.18,0,0,0-.06-6.35,3,3,0,0,0-3,3.17A3,3,0,0,0,427.21,273.12Zm-74-31.58a3,3,0,0,0,3,3.2,3.17,3.17,0,0,0,0-6.33A3,3,0,0,0,353.24,241.54ZM313.72,210a3,3,0,0,0-3,3.17,3.05,3.05,0,0,0,2.95,3.19,3.18,3.18,0,0,0,.1-6.36ZM455.57,281a3.19,3.19,0,1,0,3,3.24A3.06,3.06,0,0,0,455.57,281Zm-.05-220.7a3.19,3.19,0,0,0,.07-6.37,3.1,3.1,0,0,0-3,3.21A3,3,0,0,0,455.52,60.27ZM413,244.74a3,3,0,0,0,3-3.24,3,3,0,0,0-3-3.08,3.17,3.17,0,0,0,.05,6.33Zm14.12-71a3.17,3.17,0,0,0,.09-6.33,3,3,0,0,0-3,3.06A3,3,0,0,0,427.13,173.78ZM416,170.61a3,3,0,0,0-3.07-3.15,3.17,3.17,0,0,0,0,6.33A3,3,0,0,0,416,170.61ZM345,99.64A3,3,0,0,0,342,96.5a3.08,3.08,0,0,0-2.94,3.2,3,3,0,1,0,6-.07ZM529.5,57.13a3,3,0,1,0-3.08,3.14A3,3,0,0,0,529.5,57.13ZM353.24,170.55a3,3,0,0,0,3,3.24,3.17,3.17,0,0,0,0-6.33A3,3,0,0,0,353.24,170.55Zm105.32-42.4a3,3,0,1,0-3.16,3.07A3,3,0,0,0,458.56,128.15Zm28.37-28.48a3,3,0,0,0-3-3.17,3.17,3.17,0,0,0,0,6.33A3,3,0,0,0,486.93,99.67ZM310.67,142.23a3,3,0,0,0,3,3.2,3.18,3.18,0,0,0,0-6.36A3,3,0,0,0,310.67,142.23ZM416,28.73A3,3,0,0,0,413,25.56a3.17,3.17,0,0,0,0,6.33A3,3,0,0,0,416,28.73Zm82.09,39.39a3.18,3.18,0,0,0,.08,6.35,3.11,3.11,0,0,0,3-3.17A3.07,3.07,0,0,0,498.08,68.12ZM455.57,210a3.18,3.18,0,0,0,0,6.36,3.08,3.08,0,0,0,3-3.22A3,3,0,0,0,455.57,210ZM345,170.58a3,3,0,0,0-3-3.12,3.17,3.17,0,0,0,0,6.33A3,3,0,0,0,345,170.58Zm82.19-67.74a3.17,3.17,0,0,0-.12-6.33,3,3,0,0,0-2.94,3.28A3,3,0,0,0,427.24,102.83Zm-71,0a3.17,3.17,0,0,0,0-6.33,3.17,3.17,0,0,0,0,6.33Zm56.79,0a3.17,3.17,0,0,0-.06-6.33,3.17,3.17,0,0,0,.06,6.33ZM526.5,202.17a3,3,0,0,0,3-3.13,3.06,3.06,0,0,0-3-3.23,3.1,3.1,0,0,0-3,3.14A3.06,3.06,0,0,0,526.5,202.17ZM381.61,128a3,3,0,0,0,3,3.2,3.19,3.19,0,1,0-3-3.2ZM498.13,31.88a3.17,3.17,0,0,0,0-6.33,3,3,0,0,0-3,3.23A3,3,0,0,0,498.13,31.88Zm0,212.86a3.17,3.17,0,0,0,.06-6.33,3.17,3.17,0,0,0-.06,6.33ZM384.63,139.07a3.18,3.18,0,0,0,0,6.36,3.18,3.18,0,0,0,0-6.36Zm-74-67.8a3,3,0,0,0,3,3.2,3.18,3.18,0,0,0,0-6.35A3,3,0,0,0,310.67,71.27ZM384.6,210a3,3,0,0,0-3,3.13,3,3,0,1,0,3-3.13Zm0-141.9a3.18,3.18,0,0,0,0,6.35,3.18,3.18,0,0,0,0-6.35Zm70.93,0a3.18,3.18,0,1,0,3,3.2A3,3,0,0,0,455.53,68.12Zm3,130.9a3,3,0,1,0-6,0,3,3,0,1,0,6,0Zm-144.9,3.15a3.07,3.07,0,0,0,3-3.21,3.1,3.1,0,0,0-3-3.15,3,3,0,0,0-3,3.13A3,3,0,0,0,313.66,202.17Zm215.84-59.93a3,3,0,0,0-3-3.18,3.18,3.18,0,1,0,3,3.18Zm36.57,0a3,3,0,0,0,3,3.16,3.12,3.12,0,0,0,3.05-3.21,3.08,3.08,0,0,0-3-3.14A3,3,0,0,0,566.06,142.27ZM529.5,71.33a3,3,0,1,0-6-.08,3,3,0,1,0,6,.08ZM384.64,202.17a3.18,3.18,0,1,0-3-3.19A3,3,0,0,0,384.64,202.17Zm73.92-59.89a3,3,0,1,0-6-.09,3,3,0,1,0,6,.09Zm-74,130.84a3.06,3.06,0,0,0,3-3.2,3.1,3.1,0,0,0-3-3.16,3,3,0,0,0-3,3.21A3,3,0,0,0,384.59,273.12ZM526.52,167.46a3.17,3.17,0,1,0,3,3.14A3,3,0,0,0,526.52,167.46Zm0-64.62a3.17,3.17,0,0,0,0-6.33,3.17,3.17,0,0,0,0,6.33Zm-212.86,0a3.17,3.17,0,0,0,.11-6.33,3.17,3.17,0,0,0-.11,6.33Zm212.84,141.9a3.17,3.17,0,0,0,.07-6.33,3.17,3.17,0,0,0-.07,6.33Zm-70.87,28.39a3.18,3.18,0,1,0-3-3.18A3,3,0,0,0,455.59,273.13ZM569,173.78a3.17,3.17,0,0,0,.09-6.33,3.17,3.17,0,0,0-.09,6.33ZM384.58,31.88a3.17,3.17,0,0,0,.06-6.33,3,3,0,0,0-3,3.18A3,3,0,0,0,384.58,31.88Zm.05,212.85a3.17,3.17,0,1,0-3-3.09A3,3,0,0,0,384.64,244.74Zm-71-71a3.17,3.17,0,0,0,0-6.33,3.17,3.17,0,0,0,0,6.33Zm70.92-71a3.17,3.17,0,1,0-3-3.24A3,3,0,0,0,384.59,102.83Zm0,71a3.17,3.17,0,1,0-3-3.21A3,3,0,0,0,384.61,173.79ZM455.69,25.56a3,3,0,0,0-3.15,3.07,3,3,0,0,0,2.87,3.26,3,3,0,0,0,3.15-3.07A3.05,3.05,0,0,0,455.69,25.56Zm-.09,212.85a3.17,3.17,0,1,0,3,3.17A3,3,0,0,0,455.6,238.41Zm0-135.57a3.17,3.17,0,1,0-3.08-3.15A3,3,0,0,0,455.61,102.83Zm0,70.95a3.17,3.17,0,1,0-3-3.2A3,3,0,0,0,455.57,173.78Zm-2.63,123.59a2.1,2.1,0,0,0,1.91,2.28,2.18,2.18,0,0,0,.21-4.35A2.07,2.07,0,0,0,452.93,297.37ZM289.54,198.48a2.17,2.17,0,0,0-2.12-2.11,2.2,2.2,0,0,0-2.24,2.1,2.16,2.16,0,0,0,2.18,2A2.12,2.12,0,0,0,289.54,198.48Zm264.08,26.31a2.2,2.2,0,0,0-2.18,2.06,2.16,2.16,0,0,0,2.24,2.09,2.12,2.12,0,0,0,2.12-2.09A2.18,2.18,0,0,0,553.62,224.79Zm-252.92,4.14a2.12,2.12,0,0,0,2.14-2.07,2.18,2.18,0,1,0-2.14,2.07ZM439.14,2.62a2.07,2.07,0,0,0,2,2.15,2.24,2.24,0,0,0,2.09-2.16A2.19,2.19,0,0,0,441.11.41,2.08,2.08,0,0,0,439.14,2.62Zm71,26.75a2.11,2.11,0,0,0,2,2.21,2.18,2.18,0,0,0,.06-4.36A2.11,2.11,0,0,0,510.09,29.37Zm-71,268.06a2.08,2.08,0,0,0,2,2.22,2.23,2.23,0,0,0,2.16-2.19,2.21,2.21,0,0,0-2.08-2.17A2.06,2.06,0,0,0,439.14,297.43Zm29.65-2.14a2.19,2.19,0,0,0-.05,4.36,2.24,2.24,0,0,0,2.15-2.21A2.21,2.21,0,0,0,468.78,295.29Zm-70.35-.11a2.13,2.13,0,0,0-2,2.19,2.07,2.07,0,0,0,2,2.15,2.13,2.13,0,0,0,2.09-2.22A2.19,2.19,0,0,0,398.43,295.18Zm-56.11-268a2.18,2.18,0,0,0,0,4.36,2.18,2.18,0,0,0,0-4.36ZM355.89,12.4a2.14,2.14,0,0,0-2,2.21,2.07,2.07,0,0,0,2,2.14A2.13,2.13,0,0,0,358,14.51,2.19,2.19,0,0,0,355.89,12.4ZM468.76.3a2.16,2.16,0,0,0-2,2.24,2.08,2.08,0,0,0,2.11,2.11,2.12,2.12,0,0,0,2-2.22A2.16,2.16,0,0,0,468.76.3ZM398.4,4.65a2.11,2.11,0,0,0,2.13-2.07A2.2,2.2,0,0,0,398.48.3a2.13,2.13,0,0,0-2.06,2.15A2.07,2.07,0,0,0,398.4,4.65Zm15.93,292.8a2.09,2.09,0,0,0-2.06-2.16,2.18,2.18,0,0,0,0,4.36A2.11,2.11,0,0,0,414.33,297.45Zm14.92-.37a2,2,0,0,0-2-2.2,2.13,2.13,0,0,0-2.12,2.12,2.22,2.22,0,0,0,2,2.23A2.1,2.1,0,0,0,429.26,297.08Zm-44.95,1.87a2.07,2.07,0,0,0,2.18-2,2.18,2.18,0,1,0-2.18,2Zm115.34-14.89a2.17,2.17,0,0,0-4.34.06,2.14,2.14,0,0,0,2.25,2.06A2.09,2.09,0,0,0,499.66,284.06Zm-143.84-2a2.17,2.17,0,0,0-2.19,2,2.13,2.13,0,0,0,2.2,2.11,2.1,2.1,0,0,0,2.14-2.06A2.15,2.15,0,0,0,355.82,282ZM429.26,2.12A2,2,0,0,0,427.18,0a2.14,2.14,0,0,0-2,2.21,2.21,2.21,0,0,0,2.12,2.14A2.12,2.12,0,0,0,429.26,2.12Zm-42.54.38a2.06,2.06,0,1,0-4.12,0,2.08,2.08,0,0,0,2,2.17A2.11,2.11,0,0,0,386.72,2.5Zm70.35,0A2.13,2.13,0,0,0,455,.3,2.16,2.16,0,0,0,453,2.49a2.06,2.06,0,1,0,4.11,0Zm-42.73.13a2.09,2.09,0,0,0-2-2.21,2.14,2.14,0,0,0-2.09,2.15,2.15,2.15,0,0,0,2,2.21A2.11,2.11,0,0,0,414.33,2.62ZM500.4,14.55a2.13,2.13,0,0,0-2.08-2.16,2.18,2.18,0,0,0-2,2.22,2.06,2.06,0,1,0,4.11-.06Zm12,257.16a2.11,2.11,0,0,0,2.07-2.15,2.06,2.06,0,1,0-4.12,0A2.08,2.08,0,0,0,512.43,271.72Zm-170.17,0a2.1,2.1,0,0,0,2.13-2.09,2.16,2.16,0,0,0-2-2.25,2.13,2.13,0,0,0-2.12,2.11A2.08,2.08,0,0,0,342.26,271.72Zm227.07-73.14a2.13,2.13,0,0,0-2.08-2.16,2.18,2.18,0,0,0-2,2.22,2.06,2.06,0,1,0,4.11-.06ZM300.46,74a2.07,2.07,0,0,0,2.18-2,2.18,2.18,0,1,0-2.18,2Zm253.2,0a2.07,2.07,0,0,0,2.14-2.07A2.18,2.18,0,1,0,553.67,74Zm15.67,26.86a2.13,2.13,0,0,0-2-2.21,2.16,2.16,0,0,0-2.08,2.16,2.06,2.06,0,1,0,4.11,0Zm-283.31,2a2.05,2.05,0,0,0,2.2-2,2.09,2.09,0,0,0-2.13-2.09,2.11,2.11,0,0,0-2.21,2A2.07,2.07,0,0,0,286,102.83Zm286.42,82a3.21,3.21,0,0,0-3.42-3.18,3,3,0,0,0-3,3.25,3.14,3.14,0,0,0,3.4,3.18A3.07,3.07,0,0,0,572.45,184.81ZM569,117.05a3.31,3.31,0,0,0,3.42-3.33,3,3,0,0,0-3.08-3.15,3.23,3.23,0,0,0-3.31,3.32A3,3,0,0,0,569,117.05Zm-283.5,56.9a3.06,3.06,0,0,0,3-3.1,3.29,3.29,0,0,0-3.24-3.38,3,3,0,0,0-3,3.08A3.29,3.29,0,0,0,285.53,173.95ZM540.65,60.27A3.23,3.23,0,0,0,543.93,57a3.05,3.05,0,0,0-3-3.2,3.19,3.19,0,0,0-3.21,3.29A3,3,0,0,0,540.65,60.27ZM288.32,184.79a3.11,3.11,0,0,0-3-3.16,3.17,3.17,0,0,0-3.27,3.23,3,3,0,0,0,3,3.2A3.22,3.22,0,0,0,288.32,184.79Zm252.6,60a3.2,3.2,0,0,0-.2-6.4,3,3,0,0,0-3,3.16A3.15,3.15,0,0,0,540.93,244.82ZM328,259a3.06,3.06,0,0,0,3-3.19,3.17,3.17,0,0,0-3.16-3.24,3,3,0,0,0-2.95,3.18A3.18,3.18,0,0,0,328,259ZM285.91,110.65a3,3,0,0,0-3.63,3.49,3.08,3.08,0,0,0,3.15,2.9,3.11,3.11,0,0,0,2.87-3.18A3.18,3.18,0,0,0,285.91,110.65Zm27.71-56.82a3.23,3.23,0,0,0,.09,6.44,3.22,3.22,0,0,0-.09-6.44Zm215.92,202a3.14,3.14,0,0,0-3.05-3.23,3.21,3.21,0,1,0,3.05,3.23ZM484,82.28a3.14,3.14,0,0,0-3,3.23,3.1,3.1,0,0,0,3,3.16,3.2,3.2,0,0,0,0-6.39ZM466.74,42.84a3.06,3.06,0,0,0,3,3.26,3.19,3.19,0,0,0,0-6.38A3,3,0,0,0,466.74,42.84ZM356.22,117.06a3.2,3.2,0,0,0,0-6.38,3.2,3.2,0,0,0,0,6.38Zm14.18-6.38a3.07,3.07,0,0,0-3,3.16,3.11,3.11,0,0,0,2.94,3.22,3.19,3.19,0,0,0,0-6.38Zm99.42,48.95a3.2,3.2,0,0,0,0-6.39,3.06,3.06,0,0,0-3,3.22A3,3,0,0,0,469.81,159.62Zm67.87-3.23a3,3,0,0,0,3,3.23,3.2,3.2,0,0,0,0-6.39A3,3,0,0,0,537.68,156.39Zm-68-39.34a3.2,3.2,0,0,0,.1-6.38,3.2,3.2,0,0,0-.1,6.38Zm-99.3,135.52a3.2,3.2,0,1,0,3,3.21A3.05,3.05,0,0,0,370.39,252.57ZM356.27,259a3.2,3.2,0,0,0-.06-6.38,3.2,3.2,0,0,0,.06,6.38Zm0-28.39a3.2,3.2,0,0,0,0-6.38,3.2,3.2,0,0,0,0,6.38Zm14.21-6.38a3.11,3.11,0,0,0-3.06,3.21,3,3,0,1,0,3.06-3.21ZM413,82.28a3.12,3.12,0,0,0-3,3.17,3,3,0,1,0,3-3.17Zm56.76-64.56a3.11,3.11,0,0,0,3-3.22,3.12,3.12,0,0,0-3-3.17,3.07,3.07,0,0,0-3,3.23A3,3,0,0,0,469.72,17.72Zm0,70.95a3.2,3.2,0,1,0-3-3.16A3,3,0,0,0,469.72,88.67ZM356.17,188a3.19,3.19,0,0,0,0-6.38,3.2,3.2,0,0,0,0,6.38Zm113.57,42.56a3.2,3.2,0,1,0-3-3.13A3,3,0,0,0,469.74,230.57Zm-99.31-48.95a3.2,3.2,0,1,0,3,3.14A3,3,0,0,0,370.43,181.62ZM398.8,188a3.2,3.2,0,0,0,0-6.38,3.2,3.2,0,0,0,0,6.38ZM353.24,85.53a3,3,0,0,0,3,3.14,3.2,3.2,0,0,0,0-6.39A3.05,3.05,0,0,0,353.24,85.53Zm-25.41-3.24a3.2,3.2,0,0,0,0,6.39,3.2,3.2,0,0,0,0-6.39Zm-28.35,28.39a3.2,3.2,0,1,0,3,3.14A3.09,3.09,0,0,0,299.48,110.67Zm-.06,71a3.19,3.19,0,1,0,3.07,3.18A3.08,3.08,0,0,0,299.42,181.62Zm.09-99.34a3.2,3.2,0,0,0-.05,6.39,3.05,3.05,0,0,0,3-3.21A3.09,3.09,0,0,0,299.51,82.28Zm244.2,116.79a3.1,3.1,0,0,0-3-3.25,3,3,0,0,0-3,3.12,3,3,0,0,0,3,3.23A3.06,3.06,0,0,0,543.71,199.07ZM427.16,88.67a3.2,3.2,0,0,0,0-6.39,3.05,3.05,0,0,0-3,3.24A3,3,0,0,0,427.16,88.67ZM469.74,259a3.14,3.14,0,0,0,3-3.25,3.09,3.09,0,0,0-3-3.13,3.2,3.2,0,0,0,0,6.39ZM509.3,99.6a3,3,0,1,0,3-3.09A3,3,0,0,0,509.3,99.6ZM469.74,188a3.2,3.2,0,0,0,0-6.38,3,3,0,0,0-3,3.13A3.07,3.07,0,0,0,469.74,188ZM515.31,57.18a3,3,0,1,0-6-.15,3,3,0,1,0,6,.15Zm25.33,17.29a3.09,3.09,0,0,0,3.06-3.2,3.05,3.05,0,0,0-3-3.16,3,3,0,0,0-3,3.18A3,3,0,0,0,540.64,74.47Zm-227,170.34a3.15,3.15,0,0,0,3-3.24,3.09,3.09,0,0,0-3-3.16,3,3,0,0,0-3,3.16A3.05,3.05,0,0,0,313.67,244.82Zm227-156.15a3.2,3.2,0,0,0,0-6.39,3.07,3.07,0,0,0-3,3.24A3,3,0,0,0,540.67,88.67Zm0,28.39a3.2,3.2,0,0,0,0-6.38,3,3,0,0,0-3,3.13A3.05,3.05,0,0,0,540.68,117.05ZM356.26,159.62a3.11,3.11,0,0,0,3-3.16,3.15,3.15,0,0,0-3.05-3.23,3.2,3.2,0,0,0,0,6.39ZM413,224.18a3.13,3.13,0,0,0-3,3.23,3,3,0,1,0,6-.07A3.06,3.06,0,0,0,413,224.18ZM512.25,210a3,3,0,0,0-3,3.17,3,3,0,1,0,3-3.17Zm-70.84,14.16a3.1,3.1,0,0,0-3.06,3.2,3,3,0,1,0,6,0A3.1,3.1,0,0,0,441.41,224.18Zm-71.09,63a2.92,2.92,0,0,0,3.1-3.07,3,3,0,1,0-3.1,3.07Zm170.35-56.66a3.1,3.1,0,0,0,3-3.23,3.13,3.13,0,0,0-3-3.16,3.2,3.2,0,0,0,0,6.38ZM370.47,153.23a3.11,3.11,0,0,0-3.06,3.21,3,3,0,1,0,6,0A3.1,3.1,0,0,0,370.47,153.23ZM327.89,39.72a3,3,0,0,0-3,3.2,3,3,0,1,0,3-3.2Zm209.79,102.5a3,3,0,0,0,3,3.21,3.13,3.13,0,0,0,3-3.18,3.07,3.07,0,0,0-3.06-3.18A3,3,0,0,0,537.68,142.22ZM398.89,252.57a3,3,0,0,0-3.09,3.15,3,3,0,1,0,3.09-3.15Zm25.3-238a3,3,0,0,0,3,3.11,3.2,3.2,0,0,0-.07-6.39A3.06,3.06,0,0,0,424.18,14.61ZM398.84,153.23a3.2,3.2,0,0,0-.09,6.39,3.2,3.2,0,0,0,.09-6.39Zm-3,130.86a3,3,0,1,0,3-3.12A3,3,0,0,0,395.8,284.09ZM424.18,42.81a3.07,3.07,0,0,0,2.95,3.29,3.19,3.19,0,0,0,.09-6.38A3,3,0,0,0,424.18,42.81ZM398.8,117.06a3.2,3.2,0,0,0,0-6.38,3.2,3.2,0,0,0,0,6.38Zm0-71a3.19,3.19,0,0,0,0-6.38,3,3,0,0,0-3,3.14A3.08,3.08,0,0,0,398.81,46.1ZM384.6,17.72a3.09,3.09,0,0,0,3-3.23,3,3,0,1,0-6,.07A3.05,3.05,0,0,0,384.6,17.72Zm14.22-6.39a3.06,3.06,0,0,0-3,3.23,3,3,0,0,0,3,3.16,3.09,3.09,0,0,0,3-3.22A3.12,3.12,0,0,0,398.82,11.33Zm-28.4,28.39a3.2,3.2,0,1,0,3,3.23A3,3,0,0,0,370.42,39.72Zm56.66,77.33a3.2,3.2,0,0,0,.18-6.38,3,3,0,0,0-3.08,3A3.05,3.05,0,0,0,427.08,117.06Zm56.83,7.81a3.11,3.11,0,0,0-3,3.15,3.05,3.05,0,0,0,3,3.21,3,3,0,0,0,3-3.13A3.07,3.07,0,0,0,483.92,124.86Zm67.93,17.39a3,3,0,1,0,6,.07,3,3,0,1,0-6-.07Zm-224-17.39a3.06,3.06,0,0,0-3,3.24,3,3,0,0,0,3.1,3.12,3.19,3.19,0,0,0-.1-6.36Zm74,3.26a3.1,3.1,0,0,0-3-3.26,3.07,3.07,0,0,0-3,3.12,3,3,0,0,0,3,3.24A3.06,3.06,0,0,0,401.82,128.12ZM299.41,153.23a3.13,3.13,0,0,0-2.95,3.22,3,3,0,1,0,2.95-3.22Zm241.23-22a3.07,3.07,0,0,0,3.07-3.18,3.11,3.11,0,0,0-3.08-3.18,3.08,3.08,0,0,0-2.94,3.2A3,3,0,0,0,540.64,131.22Zm-28.29,36.23a3.17,3.17,0,1,0,3,3.16A3,3,0,0,0,512.35,167.46Zm14.07-85.17a3.2,3.2,0,0,0,0,6.39,3.2,3.2,0,0,0,0-6.39ZM413,153.23a3.2,3.2,0,0,0-.08,6.39,3.05,3.05,0,0,0,3-3.2A3.08,3.08,0,0,0,413,153.23ZM310.67,113.79a3.05,3.05,0,0,0,3,3.27,3.2,3.2,0,0,0,0-6.38A3,3,0,0,0,310.67,113.79ZM441.31,252.57a3.2,3.2,0,0,0,.11,6.39,3.12,3.12,0,0,0,3-3.21A3.07,3.07,0,0,0,441.31,252.57Zm-14.12-93a3.11,3.11,0,0,0,3-3.15,3.15,3.15,0,0,0-3-3.24,3.2,3.2,0,0,0,0,6.39ZM413,110.67a3.09,3.09,0,0,0-3.08,3.08,3.12,3.12,0,0,0,3,3.3,3.2,3.2,0,0,0,.11-6.38Zm28.31,42.56a3.2,3.2,0,1,0,3,3.23A3.09,3.09,0,0,0,441.35,153.23Zm0-42.56a3.2,3.2,0,1,0,3,3.22A3.07,3.07,0,0,0,441.34,110.67Zm53.78,45.69a3,3,0,0,0,3,3.25,3.1,3.1,0,0,0,3-3.12,3.15,3.15,0,0,0-3-3.27A3.06,3.06,0,0,0,495.12,156.37Zm31.42-3.13a3.2,3.2,0,0,0,0,6.39,3.2,3.2,0,0,0,0-6.39ZM484,252.58a3.19,3.19,0,0,0,0,6.38,3.2,3.2,0,0,0,0-6.38Zm70.92-99.34a3.14,3.14,0,0,0-3,3.24,3,3,0,1,0,3-3.24ZM427.16,259a3.2,3.2,0,0,0,0-6.38,3.2,3.2,0,0,0,0,6.38ZM557.87,128.08a3.07,3.07,0,0,0-3-3.22,3.11,3.11,0,0,0-3,3.16,3,3,0,1,0,6,.06Zm8.2,28.29a3,3,0,0,0,3,3.25,3.2,3.2,0,0,0,0-6.39A3.05,3.05,0,0,0,566.06,156.37ZM498.16,259a3.16,3.16,0,0,0,3-3.19,3.11,3.11,0,0,0-3.08-3.19,3.2,3.2,0,0,0,.09,6.39ZM484,110.67a3.19,3.19,0,0,0,0,6.38,3.2,3.2,0,0,0,0-6.38Zm70.93-28.39a3.12,3.12,0,0,0-3.06,3.21,3,3,0,1,0,3.06-3.21Zm-28.38,28.39a3.2,3.2,0,1,0,3,3.18A3.09,3.09,0,0,0,526.53,110.67Zm-11.21,131a3,3,0,1,0-3,3.1A3,3,0,0,0,515.31,241.64ZM330.88,199.12a3.12,3.12,0,0,0-2.95-3.31,3.18,3.18,0,1,0,2.95,3.31ZM398.77,53.91a3,3,0,0,0-3,3.17,3,3,0,0,0,3,3.2,3.19,3.19,0,0,0-.06-6.36Zm-70.88,0a3.07,3.07,0,0,0-3,3.21,3,3,0,0,0,3.08,3.15,3,3,0,0,0,2.94-3.19A3.09,3.09,0,0,0,327.89,53.91Zm184.4-14.19a3.2,3.2,0,1,0,3,3.22A3.06,3.06,0,0,0,512.29,39.72ZM498.13,46.1a3.19,3.19,0,0,0,0-6.38,3.2,3.2,0,0,0,0,6.38Zm-14.22-6.38a3.19,3.19,0,0,0,0,6.38,3.2,3.2,0,0,0,0-6.38Zm-42.51,0a3.2,3.2,0,1,0,3,3.18A3.07,3.07,0,0,0,441.41,39.72Zm-28.38,0A3.19,3.19,0,0,0,413,46.1a3.2,3.2,0,0,0,.07-6.38Zm-71,0a3.2,3.2,0,1,0,3,3.14A3,3,0,0,0,342.05,39.72ZM441.29,210a3.18,3.18,0,1,0,3.08,3.15A3,3,0,0,0,441.29,210ZM327.84,224.18a3.2,3.2,0,1,0,3,3.24A3.1,3.1,0,0,0,327.84,224.18Zm156.09,42.59a3.08,3.08,0,0,0-3,3.22,3,3,0,0,0,3,3.13,3,3,0,0,0,3-3.21A3.05,3.05,0,0,0,483.93,266.77Zm-85.21-42.59a3.07,3.07,0,0,0-2.93,3.22,3,3,0,0,0,3,3.16,3.08,3.08,0,0,0,3-3.21A3.11,3.11,0,0,0,398.72,224.18ZM483.92,11.4a3,3,0,0,0-3,3.06,3,3,0,1,0,6,.16A3.05,3.05,0,0,0,483.92,11.4Zm11.2,216.07a3,3,0,0,0,3,3.1,3.2,3.2,0,0,0-.06-6.39A3.06,3.06,0,0,0,495.12,227.47Zm17.18,3.1a3.06,3.06,0,0,0,3-3.14,3,3,0,1,0-6-.09A3.06,3.06,0,0,0,512.31,230.57Zm14.12-6.39a3.14,3.14,0,0,0-3,3.21,3,3,0,1,0,3-3.21ZM413,11.33a3.12,3.12,0,0,0-3,3.24,3.11,3.11,0,0,0,3,3.15,3.06,3.06,0,0,0,3-3.23A3.07,3.07,0,0,0,413,11.33Zm25.36,272.85a3,3,0,1,0,3-3.21A3.06,3.06,0,0,0,438.35,284.18ZM498.15,188a3.2,3.2,0,0,0-.06-6.38,3.2,3.2,0,0,0,.06,6.38ZM373.43,270a3,3,0,1,0-3,3.09A3,3,0,0,0,373.43,270Zm-62.75-85.25a3.06,3.06,0,0,0,3,3.22,3.2,3.2,0,0,0-.06-6.38A3,3,0,0,0,310.67,184.79ZM370.46,82.28a3.1,3.1,0,0,0-3.06,3.21,3,3,0,1,0,3.06-3.21Zm-28.39,99.34a3.2,3.2,0,1,0,3,3.17A3.09,3.09,0,0,0,342.07,181.62Zm70.92,0a3.2,3.2,0,1,0,3,3.14A3,3,0,0,0,413,181.62ZM398.73,68.12a3.19,3.19,0,0,0,.05,6.35,3.08,3.08,0,0,0,3-3.21A3,3,0,0,0,398.73,68.12Zm.09,20.55a3.2,3.2,0,1,0-3-3.22A3,3,0,0,0,398.82,88.67Zm127.6,93a3.2,3.2,0,0,0,0,6.38,3.19,3.19,0,0,0,0-6.38Zm11.26,3.15a3.06,3.06,0,0,0,3,3.24,3.2,3.2,0,0,0,0-6.38A3.05,3.05,0,0,0,537.68,184.77Zm-224-25.15a3.09,3.09,0,0,0,3-3.14,3.13,3.13,0,0,0-3-3.25,3.08,3.08,0,0,0-3,3.16A3,3,0,0,0,313.68,159.62Zm110.5,67.7a3,3,0,0,0,3,3.25,3.11,3.11,0,0,0,3-3.12,3.15,3.15,0,0,0-3-3.26A3.06,3.06,0,0,0,424.18,227.32Zm59.72-3.14a3.2,3.2,0,0,0,0,6.38,3.2,3.2,0,0,0,0-6.38ZM282.3,156.5a3,3,0,0,0,3,3.12,3.2,3.2,0,0,0,0-6.39A3.07,3.07,0,0,0,282.3,156.5ZM384.62,259a3.2,3.2,0,0,0,.08-6.38,3,3,0,0,0-3.09,3.14A3.07,3.07,0,0,0,384.62,259Zm39.57-74.21a3,3,0,0,0,3,3.26,3.2,3.2,0,0,0,0-6.38A3,3,0,0,0,424.18,184.75ZM313.66,230.57a3.2,3.2,0,1,0-3-3.15A3,3,0,0,0,313.66,230.57Zm230-59.86a3.06,3.06,0,0,0-3-3.25,3.17,3.17,0,0,0-.08,6.33A3,3,0,0,0,543.7,170.71Zm11.15-3.26a3.17,3.17,0,1,0,3,3.21A3,3,0,0,0,554.86,167.46ZM413,252.57a3.2,3.2,0,1,0,3,3.19A3.05,3.05,0,0,0,413,252.57Zm28.3-113.51a3.18,3.18,0,1,0,3,3.2A3.06,3.06,0,0,0,441.34,139.07Zm-45.54,3.16a3.06,3.06,0,0,0,3,3.2,3.12,3.12,0,0,0,3-3.18,3,3,0,1,0-6,0Zm6,99.4a3.06,3.06,0,0,0-3-3.22,3.17,3.17,0,0,0,0,6.33A3,3,0,0,0,401.82,241.63Zm-73.95-96.2a3.18,3.18,0,0,0,0-6.35,3.18,3.18,0,0,0,0,6.35Zm-28.3-6.35a3,3,0,0,0-3.11,3.13,3.08,3.08,0,0,0,3,3.22,3.19,3.19,0,0,0,.08-6.35Zm25.28,102.58a3,3,0,0,0,3,3.08,3.17,3.17,0,0,0-.06-6.33A3,3,0,0,0,324.86,241.65Zm48.57,0a3,3,0,1,0-3.08,3A3,3,0,0,0,373.43,241.69Zm181.4-60.07a3.2,3.2,0,1,0,3,3.2A3,3,0,0,0,554.83,181.62ZM299.46,195.82a3.18,3.18,0,1,0,3,3.21A3.07,3.07,0,0,0,299.46,195.82Zm71,0a3.07,3.07,0,0,0-3,3.22,3,3,0,1,0,6-.07A3.07,3.07,0,0,0,370.44,195.82Zm70.89,0a3.19,3.19,0,0,0,0,6.36,3,3,0,0,0,3.07-3.16A3.07,3.07,0,0,0,441.32,195.82Zm42.58-42.58a3.13,3.13,0,0,0-3,3.17,3.09,3.09,0,0,0,3,3.21,3.2,3.2,0,0,0,0-6.38Zm0,85.17a3.17,3.17,0,1,0,3,3.19A3,3,0,0,0,483.9,238.41ZM472.76,199a3.11,3.11,0,0,0-3-3.2,3.18,3.18,0,1,0,3,3.2ZM299.44,167.45a3.06,3.06,0,0,0-3,3.17,3,3,0,1,0,3-3.17Zm212.91,28.36a3.06,3.06,0,0,0-3.06,3.19,3,3,0,1,0,6,0A3.07,3.07,0,0,0,512.35,195.82Zm42.45,0a3.11,3.11,0,0,0-3,3.21,3,3,0,1,0,3-3.21Zm-82,45.8a3,3,0,1,0-6,0,3,3,0,0,0,3,3.1A3,3,0,0,0,472.76,241.61Zm39.57-60a3.2,3.2,0,1,0,3,3.17A3.08,3.08,0,0,0,512.33,181.62Zm-68,60a3,3,0,1,0-3,3.13A3,3,0,0,0,444.37,241.61Zm-74-74.15a3.17,3.17,0,1,0,3.08,3.15A3,3,0,0,0,370.35,167.46Zm25.44,3.11a3,3,0,0,0,3,3.21,3.17,3.17,0,0,0,0-6.33A3,3,0,0,0,395.8,170.57ZM299.51,210a3,3,0,0,0-3.05,3.19,3,3,0,1,0,6,0A3,3,0,0,0,299.51,210Zm167.23-39.35a3,3,0,0,0,3,3.11,3.17,3.17,0,0,0,0-6.33A3,3,0,0,0,466.74,170.67Zm-82.12-11.05a3.08,3.08,0,0,0,3-3.15,3.12,3.12,0,0,0-3-3.24,3.2,3.2,0,0,0,0,6.39Zm99.37,22a3.2,3.2,0,1,0,2.93,3.21A3.08,3.08,0,0,0,484,181.62ZM327.79,210a3.19,3.19,0,0,0,0,6.36,3.08,3.08,0,0,0,3-3.21A3,3,0,0,0,327.79,210Zm39.62,3.15a3,3,0,1,0,3-3.15A3.06,3.06,0,0,0,367.41,213.17Zm74-31.55a3.2,3.2,0,1,0,3,3.18A3.08,3.08,0,0,0,441.41,181.62Zm56.72,34.76a3.18,3.18,0,0,0,0-6.36,3.18,3.18,0,0,0,0,6.36ZM469.82,74.47a3.12,3.12,0,0,0,2.94-3.22,3,3,0,1,0-2.94,3.22ZM356.22,46.1a3.13,3.13,0,0,0,3-3.23,3.09,3.09,0,0,0-3.11-3.15,3.2,3.2,0,0,0,.07,6.38Zm28.35,0a3.2,3.2,0,0,0,.08-6.38,3.2,3.2,0,0,0-.08,6.38ZM401.82,270a3,3,0,1,0-6,0,3,3,0,0,0,3,3.11A3,3,0,0,0,401.82,270ZM370.4,96.51a3.17,3.17,0,1,0,3,3.2A3,3,0,0,0,370.4,96.51ZM342,53.91a3.11,3.11,0,0,0-3,3.15,3.07,3.07,0,0,0,3,3.21,3.19,3.19,0,0,0,0-6.36Zm-42.56,71a3.08,3.08,0,0,0-3,3.24,3,3,0,1,0,3-3.24ZM395.8,99.62a3,3,0,0,0,3,3.21,3.17,3.17,0,0,0,0-6.33A3,3,0,0,0,395.8,99.62Zm159.11,11.05a3.2,3.2,0,1,0,3,3.17A3,3,0,0,0,554.91,110.67ZM373.43,57.18a3,3,0,1,0-6-.06,3,3,0,1,0,6,.06Zm53.7,3.09a3.09,3.09,0,0,0,3.08-3.18,3.14,3.14,0,0,0-3-3.19,3.19,3.19,0,0,0-.09,6.36Zm14.16-6.37a3.11,3.11,0,0,0-2.94,3.22,3,3,0,1,0,2.94-3.22Zm56.86,63.15a3.2,3.2,0,0,0-.06-6.38,3.2,3.2,0,0,0,.06,6.38ZM441.32,96.5a3.05,3.05,0,0,0-3,3.17,3,3,0,1,0,3-3.17ZM327.86,110.67a3.2,3.2,0,1,0,3,3.14A3.07,3.07,0,0,0,327.86,110.67Zm230-11a3,3,0,0,0-3-3.21,3.17,3.17,0,1,0,3,3.21ZM501.15,57.06a3.11,3.11,0,0,0-3-3.15,3.19,3.19,0,0,0,0,6.36A3.08,3.08,0,0,0,501.15,57.06ZM370.38,68.12a3.18,3.18,0,0,0,.07,6.36,3.08,3.08,0,0,0,3-3.17A3,3,0,0,0,370.38,68.12Zm-14.15,6.35a3.18,3.18,0,0,0,.1-6.35,3,3,0,0,0-3.1,3.11A3,3,0,0,0,356.23,74.47Zm156.13,7.81a3.2,3.2,0,1,0,2.95,3.22A3.12,3.12,0,0,0,512.37,82.28Zm-14.19,6.39a3.2,3.2,0,0,0-.1-6.39,3.07,3.07,0,0,0-2.94,3.2A3,3,0,0,0,498.17,88.67Zm-42.53-6.38a3.2,3.2,0,1,0,2.92,3.33A3.1,3.1,0,0,0,455.64,82.28Zm0-71a3.07,3.07,0,0,0-3.06,3.09,3,3,0,1,0,6,.21A3.1,3.1,0,0,0,455.6,11.33Zm-85.11.07a3,3,0,0,0-3.1,3.12,3,3,0,1,0,6,0A3,3,0,0,0,370.49,11.4Zm-68,88.4a3,3,0,1,0-3.09,3A3,3,0,0,0,302.49,99.8Zm67.88-74.24a3.17,3.17,0,1,0,3.06,3.16A3,3,0,0,0,370.37,25.56Zm71,56.73a3.1,3.1,0,0,0-3,3.23,3,3,0,1,0,6-.06A3.1,3.1,0,0,0,441.38,82.28Zm0,42.58a3.09,3.09,0,0,0-3,3.24,3,3,0,0,0,3.11,3.12,3.19,3.19,0,0,0-.1-6.36ZM342,82.28a3.15,3.15,0,0,0-3,3.21,3.1,3.1,0,0,0,3,3.18,3.2,3.2,0,0,0,0-6.39Zm-31.32,3.27a3,3,0,0,0,3,3.12,3.2,3.2,0,1,0-3-3.12ZM430.21,128a3.12,3.12,0,0,0-3-3.16,3.19,3.19,0,0,0-.06,6.36A3.1,3.1,0,0,0,430.21,128Zm82.12,124.55a3.2,3.2,0,0,0,0,6.39,3.12,3.12,0,0,0,2.94-3.22A3.07,3.07,0,0,0,512.33,252.57ZM472.76,270a3.1,3.1,0,0,0-3-3.27,3.18,3.18,0,0,0-.07,6.35A3.06,3.06,0,0,0,472.76,270ZM381.61,85.43a3,3,0,1,0,6,.09,3,3,0,1,0-6-.09Zm73.85,96.19a3.19,3.19,0,1,0,3.1,3.14A3,3,0,0,0,455.46,181.62ZM410,71.34a3.08,3.08,0,0,0,3,3.13,3,3,0,0,0,3-3.23,3,3,0,0,0-3-3.12A3.07,3.07,0,0,0,410,71.34Zm-50.7,198.61a3.1,3.1,0,0,0-3-3.18,3.18,3.18,0,0,0-.09,6.35A3.07,3.07,0,0,0,359.26,269.95ZM413,266.77a3.1,3.1,0,0,0-3,3.22,3,3,0,1,0,3-3.22Zm-85.14-85.15a3.2,3.2,0,0,0,0,6.38,3.2,3.2,0,0,0,0-6.38ZM509.29,71.34a3,3,0,1,0,3-3.22A3.05,3.05,0,0,0,509.29,71.34Zm-25.45-3.22a3.18,3.18,0,0,0,.06,6.35,3,3,0,0,0,3-3.22A3,3,0,0,0,483.85,68.12ZM466.74,284.05a3.07,3.07,0,0,0,3,3.28,3.18,3.18,0,0,0,.07-6.36A3,3,0,0,0,466.74,284.05Zm-39.57,3.28a3.12,3.12,0,0,0,3-3.23,3.09,3.09,0,0,0-3-3.13,3,3,0,0,0-3,3.21A3,3,0,0,0,427.17,287.33Zm14.2-276a3.1,3.1,0,0,0-3,3.24,3,3,0,1,0,6-.08A3.09,3.09,0,0,0,441.37,11.33Zm14.17,212.85a3.2,3.2,0,1,0,3,3.23A3.09,3.09,0,0,0,455.54,224.18ZM401.82,28.72a3,3,0,0,0-3.06-3.17,3,3,0,0,0-3,3.16,3,3,0,0,0,3,3.18A3.07,3.07,0,0,0,401.82,28.72ZM384.56,230.57a3.08,3.08,0,0,0,3.08-3.18,3.12,3.12,0,0,0-3.07-3.21,3.2,3.2,0,0,0,0,6.38Zm56.87-205a3.17,3.17,0,1,0,2.95,3.17A3,3,0,0,0,441.43,25.55ZM342.11,224.18a3.2,3.2,0,0,0,0,6.39,3.05,3.05,0,0,0,3-3.17A3.09,3.09,0,0,0,342.11,224.18ZM472.76,28.79a3.06,3.06,0,0,0-3-3.23,3,3,0,0,0-3,3.1,3,3,0,0,0,3,3.23A3.05,3.05,0,0,0,472.76,28.79ZM551.85,213.2a3.08,3.08,0,0,0,3,3.18,3.18,3.18,0,1,0-3-3.18Zm-11.19,3.18a3.11,3.11,0,0,0,3.05-3.21,3.08,3.08,0,0,0-3-3.14,3,3,0,0,0-3,3.2A3,3,0,0,0,540.66,216.38Zm-59.75-3.26a3.1,3.1,0,0,0,3,3.26,3.18,3.18,0,1,0-3-3.26Zm-14.16-.05a3.05,3.05,0,0,0,2.92,3.31,3.18,3.18,0,0,0,.15-6.36A3,3,0,0,0,466.74,213.07Zm-70.94.13a3,3,0,0,0,3.06,3.18,3.09,3.09,0,0,0,3-3.19,3,3,0,1,0-6,0ZM455.48,39.72a3.2,3.2,0,1,0,3.08,3.16A3.08,3.08,0,0,0,455.48,39.72Zm71,0a3.2,3.2,0,1,0,3,3.22A3.05,3.05,0,0,0,526.48,39.72ZM359.27,57.09a3.12,3.12,0,0,0-3-3.18,3,3,0,0,0-3,3.2,3,3,0,0,0,3,3.16A3.07,3.07,0,0,0,359.27,57.09Zm39.45,145.08a3.05,3.05,0,0,0,3.1-3,3.11,3.11,0,0,0-2.94-3.32,3.18,3.18,0,0,0-.16,6.36Zm-42.53,0a3.18,3.18,0,0,0,.09-6.35,3.18,3.18,0,0,0-.09,6.35Zm116.58-145a3.12,3.12,0,0,0-3-3.23,3.05,3.05,0,0,0-3,3.26,3,3,0,0,0,3,3.1A3.06,3.06,0,0,0,472.76,57.13Zm11.17-3.23a3.1,3.1,0,0,0-3,3.23,3.06,3.06,0,0,0,3,3.13,3,3,0,0,0,3-3.21A3.07,3.07,0,0,0,483.93,53.91Zm-156,20.57a3.18,3.18,0,0,0,0-6.35,3.18,3.18,0,0,0,0,6.35Zm14.19-6.36A3.18,3.18,0,1,0,345,71.29,3.06,3.06,0,0,0,342.1,68.12Zm170.2,48.94a3.2,3.2,0,1,0-3-3.15A3.08,3.08,0,0,0,512.3,117.06ZM327.89,153.23a3.2,3.2,0,1,0,3,3.18A3.12,3.12,0,0,0,327.89,153.23Zm14.17,0a3.2,3.2,0,0,0,0,6.39,3,3,0,0,0,3-3.12A3.08,3.08,0,0,0,342.06,153.23Zm17.2-25.17a3.1,3.1,0,0,0-3-3.2,3.19,3.19,0,0,0-.13,6.36A3.08,3.08,0,0,0,359.27,128.06Zm96.37-17.39a3.07,3.07,0,0,0-3.1,3.15,3,3,0,1,0,6,.07A3.06,3.06,0,0,0,455.64,110.67Zm56.69,28.4a3,3,0,0,0-3,3.19,3,3,0,1,0,3-3.19Zm-17.2,3.11a3,3,0,0,0,3,3.25,3.18,3.18,0,0,0,0-6.36A3,3,0,0,0,495.12,142.18Zm-39.5,110.4a3.2,3.2,0,1,0,2.94,3.2A3.06,3.06,0,0,0,455.62,252.57Zm-.07-99.34a3.2,3.2,0,1,0,3,3.15A3.1,3.1,0,0,0,455.55,153.23Zm28.34-14.16a3.18,3.18,0,1,0,3,3.19A3,3,0,0,0,483.9,139.07Zm59.81-39.46a3.06,3.06,0,0,0-3-3.11,3.17,3.17,0,0,0,0,6.33A3.05,3.05,0,0,0,543.71,99.61Zm-31.39,53.62a3.1,3.1,0,0,0-3,3.24,3,3,0,1,0,3-3.24Zm-39.55-53.5a3.05,3.05,0,0,0-3-3.23,3.17,3.17,0,0,0,0,6.33A3.07,3.07,0,0,0,472.76,99.73Zm-3,45.69a3.1,3.1,0,0,0,3-3.24,3.06,3.06,0,0,0-3-3.12,3.18,3.18,0,0,0,0,6.36ZM370.4,124.86a3.1,3.1,0,0,0-3,3.16,3,3,0,1,0,3-3.16Zm144.91,3.2a3,3,0,1,0-6,0,3,3,0,1,0,6,0Zm-187.5,39.39a3,3,0,0,0-3,3.16,3,3,0,1,0,3-3.16Zm42.53-28.38a3.18,3.18,0,1,0,3.08,3.15A3,3,0,0,0,370.35,139.07ZM342.13,252.57a3.09,3.09,0,0,0-3.11,3.15,3.13,3.13,0,0,0,3,3.23,3.2,3.2,0,0,0,.06-6.38ZM472.76,128.13a3.1,3.1,0,0,0-3-3.27,3.05,3.05,0,0,0-3,3.11,3,3,0,1,0,6,.16Zm-187.49,17.3a3.13,3.13,0,0,0,3.05-3.22,3.07,3.07,0,0,0-3-3.14,3,3,0,0,0-3,3.2A3,3,0,0,0,285.27,145.43Zm39.58-45.77a3,3,0,0,0,3.05,3.17,3.17,3.17,0,0,0-.09-6.33A3,3,0,0,0,324.85,99.67Zm159,181.22a3,3,0,0,0-3,3.12,3,3,0,0,0,3,3.22,3.17,3.17,0,0,0,0-6.34ZM288.32,128a3.11,3.11,0,0,0-3-3.18,3.19,3.19,0,0,0-.1,6.36A3.09,3.09,0,0,0,288.32,128Zm56.72,0a3.06,3.06,0,0,0-3-3.21,3.11,3.11,0,0,0-3,3.17,3.06,3.06,0,0,0,3.05,3.19A3,3,0,0,0,345,128.07ZM413,281a3.06,3.06,0,0,0-3,3.11,3.09,3.09,0,0,0,3,3.25,3.18,3.18,0,0,0,0-6.36Zm88.15-153a3.1,3.1,0,0,0-3-3.15,3.05,3.05,0,0,0-3,3.22,3,3,0,0,0,3,3.14A3.09,3.09,0,0,0,501.15,128ZM339,213.23a3.1,3.1,0,0,0,3,3.14,3.05,3.05,0,0,0,3-3.23,3,3,0,0,0-3-3.12A3.07,3.07,0,0,0,339,213.23Zm14.22-.05a3,3,0,0,0,3,3.2,3.11,3.11,0,0,0,3-3.18A3.07,3.07,0,0,0,356.2,210,3,3,0,0,0,353.24,213.18Zm70.94,28.4a3,3,0,0,0,3.05,3.15,3.17,3.17,0,0,0-.12-6.33A3,3,0,0,0,424.18,241.58ZM572.09,128a3.13,3.13,0,0,0-3-3.18,3.19,3.19,0,0,0-.09,6.36A3.09,3.09,0,0,0,572.09,128Zm-230,11a3.19,3.19,0,1,0,3,3.16A3,3,0,0,0,342.09,139.07ZM410,213.24a3.1,3.1,0,0,0,3,3.13,3.07,3.07,0,0,0,3-3.24,3,3,0,0,0-3-3.11A3.07,3.07,0,0,0,410,213.24Zm-53.72-67.82a3.18,3.18,0,0,0,0-6.36,3.18,3.18,0,0,0,0,6.36Zm70.94,71a3.18,3.18,0,0,0,.1-6.36,3,3,0,0,0-3.09,3.12A3.05,3.05,0,0,0,427.18,216.38Zm14.18,50.39a3.06,3.06,0,0,0-3,3.23,3,3,0,1,0,6-.1A3.06,3.06,0,0,0,441.36,266.77ZM413,124.86a3.18,3.18,0,0,0-.1,6.36A3,3,0,0,0,416,128,3.07,3.07,0,0,0,413,124.86ZM410,142.2a3.09,3.09,0,0,0,3,3.23,3.18,3.18,0,0,0,0-6.36A3.09,3.09,0,0,0,410,142.2Zm17.22,3.23a3.18,3.18,0,0,0,0-6.35,3,3,0,0,0-3,3.12A3,3,0,0,0,427.18,145.43Zm70.92,28.36a3.17,3.17,0,0,0,.05-6.33,3.17,3.17,0,0,0-.05,6.33Zm-56.77-6.33a3.17,3.17,0,1,0,3,3.18A3,3,0,0,0,441.33,167.46Zm-.06-99.34a3.18,3.18,0,1,0,3.1,3.12A3,3,0,0,0,441.27,68.12Zm59.88,31.53a3.07,3.07,0,0,0-3-3.14,3.17,3.17,0,0,0-.05,6.33A3.07,3.07,0,0,0,501.15,99.65ZM342,110.67a3.2,3.2,0,1,0,3,3.22A3,3,0,0,0,342,110.67Zm0,85.14a3.18,3.18,0,0,0,0,6.36,3,3,0,0,0,3-3.13A3.06,3.06,0,0,0,342,195.81Zm42.49-78.76a3.09,3.09,0,0,0,3.11-3.05,3.12,3.12,0,0,0-2.83-3.32,3,3,0,0,0-3.19,3A3.1,3.1,0,0,0,384.52,117.05ZM501.15,199a3.11,3.11,0,0,0-3-3.18,3.18,3.18,0,0,0-.09,6.36A3.1,3.1,0,0,0,501.15,199Zm-70.94.06a3.13,3.13,0,0,0-3-3.23,3,3,0,0,0-3,3.14,3,3,0,0,0,3,3.21A3.08,3.08,0,0,0,430.21,199ZM416,57a3,3,0,0,0-3-3.11,3.12,3.12,0,0,0-3,3.17A3.07,3.07,0,0,0,413,60.27,3,3,0,0,0,416,57Zm68,138.79a3.1,3.1,0,0,0-3,3.23,3,3,0,1,0,3-3.23ZM345,241.63a3,3,0,0,0-3-3.22,3.17,3.17,0,0,0,0,6.33A3,3,0,0,0,345,241.63Zm138.82-74.17a3.08,3.08,0,0,0-3,3.19,3,3,0,0,0,3,3.14,3.17,3.17,0,0,0,0-6.33Zm42.68-42.59a3.08,3.08,0,0,0-3.07,3.18,3,3,0,1,0,3.07-3.18ZM387.63,57.13a3.09,3.09,0,0,0-3-3.22,3.06,3.06,0,0,0-3,3.16,3,3,0,1,0,6,.06Zm-2.95,230.2a3.1,3.1,0,0,0,2.95-3.21,3,3,0,1,0-2.95,3.21ZM359.27,28.67a3.08,3.08,0,0,0-3-3.11,3,3,0,0,0-3,3.22,3,3,0,0,0,3,3.11A3.06,3.06,0,0,0,359.27,28.67ZM501.15,269.93a3.1,3.1,0,0,0-3-3.16,3.18,3.18,0,0,0-.05,6.35A3.1,3.1,0,0,0,501.15,269.93ZM430.21,28.71a3.08,3.08,0,0,0-3.09-3.16,3,3,0,0,0-2.94,3.28,3,3,0,0,0,3.05,3.05A3.07,3.07,0,0,0,430.21,28.71ZM384.62,188a3.2,3.2,0,0,0,0-6.39,3.2,3.2,0,0,0,0,6.39ZM484,25.55a3.17,3.17,0,0,0-.07,6.33,3,3,0,0,0,3-3.18A3,3,0,0,0,484,25.55ZM427.17,74.48a3.15,3.15,0,0,0,3-3.24,3.08,3.08,0,0,0-3.14-3.12,3.19,3.19,0,0,0,.1,6.36Zm96.3,138.75a3,3,0,1,0,6,0,3,3,0,1,0-6,0ZM413,195.81a3.11,3.11,0,0,0-3,3.15,3.06,3.06,0,0,0,3,3.21,3,3,0,0,0,3-3.13A3.05,3.05,0,0,0,413,195.81ZM316.7,128.06a3.09,3.09,0,0,0-3.06-3.2,3.18,3.18,0,1,0,3.06,3.2ZM430.21,270a3.11,3.11,0,0,0-3.06-3.2,3,3,0,0,0-3,3.17,3,3,0,0,0,3,3.19A3.08,3.08,0,0,0,430.21,270Zm-74-25.24a3.17,3.17,0,0,0,0-6.33,3.17,3.17,0,0,0,0,6.33Zm-45.58-31.55a3.05,3.05,0,0,0,2.95,3.19,3.18,3.18,0,0,0,.1-6.36A3,3,0,0,0,310.67,213.19Zm141.87,70.89a3,3,0,1,0,6,.13,3,3,0,1,0-6-.13Zm6-227a3.07,3.07,0,0,0-3-3.18,3.1,3.1,0,0,0-3,3.21,3,3,0,1,0,6,0ZM416,241.49a3,3,0,0,0-3-3.08,3.17,3.17,0,0,0,.05,6.33A3,3,0,0,0,416,241.49Zm14.22-70.87a3.08,3.08,0,0,0-3-3.16,3,3,0,0,0-3,3.06,3,3,0,0,0,2.95,3.26A3.07,3.07,0,0,0,430.21,170.62Zm-17.29-3.16a3.17,3.17,0,0,0,0,6.33,3.17,3.17,0,0,0,0-6.33Zm-71-71a3.08,3.08,0,0,0-2.94,3.2A3,3,0,1,0,342,96.5Zm184.5-42.59a3.19,3.19,0,0,0,0,6.36,3,3,0,0,0,3.08-3.14A3.08,3.08,0,0,0,526.46,53.91ZM356.21,173.79a3.17,3.17,0,0,0,0-6.33,3.17,3.17,0,0,0,0,6.33Zm99.39-48.92a3.19,3.19,0,0,0-.2,6.35,3,3,0,0,0,3.16-3.07A3.08,3.08,0,0,0,455.6,124.86ZM483.88,96.5a3.17,3.17,0,0,0,0,6.33,3.17,3.17,0,0,0,0-6.33ZM313.71,145.43a3.18,3.18,0,0,0,0-6.36,3.18,3.18,0,0,0,0,6.36ZM413,25.56a3.17,3.17,0,0,0,0,6.33,3,3,0,0,0,3-3.16A3,3,0,0,0,413,25.56Zm82.08,45.73a3,3,0,0,0,3,3.19,3.11,3.11,0,0,0,3-3.17,3.07,3.07,0,0,0-3.07-3.18A3,3,0,0,0,495.12,71.28ZM452.54,213.22a3,3,0,1,0,3-3.2A3.06,3.06,0,0,0,452.54,213.22ZM342,167.46a3.17,3.17,0,0,0,0,6.33,3.17,3.17,0,0,0,0-6.33Zm88.16-67.79a3.07,3.07,0,0,0-3.09-3.16,3,3,0,0,0-2.94,3.28,3,3,0,0,0,3.05,3.05A3.06,3.06,0,0,0,430.21,99.66Zm-70.94.07a3.07,3.07,0,0,0-3-3.23,3.17,3.17,0,0,0,0,6.33A3,3,0,0,0,359.26,99.73Zm56.72,0a3,3,0,0,0-3-3.19,3.17,3.17,0,0,0,.06,6.33A3,3,0,0,0,416,99.69ZM529.5,199a3.06,3.06,0,0,0-3-3.23,3.1,3.1,0,0,0-3,3.14,3.06,3.06,0,0,0,3,3.22A3,3,0,0,0,529.5,199ZM384.63,131.22a3.19,3.19,0,1,0-3-3.2A3,3,0,0,0,384.63,131.22ZM501.15,28.75a3.06,3.06,0,0,0-3-3.2,3,3,0,0,0-3,3.23,3,3,0,0,0,3,3.1A3.07,3.07,0,0,0,501.15,28.75Zm0,212.8a3.09,3.09,0,0,0-3-3.15,3.17,3.17,0,0,0-.06,6.33A3.07,3.07,0,0,0,501.15,241.56ZM381.6,142.27a3,3,0,0,0,3,3.15,3.18,3.18,0,0,0,0-6.36A3,3,0,0,0,381.6,142.27Zm-67.9-67.8a3.18,3.18,0,0,0,0-6.35,3.18,3.18,0,0,0,0,6.35Zm67.9,138.68a3,3,0,1,0,3-3.13A3,3,0,0,0,381.61,213.15Zm0-141.9a3,3,0,0,0,3,3.22,3.18,3.18,0,0,0,0-6.35A3,3,0,0,0,381.6,71.25Zm70.94,0a3,3,0,1,0,3-3.14A3.05,3.05,0,0,0,452.54,71.26Zm3.08,124.56a3.08,3.08,0,0,0-3.08,3.17,3,3,0,1,0,6,0A3.07,3.07,0,0,0,455.62,195.82ZM316.7,199a3.1,3.1,0,0,0-3-3.15,3,3,0,0,0-3,3.13,3,3,0,0,0,3,3.23A3.07,3.07,0,0,0,316.7,199Zm209.75-59.9a3.18,3.18,0,1,0,3,3.18A3,3,0,0,0,526.45,139.07ZM569,145.43a3.12,3.12,0,0,0,3.05-3.21,3.08,3.08,0,0,0-3-3.14,3,3,0,0,0-3,3.19A3,3,0,0,0,569,145.43Zm-42.45-77.3a3.05,3.05,0,0,0-3.11,3.13,3,3,0,1,0,6,.08A3,3,0,0,0,526.59,68.12ZM387.63,199a3.1,3.1,0,0,0-3-3.21,3,3,0,0,0-3,3.16,3,3,0,0,0,3,3.19A3.07,3.07,0,0,0,387.63,199Zm67.92-60a3.18,3.18,0,1,0,3,3.21A3.06,3.06,0,0,0,455.55,139.07ZM387.63,269.93a3.1,3.1,0,0,0-3-3.16,3,3,0,0,0-3,3.21,3,3,0,0,0,3,3.14A3.06,3.06,0,0,0,387.63,269.93Zm135.84-99.29a3.05,3.05,0,0,0,3,3.15,3.17,3.17,0,1,0-3-3.15Zm6-70.9a3,3,0,1,0-3,3.1A3,3,0,0,0,529.49,99.73Zm-212.8-.06a3.05,3.05,0,0,0-3-3.16,3.17,3.17,0,0,0-.11,6.33A3.06,3.06,0,0,0,316.7,99.67Zm212.8,142a3,3,0,0,0-3-3.25,3.17,3.17,0,0,0-.07,6.33A3,3,0,0,0,529.49,241.66ZM458.56,270a3,3,0,1,0-6,0,3,3,0,0,0,3,3.18A3.06,3.06,0,0,0,458.56,270Zm113.53-99.35a3.08,3.08,0,0,0-3-3.16,3.17,3.17,0,0,0-.09,6.33A3.08,3.08,0,0,0,572.09,170.62ZM387.63,28.7a3.07,3.07,0,0,0-3-3.15,3,3,0,0,0-3,3.18,3,3,0,0,0,3,3.14A3,3,0,0,0,387.63,28.7Zm0,212.9a3.07,3.07,0,0,0-3-3.19,3.17,3.17,0,1,0,3,3.19ZM316.7,170.67a3.07,3.07,0,0,0-3-3.22,3.17,3.17,0,0,0,0,6.33A3.06,3.06,0,0,0,316.7,170.67Zm70.93-70.93a3.06,3.06,0,0,0-3-3.24,3.17,3.17,0,1,0,3,3.24Zm0,70.93a3.06,3.06,0,0,0-3-3.22,3.17,3.17,0,1,0,3,3.22Zm64.91-142a3,3,0,0,0,2.87,3.26,3,3,0,0,0,3.15-3.07,3.05,3.05,0,0,0-2.87-3.26A3,3,0,0,0,452.54,28.62Zm0,212.94a3,3,0,1,0,3.07-3.16A3.05,3.05,0,0,0,452.53,241.57Zm6-141.91a3,3,0,1,0-2.95,3.18A3,3,0,0,0,458.56,99.65Zm0,71a3,3,0,1,0-3,3.13A3,3,0,0,0,458.56,170.66Zm-3.71,129a2.18,2.18,0,0,0,.21-4.35,2.07,2.07,0,0,0-2.12,2.07A2.1,2.1,0,0,0,454.85,299.65ZM287.43,196.37a2.2,2.2,0,0,0-2.24,2.1,2.16,2.16,0,0,0,2.18,2,2.12,2.12,0,0,0,2.18-2A2.17,2.17,0,0,0,287.43,196.37Zm264,30.48a2.16,2.16,0,0,0,2.24,2.09,2.12,2.12,0,0,0,2.12-2.09,2.18,2.18,0,0,0-4.36,0Zm-248.6,0a2.18,2.18,0,1,0-2.14,2.07A2.12,2.12,0,0,0,302.85,226.86ZM441.18,4.77a2.24,2.24,0,0,0,2.09-2.16A2.19,2.19,0,0,0,441.11.41a2.08,2.08,0,0,0-2,2.21A2.07,2.07,0,0,0,441.18,4.77Zm70.91,26.81a2.18,2.18,0,0,0,.06-4.36,2.19,2.19,0,0,0-.06,4.36Zm-71,268.07a2.23,2.23,0,0,0,2.16-2.19,2.21,2.21,0,0,0-2.08-2.17,2.19,2.19,0,0,0-.09,4.36Zm25.65-2.21a2.08,2.08,0,0,0,2,2.21,2.24,2.24,0,0,0,2.15-2.21,2.21,2.21,0,0,0-2.09-2.15A2.07,2.07,0,0,0,466.75,297.44Zm-70.34-.07a2.07,2.07,0,0,0,2,2.15,2.13,2.13,0,0,0,2.09-2.22,2.19,2.19,0,0,0-2.1-2.13A2.13,2.13,0,0,0,396.41,297.38Zm-56.14-268a2.12,2.12,0,0,0,2.06,2.18,2.18,2.18,0,0,0,0-4.36A2.12,2.12,0,0,0,340.28,29.4Zm13.61-14.8a2.07,2.07,0,0,0,2,2.14A2.13,2.13,0,0,0,358,14.51a2.19,2.19,0,0,0-2.12-2.12A2.14,2.14,0,0,0,353.89,14.6ZM466.76,2.54a2.08,2.08,0,0,0,2.11,2.11,2.12,2.12,0,0,0,2-2.22,2.07,2.07,0,1,0-4.12.11Zm-66.23,0A2.2,2.2,0,0,0,398.48.3a2.13,2.13,0,0,0-2.06,2.15,2.07,2.07,0,0,0,2,2.2A2.11,2.11,0,0,0,400.53,2.58Zm11.74,292.72a2.18,2.18,0,0,0,0,4.36,2.11,2.11,0,0,0,2-2.2A2.09,2.09,0,0,0,412.27,295.29Zm15-.41a2.13,2.13,0,0,0-2.12,2.12,2.22,2.22,0,0,0,2,2.23,2.1,2.1,0,0,0,2.07-2.15A2,2,0,0,0,427.27,294.88Zm-40.77,2a2.18,2.18,0,1,0-2.18,2A2.07,2.07,0,0,0,386.49,296.92Zm111-14.89a2.17,2.17,0,0,0-2.14,2.09,2.14,2.14,0,0,0,2.25,2.06,2.09,2.09,0,0,0,2.08-2.12A2.16,2.16,0,0,0,497.46,282Zm-143.84,2a2.13,2.13,0,0,0,2.2,2.11,2.1,2.1,0,0,0,2.14-2.06,2.17,2.17,0,0,0-4.33,0ZM427.18,0a2.14,2.14,0,0,0-2,2.21,2.21,2.21,0,0,0,2.12,2.14,2.12,2.12,0,0,0,2-2.24A2,2,0,0,0,427.18,0ZM384.67.3a2.14,2.14,0,0,0-2.07,2.18,2.08,2.08,0,0,0,2,2.17,2.11,2.11,0,0,0,2.07-2.15A2.16,2.16,0,0,0,384.67.3ZM455,.3A2.16,2.16,0,0,0,453,2.49a2.06,2.06,0,1,0,4.11,0A2.13,2.13,0,0,0,455,.3ZM412.32.41a2.14,2.14,0,0,0-2.09,2.15,2.15,2.15,0,0,0,2,2.21,2.11,2.11,0,0,0,2.07-2.15A2.09,2.09,0,0,0,412.32.41Zm86,12a2.18,2.18,0,0,0-2,2.22,2.06,2.06,0,1,0,4.11-.06A2.13,2.13,0,0,0,498.32,12.39Zm16.19,257.17a2.06,2.06,0,1,0-4.12,0,2.08,2.08,0,0,0,2,2.17A2.11,2.11,0,0,0,514.51,269.57Zm-170.12.06a2.16,2.16,0,0,0-2-2.25,2.13,2.13,0,0,0-2.12,2.11,2.06,2.06,0,1,0,4.11.14Zm222.86-73.21a2.18,2.18,0,0,0-2,2.22,2.06,2.06,0,1,0,4.11-.06A2.13,2.13,0,0,0,567.25,196.42ZM302.64,72a2.18,2.18,0,1,0-2.18,2A2.07,2.07,0,0,0,302.64,72Zm253.16,0A2.18,2.18,0,1,0,553.67,74,2.07,2.07,0,0,0,555.8,71.94Zm11.5,26.73a2.16,2.16,0,0,0-2.08,2.16,2.06,2.06,0,1,0,4.11,0A2.13,2.13,0,0,0,567.3,98.66Zm-279.08,2.17a2.09,2.09,0,0,0-2.13-2.09,2.11,2.11,0,0,0-2.21,2,2.07,2.07,0,0,0,2.14,2.07A2.05,2.05,0,0,0,288.22,100.83Z" style="fill:url(#New_Gradient_Swatch)"/>
            <path d="M328.19,133.16a43.1,43.1,0,0,1-60.28,0c-5.57-5.45-14.15,3.11-8.57,8.57a55.42,55.42,0,0,0,77.42,0c5.58-5.45-3-14-8.57-8.57Z" style="fill:#4ff0d6"/>
            <circle cx="84.48" cy="204.93" r="15.01" style="fill:#4ff0d6"/>
            <circle cx="15.01" cy="41.06" r="15.01" style="fill:#e0ed3a"/>
            <circle cx="187.5" cy="118.5" r="15.01" style="fill:#f83c7a"/>
        </g>
    </g>
</svg>
