<svg xmlns="http://www.w3.org/2000/svg" xmlns:xlink="http://www.w3.org/1999/xlink" viewBox="0 0 224.6 206.44"><defs><linearGradient id="New_Gradient_Swatch_3" x1="13.75" y1="70.58" x2="168.45" y2="70.58" gradientUnits="userSpaceOnUse"><stop offset="0" stop-color="#dfec3a"/><stop offset="1" stop-color="#4ff0d6"/></linearGradient><linearGradient id="New_Gradient_Swatch_3-2" x1="0" y1="103.87" x2="224.6" y2="103.87" xlink:href="#New_Gradient_Swatch_3"/></defs><title>pattern-12</title><g id="Layer_2" data-name="Layer 2"><g id="Base"><path d="M14.75,140.17c6.36-5.8,12.72,0,19.08-5.8s0-11.59,6.37-17.39,12.72,0,19.08-5.81,0-11.59,6.37-17.39,12.72,0,19.08-5.8,0-11.59,6.37-17.39,12.72,0,19.08-5.81,0-11.59,6.37-17.39,12.72,0,19.08-5.81S135.63,30,142,24.2s12.72,0,19.08-5.81,0-11.59,6.37-17.39" style="fill:none;stroke-linecap:round;stroke-miterlimit:10;stroke-width:2px;stroke:url(#New_Gradient_Swatch_3)"/><path d="M2.5,203.94c9.15-8.34,18.29,0,27.44-8.35s0-16.67,9.16-25,18.29,0,27.44-8.35,0-16.67,9.16-25,18.29,0,27.44-8.35,0-16.67,9.16-25,18.29,0,27.44-8.35,0-16.67,9.16-25,18.29,0,27.44-8.35,0-16.67,9.16-25,18.29,0,27.44-8.35,0-16.67,9.16-25" style="fill:none;stroke-linecap:round;stroke-miterlimit:10;stroke-width:5px;stroke:url(#New_Gradient_Swatch_3-2)"/></g></g></svg>