<svg width="100%" height="100%" xmlns="http://www.w3.org/2000/svg" xmlns:xlink="http://www.w3.org/1999/xlink" viewBox="0 0 179.61 204.02">
    <defs>
        <linearGradient id="linear-gradient" x2="140.13" y1="131.7" y2="131.7" gradientUnits="userSpaceOnUse">
            <stop offset="0" stop-color="#0ceaea"/>
            <stop offset="0.5" stop-color="#20e2b1"/>
            <stop offset="1" stop-color="#29ffc5"/>
        </linearGradient>
    </defs>
    <title>
        pattern-14
    </title>
    <g id="Layer_2" data-name="Layer 2">
        <g id="Layer_1-2" data-name="Layer 1">
            <circle cx="118.52" cy="61.09" r="61.09" style="fill:#f55254"/>
            <path d="M138.67,150.14a1.51,1.51,0,0,1-1.64-1.38s0-.1,0-.15a1.46,1.46,0,0,1,1.35-1.56h.08a1.55,1.55,0,0,1,1.65,1.44s0,.07,0,.1a1.48,1.48,0,0,1-1.39,1.56h-.05ZM137,114.35a1.56,1.56,0,0,1,1.52-1.61h.09a1.47,1.47,0,0,1,1.49,1.44s0,.05,0,.08a1.61,1.61,0,0,1-1.6,1.61h0a1.47,1.47,0,0,1-1.44-1.49v0ZM.13,141.69a1.43,1.43,0,0,1,1.37-1.49h.08a1.61,1.61,0,0,1,1.57,1.61,1.48,1.48,0,0,1-1.46,1.5h0a1.61,1.61,0,0,1-1.56-1.62ZM123.34,87a1.54,1.54,0,0,1,1.48-1.6h.08a1.47,1.47,0,0,1,1.46,1.48s0,0,0,.07a1.56,1.56,0,0,1-1.55,1.56h-.05A1.44,1.44,0,0,1,123.34,87v0ZM1.46,150.14A1.45,1.45,0,0,1,0,148.7s0-.07,0-.1A1.53,1.53,0,0,1,1.51,147h.08A1.5,1.5,0,0,1,3,148.57a1.55,1.55,0,0,1-1.53,1.57h0ZM123.34,176a1.43,1.43,0,0,1,1.34-1.52h.13a1.55,1.55,0,0,1,.1,3.09,1.52,1.52,0,0,1-1.56-1.48S123.34,176,123.34,176ZM20.65,182.81A1.47,1.47,0,0,1,22,181.27h0a1.53,1.53,0,0,1,1.53,1.54v0a1.48,1.48,0,0,1-1.42,1.54h0a1.54,1.54,0,0,1-1.53-1.55ZM3,114.34a1.5,1.5,0,0,1-1.39,1.54,1.48,1.48,0,0,1-1.52-1.4,1.46,1.46,0,0,1,1.76-1.69A1.54,1.54,0,0,1,3,114.34ZM16.72,86.9a1.51,1.51,0,0,1-1.44,1.57,1.56,1.56,0,1,1,1.44-1.67S16.72,86.87,16.72,86.9Zm101.21,97.47a1.55,1.55,0,0,1,0-3.1,1.51,1.51,0,0,1,1.47,1.56h0a1.49,1.49,0,0,1-1.44,1.54h0ZM98.85,100.63a1.48,1.48,0,0,1-1.4,1.55h-.06a1.49,1.49,0,0,1-1.44-1.53,1.51,1.51,0,0,1,1.47-1.56h0a1.48,1.48,0,0,1,1.43,1.52h0Zm-8.28-22a1.54,1.54,0,0,1,0,3.08,1.48,1.48,0,0,1-1.44-1.51s0,0,0-.06a1.46,1.46,0,0,1,1.42-1.5ZM34.35,114.35a1.47,1.47,0,0,1,1.38-1.55h.08a1.54,1.54,0,0,1,0,3.08,1.47,1.47,0,0,1-1.46-1.48Zm9.74,0a1.48,1.48,0,0,1-1.42,1.53H42.6a1.5,1.5,0,0,1-1.42-1.55,1.46,1.46,0,1,1,2.91,0Zm45,20.54a1.48,1.48,0,0,1,1.4-1.55h.06a1.55,1.55,0,0,1,0,3.08A1.46,1.46,0,0,1,89.14,135s0,0,0-.07Zm35.64-1.56a1.55,1.55,0,1,1-1.41,1.41A1.54,1.54,0,0,1,124.78,133.33Zm-35.64-19a1.46,1.46,0,0,1,1.38-1.54h.09a1.54,1.54,0,0,1,0,3.08,1.48,1.48,0,0,1-1.42-1.53h0Zm-45,68.47a1.46,1.46,0,1,1-1.47-1.55,1.47,1.47,0,0,1,1.47,1.47S44.09,182.79,44.09,182.81Zm-9.74,0a1.46,1.46,0,0,1,1.39-1.52h0a1.54,1.54,0,0,1,0,3.08,1.47,1.47,0,0,1-1.46-1.48S34.35,182.81,34.35,182.79Zm0-13.69a1.47,1.47,0,0,1,1.41-1.53h0a1.54,1.54,0,1,1,0,3.08,1.46,1.46,0,0,1-1.44-1.48S34.35,169.12,34.35,169.1Zm9.74,0a1.46,1.46,0,1,1,0-.18A1.46,1.46,0,0,1,44.09,169.11Zm20.54-68.45a1.46,1.46,0,1,1-2.91,0,1.5,1.5,0,0,1,1.44-1.53,1.48,1.48,0,0,1,1.46,1.5ZM89.14,66.43a1.48,1.48,0,0,1,1.41-1.56h.05a1.54,1.54,0,1,1,0,3.08,1.46,1.46,0,0,1-1.46-1.46S89.14,66.45,89.14,66.43Zm0,34.23a1.48,1.48,0,0,1,1.41-1.56h.06a1.54,1.54,0,0,1,0,3.08,1.47,1.47,0,0,1-1.46-1.48ZM34.35,148.57A1.46,1.46,0,0,1,35.73,147h0a1.54,1.54,0,0,1,0,3.08,1.47,1.47,0,0,1-1.42-1.51Zm54.76,20.57a1.46,1.46,0,1,1,1.45,1.51,1.46,1.46,0,0,1-1.45-1.51v0Zm-45-20.59A1.46,1.46,0,1,1,42.64,147,1.49,1.49,0,0,1,44.09,148.54Zm10.8,0A1.48,1.48,0,0,1,56.33,147h0a1.54,1.54,0,0,1,0,3.08,1.48,1.48,0,0,1-1.45-1.5S54.89,148.57,54.89,148.55ZM35.79,99.1a1.55,1.55,0,1,1-1.41,1.41A1.54,1.54,0,0,1,35.79,99.1Zm-12.24,1.55a1.5,1.5,0,0,1-1.44,1.53,1.55,1.55,0,0,1,0-3.08,1.5,1.5,0,0,1,1.44,1.55ZM9.86,114.32a1.46,1.46,0,1,1-1.45-1.51,1.48,1.48,0,0,1,1.45,1.5Zm0,34.25a1.48,1.48,0,0,1-1.41,1.54H8.39a1.54,1.54,0,0,1,0-3.08,1.48,1.48,0,0,1,1.47,1.49Zm0-47.93a1.46,1.46,0,1,1,0-.18A1.46,1.46,0,0,1,9.86,100.63Zm114.91,56.31a1.45,1.45,0,0,1-1.44-1.46s0-.07,0-.11a1.47,1.47,0,0,1,1.44-1.5h0a1.5,1.5,0,0,1,1.45,1.54v0a1.48,1.48,0,0,1-1.46,1.5Zm-56.2-56.28A1.47,1.47,0,0,1,70,99.11H70a1.54,1.54,0,1,1,0,3.08,1.46,1.46,0,0,1-1.45-1.46S68.58,100.69,68.58,100.67Zm20.56,82.16a1.47,1.47,0,0,1,1.37-1.56h.08A1.49,1.49,0,0,1,92,182.78a1.51,1.51,0,0,1-1.46,1.57h0a1.47,1.47,0,0,1-1.45-1.5Zm22-76.86a1.53,1.53,0,1,1-1.46,1.6s0-.07,0-.11a1.47,1.47,0,0,1,1.44-1.49Zm-22,42.58A1.47,1.47,0,0,1,90.55,147h0a1.54,1.54,0,0,1,0,3.08,1.48,1.48,0,0,1-1.45-1.51Zm21.94-60.06a1.54,1.54,0,0,1,0-3.07,1.49,1.49,0,0,1,1.44,1.53v0a1.46,1.46,0,0,1-1.43,1.49Zm12.26,5.32a1.45,1.45,0,0,1,1.36-1.53h.1a1.47,1.47,0,0,1,1.44,1.5v0a1.49,1.49,0,0,1-1.44,1.54h0a1.47,1.47,0,0,1-1.43-1.5v0ZM13.81,176a1.45,1.45,0,0,1,1.37-1.52h.1A1.49,1.49,0,0,1,16.72,176a1.52,1.52,0,0,1-1.46,1.56A1.47,1.47,0,0,1,13.81,176S13.81,176,13.81,176Zm109.53-75.31a1.48,1.48,0,0,1,1.4-1.56h.05a1.54,1.54,0,0,1,0,3.08,1.46,1.46,0,0,1-1.45-1.47Zm0,13.64a1.46,1.46,0,0,1,1.41-1.51h0a1.54,1.54,0,0,1,0,3.08,1.47,1.47,0,0,1-1.45-1.5S123.34,114.33,123.34,114.31Zm-89,20.55a1.47,1.47,0,0,1,1.4-1.53h0a1.52,1.52,0,0,1,1.47,1.56,1.5,1.5,0,0,1-1.45,1.53,1.47,1.47,0,0,1-1.46-1.47S34.35,134.89,34.35,134.86Zm30.28,34.23a1.46,1.46,0,1,1-2.91,0,1.51,1.51,0,0,1,1.46-1.56h0a1.48,1.48,0,0,1,1.44,1.51h0Zm47.92-6.83a1.46,1.46,0,1,1,0-.18A1.46,1.46,0,0,1,112.55,162.26Zm-34.23,6.85a1.46,1.46,0,1,1-1.43-1.54,1.48,1.48,0,0,1,1.43,1.53ZM41.18,196.45a1.46,1.46,0,1,1,2.91.06A1.41,1.41,0,0,1,42.75,198H42.6a1.47,1.47,0,0,1-1.42-1.52v0Zm82.16-27.32a1.48,1.48,0,0,1,1.39-1.56h.06a1.51,1.51,0,0,1,1.46,1.53,1.49,1.49,0,0,1-1.43,1.56h0a1.47,1.47,0,0,1-1.44-1.49ZM44.09,134.88a1.46,1.46,0,1,1,0-.18A1.46,1.46,0,0,1,44.09,134.88ZM23.56,80.1a1.46,1.46,0,1,1-2.91,0,1.47,1.47,0,0,1,1.4-1.54h.07A1.49,1.49,0,0,1,23.56,80.1ZM124.77,126.5a1.48,1.48,0,0,1,1.48,1.48s0,0,0,.06a1.51,1.51,0,0,1-1.44,1.53,1.47,1.47,0,0,1-1.46-1.47s0-.05,0-.08a1.44,1.44,0,0,1,1.37-1.52h.06Zm-67,56.32a1.46,1.46,0,1,1-1.49-1.55h.08a1.49,1.49,0,0,1,1.41,1.55ZM70,64.87A1.54,1.54,0,1,1,70,68h0a1.46,1.46,0,0,1-1.46-1.45s0,0,0,0a1.48,1.48,0,0,1,1.37-1.58ZM57.79,134.92a1.5,1.5,0,0,1-1.48,1.49,1.55,1.55,0,0,1,0-3.08,1.5,1.5,0,0,1,1.44,1.57Zm-1.46,60a1.54,1.54,0,1,1-1.45,1.62s0-.08,0-.11a1.45,1.45,0,0,1,1.4-1.5ZM70,78.59a1.54,1.54,0,0,1,0,3.08,1.48,1.48,0,0,1-1.43-1.53v-.07A1.46,1.46,0,0,1,70,78.59ZM54.89,114.32a1.47,1.47,0,0,1,1.43-1.51h0a1.54,1.54,0,1,1-1.45,1.63S54.89,114.35,54.89,114.32Zm0-34.23a1.47,1.47,0,0,1,1.42-1.51h0a1.54,1.54,0,1,1-1.44,1.63S54.89,80.13,54.89,80.09ZM48,66.43A1.46,1.46,0,1,1,49.48,68,1.48,1.48,0,0,1,48,66.44Zm9.75,0a1.49,1.49,0,0,1-1.42,1.55h0a1.55,1.55,0,0,1,0-3.08A1.5,1.5,0,0,1,57.79,66.4ZM44.09,80.13a1.46,1.46,0,1,1-1.45-1.56,1.47,1.47,0,0,1,1.45,1.49S44.09,80.11,44.09,80.13Zm24.49,34.14A1.45,1.45,0,0,1,70,112.8h.05a1.54,1.54,0,0,1-.09,3.08,1.47,1.47,0,0,1-1.4-1.54v-.07Zm30.27,6.93a1.46,1.46,0,0,1-1.4,1.51h0a1.47,1.47,0,0,1-1.46-1.48s0,0,0-.07a1.5,1.5,0,0,1,1.46-1.52,1.48,1.48,0,0,1,1.45,1.51Zm32.8,5.3a1.54,1.54,0,1,1-1.46,1.43A1.54,1.54,0,0,1,131.64,126.5ZM23.56,121.16a1.49,1.49,0,0,1-1.41,1.56,1.45,1.45,0,0,1-1.5-1.4s0-.07,0-.1a1.46,1.46,0,1,1,2.91-.05Zm32.76,1.56a1.46,1.46,0,0,1-1.44-1.47s0-.06,0-.09a1.48,1.48,0,0,1,1.46-1.5h0a1.5,1.5,0,0,1,1.45,1.55v0a1.48,1.48,0,0,1-1.46,1.49ZM9.86,134.86a1.46,1.46,0,1,1-2.91,0,1.51,1.51,0,0,1,1.42-1.56,1.48,1.48,0,0,1,1.48,1.48S9.87,134.84,9.86,134.86Zm113.48-13.67a1.48,1.48,0,0,1,1.42-1.55h0a1.5,1.5,0,0,1,1.49,1.51v0a1.48,1.48,0,0,1-1.43,1.53h-.05a1.45,1.45,0,0,1-1.43-1.47v-.05Zm-10.79,20.54a1.46,1.46,0,1,1-1.43-1.53,1.46,1.46,0,0,1,1.43,1.53Zm6.84-41.09a1.46,1.46,0,1,1,0-.18A1.46,1.46,0,0,1,119.39,100.64ZM64.63,134.87a1.47,1.47,0,0,1-1.4,1.54h-.07a1.54,1.54,0,1,1,1.46-1.61S64.63,134.85,64.63,134.87ZM15.26,112.8a1.54,1.54,0,0,1,0,3.08,1.47,1.47,0,0,1-1.44-1.5s0,0,0-.07a1.46,1.46,0,0,1,1.41-1.5Zm63.05,70a1.46,1.46,0,1,1,0-.18A1.46,1.46,0,0,1,78.32,182.8Zm-9.74-47.94A1.47,1.47,0,0,1,70,133.33h0a1.52,1.52,0,0,1,1.47,1.56A1.5,1.5,0,0,1,70,136.41a1.46,1.46,0,0,1-1.45-1.47S68.58,134.88,68.58,134.86Zm-4-20.47a1.48,1.48,0,0,1-1.47,1.49h0a1.5,1.5,0,0,1-1.43-1.57v0a1.46,1.46,0,1,1,2.91,0s0,.1,0,.14Zm13.7,20.5a1.46,1.46,0,1,1-1.46-1.56,1.49,1.49,0,0,1,1.46,1.51Zm0-20.54a1.46,1.46,0,1,1-1.46-1.55,1.49,1.49,0,0,1,1.46,1.52Zm25.94,19a1.52,1.52,0,0,1,1.46,1.58,1.5,1.5,0,0,1-1.47,1.5,1.54,1.54,0,1,1,0-3.08Zm15.13,1.54a1.46,1.46,0,1,1-2.91,0,1.5,1.5,0,0,1,1.45-1.54h0a1.48,1.48,0,0,1,1.42,1.53ZM98.85,182.79a1.46,1.46,0,1,1-2.91,0,1.5,1.5,0,0,1,1.44-1.55h0a1.47,1.47,0,0,1,1.44,1.51Zm34.23-47.93a1.46,1.46,0,1,1-2.91,0,1.51,1.51,0,0,1,1.46-1.56,1.49,1.49,0,0,1,1.44,1.53Zm-64.5,47.91a1.47,1.47,0,0,1,1.44-1.5h0a1.54,1.54,0,1,1,0,3.08,1.47,1.47,0,0,1-1.46-1.48S68.58,182.8,68.58,182.77Zm63.06-60.05a1.47,1.47,0,0,1-1.47-1.48s0,0,0-.07a1.5,1.5,0,0,1,1.44-1.53,1.48,1.48,0,0,1,1.46,1.5v0a1.46,1.46,0,0,1-1.41,1.51Zm6.84,10.62a1.55,1.55,0,1,1-1.41,1.41A1.54,1.54,0,0,1,138.48,133.34ZM102.8,182.8a1.46,1.46,0,0,1,1.38-1.53h0a1.5,1.5,0,0,1,1.49,1.52v0a1.52,1.52,0,0,1-1.44,1.54,1.47,1.47,0,0,1-1.47-1.46s0-.05,0-.08Zm-4-68.46a1.47,1.47,0,0,1-1.4,1.54h0a1.54,1.54,0,0,1,0-3.08,1.47,1.47,0,0,1,1.42,1.52Zm34.23-13.7a1.46,1.46,0,1,1-2.91,0,1.51,1.51,0,0,1,1.47-1.55h0a1.49,1.49,0,0,1,1.43,1.54Zm-13.69,13.69A1.46,1.46,0,1,1,118,112.8,1.48,1.48,0,0,1,119.39,114.33Zm-8.32,63.15a1.53,1.53,0,1,1,1.46-1.6s0,.07,0,.1a1.46,1.46,0,0,1-1.41,1.5Zm-89-20.54a1.54,1.54,0,0,1,.07-3.07,1.5,1.5,0,0,1,1.42,1.58v0a1.47,1.47,0,0,1-1.48,1.46ZM57.79,87a1.48,1.48,0,0,1-1.44,1.52h0A1.46,1.46,0,0,1,54.88,87s0-.06,0-.09a1.47,1.47,0,0,1,1.41-1.53h0a1.49,1.49,0,0,1,1.47,1.5Zm-34.23,0a1.47,1.47,0,0,1-1.4,1.54h0a1.46,1.46,0,0,1-1.49-1.42s0-.07,0-.1a1.46,1.46,0,1,1,2.91,0Zm89-6.82a1.46,1.46,0,1,1-1.46-1.55,1.49,1.49,0,0,1,1.46,1.52Zm-9.74,0a1.47,1.47,0,0,1,1.41-1.52h0a1.54,1.54,0,0,1,0,3.08,1.47,1.47,0,0,1-1.44-1.49S102.8,80.11,102.8,80.09Zm-4,0a1.47,1.47,0,0,1-1.42,1.52h0a1.54,1.54,0,0,1,0-3.08,1.47,1.47,0,0,1,1.44,1.49S98.85,80.1,98.85,80.12Zm-20.53,0a1.46,1.46,0,1,1-1.43-1.54,1.48,1.48,0,0,1,1.43,1.53Zm-13.7,0a1.47,1.47,0,0,1-1.39,1.54h-.07a1.54,1.54,0,0,1,0-3.08,1.47,1.47,0,0,1,1.43,1.5Zm-34.22,0A1.48,1.48,0,0,1,29,81.65h-.06a1.54,1.54,0,0,1,0-3.08,1.47,1.47,0,0,1,1.45,1.48Zm47.92,82.17a1.47,1.47,0,1,1,0-.08S78.32,162.23,78.32,162.25Zm-54.76,6.88a1.49,1.49,0,0,1-1.45,1.52,1.55,1.55,0,0,1,0-3.08,1.5,1.5,0,0,1,1.45,1.54Zm75.29,20.5a1.46,1.46,0,0,1-1.36,1.54H97.4a1.47,1.47,0,0,1-1.46-1.49v0a1.46,1.46,0,1,1,2.91,0ZM57.79,169.1a1.49,1.49,0,0,1-1.43,1.55h0a1.47,1.47,0,0,1-1.43-1.5v0a1.48,1.48,0,0,1,1.41-1.55h0a1.5,1.5,0,0,1,1.49,1.51ZM98.84,66.46a1.46,1.46,0,1,1-1.48-1.56h0a1.47,1.47,0,0,1,1.44,1.5Zm5.39,101.11a1.54,1.54,0,1,1,0,3.08h0a1.46,1.46,0,0,1-1.46-1.45s0,0,0,0a1.48,1.48,0,0,1,1.37-1.58h.06Zm5.4,1.53a1.46,1.46,0,1,1,0,.17A1.46,1.46,0,0,1,109.64,169.09Zm9.75,0a1.46,1.46,0,1,1-2.91,0,1.51,1.51,0,0,1,1.43-1.55,1.49,1.49,0,0,1,1.48,1.5ZM64.63,66.39A1.48,1.48,0,0,1,63.24,68h-.06a1.54,1.54,0,1,1,0-3.08h0a1.48,1.48,0,0,1,1.45,1.51ZM76.88,195a1.54,1.54,0,1,1-1.46,1.6s0,0,0-.06A1.47,1.47,0,0,1,76.8,195Zm25.92-46.41a1.46,1.46,0,0,1,1.38-1.53h.05a1.54,1.54,0,1,1,0,3.08,1.46,1.46,0,0,1-1.46-1.46s0-.06,0-.09ZM42.62,191.18a1.54,1.54,0,1,1,1.47-1.6s0,.08,0,.12a1.47,1.47,0,0,1-1.44,1.49ZM15.24,147a1.54,1.54,0,0,1,0,3.08,1.54,1.54,0,0,1,0-3.08Zm28.85-46.39a1.46,1.46,0,1,1-1.43-1.54,1.48,1.48,0,0,1,1.43,1.53ZM30.4,148.56a1.48,1.48,0,0,1-1.4,1.55h-.07A1.54,1.54,0,1,1,29,147h0a1.48,1.48,0,0,1,1.44,1.52Zm34.23,0a1.48,1.48,0,0,1-1.4,1.56h-.05a1.54,1.54,0,0,1,0-3.08,1.47,1.47,0,0,1,1.45,1.49ZM57.79,93.78a1.49,1.49,0,0,1-1.42,1.55h0a1.54,1.54,0,1,1,1.46-1.6Zm-2.89,6.85a1.48,1.48,0,0,1,1.43-1.53h0a1.54,1.54,0,0,1,0,3.08,1.47,1.47,0,0,1-1.44-1.49S54.89,100.65,54.89,100.63Zm64.5,47.93a1.48,1.48,0,0,1-1.41,1.55h0a1.55,1.55,0,0,1,0-3.08,1.47,1.47,0,0,1,1.46,1.47S119.39,148.54,119.39,148.56Zm5.39-1.53a1.54,1.54,0,1,1-1.44,1.63s0-.08,0-.11a1.47,1.47,0,0,1,1.42-1.52Zm-111-12.17a1.48,1.48,0,0,1,1.44-1.52h0a1.51,1.51,0,0,1,1.46,1.57h0a1.49,1.49,0,0,1-1.46,1.51,1.47,1.47,0,0,1-1.45-1.48S13.81,134.88,13.81,134.86ZM70,167.57a1.52,1.52,0,0,1,1.46,1.57,1.5,1.5,0,0,1-1.47,1.5,1.46,1.46,0,0,1-1.44-1.48s0-.06,0-.09A1.48,1.48,0,0,1,70,167.57h0Zm28.82,1.56a1.47,1.47,0,0,1-1.42,1.52h0a1.54,1.54,0,0,1,0-3.08,1.48,1.48,0,0,1,1.44,1.52ZM1.56,133.34a1.54,1.54,0,0,1,0,3.08A1.46,1.46,0,0,1,.1,135v0a1.48,1.48,0,0,1,1.38-1.58ZM48,182.78a1.47,1.47,0,0,1,1.41-1.52h.08a1.55,1.55,0,0,1,0,3.08,1.48,1.48,0,0,1-1.45-1.5s0,0,0-.06ZM70,147a1.54,1.54,0,1,1-1.45,1.45A1.54,1.54,0,0,1,70,147ZM13.81,169.13a1.46,1.46,0,1,1,1.44,1.52,1.46,1.46,0,0,1-1.44-1.52Zm111-25.88a1.53,1.53,0,1,1,1.46-1.42A1.53,1.53,0,0,1,124.77,143.25Zm8.31-1.53a1.46,1.46,0,1,1,0-.08S133.08,141.7,133.08,141.73ZM64.63,182.81a1.46,1.46,0,1,1-1.42-1.54,1.47,1.47,0,0,1,1.42,1.52ZM78.32,128a1.46,1.46,0,1,1-1.46-1.54A1.48,1.48,0,0,1,78.32,128Zm-22-1.55A1.47,1.47,0,0,1,57.79,128s0,0,0,.07a1.5,1.5,0,0,1-1.44,1.54,1.48,1.48,0,0,1-1.47-1.49s0,0,0-.06a1.46,1.46,0,0,1,1.38-1.52h0Zm0,51A1.53,1.53,0,1,1,57.76,176,1.53,1.53,0,0,1,56.33,177.48ZM20.65,128a1.46,1.46,0,1,1,0,.17A1.46,1.46,0,0,1,20.65,128Zm-10.79,0a1.47,1.47,0,0,1-1.42,1.52h0A1.49,1.49,0,0,1,7,128.06v0a1.46,1.46,0,1,1,2.91,0Zm12.23,46.38a1.53,1.53,0,1,1-1.43,1.45A1.53,1.53,0,0,1,22.09,174.43Zm20.5,3.06a1.53,1.53,0,1,1,1.49-1.57s0,.07,0,.1a1.47,1.47,0,0,1-1.46,1.47Zm90.49-28.91a1.46,1.46,0,1,1-1.47-1.54,1.47,1.47,0,0,1,1.47,1.48S133.08,148.55,133.08,148.58ZM9.86,155.43a1.47,1.47,0,1,1,0-.08S9.87,155.4,9.86,155.43Zm34.22,0a1.46,1.46,0,1,1-1.44-1.52,1.46,1.46,0,0,1,1.44,1.52Zm34.23,0a1.46,1.46,0,1,1,0-.18A1.46,1.46,0,0,1,78.32,155.43Zm20.53-20.53a1.47,1.47,0,0,1-1.42,1.52h0a1.49,1.49,0,0,1-1.47-1.5v0a1.51,1.51,0,0,1,1.45-1.53,1.48,1.48,0,0,1,1.46,1.5Zm0,41.08a1.45,1.45,0,1,1,0-.1S98.85,175.94,98.85,176Zm-8.32-19a1.54,1.54,0,0,1,.06-3.07A1.5,1.5,0,0,1,92,155.42a1.47,1.47,0,0,1-1.42,1.52ZM9.86,141.73a1.46,1.46,0,1,1-2.91,0,1.48,1.48,0,0,1,1.43-1.52h0a1.46,1.46,0,0,1,1.47,1.45S9.87,141.7,9.86,141.73Zm102.68,13.69a1.46,1.46,0,1,1-1.43-1.54,1.48,1.48,0,0,1,1.43,1.52Zm20.53,0a1.46,1.46,0,1,1-2.91,0,1.5,1.5,0,0,1,1.42-1.55,1.47,1.47,0,0,1,1.48,1.46S133.08,155.38,133.08,155.41ZM90.57,177.48A1.44,1.44,0,0,1,89.14,176v0a1.46,1.46,0,1,1,1.46,1.49Zm22-28.92a1.46,1.46,0,1,1-1.44-1.53A1.5,1.5,0,0,1,112.55,148.56ZM76.87,177.48a1.53,1.53,0,1,1,1.44-1.61s0,.07,0,.1a1.46,1.46,0,0,1-1.41,1.51ZM44.09,141.73a1.46,1.46,0,1,1,0-.09S44.09,141.7,44.09,141.73Zm12.24-1.53a1.53,1.53,0,1,1-1.44,1.44A1.53,1.53,0,0,1,56.33,140.2ZM9.86,162.25a1.46,1.46,0,1,1-1.43-1.52,1.46,1.46,0,0,1,1.43,1.52Zm80.7-22.06a1.53,1.53,0,1,1-1.44,1.44A1.53,1.53,0,0,1,90.56,140.2ZM48,134.86a1.48,1.48,0,0,1,1.44-1.53h0a1.5,1.5,0,0,1,1.46,1.54v0a1.49,1.49,0,0,1-1.45,1.52A1.47,1.47,0,0,1,48,134.93s0,0,0-.07Zm50.81,13.72a1.48,1.48,0,0,1-1.43,1.53h0a1.54,1.54,0,0,1,0-3.08,1.48,1.48,0,0,1,1.43,1.53ZM23.56,162.25a1.46,1.46,0,1,1,0-.18A1.46,1.46,0,0,1,23.56,162.25Zm19.07-1.51a1.54,1.54,0,1,1-1.44,1.63s0-.07,0-.11a1.47,1.47,0,0,1,1.41-1.52Zm35.7-12.17A1.46,1.46,0,1,1,76.89,147,1.49,1.49,0,0,1,78.32,148.57Zm24.49,13.68a1.45,1.45,0,0,1,1.39-1.51h0a1.54,1.54,0,0,1,0,3.07,1.46,1.46,0,0,1-1.44-1.48S102.8,162.27,102.8,162.24ZM89.14,93.81a1.46,1.46,0,1,1,2.91,0,1.5,1.5,0,0,1-1.42,1.55,1.47,1.47,0,0,1-1.49-1.44s0-.05,0-.08ZM34.35,80.12a1.47,1.47,0,0,1,1.39-1.55h0a1.49,1.49,0,0,1,1.5,1.49s0,0,0,0a1.51,1.51,0,0,1-1.46,1.56h0a1.47,1.47,0,0,1-1.44-1.5Zm13.69,0a1.47,1.47,0,0,1,1.39-1.54h.08a1.54,1.54,0,0,1,0,3.08A1.48,1.48,0,0,1,48,80.12Zm8.3,111.07a1.45,1.45,0,0,1-1.46-1.44s0,0,0-.05a1.46,1.46,0,1,1,2.91,0,1.47,1.47,0,0,1-1.44,1.5Zm-12.25-83.7a1.46,1.46,0,1,1,0-.09S44.09,107.45,44.09,107.48ZM30.4,87A1.47,1.47,0,0,1,29,88.48h0A1.48,1.48,0,0,1,27.49,87v0a1.5,1.5,0,0,1,1.46-1.52,1.47,1.47,0,0,1,1.45,1.49S30.4,86.95,30.4,87ZM9.86,121.16a1.46,1.46,0,1,1-1.46-1.51,1.48,1.48,0,0,1,1.46,1.5ZM56.33,106a1.53,1.53,0,1,1-1.44,1.44A1.53,1.53,0,0,1,56.33,106Zm76.75,8.37a1.48,1.48,0,0,1-1.41,1.54h-.06a1.54,1.54,0,0,1,0-3.08,1.47,1.47,0,0,1,1.43,1.5ZM42.62,88.48A1.47,1.47,0,0,1,41.18,87v0a1.45,1.45,0,1,1,1.48,1.52Zm26-1.53A1.47,1.47,0,0,1,70,85.42H70A1.51,1.51,0,0,1,71.48,87,1.49,1.49,0,0,1,70,88.49h0A1.45,1.45,0,0,1,68.58,87V87Zm9.74,0a1.46,1.46,0,1,1-2.91,0,1.5,1.5,0,0,1,1.42-1.56,1.48,1.48,0,0,1,1.49,1.48s0,0,0,.05Zm24.49,27.39a1.47,1.47,0,0,1,1.4-1.53h0a1.54,1.54,0,0,1,0,3.08,1.47,1.47,0,0,1-1.46-1.47s0-.05,0-.08Zm-24.49-6.85a1.46,1.46,0,1,1,0-.18A1.46,1.46,0,0,1,78.32,107.48Zm-54.76,6.83a1.49,1.49,0,0,1-1.42,1.56h0a1.54,1.54,0,1,1,1.45-1.62S23.56,114.29,23.56,114.31ZM131.63,109a1.53,1.53,0,1,1,1.44-1.44A1.53,1.53,0,0,1,131.63,109ZM104.24,88.48a1.54,1.54,0,1,1,1.53-1.53A1.54,1.54,0,0,1,104.24,88.48ZM44.09,93.81a1.46,1.46,0,1,1,0-.18A1.46,1.46,0,0,1,44.09,93.81Zm-9.74,0a1.44,1.44,0,0,1,1.38-1.5h.11a1.54,1.54,0,0,1,0,3.07,1.47,1.47,0,0,1-1.45-1.48s0-.05,0-.08Zm78.2,6.88a1.46,1.46,0,1,1-1.42-1.55A1.51,1.51,0,0,1,112.55,100.65Zm-9.74,0a1.48,1.48,0,0,1,1.42-1.55h0a1.55,1.55,0,0,1,0,3.08,1.46,1.46,0,0,1-1.47-1.44S102.81,100.68,102.81,100.65Zm-17.65.06a1.46,1.46,0,1,1-1.41-1.61,1.48,1.48,0,0,1,1.41,1.55Zm0-34.25a1.46,1.46,0,1,1-1.43-1.61,1.48,1.48,0,0,1,1.43,1.53S85.16,66.44,85.16,66.46Zm-41.07,0a1.46,1.46,0,1,1-1.41-1.52,1.43,1.43,0,0,1,1.42,1.44S44.09,66.4,44.09,66.42ZM8.37,109a1.53,1.53,0,1,1,1.49-1.57s0,.07,0,.11A1.47,1.47,0,0,1,8.39,109ZM44.09,73.24a1.45,1.45,0,1,1,0-.1S44.09,73.2,44.09,73.24Zm34.23,27.4a1.46,1.46,0,1,1-1.44-1.53,1.49,1.49,0,0,1,1.44,1.53Zm0,20.53a1.48,1.48,0,0,1-1.4,1.56,1.47,1.47,0,0,1-1.5-1.43s0-.05,0-.08a1.46,1.46,0,1,1,2.91,0ZM30.4,100.64A1.47,1.47,0,0,1,29,102.18h-.08a1.5,1.5,0,0,1-1.44-1.54,1.52,1.52,0,0,1,1.43-1.55,1.48,1.48,0,0,1,1.47,1.48s0,0,0,.06ZM15.25,99.1a1.54,1.54,0,0,1,0,3.08,1.46,1.46,0,0,1-1.46-1.47v0a1.49,1.49,0,0,1,1.39-1.58ZM70,122.72a1.54,1.54,0,1,1,1.46-1.43A1.54,1.54,0,0,1,70,122.72Zm42.54,60.07a1.51,1.51,0,0,1-1.42,1.56,1.55,1.55,0,1,1,1.41-1.67S112.55,182.75,112.55,182.79Zm-22,8.39a1.54,1.54,0,0,1,0-3.07A1.49,1.49,0,0,1,92,189.65v0a1.48,1.48,0,0,1-1.46,1.49ZM49.48,99.1a1.55,1.55,0,1,1-1.41,1.41A1.55,1.55,0,0,1,49.48,99.1Zm35.68,49.45A1.46,1.46,0,1,1,83.67,147a1.47,1.47,0,0,1,1.49,1.45S85.16,148.53,85.16,148.55Zm-22-56.28a1.45,1.45,0,0,1,1.45,1.45v0a1.47,1.47,0,0,1-1.37,1.55h-.07a1.54,1.54,0,0,1,0-3.07Zm-27.4,98.91a1.54,1.54,0,1,1,1.47-1.42A1.54,1.54,0,0,1,35.77,191.18Zm28.85-1.55a1.46,1.46,0,1,1-2.91,0,1.5,1.5,0,0,1,1.44-1.56h0a1.47,1.47,0,0,1,1.44,1.49v0Zm-41.07-41a1.5,1.5,0,0,1-1.46,1.52,1.54,1.54,0,1,1,1.45-1.62S23.56,148.56,23.56,148.59Zm87.52-56.32a1.46,1.46,0,0,1,1.45,1.47v0a1.46,1.46,0,1,1-1.45-1.5ZM98.85,93.78a1.47,1.47,0,0,1-1.39,1.55h-.07a1.54,1.54,0,0,1,0-3.07,1.45,1.45,0,0,1,1.49,1.41S98.85,93.75,98.85,93.78ZM90.58,195a1.54,1.54,0,1,1-1.47,1.6s0-.08,0-.12A1.45,1.45,0,0,1,90.52,195Zm-22,1.55A1.45,1.45,0,0,1,69.93,195H70a1.49,1.49,0,0,1,1.46,1.51A1.51,1.51,0,0,1,70,198h0a1.47,1.47,0,0,1-1.44-1.5ZM78.32,66.39a1.46,1.46,0,1,1-1.45-1.53,1.49,1.49,0,0,1,1.45,1.52Zm6.84,102.73a1.46,1.46,0,1,1-1.46-1.56,1.48,1.48,0,0,1,1.46,1.5S85.16,169.1,85.16,169.12ZM56.35,74.79a1.53,1.53,0,1,1,1.42-1.46A1.53,1.53,0,0,1,56.35,74.79ZM48,169.11a1.48,1.48,0,0,1,1.41-1.54h0a1.51,1.51,0,0,1,1.48,1.53h0a1.46,1.46,0,1,1-2.91,0ZM78.32,73.26a1.46,1.46,0,1,1-1.42-1.53,1.46,1.46,0,0,1,1.42,1.53ZM30.4,169.12A1.47,1.47,0,0,1,29,170.65h0A1.55,1.55,0,1,1,30.39,169S30.4,169.08,30.4,169.12ZM90.55,74.79A1.53,1.53,0,1,1,92,73.35,1.53,1.53,0,0,1,90.55,74.79Zm41.1,85.95a1.54,1.54,0,0,1,0,3.07,1.49,1.49,0,0,1-1.44-1.53,1.47,1.47,0,0,1,1.41-1.53h.07Zm-8.31,1.54a1.45,1.45,0,0,1,1.36-1.54h.1a1.54,1.54,0,0,1,0,3.07h0a1.47,1.47,0,0,1-1.43-1.51v0Zm-25.92-1.54a1.54,1.54,0,0,1,0,3.07A1.49,1.49,0,0,1,96,162.26v0A1.47,1.47,0,0,1,97.42,160.73Zm-6.82,0a1.54,1.54,0,1,1-1.48,1.59s0-.08,0-.12a1.45,1.45,0,0,1,1.43-1.47Zm-34.29,0a1.47,1.47,0,0,1,1.48,1.46s0,0,0,.07a1.49,1.49,0,0,1-1.43,1.54,1.54,1.54,0,0,1-.05-3.07ZM85.17,80.1a1.46,1.46,0,1,1-1.49-1.53A1.48,1.48,0,0,1,85.17,80S85.17,80.08,85.17,80.1Zm34.22,0a1.46,1.46,0,1,1-1.46-1.56,1.47,1.47,0,0,1,1.46,1.48S119.39,80.1,119.39,80.12ZM35.77,88.48A1.45,1.45,0,0,1,34.35,87V87a1.47,1.47,0,0,1,1.39-1.54h.08A1.5,1.5,0,0,1,37.26,87a1.48,1.48,0,0,1-1.43,1.53h-.05Zm19.12,66.87a1.47,1.47,0,0,1,1.46-1.47h0a1.5,1.5,0,0,1,1.42,1.57v0a1.46,1.46,0,0,1-2.91,0s0-.08,0-.12Zm-20.54,0a1.46,1.46,0,0,1,1.42-1.49h0a1.54,1.54,0,0,1,0,3.07,1.44,1.44,0,0,1-1.43-1.46S34.35,155.41,34.35,155.37ZM90.57,88.48A1.45,1.45,0,0,1,89.11,87s0,0,0-.05a1.47,1.47,0,0,1,1.37-1.57h.07A1.5,1.5,0,0,1,92,86.95v0a1.48,1.48,0,0,1-1.44,1.51Zm8.28-1.55a1.46,1.46,0,0,1-1.37,1.55H97.4A1.48,1.48,0,0,1,95.94,87h0a1.46,1.46,0,1,1,2.91,0Zm-78.2,6.87a1.46,1.46,0,1,1,0,.18A1.46,1.46,0,0,1,20.65,93.79Zm9.75,0A1.47,1.47,0,0,1,29,95.33h-.08A1.54,1.54,0,0,1,29,92.26a1.47,1.47,0,0,1,1.42,1.51v0Zm79.25,20.56a1.46,1.46,0,1,1,1.45,1.52A1.49,1.49,0,0,1,109.64,114.36ZM23.56,134.87a1.46,1.46,0,1,1-1.44-1.54A1.5,1.5,0,0,1,23.56,134.87Zm6.84,0a1.47,1.47,0,0,1-1.43,1.5h0a1.54,1.54,0,1,1,1.45-1.62S30.4,134.87,30.4,134.91Zm5.37-12.19a1.54,1.54,0,1,1,1.48-1.42A1.54,1.54,0,0,1,35.76,122.72Zm49.4-8.36a1.46,1.46,0,1,1-1.41-1.55A1.49,1.49,0,0,1,85.17,114.35ZM112.55,128a1.46,1.46,0,1,1,0-.18A1.46,1.46,0,0,1,112.55,128Zm-8.29-1.51a1.54,1.54,0,1,1-1.44,1.44A1.54,1.54,0,0,1,104.26,126.5Zm-19.1,56.31a1.46,1.46,0,1,1-1.42-1.55A1.49,1.49,0,0,1,85.16,182.81Zm0-48a1.46,1.46,0,1,1-1.45-1.52,1.48,1.48,0,0,1,1.45,1.51ZM98.85,128a1.47,1.47,0,0,1-1.41,1.53h0a1.54,1.54,0,0,1,0-3.07,1.45,1.45,0,0,1,1.46,1.44s0,.07,0,.1Zm25.94-19a1.53,1.53,0,1,1,1.44-1.44A1.53,1.53,0,0,1,124.79,109Zm-12.24,25.84a1.46,1.46,0,1,1-1.45-1.53A1.49,1.49,0,0,1,112.55,134.86ZM90.55,109A1.53,1.53,0,1,1,92,107.58,1.53,1.53,0,0,1,90.55,109Zm-1.41,19a1.46,1.46,0,0,1,1.36-1.55h.09A1.48,1.48,0,0,1,92,128h0a1.49,1.49,0,0,1-1.42,1.56h0a1.46,1.46,0,0,1-1.45-1.48v0Zm-45-6.86a1.46,1.46,0,1,1-2.91,0,1.49,1.49,0,0,1,1.44-1.53,1.48,1.48,0,0,1,1.46,1.49Zm67,1.52a1.46,1.46,0,0,1-1.47-1.45s0-.05,0-.08a1.46,1.46,0,1,1,1.47,1.53Zm-87.56,19a1.46,1.46,0,1,1,0-.09S23.56,141.7,23.56,141.73ZM44.09,128a1.47,1.47,0,1,1,0-.08S44.09,128,44.09,128ZM30.4,182.82A1.48,1.48,0,0,1,29,184.34h0a1.51,1.51,0,0,1-1.47-1.55h0a1.46,1.46,0,1,1,2.91,0Zm60.15-60.1a1.46,1.46,0,0,1-1.44-1.47s0-.06,0-.1a1.47,1.47,0,0,1,1.44-1.5h0A1.5,1.5,0,0,1,92,121.2v0a1.47,1.47,0,0,1-1.44,1.49ZM.12,128a1.45,1.45,0,0,1,1.36-1.54h.1A1.48,1.48,0,0,1,3,128H3a1.51,1.51,0,0,1-1.47,1.56h0a1.47,1.47,0,0,1-1.44-1.5Zm22-22.08a1.53,1.53,0,1,1-1.43,1.62s0-.07,0-.1A1.46,1.46,0,0,1,22,106h0Zm76.76,90.55A1.49,1.49,0,0,1,97.36,198a1.44,1.44,0,0,1-1.43-1.46s0-.07,0-.1a1.47,1.47,0,0,1,1.43-1.5h0a1.49,1.49,0,0,1,1.46,1.51s0,.05,0,.08Zm-97.3-73.8a1.54,1.54,0,0,1,0-3.07,1.54,1.54,0,0,1,0,3.07Zm27.42,0a1.48,1.48,0,0,1-1.47-1.48s0,0,0-.06a1.5,1.5,0,0,1,1.44-1.53,1.48,1.48,0,0,1,1.46,1.49v.06A1.46,1.46,0,0,1,29,122.71Zm35.66,73.81A1.47,1.47,0,0,1,63.19,198h0a1.49,1.49,0,0,1-1.45-1.53v0a1.46,1.46,0,1,1,2.91.06Zm39.62-73.81a1.45,1.45,0,0,1-1.44-1.46v0a1.47,1.47,0,0,1,1.38-1.55h.07a1.54,1.54,0,0,1,0,3.07ZM29,160.73a1.45,1.45,0,0,1,1.45,1.45v.05A1.47,1.47,0,0,1,29,163.8h-.07a1.54,1.54,0,0,1,0-3.07Zm6.83,0a1.48,1.48,0,0,1,1.48,1.49v0a1.5,1.5,0,0,1-1.44,1.53,1.54,1.54,0,0,1,0-3.07ZM70,174.43a1.53,1.53,0,1,1-1.37,1.43A1.53,1.53,0,0,1,70,174.43Zm68.46-51.72a1.54,1.54,0,0,1,0-3.07,1.51,1.51,0,0,1,1.44,1.54,1.49,1.49,0,0,1-1.44,1.53h0ZM30.4,128A1.47,1.47,0,0,1,29,129.57h0a1.54,1.54,0,0,1,0-3.07A1.46,1.46,0,0,1,30.4,128Zm32.77,32.7a1.46,1.46,0,0,1,1.45,1.46v0a1.48,1.48,0,0,1-1.39,1.56h-.06a1.5,1.5,0,0,1-1.46-1.51,1.48,1.48,0,0,1,1.39-1.55ZM34.35,128a1.46,1.46,0,0,1,1.4-1.51h0a1.54,1.54,0,0,1,0,3.07,1.46,1.46,0,0,1-1.45-1.47S34.35,128,34.35,128Zm34.23,34.22a1.44,1.44,0,0,1,1.38-1.5h.11a1.54,1.54,0,0,1,0,3.07,1.47,1.47,0,0,1-1.45-1.5s0,0,0-.07Zm9.74,27.39a1.46,1.46,0,1,1-1.46-1.51,1.47,1.47,0,0,1,1.46,1.49ZM64.63,121.19a1.46,1.46,0,0,1-1.39,1.53h-.08a1.54,1.54,0,1,1,1.47-1.6S64.63,121.16,64.63,121.19Zm-1.46,5.31a1.54,1.54,0,1,1-1.44,1.44A1.54,1.54,0,0,1,63.17,126.5ZM68.58,128a1.44,1.44,0,0,1,1.37-1.5H70a1.54,1.54,0,0,1,0,3.07,1.46,1.46,0,0,1-1.45-1.47S68.58,128,68.58,128Zm34.22,13.68a1.44,1.44,0,0,1,1.4-1.49h.06a1.53,1.53,0,0,1,0,3.06,1.44,1.44,0,0,1-1.46-1.43S102.8,141.73,102.8,141.69Zm-24.49,0a1.46,1.46,0,1,1,0-.09S78.32,141.7,78.32,141.73Zm0-48a1.46,1.46,0,1,1,0-.09S78.32,93.74,78.32,93.77ZM104.24,109a1.53,1.53,0,1,1,1.44-1.44A1.53,1.53,0,0,1,104.24,109ZM30.4,114.35A1.49,1.49,0,0,1,29,115.88a1.54,1.54,0,1,1,0-3.08h0a1.47,1.47,0,0,1,1.44,1.5Zm0,41.08a1.46,1.46,0,0,1-1.4,1.51h0a1.54,1.54,0,1,1,1.44-1.62S30.4,155.4,30.4,155.44ZM48,114.27a1.46,1.46,0,0,1,1.45-1.47h.09a1.5,1.5,0,0,1,1.36,1.61,1.46,1.46,0,1,1-2.91,0s0-.08,0-.11Zm56.19,42.68a1.54,1.54,0,1,1,1.47-1.42A1.54,1.54,0,0,1,104.23,156.95Zm-34.2,0a1.44,1.44,0,0,1-1.45-1.44s0-.07,0-.11A1.47,1.47,0,0,1,70,153.88h0a1.51,1.51,0,0,1,1.47,1.55h0A1.49,1.49,0,0,1,70,156.95ZM63.19,88.48A1.48,1.48,0,0,1,61.72,87v0a1.5,1.5,0,0,1,1.44-1.53,1.54,1.54,0,0,1,0,3.07Zm35.66,66.91a1.46,1.46,0,1,1-2.91,0,1.5,1.5,0,0,1,1.44-1.56h0a1.47,1.47,0,0,1,1.45,1.5v0Zm-69.9,22.09A1.53,1.53,0,1,1,30.38,176,1.53,1.53,0,0,1,28.95,177.48Zm69.9-35.75a1.44,1.44,0,0,1-1.35,1.53h-.11a1.47,1.47,0,0,1-1.45-1.49v0a1.49,1.49,0,0,1,1.43-1.54,1.45,1.45,0,0,1,1.48,1.42s0,.06,0,.09Zm20.54-20.54a1.46,1.46,0,1,1,0-.18A1.46,1.46,0,0,1,119.39,121.19ZM49.5,88.48A1.46,1.46,0,0,1,48,87s0-.06,0-.09a1.48,1.48,0,0,1,1.43-1.52h0a1.49,1.49,0,0,1,1.47,1.52v0a1.47,1.47,0,0,1-1.42,1.52ZM48,196.51a1.46,1.46,0,1,1,2.91,0,1.5,1.5,0,0,1-1.42,1.55A1.47,1.47,0,0,1,48,196.61S48,196.54,48,196.51ZM35.79,74.79a1.53,1.53,0,1,1,1.44-1.44A1.53,1.53,0,0,1,35.79,74.79Zm68.44,116.39a1.54,1.54,0,1,1,1.44-1.44A1.54,1.54,0,0,1,104.24,191.18ZM70.05,74.79a1.43,1.43,0,0,1-1.47-1.4s0-.05,0-.08a1.46,1.46,0,0,1,1.31-1.6H70a1.53,1.53,0,0,1,.05,3.06ZM48,148.56a1.45,1.45,0,1,1,2.89,0,1.49,1.49,0,0,1-1.44,1.53,1.48,1.48,0,0,1-1.45-1.5v-.06ZM98.85,73.24a1.44,1.44,0,0,1-1.36,1.53h-.11a1.53,1.53,0,0,1,0-3,1.44,1.44,0,0,1,1.43,1.46s0,0,0,.06ZM68.58,93.82a1.44,1.44,0,0,1,1.33-1.55H70a1.49,1.49,0,0,1,1.51,1.46s0,0,0,0A1.52,1.52,0,0,1,70,95.34a1.46,1.46,0,0,1-1.44-1.48Zm49.36,66.91a1.47,1.47,0,0,1,1.45,1.48s0,0,0,.07a1.46,1.46,0,1,1-1.44-1.56Zm-53.32-5.3a1.46,1.46,0,0,1-1.4,1.51h0a1.48,1.48,0,0,1-1.46-1.49s0,0,0-.06a1.5,1.5,0,0,1,1.46-1.52,1.47,1.47,0,0,1,1.45,1.49S64.62,155.41,64.62,155.44ZM15.3,122.72a1.54,1.54,0,0,1,0-3.07,1.54,1.54,0,0,1,0,3.07ZM70,191.18a1.44,1.44,0,0,1-1.46-1.43s0-.07,0-.11a1.47,1.47,0,0,1,1.4-1.53h0a1.54,1.54,0,0,1,0,3.07ZM34.35,175.94a1.44,1.44,0,0,1,1.37-1.51h.07a1.53,1.53,0,0,1,0,3.06A1.44,1.44,0,0,1,34.35,176S34.35,176,34.35,175.94ZM15.3,160.73a1.54,1.54,0,0,1,0,3.07,1.47,1.47,0,0,1-1.42-1.52v0a1.45,1.45,0,0,1,1.37-1.52ZM83.72,195a1.54,1.54,0,1,1-1.53,1.53A1.54,1.54,0,0,1,83.72,195Zm0-106.48A1.47,1.47,0,0,1,82.26,87v0a1.5,1.5,0,0,1,1.44-1.55h0a1.54,1.54,0,0,1,0,3.07Zm-20.5,89a1.53,1.53,0,0,1,0-3.06,1.44,1.44,0,0,1,1.46,1.42s0,0,0,.07a1.46,1.46,0,0,1-1.34,1.56ZM70,143.25a1.45,1.45,0,0,1-1.43-1.47s0-.07,0-.1A1.44,1.44,0,0,1,70,140.2H70a1.53,1.53,0,0,1,0,3.06Zm-5.37-1.53a1.45,1.45,0,0,1-1.37,1.53h-.1a1.53,1.53,0,0,1,0-3.06,1.45,1.45,0,0,1,1.47,1.43s0,.06,0,.09ZM30.4,107.48a1.46,1.46,0,1,1-2.91,0A1.49,1.49,0,0,1,28.91,106a1.46,1.46,0,0,1,1.49,1.42s0,.06,0,.09Zm89-20.52A1.46,1.46,0,0,1,118,88.49h-.1a1.54,1.54,0,1,1,1.49-1.58S119.39,86.95,119.39,87Zm-85,54.72a1.44,1.44,0,0,1,1.38-1.49h.07a1.53,1.53,0,0,1,0,3.06,1.44,1.44,0,0,1-1.46-1.43S34.35,141.73,34.35,141.69Zm50.81-20.46a1.46,1.46,0,1,1,0-.15A1.46,1.46,0,0,1,85.16,121.23Zm13.69-13.75A1.45,1.45,0,0,1,97.48,109h-.1a1.53,1.53,0,0,1,0-3.06,1.44,1.44,0,0,1,1.47,1.42s0,.08,0,.12ZM13.81,128a1.46,1.46,0,0,1,1.38-1.52h.09a1.54,1.54,0,0,1,0,3.07,1.46,1.46,0,0,1-1.48-1.44S13.81,128.06,13.81,128ZM64.63,73.26a1.44,1.44,0,0,1-1.36,1.52H63.2a1.53,1.53,0,0,1,0-3.06h0a1.45,1.45,0,0,1,1.43,1.47s0,0,0,.06Zm39.61,19a1.48,1.48,0,0,1,1.48,1.48v0a1.5,1.5,0,0,1-1.44,1.53,1.54,1.54,0,0,1,0-3.07ZM83.72,160.73a1.47,1.47,0,0,1,1.45,1.5v0a1.45,1.45,0,1,1-1.52-1.51h.08Zm-53.33-19A1.46,1.46,0,0,1,29,143.27h-.09a1.53,1.53,0,0,1,0-3.06,1.46,1.46,0,0,1,1.45,1.46ZM70.05,109a1.43,1.43,0,0,1-1.47-1.4s0-.05,0-.08a1.46,1.46,0,0,1,1.3-1.6H70a1.53,1.53,0,0,1,.06,3Zm-34.26,0a1.53,1.53,0,1,1,1.44-1.44A1.53,1.53,0,0,1,35.79,109Zm27.4,0a1.53,1.53,0,1,1,1.43-1.62s0,.07,0,.11A1.45,1.45,0,0,1,63.24,109Zm54.75,47.93a1.48,1.48,0,0,1-1.46-1.49s0,0,0-.06a1.5,1.5,0,0,1,1.46-1.52,1.48,1.48,0,0,1,1.45,1.5s0,0,0,.06a1.46,1.46,0,0,1-1.41,1.51ZM48,121.17a1.48,1.48,0,0,1,1.43-1.52h0a1.54,1.54,0,0,1,0,3.07A1.46,1.46,0,0,1,48,121.24S48,121.19,48,121.17Zm56.22-46.39a1.53,1.53,0,1,1,1.44-1.44A1.53,1.53,0,0,1,104.26,74.78Zm0,102.7a1.53,1.53,0,1,1,1.45-1.42A1.53,1.53,0,0,1,104.24,177.48Zm-54.74-51A1.54,1.54,0,1,1,48,128.11s0,0,0-.06a1.48,1.48,0,0,1,1.41-1.54ZM13.81,93.79a1.45,1.45,0,0,1,1.38-1.52h.1a1.54,1.54,0,0,1,0,3.07,1.47,1.47,0,0,1-1.48-1.45S13.81,93.82,13.81,93.79Zm35.67,66.94A1.54,1.54,0,1,1,48,162.36s0-.08,0-.11a1.46,1.46,0,0,1,1.4-1.51Zm0-68.46A1.54,1.54,0,1,1,48,93.89s0-.08,0-.11a1.48,1.48,0,0,1,1.44-1.51Zm34.22,0a1.54,1.54,0,1,1-1.44,1.63s0-.08,0-.11a1.47,1.47,0,0,1,1.43-1.51Zm1.46,63.16a1.46,1.46,0,1,1,0-.18A1.46,1.46,0,0,1,85.16,155.43Zm-69.91,1.52a1.45,1.45,0,0,1-1.44-1.46s0-.07,0-.1a1.47,1.47,0,0,1,1.42-1.51h0a1.5,1.5,0,0,1,1.46,1.52,1.48,1.48,0,0,1-1.42,1.55ZM119.39,128a1.46,1.46,0,1,1,0-.08S119.39,128,119.39,128ZM137,128a1.45,1.45,0,0,1,1.36-1.54h.1a1.49,1.49,0,0,1,1.45,1.51,1.5,1.5,0,0,1-1.45,1.55h0a1.47,1.47,0,0,1-1.43-1.51v0ZM119.39,93.82A1.46,1.46,0,1,1,118,92.27a1.46,1.46,0,0,1,1.41,1.55ZM49.5,156.95A1.45,1.45,0,0,1,48,155.51s0-.07,0-.1a1.47,1.47,0,0,1,1.42-1.52h0a1.54,1.54,0,0,1,0,3.07Zm35.66-28.89a1.46,1.46,0,1,1,0-.08S85.16,128,85.16,128.05ZM49.48,191.18A1.46,1.46,0,0,1,48,189.71v0a1.47,1.47,0,0,1,1.39-1.55h.07a1.49,1.49,0,0,1,1.45,1.53,1.48,1.48,0,0,1-1.41,1.54Zm68.47-51a1.53,1.53,0,1,1-1.47,1.59v-.05a1.46,1.46,0,0,1,1.38-1.53Zm0-31.18a1.53,1.53,0,1,1,1.45-1.6s0,.07,0,.1A1.44,1.44,0,0,1,118,109Zm-102.7,0a1.53,1.53,0,0,1,.05-3.06,1.53,1.53,0,0,1-.05,3.06Zm102.69,68.46a1.53,1.53,0,1,1,1.47-1.59s0,.07,0,.11a1.44,1.44,0,0,1-1.41,1.48Zm-34.19,13.7a1.54,1.54,0,1,1,1.43-1.46A1.54,1.54,0,0,1,83.73,191.18Zm54.72-47.93a1.53,1.53,0,1,1,1.46-1.42A1.53,1.53,0,0,1,138.46,143.25Zm-89-68.46a1.53,1.53,0,1,1,1.45-1.43A1.53,1.53,0,0,1,49.47,74.79Zm0,102.69A1.53,1.53,0,1,1,50.94,176,1.53,1.53,0,0,1,49.5,177.48ZM15.26,143.25a1.53,1.53,0,0,1,0-3.06,1.53,1.53,0,0,1,0,3.06ZM49.47,109a1.53,1.53,0,1,1,1.44-1.44A1.53,1.53,0,0,1,49.47,109Zm0,34.23a1.53,1.53,0,1,1,1.44-1.44A1.53,1.53,0,0,1,49.49,143.25Zm34.3-71.52a1.47,1.47,0,0,1,1.38,1.56v0a1.45,1.45,0,0,1-1.42,1.48h-.1a1.47,1.47,0,0,1-1.38-1.56v0a1.46,1.46,0,0,1,1.43-1.48Zm0,102.7A1.53,1.53,0,1,1,82.26,176s0,0,0-.05a1.47,1.47,0,0,1,1.42-1.52Zm0-65.41a1.53,1.53,0,1,1,1.42-1.63s0,.07,0,.1A1.47,1.47,0,0,1,83.76,109Zm0,34.23a1.53,1.53,0,1,1,1.44-1.61s0,.07,0,.1a1.45,1.45,0,0,1-1.39,1.51Zm-1.27,59.62a1,1,0,0,1,1-1h0a1.07,1.07,0,0,1-.1,2.1,1,1,0,0,1-.92-1.09h0ZM3.61,155.17a1,1,0,0,1-1.06,1h0a1,1,0,1,1,1.07-1ZM131,167.86a1.07,1.07,0,0,1,1.07,1,1,1,0,0,1-1,1,1,1,0,1,1,0-2Zm-122,2a1,1,0,1,1,1-1A1,1,0,0,1,9,169.86ZM75.79,60.67a1,1,0,0,1,.93-1.07h0a1.07,1.07,0,0,1,0,2.14,1,1,0,0,1-1-1S75.79,60.69,75.79,60.67ZM110,73.57a1,1,0,0,1,1-1,1.07,1.07,0,0,1,0,2.1,1,1,0,0,1-1-1.06ZM75.79,202.91a1,1,0,0,1,1-1h0a1.07,1.07,0,0,1,0,2.14,1,1,0,0,1-1-1v-.06Zm14.3-1a1.07,1.07,0,1,1-.88.86,1.07,1.07,0,0,1,.88-.86Zm-33.94-.05a1.07,1.07,0,0,1,1,1,1,1,0,0,1-1,1.07h0a1,1,0,0,1-1-1v0A1,1,0,0,1,56.15,201.82ZM29.08,72.54a1.07,1.07,0,1,1-1,1.15s0-.05,0-.08a1,1,0,0,1,1-1.07Zm6.54-7.15a1.07,1.07,0,0,1,1,1,1,1,0,0,1-1,1.07h0a1,1,0,0,1-1-1v0a1,1,0,0,1,1-1.06Zm54.46-5.84a1.07,1.07,0,0,1,1,1,1,1,0,0,1-1,1.07,1,1,0,0,1-1-1s0,0,0,0A1.07,1.07,0,0,1,90.09,59.55Zm-34,2.1a1,1,0,0,1-1-1v0a1,1,0,0,1,1-1,1.07,1.07,0,0,1,1,1.1,1,1,0,0,1-1,1Zm7.69,141.27a1,1,0,0,1-1,1.07h0a1.07,1.07,0,0,1,0-2.1,1,1,0,0,1,1,1Zm7.2-.19a1,1,0,0,1-1,1h0a1.07,1.07,0,0,1-1-1.07,1,1,0,0,1,1-1,1,1,0,0,1,1,1s0,0,0,.06Zm-21.68.91a1,1,0,0,1-1.07-1v0a1.07,1.07,0,0,1,2.1,0,1,1,0,0,1-1,1ZM105,196.46a1,1,0,0,1-1,1h0a1,1,0,0,1-1.07-1h0a1.07,1.07,0,0,1,2.09,0Zm-69.4-1a1,1,0,0,1,1,1,1,1,0,0,1-1,1h0a1,1,0,0,1-1.07-1v0A1.07,1.07,0,0,1,35.6,195.48ZM71,60.42a1,1,0,0,1-1,1.07,1.07,1.07,0,0,1-1-1,1,1,0,0,1,1-1.07,1,1,0,0,1,1,1s0,.05,0,.08Zm-20.52.19a1,1,0,0,1-1,1h0a1,1,0,0,1-1-1s0,0,0-.06a1,1,0,1,1,2,0Zm33.94,0a1,1,0,1,1-2,0,1.07,1.07,0,0,1,1-1.07,1,1,0,0,1,1,1.06h0Zm-20.62.06a1,1,0,0,1-1,1h0a1.07,1.07,0,0,1,0-2.1,1,1,0,0,1,1,1.05Zm41.52,5.76a1,1,0,1,1-2,0,1.07,1.07,0,0,1,1-1.07A1,1,0,0,1,105.35,66.43Zm5.81,124.08a1,1,0,0,1-1-1s0,0,0-.06a1,1,0,1,1,2,0,1,1,0,0,1-1,1.07Zm-82.1,0a1,1,0,0,1-1-1.05v0a1,1,0,0,1,1-1,1,1,0,0,1,1,1.07,1,1,0,0,1-1,1Zm109.56-35.29a1,1,0,1,1-2,0,1.07,1.07,0,0,1,1-1.07A1,1,0,0,1,138.61,155.21ZM8.87,95.11a1,1,0,0,1-1.07-1v0a1.07,1.07,0,0,1,2.1,0,1,1,0,0,1-1,1Zm122.18,0a1,1,0,1,1,1-1,1,1,0,0,1-1,1Zm7.56,13a1,1,0,1,1-2,0,1.07,1.07,0,0,1,1-1.07A1,1,0,0,1,138.61,108.07ZM1.92,109a1,1,0,0,1-1-1v0a1,1,0,0,1,1.06-1H2a1,1,0,0,1,1,1v0a1,1,0,0,1-1,1H1.92Z" style="fill:url(#linear-gradient)"/>
        </g>
    </g>
</svg>
