<svg xmlns="http://www.w3.org/2000/svg" xmlns:xlink="http://www.w3.org/1999/xlink" viewBox="0 0 194.4 497.23"><defs><linearGradient id="New_Gradient_Swatch_4" x1="29.98" y1="163.84" x2="193.82" y2="163.84" gradientUnits="userSpaceOnUse"><stop offset="0" stop-color="#fc746c"/><stop offset="1" stop-color="#ff8f68"/></linearGradient><linearGradient id="New_Gradient_Swatch_5" x1="5.13" y1="107.29" x2="159.82" y2="107.29" gradientUnits="userSpaceOnUse"><stop offset="0" stop-color="#ff512f"/><stop offset="1" stop-color="#dc2476"/></linearGradient><linearGradient id="New_Gradient_Swatch_3" x1="96.85" y1="306.86" x2="194.4" y2="306.86" gradientUnits="userSpaceOnUse"><stop offset="0" stop-color="#dfec3a"/><stop offset="1" stop-color="#4ff0d6"/></linearGradient></defs><title>pattern-21</title><g id="Layer_2" data-name="Layer 2"><g id="Base"><path d="M193.82,327.68A163.84,163.84,0,0,1,193.82,0" style="fill:url(#New_Gradient_Swatch_4)"/><path d="M6.13,176.88c6.36-5.8,12.72,0,19.08-5.8s0-11.59,6.37-17.39,12.72,0,19.08-5.81,0-11.59,6.37-17.39,12.72,0,19.08-5.8,0-11.59,6.37-17.39,12.72,0,19.08-5.81,0-11.59,6.37-17.39,12.72,0,19.08-5.81,0-11.59,6.37-17.39,12.72,0,19.08-5.81,0-11.59,6.37-17.39" style="fill:none;stroke-linecap:round;stroke-miterlimit:10;stroke-width:2px;stroke:url(#New_Gradient_Swatch_5)"/><path d="M194.4,404.41a97.55,97.55,0,0,1,0-195.09Z" style="fill:url(#New_Gradient_Swatch_3)"/><path d="M184.18,425.71a2,2,0,0,0,1.91-2.08,2.05,2.05,0,0,0-2.19-2,1.94,1.94,0,0,0-1.9,2.08A2,2,0,0,0,184.18,425.71ZM182,378.18a2,2,0,0,0,1.9,2,2.12,2.12,0,0,0,2.19-2.14,2,2,0,0,0-2-2A2.07,2.07,0,0,0,182,378.18ZM.16,414.49a2.11,2.11,0,0,0,2.06,2.18,2,2,0,0,0,1.94-2,2.11,2.11,0,0,0-2.08-2.17A1.9,1.9,0,0,0,.16,414.49ZM163.82,341.8a1.92,1.92,0,0,0,1.9,2,2.07,2.07,0,0,0,2.1-2.07,2,2,0,0,0-1.94-2.05A2,2,0,0,0,163.82,341.8ZM1.94,425.71A2.06,2.06,0,0,0,4,423.62a2,2,0,0,0-1.92-2A2,2,0,0,0,0,423.66,1.93,1.93,0,0,0,1.94,425.71ZM163.82,460a2,2,0,0,0,2.08,2.08,2.05,2.05,0,0,0-.13-4.1A1.91,1.91,0,0,0,163.82,460ZM27.44,469.1a2,2,0,0,0,2,2.08,2,2,0,0,0,1.89-2,2,2,0,0,0-2-2.07A1.94,1.94,0,0,0,27.44,469.1ZM4,378.16a2,2,0,0,0-1.53-2.06,1.94,1.94,0,0,0-2.33,2.24,2,2,0,0,0,2,1.86A2,2,0,0,0,4,378.16Zm18.2-36.44a1.94,1.94,0,1,0-1.92,2.09A2,2,0,0,0,22.2,341.73ZM156.63,471.18a2,2,0,0,0,2-2,2,2,0,0,0-2-2.07,2.06,2.06,0,0,0,0,4.12ZM131.29,360a2,2,0,0,0-1.91-2,2,2,0,0,0-2,2.07,2,2,0,0,0,1.92,2A2,2,0,0,0,131.29,360Zm-11-29.3a1.94,1.94,0,0,0-1.93,2,2,2,0,0,0,1.91,2.09,2,2,0,0,0,0-4.09ZM45.62,378.19a2,2,0,0,0,1.91,2,2,2,0,0,0,0-4.09A2,2,0,0,0,45.62,378.19Zm12.94,0a1.93,1.93,0,1,0-3.86,0,2,2,0,0,0,1.89,2.06A2,2,0,0,0,58.56,378.18Zm59.8,27.28a1.94,1.94,0,0,0,2,2,2.05,2.05,0,0,0,0-4.09A2,2,0,0,0,118.35,405.46Zm47.37-2.06a2.05,2.05,0,0,0,0,4.09,2.05,2.05,0,0,0,0-4.09Zm-47.37-25.23a2,2,0,0,0,1.89,2,2,2,0,0,0,.06-4.09A1.94,1.94,0,0,0,118.35,378.17Zm-59.8,90.94a2,2,0,0,0-1.94-2.05,2,2,0,1,0,1.94,2.05Zm-12.94,0a2,2,0,0,0,1.94,2.06,2,2,0,0,0,0-4.09A1.94,1.94,0,0,0,45.62,469.09Zm0-18.19A1.94,1.94,0,0,0,47.55,453a2,2,0,0,0,0-4.09A2,2,0,0,0,45.62,450.89Zm12.94,0a1.93,1.93,0,1,0-1.89,2A2,2,0,0,0,58.56,450.91ZM85.83,360a2,2,0,0,0-1.94-2.07A2,2,0,0,0,82,360a1.93,1.93,0,1,0,3.86,0Zm32.52-45.46a1.94,1.94,0,0,0,1.91,2,2,2,0,0,0,0-4.09A2,2,0,0,0,118.35,314.53Zm0,45.46a2,2,0,0,0,1.91,2,2.05,2.05,0,1,0-1.91-2ZM45.62,423.63a2,2,0,0,0,1.88,2.05,2,2,0,0,0,0-4.09A1.94,1.94,0,0,0,45.62,423.63Zm72.73,27.32a1.94,1.94,0,0,0,1.92,2,2,2,0,1,0-1.92-2ZM58.56,423.6a2,2,0,0,0-1.92-2,2,2,0,1,0,1.92,2Zm14.33,0a2,2,0,0,0,1.93,2.08,2,2,0,0,0,0-4.09A2,2,0,0,0,72.89,423.6ZM47.54,357.93a2.05,2.05,0,0,0,0,4.09,2,2,0,0,0,0-4.09ZM31.29,360a2,2,0,0,0-2-2.06,2.05,2.05,0,0,0,0,4.09A2,2,0,0,0,31.29,360ZM13.09,378.13a1.93,1.93,0,1,0-1.93,2.08A2,2,0,0,0,13.09,378.13Zm0,45.49a1.93,1.93,0,1,0-3.86,0,2,2,0,0,0,1.91,2A2,2,0,0,0,13.09,423.63Zm0-63.66A1.93,1.93,0,1,0,11.15,362,2,2,0,0,0,13.09,360Zm152.63,74.79a2,2,0,0,0,1.95-2,2,2,0,0,0-1.93-2.09,2,2,0,0,0-1.93,2A1.93,1.93,0,0,0,165.72,434.76ZM91.08,360A1.93,1.93,0,0,0,93,362a2,2,0,0,0,0-4.09A2,2,0,0,0,91.08,360Zm27.27,109.13a2,2,0,0,0,1.92,2,2,2,0,0,0,1.94-2.08,2,2,0,0,0-1.94-2A2,2,0,0,0,118.35,469.13ZM147.56,367a2,2,0,1,0,1.92,2.07A1.93,1.93,0,0,0,147.56,367ZM118.35,423.6a1.93,1.93,0,1,0,3.86.07,2,2,0,0,0-1.94-2.08A2,2,0,0,0,118.35,423.6Zm29.18-79.78a1.94,1.94,0,0,0,1.95-2,1.93,1.93,0,1,0-3.86-.1A2,2,0,0,0,147.53,343.82Zm16.28,7.07a2,2,0,0,0,1.9,2,2,2,0,0,0,2-2,2,2,0,0,0-1.91-2A1.93,1.93,0,0,0,163.81,350.89ZM18.34,460a2,2,0,0,0,1.92,2.07A2,2,0,0,0,22.2,460a2,2,0,0,0-1.91-2A1.92,1.92,0,0,0,18.34,460ZM163.81,360a1.94,1.94,0,0,0,1.91,2,2,2,0,0,0,0-4.09A2,2,0,0,0,163.81,360Zm0,18.12a2,2,0,0,0,1.92,2.08,2,2,0,0,0,0-4.09A1.94,1.94,0,0,0,163.81,378.13Zm-118.2,27.3a2,2,0,0,0,1.93,2.06,2,2,0,0,0,1.93-2,2,2,0,0,0-2-2.07A2,2,0,0,0,45.62,405.43Zm40.21,45.46a2,2,0,0,0-1.91-2,2,2,0,0,0-2,2.07,1.93,1.93,0,1,0,3.86,0Zm63.65-9.07a1.93,1.93,0,1,0-2,2A2,2,0,0,0,149.48,441.82ZM104,450.91a1.93,1.93,0,1,0-3.86,0,1.93,1.93,0,1,0,3.86,0ZM54.69,487.22a2,2,0,0,0,1.88,2,1.87,1.87,0,0,0,2-2,1.94,1.94,0,1,0-3.87-.08Zm109.13-36.28a2,2,0,0,0,1.92,2,2,2,0,0,0,1.94-2.07,2,2,0,0,0-1.93-2A2,2,0,0,0,163.81,450.94ZM58.56,405.44a1.93,1.93,0,1,0-3.86,0,1.93,1.93,0,1,0,3.86,0ZM31.29,332.69a2,2,0,0,0-1.91-2,2,2,0,0,0-1.95,2,1.93,1.93,0,1,0,3.86,0Zm134.42,61.63a1.92,1.92,0,0,0-1.9,2,2,2,0,0,0,1.94,2.06,2,2,0,0,0,1.92-2A2,2,0,0,0,165.71,394.32Zm-89,74.8a2,2,0,0,0-1.88-2.06,2,2,0,0,0-2,2,1.93,1.93,0,1,0,3.86,0ZM93,312.46a2,2,0,0,0-1.9,2.1,1.93,1.93,0,0,0,1.94,2,2.05,2.05,0,0,0,0-4.09Zm-16.23,93a2,2,0,0,0-1.91-2.11,2.05,2.05,0,0,0-.06,4.09A2,2,0,0,0,76.75,405.5Zm-1.93,79.75a1.93,1.93,0,0,0-1.92,2,1.93,1.93,0,1,0,1.92-2ZM93,330.66a1.93,1.93,0,0,0-1.95,2A2,2,0,0,0,93,334.74a2,2,0,0,0,.06-4.09ZM72.89,378.14a2,2,0,0,0,1.93,2.08,2,2,0,0,0,0-4.09A2,2,0,0,0,72.89,378.14Zm0-45.47a1.93,1.93,0,1,0,1.92-2A2,2,0,0,0,72.89,332.67ZM63.8,314.53a2,2,0,0,0,1.92,2,2.05,2.05,0,1,0-1.92-2Zm13,0a2,2,0,0,0-1.92-2,2,2,0,1,0,1.92,2ZM58.56,332.72a2,2,0,0,0-1.93-2.07,2,2,0,1,0,1.93,2.07Zm32.53,45.35a2,2,0,0,0,1.86,2.14,2,2,0,0,0,.11-4.09A1.93,1.93,0,0,0,91.08,378.08Zm40.21,9.21a2,2,0,0,0-1.93-2.07,2,2,0,0,0-1.93,2,2,2,0,0,0,1.94,2.06A1.93,1.93,0,0,0,131.29,387.29Zm43.56,7a2,2,0,1,0,1.9,2.09A2,2,0,0,0,174.85,394.32Zm-143.56-7.1a1.93,1.93,0,1,0-3.86.07,1.93,1.93,0,0,0,2,2A2,2,0,0,0,31.29,387.22Zm43.51,2.07a2,2,0,0,0,1.95-2,2,2,0,0,0-1.92-2.09,2,2,0,0,0-1.94,2A1.93,1.93,0,0,0,74.8,389.29Zm-61.7,16.14a2,2,0,0,0-2-2,2,2,0,0,0-1.89,2.06,1.93,1.93,0,1,0,3.86,0Zm150.72-18.16a1.92,1.92,0,0,0,1.89,2,2,2,0,0,0,2-2,2,2,0,0,0-2-2A2,2,0,0,0,163.81,387.27Zm-14.33,27.27a1.93,1.93,0,1,0-1.89,2A1.94,1.94,0,0,0,149.48,414.54ZM158.57,360a1.93,1.93,0,1,0-1.95,2.05A2,2,0,0,0,158.57,360ZM85.83,405.44a1.93,1.93,0,1,0-1.95,2A2,2,0,0,0,85.83,405.44ZM20.27,376.12a1.94,1.94,0,0,0-1.93,2,2,2,0,0,0,1.91,2.09,2,2,0,0,0,0-4.09Zm83.75,93a1.93,1.93,0,1,0-1.9,2.05A2,2,0,0,0,104,469.1ZM91.08,405.42A1.94,1.94,0,0,0,93,407.49a2,2,0,0,0,1.94-2A2,2,0,0,0,93,403.4,2,2,0,0,0,91.08,405.42Zm-5.25-27.19A1.93,1.93,0,1,0,82,378.1a2,2,0,0,0,1.9,2.11A2,2,0,0,0,85.83,378.23ZM104,405.47a1.93,1.93,0,1,0-3.86,0,1.93,1.93,0,1,0,3.86,0Zm0-27.28a1.93,1.93,0,1,0-1.92,2A2,2,0,0,0,104,378.19Zm34.45,25.21a2.05,2.05,0,0,0,0,4.09,2,2,0,0,0,2-2A2,2,0,0,0,138.47,403.4Zm20.1,2a2,2,0,0,0-1.89-2,2,2,0,0,0,0,4.09A2,2,0,0,0,158.57,405.44Zm-27.28,63.64a2,2,0,0,0-1.91-2,2,2,0,0,0,0,4.09A2,2,0,0,0,131.29,469.09Zm45.46-63.66a2,2,0,0,0-1.92-2,2,2,0,0,0-1.94,2.08,1.93,1.93,0,1,0,3.86-.05ZM91.08,469.06A2,2,0,0,0,93,471.15a2,2,0,0,0,0-4.09A2,2,0,0,0,91.08,469.06Zm83.76-79.76a1.94,1.94,0,0,0,1.91-2,2,2,0,0,0-1.94-2.06,2,2,0,0,0-1.92,2A2,2,0,0,0,174.84,389.29Zm9.09,14.1a2.05,2.05,0,0,0,0,4.09,2,2,0,0,0,0-4.09Zm-47.39,65.7a2,2,0,0,0,1.95,2.05,2,2,0,0,0,1.91-2,2,2,0,0,0-2-2A1.94,1.94,0,0,0,136.54,469.1Zm-5.25-90.93a2,2,0,0,0-1.89-2,2,2,0,0,0,0,4.09A2,2,0,0,0,131.29,378.17ZM176.75,360a2,2,0,0,0-1.9-2,2,2,0,0,0-2,2.06,1.93,1.93,0,1,0,3.86,0Zm-18.18,18.19a1.93,1.93,0,1,0-1.88,2.05A2,2,0,0,0,158.57,378.16Zm-11,83.88a2,2,0,1,0-1.92-2.07A1.94,1.94,0,0,0,147.54,462ZM29.31,434.76a2,2,0,0,0,2-2,2,2,0,0,0-1.89-2.12,2,2,0,0,0-.09,4.08Zm47.44-93a2,2,0,0,0-2-2.06,2,2,0,0,0-1.9,2,1.93,1.93,0,0,0,1.94,2A2,2,0,0,0,76.75,341.8Zm-45.46,0a1.93,1.93,0,1,0-3.86,0,1.93,1.93,0,0,0,2,2A2,2,0,0,0,31.29,341.78Zm118.19-9.06a1.93,1.93,0,1,0-1.92,2A2,2,0,0,0,149.48,332.72Zm-12.94,0a2,2,0,0,0,1.93,2.07,2,2,0,0,0,0-4.09A1.94,1.94,0,0,0,136.54,332.68Zm-5.25,0a2,2,0,0,0-1.93-2.07,2,2,0,0,0,0,4.09A2,2,0,0,0,131.29,332.72Zm-27.27,0a1.93,1.93,0,1,0-1.89,2.05A2,2,0,0,0,104,332.69Zm-18.19,0a2,2,0,0,0-1.9-2,2,2,0,0,0,0,4.09A2,2,0,0,0,85.83,332.69Zm-45.46,0a1.94,1.94,0,0,0-1.92-2,2,2,0,1,0,1.92,2ZM104,441.81a2,2,0,0,0-2-2,2,2,0,1,0,2,2Zm-72.73,9.13a2,2,0,0,0-1.94-2.07,2,2,0,1,0,1.94,2.07Zm100,27.23a1.93,1.93,0,1,0-1.93,2.06A1.93,1.93,0,0,0,131.29,478.17ZM76.75,450.9a2,2,0,0,0-2-2,2,2,0,0,0-1.88,2.06,2,2,0,0,0,1.91,2A2,2,0,0,0,76.75,450.9Zm54.53-136.33a2,2,0,0,0-1.92-2.06,1.93,1.93,0,0,0-2,2,1.94,1.94,0,1,0,3.87.11Zm7.16,134.29a2,2,0,0,0-1.9,2.1,1.93,1.93,0,0,0,1.94,2,2,2,0,0,0,0-4.09Zm7.18,2a1.93,1.93,0,1,0,3.86.06,1.93,1.93,0,1,0-3.86-.06Zm12.95,0a2,2,0,0,0-2-2,2,2,0,0,0-1.9,2.06,1.93,1.93,0,1,0,3.86,0ZM85.83,314.48a2,2,0,0,0-1.92-2,2,2,0,0,0,0,4.09A2,2,0,0,0,85.83,314.48ZM102.1,485.25a2,2,0,1,0,1.92,2A2,2,0,0,0,102.1,485.25Zm34.44-61.63a1.94,1.94,0,0,0,1.94,2.06,2,2,0,0,0,0-4.09A1.93,1.93,0,0,0,136.54,423.62Zm-79.93,56.6a1.94,1.94,0,0,0,1.95-2,1.93,1.93,0,1,0-1.95,2ZM20.24,421.59a2,2,0,0,0,0,4.09,2,2,0,0,0,0-4.09ZM58.56,360a1.93,1.93,0,1,0-1.89,2A2,2,0,0,0,58.56,360ZM40.37,423.62a1.93,1.93,0,1,0-3.86,0,2,2,0,0,0,1.92,2A2,2,0,0,0,40.37,423.62Zm45.46,0a2,2,0,0,0-1.92-2,2,2,0,1,0,1.92,2Zm-9.08-72.74a1.93,1.93,0,1,0-1.95,2.06A2,2,0,0,0,76.75,350.87ZM72.89,360A2,2,0,0,0,74.83,362,2.05,2.05,0,1,0,72.89,360Zm85.68,63.65a2,2,0,0,0-2-2,2.05,2.05,0,0,0,0,4.09A2,2,0,0,0,158.57,423.62Zm7.17-2a2,2,0,0,0,0,4.09,2,2,0,0,0,0-4.09ZM18.34,405.42a2,2,0,0,0,1.93,2.07,2,2,0,0,0,1.93-2,2,2,0,0,0-1.94-2.08A2,2,0,0,0,18.34,405.42ZM93,448.86a2,2,0,0,0-1.93,2A1.94,1.94,0,0,0,93,453a2,2,0,0,0,2-2A2,2,0,0,0,93,448.86Zm38.28,2.07a2,2,0,0,0-1.94-2.07,2,2,0,0,0,0,4.09A2,2,0,0,0,131.29,450.93ZM2.07,403.4a2,2,0,0,0-1.91,2.09,1.94,1.94,0,0,0,1.93,2,2,2,0,0,0,0-4.09ZM63.8,469.07a2,2,0,0,0,1.93,2.08,2.05,2.05,0,0,0,.05-4.09A1.94,1.94,0,0,0,63.8,469.07ZM93,421.59a2,2,0,0,0,0,4.09,2,2,0,0,0,0-4.09ZM18.34,450.94a2,2,0,0,0,1.91,2,2.05,2.05,0,1,0-1.91-2Zm147.37-34.37a2,2,0,0,0,0-4.06,2,2,0,0,0,0,4.06Zm11-2a1.93,1.93,0,1,0-1.92,2A1.93,1.93,0,0,0,176.75,414.57ZM85.83,469.1a2,2,0,0,0-1.89-2,2.05,2.05,0,1,0,1.89,2ZM104,396.37a1.93,1.93,0,1,0-1.91,2A1.95,1.95,0,0,0,104,396.37Zm-29.23-2a1.94,1.94,0,0,0-1.9,2,2,2,0,0,0,1.95,2.05,2,2,0,0,0,1.91-2A2,2,0,0,0,74.79,394.32Zm0,67.71a2,2,0,0,0,0-4.06,2,2,0,0,0,0,4.06Zm-47.38-65.7a1.93,1.93,0,1,0,1.92-2A2,2,0,0,0,27.43,396.33Zm-14.33,0a1.93,1.93,0,1,0-3.86-.05,2,2,0,0,0,1.94,2.07A2,2,0,0,0,13.09,396.38ZM29.33,458a2,2,0,0,0,0,4.06,2,2,0,0,0,0-4.06ZM56.58,462a2,2,0,1,0-1.88-2.11A1.94,1.94,0,0,0,56.58,462Zm120.17-38.4a2,2,0,0,0-1.95-2,2,2,0,1,0,1.95,2ZM13.09,432.74a1.93,1.93,0,1,0-1.91,2A2,2,0,0,0,13.09,432.74Zm45.46,0a1.93,1.93,0,1,0-3.86,0,1.93,1.93,0,1,0,3.86,0Zm45.46,0a1.93,1.93,0,1,0-3.86,0,1.93,1.93,0,1,0,3.86,0Zm27.27-27.27a2,2,0,0,0-1.94-2.07,2,2,0,0,0-1.92,2,2,2,0,0,0,2,2.06A2,2,0,0,0,131.29,405.46Zm0,54.56a1.93,1.93,0,1,0-1.91,2A1.93,1.93,0,0,0,131.29,460Zm-11.05-25.26a2,2,0,0,0,2-2,2,2,0,0,0-1.9-2,2,2,0,0,0-.08,4.07ZM13.09,414.54a1.94,1.94,0,0,0-2-2,2,2,0,0,0-1.91,2,1.93,1.93,0,1,0,3.86,0Zm136.39,18.18a1.93,1.93,0,1,0-3.86,0,1.93,1.93,0,1,0,3.86,0Zm27.27,0a2,2,0,0,0-2-2,2,2,0,0,0-1.89,2.06,1.93,1.93,0,1,0,3.86,0ZM120.29,462a2,2,0,1,0-1.93-2A1.92,1.92,0,0,0,120.29,462Zm29.19-38.41a1.93,1.93,0,1,0-1.89,2.06A2,2,0,0,0,149.48,423.62ZM102.1,462a2,2,0,1,0-1.94-2.05A1.93,1.93,0,0,0,102.1,462Zm-43.54-47.5a1.93,1.93,0,1,0-1.95,2A1.94,1.94,0,0,0,58.56,414.53Zm16.26-2a2,2,0,0,0,0,4.06,2,2,0,0,0,0-4.06ZM13.09,441.81a1.93,1.93,0,1,0-3.86,0,1.93,1.93,0,1,0,3.86,0Zm107.18-29.3a2,2,0,0,0,0,4.05,2,2,0,0,0,0-4.05ZM63.8,405.42a2,2,0,0,0,1.93,2.07,2,2,0,0,0,1.93-2,2,2,0,0,0-1.94-2.07A2,2,0,0,0,63.8,405.42Zm67.49,18.22a1.93,1.93,0,1,0-3.86,0,2,2,0,0,0,2,2.06A2,2,0,0,0,131.29,423.65Zm-100,18.15a1.93,1.93,0,1,0-1.95,2.06A2,2,0,0,0,31.29,441.8Zm25.32-2a2,2,0,1,0,1.95,2A1.94,1.94,0,0,0,56.61,439.79ZM104,423.63a1.93,1.93,0,1,0-1.89,2.05A2,2,0,0,0,104,423.63Zm32.52,18.17a1.94,1.94,0,0,0,1.93,2.07,2,2,0,0,0,0-4.07A1.92,1.92,0,0,0,136.54,441.79ZM118.35,350.9a2,2,0,0,0,2,2,2,2,0,0,0,1.89-2.06,1.93,1.93,0,1,0-3.86,0ZM45.62,332.72a2,2,0,0,0,1.91,2,2,2,0,0,0,2-2.07,2,2,0,0,0-2-2A2,2,0,0,0,45.62,332.72Zm18.18,0a2,2,0,0,0,1.9,2,2,2,0,0,0,.05-4.09A2,2,0,0,0,63.8,332.7Zm11,147.52a2,2,0,0,0,1.93-2,1.93,1.93,0,1,0-3.86,0A1.93,1.93,0,0,0,74.82,480.22ZM58.56,369.09a1.93,1.93,0,1,0-1.92,2A1.94,1.94,0,0,0,58.56,369.09ZM40.37,341.81a2,2,0,0,0-1.93-2.07,2,2,0,0,0-1.93,2,2,2,0,0,0,1.95,2.06A2,2,0,0,0,40.37,341.81ZM13.09,387.22a1.93,1.93,0,1,0-1.86,2.07A2,2,0,0,0,13.09,387.22ZM74.81,367a2,2,0,0,0,0,4.05,2,2,0,0,0,0-4.05Zm101.94,11.11a2,2,0,0,0-1.9-2,2,2,0,1,0,1.9,2ZM56.61,343.82a1.94,1.94,0,0,0,1.95-2,1.94,1.94,0,1,0-3.86,0A2,2,0,0,0,56.61,343.82Zm34.47-2a1.93,1.93,0,0,0,1.89,2,2,2,0,0,0,2-2,2,2,0,0,0-1.92-2A2,2,0,0,0,91.08,341.79Zm12.94,0a2,2,0,0,0-2-2,2,2,0,0,0-1.88,2.07,1.93,1.93,0,1,0,3.86,0Zm32.52,36.38a2,2,0,0,0,1.94,2.06,2,2,0,0,0,0-4.09A2,2,0,0,0,136.54,378.15ZM104,369.07a1.93,1.93,0,1,0-1.9,2A1.94,1.94,0,0,0,104,369.07Zm-72.73,9.06a1.93,1.93,0,1,0-1.93,2.08A2,2,0,0,0,31.29,378.13Zm143.54-7a2,2,0,1,0-1.94-2.06A1.94,1.94,0,0,0,174.83,371.1Zm-36.38-27.28a2,2,0,0,0,0-4.08,2,2,0,0,0,0,4.08Zm-79.89,7.07a1.93,1.93,0,1,0-3.86,0,1.93,1.93,0,1,0,3.86,0Zm-12.94,0a2,2,0,0,0,1.92,2.07,2,2,0,0,0,.07-4.07A1.92,1.92,0,0,0,45.62,350.85ZM149.48,360a2,2,0,0,0-1.89-2.06,2.05,2.05,0,1,0,1.89,2.06Zm-12.94,0a1.93,1.93,0,0,0,1.95,2,2.05,2.05,0,0,0-.07-4.09A2,2,0,0,0,136.54,360Zm-23.44.08a2,2,0,0,0-1.87-2.13,2,2,0,1,0,1.87,2.13Zm0-45.49a2,2,0,0,0-1.9-2.11,2.05,2.05,0,1,0,1.9,2.11Zm-54.56-.05a1.9,1.9,0,0,0-1.88-2,2,2,0,1,0,1.88,2ZM11.11,371.1a2,2,0,1,0-1.88-2A1.93,1.93,0,0,0,11.11,371.1Zm47.44-47.5a1.93,1.93,0,1,0-2,2A1.94,1.94,0,0,0,58.56,323.6ZM104,360a1.93,1.93,0,1,0-3.86,0,1.93,1.93,0,1,0,3.86,0Zm0,27.27a1.93,1.93,0,1,0-1.87,2.07A2,2,0,0,0,104,387.22ZM40.37,360a2,2,0,0,0-2-2,2,2,0,0,0-1.9,2.05,2,2,0,0,0,1.91,2A2,2,0,0,0,40.37,360Zm-20.12-2A2,2,0,0,0,18.34,360a1.94,1.94,0,0,0,1.93,2,2,2,0,0,0,0-4.09ZM93,389.29a2,2,0,0,0,0-4.07,2,2,0,0,0,0,4.07Zm56.5,79.79a1.93,1.93,0,1,0-1.88,2.07A2,2,0,0,0,149.48,469.08Zm-29.23,11.14a2,2,0,0,0,2-2,2,2,0,0,0-1.92-2.09,2,2,0,0,0,0,4.07ZM65.72,357.93A2.05,2.05,0,1,0,67.66,360,2,2,0,0,0,65.72,357.93Zm47.39,65.68a2,2,0,0,0-2-2,2,2,0,1,0,2,2Zm-29.2-74.75a2,2,0,0,0,0,4.07,2,2,0,0,0,1.92-2.07A1.93,1.93,0,0,0,83.91,348.85ZM47.51,480.22a2,2,0,0,0,.06-4.07,2,2,0,0,0-.06,4.07Zm38.32-2.06a2,2,0,0,0-1.92-2A2,2,0,0,0,82,478.22a1.93,1.93,0,1,0,3.86-.05ZM31.29,423.66a2,2,0,0,0-1.94-2.07,2,2,0,0,0,0,4.09A2,2,0,0,0,31.29,423.66Zm116.27-74.81a2,2,0,1,0,1.93,2A1.95,1.95,0,0,0,147.55,348.85Zm-16.26,2a1.93,1.93,0,0,0-2-2,2,2,0,0,0,0,4.07A2,2,0,0,0,131.29,350.86Zm-11,134.39a1.92,1.92,0,0,0-1.94,2,2,2,0,0,0,1.9,2.1,2,2,0,0,0,0-4.07Zm-29.22,2.06a2,2,0,0,0,1.91,2,2,2,0,0,0,1.95-2.07,2,2,0,0,0-1.94-2A1.92,1.92,0,0,0,91.08,487.31ZM104,314.48a1.93,1.93,0,1,0-1.94,2.07A2,2,0,0,0,104,314.48Zm9.09,136.45a1.93,1.93,0,1,0-1.92,2A2,2,0,0,0,113.11,450.93ZM74.84,325.63a2,2,0,0,0-.05-4.06,2,2,0,0,0,.05,4.06Zm-11,125.28a1.93,1.93,0,1,0,3.86,0,2,2,0,0,0-2-2.05A2,2,0,0,0,63.8,450.91ZM104,323.61a1.93,1.93,0,1,0-1.9,2A1.93,1.93,0,0,0,104,323.61ZM40.37,450.92a1.93,1.93,0,1,0-1.9,2A2,2,0,0,0,40.37,450.92Zm79.9-125.29a2,2,0,0,0,0-4.06,2,2,0,0,0,0,4.06Zm54.59,114.15a2,2,0,0,0-2,2,2,2,0,0,0,1.91,2,2,2,0,0,0,.05-4.07Zm-11,2a2,2,0,0,0,1.91,2,2,2,0,0,0,2-2.06,2,2,0,0,0-1.92-2A1.93,1.93,0,0,0,163.81,441.83Zm-34.43-2a2,2,0,0,0-2,2,2,2,0,0,0,1.92,2.09,2,2,0,0,0,0-4.07Zm-9.06,0a1.92,1.92,0,0,0-2,2,2,2,0,0,0,1.87,2.12,2,2,0,0,0,.1-4.07Zm-45.54,0a2,2,0,0,0,.07,4.07,2,2,0,0,0,1.9-2A2,2,0,0,0,74.78,439.79Zm38.33-107.1a1.93,1.93,0,1,0-1.89,2.06A2,2,0,0,0,113.11,332.68Zm45.46,0a2,2,0,0,0-1.93-2.07,2,2,0,1,0,1.93,2.07ZM47.51,343.82a2,2,0,0,0,2-2,2,2,0,0,0-1.92-2,1.94,1.94,0,0,0-1.94,2A1.92,1.92,0,0,0,47.51,343.82Zm25.38,88.82a1.93,1.93,0,1,0,3.86.17,2,2,0,0,0-1.88-2.13A2,2,0,0,0,72.89,432.64Zm-27.27,0a1.92,1.92,0,0,0,1.89,2.09,2,2,0,0,0,.06-4.07A1.93,1.93,0,0,0,45.62,432.66Zm74.66-88.84a2,2,0,0,0,1.93-2,2,2,0,0,0-1.95-2.07,2,2,0,0,0-1.91,2.09A1.93,1.93,0,0,0,120.28,343.82Zm11-2.06a1.93,1.93,0,1,0-1.93,2.06A1.94,1.94,0,0,0,131.29,341.76ZM27.43,350.88a1.93,1.93,0,1,0,2-2A2,2,0,0,0,27.43,350.88Zm12.94,0a1.93,1.93,0,1,0-3.86,0,2,2,0,0,0,1.9,2A2,2,0,0,0,40.37,350.89Zm105.25,27.31a1.93,1.93,0,1,0,1.94-2.07A2,2,0,0,0,145.62,378.19ZM31.29,405.44a2,2,0,0,0-1.91-2,2,2,0,1,0,1.91,2Zm9.08.05a1.93,1.93,0,1,0-1.94,2A2,2,0,0,0,40.37,405.49Zm7.13-16.2a2,2,0,0,0,.08-4.07,2,2,0,0,0-.08,4.07Zm65.61-11.1a1.93,1.93,0,1,0-3.86,0,1.93,1.93,0,1,0,3.86,0Zm36.37,18.15a1.93,1.93,0,1,0-1.95,2.06A2,2,0,0,0,149.48,396.33Zm-11-2a2,2,0,0,0,0,4.07,2,2,0,0,0,0-4.07Zm-25.36,74.79a1.93,1.93,0,1,0-3.86,0,1.93,1.93,0,1,0,3.86,0Zm0-63.69a1.93,1.93,0,1,0-1.93,2.07A2,2,0,0,0,113.11,405.42Zm18.18-9.05a1.93,1.93,0,0,0-1.94-2,2,2,0,1,0,1.94,2Zm34.45-25.26a2,2,0,0,0,0-4.05,2,2,0,0,0,0,4.05Zm-16.26,34.32a1.93,1.93,0,1,0-1.94,2.07A2,2,0,0,0,149.48,405.42ZM120.26,371.1a2,2,0,0,0,0-4.06,2,2,0,0,0,0,4.06Zm-1.91,25.28a1.94,1.94,0,0,0,1.92,2,2,2,0,0,0,1.94-2.07,2,2,0,0,0-1.94-2A1.93,1.93,0,0,0,118.35,396.38Zm-59.8-9.11a2,2,0,0,0-1.94-2.06,2,2,0,0,0-1.92,2,1.93,1.93,0,1,0,3.86,0Zm89,2a2,2,0,1,0-2-2A2,2,0,0,0,147.58,389.29ZM31.29,414.54a1.93,1.93,0,1,0-1.91,2A1.95,1.95,0,0,0,31.29,414.54Zm27.27-18.21a2,2,0,0,0-2-2,2,2,0,1,0,2,2ZM40.37,469.12a1.93,1.93,0,1,0-3.86,0,2,2,0,0,0,2,2.07A2,2,0,0,0,40.37,469.12Zm79.89-79.83a2,2,0,0,0,2-2,2,2,0,0,0-1.92-2.1,2,2,0,0,0-1.94,2A1.93,1.93,0,0,0,120.26,389.29ZM.16,396.37a2,2,0,0,0,1.9,2,2,2,0,0,0,2-2.06,2,2,0,0,0-1.93-2A1.92,1.92,0,0,0,.16,396.37ZM29.32,367a2,2,0,0,0,.06,4.06,2,2,0,0,0-.06-4.06Zm102,120.27a2,2,0,0,0-1.95-2.11,2,2,0,0,0-1.92,2,1.92,1.92,0,0,0,1.9,2.06A2,2,0,0,0,131.28,487.31ZM2,389.29a2,2,0,0,0,.06-4.07A2,2,0,0,0,2,389.29Zm36.42,0a1.94,1.94,0,0,0,1.9-2,2,2,0,0,0-1.94-2.06,2,2,0,0,0-1.92,2A2,2,0,0,0,38.46,389.29Zm47.36,98a1.93,1.93,0,1,0-3.86-.08,2,2,0,0,0,1.93,2.08A2,2,0,0,0,85.83,487.33Zm52.62-98a2,2,0,0,0,0-4.08,2,2,0,0,0-1.93,2.07A1.92,1.92,0,0,0,138.45,389.29Zm-100,50.5a2,2,0,1,0,1.92,2A1.92,1.92,0,0,0,38.45,439.79Zm9.07,0a2,2,0,0,0,0,4.07,2,2,0,0,0,1.91-2A2,2,0,0,0,47.51,439.79ZM93,458A2,2,0,0,0,93,462,2,2,0,0,0,93,458Zm90.93-68.69a2,2,0,0,0,2-2,2,2,0,0,0-1.91-2,2,2,0,0,0-.06,4.08ZM40.37,396.35a1.93,1.93,0,0,0-1.89-2,2,2,0,1,0,1.89,2ZM83.9,439.79A2,2,0,0,0,82,441.85a2,2,0,0,0,1.94,2,2,2,0,0,0,1.92-2.08A1.94,1.94,0,0,0,83.9,439.79ZM45.62,396.33a1.94,1.94,0,0,0,1.92,2.07,2,2,0,0,0,0-4.07A1.93,1.93,0,0,0,45.62,396.33Zm45.46,45.46A2,2,0,0,0,93,443.86a2,2,0,0,0,.06-4.07A1.92,1.92,0,0,0,91.08,441.79ZM104,478.16a1.93,1.93,0,1,0-3.86.06,1.93,1.93,0,1,0,3.86-.06Zm-18.19-90.9a1.93,1.93,0,1,0-2,2A1.94,1.94,0,0,0,85.83,387.26Zm-1.93,7.06a2,2,0,0,0,0,4.07,2,2,0,0,0,0-4.07Zm7.18,2A1.94,1.94,0,0,0,93,398.39a2,2,0,0,0,0-4.07A1.91,1.91,0,0,0,91.08,396.32Zm45.46,18.17a1.92,1.92,0,0,0,1.9,2.07,2,2,0,0,0,0-4.06A1.92,1.92,0,0,0,136.54,414.49Zm-32.52.06a1.93,1.93,0,1,0-1.91,2A1.94,1.94,0,0,0,104,414.55Zm0-63.7a1.93,1.93,0,0,0-2-2,2,2,0,1,0,2,2Zm34.43,20.25a2,2,0,0,0,0-4.05,2,2,0,0,0,0,4.05Zm-98.08,7.09a2,2,0,0,0-1.93-2.06,2,2,0,1,0,1.93,2.06Zm0,54.56a2,2,0,0,0-1.93-2.07,2,2,0,0,0,0,4.07A1.93,1.93,0,0,0,40.37,432.75ZM63.8,378.07a1.93,1.93,0,1,0,2-1.95A1.94,1.94,0,0,0,63.8,378.07Zm74.63,56.68a2,2,0,0,0,.06-4.07,2,2,0,0,0-.06,4.07Zm-45.43,0a2,2,0,0,0,1.94-2A2,2,0,0,0,93,430.68a2,2,0,0,0-1.92,2A1.92,1.92,0,0,0,93,434.76Zm-9.08-90.93a2,2,0,0,0,0-4.08,2,2,0,0,0-1.92,2A2,2,0,0,0,83.92,343.82Zm47.37,88.87a2,2,0,0,0-1.92-2,2,2,0,0,0-1.94,2.07,1.93,1.93,0,1,0,3.86-.05ZM38.44,462a2,2,0,0,0,0-4.05,2,2,0,0,0,0,4.05Zm92.84-47.51a1.92,1.92,0,0,0-2-2,2,2,0,0,0-1.9,2,2,2,0,0,0,1.92,2A1.92,1.92,0,0,0,131.29,414.53Zm27.28-27.27a1.93,1.93,0,1,0-1.9,2A2,2,0,0,0,158.57,387.26ZM65.74,343.82a2,2,0,0,0,1.92-2,2,2,0,0,0-1.95-2.06,2,2,0,0,0-1.91,2A1.94,1.94,0,0,0,65.74,343.82ZM63.8,487.3a2,2,0,0,0,2,2,2,2,0,0,0,1.89-2.06,1.93,1.93,0,1,0-3.86,0ZM47.54,325.63a2,2,0,0,0,0-4.06,2,2,0,0,0,0,4.06Zm90.9,154.59a2,2,0,0,0,0-4.07,2,2,0,0,0,0,4.07ZM93,325.63a2,2,0,0,0-.07-4.06,1.94,1.94,0,0,0-1.88,2.1A1.9,1.9,0,0,0,93,325.63Zm-29.24,98a2,2,0,0,0,1.93,2.07,2.05,2.05,0,0,0,0-4.09A2,2,0,0,0,63.8,423.61Zm67.49-100a1.92,1.92,0,0,0-1.9-2,2,2,0,0,0,0,4.05A1.92,1.92,0,0,0,131.29,323.6ZM91.08,350.92a1.94,1.94,0,0,0,1.92,2,2,2,0,0,0,1.94-2.08,2,2,0,0,0-2-2A1.92,1.92,0,0,0,91.08,350.92Zm65.57,88.87a2,2,0,1,0,1.92,2.07A2,2,0,0,0,156.65,439.79Zm-70.82-7a2,2,0,0,0-1.92-2.07,2,2,0,0,0-1.93,2,2,2,0,0,0,1.94,2.06A1.93,1.93,0,0,0,85.83,432.75ZM20.29,389.29a2,2,0,1,0-1.95-2A1.93,1.93,0,0,0,20.29,389.29ZM93,480.22a2,2,0,0,0,0-4.07,2,2,0,0,0-1.9,2A1.92,1.92,0,0,0,93,480.22ZM45.62,460a1.91,1.91,0,0,0,1.93,2,2,2,0,0,0,0-4.06A1.91,1.91,0,0,0,45.62,460Zm-25.33-20.2a1.93,1.93,0,0,0-2,2,2,2,0,0,0,1.89,2,2,2,0,0,0,.06-4.07Zm90.9,45.47a2,2,0,1,0,1.91,2.08A2,2,0,0,0,111.2,485.25Zm0-141.43a2,2,0,0,0,0-4.08,2,2,0,0,0-2,2.06A2,2,0,0,0,111.16,343.82ZM83.92,462a1.94,1.94,0,0,0,1.9-2.08,1.91,1.91,0,0,0-1.94-2,2,2,0,0,0,0,4.06Zm9-45.47a2,2,0,0,0,.06-4.05,1.91,1.91,0,0,0-1.95,2A1.93,1.93,0,0,0,93,416.57Zm-7.14-2a1.92,1.92,0,0,0-2-2,2,2,0,0,0,0,4.06A1.93,1.93,0,0,0,85.83,414.53ZM40.37,369.05a1.93,1.93,0,0,0-2-2,2,2,0,0,0-1.89,2.05,1.93,1.93,0,1,0,3.86,0Zm118.2-27.24a1.93,1.93,0,1,0-2,2A1.94,1.94,0,0,0,158.57,341.81ZM45.62,414.49a1.92,1.92,0,0,0,1.9,2.07,2,2,0,0,0,0-4.05A1.91,1.91,0,0,0,45.62,414.49Zm67.49-27.17a1.93,1.93,0,1,0-2,2A1.94,1.94,0,0,0,113.11,387.32Zm18.18-18.25a1.92,1.92,0,0,0-2-2,2,2,0,0,0,0,4.06A1.93,1.93,0,0,0,131.29,369.07ZM18.34,396.35a1.94,1.94,0,0,0,1.95,2,2,2,0,0,0,0-4.07A1.93,1.93,0,0,0,18.34,396.35Zm67.49-72.74a1.93,1.93,0,0,0-1.89-2,2,2,0,0,0,0,4.05A1.92,1.92,0,0,0,85.83,323.61Zm52.61,25.24a2,2,0,0,0,.05,4.07,2,2,0,0,0,1.91-2A2,2,0,0,0,138.43,348.85Zm-27.24,90.94a2,2,0,0,0,0,4.07,2,2,0,0,0,1.94-2.06A2,2,0,0,0,111.19,439.79ZM40.37,414.51a1.93,1.93,0,0,0-1.92-2,2,2,0,0,0,0,4.06A1.93,1.93,0,0,0,40.37,414.51ZM93,371.1A2,2,0,0,0,93,367a1.93,1.93,0,0,0-1.88,2.1A1.91,1.91,0,0,0,93,371.1Zm-45.51,0a2,2,0,0,0,0-4.06,2,2,0,0,0,0,4.06Zm36.39,0a2,2,0,0,0,0-4.06,2,2,0,0,0,0,4.06Zm72.72,63.66a1.94,1.94,0,0,0,1.92-2,2,2,0,0,0-1.93-2.07,2,2,0,0,0-1.93,2A2,2,0,0,0,156.65,434.76ZM63.8,387.24a1.94,1.94,0,0,0,1.94,2.05,2,2,0,1,0-1.94-2.05Zm74.67-61.61a2,2,0,0,0,0-4.06,2,2,0,0,0,0,4.06Zm0,136.4a2,2,0,0,0,0-4.06,2,2,0,0,0,0,4.06ZM65.73,394.32a2,2,0,0,0,0,4.07,2,2,0,0,0,0-4.07ZM18.34,350.87a1.94,1.94,0,0,0,1.94,2.05,2,2,0,0,0,0-4.07A1.93,1.93,0,0,0,18.34,350.87Zm47.38,88.91a1.93,1.93,0,0,0-1.92,2,1.93,1.93,0,1,0,1.92-2Zm0-90.93a2,2,0,0,0,0,4.07,2,2,0,0,0,0-4.07Zm45.45,0a2,2,0,1,0,1.94,2.05A1.94,1.94,0,0,0,111.17,348.85Zm1.94,83.88a1.93,1.93,0,1,0-3.86,0,1.93,1.93,0,1,0,3.86,0Zm-92.86,2a2,2,0,0,0,1.95-2.05,2,2,0,0,0-1.93-2,2,2,0,0,0-1.93,2A1.93,1.93,0,0,0,20.25,434.76Zm138.31-38.4a1.94,1.94,0,0,0-2-2,2,2,0,1,0,2,2Zm23.43,0a2,2,0,0,0,1.91,2,2,2,0,0,0,2-2.06,2,2,0,0,0-1.93-2A1.92,1.92,0,0,0,182,396.37Zm-23.43-45.46a1.93,1.93,0,1,0-3.86-.05,1.93,1.93,0,1,0,3.86.05ZM65.74,434.76a2,2,0,1,0-1.94-2A1.93,1.93,0,0,0,65.74,434.76Zm47.37-38.38a1.93,1.93,0,1,0-3.86-.06,1.93,1.93,0,1,0,3.86.06Zm-47.4,83.84a2,2,0,0,0,2-2,2,2,0,0,0-1.92-2,2,2,0,0,0-1.94,2.06A1.93,1.93,0,0,0,65.71,480.22Zm91-67.71a2,2,0,1,0,1.91,2A1.95,1.95,0,0,0,156.66,412.51Zm0-41.41a2,2,0,0,0,0-4.06,2,2,0,0,0,0,4.06Zm-136.41,0A2,2,0,0,0,20.3,367a2,2,0,0,0-.07,4.05ZM156.62,462a2,2,0,0,0,0-4.05,2,2,0,0,0,0,4.05Zm-45.41,18.19a2,2,0,1,0-1.95-2A1.94,1.94,0,0,0,111.21,480.23Zm72.68-63.66a2,2,0,0,0,.06-4.06,2,2,0,0,0-.06,4.06ZM65.7,325.63a2,2,0,0,0,0-4.06,2,2,0,0,0,0,4.06Zm0,136.4a2,2,0,1,0-1.94-2A1.93,1.93,0,0,0,65.74,462ZM20.26,416.57a2,2,0,0,0,0-4.06,2,2,0,0,0,0,4.06ZM65.71,371.1A2,2,0,1,0,63.8,369,1.94,1.94,0,0,0,65.71,371.1Zm0,45.47a2,2,0,1,0-1.93-2.06A1.94,1.94,0,0,0,65.72,416.57Zm45.55-95a1.93,1.93,0,0,0-2,2,2,2,0,0,0,1.84,2.09,1.93,1.93,0,0,0,2-2A2,2,0,0,0,111.27,321.58ZM111.22,458a2,2,0,1,0,1.9,2A1.94,1.94,0,0,0,111.22,458Zm0-86.88a2,2,0,1,0-2-2A1.93,1.93,0,0,0,111.22,371.1Zm0,45.47a2,2,0,1,0-1.93-2A1.94,1.94,0,0,0,111.19,416.57Zm-1.69,79.2a1.35,1.35,0,0,0,1.23,1.46,1.4,1.4,0,0,0,.13-2.79A1.33,1.33,0,0,0,109.5,495.76ZM4.8,432.39A1.39,1.39,0,0,0,3.44,431,1.41,1.41,0,0,0,2,432.38a1.38,1.38,0,0,0,1.4,1.31A1.36,1.36,0,0,0,4.8,432.39ZM174,449.25a1.41,1.41,0,0,0-1.4,1.32,1.39,1.39,0,0,0,1.44,1.34,1.36,1.36,0,0,0,1.36-1.34A1.39,1.39,0,0,0,174,449.25ZM12,451.91a1.36,1.36,0,0,0,1.37-1.33A1.4,1.4,0,1,0,12,451.91Zm88.71-145a1.32,1.32,0,0,0,1.31,1.38,1.44,1.44,0,0,0,1.34-1.39,1.41,1.41,0,0,0-1.38-1.41A1.33,1.33,0,0,0,100.66,306.88ZM146.13,324a1.35,1.35,0,0,0,1.28,1.42,1.4,1.4,0,0,0,0-2.79A1.35,1.35,0,0,0,146.13,324ZM100.66,495.8a1.33,1.33,0,0,0,1.26,1.42,1.43,1.43,0,0,0,1.39-1.4,1.42,1.42,0,0,0-1.33-1.39A1.32,1.32,0,0,0,100.66,495.8Zm19-1.37a1.4,1.4,0,0,0,0,2.79,1.43,1.43,0,0,0,1.38-1.41A1.41,1.41,0,0,0,119.66,494.43Zm-45.08-.07a1.37,1.37,0,0,0-1.29,1.41,1.32,1.32,0,0,0,1.3,1.38,1.37,1.37,0,0,0,1.34-1.42A1.4,1.4,0,0,0,74.58,494.36Zm-36-171.72a1.4,1.4,0,0,0,0,2.79,1.4,1.4,0,0,0,0-2.79Zm8.69-9.5A1.37,1.37,0,0,0,46,314.56a1.32,1.32,0,0,0,1.31,1.37,1.37,1.37,0,0,0,1.33-1.43A1.4,1.4,0,0,0,47.32,313.14Zm72.33-7.75a1.38,1.38,0,0,0-1.28,1.44,1.33,1.33,0,0,0,1.35,1.35,1.36,1.36,0,0,0,1.29-1.42A1.38,1.38,0,0,0,119.65,305.4Zm-45.09,2.79a1.35,1.35,0,0,0,1.37-1.33,1.41,1.41,0,0,0-1.32-1.46,1.36,1.36,0,0,0-1.32,1.38A1.33,1.33,0,0,0,74.56,308.18ZM84.77,495.82a1.34,1.34,0,0,0-1.32-1.38,1.4,1.4,0,0,0,0,2.79A1.35,1.35,0,0,0,84.77,495.82Zm9.56-.24a1.31,1.31,0,0,0-1.28-1.41,1.37,1.37,0,0,0-1.36,1.36A1.43,1.43,0,0,0,93,497,1.35,1.35,0,0,0,94.33,495.58Zm-28.8,1.2a1.33,1.33,0,0,0,1.4-1.3,1.4,1.4,0,1,0-1.4,1.3Zm73.92-9.54a1.39,1.39,0,0,0-2.78,0,1.37,1.37,0,0,0,1.44,1.32A1.34,1.34,0,0,0,139.45,487.23Zm-92.17-1.3a1.39,1.39,0,0,0-1.41,1.3,1.37,1.37,0,0,0,1.41,1.35,1.34,1.34,0,0,0,1.37-1.32A1.38,1.38,0,0,0,47.27,485.93ZM94.33,306.56A1.3,1.3,0,0,0,93,305.2a1.37,1.37,0,0,0-1.3,1.42A1.42,1.42,0,0,0,93.06,308,1.36,1.36,0,0,0,94.33,306.56Zm-27.26.25a1.32,1.32,0,1,0-2.64,0,1.33,1.33,0,0,0,1.31,1.39A1.35,1.35,0,0,0,67.07,306.8Zm45.08,0a1.37,1.37,0,0,0-1.31-1.4,1.39,1.39,0,0,0-1.32,1.4,1.32,1.32,0,1,0,2.64,0Zm-27.38.08a1.34,1.34,0,0,0-1.29-1.41,1.4,1.4,0,0,0,0,2.79A1.35,1.35,0,0,0,84.77,306.88Zm55.15,7.65a1.37,1.37,0,0,0-1.33-1.38,1.4,1.4,0,0,0-1.3,1.42,1.32,1.32,0,1,0,2.64,0Zm7.71,164.8a1.35,1.35,0,0,0,1.33-1.38,1.32,1.32,0,1,0-2.64,0A1.33,1.33,0,0,0,147.63,479.32Zm-109.05,0A1.34,1.34,0,0,0,39.95,478a1.38,1.38,0,0,0-1.27-1.44,1.36,1.36,0,0,0-1.36,1.36A1.33,1.33,0,0,0,38.58,479.32ZM184.1,432.45a1.37,1.37,0,0,0-1.33-1.38,1.4,1.4,0,0,0-1.3,1.42,1.32,1.32,0,1,0,2.64,0ZM11.8,352.63a1.33,1.33,0,0,0,1.4-1.3,1.4,1.4,0,1,0-1.4,1.3Zm162.26,0a1.32,1.32,0,0,0,1.37-1.33,1.4,1.4,0,1,0-1.37,1.33Zm10,17.22a1.37,1.37,0,0,0-1.3-1.42,1.38,1.38,0,0,0-1.33,1.39,1.32,1.32,0,1,0,2.64,0ZM2.54,371.1A1.32,1.32,0,0,0,4,369.82a1.34,1.34,0,0,0-1.36-1.34,1.35,1.35,0,0,0-1.41,1.29A1.33,1.33,0,0,0,2.54,371.1Z" style="fill:#e0ed3a"/><path d="M184.18,425.71a2,2,0,0,1-2.18-2,1.94,1.94,0,0,1,1.9-2.08,2.05,2.05,0,0,1,2.19,2A2,2,0,0,1,184.18,425.71Z" style="fill:#e0ed3a"/><path d="M182,378.18a2.07,2.07,0,0,1,2.12-2.13,2,2,0,0,1,2,2,2.12,2.12,0,0,1-2.19,2.14A2,2,0,0,1,182,378.18Z" style="fill:#e0ed3a"/><path d="M.16,414.49a1.9,1.9,0,0,1,1.92-2,2.11,2.11,0,0,1,2.08,2.17,2,2,0,0,1-1.94,2A2.11,2.11,0,0,1,.16,414.49Z" style="fill:#e0ed3a"/><path d="M163.82,341.8a2,2,0,0,1,2.06-2.11,2,2,0,0,1,1.94,2.05,2.07,2.07,0,0,1-2.1,2.07A1.92,1.92,0,0,1,163.82,341.8Z" style="fill:#e0ed3a"/><path d="M1.94,425.71a1.93,1.93,0,0,1-1.94-2,2,2,0,0,1,2.09-2.07,2,2,0,0,1,1.92,2A2.06,2.06,0,0,1,1.94,425.71Z" style="fill:#e0ed3a"/><path d="M163.82,460a1.91,1.91,0,0,1,1.95-2,2.05,2.05,0,0,1,.13,4.1A2,2,0,0,1,163.82,460Z" style="fill:#e0ed3a"/><path d="M27.44,469.1a1.94,1.94,0,0,1,1.89-2,2,2,0,0,1,2,2.07,2,2,0,0,1-1.89,2A2,2,0,0,1,27.44,469.1Z" style="fill:#e0ed3a"/><path d="M4,378.16a2,2,0,0,1-1.84,2,2,2,0,0,1-2-1.86,1.94,1.94,0,0,1,2.33-2.24A2,2,0,0,1,4,378.16Z" style="fill:#e0ed3a"/><path d="M22.2,341.73a2,2,0,0,1-1.92,2.09,2.07,2.07,0,1,1,1.92-2.09Z" style="fill:#e0ed3a"/><path d="M156.63,471.18a2.06,2.06,0,0,1,0-4.12,2,2,0,0,1,2,2.07A2,2,0,0,1,156.63,471.18Z" style="fill:#e0ed3a"/><path d="M131.29,360a2,2,0,0,1-1.94,2.06,2,2,0,0,1-1.92-2,2,2,0,0,1,2-2.07A2,2,0,0,1,131.29,360Z" style="fill:#e0ed3a"/><path d="M120.28,330.66a2,2,0,0,1,0,4.09,2,2,0,0,1-1.91-2.09A1.94,1.94,0,0,1,120.28,330.66Z" style="fill:#e0ed3a"/><path d="M45.62,378.19a2,2,0,0,1,1.93-2.06,2,2,0,0,1,0,4.09A2,2,0,0,1,45.62,378.19Z" style="fill:#e0ed3a"/><path d="M58.56,378.18a2,2,0,0,1-2,2,2,2,0,0,1-1.89-2.06,1.93,1.93,0,1,1,3.86,0Z" style="fill:#e0ed3a"/><path d="M118.35,405.46a2,2,0,0,1,1.94-2.06,2.05,2.05,0,0,1,0,4.09A1.94,1.94,0,0,1,118.35,405.46Z" style="fill:#e0ed3a"/><path d="M165.72,403.4a2.05,2.05,0,0,1,0,4.09,2.05,2.05,0,0,1,0-4.09Z" style="fill:#e0ed3a"/><path d="M118.35,378.17a1.94,1.94,0,0,1,2-2,2,2,0,0,1-.06,4.09A2,2,0,0,1,118.35,378.17Z" style="fill:#e0ed3a"/><path d="M58.56,469.11a1.93,1.93,0,1,1-1.94-2.05A2,2,0,0,1,58.56,469.11Z" style="fill:#e0ed3a"/><path d="M45.62,469.09a1.94,1.94,0,0,1,1.9-2,2,2,0,0,1,0,4.09A2,2,0,0,1,45.62,469.09Z" style="fill:#e0ed3a"/><path d="M45.62,450.89a2,2,0,0,1,1.91-2,2,2,0,0,1,0,4.09A1.94,1.94,0,0,1,45.62,450.89Z" style="fill:#e0ed3a"/><path d="M58.56,450.91a1.93,1.93,0,1,1-3.86,0,1.93,1.93,0,1,1,3.86,0Z" style="fill:#e0ed3a"/><path d="M85.83,360A1.93,1.93,0,1,1,82,360a2,2,0,0,1,1.92-2A2,2,0,0,1,85.83,360Z" style="fill:#e0ed3a"/><path d="M118.35,314.53a2,2,0,0,1,1.93-2.07,2,2,0,0,1,0,4.09A1.94,1.94,0,0,1,118.35,314.53Z" style="fill:#e0ed3a"/><path d="M118.35,360a2,2,0,0,1,1.94-2.07,2,2,0,0,1,0,4.09A2,2,0,0,1,118.35,360Z" style="fill:#e0ed3a"/><path d="M45.62,423.63a1.94,1.94,0,0,1,1.89-2,2,2,0,0,1,0,4.09A2,2,0,0,1,45.62,423.63Z" style="fill:#e0ed3a"/><path d="M118.35,450.95a1.93,1.93,0,1,1,1.92,2A1.94,1.94,0,0,1,118.35,450.95Z" style="fill:#e0ed3a"/><path d="M58.56,423.6a1.93,1.93,0,1,1-1.92-2A2,2,0,0,1,58.56,423.6Z" style="fill:#e0ed3a"/><path d="M72.89,423.6a2,2,0,0,1,1.92-2,2,2,0,0,1,0,4.09A2,2,0,0,1,72.89,423.6Z" style="fill:#e0ed3a"/><path d="M47.54,357.93a2,2,0,0,1,0,4.09,2.05,2.05,0,0,1,0-4.09Z" style="fill:#e0ed3a"/><path d="M31.29,360a2,2,0,0,1-1.92,2,2.05,2.05,0,0,1,0-4.09A2,2,0,0,1,31.29,360Z" style="fill:#e0ed3a"/><path d="M13.09,378.13a1.93,1.93,0,1,1-1.93-2A2,2,0,0,1,13.09,378.13Z" style="fill:#e0ed3a"/><path d="M13.09,423.63a2,2,0,0,1-2,2.05,2.05,2.05,0,0,1,0-4.09A2,2,0,0,1,13.09,423.63Z" style="fill:#e0ed3a"/><path d="M13.09,360a1.93,1.93,0,1,1-3.86,0,1.93,1.93,0,1,1,3.86,0Z" style="fill:#e0ed3a"/><path d="M165.72,434.76a1.93,1.93,0,0,1-1.91-2.07,2,2,0,0,1,1.93-2,2,2,0,0,1,1.93,2.09A2,2,0,0,1,165.72,434.76Z" style="fill:#e0ed3a"/><path d="M91.08,360A2,2,0,0,1,93,357.93,2,2,0,0,1,93,362,1.93,1.93,0,0,1,91.08,360Z" style="fill:#e0ed3a"/><path d="M118.35,469.13a2,2,0,0,1,1.92-2.07,2,2,0,0,1,1.94,2,2,2,0,0,1-1.94,2.08A2,2,0,0,1,118.35,469.13Z" style="fill:#e0ed3a"/><path d="M147.56,367a2,2,0,1,1-1.94,2A1.95,1.95,0,0,1,147.56,367Z" style="fill:#e0ed3a"/><path d="M118.35,423.6a2,2,0,0,1,1.92-2,2,2,0,0,1,0,4.09A2,2,0,0,1,118.35,423.6Z" style="fill:#e0ed3a"/><path d="M147.53,343.82a2,2,0,0,1,0-4.08,2,2,0,0,1,1.91,2.09A1.94,1.94,0,0,1,147.53,343.82Z" style="fill:#e0ed3a"/><path d="M163.81,350.89a1.93,1.93,0,0,1,1.95-2,2,2,0,0,1,1.91,2,2,2,0,0,1-2,2A2,2,0,0,1,163.81,350.89Z" style="fill:#e0ed3a"/><path d="M18.34,460a1.92,1.92,0,0,1,2-2,2,2,0,0,1,1.91,2,2,2,0,0,1-1.94,2.08A2,2,0,0,1,18.34,460Z" style="fill:#e0ed3a"/><path d="M163.81,360a2,2,0,0,1,1.93-2.08,2,2,0,0,1,0,4.09A1.94,1.94,0,0,1,163.81,360Z" style="fill:#e0ed3a"/><path d="M163.81,378.13a1.94,1.94,0,0,1,1.92-2,2,2,0,0,1,0,4.09A2,2,0,0,1,163.81,378.13Z" style="fill:#e0ed3a"/><path d="M45.62,405.43a2,2,0,0,1,1.9-2,2,2,0,0,1,2,2.07,2,2,0,0,1-1.93,2A2,2,0,0,1,45.62,405.43Z" style="fill:#e0ed3a"/><path d="M85.83,450.89a1.93,1.93,0,1,1-3.86,0,2,2,0,0,1,2-2.07A2,2,0,0,1,85.83,450.89Z" style="fill:#e0ed3a"/><path d="M149.48,441.82a1.93,1.93,0,1,1-3.86,0,1.93,1.93,0,1,1,3.86,0Z" style="fill:#e0ed3a"/><path d="M104,450.91a1.93,1.93,0,1,1-1.9-2A2,2,0,0,1,104,450.91Z" style="fill:#e0ed3a"/><path d="M54.69,487.22a1.94,1.94,0,1,1,3.87.08,1.87,1.87,0,0,1-2,2A2,2,0,0,1,54.69,487.22Z" style="fill:#e0ed3a"/><path d="M163.81,450.94a2,2,0,0,1,1.93-2.07,2,2,0,0,1,1.93,2,2,2,0,0,1-1.94,2.07A2,2,0,0,1,163.81,450.94Z" style="fill:#e0ed3a"/><path d="M58.56,405.44a1.93,1.93,0,1,1-3.86,0,1.93,1.93,0,1,1,3.86,0Z" style="fill:#e0ed3a"/><path d="M31.29,332.69a1.93,1.93,0,1,1-3.86,0,2,2,0,0,1,1.95-2A2,2,0,0,1,31.29,332.69Z" style="fill:#e0ed3a"/><path d="M165.71,394.32a2,2,0,0,1,2,2,2,2,0,0,1-1.92,2,2,2,0,0,1-1.94-2.06A1.92,1.92,0,0,1,165.71,394.32Z" style="fill:#e0ed3a"/><path d="M76.75,469.12a1.93,1.93,0,1,1-3.86,0,2,2,0,0,1,2-2A2,2,0,0,1,76.75,469.12Z" style="fill:#e0ed3a"/><path d="M93,312.46a2.05,2.05,0,0,1,0,4.09,1.93,1.93,0,0,1-1.94-2A2,2,0,0,1,93,312.46Z" style="fill:#e0ed3a"/><path d="M76.75,405.5a2,2,0,0,1-2,2,2.05,2.05,0,0,1,.06-4.09A2,2,0,0,1,76.75,405.5Z" style="fill:#e0ed3a"/><path d="M74.81,485.25a2,2,0,1,1-1.92,2A1.93,1.93,0,0,1,74.81,485.25Z" style="fill:#e0ed3a"/><path d="M93,330.66a2,2,0,0,1-.06,4.09,2,2,0,0,1-1.89-2.11A1.93,1.93,0,0,1,93,330.66Z" style="fill:#e0ed3a"/><path d="M72.89,378.14a2,2,0,0,1,1.92-2,2,2,0,1,1-1.92,2Z" style="fill:#e0ed3a"/><path d="M72.89,332.67a2,2,0,0,1,1.92-2,2,2,0,1,1-1.92,2Z" style="fill:#e0ed3a"/><path d="M63.8,314.53a1.93,1.93,0,1,1,1.92,2A2,2,0,0,1,63.8,314.53Z" style="fill:#e0ed3a"/><path d="M76.75,314.49a2,2,0,0,1-1.95,2.06,2.05,2.05,0,0,1,0-4.09A2,2,0,0,1,76.75,314.49Z" style="fill:#e0ed3a"/><path d="M58.56,332.72a1.93,1.93,0,1,1-1.93-2.07A2,2,0,0,1,58.56,332.72Z" style="fill:#e0ed3a"/><path d="M91.08,378.08a1.93,1.93,0,0,1,2-2,2,2,0,0,1-.11,4.09A2,2,0,0,1,91.08,378.08Z" style="fill:#e0ed3a"/><path d="M131.29,387.29a1.93,1.93,0,0,1-1.92,2,2,2,0,0,1-1.94-2.06,2,2,0,0,1,1.93-2A2,2,0,0,1,131.29,387.29Z" style="fill:#e0ed3a"/><path d="M174.85,394.32a2,2,0,0,1,0,4.07,2,2,0,0,1,0-4.07Z" style="fill:#e0ed3a"/><path d="M31.29,387.22a2,2,0,0,1-1.87,2.07,1.93,1.93,0,0,1-2-2,1.93,1.93,0,1,1,3.86-.07Z" style="fill:#e0ed3a"/><path d="M74.8,389.29a1.93,1.93,0,0,1-1.91-2.08,2,2,0,0,1,1.94-2,2,2,0,0,1,1.92,2.09A2,2,0,0,1,74.8,389.29Z" style="fill:#e0ed3a"/><path d="M13.09,405.43a1.93,1.93,0,1,1-3.86,0,2,2,0,0,1,1.89-2.06A2,2,0,0,1,13.09,405.43Z" style="fill:#e0ed3a"/><path d="M163.81,387.27a2,2,0,0,1,1.89-2.05,2,2,0,0,1,2,2,2,2,0,0,1-2,2A1.92,1.92,0,0,1,163.81,387.27Z" style="fill:#e0ed3a"/><path d="M149.48,414.54a1.93,1.93,0,1,1-1.9-2A1.94,1.94,0,0,1,149.48,414.54Z" style="fill:#e0ed3a"/><path d="M158.57,360a1.93,1.93,0,1,1-3.86,0,1.93,1.93,0,1,1,3.86,0Z" style="fill:#e0ed3a"/><path d="M85.83,405.44a2,2,0,0,1-1.95,2,2.05,2.05,0,1,1,1.95-2Z" style="fill:#e0ed3a"/><path d="M20.27,376.12a2,2,0,0,1,0,4.09,2,2,0,0,1-1.91-2.09A1.94,1.94,0,0,1,20.27,376.12Z" style="fill:#e0ed3a"/><path d="M104,469.1a1.93,1.93,0,1,1-3.86,0,1.93,1.93,0,1,1,3.86,0Z" style="fill:#e0ed3a"/><path d="M91.08,405.42a2,2,0,0,1,1.91-2,2,2,0,0,1,1.95,2.08,2,2,0,0,1-1.94,2A1.94,1.94,0,0,1,91.08,405.42Z" style="fill:#e0ed3a"/><path d="M85.83,378.23a2,2,0,0,1-2,2A2,2,0,0,1,82,378.1a1.93,1.93,0,1,1,3.86.14Z" style="fill:#e0ed3a"/><path d="M104,405.47a1.93,1.93,0,1,1-1.94-2.07A2,2,0,0,1,104,405.47Z" style="fill:#e0ed3a"/><path d="M104,378.19a1.93,1.93,0,1,1-1.94-2.06A2,2,0,0,1,104,378.19Z" style="fill:#e0ed3a"/><path d="M138.47,403.4a2,2,0,0,1,1.93,2.09,2,2,0,0,1-2,2,2.05,2.05,0,0,1,0-4.09Z" style="fill:#e0ed3a"/><path d="M158.57,405.44a1.93,1.93,0,1,1-3.86,0,2,2,0,0,1,2-2A2,2,0,0,1,158.57,405.44Z" style="fill:#e0ed3a"/><path d="M131.29,469.09a1.93,1.93,0,1,1-3.86,0,2,2,0,0,1,2-2.06A2,2,0,0,1,131.29,469.09Z" style="fill:#e0ed3a"/><path d="M176.75,405.42a1.93,1.93,0,1,1-3.86.05,2,2,0,0,1,1.94-2.08A2,2,0,0,1,176.75,405.42Z" style="fill:#e0ed3a"/><path d="M91.08,469.06a2,2,0,0,1,1.93-2,2,2,0,0,1,0,4.09A2,2,0,0,1,91.08,469.06Z" style="fill:#e0ed3a"/><path d="M174.84,389.29a2,2,0,0,1-1.95-2,2,2,0,0,1,1.92-2,2,2,0,0,1,1.94,2.06A1.94,1.94,0,0,1,174.84,389.29Z" style="fill:#e0ed3a"/><path d="M183.93,403.4a2,2,0,0,1,0,4.09,2.05,2.05,0,0,1,0-4.09Z" style="fill:#e0ed3a"/><path d="M136.54,469.1a1.94,1.94,0,0,1,1.89-2,2,2,0,0,1,2,2,2,2,0,0,1-1.91,2A2,2,0,0,1,136.54,469.1Z" style="fill:#e0ed3a"/><path d="M131.29,378.17a2,2,0,0,1-1.89,2,2,2,0,0,1,0-4.09A2,2,0,0,1,131.29,378.17Z" style="fill:#e0ed3a"/><path d="M176.75,360a1.93,1.93,0,1,1-3.86,0,2,2,0,0,1,2-2.06A2,2,0,0,1,176.75,360Z" style="fill:#e0ed3a"/><path d="M158.57,378.16a1.93,1.93,0,1,1-1.9-2A2,2,0,0,1,158.57,378.16Z" style="fill:#e0ed3a"/><path d="M147.54,462a2,2,0,1,1,1.94-2A1.94,1.94,0,0,1,147.54,462Z" style="fill:#e0ed3a"/><path d="M29.31,434.76a2,2,0,0,1,.09-4.08,2,2,0,0,1,1.89,2.12A2,2,0,0,1,29.31,434.76Z" style="fill:#e0ed3a"/><path d="M76.75,341.8a2,2,0,0,1-1.92,2,1.93,1.93,0,0,1-1.94-2,2,2,0,0,1,1.9-2A2,2,0,0,1,76.75,341.8Z" style="fill:#e0ed3a"/><path d="M31.29,341.78a2,2,0,0,1-1.89,2,1.93,1.93,0,0,1-2-2,1.93,1.93,0,1,1,3.86,0Z" style="fill:#e0ed3a"/><path d="M149.48,332.72a1.93,1.93,0,1,1-1.94-2.06A2,2,0,0,1,149.48,332.72Z" style="fill:#e0ed3a"/><path d="M136.54,332.68a1.94,1.94,0,0,1,1.91-2,2,2,0,0,1,0,4.09A2,2,0,0,1,136.54,332.68Z" style="fill:#e0ed3a"/><path d="M131.29,332.72a2,2,0,0,1-1.91,2,2,2,0,0,1,0-4.09A2,2,0,0,1,131.29,332.72Z" style="fill:#e0ed3a"/><path d="M104,332.69a1.93,1.93,0,1,1-1.9-2A2,2,0,0,1,104,332.69Z" style="fill:#e0ed3a"/><path d="M85.83,332.69a2,2,0,0,1-1.94,2.06,2,2,0,0,1,0-4.09A2,2,0,0,1,85.83,332.69Z" style="fill:#e0ed3a"/><path d="M40.37,332.67a2,2,0,0,1-1.93,2.08,2,2,0,0,1,0-4.09A1.94,1.94,0,0,1,40.37,332.67Z" style="fill:#e0ed3a"/><path d="M104,441.81a1.93,1.93,0,1,1-2-2A2,2,0,0,1,104,441.81Z" style="fill:#e0ed3a"/><path d="M31.28,450.94a2,2,0,0,1-1.93,2,2.05,2.05,0,0,1,0-4.09A2,2,0,0,1,31.28,450.94Z" style="fill:#e0ed3a"/><path d="M131.29,478.17a1.93,1.93,0,0,1-1.93,2.06,2,2,0,0,1-1.93-2,1.93,1.93,0,1,1,3.86-.05Z" style="fill:#e0ed3a"/><path d="M76.75,450.9a2,2,0,0,1-2,2.06,2,2,0,0,1-1.91-2,2,2,0,0,1,1.88-2.06A2,2,0,0,1,76.75,450.9Z" style="fill:#e0ed3a"/><path d="M131.28,314.57a1.94,1.94,0,1,1-3.87-.11,1.93,1.93,0,0,1,2-2A2,2,0,0,1,131.28,314.57Z" style="fill:#e0ed3a"/><path d="M138.44,448.86a2,2,0,0,1,0,4.09,1.93,1.93,0,0,1-1.94-2A2,2,0,0,1,138.44,448.86Z" style="fill:#e0ed3a"/><path d="M145.62,450.88a1.93,1.93,0,1,1,3.86.06,1.93,1.93,0,1,1-3.86-.06Z" style="fill:#e0ed3a"/><path d="M158.57,450.91a1.93,1.93,0,1,1-3.86,0,2,2,0,0,1,1.9-2.06A2,2,0,0,1,158.57,450.91Z" style="fill:#e0ed3a"/><path d="M85.83,314.48a2,2,0,0,1-1.93,2.07,2,2,0,0,1,0-4.09A2,2,0,0,1,85.83,314.48Z" style="fill:#e0ed3a"/><path d="M102.1,485.25a2,2,0,1,1-1.94,2.05A1.95,1.95,0,0,1,102.1,485.25Z" style="fill:#e0ed3a"/><path d="M136.54,423.62a1.93,1.93,0,0,1,1.9-2,2,2,0,0,1,0,4.09A1.94,1.94,0,0,1,136.54,423.62Z" style="fill:#e0ed3a"/><path d="M56.61,480.22a2,2,0,1,1,1.95-2A1.95,1.95,0,0,1,56.61,480.22Z" style="fill:#e0ed3a"/><path d="M20.24,421.59a2,2,0,0,1,0,4.09,2,2,0,0,1,0-4.09Z" style="fill:#e0ed3a"/><path d="M58.56,360a1.93,1.93,0,1,1-1.9-2A2,2,0,0,1,58.56,360Z" style="fill:#e0ed3a"/><path d="M40.37,423.62a2,2,0,0,1-1.94,2.06,2,2,0,0,1,0-4.09A2,2,0,0,1,40.37,423.62Z" style="fill:#e0ed3a"/><path d="M85.83,423.6a2,2,0,0,1-1.92,2.08,2,2,0,0,1,0-4.09A2,2,0,0,1,85.83,423.6Z" style="fill:#e0ed3a"/><path d="M76.75,350.87a2,2,0,0,1-1.95,2.06,2,2,0,1,1,1.95-2.06Z" style="fill:#e0ed3a"/><path d="M72.89,360a2,2,0,0,1,1.91-2,2,2,0,0,1,0,4.09A2,2,0,0,1,72.89,360Z" style="fill:#e0ed3a"/><path d="M158.57,423.62a2,2,0,0,1-1.94,2.06,2.05,2.05,0,0,1,0-4.09A2,2,0,0,1,158.57,423.62Z" style="fill:#e0ed3a"/><path d="M165.73,421.59a2,2,0,1,1-1.92,2A2,2,0,0,1,165.73,421.59Z" style="fill:#e0ed3a"/><path d="M18.34,405.42a2,2,0,0,1,1.92-2,2,2,0,0,1,1.94,2.08,2,2,0,0,1-1.93,2A2,2,0,0,1,18.34,405.42Z" style="fill:#e0ed3a"/><path d="M93,448.86A2,2,0,0,1,94.94,451a2,2,0,0,1-2,2,1.94,1.94,0,0,1-1.91-2.08A2,2,0,0,1,93,448.86Z" style="fill:#e0ed3a"/><path d="M131.29,450.93a2,2,0,0,1-1.91,2,2,2,0,0,1,0-4.09A2,2,0,0,1,131.29,450.93Z" style="fill:#e0ed3a"/><path d="M2.07,403.4a2,2,0,0,1,0,4.09,1.94,1.94,0,0,1-1.93-2A2,2,0,0,1,2.07,403.4Z" style="fill:#e0ed3a"/><path d="M63.8,469.07a1.94,1.94,0,0,1,2-2,2.05,2.05,0,0,1-.05,4.09A2,2,0,0,1,63.8,469.07Z" style="fill:#e0ed3a"/><path d="M93,421.59a2,2,0,0,1,0,4.09,2,2,0,0,1,0-4.09Z" style="fill:#e0ed3a"/><path d="M18.34,450.94a1.93,1.93,0,1,1,1.91,2A2,2,0,0,1,18.34,450.94Z" style="fill:#e0ed3a"/><path d="M165.71,416.57a2,2,0,0,1,0-4.06,2,2,0,0,1,0,4.06Z" style="fill:#e0ed3a"/><path d="M176.75,414.57a1.93,1.93,0,1,1-1.93-2.05A1.94,1.94,0,0,1,176.75,414.57Z" style="fill:#e0ed3a"/><path d="M85.83,469.1a1.93,1.93,0,1,1-1.89-2A2,2,0,0,1,85.83,469.1Z" style="fill:#e0ed3a"/><path d="M104,396.37a1.93,1.93,0,1,1-1.94-2A2,2,0,0,1,104,396.37Z" style="fill:#e0ed3a"/><path d="M74.79,394.32a2,2,0,0,1,2,2,2,2,0,0,1-1.91,2,2,2,0,0,1-1.95-2.05A1.94,1.94,0,0,1,74.79,394.32Z" style="fill:#e0ed3a"/><path d="M74.81,462a2,2,0,0,1,0-4.06,2,2,0,0,1,0,4.06Z" style="fill:#e0ed3a"/><path d="M27.43,396.33a1.93,1.93,0,1,1,3.86,0,1.93,1.93,0,1,1-3.86,0Z" style="fill:#e0ed3a"/><path d="M13.09,396.38a2,2,0,0,1-1.92,2,2,2,0,0,1-1.94-2.07,1.93,1.93,0,1,1,3.86.05Z" style="fill:#e0ed3a"/><path d="M29.33,458a2,2,0,0,1,0,4.06,2,2,0,0,1,0-4.06Z" style="fill:#e0ed3a"/><path d="M56.58,462a2,2,0,1,1,2-2A1.95,1.95,0,0,1,56.58,462Z" style="fill:#e0ed3a"/><path d="M176.75,423.64a1.93,1.93,0,1,1-1.95-2A2,2,0,0,1,176.75,423.64Z" style="fill:#e0ed3a"/><path d="M13.09,432.74a1.93,1.93,0,1,1-1.94-2.06A1.95,1.95,0,0,1,13.09,432.74Z" style="fill:#e0ed3a"/><path d="M58.56,432.71a1.93,1.93,0,1,1-1.92-2A1.95,1.95,0,0,1,58.56,432.71Z" style="fill:#e0ed3a"/><path d="M104,432.73a1.93,1.93,0,1,1-3.86,0,1.93,1.93,0,1,1,3.86,0Z" style="fill:#e0ed3a"/><path d="M131.29,405.46a2,2,0,0,1-1.91,2,2,2,0,0,1-2-2.06,2,2,0,0,1,1.92-2A2,2,0,0,1,131.29,405.46Z" style="fill:#e0ed3a"/><path d="M131.29,460a1.93,1.93,0,1,1-1.94-2A1.92,1.92,0,0,1,131.29,460Z" style="fill:#e0ed3a"/><path d="M120.24,434.76a2,2,0,0,1,.08-4.07,2,2,0,0,1,1.9,2A2,2,0,0,1,120.24,434.76Z" style="fill:#e0ed3a"/><path d="M13.09,414.54a1.93,1.93,0,1,1-3.86,0,2,2,0,0,1,1.91-2A1.94,1.94,0,0,1,13.09,414.54Z" style="fill:#e0ed3a"/><path d="M149.48,432.72a1.93,1.93,0,1,1-1.9-2A2,2,0,0,1,149.48,432.72Z" style="fill:#e0ed3a"/><path d="M176.75,432.71a1.93,1.93,0,1,1-3.86,0,2,2,0,0,1,1.89-2.06A2,2,0,0,1,176.75,432.71Z" style="fill:#e0ed3a"/><path d="M120.29,462a1.92,1.92,0,0,1-1.93-2,1.93,1.93,0,1,1,1.93,2Z" style="fill:#e0ed3a"/><path d="M149.48,423.62a1.93,1.93,0,1,1-1.91-2A2,2,0,0,1,149.48,423.62Z" style="fill:#e0ed3a"/><path d="M102.1,462a2,2,0,1,1,1.92-2A1.94,1.94,0,0,1,102.1,462Z" style="fill:#e0ed3a"/><path d="M58.56,414.53a1.93,1.93,0,1,1-2-2A1.93,1.93,0,0,1,58.56,414.53Z" style="fill:#e0ed3a"/><path d="M74.81,412.51a2,2,0,0,1,0,4.06,2,2,0,0,1,0-4.06Z" style="fill:#e0ed3a"/><path d="M13.09,441.81a1.93,1.93,0,1,1-1.9-2A1.94,1.94,0,0,1,13.09,441.81Z" style="fill:#e0ed3a"/><path d="M120.28,412.51a2,2,0,0,1,0,4.05,2,2,0,0,1,0-4.05Z" style="fill:#e0ed3a"/><path d="M63.8,405.42a2,2,0,0,1,1.92-2,2,2,0,0,1,1.94,2.07,2,2,0,0,1-1.93,2A2,2,0,0,1,63.8,405.42Z" style="fill:#e0ed3a"/><path d="M131.29,423.65a2,2,0,0,1-1.91,2,2,2,0,0,1,0-4.09A2,2,0,0,1,131.29,423.65Z" style="fill:#e0ed3a"/><path d="M31.29,441.8a1.93,1.93,0,1,1-3.86,0,1.93,1.93,0,1,1,3.86,0Z" style="fill:#e0ed3a"/><path d="M56.61,439.79a2,2,0,1,1-1.91,2A1.95,1.95,0,0,1,56.61,439.79Z" style="fill:#e0ed3a"/><path d="M104,423.63a1.93,1.93,0,1,1-1.9-2A2,2,0,0,1,104,423.63Z" style="fill:#e0ed3a"/><path d="M136.54,441.79a1.92,1.92,0,0,1,1.91-2,2,2,0,0,1,0,4.07A1.94,1.94,0,0,1,136.54,441.79Z" style="fill:#e0ed3a"/><path d="M118.35,350.9a1.93,1.93,0,1,1,3.86,0,2,2,0,0,1-1.89,2.06A2,2,0,0,1,118.35,350.9Z" style="fill:#e0ed3a"/><path d="M45.62,332.72a2,2,0,0,1,1.87-2.06,2,2,0,0,1,2,2,2,2,0,0,1-2,2.07A2,2,0,0,1,45.62,332.72Z" style="fill:#e0ed3a"/><path d="M63.8,332.7a2,2,0,0,1,1.95-2,2,2,0,0,1-.05,4.09A2,2,0,0,1,63.8,332.7Z" style="fill:#e0ed3a"/><path d="M74.82,480.22a1.93,1.93,0,0,1-1.93-2,1.93,1.93,0,1,1,3.86,0A2,2,0,0,1,74.82,480.22Z" style="fill:#e0ed3a"/><path d="M58.56,369.09a1.93,1.93,0,1,1-1.94-2A1.93,1.93,0,0,1,58.56,369.09Z" style="fill:#e0ed3a"/><path d="M40.37,341.81a2,2,0,0,1-1.91,2,2,2,0,0,1-1.95-2.06,2,2,0,0,1,1.93-2A2,2,0,0,1,40.37,341.81Z" style="fill:#e0ed3a"/><path d="M13.09,387.22a1.93,1.93,0,1,1-1.93-2A2,2,0,0,1,13.09,387.22Z" style="fill:#e0ed3a"/><path d="M74.81,367a2,2,0,0,1,0,4.05,2,2,0,0,1,0-4.05Z" style="fill:#e0ed3a"/><path d="M176.75,378.16a2,2,0,0,1-1.95,2.06,2,2,0,0,1,0-4.09A2,2,0,0,1,176.75,378.16Z" style="fill:#e0ed3a"/><path d="M56.61,343.82a2,2,0,0,1-1.91-2,1.94,1.94,0,1,1,3.86,0A1.94,1.94,0,0,1,56.61,343.82Z" style="fill:#e0ed3a"/><path d="M91.08,341.79a2,2,0,0,1,1.95-2,2,2,0,0,1,1.92,2,2,2,0,0,1-2,2A1.93,1.93,0,0,1,91.08,341.79Z" style="fill:#e0ed3a"/><path d="M104,341.77a1.93,1.93,0,1,1-3.86,0,2,2,0,0,1,1.88-2.07A2,2,0,0,1,104,341.77Z" style="fill:#e0ed3a"/><path d="M136.54,378.15a2,2,0,0,1,1.9-2,2,2,0,0,1,0,4.09A2,2,0,0,1,136.54,378.15Z" style="fill:#e0ed3a"/><path d="M104,369.07a1.93,1.93,0,1,1-3.86,0,1.93,1.93,0,1,1,3.86,0Z" style="fill:#e0ed3a"/><path d="M31.29,378.13a2,2,0,0,1-1.93,2.08,2,2,0,1,1,1.93-2.08Z" style="fill:#e0ed3a"/><path d="M174.83,371.1a2,2,0,0,1,0-4.06,2,2,0,0,1,0,4.06Z" style="fill:#e0ed3a"/><path d="M138.45,343.82a2,2,0,0,1,0-4.08,2,2,0,0,1,0,4.08Z" style="fill:#e0ed3a"/><path d="M58.56,350.89a1.93,1.93,0,1,1-3.86,0,1.93,1.93,0,1,1,3.86,0Z" style="fill:#e0ed3a"/><path d="M45.62,350.85a1.92,1.92,0,0,1,2-2,2,2,0,0,1-.07,4.07A2,2,0,0,1,45.62,350.85Z" style="fill:#e0ed3a"/><path d="M149.48,360a1.93,1.93,0,1,1-1.89-2.06A2,2,0,0,1,149.48,360Z" style="fill:#e0ed3a"/><path d="M136.54,360a2,2,0,0,1,1.88-2.05,2.05,2.05,0,0,1,.07,4.09A1.93,1.93,0,0,1,136.54,360Z" style="fill:#e0ed3a"/><path d="M113.11,360.06a1.93,1.93,0,1,1-1.87-2.13A2,2,0,0,1,113.11,360.06Z" style="fill:#e0ed3a"/><path d="M113.11,314.58a1.93,1.93,0,1,1-1.9-2.11A2,2,0,0,1,113.11,314.58Z" style="fill:#e0ed3a"/><path d="M58.55,314.52a1.93,1.93,0,1,1-1.88-2A1.9,1.9,0,0,1,58.55,314.52Z" style="fill:#e0ed3a"/><path d="M11.11,371.1a2,2,0,1,1,2-1.94A1.94,1.94,0,0,1,11.11,371.1Z" style="fill:#e0ed3a"/><path d="M58.56,323.6a1.93,1.93,0,1,1-2-2A1.93,1.93,0,0,1,58.56,323.6Z" style="fill:#e0ed3a"/><path d="M104,360a1.93,1.93,0,1,1-1.92-2A2,2,0,0,1,104,360Z" style="fill:#e0ed3a"/><path d="M104,387.22a2,2,0,0,1-1.87,2.07,2,2,0,0,1-2-2,1.93,1.93,0,1,1,3.86-.06Z" style="fill:#e0ed3a"/><path d="M40.37,360a2,2,0,0,1-2,2,2,2,0,0,1-1.91-2,2,2,0,0,1,1.9-2.05A2,2,0,0,1,40.37,360Z" style="fill:#e0ed3a"/><path d="M20.25,357.93a2,2,0,0,1,0,4.09,1.94,1.94,0,0,1-1.93-2A2,2,0,0,1,20.25,357.93Z" style="fill:#e0ed3a"/><path d="M93,389.29a2,2,0,0,1,0-4.07,2,2,0,0,1,0,4.07Z" style="fill:#e0ed3a"/><path d="M149.48,469.08a2,2,0,0,1-1.88,2.07,2.05,2.05,0,1,1,1.88-2.07Z" style="fill:#e0ed3a"/><path d="M120.25,480.22a2,2,0,0,1,0-4.07,2,2,0,0,1,1.92,2.09A2,2,0,0,1,120.25,480.22Z" style="fill:#e0ed3a"/><path d="M65.72,357.93a2.05,2.05,0,0,1,0,4.09,2.05,2.05,0,0,1,0-4.09Z" style="fill:#e0ed3a"/><path d="M113.11,423.6a1.93,1.93,0,1,1-2-2A2,2,0,0,1,113.11,423.6Z" style="fill:#e0ed3a"/><path d="M83.91,348.85a1.93,1.93,0,0,1,1.92,2,2,2,0,0,1-1.92,2.07,2,2,0,0,1,0-4.07Z" style="fill:#e0ed3a"/><path d="M47.51,480.22a2,2,0,0,1,.06-4.07,2,2,0,0,1-.06,4.07Z" style="fill:#e0ed3a"/><path d="M85.83,478.17a1.93,1.93,0,1,1-3.86.05,2,2,0,0,1,1.95-2.07A2,2,0,0,1,85.83,478.17Z" style="fill:#e0ed3a"/><path d="M31.29,423.66a2,2,0,0,1-1.93,2,2,2,0,1,1,1.93-2Z" style="fill:#e0ed3a"/><path d="M147.55,348.85a1.94,1.94,0,0,1,1.93,2,1.93,1.93,0,1,1-1.93-2Z" style="fill:#e0ed3a"/><path d="M131.29,350.86a2,2,0,0,1-1.93,2.06,2,2,0,0,1,0-4.07A1.93,1.93,0,0,1,131.29,350.86Z" style="fill:#e0ed3a"/><path d="M120.3,485.25a2,2,0,1,1-1.94,2A1.92,1.92,0,0,1,120.3,485.25Z" style="fill:#e0ed3a"/><path d="M91.08,487.31A1.92,1.92,0,0,1,93,485.25a2,2,0,0,1,1.94,2A2,2,0,0,1,93,489.33,2,2,0,0,1,91.08,487.31Z" style="fill:#e0ed3a"/><path d="M104,314.48a1.93,1.93,0,1,1-1.92-2A2,2,0,0,1,104,314.48Z" style="fill:#e0ed3a"/><path d="M113.11,450.93a1.93,1.93,0,1,1-1.94-2.07A2,2,0,0,1,113.11,450.93Z" style="fill:#e0ed3a"/><path d="M74.84,325.63a2,2,0,0,1-.05-4.06,2,2,0,0,1,.05,4.06Z" style="fill:#e0ed3a"/><path d="M63.8,450.91a2,2,0,0,1,1.9-2,2,2,0,0,1,2,2.05,1.93,1.93,0,1,1-3.86,0Z" style="fill:#e0ed3a"/><path d="M104,323.61a1.93,1.93,0,1,1-1.89-2A1.94,1.94,0,0,1,104,323.61Z" style="fill:#e0ed3a"/><path d="M40.37,450.92a2,2,0,0,1-1.9,2,2.05,2.05,0,1,1,1.9-2Z" style="fill:#e0ed3a"/><path d="M120.26,325.63a2,2,0,0,1,0-4.06,2,2,0,0,1,0,4.06Z" style="fill:#e0ed3a"/><path d="M174.85,439.79a2,2,0,0,1-.05,4.07,2,2,0,0,1-1.91-2A2,2,0,0,1,174.85,439.79Z" style="fill:#e0ed3a"/><path d="M163.81,441.83a1.93,1.93,0,0,1,1.94-2,2,2,0,0,1,1.92,2,2,2,0,0,1-2,2.06A2,2,0,0,1,163.81,441.83Z" style="fill:#e0ed3a"/><path d="M129.38,439.79a2,2,0,0,1,0,4.07,2,2,0,0,1-1.92-2.09A2,2,0,0,1,129.38,439.79Z" style="fill:#e0ed3a"/><path d="M120.32,439.79a2,2,0,1,1-2,2A1.92,1.92,0,0,1,120.32,439.79Z" style="fill:#e0ed3a"/><path d="M74.78,439.79a2,2,0,0,1,2,2,2,2,0,0,1-1.9,2,2,2,0,0,1-.07-4.07Z" style="fill:#e0ed3a"/><path d="M113.11,332.68a1.93,1.93,0,1,1-2-2A2,2,0,0,1,113.11,332.68Z" style="fill:#e0ed3a"/><path d="M158.57,332.72a1.93,1.93,0,1,1-1.93-2.07A2,2,0,0,1,158.57,332.72Z" style="fill:#e0ed3a"/><path d="M47.51,343.82a1.92,1.92,0,0,1-1.89-2,1.94,1.94,0,0,1,1.94-2,2,2,0,0,1,1.92,2A2,2,0,0,1,47.51,343.82Z" style="fill:#e0ed3a"/><path d="M72.89,432.64a2,2,0,0,1,2-2,2,2,0,0,1,1.88,2.13,1.93,1.93,0,1,1-3.86-.17Z" style="fill:#e0ed3a"/><path d="M45.62,432.66a1.93,1.93,0,0,1,1.95-2,2,2,0,0,1-.06,4.07A1.92,1.92,0,0,1,45.62,432.66Z" style="fill:#e0ed3a"/><path d="M120.28,343.82a1.93,1.93,0,0,1-1.93-2,2,2,0,0,1,1.91-2.09,2,2,0,0,1,1.95,2.07A2,2,0,0,1,120.28,343.82Z" style="fill:#e0ed3a"/><path d="M131.29,341.76a1.94,1.94,0,0,1-1.93,2.06,2,2,0,0,1-1.93-2,1.93,1.93,0,1,1,3.86-.06Z" style="fill:#e0ed3a"/><path d="M27.43,350.88a1.93,1.93,0,1,1,3.86,0,1.93,1.93,0,1,1-3.86,0Z" style="fill:#e0ed3a"/><path d="M40.37,350.89a2,2,0,0,1-2,2,2,2,0,0,1,.07-4.07A2,2,0,0,1,40.37,350.89Z" style="fill:#e0ed3a"/><path d="M145.62,378.19a1.93,1.93,0,1,1,1.93,2A2,2,0,0,1,145.62,378.19Z" style="fill:#e0ed3a"/><path d="M31.29,405.44a1.93,1.93,0,1,1-1.91-2A2,2,0,0,1,31.29,405.44Z" style="fill:#e0ed3a"/><path d="M40.37,405.49a2,2,0,0,1-1.94,2,2.05,2.05,0,1,1,1.94-2Z" style="fill:#e0ed3a"/><path d="M47.5,389.29a2,2,0,0,1,.08-4.07,2,2,0,0,1-.08,4.07Z" style="fill:#e0ed3a"/><path d="M113.11,378.19a1.93,1.93,0,1,1-1.87-2.06A2,2,0,0,1,113.11,378.19Z" style="fill:#e0ed3a"/><path d="M149.48,396.33a1.93,1.93,0,1,1-3.86,0,1.93,1.93,0,1,1,3.86,0Z" style="fill:#e0ed3a"/><path d="M138.47,394.32a2,2,0,0,1,0,4.07,2,2,0,0,1,0-4.07Z" style="fill:#e0ed3a"/><path d="M113.11,469.11a1.93,1.93,0,1,1-1.88-2.05A2,2,0,0,1,113.11,469.11Z" style="fill:#e0ed3a"/><path d="M113.11,405.42a1.93,1.93,0,1,1-1.93-2A2,2,0,0,1,113.11,405.42Z" style="fill:#e0ed3a"/><path d="M131.29,396.36a2,2,0,0,1-1.9,2,2,2,0,0,1,0-4.07A1.93,1.93,0,0,1,131.29,396.36Z" style="fill:#e0ed3a"/><path d="M165.74,371.1a2,2,0,0,1,0-4.05,2,2,0,0,1,0,4.05Z" style="fill:#e0ed3a"/><path d="M149.48,405.42a1.93,1.93,0,1,1-1.92-2A2,2,0,0,1,149.48,405.42Z" style="fill:#e0ed3a"/><path d="M120.26,371.1a2,2,0,0,1,0-4.06,2,2,0,0,1,0,4.06Z" style="fill:#e0ed3a"/><path d="M118.35,396.38a1.93,1.93,0,0,1,1.92-2.06,2,2,0,0,1,1.94,2,2,2,0,0,1-1.94,2.07A1.94,1.94,0,0,1,118.35,396.38Z" style="fill:#e0ed3a"/><path d="M58.56,387.27a1.93,1.93,0,1,1-3.86,0,2,2,0,0,1,1.92-2A2,2,0,0,1,58.56,387.27Z" style="fill:#e0ed3a"/><path d="M147.58,389.29a1.94,1.94,0,0,1-2-2,1.93,1.93,0,1,1,2,2Z" style="fill:#e0ed3a"/><path d="M31.29,414.54a1.93,1.93,0,1,1-2-2A1.94,1.94,0,0,1,31.29,414.54Z" style="fill:#e0ed3a"/><path d="M58.56,396.34a1.93,1.93,0,1,1-2-2A2,2,0,0,1,58.56,396.34Z" style="fill:#e0ed3a"/><path d="M40.37,469.12a2,2,0,0,1-1.91,2,2,2,0,0,1-2-2.07,1.93,1.93,0,1,1,3.86,0Z" style="fill:#e0ed3a"/><path d="M120.26,389.29a1.93,1.93,0,0,1-1.9-2.08,2,2,0,0,1,1.94-2,2,2,0,0,1,1.92,2.1A2,2,0,0,1,120.26,389.29Z" style="fill:#e0ed3a"/><path d="M.16,396.37a1.92,1.92,0,0,1,1.93-2,2,2,0,0,1,1.93,2,2,2,0,0,1-2,2.06A2,2,0,0,1,.16,396.37Z" style="fill:#e0ed3a"/><path d="M29.32,367a2,2,0,1,1-1.9,2A1.94,1.94,0,0,1,29.32,367Z" style="fill:#e0ed3a"/><path d="M131.28,487.31a2,2,0,0,1-2,2,1.92,1.92,0,0,1-1.9-2.06,2,2,0,0,1,1.92-2A2,2,0,0,1,131.28,487.31Z" style="fill:#e0ed3a"/><path d="M2,389.29a2,2,0,0,1,.06-4.07A2,2,0,0,1,2,389.29Z" style="fill:#e0ed3a"/><path d="M38.46,389.29a2,2,0,0,1-2-2,2,2,0,0,1,1.92-2,2,2,0,0,1,1.94,2.06A1.94,1.94,0,0,1,38.46,389.29Z" style="fill:#e0ed3a"/><path d="M85.83,487.33a2,2,0,0,1-1.93,2A2,2,0,0,1,82,487.25a1.93,1.93,0,1,1,3.86.08Z" style="fill:#e0ed3a"/><path d="M138.45,389.29a1.92,1.92,0,0,1-1.91-2,2,2,0,0,1,1.93-2.07,2,2,0,0,1,0,4.08Z" style="fill:#e0ed3a"/><path d="M38.45,439.79a1.92,1.92,0,0,1,1.92,2,2,2,0,0,1-1.93,2.07,2,2,0,0,1,0-4.07Z" style="fill:#e0ed3a"/><path d="M47.51,439.79a2,2,0,0,1,2,2,2,2,0,0,1-1.91,2,2,2,0,0,1,0-4.07Z" style="fill:#e0ed3a"/><path d="M93,458A2,2,0,0,1,93,462,2,2,0,0,1,93,458Z" style="fill:#e0ed3a"/><path d="M183.89,389.29a2,2,0,0,1,.06-4.08,2,2,0,0,1,1.91,2A2,2,0,0,1,183.89,389.29Z" style="fill:#e0ed3a"/><path d="M40.37,396.35a2,2,0,0,1-1.88,2,2,2,0,0,1,0-4.07A1.93,1.93,0,0,1,40.37,396.35Z" style="fill:#e0ed3a"/><path d="M83.9,439.79a1.94,1.94,0,0,1,1.93,2,2,2,0,0,1-1.92,2.08,2,2,0,0,1-1.94-2A2,2,0,0,1,83.9,439.79Z" style="fill:#e0ed3a"/><path d="M45.62,396.33a1.93,1.93,0,0,1,1.92-2,2,2,0,0,1,0,4.07A1.94,1.94,0,0,1,45.62,396.33Z" style="fill:#e0ed3a"/><path d="M91.08,441.79a1.92,1.92,0,0,1,2-2,2,2,0,0,1-.06,4.07A2,2,0,0,1,91.08,441.79Z" style="fill:#e0ed3a"/><path d="M104,478.16a1.93,1.93,0,1,1-1.93-2A2,2,0,0,1,104,478.16Z" style="fill:#e0ed3a"/><path d="M85.83,387.26a1.94,1.94,0,0,1-2,2,2,2,0,1,1,2-2Z" style="fill:#e0ed3a"/><path d="M83.9,394.32a2,2,0,0,1,0,4.07,2,2,0,0,1,0-4.07Z" style="fill:#e0ed3a"/><path d="M91.08,396.32a1.91,1.91,0,0,1,1.92-2,2,2,0,0,1,0,4.07A1.94,1.94,0,0,1,91.08,396.32Z" style="fill:#e0ed3a"/><path d="M136.54,414.49a1.92,1.92,0,0,1,1.94-2,2,2,0,0,1,0,4.06A1.92,1.92,0,0,1,136.54,414.49Z" style="fill:#e0ed3a"/><path d="M104,414.55a1.93,1.93,0,1,1-2-2A1.94,1.94,0,0,1,104,414.55Z" style="fill:#e0ed3a"/><path d="M104,350.85a1.93,1.93,0,1,1-2-2A1.93,1.93,0,0,1,104,350.85Z" style="fill:#e0ed3a"/><path d="M138.44,371.1a2,2,0,0,1,0-4.05,2,2,0,0,1,0,4.05Z" style="fill:#e0ed3a"/><path d="M40.37,378.19a2,2,0,0,1-1.91,2,2,2,0,0,1,0-4.09A2,2,0,0,1,40.37,378.19Z" style="fill:#e0ed3a"/><path d="M40.37,432.75a1.93,1.93,0,0,1-1.92,2,2,2,0,1,1,1.92-2Z" style="fill:#e0ed3a"/><path d="M63.8,378.07a1.94,1.94,0,0,1,2-1.95,2,2,0,0,1,1.81,2.13,1.93,1.93,0,1,1-3.86-.18Z" style="fill:#e0ed3a"/><path d="M138.43,434.76a2,2,0,0,1,.06-4.07,2,2,0,0,1-.06,4.07Z" style="fill:#e0ed3a"/><path d="M93,434.76a1.92,1.92,0,0,1-1.92-2.06,2,2,0,0,1,1.92-2,2,2,0,0,1,1.95,2.07A2,2,0,0,1,93,434.76Z" style="fill:#e0ed3a"/><path d="M83.92,343.82a2,2,0,0,1-2-2,2,2,0,0,1,1.92-2,2,2,0,0,1,0,4.08Z" style="fill:#e0ed3a"/><path d="M131.29,432.7a1.93,1.93,0,1,1-3.86.05,2,2,0,0,1,1.94-2.07A2,2,0,0,1,131.29,432.7Z" style="fill:#e0ed3a"/><path d="M38.44,462a2,2,0,0,1,0-4.05,2,2,0,0,1,0,4.05Z" style="fill:#e0ed3a"/><path d="M131.29,414.53a1.92,1.92,0,0,1-1.94,2,2,2,0,0,1-1.92-2,2,2,0,0,1,1.9-2A1.92,1.92,0,0,1,131.29,414.53Z" style="fill:#e0ed3a"/><path d="M158.57,387.26a1.93,1.93,0,1,1-3.86,0,1.93,1.93,0,1,1,3.86,0Z" style="fill:#e0ed3a"/><path d="M65.74,343.82a1.94,1.94,0,0,1-1.94-2.05,2,2,0,0,1,1.91-2,2,2,0,0,1,1.95,2.06A2,2,0,0,1,65.74,343.82Z" style="fill:#e0ed3a"/><path d="M63.8,487.3a1.93,1.93,0,1,1,3.86,0,2,2,0,0,1-1.89,2.06A2,2,0,0,1,63.8,487.3Z" style="fill:#e0ed3a"/><path d="M47.54,325.63a2,2,0,0,1,0-4.06,2,2,0,0,1,0,4.06Z" style="fill:#e0ed3a"/><path d="M138.44,480.23a2,2,0,0,1,0-4.07,2,2,0,0,1,0,4.07Z" style="fill:#e0ed3a"/><path d="M93,325.63a1.9,1.9,0,0,1-2-2,1.94,1.94,0,0,1,1.88-2.1,2,2,0,0,1,.07,4.06Z" style="fill:#e0ed3a"/><path d="M63.8,423.61a1.93,1.93,0,1,1,3.85,0,2,2,0,0,1-1.92,2A2,2,0,0,1,63.8,423.61Z" style="fill:#e0ed3a"/><path d="M131.29,323.6a1.92,1.92,0,0,1-1.95,2,2,2,0,0,1,0-4.05A1.92,1.92,0,0,1,131.29,323.6Z" style="fill:#e0ed3a"/><path d="M91.08,350.92a1.92,1.92,0,0,1,1.85-2.06,2,2,0,0,1,2,2A2,2,0,0,1,93,352.93,1.94,1.94,0,0,1,91.08,350.92Z" style="fill:#e0ed3a"/><path d="M156.65,439.79a2,2,0,0,1,1.92,2.07,1.93,1.93,0,1,1-1.92-2.07Z" style="fill:#e0ed3a"/><path d="M85.83,432.75a1.93,1.93,0,0,1-1.92,2A2,2,0,0,1,82,432.7a2,2,0,0,1,1.93-2A2,2,0,0,1,85.83,432.75Z" style="fill:#e0ed3a"/><path d="M20.29,389.29a2,2,0,0,1,0-4.07,2,2,0,0,1,0,4.07Z" style="fill:#e0ed3a"/><path d="M93,480.22a1.92,1.92,0,0,1-1.94-2,2,2,0,0,1,1.9-2,2,2,0,0,1,0,4.07Z" style="fill:#e0ed3a"/><path d="M45.62,460a1.91,1.91,0,0,1,1.91-2,2,2,0,0,1,0,4.06A1.91,1.91,0,0,1,45.62,460Z" style="fill:#e0ed3a"/><path d="M20.29,439.79a2,2,0,0,1-.06,4.07,2,2,0,0,1-1.89-2A1.93,1.93,0,0,1,20.29,439.79Z" style="fill:#e0ed3a"/><path d="M111.2,485.25a2,2,0,0,1,0,4.08,2,2,0,0,1,0-4.08Z" style="fill:#e0ed3a"/><path d="M111.16,343.82a2,2,0,0,1-1.91-2,2,2,0,0,1,2-2.06,2,2,0,0,1,0,4.08Z" style="fill:#e0ed3a"/><path d="M83.92,462a2,2,0,0,1,0-4.06,1.91,1.91,0,0,1,1.94,2A1.94,1.94,0,0,1,83.92,462Z" style="fill:#e0ed3a"/><path d="M93,416.57a1.93,1.93,0,0,1-1.89-2.09,1.91,1.91,0,0,1,1.95-2,2,2,0,0,1-.06,4.05Z" style="fill:#e0ed3a"/><path d="M85.83,414.53a1.93,1.93,0,0,1-1.95,2,2,2,0,0,1,0-4.06A1.92,1.92,0,0,1,85.83,414.53Z" style="fill:#e0ed3a"/><path d="M40.37,369.05a1.93,1.93,0,1,1-3.86,0A2,2,0,0,1,38.39,367,1.93,1.93,0,0,1,40.37,369.05Z" style="fill:#e0ed3a"/><path d="M158.57,341.81a1.94,1.94,0,0,1-2,2,2,2,0,1,1,2-2Z" style="fill:#e0ed3a"/><path d="M45.62,414.49a1.91,1.91,0,0,1,1.93-2,2,2,0,0,1,0,4.05A1.92,1.92,0,0,1,45.62,414.49Z" style="fill:#e0ed3a"/><path d="M113.11,387.32a1.93,1.93,0,1,1-3.86-.13,1.93,1.93,0,1,1,3.86.13Z" style="fill:#e0ed3a"/><path d="M131.29,369.07a1.93,1.93,0,0,1-2,2,2,2,0,0,1,0-4.06A1.92,1.92,0,0,1,131.29,369.07Z" style="fill:#e0ed3a"/><path d="M18.34,396.35a1.93,1.93,0,0,1,2-2,2,2,0,0,1,0,4.07A1.94,1.94,0,0,1,18.34,396.35Z" style="fill:#e0ed3a"/><path d="M85.83,323.61a1.92,1.92,0,0,1-1.89,2,2,2,0,0,1,0-4.05A1.93,1.93,0,0,1,85.83,323.61Z" style="fill:#e0ed3a"/><path d="M138.43,348.85a2,2,0,0,1,2,2,2,2,0,0,1-1.91,2,2,2,0,0,1-.05-4.07Z" style="fill:#e0ed3a"/><path d="M111.19,439.79a2,2,0,0,1,1.92,2,1.93,1.93,0,1,1-3.86,0A2,2,0,0,1,111.19,439.79Z" style="fill:#e0ed3a"/><path d="M40.37,414.51a1.93,1.93,0,0,1-1.93,2.06,2,2,0,0,1,0-4.06A1.93,1.93,0,0,1,40.37,414.51Z" style="fill:#e0ed3a"/><path d="M93,371.1a1.91,1.91,0,0,1-2-2A1.93,1.93,0,0,1,93,367,2,2,0,0,1,93,371.1Z" style="fill:#e0ed3a"/><path d="M47.53,371.1a2,2,0,0,1,0-4.06,2,2,0,0,1,0,4.06Z" style="fill:#e0ed3a"/><path d="M83.92,371.1a2,2,0,1,1,1.9-2A1.93,1.93,0,0,1,83.92,371.1Z" style="fill:#e0ed3a"/><path d="M156.65,434.76a2,2,0,0,1-1.94-2.06,2,2,0,0,1,1.93-2,2,2,0,0,1,1.93,2.07A1.94,1.94,0,0,1,156.65,434.76Z" style="fill:#e0ed3a"/><path d="M63.8,387.24a2,2,0,0,1,1.91-2,2,2,0,0,1,0,4.08A1.94,1.94,0,0,1,63.8,387.24Z" style="fill:#e0ed3a"/><path d="M138.47,325.63a2,2,0,0,1,0-4.06,2,2,0,0,1,0,4.06Z" style="fill:#e0ed3a"/><path d="M138.44,462a2,2,0,0,1,0-4.06,2,2,0,0,1,0,4.06Z" style="fill:#e0ed3a"/><path d="M65.73,394.32a2,2,0,1,1-1.94,2.05A2,2,0,0,1,65.73,394.32Z" style="fill:#e0ed3a"/><path d="M18.34,350.87a1.93,1.93,0,0,1,2-2,2,2,0,0,1,0,4.07A1.94,1.94,0,0,1,18.34,350.87Z" style="fill:#e0ed3a"/><path d="M65.72,439.79a2,2,0,1,1-1.92,2A1.93,1.93,0,0,1,65.72,439.79Z" style="fill:#e0ed3a"/><path d="M65.72,348.85a2,2,0,1,1-1.92,2A2,2,0,0,1,65.72,348.85Z" style="fill:#e0ed3a"/><path d="M111.17,348.85a2,2,0,1,1-1.92,2A2,2,0,0,1,111.17,348.85Z" style="fill:#e0ed3a"/><path d="M113.11,432.74a1.93,1.93,0,1,1-3.86,0,1.93,1.93,0,1,1,3.86,0Z" style="fill:#e0ed3a"/><path d="M20.25,434.76a1.93,1.93,0,0,1-1.91-2.07,2,2,0,0,1,1.93-2,2,2,0,0,1,1.93,2A2,2,0,0,1,20.25,434.76Z" style="fill:#e0ed3a"/><path d="M158.57,396.36a1.93,1.93,0,1,1-2-2A1.94,1.94,0,0,1,158.57,396.36Z" style="fill:#e0ed3a"/><path d="M182,396.37a1.92,1.92,0,0,1,1.93-2,2,2,0,0,1,1.93,2,2,2,0,0,1-2,2.06A2,2,0,0,1,182,396.37Z" style="fill:#e0ed3a"/><path d="M158.57,350.91a1.93,1.93,0,1,1-1.87-2.05A1.94,1.94,0,0,1,158.57,350.91Z" style="fill:#e0ed3a"/><path d="M65.74,434.76a1.93,1.93,0,0,1-1.94-2,2,2,0,0,1,1.91-2,2,2,0,0,1,0,4.07Z" style="fill:#e0ed3a"/><path d="M113.11,396.38a1.93,1.93,0,1,1-1.93-2.06A1.94,1.94,0,0,1,113.11,396.38Z" style="fill:#e0ed3a"/><path d="M65.71,480.22a1.93,1.93,0,0,1-1.91-2,2,2,0,0,1,1.94-2.06,2,2,0,0,1,1.92,2A2,2,0,0,1,65.71,480.22Z" style="fill:#e0ed3a"/><path d="M156.66,412.51a2,2,0,1,1-2,2A1.94,1.94,0,0,1,156.66,412.51Z" style="fill:#e0ed3a"/><path d="M156.64,371.1a2,2,0,1,1,1.93-2A1.92,1.92,0,0,1,156.64,371.1Z" style="fill:#e0ed3a"/><path d="M20.23,371.1A2,2,0,0,1,20.3,367a2,2,0,0,1-.07,4.05Z" style="fill:#e0ed3a"/><path d="M156.62,462a2,2,0,1,1,1.95-2A1.92,1.92,0,0,1,156.62,462Z" style="fill:#e0ed3a"/><path d="M111.21,480.23a2,2,0,0,1-.05-4.07,2,2,0,0,1,.05,4.07Z" style="fill:#e0ed3a"/><path d="M183.89,416.57a2,2,0,0,1,.06-4.06,2,2,0,0,1-.06,4.06Z" style="fill:#e0ed3a"/><path d="M65.7,325.63a2,2,0,0,1,0-4.06,2,2,0,0,1,0,4.06Z" style="fill:#e0ed3a"/><path d="M65.74,462a2,2,0,0,1,0-4.06,2,2,0,0,1,0,4.06Z" style="fill:#e0ed3a"/><path d="M20.26,416.57a2,2,0,0,1,0-4.06,2,2,0,0,1,0,4.06Z" style="fill:#e0ed3a"/><path d="M65.71,371.1a2,2,0,0,1,0-4.06,2,2,0,0,1,0,4.06Z" style="fill:#e0ed3a"/><path d="M65.72,416.57a2,2,0,0,1,0-4.06,2,2,0,0,1,0,4.06Z" style="fill:#e0ed3a"/><path d="M111.27,321.58a2,2,0,0,1,1.84,2.09,1.93,1.93,0,0,1-2,2,2,2,0,0,1-1.84-2.09A1.93,1.93,0,0,1,111.27,321.58Z" style="fill:#e0ed3a"/><path d="M111.22,458a2,2,0,1,1-2,2A2,2,0,0,1,111.22,458Z" style="fill:#e0ed3a"/><path d="M111.22,371.1a2,2,0,1,1,1.89-2A2,2,0,0,1,111.22,371.1Z" style="fill:#e0ed3a"/><path d="M111.19,416.57a2,2,0,1,1,1.92-2A1.93,1.93,0,0,1,111.19,416.57Z" style="fill:#e0ed3a"/><path d="M109.5,495.76a1.33,1.33,0,0,1,1.36-1.33,1.4,1.4,0,0,1-.13,2.79A1.35,1.35,0,0,1,109.5,495.76Z" style="fill:#e0ed3a"/><path d="M4.8,432.39a1.36,1.36,0,0,1-1.4,1.3A1.38,1.38,0,0,1,2,432.38,1.41,1.41,0,0,1,3.44,431,1.39,1.39,0,0,1,4.8,432.39Z" style="fill:#e0ed3a"/><path d="M174,449.25a1.39,1.39,0,0,1,1.4,1.32,1.36,1.36,0,0,1-1.36,1.34,1.39,1.39,0,0,1-1.44-1.34A1.41,1.41,0,0,1,174,449.25Z" style="fill:#e0ed3a"/><path d="M12,451.91a1.33,1.33,0,1,1,1.37-1.33A1.36,1.36,0,0,1,12,451.91Z" style="fill:#e0ed3a"/><path d="M100.66,306.88a1.33,1.33,0,0,1,1.27-1.42,1.41,1.41,0,0,1,1.38,1.41,1.44,1.44,0,0,1-1.34,1.39A1.32,1.32,0,0,1,100.66,306.88Z" style="fill:#e0ed3a"/><path d="M146.13,324a1.35,1.35,0,0,1,1.32-1.38,1.4,1.4,0,0,1,0,2.79A1.35,1.35,0,0,1,146.13,324Z" style="fill:#e0ed3a"/><path d="M100.66,495.8a1.32,1.32,0,0,1,1.31-1.37,1.42,1.42,0,0,1,1.33,1.39,1.43,1.43,0,0,1-1.39,1.4A1.33,1.33,0,0,1,100.66,495.8Z" style="fill:#e0ed3a"/><path d="M119.66,494.43a1.41,1.41,0,0,1,1.34,1.38,1.43,1.43,0,0,1-1.38,1.41,1.4,1.4,0,0,1,0-2.79Z" style="fill:#e0ed3a"/><path d="M74.58,494.36a1.4,1.4,0,0,1,1.35,1.36,1.37,1.37,0,0,1-1.34,1.42,1.32,1.32,0,0,1-1.3-1.38A1.37,1.37,0,0,1,74.58,494.36Z" style="fill:#e0ed3a"/><path d="M38.63,322.64a1.4,1.4,0,1,1-1.31,1.4A1.37,1.37,0,0,1,38.63,322.64Z" style="fill:#e0ed3a"/><path d="M47.32,313.14a1.4,1.4,0,0,1,1.36,1.36,1.37,1.37,0,0,1-1.33,1.43A1.32,1.32,0,0,1,46,314.56,1.37,1.37,0,0,1,47.32,313.14Z" style="fill:#e0ed3a"/><path d="M119.65,305.4a1.38,1.38,0,0,1,1.36,1.37,1.36,1.36,0,0,1-1.29,1.42,1.33,1.33,0,0,1-1.35-1.35A1.38,1.38,0,0,1,119.65,305.4Z" style="fill:#e0ed3a"/><path d="M74.56,308.18a1.33,1.33,0,0,1-1.27-1.41,1.36,1.36,0,0,1,1.32-1.38,1.41,1.41,0,0,1,1.32,1.46A1.35,1.35,0,0,1,74.56,308.18Z" style="fill:#e0ed3a"/><path d="M84.77,495.82a1.35,1.35,0,0,1-1.3,1.41,1.4,1.4,0,0,1,0-2.79A1.34,1.34,0,0,1,84.77,495.82Z" style="fill:#e0ed3a"/><path d="M94.33,495.58A1.35,1.35,0,0,1,93,497a1.43,1.43,0,0,1-1.31-1.43,1.37,1.37,0,0,1,1.36-1.36A1.31,1.31,0,0,1,94.33,495.58Z" style="fill:#e0ed3a"/><path d="M65.53,496.77a1.35,1.35,0,0,1-1.39-1.31,1.4,1.4,0,0,1,2.79,0A1.33,1.33,0,0,1,65.53,496.77Z" style="fill:#e0ed3a"/><path d="M139.45,487.23a1.34,1.34,0,0,1-1.33,1.36,1.37,1.37,0,0,1-1.44-1.32,1.39,1.39,0,0,1,2.78,0Z" style="fill:#e0ed3a"/><path d="M47.27,485.93a1.38,1.38,0,0,1,1.37,1.33,1.34,1.34,0,0,1-1.37,1.32,1.37,1.37,0,0,1-1.41-1.35A1.39,1.39,0,0,1,47.27,485.93Z" style="fill:#e0ed3a"/><path d="M94.33,306.56A1.36,1.36,0,0,1,93.06,308a1.42,1.42,0,0,1-1.36-1.37A1.37,1.37,0,0,1,93,305.2,1.3,1.3,0,0,1,94.33,306.56Z" style="fill:#e0ed3a"/><path d="M67.07,306.8a1.35,1.35,0,0,1-1.33,1.38,1.33,1.33,0,0,1-1.31-1.39,1.32,1.32,0,1,1,2.64,0Z" style="fill:#e0ed3a"/><path d="M112.15,306.8a1.32,1.32,0,1,1-2.64,0,1.39,1.39,0,0,1,1.32-1.4A1.37,1.37,0,0,1,112.15,306.8Z" style="fill:#e0ed3a"/><path d="M84.77,306.88a1.35,1.35,0,0,1-1.33,1.38,1.4,1.4,0,0,1,0-2.79A1.34,1.34,0,0,1,84.77,306.88Z" style="fill:#e0ed3a"/><path d="M139.92,314.53a1.32,1.32,0,1,1-2.64,0,1.4,1.4,0,0,1,1.3-1.42A1.37,1.37,0,0,1,139.92,314.53Z" style="fill:#e0ed3a"/><path d="M147.63,479.32a1.33,1.33,0,0,1-1.31-1.39,1.32,1.32,0,1,1,2.64,0A1.35,1.35,0,0,1,147.63,479.32Z" style="fill:#e0ed3a"/><path d="M38.58,479.32a1.33,1.33,0,0,1-1.27-1.43,1.36,1.36,0,0,1,1.36-1.36A1.38,1.38,0,0,1,39.95,478,1.34,1.34,0,0,1,38.58,479.32Z" style="fill:#e0ed3a"/><path d="M184.1,432.45a1.32,1.32,0,1,1-2.64,0,1.4,1.4,0,0,1,1.3-1.42A1.37,1.37,0,0,1,184.1,432.45Z" style="fill:#e0ed3a"/><path d="M11.8,352.63a1.35,1.35,0,0,1-1.39-1.31,1.4,1.4,0,0,1,2.79,0A1.33,1.33,0,0,1,11.8,352.63Z" style="fill:#e0ed3a"/><path d="M174.06,352.63a1.31,1.31,0,1,1,1.37-1.33A1.32,1.32,0,0,1,174.06,352.63Z" style="fill:#e0ed3a"/><path d="M184.1,369.84a1.32,1.32,0,1,1-2.64,0,1.38,1.38,0,0,1,1.33-1.39A1.37,1.37,0,0,1,184.1,369.84Z" style="fill:#e0ed3a"/><path d="M2.54,371.1a1.33,1.33,0,0,1-1.37-1.33,1.35,1.35,0,0,1,1.41-1.29A1.34,1.34,0,0,1,4,369.82,1.32,1.32,0,0,1,2.54,371.1Z" style="fill:#e0ed3a"/></g></g></svg>