<svg xmlns="http://www.w3.org/2000/svg" xmlns:xlink="http://www.w3.org/1999/xlink" viewBox="0 0 444.55 338.01">
    <defs>
        <linearGradient id="New_Gradient_Swatch_7" x1="312.53" x2="439.59" y1="258.87" y2="331.11" gradientUnits="userSpaceOnUse">
            <stop offset="0" stop-color="#fd746c"/>
            <stop offset="1" stop-color="#ff9068"/>
        </linearGradient>
    </defs>
    <title>
        pattern-35
    </title>
    <g id="Layer_2" data-name="Layer 2">
        <g id="Base">
            <polygon points="404 337.33 397.9 302.31 364.69 314.98 358.6 279.96 325.39 292.63 318.07 250.56 329.7 248.53 334.56 276.5 367.77 263.82 373.87 298.84 407.08 286.17 413.17 321.19 439.69 311.07 443.9 322.1 404 337.33" style="fill:none;stroke-miterlimit:10;stroke:url(#New_Gradient_Swatch_7)"/>
            <circle cx="15.01" cy="15.01" r="15.01" style="fill:#f68d5d"/>
            <path d="M187.5,123a14,14,0,1,1-14,14,14,14,0,0,1,14-14m0-1a15,15,0,1,0,15,15,15,15,0,0,0-15-15Z" style="fill:#f55254"/>
            <circle cx="68.61" cy="194.36" r="8.66" style="fill:#E0ED3A"/>
        </g>
    </g>
</svg>
