<svg xmlns="http://www.w3.org/2000/svg" viewBox="0 0 355.36 396.76"><title>pattern-28</title><g id="Layer_2" data-name="Layer 2"><g id="Base"><path d="M95,176.89a5.89,5.89,0,0,0,4.17-10.06L51.7,119.31a5.89,5.89,0,0,0-8.33,8.33l47.52,47.52A5.87,5.87,0,0,0,95,176.89Z" style="fill:#f83c7a"/><circle cx="95.05" cy="171" r="5.65" style="fill:#1d1d1b"/><path d="M95,165.64A5.36,5.36,0,1,1,89.69,171,5.36,5.36,0,0,1,95,165.64m0-.59A5.95,5.95,0,1,0,101,171,5.95,5.95,0,0,0,95,165.05Z" style="fill:#f83c7a"/><path d="M142.51,360.92a5.89,5.89,0,0,0,4.17-10.06L99.16,303.34a5.89,5.89,0,0,0-8.33,8.33l47.52,47.52A5.87,5.87,0,0,0,142.51,360.92Z" style="fill:#f83c7a"/><circle cx="142.51" cy="355.03" r="5.65" style="fill:#1d1d1b"/><path d="M142.51,349.67a5.36,5.36,0,1,1-5.36,5.36,5.36,5.36,0,0,1,5.36-5.36m0-.59a5.95,5.95,0,1,0,5.95,5.95,5.95,5.95,0,0,0-5.95-5.95Z" style="fill:#f83c7a"/><path d="M92.21,59.31a5.89,5.89,0,0,0,4.17-10.06L48.85,1.73a5.89,5.89,0,0,0-8.33,8.33L88,57.58A5.87,5.87,0,0,0,92.21,59.31Z" style="fill:#f83c7a"/><circle cx="92.21" cy="53.41" r="5.65" style="fill:#1d1d1b"/><path d="M92.21,48.06a5.36,5.36,0,1,1-5.36,5.36,5.36,5.36,0,0,1,5.36-5.36m0-.59a5.95,5.95,0,1,0,5.95,5.95,5.95,5.95,0,0,0-5.95-5.95Z" style="fill:#f83c7a"/><circle cx="162.11" cy="81.44" r="3.66" style="fill:#f83c7a"/><circle cx="253.25" cy="29.65" r="3.66" style="fill:#f83c7a"/><circle cx="136.56" cy="219.86" r="3.66" style="fill:#f83c7a"/><circle cx="245.39" cy="309.85" r="3.66" style="fill:#f83c7a"/><circle cx="351.7" cy="273.07" r="3.66" style="fill:#f83c7a"/><circle cx="68.45" cy="276.73" r="3.66" style="fill:#f83c7a"/><circle cx="3.66" cy="108.94" r="3.66" style="fill:#f83c7a"/><path d="M224.16,252.12a5.89,5.89,0,0,0,4.17-10.06L57.84,71.57a5.89,5.89,0,1,0-8.33,8.33L220,250.4A5.87,5.87,0,0,0,224.16,252.12Z" style="fill:#f83c7a"/><path d="M224.16,251.88a5.65,5.65,0,1,1,5.27-3.59,5.63,5.63,0,0,1-5.27,3.59Z" style="fill:#1d1d1b"/><path d="M224.16,240.87a5.36,5.36,0,1,1-5,3.41,5.33,5.33,0,0,1,5-3.41m0-.59a6,6,0,1,0,2.17.41,5.95,5.95,0,0,0-2.17-.41Z" style="fill:#f83c7a"/><path d="M338.5,188.93a5.89,5.89,0,0,0,4.17-10.06L172.17,8.38a5.89,5.89,0,1,0-8.33,8.33L334.33,187.21A5.87,5.87,0,0,0,338.5,188.93Z" style="fill:#f83c7a"/><path d="M338.49,188.7a5.65,5.65,0,1,1,5.27-3.59,5.63,5.63,0,0,1-5.27,3.59Z" style="fill:#091a25"/><path d="M338.5,177.68a5.36,5.36,0,1,1-5,3.41,5.33,5.33,0,0,1,5-3.41m0-.59a6,6,0,1,0,2.17.41,5.95,5.95,0,0,0-2.17-.41Z" style="fill:#f83c7a"/><path d="M269.8,396.47a2.36,2.36,0,0,0,1.67-4L36.71,157.69A2.36,2.36,0,0,0,33.37,161L268.13,395.77A2.35,2.35,0,0,0,269.8,396.47Z" style="fill:#f83c7a"/><circle cx="270.08" cy="394.39" r="2.37" style="fill:#1d1d1b"/><path d="M290.06,234.76a2.36,2.36,0,0,0,1.67-4L202.39,141.4a2.36,2.36,0,0,0-3.33,3.33l89.34,89.34A2.35,2.35,0,0,0,290.06,234.76Z" style="fill:#f83c7a"/><circle cx="290.08" cy="232.43" r="2.37" style="fill:#1d1d1b"/></g></g></svg>