<svg width="250px" xmlns="http://www.w3.org/2000/svg" xmlns:xlink="http://www.w3.org/1999/xlink" viewBox="0 0 328.92 398.02"><defs><linearGradient id="New_Gradient_Swatch_3" x1="217.51" y1="236.85" x2="319.15" y2="236.85" gradientUnits="userSpaceOnUse"><stop offset="0" stop-color="#dfec3a"/><stop offset="1" stop-color="#4ff0d6"/></linearGradient><linearGradient id="New_Gradient_Swatch_3-2" x1="109.84" y1="229.07" x2="250.26" y2="229.07" xlink:href="#New_Gradient_Swatch_3"/><linearGradient id="New_Gradient_Swatch_3-3" x1="164.09" y1="108.35" x2="236.28" y2="108.35" xlink:href="#New_Gradient_Swatch_3"/><linearGradient id="New_Gradient_Swatch_3-4" x1="25.65" y1="205.41" x2="298.38" y2="205.41" xlink:href="#New_Gradient_Swatch_3"/><linearGradient id="New_Gradient_Swatch_3-5" x1="0.03" y1="126.6" x2="253.44" y2="126.6" xlink:href="#New_Gradient_Swatch_3"/><linearGradient id="New_Gradient_Swatch_3-6" x1="67.51" y1="267.15" x2="328.92" y2="267.15" xlink:href="#New_Gradient_Swatch_3"/><linearGradient id="New_Gradient_Swatch_3-7" x1="26" y1="217.33" x2="142.81" y2="217.33" xlink:href="#New_Gradient_Swatch_3"/></defs><title>pattern-2</title><g id="Layer_2" data-name="Layer 2"><g id="Base"><path d="M220.8,287.67a3.29,3.29,0,0,1-2.32-5.61L313.54,187a3.29,3.29,0,0,1,4.65,4.65L223.12,286.7A3.28,3.28,0,0,1,220.8,287.67Z" style="fill:url(#New_Gradient_Swatch_3)"/><circle cx="220.8" cy="284.38" r="3.15" style="fill:#f83c7a"/><path d="M220.8,281.39a3,3,0,1,1-3,3,3,3,0,0,1,3-3m0-.33a3.32,3.32,0,1,0,3.32,3.32,3.32,3.32,0,0,0-3.32-3.32Z" style="fill:#f83c7a"/><path d="M113.09,299.22a3.28,3.28,0,0,1-2.5-1.15,3.43,3.43,0,0,1,.32-4.6L244.48,159.89c2-2,6.05-.85,5.76,3.54L115.41,298.26A3.28,3.28,0,0,1,113.09,299.22Z" style="fill:url(#New_Gradient_Swatch_3-2)"/><circle cx="113.09" cy="295.93" r="3.15" style="fill:#f83c7a"/><path d="M113.09,292.95a3,3,0,1,1-3,3,3,3,0,0,1,3-3m0-.33a3.32,3.32,0,1,0,3.32,3.32,3.32,3.32,0,0,0-3.32-3.32Z" style="fill:#f83c7a"/><path d="M167.38,144.45a3.29,3.29,0,0,1-2.32-5.61l65.62-65.62a3.29,3.29,0,1,1,4.65,4.65L169.7,143.49A3.28,3.28,0,0,1,167.38,144.45Z" style="fill:url(#New_Gradient_Swatch_3-3)"/><circle cx="167.38" cy="141.16" r="3.15" style="fill:#f83c7a"/><path d="M167.38,138.18a3,3,0,1,1-3,3,3,3,0,0,1,3-3m0-.33a3.32,3.32,0,1,0,3.32,3.32,3.32,3.32,0,0,0-3.32-3.32Z" style="fill:#f83c7a"/><circle cx="132.81" cy="199.31" r="2.04" style="fill:#e0ed3a"/><circle cx="54.95" cy="162.82" r="2.04" style="fill:#e0ed3a"/><circle cx="74.78" cy="259.54" r="2.04" style="fill:#e0ed3a"/><circle cx="71.48" cy="341.77" r="2.04" style="fill:#e0ed3a"/><circle cx="6.08" cy="310.25" r="2.04" style="fill:#e0ed3a"/><circle cx="152.68" cy="50.98" r="2.04" style="fill:#e0ed3a"/><circle cx="170.69" cy="338.49" r="2.04" style="fill:#e0ed3a"/><circle cx="288.01" cy="295.93" r="2.04" style="fill:#e0ed3a"/><circle cx="215.44" cy="220.76" r="2.04" style="fill:#e0ed3a"/><circle cx="288.01" cy="130.32" r="2.04" style="fill:#e0ed3a"/><circle cx="288.01" cy="33.14" r="2.04" style="fill:#e0ed3a"/><path d="M28.94,341.77a3.29,3.29,0,0,1-2.32-5.61L292.77,70a3.29,3.29,0,1,1,4.65,4.65L31.26,340.81A3.28,3.28,0,0,1,28.94,341.77Z" style="fill:url(#New_Gradient_Swatch_3-4)"/><path d="M28.94,341.64a3.15,3.15,0,1,1,1.15-.22A3.13,3.13,0,0,1,28.94,341.64Z" style="fill:#f83c7a"/><path d="M28.94,335.5h0a3,3,0,1,1-1.09.21,3,3,0,0,1,1.09-.21m0-.33A3.32,3.32,0,1,0,32,337.28a3.31,3.31,0,0,0-3.09-2.11Z" style="fill:#f83c7a"/><path d="M3.32,253.2A3.29,3.29,0,0,1,1,247.59L247.82,1a3.29,3.29,0,0,1,4.65,4.65L5.64,252.24A3.28,3.28,0,0,1,3.32,253.2Z" style="fill:url(#New_Gradient_Swatch_3-5)"/><path d="M3.32,253.07a3.15,3.15,0,1,1,1.15-.22A3.13,3.13,0,0,1,3.32,253.07Z" style="fill:#f83c7a"/><path d="M3.32,246.93h0a3,3,0,1,1-1.09.21,3,3,0,0,1,1.09-.21m0-.33a3.32,3.32,0,1,0,3.09,2.11,3.31,3.31,0,0,0-3.09-2.11Z" style="fill:#f83c7a"/><path d="M68.82,397.85a1.31,1.31,0,0,1-.93-2.24L326.68,136.83a1.31,1.31,0,1,1,1.86,1.86L69.75,397.47A1.31,1.31,0,0,1,68.82,397.85Z" style="fill:url(#New_Gradient_Swatch_3-6)"/><circle cx="68.66" cy="396.7" r="1.32" style="fill:#e0ed3a"/><path d="M27.31,275.74a1.31,1.31,0,0,1-.93-2.24L140.56,159.31a1.31,1.31,0,0,1,1.86,1.86L28.24,275.35A1.31,1.31,0,0,1,27.31,275.74Z" style="fill:url(#New_Gradient_Swatch_3-7)"/><circle cx="27.3" cy="274.44" r="1.32" style="fill:#e0ed3a"/></g></g></svg>