<svg width="200px" height="200px" xmlns="http://www.w3.org/2000/svg" viewBox="0 0 343.69 302.3"><defs><style>.cls-1{fill:#fff;}</style></defs><title>aft-logo-white</title><g id="Layer_2" data-name="Layer 2"><g id="Header"><path class="cls-1" d="M105.14,283.76H23.88c-18.35,0-29.82-18.55-20.65-33.39l37.42-60.5A134.53,134.53,0,0,0,105.14,283.76ZM209.31,38.32,192.49,11.13c-9.18-14.84-32.12-14.84-41.3,0L133.75,39.34a135.15,135.15,0,0,1,75.56-1ZM340.46,250.38l-35.19-56.91a134.57,134.57,0,0,1-63.85,90.29h78.39C338.17,283.76,349.64,265.22,340.46,250.38Zm-35.19-56.91a134.56,134.56,0,0,0-96-155.16l17.78,28.75Zm-87,86.81c-1.9-22.4-22-40-46.44-40a49.54,49.54,0,0,0-14.75,2.24c-17.37,5.41-30.19,20.11-31.69,37.78a3.92,3.92,0,0,1-4,3.48H105.14a134.52,134.52,0,0,0,136.28,0H222.29A3.92,3.92,0,0,1,218.29,280.29ZM117,66.39l16.73-27.05A134.55,134.55,0,0,0,40.65,189.88l22-35.55Zm22.62,53.35h3.27c1.64,0,2.45-1.47,2.18-3.58l-5.24-44.46c-.22-2-1-2.73-2.29-2.73h-8.18c-1.26,0-2.07.7-2.29,2.73l-5.24,44.46c-.27,2.1.55,3.58,2.18,3.58h3.27c1,0,2.07-.56,2.24-2.53l.65-7h6.55l.65,7C137.57,119.18,138.6,119.74,139.64,119.74Zm-8-25.38,1.53-18.72h.55l1.53,18.72.71,8h-5.07ZM150.12,69c-1.42,0-2.24,1.05-2.24,2.87v45c0,1.82.82,2.87,2.24,2.87h3.6c1.42,0,2.24-1.05,2.24-2.87V98.28h5.84c1.42,0,2.24-1.05,2.24-2.87V93.3c0-1.82-.82-2.87-2.24-2.87H156V76.82h7.91c1.42,0,2.24-1.05,2.24-2.87v-2.1c0-1.82-.82-2.87-2.24-2.87Zm40,20.2v-9c0-7.64-3.76-11.15-10.8-11.15H170.8c-1.42,0-2.24,1.05-2.24,2.87v45c0,1.82.82,2.87,2.24,2.87h3.6c1.42,0,2.24-1.05,2.24-2.87V100.32h1.64l4.86,17.53a2.2,2.2,0,0,0,2.18,1.89h3.76c2.24,0,2.51-2.66,2.07-4.14l-5-17C188.8,96.88,190.17,93.79,190.17,89.17Zm-13.53,3.29V76.82h2.73c1.8,0,2.73,1.4,2.73,3.3v9c0,1.89-.93,3.29-2.73,3.29Zm28.7-23.84c-7,0-10.8,3.51-10.8,11.15v29.17c0,7.64,3.76,11.15,10.8,11.15s10.8-3.51,10.8-11.15V79.77C216.14,72.13,212.37,68.62,205.34,68.62Zm0,7.85c1.8,0,2.73,1.4,2.73,3.29v29.17c0,1.89-.93,3.3-2.73,3.3s-2.73-1.4-2.73-3.3V79.77C202.61,77.88,203.54,76.47,205.34,76.47Zm-62.8,56.17c1.42,0,2.24-1.05,2.24-2.87v-2.1c0-1.82-.82-2.87-2.24-2.87H124.1c-1.42,0-2.24,1.05-2.24,2.87v2.1c0,1.82.82,2.87,2.24,2.87h5.18v40c0,1.82.82,2.87,2.24,2.87h3.6c1.42,0,2.24-1.05,2.24-2.87v-40Zm6.66-7.85c-1.42,0-2.24,1.05-2.24,2.87v45c0,1.82.82,2.87,2.24,2.87h13.75c1.42,0,2.24-1.05,2.24-2.87v-2.1c0-1.82-.82-2.87-2.24-2.87H155V154.1h5.84c1.42,0,2.24-1.05,2.24-2.87v-2.11c0-1.82-.82-2.87-2.24-2.87H155v-13.6h7.91c1.42,0,2.24-1.05,2.24-2.87v-2.1c0-1.82-.82-2.87-2.24-2.87Zm40.32,10.8c0-7.64-3.76-11.15-10.8-11.15s-10.8,3.51-10.8,11.15v29.17c0,7.64,3.77,11.15,10.8,11.15s10.8-3.51,10.8-11.15v-7.08c0-1.82-.82-2.87-2.24-2.87h-3.6c-1.42,0-2.24,1.05-2.24,2.87v7.08c0,1.89-.93,3.3-2.73,3.3s-2.73-1.4-2.73-3.3V135.59c0-1.89.93-3.29,2.73-3.29s2.73,1.4,2.73,3.29v7.08c0,1.82.82,2.87,2.24,2.87h3.6c1.42,0,2.24-1.05,2.24-2.87ZM202,127.67c0-1.82-.82-2.87-2.24-2.87h-3.6c-1.42,0-2.24,1.05-2.24,2.87v45c0,1.82.82,2.87,2.24,2.87h3.6c1.42,0,2.24-1.05,2.24-2.87V154.1h5.46v18.58c0,1.82.82,2.87,2.24,2.87h3.6c1.42,0,2.24-1.05,2.24-2.87v-45c0-1.82-.82-2.87-2.24-2.87h-3.6c-1.42,0-2.24,1.05-2.24,2.87v18.58H202ZM131.42,230.61a1.9,1.9,0,0,0,1.86-1.86V208.48h10.13a1.65,1.65,0,1,0,0-3.31H133.28V187.8H143.9a1.74,1.74,0,0,0,1.65-1.72,1.68,1.68,0,0,0-1.65-1.65H131.63a1.82,1.82,0,0,0-2,2v42.32A1.84,1.84,0,0,0,131.42,230.61Zm23.71-.21H167.4a1.68,1.68,0,0,0,1.65-1.65A1.74,1.74,0,0,0,167.4,227H156.78V208.48h10.13a1.65,1.65,0,1,0,0-3.31H156.78V187.8H167.4a1.74,1.74,0,0,0,1.65-1.72,1.68,1.68,0,0,0-1.65-1.65H155.13a1.82,1.82,0,0,0-2,2v42A1.82,1.82,0,0,0,155.13,230.4Zm19.5-2.21a11.84,11.84,0,0,0,7.93,3c6.13,0,10.13-5,10.13-11.51,0-7.38-4.14-11.3-7.93-14.89-3.24-3.1-6.2-6-6.2-10.55s2.76-7.24,5.93-7.24a6.86,6.86,0,0,1,4.41,1.52,1.58,1.58,0,0,0,1,.28,1.68,1.68,0,0,0,1.65-1.65,1.61,1.61,0,0,0-.69-1.38,10.27,10.27,0,0,0-6.41-2.14c-5.31,0-9.58,4.27-9.58,10.68,0,6.69,3.79,10.2,7.38,13.58,3.45,3.17,6.75,6.34,6.75,11.92,0,4.89-3,8-6.55,8a8.48,8.48,0,0,1-5.58-2.41,1.42,1.42,0,0,0-1.1-.34,1.71,1.71,0,0,0-1.72,1.72A1.64,1.64,0,0,0,174.63,228.2Zm30.81,2.41a1.9,1.9,0,0,0,1.86-1.86V187.8h5.93a1.8,1.8,0,0,0,1.72-1.72,1.74,1.74,0,0,0-1.72-1.65H197.65a1.68,1.68,0,0,0-1.65,1.65,1.74,1.74,0,0,0,1.65,1.72h5.93v40.94A1.9,1.9,0,0,0,205.44,230.61Z"/></g></g></svg>