<svg xmlns="http://www.w3.org/2000/svg" xmlns:xlink="http://www.w3.org/1999/xlink" viewBox="0 0 20.77 35.8"><defs><style>.cls-1{isolation:isolate;}.cls-2{mix-blend-mode:multiply;fill:url(#New_Gradient_Swatch);}</style><linearGradient id="New_Gradient_Swatch" y1="17.9" x2="20.77" y2="17.9" gradientUnits="userSpaceOnUse"><stop offset="0" stop-color="#ff512f"/><stop offset="1" stop-color="#dd2476"/></linearGradient></defs><title>aft-logo-pink</title><g class="cls-1"><g id="Layer_2" data-name="Layer 2"><g id="Layer_1-2" data-name="Layer 1"><path class="cls-2" d="M3.93,11.26h.72c.36,0,.54-.32.48-.79L4,.68c0-.45-.23-.6-.5-.6H1.67c-.28,0-.46.15-.5.6L0,10.47c-.06.46.12.79.48.79h.72c.23,0,.46-.12.49-.56l.14-1.54H3.29l.14,1.54C3.47,11.13,3.7,11.26,3.93,11.26ZM2.17,5.67l.34-4.12h.12L3,5.67l.16,1.76H2ZM6.23.08c-.31,0-.49.23-.49.63v9.91c0,.4.18.63.49.63H7c.31,0,.49-.23.49-.63V6.53H8.81c.31,0,.49-.23.49-.63V5.43c0-.4-.18-.63-.49-.63H7.52v-3H9.26c.31,0,.49-.23.49-.63V.71c0-.4-.18-.63-.49-.63Zm8.82,4.45v-2A2.13,2.13,0,0,0,12.67.08H10.79c-.31,0-.49.23-.49.63v9.91c0,.4.18.63.49.63h.79c.31,0,.49-.23.49-.63V7h.36l1.07,3.86a.49.49,0,0,0,.48.42h.83c.49,0,.55-.59.46-.91L14.17,6.61A2.31,2.31,0,0,0,15.05,4.52Zm-3,.73V1.81h.6c.4,0,.6.31.6.73v2c0,.42-.2.73-.6.73ZM18.39,0A2.13,2.13,0,0,0,16,2.45V8.88a2.13,2.13,0,0,0,2.38,2.46,2.13,2.13,0,0,0,2.38-2.46V2.45A2.13,2.13,0,0,0,18.39,0Zm0,1.73c.4,0,.6.31.6.73V8.88c0,.42-.2.73-.6.73s-.6-.31-.6-.73V2.45C17.79,2,18,1.73,18.39,1.73ZM4.57,14.1c.31,0,.49-.23.49-.63V13c0-.4-.18-.63-.49-.63H.51c-.31,0-.49.23-.49.63v.46c0,.4.18.63.49.63H1.65v8.82c0,.4.18.63.49.63h.79c.31,0,.49-.23.49-.63V14.1ZM6,12.37c-.31,0-.49.23-.49.63v9.91c0,.4.18.63.49.63h3c.31,0,.49-.23.49-.63v-.46c0-.4-.18-.63-.49-.63H7.32v-3H8.6c.31,0,.49-.23.49-.63v-.46c0-.4-.18-.63-.49-.63H7.32v-3H9.06c.31,0,.49-.23.49-.63V13c0-.4-.18-.63-.49-.63Zm8.88,2.38a2.13,2.13,0,0,0-2.38-2.45,2.13,2.13,0,0,0-2.38,2.45v6.42a2.13,2.13,0,0,0,2.38,2.46,2.13,2.13,0,0,0,2.38-2.46V19.61c0-.4-.18-.63-.49-.63h-.79c-.31,0-.49.23-.49.63v1.56c0,.42-.2.73-.6.73s-.6-.31-.6-.73V14.75c0-.42.2-.73.6-.73s.6.31.6.73v1.56c0,.4.18.63.49.63h.79c.31,0,.49-.23.49-.63ZM17.65,13c0-.4-.18-.63-.49-.63h-.79c-.31,0-.49.23-.49.63v9.91c0,.4.18.63.49.63h.79c.31,0,.49-.23.49-.63V18.82h1.2v4.09c0,.4.18.63.49.63h.79c.31,0,.49-.23.49-.63V13c0-.4-.18-.63-.49-.63h-.79c-.31,0-.49.23-.49.63v4.09h-1.2ZM2.12,35.67a.42.42,0,0,0,.41-.41V30.79H4.76a.36.36,0,1,0,0-.73H2.53V26.24H4.86a.38.38,0,0,0,.36-.38.37.37,0,0,0-.36-.36H2.16a.4.4,0,0,0-.44.44v9.32A.4.4,0,0,0,2.12,35.67Zm5.22,0H10a.37.37,0,0,0,.36-.36.38.38,0,0,0-.36-.38H7.7V30.79H9.93a.36.36,0,1,0,0-.73H7.7V26.24H10a.38.38,0,0,0,.36-.38A.37.37,0,0,0,10,25.5H7.34a.4.4,0,0,0-.44.44v9.24A.4.4,0,0,0,7.34,35.62Zm4.29-.49a2.61,2.61,0,0,0,1.75.67,2.3,2.3,0,0,0,2.23-2.53A4.27,4.27,0,0,0,13.86,30a3.26,3.26,0,0,1-1.37-2.32,1.42,1.42,0,0,1,1.31-1.59,1.51,1.51,0,0,1,1,.33.35.35,0,0,0,.21.06.37.37,0,0,0,.36-.36.35.35,0,0,0-.15-.3,2.26,2.26,0,0,0-1.41-.47,2.17,2.17,0,0,0-2.11,2.35,3.89,3.89,0,0,0,1.62,3,3.46,3.46,0,0,1,1.49,2.63,1.57,1.57,0,0,1-1.44,1.76,1.87,1.87,0,0,1-1.23-.53.31.31,0,0,0-.24-.08.38.38,0,0,0-.38.38A.36.36,0,0,0,11.63,35.14Zm6.78.53a.42.42,0,0,0,.41-.41v-9h1.31a.4.4,0,0,0,.38-.38.38.38,0,0,0-.38-.36H16.7a.37.37,0,0,0-.36.36.38.38,0,0,0,.36.38H18v9A.42.42,0,0,0,18.42,35.67Z"/></g></g></g></svg>