<svg xmlns="http://www.w3.org/2000/svg" viewBox="0 0 343.69 302.3"><title>aft-plain</title><g id="Layer_2" data-name="Layer 2"><g id="Header"><path d="M105.14,283.76H23.88c-18.35,0-29.82-18.55-20.65-33.39l37.42-60.5A134.53,134.53,0,0,0,105.14,283.76Z" style="fill:#fff"/><path d="M209.31,38.32,192.49,11.13c-9.18-14.84-32.12-14.84-41.3,0L133.75,39.34a135.15,135.15,0,0,1,75.56-1Z" style="fill:#fff"/><path d="M340.46,250.38l-35.19-56.91a134.57,134.57,0,0,1-63.85,90.29h78.39C338.17,283.76,349.64,265.22,340.46,250.38Z" style="fill:#fff"/><path d="M305.27,193.47a134.56,134.56,0,0,0-96-155.16l17.78,28.75Z" style="fill:#fff"/><path d="M218.29,280.29c-1.9-22.4-22-40-46.44-40a49.54,49.54,0,0,0-14.75,2.24c-17.37,5.41-30.19,20.11-31.69,37.78a3.92,3.92,0,0,1-4,3.48H105.14a134.52,134.52,0,0,0,136.28,0H222.29A3.92,3.92,0,0,1,218.29,280.29Z" style="fill:#fff"/><path d="M117,66.39l16.73-27.05A134.55,134.55,0,0,0,40.65,189.88l22-35.55Z" style="fill:#fff"/></g></g></svg>