<svg xmlns="http://www.w3.org/2000/svg" xmlns:xlink="http://www.w3.org/1999/xlink" viewBox="0 0 239.36 210.53"><defs><linearGradient id="New_Gradient_Swatch" y1="105.26" x2="239.36" y2="105.26" gradientUnits="userSpaceOnUse"><stop offset="0" stop-color="#ff512f"/><stop offset="1" stop-color="#dd2476"/></linearGradient></defs><title>atf-pink-gradient</title><g style="isolation:isolate"><g id="Layer_2" data-name="Layer 2"><g id="Layer_1-2" data-name="Layer 1"><path d="M73.22,197.62H16.63c-12.78,0-20.77-12.92-14.38-23.25l26.06-42.13A93.69,93.69,0,0,0,73.22,197.62ZM145.77,26.68,134.06,7.75c-6.39-10.33-22.37-10.33-28.76,0L93.15,27.39a94.12,94.12,0,0,1,52.62-.71Zm91.34,147.69L212.6,134.74a93.72,93.72,0,0,1-44.47,62.88h54.6C235.51,197.62,243.5,184.7,237.11,174.37ZM212.6,134.74A93.71,93.71,0,0,0,145.77,26.68l12.38,20ZM152,195.2c-1.32-15.6-15.3-27.87-32.35-27.87a34.5,34.5,0,0,0-10.27,1.56c-12.1,3.77-21,14-22.07,26.31a2.73,2.73,0,0,1-2.79,2.42H73.22a93.68,93.68,0,0,0,94.91,0H154.81A2.73,2.73,0,0,1,152,195.2ZM81.5,46.24,93.15,27.39A93.71,93.71,0,0,0,28.31,132.24l15.31-24.76ZM97.25,83.39h2.28c1.14,0,1.71-1,1.52-2.49l-3.65-31c-.15-1.42-.72-1.9-1.6-1.9h-5.7c-.87,0-1.44.49-1.6,1.9l-3.65,31c-.19,1.46.38,2.49,1.52,2.49h2.28c.72,0,1.44-.39,1.56-1.76l.46-4.88h4.56l.46,4.88C95.81,83,96.53,83.39,97.25,83.39ZM91.7,65.71l1.06-13h.38l1.06,13,.49,5.57H91.17ZM104.55,48c-1,0-1.56.73-1.56,2V81.39c0,1.27.57,2,1.56,2h2.51c1,0,1.56-.73,1.56-2V68.45h4.07c1,0,1.56-.73,1.56-2V65c0-1.27-.57-2-1.56-2h-4.07V53.5h5.51c1,0,1.56-.73,1.56-2V50c0-1.27-.57-2-1.56-2ZM132.44,62.1V55.8c0-5.32-2.62-7.76-7.52-7.76h-6c-1,0-1.56.73-1.56,2V81.39c0,1.27.57,2,1.56,2h2.51c1,0,1.56-.73,1.56-2V69.86h1.14l3.38,12.21a1.53,1.53,0,0,0,1.52,1.32h2.62c1.56,0,1.75-1.86,1.44-2.88l-3.46-11.82C131.49,67.47,132.44,65.32,132.44,62.1ZM123,64.39V53.5h1.9c1.25,0,1.9,1,1.9,2.3v6.3c0,1.32-.65,2.29-1.9,2.29Zm20-16.6c-4.9,0-7.52,2.44-7.52,7.76V75.87c0,5.32,2.62,7.77,7.52,7.77s7.52-2.44,7.52-7.77V55.55C150.52,50.23,147.9,47.79,143,47.79Zm0,5.47c1.25,0,1.9,1,1.9,2.29V75.87c0,1.32-.65,2.3-1.9,2.3s-1.9-1-1.9-2.3V55.55C141.1,54.24,141.75,53.26,143,53.26ZM99.27,92.38c1,0,1.56-.73,1.56-2V88.91c0-1.27-.57-2-1.56-2H86.43c-1,0-1.56.73-1.56,2v1.46c0,1.27.57,2,1.56,2H90v27.89c0,1.27.57,2,1.56,2H94.1c1,0,1.56-.73,1.56-2V92.38Zm4.64-5.47c-1,0-1.56.73-1.56,2v31.35c0,1.27.57,2,1.56,2h9.57c1,0,1.56-.73,1.56-2V118.8c0-1.27-.57-2-1.56-2H108v-9.47H112c1,0,1.56-.73,1.56-2v-1.47c0-1.27-.57-2-1.56-2H108V92.38h5.51c1,0,1.56-.73,1.56-2V88.91c0-1.27-.57-2-1.56-2ZM132,94.43c0-5.32-2.62-7.76-7.52-7.76s-7.52,2.44-7.52,7.76v20.32c0,5.32,2.62,7.77,7.52,7.77s7.52-2.44,7.52-7.77v-4.93c0-1.27-.57-2-1.56-2h-2.51c-1,0-1.56.73-1.56,2v4.93c0,1.32-.65,2.3-1.9,2.3s-1.9-1-1.9-2.3V94.43c0-1.32.65-2.29,1.9-2.29s1.9,1,1.9,2.29v4.93c0,1.27.57,2,1.56,2h2.51c1,0,1.56-.73,1.56-2Zm8.67-5.52c0-1.27-.57-2-1.56-2h-2.51c-1,0-1.56.73-1.56,2v31.35c0,1.27.57,2,1.56,2h2.51c1,0,1.56-.73,1.56-2V107.32h3.8v12.94c0,1.27.57,2,1.56,2h2.51c1,0,1.56-.73,1.56-2V88.91c0-1.27-.57-2-1.56-2H146c-1,0-1.56.73-1.56,2v12.94h-3.8ZM91.52,160.6a1.32,1.32,0,0,0,1.3-1.3V145.19h7.06a1.15,1.15,0,1,0,0-2.3H92.82v-12.1h7.39a1.21,1.21,0,0,0,1.15-1.2,1.17,1.17,0,0,0-1.15-1.15H91.67a1.26,1.26,0,0,0-1.39,1.39v29.47A1.28,1.28,0,0,0,91.52,160.6Zm16.51-.14h8.54a1.17,1.17,0,0,0,1.15-1.15,1.21,1.21,0,0,0-1.15-1.2h-7.39V145.19h7.06a1.15,1.15,0,1,0,0-2.3h-7.06v-12.1h7.39a1.21,1.21,0,0,0,1.15-1.2,1.17,1.17,0,0,0-1.15-1.15H108a1.26,1.26,0,0,0-1.39,1.39v29.23A1.26,1.26,0,0,0,108,160.46Zm13.58-1.54a8.25,8.25,0,0,0,5.52,2.11c4.27,0,7.06-3.46,7.06-8,0-5.14-2.88-7.87-5.52-10.37-2.26-2.16-4.32-4.18-4.32-7.34s1.92-5,4.13-5a4.78,4.78,0,0,1,3.07,1.06,1.1,1.1,0,0,0,.67.19,1.17,1.17,0,0,0,1.15-1.15,1.12,1.12,0,0,0-.48-1,7.15,7.15,0,0,0-4.46-1.49c-3.7,0-6.67,3-6.67,7.44,0,4.66,2.64,7.1,5.14,9.46s4.7,4.42,4.7,8.3c0,3.41-2.06,5.57-4.56,5.57a5.91,5.91,0,0,1-3.89-1.68,1,1,0,0,0-.77-.24,1.19,1.19,0,0,0-1.2,1.2A1.14,1.14,0,0,0,121.62,158.92Zm21.46,1.68a1.32,1.32,0,0,0,1.3-1.3V130.79h4.13a1.25,1.25,0,0,0,1.2-1.2,1.21,1.21,0,0,0-1.2-1.15H137.65a1.17,1.17,0,0,0-1.15,1.15,1.21,1.21,0,0,0,1.15,1.2h4.13v28.51A1.32,1.32,0,0,0,143.07,160.6Z" style="mix-blend-mode:multiply;fill:url(#New_Gradient_Swatch)"/></g></g></g></svg>