<svg xmlns="http://www.w3.org/2000/svg" xmlns:xlink="http://www.w3.org/1999/xlink" viewBox="0 0 208.48 35.97"><defs><linearGradient id="New_Gradient_Swatch" y1="17.98" x2="208.48" y2="17.98" gradientUnits="userSpaceOnUse"><stop offset="0" stop-color="#ff512f"/><stop offset="1" stop-color="#dd2476"/></linearGradient></defs><title>atf-text</title><g style="isolation:isolate"><g id="Layer_2" data-name="Layer 2"><g id="Layer_1-2" data-name="Layer 1"><path d="M12.42,35.73H14.7c1.14,0,1.71-1,1.52-2.49l-3.65-31C12.42.86,11.85.37,11,.37H5.28c-.87,0-1.44.49-1.6,1.9L0,33.23c-.19,1.46.38,2.49,1.52,2.49H3.84c.72,0,1.44-.39,1.56-1.76l.46-4.88h4.56L10.86,34C11,35.33,11.7,35.73,12.42,35.73ZM6.87,18,7.94,5h.38L9.38,18l.49,5.57H6.34ZM19.72.37c-1,0-1.56.73-1.56,2V33.72c0,1.27.57,2,1.56,2h2.51c1,0,1.56-.73,1.56-2V20.78h4.07c1,0,1.56-.73,1.56-2V17.31c0-1.27-.57-2-1.56-2H23.79V5.84h5.51c1,0,1.56-.73,1.56-2V2.37c0-1.27-.57-2-1.56-2ZM47.61,14.43V8.13C47.61,2.81,45,.37,40.09.37h-6c-1,0-1.56.73-1.56,2V33.72c0,1.27.57,2,1.56,2h2.51c1,0,1.56-.73,1.56-2V22.2h1.14l3.38,12.21a1.53,1.53,0,0,0,1.52,1.32h2.62c1.56,0,1.75-1.86,1.44-2.88L44.84,21C46.66,19.81,47.61,17.66,47.61,14.43Zm-9.42,2.29V5.84h1.9c1.25,0,1.9,1,1.9,2.3v6.3c0,1.32-.65,2.29-1.9,2.29Zm20-16.6c-4.9,0-7.52,2.44-7.52,7.76V28.2c0,5.32,2.62,7.77,7.52,7.77s7.52-2.44,7.52-7.77V7.89C65.7,2.57,63.08.12,58.17.12Zm0,5.47c1.25,0,1.9,1,1.9,2.29V28.2c0,1.32-.65,2.3-1.9,2.3s-1.9-1-1.9-2.3V7.89C56.27,6.57,56.92,5.59,58.17,5.59Zm23.27.12c1,0,1.56-.73,1.56-2V2.25c0-1.27-.57-2-1.56-2H68.6c-1,0-1.56.73-1.56,2V3.71c0,1.27.57,2,1.56,2h3.61V33.6c0,1.27.57,2,1.56,2h2.51c1,0,1.56-.73,1.56-2V5.71ZM86.08.24c-1,0-1.56.73-1.56,2V33.6c0,1.27.57,2,1.56,2h9.57c1,0,1.56-.73,1.56-2V32.13c0-1.27-.57-2-1.56-2H90.14V20.66h4.07c1,0,1.56-.73,1.56-2V17.19c0-1.27-.57-2-1.56-2H90.14V5.71h5.51c1,0,1.56-.73,1.56-2V2.25c0-1.27-.57-2-1.56-2Zm28.08,7.52c0-5.32-2.62-7.76-7.52-7.76s-7.52,2.44-7.52,7.76V28.08c0,5.32,2.62,7.77,7.52,7.77s7.52-2.44,7.52-7.77V23.15c0-1.27-.57-2-1.56-2h-2.51c-1,0-1.56.73-1.56,2v4.93c0,1.32-.65,2.3-1.9,2.3s-1.9-1-1.9-2.3V7.76c0-1.32.65-2.29,1.9-2.29s1.9,1,1.9,2.29V12.7c0,1.27.57,2,1.56,2h2.51c1,0,1.56-.73,1.56-2Zm8.67-5.52c0-1.27-.57-2-1.56-2h-2.51c-1,0-1.56.73-1.56,2V33.6c0,1.27.57,2,1.56,2h2.51c1,0,1.56-.73,1.56-2V20.66h3.8V33.6c0,1.27.57,2,1.56,2h2.51c1,0,1.56-.73,1.56-2V2.25c0-1.27-.57-2-1.56-2h-2.51c-1,0-1.56.73-1.56,2V15.19h-3.8Zm27.87,33.24a1.37,1.37,0,0,0,1.29-1.4V18.88h7a1.25,1.25,0,0,0,0-2.48h-7v-13h7.34a1.26,1.26,0,0,0,1.14-1.29A1.21,1.21,0,0,0,159.32.82h-8.49a1.31,1.31,0,0,0-1.38,1.5V34.09A1.33,1.33,0,0,0,150.69,35.49Zm16.4-.15h8.49a1.21,1.21,0,0,0,1.14-1.24,1.26,1.26,0,0,0-1.14-1.29h-7.34V18.88h7a1.25,1.25,0,0,0,0-2.48h-7v-13h7.34a1.26,1.26,0,0,0,1.14-1.29A1.21,1.21,0,0,0,175.58.82h-8.49a1.31,1.31,0,0,0-1.38,1.5V33.83A1.31,1.31,0,0,0,167.09,35.34Zm13.49-1.66A7.84,7.84,0,0,0,186.07,36c4.24,0,7-3.73,7-8.64,0-5.54-2.86-8.49-5.48-11.18-2.24-2.33-4.29-4.5-4.29-7.92s1.91-5.43,4.1-5.43a4.52,4.52,0,0,1,3.05,1.14,1,1,0,0,0,.67.21,1.21,1.21,0,0,0,1.14-1.24,1.24,1.24,0,0,0-.48-1,6.74,6.74,0,0,0-4.43-1.6c-3.67,0-6.63,3.21-6.63,8,0,5,2.62,7.66,5.1,10.2,2.38,2.38,4.67,4.76,4.67,9,0,3.67-2.05,6-4.53,6a5.65,5.65,0,0,1-3.86-1.81.93.93,0,0,0-.76-.26,1.23,1.23,0,0,0-1.19,1.29A1.28,1.28,0,0,0,180.58,33.68Zm21.31,1.81a1.37,1.37,0,0,0,1.29-1.4V3.35h4.1a1.3,1.3,0,0,0,1.19-1.29A1.25,1.25,0,0,0,207.28.82H196.51a1.21,1.21,0,0,0-1.14,1.24,1.26,1.26,0,0,0,1.14,1.29h4.1V34.09A1.37,1.37,0,0,0,201.9,35.49Z" style="mix-blend-mode:multiply;fill:url(#New_Gradient_Swatch)"/></g></g></g></svg>