<svg xmlns="http://www.w3.org/2000/svg" viewBox="0 0 404.19 330.4"><title>pattern-3</title><g id="Layer_2" data-name="Layer 2"><g id="Footer"><path d="M247.86,24.33a43.1,43.1,0,0,1,60.28,0c5.57,5.45,14.15-3.11,8.57-8.57a55.42,55.42,0,0,0-77.42,0c-5.58,5.45,3,14,8.57,8.57Z" style="fill:#f55254"/><circle cx="389.18" cy="249.54" r="15.01" style="fill:#061a25"/><path d="M314.48,229.78a2.76,2.76,0,0,0,2.69-2.93,2.89,2.89,0,0,0-3.09-2.87,2.73,2.73,0,0,0-2.67,2.93A2.83,2.83,0,0,0,314.48,229.78Zm-3.07-66.88a2.74,2.74,0,0,0,2.67,2.85,3,3,0,0,0,3.09-3,2.74,2.74,0,0,0-2.78-2.84A2.92,2.92,0,0,0,311.42,162.9ZM55.56,214a3,3,0,0,0,2.9,3.07,2.76,2.76,0,0,0,2.73-2.8,3,3,0,0,0-2.93-3A2.67,2.67,0,0,0,55.56,214ZM285.83,111.71a2.7,2.7,0,0,0,2.67,2.84,2.91,2.91,0,0,0,3-2.92,2.75,2.75,0,0,0-2.73-2.89A2.88,2.88,0,0,0,285.83,111.71ZM58.05,229.78A2.9,2.9,0,0,0,61,226.83,2.81,2.81,0,0,0,58.28,224a2.86,2.86,0,0,0-2.95,2.91A2.71,2.71,0,0,0,58.05,229.78ZM285.83,278a2.84,2.84,0,0,0,2.92,2.92,2.89,2.89,0,0,0-.18-5.77A2.68,2.68,0,0,0,285.83,278ZM93.94,290.83a2.87,2.87,0,0,0,2.84,2.92,2.76,2.76,0,0,0,2.66-2.87A2.86,2.86,0,0,0,96.6,288,2.74,2.74,0,0,0,93.94,290.83Zm-33-128A2.87,2.87,0,0,0,58.81,160a2.73,2.73,0,0,0-3.28,3.15,2.77,2.77,0,0,0,2.84,2.62A2.8,2.8,0,0,0,61,162.87ZM86.57,111.6a2.73,2.73,0,1,0-2.69,2.94A2.79,2.79,0,0,0,86.57,111.6ZM275.72,293.75a2.79,2.79,0,0,0,2.77-2.88,2.83,2.83,0,0,0-2.75-2.91,2.9,2.9,0,0,0,0,5.79ZM240.06,137.26a2.76,2.76,0,0,0-2.68-2.86,2.83,2.83,0,0,0-2.75,2.91,2.79,2.79,0,0,0,2.7,2.85A2.76,2.76,0,0,0,240.06,137.26ZM224.58,96a2.73,2.73,0,0,0-2.72,2.81,2.76,2.76,0,0,0,2.69,2.94,2.88,2.88,0,0,0,0-5.75ZM119.52,162.9a2.74,2.74,0,0,0,2.68,2.85,2.88,2.88,0,0,0,0-5.75A2.74,2.74,0,0,0,119.52,162.9Zm18.2,0a2.72,2.72,0,1,0-5.43,0,2.8,2.8,0,0,0,2.65,2.9A2.76,2.76,0,0,0,137.72,162.9Zm84.14,38.38a2.73,2.73,0,0,0,2.77,2.86,2.89,2.89,0,0,0,0-5.76A2.76,2.76,0,0,0,221.86,201.28Zm66.66-2.9a2.89,2.89,0,0,0,0,5.76,2.88,2.88,0,0,0,0-5.76Zm-66.66-35.5a2.76,2.76,0,0,0,2.66,2.88,2.88,2.88,0,0,0,.09-5.75A2.73,2.73,0,0,0,221.86,162.88Zm-84.14,128A2.75,2.75,0,0,0,135,288a2.88,2.88,0,1,0,2.74,2.89Zm-18.2,0a2.75,2.75,0,0,0,2.73,2.9,2.88,2.88,0,0,0-.05-5.75A2.73,2.73,0,0,0,119.52,290.81Zm0-25.6a2.73,2.73,0,0,0,2.72,2.9,2.88,2.88,0,0,0,0-5.76A2.75,2.75,0,0,0,119.52,265.21Zm18.2,0a2.72,2.72,0,1,0-2.66,2.88A2.78,2.78,0,0,0,137.72,265.23ZM176.1,137.31a2.77,2.77,0,0,0-2.73-2.91,2.81,2.81,0,0,0-2.7,2.86,2.72,2.72,0,1,0,5.43,0Zm45.76-64a2.73,2.73,0,0,0,2.69,2.85,2.88,2.88,0,0,0,0-5.76A2.77,2.77,0,0,0,221.86,73.34Zm0,64a2.75,2.75,0,0,0,2.69,2.85,2.88,2.88,0,1,0-2.69-2.85ZM119.52,226.84a2.74,2.74,0,0,0,2.64,2.89,2.88,2.88,0,0,0,0-5.75A2.72,2.72,0,0,0,119.52,226.84Zm102.34,38.44a2.73,2.73,0,0,0,2.71,2.82,2.88,2.88,0,1,0-2.71-2.82Zm-84.14-38.48A2.75,2.75,0,0,0,135,224a2.88,2.88,0,1,0,2.71,2.83Zm20.17,0a2.76,2.76,0,0,0,2.71,2.92,2.88,2.88,0,0,0,0-5.75A2.76,2.76,0,0,0,157.89,226.81ZM122.22,134.4a2.89,2.89,0,0,0,0,5.76,2.88,2.88,0,0,0,0-5.76Zm-22.87,2.91a2.8,2.8,0,0,0-2.75-2.91,2.89,2.89,0,0,0,0,5.76A2.8,2.8,0,0,0,99.35,137.31Zm-25.6,25.52A2.72,2.72,0,1,0,71,165.76,2.79,2.79,0,0,0,73.75,162.83Zm0,64a2.72,2.72,0,1,0-5.43,0A2.8,2.8,0,0,0,71,229.73,2.76,2.76,0,0,0,73.76,226.84Zm0-89.58A2.72,2.72,0,1,0,71,140.16,2.75,2.75,0,0,0,73.75,137.27ZM288.52,242.5a2.76,2.76,0,0,0,2.74-2.8,2.8,2.8,0,0,0-2.71-2.93,2.75,2.75,0,0,0-2.72,2.81A2.71,2.71,0,0,0,288.52,242.5Zm-105-105.18a2.72,2.72,0,0,0,2.69,2.84,2.88,2.88,0,0,0,0-5.76A2.75,2.75,0,0,0,183.49,137.32Zm38.37,153.55a2.75,2.75,0,0,0,2.7,2.84,2.83,2.83,0,0,0,2.73-2.93,2.79,2.79,0,0,0-2.73-2.83A2.74,2.74,0,0,0,221.86,290.87ZM263,147.23a2.86,2.86,0,1,0,2.7,2.92A2.71,2.71,0,0,0,263,147.23Zm-41.1,79.58a2.72,2.72,0,1,0,5.43.1,2.81,2.81,0,0,0-2.73-2.92A2.74,2.74,0,0,0,221.86,226.8Zm41.06-112.25a2.73,2.73,0,0,0,2.74-2.79,2.72,2.72,0,1,0-5.43-.14A2.74,2.74,0,0,0,262.92,114.55Zm22.91,9.94a2.74,2.74,0,0,0,2.67,2.86,2.79,2.79,0,0,0,2.76-2.88,2.75,2.75,0,0,0-2.69-2.85A2.71,2.71,0,0,0,285.83,124.5ZM81.14,278a2.75,2.75,0,0,0,2.7,2.92A2.84,2.84,0,0,0,86.57,278a2.78,2.78,0,0,0-2.69-2.85A2.71,2.71,0,0,0,81.14,278ZM285.83,137.32a2.73,2.73,0,0,0,2.69,2.84,2.88,2.88,0,0,0,0-5.76A2.77,2.77,0,0,0,285.83,137.32Zm0,25.5a2.75,2.75,0,0,0,2.7,2.93,2.88,2.88,0,0,0,0-5.75A2.73,2.73,0,0,0,285.83,162.83ZM119.52,201.23a2.74,2.74,0,0,0,2.72,2.9,2.81,2.81,0,0,0,2.71-2.85,2.84,2.84,0,0,0-2.75-2.91A2.74,2.74,0,0,0,119.52,201.23Zm56.58,64a2.76,2.76,0,0,0-2.69-2.85,2.82,2.82,0,0,0-2.74,2.91,2.72,2.72,0,1,0,5.43-.06Zm89.56-12.76a2.72,2.72,0,1,0-2.76,2.87A2.75,2.75,0,0,0,265.66,252.45Zm-64,12.79a2.72,2.72,0,1,0-5.43,0,2.72,2.72,0,1,0,5.43,0Zm-69.41,51.09a2.75,2.75,0,0,0,2.65,2.87,2.64,2.64,0,0,0,2.79-2.77,2.73,2.73,0,1,0-5.44-.11Zm153.55-51.05a2.74,2.74,0,0,0,2.7,2.84,2.79,2.79,0,0,0,2.74-2.91,2.82,2.82,0,0,0-2.72-2.85A2.76,2.76,0,0,0,285.83,265.27Zm-148.11-64a2.72,2.72,0,1,0-5.43,0,2.72,2.72,0,1,0,5.43,0ZM99.35,98.88A2.79,2.79,0,0,0,96.66,96a2.75,2.75,0,0,0-2.74,2.88,2.72,2.72,0,1,0,5.43,0ZM288.5,185.61a2.7,2.7,0,0,0-2.67,2.84,2.74,2.74,0,0,0,2.73,2.89,2.82,2.82,0,0,0,2.7-2.86A2.76,2.76,0,0,0,288.5,185.61ZM163.32,290.86a2.79,2.79,0,0,0-2.64-2.91,2.74,2.74,0,0,0-2.79,2.84,2.72,2.72,0,1,0,5.43.06ZM186.15,70.42a2.76,2.76,0,0,0-2.67,3,2.72,2.72,0,0,0,2.73,2.8,2.88,2.88,0,0,0-.06-5.76ZM163.32,201.34a2.81,2.81,0,0,0-2.68-3,2.89,2.89,0,0,0-.08,5.76A2.8,2.8,0,0,0,163.32,201.34ZM160.6,313.56a2.71,2.71,0,0,0-2.71,2.81,2.72,2.72,0,1,0,2.71-2.81ZM186.23,96a2.72,2.72,0,0,0-2.74,2.78,2.77,2.77,0,0,0,2.66,3,2.88,2.88,0,0,0,.08-5.75Zm-28.33,66.81a2.76,2.76,0,0,0,2.71,2.92,2.88,2.88,0,0,0,0-5.75A2.75,2.75,0,0,0,157.89,162.83Zm0-64a2.72,2.72,0,1,0,2.7-2.83A2.74,2.74,0,0,0,157.89,98.86ZM145.1,73.34a2.75,2.75,0,0,0,2.7,2.85,2.89,2.89,0,1,0-2.7-2.85Zm18.23-.06a2.81,2.81,0,0,0-2.71-2.86,2.88,2.88,0,1,0,2.71,2.86Zm-25.6,25.66A2.75,2.75,0,0,0,135,96a2.88,2.88,0,1,0,2.71,2.91Zm45.77,63.81a2.75,2.75,0,0,0,2.61,3,2.88,2.88,0,0,0,.16-5.75A2.71,2.71,0,0,0,183.49,162.75Zm56.57,13a2.77,2.77,0,0,0-2.72-2.91,2.81,2.81,0,0,0-2.72,2.84,2.75,2.75,0,0,0,2.73,2.89A2.72,2.72,0,0,0,240.06,175.71Zm61.29,9.9a2.87,2.87,0,1,0,2.68,2.94A2.74,2.74,0,0,0,301.35,185.61Zm-202-10a2.72,2.72,0,1,0-5.43.1,2.71,2.71,0,0,0,2.8,2.81A2.78,2.78,0,0,0,99.35,175.62Zm61.23,2.91a2.76,2.76,0,0,0,2.74-2.79,2.8,2.8,0,0,0-2.7-2.94,2.77,2.77,0,0,0-2.73,2.81A2.72,2.72,0,0,0,160.58,178.53ZM73.76,201.24A2.77,2.77,0,0,0,71,198.38a2.82,2.82,0,0,0-2.66,2.91,2.72,2.72,0,1,0,5.43,0Zm212.07-25.56a2.71,2.71,0,0,0,2.67,2.85,2.77,2.77,0,0,0,2.77-2.87,2.8,2.8,0,0,0-2.78-2.87A2.77,2.77,0,0,0,285.83,175.68Zm-20.17,38.37a2.72,2.72,0,1,0-2.67,2.86A2.73,2.73,0,0,0,265.66,214.05Zm12.79-76.78a2.72,2.72,0,1,0-2.74,2.89A2.77,2.77,0,0,0,278.45,137.27Zm-102.35,64a2.72,2.72,0,1,0-2.74,2.88A2.75,2.75,0,0,0,176.1,201.25ZM83.85,160a2.72,2.72,0,0,0-2.72,2.81,2.75,2.75,0,0,0,2.68,2.95,2.88,2.88,0,0,0,0-5.76ZM201.69,290.82a2.72,2.72,0,1,0-2.67,2.89A2.81,2.81,0,0,0,201.69,290.82Zm-18.2-89.6a2.73,2.73,0,0,0,2.71,2.91,2.81,2.81,0,0,0,2.73-2.84,2.84,2.84,0,0,0-2.74-2.92A2.75,2.75,0,0,0,183.49,201.22ZM176.09,163a2.72,2.72,0,1,0-5.43-.19,2.81,2.81,0,0,0,2.67,3A2.76,2.76,0,0,0,176.09,163Zm25.6,38.32a2.72,2.72,0,1,0-5.43-.06,2.72,2.72,0,1,0,5.43.06Zm0-38.39a2.72,2.72,0,1,0-2.7,2.85A2.77,2.77,0,0,0,201.69,162.9Zm48.48,35.47a2.88,2.88,0,0,0,0,5.76,2.8,2.8,0,0,0,2.75-2.81A2.84,2.84,0,0,0,250.17,198.38Zm28.28,2.88a2.76,2.76,0,0,0-2.66-2.88,2.88,2.88,0,0,0,0,5.76A2.76,2.76,0,0,0,278.45,201.26Zm-38.38,89.55a2.75,2.75,0,0,0-2.68-2.85,2.88,2.88,0,0,0,0,5.75A2.77,2.77,0,0,0,240.06,290.81Zm64-89.58a2.78,2.78,0,0,0-2.7-2.85,2.83,2.83,0,0,0-2.73,2.92,2.72,2.72,0,1,0,5.43-.07ZM183.49,290.76a2.75,2.75,0,0,0,2.68,2.94,2.88,2.88,0,0,0,0-5.76A2.75,2.75,0,0,0,183.49,290.76ZM301.34,178.53A2.73,2.73,0,0,0,304,175.7a2.77,2.77,0,0,0-2.73-2.9,2.8,2.8,0,0,0-2.7,2.85A2.75,2.75,0,0,0,301.34,178.53Zm12.79,19.85a2.89,2.89,0,0,0,0,5.76,2.88,2.88,0,0,0,0-5.76Zm-66.68,92.45a2.74,2.74,0,0,0,2.74,2.89,2.85,2.85,0,0,0,2.69-2.88,2.81,2.81,0,0,0-2.78-2.88A2.73,2.73,0,0,0,247.45,290.82Zm-7.39-127.94a2.75,2.75,0,0,0-2.66-2.88,2.88,2.88,0,0,0,0,5.75A2.75,2.75,0,0,0,240.06,162.88Zm64-25.6a2.78,2.78,0,0,0-2.67-2.88,2.82,2.82,0,0,0-2.76,2.89,2.72,2.72,0,1,0,5.43,0Zm-25.58,25.59a2.72,2.72,0,1,0-2.65,2.89A2.76,2.76,0,0,0,278.45,162.87Zm-15.51,118a2.86,2.86,0,1,0-2.7-2.91A2.73,2.73,0,0,0,262.93,280.89ZM96.57,242.5a2.75,2.75,0,0,0,2.79-2.75,2.81,2.81,0,0,0-2.66-3,2.87,2.87,0,0,0-.13,5.73Zm66.75-130.79a2.78,2.78,0,0,0-2.75-2.9,2.75,2.75,0,0,0-2.68,2.86,2.72,2.72,0,0,0,2.73,2.88A2.77,2.77,0,0,0,163.32,111.71Zm-64,0a2.72,2.72,0,1,0-5.43,0,2.72,2.72,0,0,0,2.78,2.84A2.75,2.75,0,0,0,99.35,111.68ZM265.66,98.93a2.72,2.72,0,1,0-2.71,2.85A2.76,2.76,0,0,0,265.66,98.93Zm-18.21-.06a2.74,2.74,0,0,0,2.71,2.91,2.88,2.88,0,0,0,0-5.75A2.74,2.74,0,0,0,247.45,98.87Zm-7.39.07A2.74,2.74,0,0,0,237.35,96a2.88,2.88,0,0,0,0,5.75A2.75,2.75,0,0,0,240.06,98.94Zm-38.37,0a2.72,2.72,0,1,0-2.66,2.89A2.76,2.76,0,0,0,201.69,98.89Zm-25.6,0A2.74,2.74,0,0,0,173.42,96a2.88,2.88,0,0,0-.06,5.75A2.75,2.75,0,0,0,176.09,98.89Zm-64,0a2.74,2.74,0,0,0-2.7-2.83,2.88,2.88,0,1,0,2.7,2.83Zm89.56,153.57a2.74,2.74,0,0,0-2.78-2.84,2.87,2.87,0,1,0,2.78,2.84ZM99.35,265.27a2.8,2.8,0,0,0-2.73-2.92,2.88,2.88,0,1,0,2.73,2.92Zm140.71,38.31a2.72,2.72,0,1,0-2.71,2.89A2.72,2.72,0,0,0,240.06,303.59Zm-76.74-38.37a2.81,2.81,0,0,0-2.79-2.86,2.77,2.77,0,0,0-2.64,2.9,2.74,2.74,0,0,0,2.68,2.85A2.78,2.78,0,0,0,163.32,265.22ZM240,73.39a2.75,2.75,0,0,0-2.7-2.91,2.72,2.72,0,0,0-2.75,2.76,2.73,2.73,0,1,0,5.44.15Zm10.08,189a2.76,2.76,0,0,0-2.67,3,2.72,2.72,0,0,0,2.73,2.8,2.88,2.88,0,0,0-.06-5.76Zm10.1,2.85a2.72,2.72,0,1,0,5.43.08,2.72,2.72,0,1,0-5.43-.08Zm18.22,0a2.78,2.78,0,0,0-2.77-2.88,2.83,2.83,0,0,0-2.67,2.9,2.72,2.72,0,1,0,5.43,0Zm-102.35-192a2.77,2.77,0,0,0-2.7-2.84,2.88,2.88,0,0,0,0,5.76A2.76,2.76,0,0,0,176.09,73.27ZM199,313.56a2.87,2.87,0,1,0,2.7,2.83A2.76,2.76,0,0,0,199,313.56Zm48.46-86.72a2.73,2.73,0,0,0,2.72,2.9,2.88,2.88,0,0,0-.06-5.76A2.72,2.72,0,0,0,247.45,226.83ZM135,306.48a2.72,2.72,0,0,0,2.74-2.78,2.72,2.72,0,1,0-2.74,2.78ZM83.81,224a2.88,2.88,0,0,0,.05,5.75,2.88,2.88,0,0,0-.05-5.75Zm53.91-86.7a2.72,2.72,0,1,0-2.66,2.88A2.79,2.79,0,0,0,137.72,137.28Zm-25.59,89.55a2.72,2.72,0,1,0-5.43,0,2.8,2.8,0,0,0,2.7,2.86A2.76,2.76,0,0,0,112.13,226.83Zm64,0a2.75,2.75,0,0,0-2.7-2.83,2.88,2.88,0,1,0,2.7,2.83ZM163.32,124.46a2.72,2.72,0,1,0-2.74,2.9A2.78,2.78,0,0,0,163.32,124.46Zm-5.43,12.8a2.74,2.74,0,0,0,2.73,2.9,2.88,2.88,0,1,0-2.73-2.9Zm120.56,89.57a2.74,2.74,0,0,0-2.77-2.85,2.89,2.89,0,0,0,0,5.76A2.77,2.77,0,0,0,278.45,226.83ZM288.53,224a2.88,2.88,0,0,0,0,5.75,2.88,2.88,0,0,0,0-5.75ZM81.13,201.22a2.74,2.74,0,0,0,2.71,2.91,2.78,2.78,0,0,0,2.72-2.83,2.83,2.83,0,0,0-2.73-2.93A2.77,2.77,0,0,0,81.13,201.22ZM186.2,262.35a2.76,2.76,0,0,0-2.71,2.83,2.73,2.73,0,0,0,2.69,2.93,2.8,2.8,0,0,0,2.75-2.81A2.84,2.84,0,0,0,186.2,262.35Zm53.86,2.91a2.77,2.77,0,0,0-2.72-2.91,2.88,2.88,0,0,0,0,5.76A2.75,2.75,0,0,0,240.06,265.26ZM58.24,198.38a2.77,2.77,0,0,0-2.69,2.95,2.73,2.73,0,0,0,2.72,2.81,2.88,2.88,0,0,0,0-5.76Zm86.86,92.41a2.76,2.76,0,0,0,2.71,2.92,2.89,2.89,0,0,0,.08-5.76A2.74,2.74,0,0,0,145.1,290.79ZM186.2,224a2.88,2.88,0,0,0,0,5.75,2.88,2.88,0,0,0,0-5.75ZM81.14,265.27a2.74,2.74,0,0,0,2.69,2.84,2.89,2.89,0,1,0-2.69-2.84ZM288.5,216.91a2.86,2.86,0,0,0,.07-5.71,2.86,2.86,0,0,0-.07,5.71ZM304,214.09a2.72,2.72,0,1,0-2.7,2.82A2.71,2.71,0,0,0,304,214.09ZM176.1,290.83a2.75,2.75,0,0,0-2.66-2.87,2.89,2.89,0,1,0,2.66,2.87Zm25.6-102.34a2.72,2.72,0,1,0-2.69,2.85A2.74,2.74,0,0,0,201.69,188.49Zm-41.12-2.88a2.72,2.72,0,0,0-2.67,2.85,2.76,2.76,0,0,0,2.74,2.89,2.81,2.81,0,0,0,2.69-2.87A2.75,2.75,0,0,0,160.57,185.61Zm0,95.28a2.86,2.86,0,0,0,0-5.71,2.86,2.86,0,0,0,0,5.71ZM93.92,188.44a2.72,2.72,0,1,0,2.7-2.83A2.75,2.75,0,0,0,93.92,188.44Zm-20.17.06a2.72,2.72,0,1,0-5.43-.07,2.78,2.78,0,0,0,2.73,2.91A2.75,2.75,0,0,0,73.75,188.5ZM96.6,275.18a2.86,2.86,0,0,0,.05,5.71,2.86,2.86,0,0,0-.05-5.71Zm38.34,5.71a2.86,2.86,0,1,0-2.65-3A2.73,2.73,0,0,0,134.94,280.89Zm169.09-54a2.75,2.75,0,0,0-2.74-2.88,2.88,2.88,0,1,0,2.74,2.88ZM73.75,239.67a2.72,2.72,0,1,0-2.69,2.84A2.76,2.76,0,0,0,73.75,239.67Zm64-.05a2.72,2.72,0,1,0-5.43.06,2.72,2.72,0,1,0,5.43-.06Zm64,0a2.72,2.72,0,1,0-5.43,0,2.72,2.72,0,1,0,5.43,0Zm38.37-38.37a2.77,2.77,0,0,0-2.73-2.91,2.82,2.82,0,0,0-2.71,2.86,2.78,2.78,0,0,0,2.75,2.9A2.75,2.75,0,0,0,240.06,201.29Zm0,76.76a2.72,2.72,0,1,0-2.68,2.83A2.71,2.71,0,0,0,240.06,278.05ZM224.51,242.5a2.75,2.75,0,0,0,2.78-2.85,2.8,2.8,0,0,0-2.67-2.88,2.87,2.87,0,0,0-.11,5.73ZM73.75,214.06A2.73,2.73,0,0,0,71,211.2a2.76,2.76,0,0,0-2.68,2.85,2.72,2.72,0,1,0,5.43,0Zm191.9,25.58a2.72,2.72,0,1,0-5.43,0,2.72,2.72,0,1,0,5.43,0Zm38.37,0a2.75,2.75,0,0,0-2.77-2.86,2.81,2.81,0,0,0-2.66,2.89,2.72,2.72,0,1,0,5.43,0Zm-79.45,41.25a2.86,2.86,0,1,0-2.72-2.79A2.7,2.7,0,0,0,224.58,280.88Zm41.08-54a2.72,2.72,0,1,0-2.65,2.9A2.78,2.78,0,0,0,265.66,226.83Zm-66.67,54a2.86,2.86,0,1,0-2.73-2.89A2.72,2.72,0,0,0,199,280.88ZM137.72,214a2.72,2.72,0,1,0-2.74,2.87A2.73,2.73,0,0,0,137.72,214Zm22.88-2.84a2.86,2.86,0,0,0,0,5.71,2.86,2.86,0,0,0,0-5.71ZM73.75,252.42a2.72,2.72,0,1,0-5.43,0,2.72,2.72,0,1,0,5.43,0ZM224.57,211.2a2.86,2.86,0,0,0,0,5.71,2.86,2.86,0,0,0,0-5.71Zm-79.47-10a2.75,2.75,0,0,0,2.72,2.91,2.78,2.78,0,0,0,2.71-2.84,2.81,2.81,0,0,0-2.73-2.92A2.77,2.77,0,0,0,145.1,201.23Zm95,25.64a2.72,2.72,0,1,0-5.43,0,2.81,2.81,0,0,0,2.75,2.9A2.77,2.77,0,0,0,240.06,226.87ZM99.35,252.42a2.72,2.72,0,1,0-2.74,2.9A2.78,2.78,0,0,0,99.35,252.42ZM135,249.58a2.87,2.87,0,1,0,2.74,2.88A2.74,2.74,0,0,0,135,249.58Zm66.71-22.74a2.72,2.72,0,1,0-2.66,2.89A2.77,2.77,0,0,0,201.69,226.84Zm45.76,25.56a2.73,2.73,0,0,0,2.71,2.91,2.87,2.87,0,0,0,0-5.73A2.71,2.71,0,0,0,247.45,252.41ZM221.86,124.51a2.74,2.74,0,0,0,2.77,2.85,2.81,2.81,0,0,0,2.65-2.9,2.72,2.72,0,1,0-5.43.05ZM119.52,98.93a2.75,2.75,0,0,0,2.69,2.85A2.82,2.82,0,0,0,125,98.87a2.79,2.79,0,0,0-2.8-2.84A2.75,2.75,0,0,0,119.52,98.93Zm25.58,0a2.76,2.76,0,0,0,2.67,2.87,2.88,2.88,0,0,0,.07-5.75A2.74,2.74,0,0,0,145.1,98.91Zm15.51,207.57a2.75,2.75,0,0,0,2.71-2.82,2.72,2.72,0,1,0-5.43,0A2.71,2.71,0,0,0,160.61,306.48ZM137.72,150.11a2.72,2.72,0,1,0-2.69,2.82A2.73,2.73,0,0,0,137.72,150.11Zm-25.59-38.38a2.75,2.75,0,0,0-2.72-2.91,2.81,2.81,0,0,0-2.72,2.84,2.77,2.77,0,0,0,2.74,2.89A2.74,2.74,0,0,0,112.13,111.72Zm-38.38,63.9a2.72,2.72,0,1,0-2.62,2.91A2.76,2.76,0,0,0,73.75,175.62Zm86.84-28.39a2.86,2.86,0,0,0,0,5.71,2.86,2.86,0,0,0,0-5.71ZM304,162.86a2.74,2.74,0,0,0-2.67-2.86,2.88,2.88,0,1,0,2.67,2.86ZM135,114.55a2.73,2.73,0,0,0,2.74-2.79,2.72,2.72,0,1,0-5.43-.05A2.74,2.74,0,0,0,135,114.55Zm48.5-2.86a2.71,2.71,0,0,0,2.66,2.86,2.79,2.79,0,0,0,2.78-2.87,2.83,2.83,0,0,0-2.69-2.87A2.74,2.74,0,0,0,183.49,111.7Zm18.21,0a2.77,2.77,0,0,0-2.78-2.86,2.81,2.81,0,0,0-2.65,2.91,2.72,2.72,0,1,0,5.43-.05Zm45.76,51.19a2.74,2.74,0,0,0,2.73,2.9,2.88,2.88,0,0,0-.06-5.75A2.74,2.74,0,0,0,247.45,162.86Zm-45.76-12.78a2.72,2.72,0,1,0-2.67,2.85A2.73,2.73,0,0,0,201.69,150.08ZM99.35,162.83a2.72,2.72,0,1,0-2.72,2.92A2.78,2.78,0,0,0,99.35,162.83Zm202-9.9a2.86,2.86,0,1,0-2.72-2.9A2.72,2.72,0,0,0,301.32,152.93Zm-51.19-38.38a2.87,2.87,0,0,0,0-5.74,2.87,2.87,0,0,0,0,5.74ZM137.72,124.5a2.72,2.72,0,1,0-5.43,0,2.72,2.72,0,1,0,5.43,0Zm-18.2-.06a2.74,2.74,0,0,0,2.7,2.92,2.87,2.87,0,0,0,.09-5.73A2.7,2.7,0,0,0,119.52,124.44ZM265.66,137.3a2.82,2.82,0,0,0-2.66-2.9,2.89,2.89,0,1,0,2.66,2.9Zm-18.2,0a2.72,2.72,0,0,0,2.74,2.87,2.89,2.89,0,0,0-.09-5.76A2.77,2.77,0,0,0,247.46,137.29Zm-33,.12a2.79,2.79,0,0,0-2.63-3,2.88,2.88,0,1,0,2.63,3Zm0-64a2.79,2.79,0,0,0-2.67-3,2.89,2.89,0,1,0,2.67,3Zm-76.77-.07a2.67,2.67,0,0,0-2.64-2.84,2.86,2.86,0,1,0,2.64,2.84ZM71,152.93a2.86,2.86,0,1,0-2.65-2.88A2.71,2.71,0,0,0,71,152.93ZM137.72,86.1A2.72,2.72,0,1,0,135,89,2.73,2.73,0,0,0,137.72,86.1Zm64,51.16a2.72,2.72,0,1,0-5.43.06,2.72,2.72,0,1,0,5.43-.06Zm0,38.37a2.72,2.72,0,1,0-2.62,2.91A2.76,2.76,0,0,0,201.69,175.62Zm-89.56-38.34a2.76,2.76,0,0,0-2.75-2.88,2.84,2.84,0,0,0-2.68,2.89,2.8,2.8,0,0,0,2.69,2.87A2.74,2.74,0,0,0,112.13,137.28Zm-28.3-2.88a2.78,2.78,0,0,0-2.69,2.95,2.73,2.73,0,0,0,2.72,2.81,2.88,2.88,0,0,0,0-5.76Zm102.33,44.13a2.87,2.87,0,0,0,.05-5.73,2.87,2.87,0,0,0-.05,5.73Zm79.5,112.27a2.72,2.72,0,1,0-2.65,2.91A2.82,2.82,0,0,0,265.66,290.8Zm-41.13,15.68a2.76,2.76,0,0,0,2.76-2.78,2.79,2.79,0,0,0-2.7-2.94,2.87,2.87,0,0,0-.06,5.73ZM147.8,134.4a2.89,2.89,0,1,0,2.72,2.93A2.78,2.78,0,0,0,147.8,134.4Zm66.68,92.41a2.75,2.75,0,0,0-2.79-2.83,2.88,2.88,0,1,0,2.79,2.83ZM173.39,121.63a2.87,2.87,0,0,0,0,5.73,2.74,2.74,0,0,0,2.7-2.91A2.71,2.71,0,0,0,173.39,121.63ZM122.18,306.48a2.87,2.87,0,0,0,.08-5.73,2.87,2.87,0,0,0-.08,5.73Zm53.91-2.89a2.74,2.74,0,0,0-2.7-2.83,2.8,2.8,0,0,0-2.74,2.91,2.72,2.72,0,1,0,5.43-.07ZM99.35,226.89A2.79,2.79,0,0,0,96.63,224a2.88,2.88,0,0,0,0,5.76A2.8,2.8,0,0,0,99.35,226.89Zm163.6-105.26a2.87,2.87,0,1,0,2.71,2.81A2.74,2.74,0,0,0,262.95,121.63Zm-22.89,2.83a2.71,2.71,0,0,0-2.78-2.83,2.87,2.87,0,0,0,.06,5.73A2.75,2.75,0,0,0,240.06,124.46ZM224.6,313.56a2.71,2.71,0,0,0-2.74,2.78,2.77,2.77,0,0,0,2.67,3,2.87,2.87,0,0,0,.06-5.73Zm-41.11,2.89a2.75,2.75,0,0,0,2.69,2.84,2.82,2.82,0,0,0,2.74-2.91,2.79,2.79,0,0,0-2.72-2.82A2.71,2.71,0,0,0,183.49,316.45ZM201.69,73.27A2.72,2.72,0,1,0,199,76.19,2.79,2.79,0,0,0,201.69,73.27Zm12.79,192a2.72,2.72,0,1,0-2.7,2.84A2.77,2.77,0,0,0,214.48,265.27ZM160.64,89a2.86,2.86,0,0,0-.07-5.71,2.86,2.86,0,0,0,.07,5.71ZM145.1,265.23a2.72,2.72,0,1,0,5.43,0,2.82,2.82,0,0,0-2.77-2.89A2.76,2.76,0,0,0,145.1,265.23ZM201.69,86.11A2.72,2.72,0,1,0,199,89,2.72,2.72,0,0,0,201.69,86.11ZM112.13,265.25a2.72,2.72,0,1,0-2.68,2.86A2.75,2.75,0,0,0,112.13,265.25ZM224.55,89a2.86,2.86,0,0,0,0-5.71,2.86,2.86,0,0,0,0,5.71Zm76.81,160.62a2.75,2.75,0,0,0-2.76,2.87,2.78,2.78,0,0,0,2.69,2.86,2.87,2.87,0,0,0,.07-5.73Zm-15.53,2.88a2.75,2.75,0,0,0,2.68,2.85,2.8,2.8,0,0,0,2.75-2.9,2.78,2.78,0,0,0-2.71-2.84A2.71,2.71,0,0,0,285.83,252.46Zm-48.45-2.88a2.75,2.75,0,0,0-2.75,2.79,2.79,2.79,0,0,0,2.7,2.94,2.87,2.87,0,0,0,0-5.73Zm-12.74,0a2.71,2.71,0,0,0-2.77,2.75,2.75,2.75,0,0,0,2.63,3,2.87,2.87,0,0,0,.14-5.73Zm-64.08,0a2.87,2.87,0,0,0,.1,5.73,2.79,2.79,0,0,0,2.67-2.88A2.75,2.75,0,0,0,160.55,249.58Zm53.93-150.7a2.72,2.72,0,1,0-2.65,2.9A2.8,2.8,0,0,0,214.49,98.88Zm64,.05A2.75,2.75,0,0,0,275.73,96a2.88,2.88,0,1,0,2.72,2.91ZM122.18,114.55a2.77,2.77,0,0,0,2.77-2.87,2.81,2.81,0,0,0-2.7-2.87,2.74,2.74,0,0,0-2.74,2.88A2.71,2.71,0,0,0,122.18,114.55Zm35.71,125a2.72,2.72,0,1,0,5.43.24,2.8,2.8,0,0,0-2.65-3A2.74,2.74,0,0,0,157.89,239.53Zm-38.37,0a2.7,2.7,0,0,0,2.65,2.94,2.87,2.87,0,0,0,.08-5.73A2.72,2.72,0,0,0,119.52,239.56Zm105.06-125a2.76,2.76,0,0,0,2.71-2.83,2.81,2.81,0,0,0-2.74-2.91,2.75,2.75,0,0,0-2.69,2.94A2.71,2.71,0,0,0,224.58,114.55Zm15.48-2.9a2.72,2.72,0,1,0-2.71,2.9A2.73,2.73,0,0,0,240.06,111.66ZM93.92,124.48a2.72,2.72,0,1,0,2.76-2.85A2.75,2.75,0,0,0,93.92,124.48Zm18.21,0a2.72,2.72,0,1,0-5.43,0,2.78,2.78,0,0,0,2.68,2.87A2.74,2.74,0,0,0,112.13,124.49Zm148.1,38.42A2.72,2.72,0,1,0,263,160,2.77,2.77,0,0,0,260.23,162.92ZM99.35,201.25a2.81,2.81,0,0,0-2.69-2.87,2.88,2.88,0,1,0,2.69,2.87Zm12.78.08a2.72,2.72,0,1,0-2.72,2.81A2.74,2.74,0,0,0,112.13,201.32Zm10-22.79a2.87,2.87,0,0,0,.12-5.73,2.87,2.87,0,0,0-.12,5.73Zm92.32-15.62a2.72,2.72,0,1,0-5.43-.06,2.72,2.72,0,1,0,5.43.06Zm51.17,25.54a2.72,2.72,0,1,0-2.74,2.89A2.75,2.75,0,0,0,265.66,188.44Zm-15.49-2.83a2.87,2.87,0,0,0,0,5.73,2.87,2.87,0,0,0,0-5.73ZM214.48,290.84a2.72,2.72,0,1,0-5.43,0,2.72,2.72,0,1,0,5.43,0Zm0-89.62a2.72,2.72,0,1,0-2.72,2.91A2.79,2.79,0,0,0,214.48,201.22Zm25.58-12.74a2.71,2.71,0,0,0-2.73-2.87,2.87,2.87,0,1,0,2.73,2.87Zm48.48-35.55a2.86,2.86,0,0,0,0-5.71,2.86,2.86,0,0,0,0,5.71Zm-22.88,48.29a2.72,2.72,0,1,0-2.73,2.91A2.78,2.78,0,0,0,265.66,201.22Zm-41.11-48.29a2.86,2.86,0,0,0,0-5.71,2.86,2.86,0,0,0,0,5.71Zm-2.69,35.58a2.73,2.73,0,0,0,2.7,2.83,2.79,2.79,0,0,0,2.73-2.92,2.76,2.76,0,0,0-2.73-2.81A2.72,2.72,0,0,0,221.86,188.51Zm-84.14-12.82a2.76,2.76,0,0,0-2.73-2.9,2.79,2.79,0,0,0-2.7,2.85,2.72,2.72,0,1,0,5.43,0ZM263,178.53a2.87,2.87,0,1,0-2.75-2.86A2.75,2.75,0,0,0,263,178.53ZM99.35,214.06a2.72,2.72,0,1,0-2.68,2.84A2.74,2.74,0,0,0,99.35,214.06Zm38.37-25.62a2.74,2.74,0,0,0-2.78-2.84,2.87,2.87,0,1,0,2.78,2.84ZM112.13,290.85a2.72,2.72,0,1,0-5.43-.06,2.82,2.82,0,0,0,2.74,2.91A2.77,2.77,0,0,0,112.13,290.85ZM224.54,178.53a2.74,2.74,0,0,0,2.75-2.78,2.8,2.8,0,0,0-2.7-2.95,2.75,2.75,0,0,0-2.73,2.8A2.72,2.72,0,0,0,224.54,178.53Zm-169,10a2.74,2.74,0,0,0,2.68,2.85A2.83,2.83,0,0,0,61,188.44a2.77,2.77,0,0,0-2.71-2.83A2.71,2.71,0,0,0,55.55,188.49Zm41-41.26a2.86,2.86,0,0,0,.08,5.71,2.86,2.86,0,0,0-.08-5.71ZM240,316.45a2.78,2.78,0,0,0-2.74-3,2.74,2.74,0,0,0-2.71,2.81,2.7,2.7,0,0,0,2.67,2.91A2.78,2.78,0,0,0,240,316.45ZM58.21,178.53a2.87,2.87,0,0,0,.09-5.73,2.87,2.87,0,0,0-.09,5.73Zm51.24,0a2.72,2.72,0,0,0,2.68-2.84,2.76,2.76,0,0,0-2.73-2.89,2.8,2.8,0,0,0-2.7,2.86A2.76,2.76,0,0,0,109.45,178.53Zm66.65,137.95a2.72,2.72,0,1,0-5.43-.11,2.79,2.79,0,0,0,2.71,2.93A2.75,2.75,0,0,0,176.09,316.48Zm74-137.95a2.87,2.87,0,0,0,0-5.73,2.75,2.75,0,0,0-2.72,2.91A2.71,2.71,0,0,0,250.14,178.53ZM109.43,249.58a2.87,2.87,0,1,0,2.7,2.82A2.71,2.71,0,0,0,109.43,249.58Zm12.76,0a2.87,2.87,0,0,0,.07,5.73,2.81,2.81,0,0,0,2.69-2.86A2.77,2.77,0,0,0,122.19,249.58Zm63.94,25.6a2.86,2.86,0,0,0,.11,5.7,2.86,2.86,0,0,0-.11-5.7Zm127.95-96.65a2.78,2.78,0,0,0,2.77-2.87,2.82,2.82,0,0,0-2.69-2.87,2.87,2.87,0,0,0-.08,5.73Zm-201.95,9.93a2.72,2.72,0,0,0-2.67-2.85,2.87,2.87,0,1,0,2.67,2.85Zm61.25,61.12a2.76,2.76,0,0,0-2.72,2.91,2.8,2.8,0,0,0,2.73,2.82,2.76,2.76,0,0,0,2.7-2.92A2.72,2.72,0,0,0,173.38,249.58Zm-53.87-61.15a2.73,2.73,0,0,0,2.71,2.91,2.87,2.87,0,0,0,0-5.73A2.72,2.72,0,0,0,119.52,188.43Zm64,64a2.75,2.75,0,0,0,2.7,2.92,2.87,2.87,0,0,0,.09-5.73A2.7,2.7,0,0,0,183.49,252.39Zm18.21,51.18a2.72,2.72,0,1,0-5.43.09,2.72,2.72,0,1,0,5.43-.09Zm-25.6-127.91a2.72,2.72,0,1,0-2.75,2.86A2.73,2.73,0,0,0,176.09,175.67Zm-2.71,9.94a2.87,2.87,0,0,0,0,5.73,2.87,2.87,0,0,0,0-5.73Zm10.1,2.82a2.73,2.73,0,0,0,2.7,2.92,2.87,2.87,0,0,0,0-5.73A2.69,2.69,0,0,0,183.49,188.42Zm64,25.57a2.7,2.7,0,0,0,2.68,2.92,2.86,2.86,0,0,0,0-5.71A2.7,2.7,0,0,0,247.45,214Zm-45.76.08a2.72,2.72,0,1,0-2.68,2.84A2.73,2.73,0,0,0,201.69,214.07Zm0-89.63a2.72,2.72,0,0,0-2.8-2.81,2.87,2.87,0,1,0,2.8,2.81Zm48.44,28.49a2.86,2.86,0,0,0,0-5.71,2.86,2.86,0,0,0,0,5.71Zm-138,10a2.75,2.75,0,0,0-2.72-2.9,2.88,2.88,0,1,0,2.72,2.9Zm0,76.78a2.76,2.76,0,0,0-2.71-2.91,2.87,2.87,0,0,0,0,5.73A2.72,2.72,0,0,0,112.13,239.68Zm33-76.94A2.72,2.72,0,1,0,148,160,2.73,2.73,0,0,0,145.1,162.75Zm105,79.76a2.87,2.87,0,0,0,.08-5.73,2.87,2.87,0,0,0-.08,5.73Zm-63.92,0a2.78,2.78,0,0,0,2.73-2.82,2.82,2.82,0,0,0-2.74-2.92,2.74,2.74,0,0,0-2.7,2.83A2.7,2.7,0,0,0,186.19,242.5Zm-12.77-128a2.87,2.87,0,0,0,0-5.74,2.81,2.81,0,0,0-2.7,2.86A2.77,2.77,0,0,0,173.42,114.55Zm66.65,125.05a2.75,2.75,0,0,0-2.7-2.83,2.8,2.8,0,0,0-2.73,2.91,2.72,2.72,0,1,0,5.43-.08ZM109.42,280.88a2.86,2.86,0,0,0,0-5.71,2.86,2.86,0,0,0,0,5.71ZM240.06,214a2.71,2.71,0,0,0-2.76-2.84,2.78,2.78,0,0,0-2.67,2.87,2.74,2.74,0,0,0,2.7,2.83A2.7,2.7,0,0,0,240.06,214Zm38.38-38.36a2.72,2.72,0,1,0-2.67,2.86A2.76,2.76,0,0,0,278.45,175.67ZM147.83,114.55a2.75,2.75,0,0,0,2.7-2.83,2.79,2.79,0,0,0-2.74-2.9,2.76,2.76,0,0,0-2.69,2.85A2.73,2.73,0,0,0,147.83,114.55Zm-2.73,201.88a2.74,2.74,0,0,0,2.77,2.85,2.8,2.8,0,0,0,2.66-2.89,2.72,2.72,0,1,0-5.43,0ZM122.22,89a2.86,2.86,0,0,0,0-5.71,2.86,2.86,0,0,0,0,5.71Zm127.9,217.52a2.87,2.87,0,0,0,0-5.73,2.87,2.87,0,0,0,0,5.73ZM186.24,89a2.86,2.86,0,0,0-.1-5.71,2.73,2.73,0,0,0-2.65,3A2.68,2.68,0,0,0,186.24,89ZM145.1,226.82a2.76,2.76,0,0,0,2.72,2.92,2.88,2.88,0,0,0,0-5.76A2.74,2.74,0,0,0,145.1,226.82Zm95-140.73a2.7,2.7,0,0,0-2.67-2.84,2.86,2.86,0,0,0-.07,5.7A2.7,2.7,0,0,0,240.06,86.09Zm-56.57,38.44a2.73,2.73,0,0,0,2.7,2.83,2.84,2.84,0,0,0,2.74-2.93,2.78,2.78,0,0,0-2.83-2.81A2.7,2.7,0,0,0,183.49,124.53Zm92.26,125a2.87,2.87,0,1,0,2.7,2.91A2.76,2.76,0,0,0,275.74,249.58Zm-99.65-9.9a2.75,2.75,0,0,0-2.71-2.92,2.8,2.8,0,0,0-2.72,2.84,2.76,2.76,0,0,0,2.73,2.9A2.72,2.72,0,0,0,176.09,239.69ZM83.88,178.53a2.87,2.87,0,1,0-2.74-2.87A2.72,2.72,0,0,0,83.88,178.53Zm102.34,128a2.87,2.87,0,0,0-.05-5.73,2.74,2.74,0,0,0-2.67,2.86A2.7,2.7,0,0,0,186.21,306.48ZM119.52,278a2.69,2.69,0,0,0,2.71,2.88,2.86,2.86,0,0,0,0-5.71A2.69,2.69,0,0,0,119.52,278ZM83.88,249.58a2.71,2.71,0,0,0-2.75,2.86,2.75,2.75,0,0,0,2.66,2.88,2.87,2.87,0,0,0,.09-5.73Zm127.91,64a2.87,2.87,0,1,0,2.69,2.92A2.75,2.75,0,0,0,211.79,313.56Zm0-199a2.87,2.87,0,0,0,.06-5.74,2.8,2.8,0,0,0-2.75,2.9A2.75,2.75,0,0,0,211.74,114.55ZM173.42,280.88a2.72,2.72,0,0,0,2.68-2.93,2.69,2.69,0,0,0-2.73-2.78,2.86,2.86,0,0,0,0,5.71Zm12.73-64a2.86,2.86,0,0,0,.08-5.71,2.69,2.69,0,0,0-2.74,2.76A2.71,2.71,0,0,0,186.14,216.91Zm-10-2.86a2.71,2.71,0,0,0-2.76-2.84,2.86,2.86,0,0,0,0,5.71A2.71,2.71,0,0,0,176.1,214Zm-64-64a2.72,2.72,0,0,0-2.78-2.83,2.78,2.78,0,0,0-2.65,2.89,2.72,2.72,0,1,0,5.43-.06Zm166.32-38.33a2.72,2.72,0,1,0-2.78,2.84A2.72,2.72,0,0,0,278.45,111.72ZM119.52,214a2.7,2.7,0,0,0,2.68,2.92,2.86,2.86,0,0,0,0-5.71A2.69,2.69,0,0,0,119.52,214Zm95-38.23a2.72,2.72,0,1,0-2.85,2.77A2.73,2.73,0,0,0,214.48,175.76Zm25.58-25.68a2.7,2.7,0,0,0-2.74-2.86,2.86,2.86,0,0,0,0,5.71A2.71,2.71,0,0,0,240.06,150.08ZM81.14,188.46a2.73,2.73,0,0,0,2.74,2.88,2.87,2.87,0,0,0,0-5.73A2.72,2.72,0,0,0,81.14,188.46Zm95-102.34a2.71,2.71,0,0,0-2.65-2.86,2.85,2.85,0,0,0,0,5.71A2.7,2.7,0,0,0,176.1,86.11Zm74,35.52a2.87,2.87,0,0,0,.08,5.73,2.8,2.8,0,0,0,2.69-2.86A2.77,2.77,0,0,0,250.12,121.63Zm-38.33,128a2.87,2.87,0,0,0,0,5.73,2.78,2.78,0,0,0,2.73-2.9A2.75,2.75,0,0,0,211.79,249.58ZM112.13,214a2.72,2.72,0,0,0-2.7-2.81,2.86,2.86,0,0,0,0,5.71A2.72,2.72,0,0,0,112.13,214Zm74.11-61.08a2.86,2.86,0,0,0-.11-5.7,2.72,2.72,0,0,0-2.65,3A2.68,2.68,0,0,0,186.24,152.93Zm-64,0a2.86,2.86,0,0,0,0-5.71,2.86,2.86,0,0,0,0,5.71Zm51.21,0a2.86,2.86,0,0,0-.05-5.71,2.86,2.86,0,0,0,.05,5.71ZM275.74,242.5a2.73,2.73,0,0,0,2.7-2.82,2.76,2.76,0,0,0-2.71-2.92A2.8,2.8,0,0,0,273,239.6,2.76,2.76,0,0,0,275.74,242.5ZM145.1,175.64a2.73,2.73,0,0,0,2.73,2.89,2.87,2.87,0,1,0-2.73-2.89ZM250.17,89a2.86,2.86,0,0,0,0-5.71,2.86,2.86,0,0,0,0,5.71Zm0,191.93a2.86,2.86,0,0,0,.06-5.71,2.86,2.86,0,0,0-.06,5.71Zm-102.3-95.28a2.87,2.87,0,0,0,0,5.73,2.87,2.87,0,0,0,0-5.73ZM81.14,124.48a2.74,2.74,0,0,0,2.74,2.88,2.87,2.87,0,0,0,0-5.73A2.71,2.71,0,0,0,81.14,124.48ZM147.8,249.58a2.72,2.72,0,0,0-2.7,2.82,2.72,2.72,0,1,0,2.7-2.82Zm0-128a2.87,2.87,0,0,0,0,5.73,2.87,2.87,0,0,0,0-5.73Zm64,0a2.87,2.87,0,1,0,2.74,2.89A2.73,2.73,0,0,0,211.75,121.63Zm2.74,118a2.72,2.72,0,1,0-5.43,0,2.72,2.72,0,1,0,5.43,0ZM83.83,242.5a2.77,2.77,0,0,0,2.74-2.89,2.8,2.8,0,0,0-2.72-2.84,2.74,2.74,0,0,0-2.71,2.82A2.71,2.71,0,0,0,83.83,242.5Zm194.62-54a2.73,2.73,0,0,0-2.74-2.87,2.87,2.87,0,1,0,2.74,2.87Zm33,0a2.75,2.75,0,0,0,2.68,2.85,2.81,2.81,0,0,0,2.75-2.9,2.78,2.78,0,0,0-2.71-2.83A2.71,2.71,0,0,0,311.42,188.49Zm-33-64a2.72,2.72,0,1,0-5.43-.07,2.72,2.72,0,1,0,5.43.07Zm-130.62,118a2.87,2.87,0,1,0-2.73-2.88A2.71,2.71,0,0,0,147.83,242.5Zm66.66-54a2.72,2.72,0,1,0-5.43-.08,2.72,2.72,0,1,0,5.43.08Zm-66.7,118a2.76,2.76,0,0,0,2.75-2.88,2.79,2.79,0,0,0-2.71-2.85,2.75,2.75,0,0,0-2.73,2.9A2.72,2.72,0,0,0,147.79,306.48Zm128-95.28a2.86,2.86,0,1,0,2.68,2.84A2.74,2.74,0,0,0,275.76,211.2Zm0-58.27a2.86,2.86,0,0,0,0-5.71,2.86,2.86,0,0,0,0,5.71Zm-191.93,0a2.86,2.86,0,0,0,.1-5.71,2.86,2.86,0,0,0-.1,5.71Zm191.91,128a2.86,2.86,0,0,0,.07-5.71,2.86,2.86,0,0,0-.07,5.71Zm-63.9,25.6a2.87,2.87,0,1,0-2.74-2.87A2.72,2.72,0,0,0,211.81,306.48Zm102.27-89.57a2.86,2.86,0,0,0,.08-5.71,2.86,2.86,0,0,0-.08,5.71ZM147.78,89a2.86,2.86,0,0,0,.05-5.71,2.86,2.86,0,0,0-.05,5.71Zm0,191.93a2.86,2.86,0,1,0-2.73-2.79A2.71,2.71,0,0,0,147.83,280.89Zm-64-64a2.86,2.86,0,0,0,0-5.71,2.86,2.86,0,0,0,0,5.71Zm63.95-64A2.86,2.86,0,1,0,145.1,150,2.73,2.73,0,0,0,147.78,152.93Zm0,64a2.86,2.86,0,1,0-2.71-2.9A2.73,2.73,0,0,0,147.81,216.91ZM211.9,83.25A2.72,2.72,0,0,0,209.06,86,2.75,2.75,0,0,0,211.64,89a2.71,2.71,0,0,0,2.84-2.76A2.75,2.75,0,0,0,211.9,83.25Zm-.08,191.92a2.86,2.86,0,1,0,2.67,2.85A2.73,2.73,0,0,0,211.82,275.18Zm0-122.24a2.86,2.86,0,1,0-2.77-2.84A2.72,2.72,0,0,0,211.83,152.93Zm0,64a2.86,2.86,0,1,0-2.72-2.88A2.73,2.73,0,0,0,211.79,216.91Zm-2.37,111.44a1.89,1.89,0,0,0,1.73,2.05,2,2,0,0,0,.19-3.92A1.87,1.87,0,0,0,209.41,328.34ZM62.08,239.18a2,2,0,0,0-1.91-1.91,2,2,0,0,0-2,1.89,2,2,0,0,0,2,1.85A1.91,1.91,0,0,0,62.08,239.18ZM300.2,262.9a2,2,0,0,0-2,1.86,2,2,0,0,0,2,1.88,1.91,1.91,0,0,0,1.91-1.89A2,2,0,0,0,300.2,262.9ZM72.15,266.63a1.91,1.91,0,0,0,1.93-1.87,2,2,0,1,0-1.93,1.87ZM197,62.57a1.86,1.86,0,0,0,1.84,1.94,2,2,0,0,0,1.88-2,2,2,0,0,0-1.94-2A1.87,1.87,0,0,0,197,62.57Zm64,24.12a1.9,1.9,0,0,0,1.8,2,2,2,0,0,0,.06-3.93A1.9,1.9,0,0,0,261,86.69ZM197,328.4a1.87,1.87,0,0,0,1.77,2,2,2,0,0,0,1.95-2,2,2,0,0,0-1.87-2A1.86,1.86,0,0,0,197,328.4Zm26.73-1.93a2,2,0,0,0,0,3.93,2,2,0,0,0,1.94-2A2,2,0,0,0,223.7,326.47Zm-63.44-.1a1.92,1.92,0,0,0-1.82,2,1.86,1.86,0,0,0,1.83,1.94,1.92,1.92,0,0,0,1.89-2A2,2,0,0,0,160.27,326.37ZM109.68,84.75a2,2,0,0,0,0,3.93,2,2,0,0,0,0-3.93Zm12.23-13.37a1.93,1.93,0,0,0-1.81,2,1.86,1.86,0,0,0,1.84,1.93,1.92,1.92,0,0,0,1.87-2A2,2,0,0,0,121.91,71.39Zm101.78-10.9a2,2,0,0,0-1.81,2,1.88,1.88,0,0,0,1.9,1.9,1.92,1.92,0,0,0,1.81-2A2,2,0,0,0,223.68,60.48ZM160.24,64.4a1.91,1.91,0,0,0,1.92-1.87,2,2,0,0,0-1.86-2.05,1.92,1.92,0,0,0-1.86,1.94A1.87,1.87,0,0,0,160.24,64.4Zm14.37,264a1.88,1.88,0,0,0-1.86-1.95,2,2,0,0,0,0,3.93A1.91,1.91,0,0,0,174.61,328.42Zm13.46-.33a1.84,1.84,0,0,0-1.8-2,1.92,1.92,0,0,0-1.91,1.92,2,2,0,0,0,1.84,2A1.89,1.89,0,0,0,188.06,328.09Zm-40.53,1.68a1.87,1.87,0,0,0,2-1.83,2,2,0,1,0-2,1.83Zm104-13.43a2,2,0,0,0-3.91.05,1.93,1.93,0,0,0,2,1.86A1.88,1.88,0,0,0,251.54,316.34Zm-129.69-1.83a2,2,0,0,0-2,1.83,1.92,1.92,0,0,0,2,1.91,1.89,1.89,0,0,0,1.93-1.86A1.94,1.94,0,0,0,121.85,314.51Zm66.22-252.4a1.83,1.83,0,0,0-1.87-1.91,1.93,1.93,0,0,0-1.83,2,2,2,0,0,0,1.91,1.93A1.91,1.91,0,0,0,188.06,62.12Zm-38.36.35a1.86,1.86,0,1,0-3.71,0,1.87,1.87,0,0,0,1.84,2A1.9,1.9,0,0,0,149.71,62.46Zm63.43,0a1.92,1.92,0,0,0-1.85-2,2,2,0,0,0-1.86,2,1.86,1.86,0,1,0,3.71,0Zm-38.53.11a1.89,1.89,0,0,0-1.82-2,2,2,0,0,0-.06,3.93A1.9,1.9,0,0,0,174.61,62.57Zm77.6,10.76a1.92,1.92,0,0,0-1.88-1.95,2,2,0,0,0-1.83,2,1.86,1.86,0,1,0,3.71-.05Zm10.85,231.88a1.9,1.9,0,0,0,1.87-1.94,1.86,1.86,0,1,0-3.71,0A1.87,1.87,0,0,0,263.06,305.21Zm-153.44,0a1.89,1.89,0,0,0,1.92-1.89,1.94,1.94,0,0,0-1.79-2,1.92,1.92,0,0,0-1.91,1.91A1.88,1.88,0,0,0,109.62,305.21Zm204.75-65.95a1.92,1.92,0,0,0-1.88-1.95,2,2,0,0,0-1.83,2,1.86,1.86,0,1,0,3.71-.05ZM71.93,126.94a1.87,1.87,0,0,0,2-1.83,2,2,0,1,0-2,1.83Zm228.31,0a1.86,1.86,0,0,0,1.93-1.87,2,2,0,1,0-1.93,1.87Zm14.13,24.22a1.92,1.92,0,0,0-1.83-2,2,2,0,0,0-1.88,2,1.86,1.86,0,1,0,3.71,0ZM58.91,152.93a1.85,1.85,0,0,0,2-1.8A1.88,1.88,0,0,0,59,149.24a1.9,1.9,0,0,0-2,1.82A1.87,1.87,0,0,0,58.91,152.93Z" style="fill:#061a25"/><path d="M314.48,229.78a2.83,2.83,0,0,1-3.07-2.86,2.73,2.73,0,0,1,2.67-2.93,2.89,2.89,0,0,1,3.09,2.87A2.76,2.76,0,0,1,314.48,229.78Z" style="fill:#061a25"/><path d="M311.42,162.9a2.92,2.92,0,0,1,3-3,2.74,2.74,0,0,1,2.78,2.84,3,3,0,0,1-3.09,3A2.74,2.74,0,0,1,311.42,162.9Z" style="fill:#061a25"/><path d="M55.56,214a2.67,2.67,0,0,1,2.71-2.78,3,3,0,0,1,2.93,3,2.76,2.76,0,0,1-2.73,2.8A3,3,0,0,1,55.56,214Z" style="fill:#061a25"/><path d="M285.83,111.71a2.88,2.88,0,0,1,2.9-3,2.75,2.75,0,0,1,2.73,2.89,2.91,2.91,0,0,1-3,2.92A2.7,2.7,0,0,1,285.83,111.71Z" style="fill:#061a25"/><path d="M58.05,229.78a2.71,2.71,0,0,1-2.72-2.88A2.86,2.86,0,0,1,58.28,224,2.81,2.81,0,0,1,61,226.83,2.9,2.9,0,0,1,58.05,229.78Z" style="fill:#061a25"/><path d="M285.83,278a2.68,2.68,0,0,1,2.74-2.85,2.89,2.89,0,0,1,.18,5.77A2.84,2.84,0,0,1,285.83,278Z" style="fill:#061a25"/><path d="M93.94,290.83A2.74,2.74,0,0,1,96.6,288a2.86,2.86,0,0,1,2.85,2.92,2.76,2.76,0,0,1-2.66,2.87A2.87,2.87,0,0,1,93.94,290.83Z" style="fill:#061a25"/><path d="M61,162.87a2.8,2.8,0,0,1-2.59,2.87,2.77,2.77,0,0,1-2.84-2.62A2.73,2.73,0,0,1,58.81,160,2.87,2.87,0,0,1,61,162.87Z" style="fill:#061a25"/><path d="M86.57,111.6a2.82,2.82,0,0,1-2.69,2.94,2.91,2.91,0,1,1,2.69-2.94Z" style="fill:#061a25"/><path d="M275.72,293.75a2.9,2.9,0,0,1,0-5.79,2.83,2.83,0,0,1,2.75,2.91A2.79,2.79,0,0,1,275.72,293.75Z" style="fill:#061a25"/><path d="M240.06,137.26a2.76,2.76,0,0,1-2.73,2.9,2.79,2.79,0,0,1-2.7-2.85,2.83,2.83,0,0,1,2.75-2.91A2.76,2.76,0,0,1,240.06,137.26Z" style="fill:#061a25"/><path d="M224.58,96a2.88,2.88,0,0,1,0,5.75,2.76,2.76,0,0,1-2.69-2.94A2.73,2.73,0,0,1,224.58,96Z" style="fill:#061a25"/><path d="M119.52,162.9a2.74,2.74,0,0,1,2.72-2.9,2.88,2.88,0,0,1,0,5.75A2.74,2.74,0,0,1,119.52,162.9Z" style="fill:#061a25"/><path d="M137.72,162.9a2.76,2.76,0,0,1-2.78,2.86,2.8,2.8,0,0,1-2.65-2.9,2.72,2.72,0,1,1,5.43,0Z" style="fill:#061a25"/><path d="M221.86,201.28a2.76,2.76,0,0,1,2.73-2.9,2.89,2.89,0,0,1,0,5.76A2.73,2.73,0,0,1,221.86,201.28Z" style="fill:#061a25"/><path d="M288.52,198.38a2.88,2.88,0,0,1,0,5.76,2.89,2.89,0,0,1,0-5.76Z" style="fill:#061a25"/><path d="M221.86,162.88a2.73,2.73,0,0,1,2.75-2.88,2.88,2.88,0,0,1-.09,5.75A2.76,2.76,0,0,1,221.86,162.88Z" style="fill:#061a25"/><path d="M137.72,290.84A2.72,2.72,0,1,1,135,288,2.75,2.75,0,0,1,137.72,290.84Z" style="fill:#061a25"/><path d="M119.52,290.81A2.73,2.73,0,0,1,122.2,288a2.88,2.88,0,0,1,.05,5.75A2.75,2.75,0,0,1,119.52,290.81Z" style="fill:#061a25"/><path d="M119.52,265.21a2.75,2.75,0,0,1,2.68-2.86,2.88,2.88,0,0,1,0,5.76A2.73,2.73,0,0,1,119.52,265.21Z" style="fill:#061a25"/><path d="M137.72,265.23a2.72,2.72,0,1,1-5.43,0,2.72,2.72,0,1,1,5.43,0Z" style="fill:#061a25"/><path d="M176.1,137.31a2.72,2.72,0,1,1-5.43,0,2.81,2.81,0,0,1,2.7-2.86A2.77,2.77,0,0,1,176.1,137.31Z" style="fill:#061a25"/><path d="M221.86,73.34a2.77,2.77,0,0,1,2.72-2.91,2.88,2.88,0,0,1,0,5.76A2.73,2.73,0,0,1,221.86,73.34Z" style="fill:#061a25"/><path d="M221.86,137.31a2.77,2.77,0,0,1,2.73-2.91,2.88,2.88,0,0,1,0,5.76A2.75,2.75,0,0,1,221.86,137.31Z" style="fill:#061a25"/><path d="M119.52,226.84a2.72,2.72,0,0,1,2.66-2.86,2.88,2.88,0,0,1,0,5.75A2.74,2.74,0,0,1,119.52,226.84Z" style="fill:#061a25"/><path d="M221.86,265.29a2.72,2.72,0,1,1,2.71,2.82A2.73,2.73,0,0,1,221.86,265.29Z" style="fill:#061a25"/><path d="M137.72,226.81A2.72,2.72,0,1,1,135,224,2.78,2.78,0,0,1,137.72,226.81Z" style="fill:#061a25"/><path d="M157.89,226.81A2.76,2.76,0,0,1,160.6,224a2.88,2.88,0,0,1,0,5.75A2.76,2.76,0,0,1,157.89,226.81Z" style="fill:#061a25"/><path d="M122.22,134.4a2.88,2.88,0,0,1,0,5.76,2.89,2.89,0,0,1,0-5.76Z" style="fill:#061a25"/><path d="M99.35,137.31a2.8,2.8,0,0,1-2.7,2.85,2.89,2.89,0,0,1,0-5.76A2.8,2.8,0,0,1,99.35,137.31Z" style="fill:#061a25"/><path d="M73.75,162.83A2.72,2.72,0,1,1,71,160,2.76,2.76,0,0,1,73.75,162.83Z" style="fill:#061a25"/><path d="M73.76,226.84A2.76,2.76,0,0,1,71,229.73,2.88,2.88,0,0,1,71,224,2.77,2.77,0,0,1,73.76,226.84Z" style="fill:#061a25"/><path d="M73.75,137.27a2.72,2.72,0,1,1-5.43,0,2.72,2.72,0,1,1,5.43,0Z" style="fill:#061a25"/><path d="M288.52,242.5a2.71,2.71,0,0,1-2.69-2.92,2.75,2.75,0,0,1,2.72-2.81,2.8,2.8,0,0,1,2.71,2.93A2.76,2.76,0,0,1,288.52,242.5Z" style="fill:#061a25"/><path d="M183.49,137.32a2.75,2.75,0,0,1,2.71-2.92,2.88,2.88,0,0,1,0,5.76A2.72,2.72,0,0,1,183.49,137.32Z" style="fill:#061a25"/><path d="M221.86,290.87a2.74,2.74,0,0,1,2.7-2.92,2.79,2.79,0,0,1,2.73,2.83,2.83,2.83,0,0,1-2.73,2.93A2.75,2.75,0,0,1,221.86,290.87Z" style="fill:#061a25"/><path d="M263,147.23a2.86,2.86,0,1,1-2.73,2.79A2.74,2.74,0,0,1,263,147.23Z" style="fill:#061a25"/><path d="M221.86,226.8a2.74,2.74,0,0,1,2.71-2.83,2.88,2.88,0,0,1,0,5.75A2.77,2.77,0,0,1,221.86,226.8Z" style="fill:#061a25"/><path d="M262.92,114.55a2.87,2.87,0,0,1,0-5.73,2.78,2.78,0,0,1,2.69,2.95A2.73,2.73,0,0,1,262.92,114.55Z" style="fill:#061a25"/><path d="M285.83,124.5a2.71,2.71,0,0,1,2.74-2.87,2.75,2.75,0,0,1,2.69,2.85,2.79,2.79,0,0,1-2.76,2.88A2.74,2.74,0,0,1,285.83,124.5Z" style="fill:#061a25"/><path d="M81.14,278a2.71,2.71,0,0,1,2.75-2.85A2.78,2.78,0,0,1,86.57,278,2.84,2.84,0,0,1,83.84,281,2.75,2.75,0,0,1,81.14,278Z" style="fill:#061a25"/><path d="M285.83,137.32a2.77,2.77,0,0,1,2.71-2.92,2.88,2.88,0,0,1,0,5.76A2.73,2.73,0,0,1,285.83,137.32Z" style="fill:#061a25"/><path d="M285.83,162.83a2.73,2.73,0,0,1,2.7-2.83,2.88,2.88,0,0,1,0,5.75A2.75,2.75,0,0,1,285.83,162.83Z" style="fill:#061a25"/><path d="M119.52,201.23a2.74,2.74,0,0,1,2.68-2.86,2.84,2.84,0,0,1,2.75,2.91,2.81,2.81,0,0,1-2.71,2.85A2.74,2.74,0,0,1,119.52,201.23Z" style="fill:#061a25"/><path d="M176.1,265.2a2.72,2.72,0,1,1-5.43.06,2.82,2.82,0,0,1,2.74-2.91A2.76,2.76,0,0,1,176.1,265.2Z" style="fill:#061a25"/><path d="M265.66,252.45a2.72,2.72,0,1,1-5.43,0,2.72,2.72,0,1,1,5.43,0Z" style="fill:#061a25"/><path d="M201.69,265.24a2.72,2.72,0,1,1-2.67-2.88A2.77,2.77,0,0,1,201.69,265.24Z" style="fill:#061a25"/><path d="M132.28,316.32a2.73,2.73,0,1,1,5.44.11,2.64,2.64,0,0,1-2.79,2.77A2.75,2.75,0,0,1,132.28,316.32Z" style="fill:#061a25"/><path d="M285.83,265.27a2.76,2.76,0,0,1,2.71-2.92,2.82,2.82,0,0,1,2.72,2.85,2.79,2.79,0,0,1-2.74,2.91A2.74,2.74,0,0,1,285.83,265.27Z" style="fill:#061a25"/><path d="M137.72,201.26a2.72,2.72,0,1,1-5.43,0,2.72,2.72,0,1,1,5.43,0Z" style="fill:#061a25"/><path d="M99.35,98.88a2.72,2.72,0,1,1-5.43,0A2.75,2.75,0,0,1,96.66,96,2.79,2.79,0,0,1,99.35,98.88Z" style="fill:#061a25"/><path d="M288.5,185.61a2.76,2.76,0,0,1,2.76,2.87,2.82,2.82,0,0,1-2.7,2.86,2.74,2.74,0,0,1-2.73-2.89A2.7,2.7,0,0,1,288.5,185.61Z" style="fill:#061a25"/><path d="M163.32,290.86a2.72,2.72,0,1,1-5.43-.06,2.74,2.74,0,0,1,2.79-2.84A2.79,2.79,0,0,1,163.32,290.86Z" style="fill:#061a25"/><path d="M186.15,70.42a2.88,2.88,0,0,1,.06,5.76,2.72,2.72,0,0,1-2.73-2.8A2.76,2.76,0,0,1,186.15,70.42Z" style="fill:#061a25"/><path d="M163.32,201.34a2.8,2.8,0,0,1-2.76,2.79,2.89,2.89,0,0,1,.08-5.76A2.81,2.81,0,0,1,163.32,201.34Z" style="fill:#061a25"/><path d="M160.6,313.56a2.87,2.87,0,1,1-2.71,2.81A2.71,2.71,0,0,1,160.6,313.56Z" style="fill:#061a25"/><path d="M186.23,96a2.88,2.88,0,0,1-.08,5.75,2.77,2.77,0,0,1-2.66-3A2.72,2.72,0,0,1,186.23,96Z" style="fill:#061a25"/><path d="M157.89,162.83A2.75,2.75,0,0,1,160.6,160a2.88,2.88,0,1,1-2.71,2.83Z" style="fill:#061a25"/><path d="M157.89,98.86a2.74,2.74,0,0,1,2.7-2.83,2.88,2.88,0,1,1-2.7,2.83Z" style="fill:#061a25"/><path d="M145.1,73.34a2.72,2.72,0,1,1,2.7,2.85A2.77,2.77,0,0,1,145.1,73.34Z" style="fill:#061a25"/><path d="M163.32,73.28a2.78,2.78,0,0,1-2.74,2.9,2.89,2.89,0,0,1,0-5.76A2.81,2.81,0,0,1,163.32,73.28Z" style="fill:#061a25"/><path d="M137.72,98.94A2.72,2.72,0,1,1,135,96,2.75,2.75,0,0,1,137.72,98.94Z" style="fill:#061a25"/><path d="M183.49,162.75a2.71,2.71,0,0,1,2.77-2.75,2.88,2.88,0,0,1-.16,5.75A2.75,2.75,0,0,1,183.49,162.75Z" style="fill:#061a25"/><path d="M240.06,175.71a2.72,2.72,0,0,1-2.7,2.82,2.75,2.75,0,0,1-2.73-2.89,2.81,2.81,0,0,1,2.72-2.84A2.77,2.77,0,0,1,240.06,175.71Z" style="fill:#061a25"/><path d="M301.35,185.61a2.87,2.87,0,0,1-.06,5.73,2.87,2.87,0,0,1,.06-5.73Z" style="fill:#061a25"/><path d="M99.35,175.62a2.78,2.78,0,0,1-2.63,2.91,2.71,2.71,0,0,1-2.8-2.81,2.72,2.72,0,1,1,5.43-.1Z" style="fill:#061a25"/><path d="M160.58,178.53a2.72,2.72,0,0,1-2.69-2.92,2.77,2.77,0,0,1,2.73-2.81,2.8,2.8,0,0,1,2.7,2.94A2.76,2.76,0,0,1,160.58,178.53Z" style="fill:#061a25"/><path d="M73.76,201.24a2.72,2.72,0,1,1-5.43,0A2.82,2.82,0,0,1,71,198.38,2.77,2.77,0,0,1,73.76,201.24Z" style="fill:#061a25"/><path d="M285.83,175.68a2.77,2.77,0,0,1,2.65-2.89,2.8,2.8,0,0,1,2.78,2.87,2.77,2.77,0,0,1-2.77,2.87A2.71,2.71,0,0,1,285.83,175.68Z" style="fill:#061a25"/><path d="M265.66,214.05A2.72,2.72,0,1,1,263,211.2,2.74,2.74,0,0,1,265.66,214.05Z" style="fill:#061a25"/><path d="M278.45,137.27a2.72,2.72,0,1,1-5.43,0,2.72,2.72,0,1,1,5.43,0Z" style="fill:#061a25"/><path d="M176.1,201.25a2.75,2.75,0,0,1-2.74,2.88,2.88,2.88,0,1,1,2.74-2.88Z" style="fill:#061a25"/><path d="M83.85,160a2.88,2.88,0,0,1,0,5.76,2.75,2.75,0,0,1-2.68-2.95A2.72,2.72,0,0,1,83.85,160Z" style="fill:#061a25"/><path d="M201.69,290.82a2.72,2.72,0,1,1-5.43,0,2.72,2.72,0,1,1,5.43,0Z" style="fill:#061a25"/><path d="M183.49,201.22a2.75,2.75,0,0,1,2.69-2.85,2.84,2.84,0,0,1,2.74,2.92,2.81,2.81,0,0,1-2.73,2.84A2.73,2.73,0,0,1,183.49,201.22Z" style="fill:#061a25"/><path d="M176.09,163a2.76,2.76,0,0,1-2.76,2.78,2.81,2.81,0,0,1-2.67-3,2.72,2.72,0,1,1,5.43.19Z" style="fill:#061a25"/><path d="M201.69,201.29a2.72,2.72,0,1,1-2.73-2.92A2.78,2.78,0,0,1,201.69,201.29Z" style="fill:#061a25"/><path d="M201.69,162.9A2.72,2.72,0,1,1,199,160,2.79,2.79,0,0,1,201.69,162.9Z" style="fill:#061a25"/><path d="M250.17,198.38a2.84,2.84,0,0,1,2.72,2.95,2.8,2.8,0,0,1-2.75,2.81,2.88,2.88,0,0,1,0-5.76Z" style="fill:#061a25"/><path d="M278.45,201.26a2.72,2.72,0,1,1-5.43,0,2.8,2.8,0,0,1,2.77-2.88A2.76,2.76,0,0,1,278.45,201.26Z" style="fill:#061a25"/><path d="M240.06,290.81a2.72,2.72,0,1,1-5.43,0,2.8,2.8,0,0,1,2.75-2.9A2.75,2.75,0,0,1,240.06,290.81Z" style="fill:#061a25"/><path d="M304,201.23a2.72,2.72,0,1,1-5.43.07,2.83,2.83,0,0,1,2.73-2.92A2.78,2.78,0,0,1,304,201.23Z" style="fill:#061a25"/><path d="M183.49,290.76a2.75,2.75,0,0,1,2.72-2.81,2.88,2.88,0,0,1,0,5.76A2.75,2.75,0,0,1,183.49,290.76Z" style="fill:#061a25"/><path d="M301.34,178.53a2.75,2.75,0,0,1-2.74-2.88,2.8,2.8,0,0,1,2.7-2.85,2.77,2.77,0,0,1,2.73,2.9A2.73,2.73,0,0,1,301.34,178.53Z" style="fill:#061a25"/><path d="M314.13,198.38a2.88,2.88,0,0,1,0,5.76,2.89,2.89,0,0,1,0-5.76Z" style="fill:#061a25"/><path d="M247.45,290.82a2.73,2.73,0,0,1,2.65-2.87,2.81,2.81,0,0,1,2.78,2.88,2.85,2.85,0,0,1-2.69,2.88A2.74,2.74,0,0,1,247.45,290.82Z" style="fill:#061a25"/><path d="M240.06,162.88a2.75,2.75,0,0,1-2.66,2.88,2.88,2.88,0,0,1,0-5.75A2.75,2.75,0,0,1,240.06,162.88Z" style="fill:#061a25"/><path d="M304,137.28a2.72,2.72,0,1,1-5.43,0,2.82,2.82,0,0,1,2.76-2.89A2.78,2.78,0,0,1,304,137.28Z" style="fill:#061a25"/><path d="M278.45,162.87a2.72,2.72,0,1,1-2.67-2.86A2.77,2.77,0,0,1,278.45,162.87Z" style="fill:#061a25"/><path d="M262.93,280.89a2.86,2.86,0,1,1,2.73-2.8A2.72,2.72,0,0,1,262.93,280.89Z" style="fill:#061a25"/><path d="M96.57,242.5a2.87,2.87,0,0,1,.13-5.73,2.81,2.81,0,0,1,2.66,3A2.75,2.75,0,0,1,96.57,242.5Z" style="fill:#061a25"/><path d="M163.32,111.71a2.77,2.77,0,0,1-2.7,2.84,2.72,2.72,0,0,1-2.73-2.88,2.75,2.75,0,0,1,2.68-2.86A2.78,2.78,0,0,1,163.32,111.71Z" style="fill:#061a25"/><path d="M99.35,111.68a2.75,2.75,0,0,1-2.65,2.88,2.72,2.72,0,0,1-2.78-2.84,2.72,2.72,0,1,1,5.43,0Z" style="fill:#061a25"/><path d="M265.66,98.93a2.72,2.72,0,1,1-2.73-2.9A2.79,2.79,0,0,1,265.66,98.93Z" style="fill:#061a25"/><path d="M247.45,98.87A2.74,2.74,0,0,1,250.14,96a2.88,2.88,0,0,1,0,5.75A2.74,2.74,0,0,1,247.45,98.87Z" style="fill:#061a25"/><path d="M240.06,98.94a2.75,2.75,0,0,1-2.69,2.84,2.88,2.88,0,0,1,0-5.75A2.74,2.74,0,0,1,240.06,98.94Z" style="fill:#061a25"/><path d="M201.69,98.89A2.72,2.72,0,1,1,199,96,2.77,2.77,0,0,1,201.69,98.89Z" style="fill:#061a25"/><path d="M176.09,98.89a2.75,2.75,0,0,1-2.73,2.89,2.88,2.88,0,0,1,.06-5.75A2.74,2.74,0,0,1,176.09,98.89Z" style="fill:#061a25"/><path d="M112.13,98.86a2.76,2.76,0,0,1-2.71,2.92,2.88,2.88,0,0,1,0-5.75A2.74,2.74,0,0,1,112.13,98.86Z" style="fill:#061a25"/><path d="M201.69,252.42a2.72,2.72,0,1,1-2.78-2.84A2.74,2.74,0,0,1,201.69,252.42Z" style="fill:#061a25"/><path d="M99.35,265.27a2.79,2.79,0,0,1-2.71,2.84,2.89,2.89,0,0,1,0-5.76A2.8,2.8,0,0,1,99.35,265.27Z" style="fill:#061a25"/><path d="M240.06,303.59a2.72,2.72,0,0,1-2.71,2.89,2.75,2.75,0,0,1-2.72-2.82,2.72,2.72,0,1,1,5.43-.07Z" style="fill:#061a25"/><path d="M163.32,265.22a2.78,2.78,0,0,1-2.75,2.89,2.74,2.74,0,0,1-2.68-2.85,2.77,2.77,0,0,1,2.64-2.9A2.81,2.81,0,0,1,163.32,265.22Z" style="fill:#061a25"/><path d="M240,73.39a2.73,2.73,0,1,1-5.44-.15,2.72,2.72,0,0,1,2.75-2.76A2.75,2.75,0,0,1,240,73.39Z" style="fill:#061a25"/><path d="M250.12,262.35a2.88,2.88,0,0,1,.06,5.76,2.72,2.72,0,0,1-2.73-2.8A2.76,2.76,0,0,1,250.12,262.35Z" style="fill:#061a25"/><path d="M260.23,265.2a2.72,2.72,0,1,1,5.43.08,2.72,2.72,0,1,1-5.43-.08Z" style="fill:#061a25"/><path d="M278.45,265.23a2.72,2.72,0,1,1-5.43,0,2.83,2.83,0,0,1,2.67-2.9A2.78,2.78,0,0,1,278.45,265.23Z" style="fill:#061a25"/><path d="M176.09,73.27a2.76,2.76,0,0,1-2.71,2.92,2.88,2.88,0,0,1,0-5.76A2.77,2.77,0,0,1,176.09,73.27Z" style="fill:#061a25"/><path d="M199,313.56a2.87,2.87,0,1,1-2.74,2.89A2.74,2.74,0,0,1,199,313.56Z" style="fill:#061a25"/><path d="M247.45,226.83a2.72,2.72,0,0,1,2.67-2.86,2.88,2.88,0,0,1,.06,5.76A2.73,2.73,0,0,1,247.45,226.83Z" style="fill:#061a25"/><path d="M135,306.48a2.87,2.87,0,1,1,2.74-2.78A2.74,2.74,0,0,1,135,306.48Z" style="fill:#061a25"/><path d="M83.81,224a2.88,2.88,0,0,1,.05,5.75,2.88,2.88,0,0,1-.05-5.75Z" style="fill:#061a25"/><path d="M137.72,137.28A2.72,2.72,0,1,1,135,134.4,2.77,2.77,0,0,1,137.72,137.28Z" style="fill:#061a25"/><path d="M112.13,226.83a2.76,2.76,0,0,1-2.74,2.9,2.88,2.88,0,0,1,.05-5.76A2.77,2.77,0,0,1,112.13,226.83Z" style="fill:#061a25"/><path d="M176.1,226.81a2.77,2.77,0,0,1-2.71,2.92,2.88,2.88,0,0,1,0-5.75A2.75,2.75,0,0,1,176.1,226.81Z" style="fill:#061a25"/><path d="M163.32,124.46a2.78,2.78,0,0,1-2.74,2.9,2.87,2.87,0,1,1,2.74-2.9Z" style="fill:#061a25"/><path d="M157.89,137.26a2.77,2.77,0,0,1,2.69-2.86,2.88,2.88,0,0,1,0,5.76A2.74,2.74,0,0,1,157.89,137.26Z" style="fill:#061a25"/><path d="M278.45,226.83a2.77,2.77,0,0,1-2.73,2.9,2.89,2.89,0,0,1,0-5.76A2.74,2.74,0,0,1,278.45,226.83Z" style="fill:#061a25"/><path d="M288.53,224a2.88,2.88,0,1,1-2.7,2.84A2.75,2.75,0,0,1,288.53,224Z" style="fill:#061a25"/><path d="M81.13,201.22a2.77,2.77,0,0,1,2.7-2.85,2.83,2.83,0,0,1,2.73,2.93,2.78,2.78,0,0,1-2.72,2.83A2.74,2.74,0,0,1,81.13,201.22Z" style="fill:#061a25"/><path d="M186.2,262.35a2.84,2.84,0,0,1,2.72,2.94,2.8,2.8,0,0,1-2.75,2.81,2.73,2.73,0,0,1-2.69-2.93A2.76,2.76,0,0,1,186.2,262.35Z" style="fill:#061a25"/><path d="M240.06,265.26a2.75,2.75,0,0,1-2.69,2.85,2.88,2.88,0,0,1,0-5.76A2.77,2.77,0,0,1,240.06,265.26Z" style="fill:#061a25"/><path d="M58.24,198.38a2.88,2.88,0,0,1,0,5.76,2.73,2.73,0,0,1-2.72-2.81A2.77,2.77,0,0,1,58.24,198.38Z" style="fill:#061a25"/><path d="M145.1,290.79a2.74,2.74,0,0,1,2.79-2.84,2.89,2.89,0,0,1-.08,5.76A2.76,2.76,0,0,1,145.1,290.79Z" style="fill:#061a25"/><path d="M186.2,224a2.88,2.88,0,0,1,0,5.75,2.88,2.88,0,0,1,0-5.75Z" style="fill:#061a25"/><path d="M81.14,265.27a2.72,2.72,0,1,1,2.69,2.84A2.74,2.74,0,0,1,81.14,265.27Z" style="fill:#061a25"/><path d="M288.5,216.91a2.86,2.86,0,0,1,.07-5.71,2.86,2.86,0,0,1-.07,5.71Z" style="fill:#061a25"/><path d="M304,214.09a2.72,2.72,0,1,1-2.71-2.89A2.73,2.73,0,0,1,304,214.09Z" style="fill:#061a25"/><path d="M176.1,290.83a2.72,2.72,0,1,1-2.66-2.87A2.75,2.75,0,0,1,176.1,290.83Z" style="fill:#061a25"/><path d="M201.69,188.49a2.72,2.72,0,1,1-2.73-2.88A2.76,2.76,0,0,1,201.69,188.49Z" style="fill:#061a25"/><path d="M160.57,185.61a2.75,2.75,0,0,1,2.76,2.87,2.81,2.81,0,0,1-2.69,2.87,2.76,2.76,0,0,1-2.74-2.89A2.72,2.72,0,0,1,160.57,185.61Z" style="fill:#061a25"/><path d="M160.59,280.88a2.86,2.86,0,0,1,0-5.71,2.86,2.86,0,0,1,0,5.71Z" style="fill:#061a25"/><path d="M93.92,188.44a2.72,2.72,0,1,1,5.43.06,2.72,2.72,0,1,1-5.43-.06Z" style="fill:#061a25"/><path d="M73.75,188.5a2.75,2.75,0,0,1-2.7,2.84,2.78,2.78,0,0,1-2.73-2.91,2.72,2.72,0,1,1,5.43.07Z" style="fill:#061a25"/><path d="M96.6,275.18a2.86,2.86,0,0,1,.05,5.71,2.86,2.86,0,0,1-.05-5.71Z" style="fill:#061a25"/><path d="M134.94,280.89a2.86,2.86,0,1,1,2.78-2.75A2.74,2.74,0,0,1,134.94,280.89Z" style="fill:#061a25"/><path d="M304,226.86a2.72,2.72,0,1,1-2.74-2.88A2.75,2.75,0,0,1,304,226.86Z" style="fill:#061a25"/><path d="M73.75,239.67a2.72,2.72,0,1,1-2.73-2.9A2.74,2.74,0,0,1,73.75,239.67Z" style="fill:#061a25"/><path d="M137.72,239.62a2.72,2.72,0,1,1-2.7-2.84A2.74,2.74,0,0,1,137.72,239.62Z" style="fill:#061a25"/><path d="M201.69,239.66a2.72,2.72,0,1,1-5.43,0,2.72,2.72,0,1,1,5.43,0Z" style="fill:#061a25"/><path d="M240.06,201.29a2.75,2.75,0,0,1-2.69,2.85,2.78,2.78,0,0,1-2.75-2.9,2.82,2.82,0,0,1,2.71-2.86A2.77,2.77,0,0,1,240.06,201.29Z" style="fill:#061a25"/><path d="M240.06,278.05a2.72,2.72,0,1,1-2.73-2.87A2.71,2.71,0,0,1,240.06,278.05Z" style="fill:#061a25"/><path d="M224.51,242.5a2.87,2.87,0,0,1,.11-5.73,2.8,2.8,0,0,1,2.67,2.88A2.75,2.75,0,0,1,224.51,242.5Z" style="fill:#061a25"/><path d="M73.75,214.06a2.72,2.72,0,1,1-5.43,0A2.76,2.76,0,0,1,71,211.2,2.73,2.73,0,0,1,73.75,214.06Z" style="fill:#061a25"/><path d="M265.66,239.64a2.72,2.72,0,1,1-2.67-2.87A2.76,2.76,0,0,1,265.66,239.64Z" style="fill:#061a25"/><path d="M304,239.63a2.72,2.72,0,1,1-5.43,0,2.81,2.81,0,0,1,2.66-2.89A2.75,2.75,0,0,1,304,239.63Z" style="fill:#061a25"/><path d="M224.58,280.88a2.7,2.7,0,0,1-2.72-2.79,2.72,2.72,0,1,1,2.72,2.79Z" style="fill:#061a25"/><path d="M265.66,226.83A2.72,2.72,0,1,1,263,224,2.8,2.8,0,0,1,265.66,226.83Z" style="fill:#061a25"/><path d="M199,280.88a2.86,2.86,0,1,1,2.7-2.82A2.73,2.73,0,0,1,199,280.88Z" style="fill:#061a25"/><path d="M137.72,214a2.72,2.72,0,1,1-2.77-2.84A2.72,2.72,0,0,1,137.72,214Z" style="fill:#061a25"/><path d="M160.6,211.2a2.86,2.86,0,0,1,0,5.71,2.86,2.86,0,0,1,0-5.71Z" style="fill:#061a25"/><path d="M73.75,252.42a2.72,2.72,0,1,1-2.68-2.84A2.73,2.73,0,0,1,73.75,252.42Z" style="fill:#061a25"/><path d="M224.57,211.2a2.86,2.86,0,0,1,0,5.71,2.86,2.86,0,0,1,0-5.71Z" style="fill:#061a25"/><path d="M145.1,201.23a2.77,2.77,0,0,1,2.69-2.85,2.81,2.81,0,0,1,2.73,2.92,2.78,2.78,0,0,1-2.71,2.84A2.75,2.75,0,0,1,145.1,201.23Z" style="fill:#061a25"/><path d="M240.06,226.87a2.77,2.77,0,0,1-2.68,2.86,2.88,2.88,0,0,1,0-5.75A2.77,2.77,0,0,1,240.06,226.87Z" style="fill:#061a25"/><path d="M99.35,252.42a2.72,2.72,0,1,1-5.43,0,2.72,2.72,0,1,1,5.43,0Z" style="fill:#061a25"/><path d="M135,249.58a2.87,2.87,0,1,1-2.69,2.84A2.74,2.74,0,0,1,135,249.58Z" style="fill:#061a25"/><path d="M201.69,226.84A2.72,2.72,0,1,1,199,224,2.78,2.78,0,0,1,201.69,226.84Z" style="fill:#061a25"/><path d="M247.45,252.41a2.71,2.71,0,0,1,2.69-2.82,2.87,2.87,0,0,1,0,5.73A2.73,2.73,0,0,1,247.45,252.41Z" style="fill:#061a25"/><path d="M221.86,124.51a2.72,2.72,0,1,1,5.43-.05,2.81,2.81,0,0,1-2.65,2.9A2.74,2.74,0,0,1,221.86,124.51Z" style="fill:#061a25"/><path d="M119.52,98.93a2.75,2.75,0,0,1,2.63-2.9,2.79,2.79,0,0,1,2.8,2.84,2.82,2.82,0,0,1-2.74,2.91A2.75,2.75,0,0,1,119.52,98.93Z" style="fill:#061a25"/><path d="M145.1,98.91A2.74,2.74,0,0,1,147.84,96a2.88,2.88,0,0,1-.07,5.75A2.76,2.76,0,0,1,145.1,98.91Z" style="fill:#061a25"/><path d="M160.61,306.48a2.71,2.71,0,0,1-2.72-2.8,2.72,2.72,0,1,1,5.43,0A2.75,2.75,0,0,1,160.61,306.48Z" style="fill:#061a25"/><path d="M137.72,150.11a2.72,2.72,0,1,1-2.73-2.88A2.72,2.72,0,0,1,137.72,150.11Z" style="fill:#061a25"/><path d="M112.13,111.72a2.74,2.74,0,0,1-2.69,2.83,2.77,2.77,0,0,1-2.74-2.89,2.81,2.81,0,0,1,2.72-2.84A2.75,2.75,0,0,1,112.13,111.72Z" style="fill:#061a25"/><path d="M73.75,175.62A2.72,2.72,0,1,1,71,172.8,2.76,2.76,0,0,1,73.75,175.62Z" style="fill:#061a25"/><path d="M160.6,147.23a2.86,2.86,0,0,1,0,5.71,2.86,2.86,0,0,1,0-5.71Z" style="fill:#061a25"/><path d="M304,162.86a2.76,2.76,0,0,1-2.74,2.89,2.88,2.88,0,0,1,.07-5.75A2.74,2.74,0,0,1,304,162.86Z" style="fill:#061a25"/><path d="M135,114.55a2.74,2.74,0,0,1-2.69-2.84,2.72,2.72,0,1,1,5.43.05A2.73,2.73,0,0,1,135,114.55Z" style="fill:#061a25"/><path d="M183.49,111.7a2.74,2.74,0,0,1,2.74-2.88,2.83,2.83,0,0,1,2.69,2.87,2.79,2.79,0,0,1-2.78,2.87A2.71,2.71,0,0,1,183.49,111.7Z" style="fill:#061a25"/><path d="M201.69,111.67a2.72,2.72,0,1,1-5.43.05,2.81,2.81,0,0,1,2.65-2.91A2.77,2.77,0,0,1,201.69,111.67Z" style="fill:#061a25"/><path d="M247.45,162.86a2.74,2.74,0,0,1,2.67-2.86,2.88,2.88,0,0,1,.06,5.75A2.74,2.74,0,0,1,247.45,162.86Z" style="fill:#061a25"/><path d="M201.69,150.08a2.72,2.72,0,1,1-5.43,0,2.72,2.72,0,1,1,5.43,0Z" style="fill:#061a25"/><path d="M99.35,162.83a2.79,2.79,0,0,1-2.72,2.92,2.88,2.88,0,1,1,2.72-2.92Z" style="fill:#061a25"/><path d="M301.32,152.93a2.86,2.86,0,0,1,0-5.71,2.86,2.86,0,0,1,0,5.71Z" style="fill:#061a25"/><path d="M250.14,114.55a2.87,2.87,0,0,1,0-5.74,2.87,2.87,0,0,1,0,5.74Z" style="fill:#061a25"/><path d="M137.72,124.5a2.72,2.72,0,1,1-5.43,0,2.72,2.72,0,1,1,5.43,0Z" style="fill:#061a25"/><path d="M119.52,124.44a2.7,2.7,0,0,1,2.79-2.81,2.87,2.87,0,0,1-.09,5.73A2.74,2.74,0,0,1,119.52,124.44Z" style="fill:#061a25"/><path d="M265.66,137.3a2.72,2.72,0,1,1-2.66-2.9A2.82,2.82,0,0,1,265.66,137.3Z" style="fill:#061a25"/><path d="M247.46,137.29a2.77,2.77,0,0,1,2.65-2.89,2.89,2.89,0,0,1,.09,5.76A2.72,2.72,0,0,1,247.46,137.29Z" style="fill:#061a25"/><path d="M214.48,137.41a2.72,2.72,0,1,1-2.63-3A2.77,2.77,0,0,1,214.48,137.41Z" style="fill:#061a25"/><path d="M214.48,73.4a2.72,2.72,0,1,1-2.67-3A2.77,2.77,0,0,1,214.48,73.4Z" style="fill:#061a25"/><path d="M137.72,73.33a2.72,2.72,0,1,1-2.64-2.84A2.67,2.67,0,0,1,137.72,73.33Z" style="fill:#061a25"/><path d="M71,152.93a2.86,2.86,0,1,1,2.78-2.73A2.74,2.74,0,0,1,71,152.93Z" style="fill:#061a25"/><path d="M137.72,86.1A2.72,2.72,0,1,1,135,83.25,2.71,2.71,0,0,1,137.72,86.1Z" style="fill:#061a25"/><path d="M201.69,137.26a2.72,2.72,0,1,1-2.7-2.86A2.78,2.78,0,0,1,201.69,137.26Z" style="fill:#061a25"/><path d="M201.69,175.62a2.77,2.77,0,0,1-2.62,2.91,2.74,2.74,0,0,1-2.81-2.82,2.72,2.72,0,1,1,5.43-.09Z" style="fill:#061a25"/><path d="M112.13,137.28a2.74,2.74,0,0,1-2.74,2.88,2.8,2.8,0,0,1-2.69-2.87,2.84,2.84,0,0,1,2.68-2.89A2.76,2.76,0,0,1,112.13,137.28Z" style="fill:#061a25"/><path d="M83.82,134.4a2.88,2.88,0,0,1,0,5.76,2.73,2.73,0,0,1-2.72-2.81A2.78,2.78,0,0,1,83.82,134.4Z" style="fill:#061a25"/><path d="M186.16,178.53a2.87,2.87,0,0,1,.05-5.73,2.87,2.87,0,0,1-.05,5.73Z" style="fill:#061a25"/><path d="M265.66,290.8a2.82,2.82,0,0,1-2.65,2.91,2.89,2.89,0,1,1,2.65-2.91Z" style="fill:#061a25"/><path d="M224.53,306.48a2.87,2.87,0,0,1,.06-5.73,2.79,2.79,0,0,1,2.7,2.94A2.76,2.76,0,0,1,224.53,306.48Z" style="fill:#061a25"/><path d="M147.8,134.4a2.89,2.89,0,0,1,0,5.76,2.89,2.89,0,0,1,0-5.76Z" style="fill:#061a25"/><path d="M214.48,226.81a2.72,2.72,0,1,1-2.79-2.83A2.75,2.75,0,0,1,214.48,226.81Z" style="fill:#061a25"/><path d="M173.39,121.63a2.71,2.71,0,0,1,2.7,2.81,2.74,2.74,0,0,1-2.7,2.91,2.87,2.87,0,0,1,0-5.73Z" style="fill:#061a25"/><path d="M122.18,306.48a2.87,2.87,0,0,1,.08-5.73,2.87,2.87,0,0,1-.08,5.73Z" style="fill:#061a25"/><path d="M176.09,303.59a2.72,2.72,0,1,1-5.43.07,2.8,2.8,0,0,1,2.74-2.91A2.74,2.74,0,0,1,176.09,303.59Z" style="fill:#061a25"/><path d="M99.35,226.89a2.8,2.8,0,0,1-2.72,2.84,2.88,2.88,0,1,1,2.72-2.84Z" style="fill:#061a25"/><path d="M262.95,121.63a2.73,2.73,0,0,1,2.71,2.81,2.72,2.72,0,1,1-2.71-2.81Z" style="fill:#061a25"/><path d="M240.06,124.46a2.75,2.75,0,0,1-2.72,2.9,2.87,2.87,0,0,1-.06-5.73A2.71,2.71,0,0,1,240.06,124.46Z" style="fill:#061a25"/><path d="M224.6,313.56a2.87,2.87,0,1,1-2.74,2.78A2.71,2.71,0,0,1,224.6,313.56Z" style="fill:#061a25"/><path d="M183.49,316.45a2.71,2.71,0,0,1,2.71-2.89,2.79,2.79,0,0,1,2.72,2.82,2.82,2.82,0,0,1-2.74,2.91A2.75,2.75,0,0,1,183.49,316.45Z" style="fill:#061a25"/><path d="M201.69,73.27A2.72,2.72,0,1,1,199,70.43,2.78,2.78,0,0,1,201.69,73.27Z" style="fill:#061a25"/><path d="M214.48,265.27a2.72,2.72,0,1,1-2.72-2.91A2.76,2.76,0,0,1,214.48,265.27Z" style="fill:#061a25"/><path d="M160.64,89a2.86,2.86,0,0,1-.07-5.71,2.86,2.86,0,0,1,.07,5.71Z" style="fill:#061a25"/><path d="M145.1,265.23a2.76,2.76,0,0,1,2.67-2.88,2.82,2.82,0,0,1,2.77,2.89,2.72,2.72,0,1,1-5.43,0Z" style="fill:#061a25"/><path d="M201.69,86.11A2.72,2.72,0,1,1,199,83.25,2.72,2.72,0,0,1,201.69,86.11Z" style="fill:#061a25"/><path d="M112.13,265.25a2.75,2.75,0,0,1-2.68,2.86,2.89,2.89,0,1,1,2.68-2.86Z" style="fill:#061a25"/><path d="M224.55,89a2.86,2.86,0,0,1,0-5.71,2.86,2.86,0,0,1,0,5.71Z" style="fill:#061a25"/><path d="M301.36,249.58a2.87,2.87,0,0,1-.07,5.73,2.78,2.78,0,0,1-2.69-2.86A2.75,2.75,0,0,1,301.36,249.58Z" style="fill:#061a25"/><path d="M285.83,252.46a2.71,2.71,0,0,1,2.72-2.88,2.78,2.78,0,0,1,2.71,2.84,2.8,2.8,0,0,1-2.75,2.9A2.75,2.75,0,0,1,285.83,252.46Z" style="fill:#061a25"/><path d="M237.38,249.58a2.87,2.87,0,0,1,0,5.73,2.79,2.79,0,0,1-2.7-2.94A2.75,2.75,0,0,1,237.38,249.58Z" style="fill:#061a25"/><path d="M224.63,249.58a2.87,2.87,0,1,1-2.77,2.75A2.71,2.71,0,0,1,224.63,249.58Z" style="fill:#061a25"/><path d="M160.55,249.58a2.75,2.75,0,0,1,2.77,2.86,2.79,2.79,0,0,1-2.67,2.88,2.87,2.87,0,0,1-.1-5.73Z" style="fill:#061a25"/><path d="M214.49,98.88A2.72,2.72,0,1,1,211.71,96,2.76,2.76,0,0,1,214.49,98.88Z" style="fill:#061a25"/><path d="M278.45,98.93A2.72,2.72,0,1,1,275.73,96,2.75,2.75,0,0,1,278.45,98.93Z" style="fill:#061a25"/><path d="M122.18,114.55a2.71,2.71,0,0,1-2.66-2.85,2.74,2.74,0,0,1,2.74-2.88,2.81,2.81,0,0,1,2.7,2.87A2.77,2.77,0,0,1,122.18,114.55Z" style="fill:#061a25"/><path d="M157.89,239.53a2.74,2.74,0,0,1,2.78-2.75,2.8,2.8,0,0,1,2.65,3,2.72,2.72,0,1,1-5.43-.24Z" style="fill:#061a25"/><path d="M119.52,239.56a2.72,2.72,0,0,1,2.74-2.79,2.87,2.87,0,0,1-.08,5.73A2.7,2.7,0,0,1,119.52,239.56Z" style="fill:#061a25"/><path d="M224.58,114.55a2.71,2.71,0,0,1-2.72-2.8,2.75,2.75,0,0,1,2.69-2.94,2.81,2.81,0,0,1,2.74,2.91A2.76,2.76,0,0,1,224.58,114.55Z" style="fill:#061a25"/><path d="M240.06,111.66a2.73,2.73,0,0,1-2.71,2.9,2.76,2.76,0,0,1-2.72-2.82,2.72,2.72,0,1,1,5.43-.08Z" style="fill:#061a25"/><path d="M93.92,124.48a2.72,2.72,0,1,1,5.43,0,2.72,2.72,0,1,1-5.43,0Z" style="fill:#061a25"/><path d="M112.13,124.49a2.74,2.74,0,0,1-2.76,2.86,2.87,2.87,0,0,1,.1-5.73A2.74,2.74,0,0,1,112.13,124.49Z" style="fill:#061a25"/><path d="M260.23,162.92a2.72,2.72,0,1,1,2.71,2.84A2.78,2.78,0,0,1,260.23,162.92Z" style="fill:#061a25"/><path d="M99.35,201.25a2.72,2.72,0,1,1-2.69-2.87A2.81,2.81,0,0,1,99.35,201.25Z" style="fill:#061a25"/><path d="M112.13,201.32a2.74,2.74,0,0,1-2.72,2.81,2.88,2.88,0,1,1,2.72-2.81Z" style="fill:#061a25"/><path d="M122.16,178.53a2.87,2.87,0,0,1,.12-5.73,2.87,2.87,0,0,1-.12,5.73Z" style="fill:#061a25"/><path d="M214.48,162.9a2.72,2.72,0,1,1-2.64-2.9A2.78,2.78,0,0,1,214.48,162.9Z" style="fill:#061a25"/><path d="M265.66,188.44a2.72,2.72,0,1,1-5.43,0,2.72,2.72,0,1,1,5.43,0Z" style="fill:#061a25"/><path d="M250.16,185.61a2.87,2.87,0,0,1,0,5.73,2.87,2.87,0,0,1,0-5.73Z" style="fill:#061a25"/><path d="M214.48,290.84a2.72,2.72,0,1,1-2.65-2.89A2.78,2.78,0,0,1,214.48,290.84Z" style="fill:#061a25"/><path d="M214.48,201.22a2.72,2.72,0,1,1-2.71-2.84A2.77,2.77,0,0,1,214.48,201.22Z" style="fill:#061a25"/><path d="M240.06,188.48a2.75,2.75,0,0,1-2.68,2.86,2.87,2.87,0,0,1-.05-5.73A2.71,2.71,0,0,1,240.06,188.48Z" style="fill:#061a25"/><path d="M288.54,152.93a2.86,2.86,0,0,1,0-5.71,2.86,2.86,0,0,1,0,5.71Z" style="fill:#061a25"/><path d="M265.66,201.22a2.72,2.72,0,1,1-2.71-2.85A2.79,2.79,0,0,1,265.66,201.22Z" style="fill:#061a25"/><path d="M224.55,152.93a2.86,2.86,0,0,1,0-5.71,2.86,2.86,0,0,1,0,5.71Z" style="fill:#061a25"/><path d="M221.86,188.51a2.72,2.72,0,0,1,2.7-2.9,2.76,2.76,0,0,1,2.73,2.81,2.79,2.79,0,0,1-2.73,2.92A2.73,2.73,0,0,1,221.86,188.51Z" style="fill:#061a25"/><path d="M137.72,175.69a2.72,2.72,0,1,1-5.43,0,2.79,2.79,0,0,1,2.7-2.85A2.76,2.76,0,0,1,137.72,175.69Z" style="fill:#061a25"/><path d="M263,178.53a2.73,2.73,0,0,1-2.75-2.86,2.72,2.72,0,1,1,2.75,2.86Z" style="fill:#061a25"/><path d="M99.35,214.06a2.72,2.72,0,1,1-2.76-2.86A2.73,2.73,0,0,1,99.35,214.06Z" style="fill:#061a25"/><path d="M137.72,188.44a2.72,2.72,0,1,1-2.78-2.84A2.74,2.74,0,0,1,137.72,188.44Z" style="fill:#061a25"/><path d="M112.13,290.85a2.77,2.77,0,0,1-2.69,2.85,2.82,2.82,0,0,1-2.74-2.91,2.72,2.72,0,1,1,5.43.06Z" style="fill:#061a25"/><path d="M224.54,178.53a2.72,2.72,0,0,1-2.68-2.93,2.75,2.75,0,0,1,2.73-2.8,2.8,2.8,0,0,1,2.7,2.95A2.74,2.74,0,0,1,224.54,178.53Z" style="fill:#061a25"/><path d="M55.55,188.49a2.71,2.71,0,0,1,2.72-2.88A2.77,2.77,0,0,1,61,188.44a2.83,2.83,0,0,1-2.75,2.91A2.74,2.74,0,0,1,55.55,188.49Z" style="fill:#061a25"/><path d="M96.59,147.23a2.86,2.86,0,1,1-2.67,2.85A2.73,2.73,0,0,1,96.59,147.23Z" style="fill:#061a25"/><path d="M240,316.45a2.78,2.78,0,0,1-2.77,2.75,2.7,2.7,0,0,1-2.67-2.91,2.74,2.74,0,0,1,2.71-2.81A2.78,2.78,0,0,1,240,316.45Z" style="fill:#061a25"/><path d="M58.21,178.53a2.87,2.87,0,0,1,.09-5.73,2.87,2.87,0,0,1-.09,5.73Z" style="fill:#061a25"/><path d="M109.45,178.53a2.76,2.76,0,0,1-2.75-2.88,2.8,2.8,0,0,1,2.7-2.86,2.76,2.76,0,0,1,2.73,2.89A2.72,2.72,0,0,1,109.45,178.53Z" style="fill:#061a25"/><path d="M176.09,316.48a2.75,2.75,0,0,1-2.72,2.82,2.79,2.79,0,0,1-2.71-2.93,2.72,2.72,0,1,1,5.43.11Z" style="fill:#061a25"/><path d="M250.14,178.53a2.71,2.71,0,0,1-2.68-2.83,2.75,2.75,0,0,1,2.72-2.91,2.87,2.87,0,0,1,0,5.73Z" style="fill:#061a25"/><path d="M109.43,249.58a2.71,2.71,0,0,1,2.7,2.82,2.75,2.75,0,0,1-2.71,2.92,2.87,2.87,0,0,1,0-5.73Z" style="fill:#061a25"/><path d="M122.19,249.58a2.77,2.77,0,0,1,2.76,2.87,2.81,2.81,0,0,1-2.69,2.86,2.87,2.87,0,0,1-.07-5.73Z" style="fill:#061a25"/><path d="M186.13,275.18a2.86,2.86,0,0,1,.11,5.7,2.86,2.86,0,0,1-.11-5.7Z" style="fill:#061a25"/><path d="M314.08,178.53a2.87,2.87,0,0,1,.08-5.73,2.82,2.82,0,0,1,2.69,2.87A2.78,2.78,0,0,1,314.08,178.53Z" style="fill:#061a25"/><path d="M112.13,188.46a2.74,2.74,0,0,1-2.65,2.88,2.87,2.87,0,0,1,0-5.73A2.72,2.72,0,0,1,112.13,188.46Z" style="fill:#061a25"/><path d="M173.38,249.58a2.72,2.72,0,0,1,2.71,2.81,2.76,2.76,0,0,1-2.7,2.92,2.8,2.8,0,0,1-2.73-2.82A2.76,2.76,0,0,1,173.38,249.58Z" style="fill:#061a25"/><path d="M119.52,188.43a2.72,2.72,0,0,1,2.7-2.82,2.87,2.87,0,0,1,0,5.73A2.73,2.73,0,0,1,119.52,188.43Z" style="fill:#061a25"/><path d="M183.49,252.39a2.7,2.7,0,0,1,2.79-2.81,2.87,2.87,0,0,1-.09,5.73A2.75,2.75,0,0,1,183.49,252.39Z" style="fill:#061a25"/><path d="M201.69,303.58a2.72,2.72,0,1,1-2.72-2.83A2.75,2.75,0,0,1,201.69,303.58Z" style="fill:#061a25"/><path d="M176.09,175.67a2.73,2.73,0,0,1-2.75,2.86,2.87,2.87,0,1,1,2.75-2.86Z" style="fill:#061a25"/><path d="M173.38,185.61a2.87,2.87,0,0,1,0,5.73,2.87,2.87,0,0,1,0-5.73Z" style="fill:#061a25"/><path d="M183.49,188.42a2.69,2.69,0,0,1,2.7-2.81,2.87,2.87,0,0,1,0,5.73A2.73,2.73,0,0,1,183.49,188.42Z" style="fill:#061a25"/><path d="M247.45,214a2.7,2.7,0,0,1,2.72-2.79,2.86,2.86,0,0,1,0,5.71A2.7,2.7,0,0,1,247.45,214Z" style="fill:#061a25"/><path d="M201.69,214.07a2.72,2.72,0,1,1-2.75-2.87A2.73,2.73,0,0,1,201.69,214.07Z" style="fill:#061a25"/><path d="M201.69,124.44a2.72,2.72,0,1,1-2.8-2.81A2.72,2.72,0,0,1,201.69,124.44Z" style="fill:#061a25"/><path d="M250.13,152.93a2.86,2.86,0,0,1,0-5.71,2.86,2.86,0,0,1,0,5.71Z" style="fill:#061a25"/><path d="M112.13,162.91a2.78,2.78,0,0,1-2.69,2.85,2.88,2.88,0,0,1,0-5.76A2.75,2.75,0,0,1,112.13,162.91Z" style="fill:#061a25"/><path d="M112.13,239.68a2.72,2.72,0,0,1-2.7,2.82,2.87,2.87,0,1,1,2.7-2.82Z" style="fill:#061a25"/><path d="M145.1,162.75A2.73,2.73,0,0,1,148,160a2.81,2.81,0,0,1,2.55,3,2.72,2.72,0,1,1-5.43-.25Z" style="fill:#061a25"/><path d="M250.11,242.5a2.87,2.87,0,0,1,.08-5.73,2.87,2.87,0,0,1-.08,5.73Z" style="fill:#061a25"/><path d="M186.19,242.5a2.7,2.7,0,0,1-2.7-2.9,2.74,2.74,0,0,1,2.7-2.83,2.82,2.82,0,0,1,2.74,2.92A2.78,2.78,0,0,1,186.19,242.5Z" style="fill:#061a25"/><path d="M173.42,114.55a2.77,2.77,0,0,1-2.75-2.88,2.81,2.81,0,0,1,2.7-2.86,2.87,2.87,0,0,1,0,5.74Z" style="fill:#061a25"/><path d="M240.06,239.61a2.72,2.72,0,1,1-5.43.08,2.8,2.8,0,0,1,2.73-2.91A2.75,2.75,0,0,1,240.06,239.61Z" style="fill:#061a25"/><path d="M109.42,280.88a2.86,2.86,0,0,1,0-5.71,2.86,2.86,0,0,1,0,5.71Z" style="fill:#061a25"/><path d="M240.06,214a2.7,2.7,0,0,1-2.73,2.87,2.74,2.74,0,0,1-2.7-2.83,2.78,2.78,0,0,1,2.67-2.87A2.71,2.71,0,0,1,240.06,214Z" style="fill:#061a25"/><path d="M278.45,175.67a2.72,2.72,0,1,1-5.43,0,2.72,2.72,0,1,1,5.43,0Z" style="fill:#061a25"/><path d="M147.83,114.55a2.73,2.73,0,0,1-2.73-2.89,2.76,2.76,0,0,1,2.69-2.85,2.79,2.79,0,0,1,2.74,2.9A2.75,2.75,0,0,1,147.83,114.55Z" style="fill:#061a25"/><path d="M145.09,316.44a2.72,2.72,0,1,1,5.43,0,2.8,2.8,0,0,1-2.66,2.89A2.74,2.74,0,0,1,145.09,316.44Z" style="fill:#061a25"/><path d="M122.22,89a2.86,2.86,0,0,1,0-5.71,2.86,2.86,0,0,1,0,5.71Z" style="fill:#061a25"/><path d="M250.13,306.48a2.87,2.87,0,0,1,0-5.73,2.87,2.87,0,0,1,0,5.73Z" style="fill:#061a25"/><path d="M186.24,89a2.68,2.68,0,0,1-2.75-2.75,2.73,2.73,0,0,1,2.65-3,2.86,2.86,0,0,1,.1,5.71Z" style="fill:#061a25"/><path d="M145.1,226.82a2.71,2.71,0,1,1,5.41.06,2.79,2.79,0,0,1-2.7,2.85A2.76,2.76,0,0,1,145.1,226.82Z" style="fill:#061a25"/><path d="M240.06,86.09A2.7,2.7,0,0,1,237.32,89a2.86,2.86,0,0,1,.07-5.7A2.7,2.7,0,0,1,240.06,86.09Z" style="fill:#061a25"/><path d="M183.49,124.53a2.7,2.7,0,0,1,2.6-2.9,2.78,2.78,0,0,1,2.83,2.81,2.84,2.84,0,0,1-2.74,2.93A2.73,2.73,0,0,1,183.49,124.53Z" style="fill:#061a25"/><path d="M275.74,249.58a2.74,2.74,0,0,1,2.7,2.91,2.72,2.72,0,1,1-2.7-2.91Z" style="fill:#061a25"/><path d="M176.09,239.69a2.72,2.72,0,0,1-2.7,2.82,2.76,2.76,0,0,1-2.73-2.9,2.8,2.8,0,0,1,2.72-2.84A2.75,2.75,0,0,1,176.09,239.69Z" style="fill:#061a25"/><path d="M83.88,178.53a2.87,2.87,0,0,1-.07-5.73,2.87,2.87,0,0,1,.07,5.73Z" style="fill:#061a25"/><path d="M186.21,306.48a2.7,2.7,0,0,1-2.73-2.87,2.74,2.74,0,0,1,2.67-2.86,2.87,2.87,0,0,1,.05,5.73Z" style="fill:#061a25"/><path d="M119.52,278a2.69,2.69,0,0,1,2.68-2.82,2.86,2.86,0,0,1,0,5.71A2.69,2.69,0,0,1,119.52,278Z" style="fill:#061a25"/><path d="M83.88,249.58a2.87,2.87,0,0,1-.09,5.73,2.75,2.75,0,0,1-2.66-2.88A2.71,2.71,0,0,1,83.88,249.58Z" style="fill:#061a25"/><path d="M211.79,313.56a2.87,2.87,0,0,1,0,5.74,2.87,2.87,0,0,1,0-5.74Z" style="fill:#061a25"/><path d="M211.74,114.55a2.75,2.75,0,0,1-2.69-2.84,2.8,2.8,0,0,1,2.75-2.9,2.87,2.87,0,0,1-.06,5.74Z" style="fill:#061a25"/><path d="M173.42,280.88a2.86,2.86,0,0,1,0-5.71,2.69,2.69,0,0,1,2.73,2.78A2.72,2.72,0,0,1,173.42,280.88Z" style="fill:#061a25"/><path d="M186.14,216.91a2.71,2.71,0,0,1-2.66-2.94,2.69,2.69,0,0,1,2.74-2.76,2.86,2.86,0,0,1-.08,5.71Z" style="fill:#061a25"/><path d="M176.1,214a2.71,2.71,0,0,1-2.74,2.86,2.86,2.86,0,0,1,0-5.71A2.71,2.71,0,0,1,176.1,214Z" style="fill:#061a25"/><path d="M112.13,150.05a2.72,2.72,0,1,1-5.43.06,2.78,2.78,0,0,1,2.65-2.89A2.72,2.72,0,0,1,112.13,150.05Z" style="fill:#061a25"/><path d="M278.45,111.72a2.72,2.72,0,0,1-2.78,2.84,2.87,2.87,0,1,1,2.78-2.84Z" style="fill:#061a25"/><path d="M119.52,214a2.69,2.69,0,0,1,2.72-2.79,2.86,2.86,0,0,1,0,5.71A2.7,2.7,0,0,1,119.52,214Z" style="fill:#061a25"/><path d="M214.48,175.76a2.72,2.72,0,1,1-5.43-.18,2.72,2.72,0,1,1,5.43.18Z" style="fill:#061a25"/><path d="M240.06,150.08a2.71,2.71,0,0,1-2.75,2.85,2.86,2.86,0,0,1,0-5.71A2.7,2.7,0,0,1,240.06,150.08Z" style="fill:#061a25"/><path d="M81.14,188.46a2.72,2.72,0,0,1,2.76-2.85,2.87,2.87,0,0,1,0,5.73A2.73,2.73,0,0,1,81.14,188.46Z" style="fill:#061a25"/><path d="M176.1,86.11A2.7,2.7,0,0,1,173.43,89a2.85,2.85,0,0,1,0-5.71A2.71,2.71,0,0,1,176.1,86.11Z" style="fill:#061a25"/><path d="M250.12,121.63a2.77,2.77,0,0,1,2.77,2.86,2.8,2.8,0,0,1-2.69,2.86,2.87,2.87,0,0,1-.08-5.73Z" style="fill:#061a25"/><path d="M211.79,249.58a2.75,2.75,0,0,1,2.7,2.83,2.72,2.72,0,1,1-5.43.06A2.74,2.74,0,0,1,211.79,249.58Z" style="fill:#061a25"/><path d="M112.13,214a2.72,2.72,0,0,1-2.71,2.89,2.86,2.86,0,0,1,0-5.71A2.72,2.72,0,0,1,112.13,214Z" style="fill:#061a25"/><path d="M186.24,152.93a2.68,2.68,0,0,1-2.75-2.75,2.72,2.72,0,0,1,2.65-3,2.86,2.86,0,0,1,.11,5.7Z" style="fill:#061a25"/><path d="M122.21,152.93a2.86,2.86,0,0,1,0-5.71,2.86,2.86,0,0,1,0,5.71Z" style="fill:#061a25"/><path d="M173.42,152.93a2.86,2.86,0,1,1,2.68-2.83A2.71,2.71,0,0,1,173.42,152.93Z" style="fill:#061a25"/><path d="M275.74,242.5a2.76,2.76,0,0,1-2.73-2.9,2.8,2.8,0,0,1,2.72-2.84,2.76,2.76,0,0,1,2.71,2.92A2.73,2.73,0,0,1,275.74,242.5Z" style="fill:#061a25"/><path d="M145.1,175.64a2.76,2.76,0,0,1,2.69-2.85,2.87,2.87,0,0,1,0,5.74A2.73,2.73,0,0,1,145.1,175.64Z" style="fill:#061a25"/><path d="M250.17,89a2.86,2.86,0,0,1,0-5.71,2.86,2.86,0,0,1,0,5.71Z" style="fill:#061a25"/><path d="M250.13,280.89a2.86,2.86,0,0,1,.06-5.71,2.86,2.86,0,0,1-.06,5.71Z" style="fill:#061a25"/><path d="M147.82,185.61a2.87,2.87,0,1,1-2.73,2.89A2.76,2.76,0,0,1,147.82,185.61Z" style="fill:#061a25"/><path d="M81.14,124.48a2.71,2.71,0,0,1,2.77-2.84,2.87,2.87,0,0,1,0,5.73A2.74,2.74,0,0,1,81.14,124.48Z" style="fill:#061a25"/><path d="M147.8,249.58a2.87,2.87,0,1,1-2.7,2.82A2.72,2.72,0,0,1,147.8,249.58Z" style="fill:#061a25"/><path d="M147.8,121.63a2.87,2.87,0,1,1-2.7,2.82A2.76,2.76,0,0,1,147.8,121.63Z" style="fill:#061a25"/><path d="M211.75,121.63a2.87,2.87,0,1,1-2.69,2.83A2.75,2.75,0,0,1,211.75,121.63Z" style="fill:#061a25"/><path d="M214.48,239.66a2.72,2.72,0,1,1-5.43,0,2.72,2.72,0,1,1,5.43,0Z" style="fill:#061a25"/><path d="M83.83,242.5a2.71,2.71,0,0,1-2.69-2.91,2.74,2.74,0,0,1,2.71-2.82,2.8,2.8,0,0,1,2.72,2.84A2.77,2.77,0,0,1,83.83,242.5Z" style="fill:#061a25"/><path d="M278.44,188.47a2.72,2.72,0,1,1-2.74-2.87A2.73,2.73,0,0,1,278.44,188.47Z" style="fill:#061a25"/><path d="M311.42,188.49a2.71,2.71,0,0,1,2.72-2.88,2.78,2.78,0,0,1,2.71,2.83,2.81,2.81,0,0,1-2.75,2.9A2.75,2.75,0,0,1,311.42,188.49Z" style="fill:#061a25"/><path d="M278.45,124.52a2.72,2.72,0,1,1-2.63-2.89A2.73,2.73,0,0,1,278.45,124.52Z" style="fill:#061a25"/><path d="M147.83,242.5a2.71,2.71,0,0,1-2.73-2.88,2.75,2.75,0,0,1,2.68-2.85,2.87,2.87,0,0,1,0,5.73Z" style="fill:#061a25"/><path d="M214.48,188.5a2.72,2.72,0,1,1-2.71-2.9A2.73,2.73,0,0,1,214.48,188.5Z" style="fill:#061a25"/><path d="M147.79,306.48a2.72,2.72,0,0,1-2.69-2.83,2.75,2.75,0,0,1,2.73-2.9,2.79,2.79,0,0,1,2.71,2.85A2.76,2.76,0,0,1,147.79,306.48Z" style="fill:#061a25"/><path d="M275.76,211.2a2.86,2.86,0,1,1-2.75,2.87A2.73,2.73,0,0,1,275.76,211.2Z" style="fill:#061a25"/><path d="M275.73,152.93a2.86,2.86,0,1,1,2.72-2.8A2.7,2.7,0,0,1,275.73,152.93Z" style="fill:#061a25"/><path d="M83.79,152.93a2.86,2.86,0,0,1,.1-5.71,2.86,2.86,0,0,1-.1,5.71Z" style="fill:#061a25"/><path d="M275.7,280.88a2.86,2.86,0,1,1,2.74-2.77A2.7,2.7,0,0,1,275.7,280.88Z" style="fill:#061a25"/><path d="M211.81,306.48a2.87,2.87,0,0,1-.07-5.73,2.87,2.87,0,0,1,.07,5.73Z" style="fill:#061a25"/><path d="M314.08,216.91a2.86,2.86,0,0,1,.08-5.71,2.86,2.86,0,0,1-.08,5.71Z" style="fill:#061a25"/><path d="M147.78,89a2.86,2.86,0,0,1,.05-5.71,2.86,2.86,0,0,1-.05,5.71Z" style="fill:#061a25"/><path d="M147.83,280.89a2.86,2.86,0,0,1,0-5.71,2.86,2.86,0,0,1,0,5.71Z" style="fill:#061a25"/><path d="M83.84,216.91a2.86,2.86,0,0,1,0-5.71,2.86,2.86,0,0,1,0,5.71Z" style="fill:#061a25"/><path d="M147.78,152.93a2.86,2.86,0,0,1,0-5.71,2.86,2.86,0,0,1,0,5.71Z" style="fill:#061a25"/><path d="M147.81,216.91a2.86,2.86,0,0,1,0-5.71,2.86,2.86,0,0,1,0,5.71Z" style="fill:#061a25"/><path d="M211.9,83.25a2.75,2.75,0,0,1,2.58,2.94A2.71,2.71,0,0,1,211.64,89,2.75,2.75,0,0,1,209.06,86,2.72,2.72,0,0,1,211.9,83.25Z" style="fill:#061a25"/><path d="M211.82,275.18a2.86,2.86,0,1,1-2.77,2.85A2.75,2.75,0,0,1,211.82,275.18Z" style="fill:#061a25"/><path d="M211.83,152.93a2.86,2.86,0,1,1,2.66-2.87A2.75,2.75,0,0,1,211.83,152.93Z" style="fill:#061a25"/><path d="M211.79,216.91a2.86,2.86,0,1,1,2.7-2.82A2.71,2.71,0,0,1,211.79,216.91Z" style="fill:#061a25"/><path d="M209.41,328.34a1.87,1.87,0,0,1,1.91-1.87,2,2,0,0,1-.19,3.92A1.89,1.89,0,0,1,209.41,328.34Z" style="fill:#061a25"/><path d="M62.08,239.18a1.91,1.91,0,0,1-2,1.83,2,2,0,0,1-2-1.85,2,2,0,0,1,2-1.89A2,2,0,0,1,62.08,239.18Z" style="fill:#061a25"/><path d="M300.2,262.9a2,2,0,0,1,2,1.85,1.91,1.91,0,0,1-1.91,1.89,2,2,0,0,1-2-1.88A2,2,0,0,1,300.2,262.9Z" style="fill:#061a25"/><path d="M72.15,266.63a1.87,1.87,0,1,1,1.93-1.87A1.91,1.91,0,0,1,72.15,266.63Z" style="fill:#061a25"/><path d="M197,62.57a1.87,1.87,0,0,1,1.78-2,2,2,0,0,1,1.94,2,2,2,0,0,1-1.88,2A1.86,1.86,0,0,1,197,62.57Z" style="fill:#061a25"/><path d="M261,86.69a1.9,1.9,0,0,1,1.85-1.94,2,2,0,0,1-.06,3.93A1.9,1.9,0,0,1,261,86.69Z" style="fill:#061a25"/><path d="M197,328.4a1.86,1.86,0,0,1,1.85-1.93,2,2,0,0,1,1.87,2,2,2,0,0,1-1.95,2A1.87,1.87,0,0,1,197,328.4Z" style="fill:#061a25"/><path d="M223.7,326.47a2,2,0,0,1,1.89,1.94,2,2,0,0,1-1.94,2,2,2,0,0,1,0-3.93Z" style="fill:#061a25"/><path d="M160.27,326.37a2,2,0,0,1,1.9,1.92,1.92,1.92,0,0,1-1.89,2,1.86,1.86,0,0,1-1.83-1.94A1.92,1.92,0,0,1,160.27,326.37Z" style="fill:#061a25"/><path d="M109.68,84.75a2,2,0,1,1-1.85,2A1.92,1.92,0,0,1,109.68,84.75Z" style="fill:#061a25"/><path d="M121.91,71.39a2,2,0,0,1,1.91,1.91,1.92,1.92,0,0,1-1.87,2,1.86,1.86,0,0,1-1.84-1.93A1.93,1.93,0,0,1,121.91,71.39Z" style="fill:#061a25"/><path d="M223.68,60.48a2,2,0,0,1,1.91,1.92,1.92,1.92,0,0,1-1.81,2,1.88,1.88,0,0,1-1.9-1.9A2,2,0,0,1,223.68,60.48Z" style="fill:#061a25"/><path d="M160.24,64.4a1.87,1.87,0,0,1-1.79-2,1.92,1.92,0,0,1,1.86-1.94,2,2,0,0,1,1.86,2.05A1.91,1.91,0,0,1,160.24,64.4Z" style="fill:#061a25"/><path d="M174.61,328.42a1.91,1.91,0,0,1-1.83,2,2,2,0,0,1,0-3.93A1.88,1.88,0,0,1,174.61,328.42Z" style="fill:#061a25"/><path d="M188.06,328.09a1.89,1.89,0,0,1-1.87,1.94,2,2,0,0,1-1.84-2,1.92,1.92,0,0,1,1.91-1.92A1.84,1.84,0,0,1,188.06,328.09Z" style="fill:#061a25"/><path d="M147.54,329.77a1.9,1.9,0,0,1-2-1.85,2,2,0,0,1,3.93,0A1.87,1.87,0,0,1,147.54,329.77Z" style="fill:#061a25"/><path d="M251.54,316.34a1.88,1.88,0,0,1-1.88,1.91,1.93,1.93,0,0,1-2-1.86,2,2,0,0,1,3.91-.05Z" style="fill:#061a25"/><path d="M121.85,314.51a1.94,1.94,0,0,1,1.93,1.88,1.89,1.89,0,0,1-1.93,1.86,1.92,1.92,0,0,1-2-1.91A2,2,0,0,1,121.85,314.51Z" style="fill:#061a25"/><path d="M188.06,62.12a1.91,1.91,0,0,1-1.79,2,2,2,0,0,1-1.91-1.93,1.93,1.93,0,0,1,1.83-2A1.83,1.83,0,0,1,188.06,62.12Z" style="fill:#061a25"/><path d="M149.71,62.46a1.9,1.9,0,0,1-1.87,1.94,1.87,1.87,0,0,1-1.84-2,1.86,1.86,0,1,1,3.71,0Z" style="fill:#061a25"/><path d="M213.14,62.46a1.86,1.86,0,1,1-3.71,0,2,2,0,0,1,1.86-2A1.92,1.92,0,0,1,213.14,62.46Z" style="fill:#061a25"/><path d="M174.61,62.57a1.9,1.9,0,0,1-1.87,1.94,2,2,0,0,1,.06-3.93A1.89,1.89,0,0,1,174.61,62.57Z" style="fill:#061a25"/><path d="M252.21,73.33a1.86,1.86,0,1,1-3.71.05,2,2,0,0,1,1.83-2A1.92,1.92,0,0,1,252.21,73.33Z" style="fill:#061a25"/><path d="M263.06,305.21a1.87,1.87,0,0,1-1.84-2,1.86,1.86,0,1,1,3.71,0A1.9,1.9,0,0,1,263.06,305.21Z" style="fill:#061a25"/><path d="M109.62,305.21a1.88,1.88,0,0,1-1.79-2,1.92,1.92,0,0,1,1.91-1.91,1.94,1.94,0,0,1,1.79,2A1.89,1.89,0,0,1,109.62,305.21Z" style="fill:#061a25"/><path d="M314.37,239.26a1.86,1.86,0,1,1-3.71.05,2,2,0,0,1,1.83-2A1.92,1.92,0,0,1,314.37,239.26Z" style="fill:#061a25"/><path d="M71.93,126.94a1.9,1.9,0,0,1-2-1.85,2,2,0,0,1,3.93,0A1.87,1.87,0,0,1,71.93,126.94Z" style="fill:#061a25"/><path d="M300.24,126.94a1.85,1.85,0,1,1,1.93-1.87A1.86,1.86,0,0,1,300.24,126.94Z" style="fill:#061a25"/><path d="M314.37,151.16a1.86,1.86,0,1,1-3.71,0,2,2,0,0,1,1.88-2A1.92,1.92,0,0,1,314.37,151.16Z" style="fill:#061a25"/><path d="M58.91,152.93A1.87,1.87,0,0,1,57,151.06a1.9,1.9,0,0,1,2-1.82,1.88,1.88,0,0,1,1.92,1.88A1.85,1.85,0,0,1,58.91,152.93Z" style="fill:#061a25"/><path d="M35.09,267c-5.12,0-9.46-1.74-13.45-3.34-5.91-2.37-11-4.42-18.26-1.72a2.5,2.5,0,1,1-1.75-4.68c9.05-3.38,15.86-.65,21.87,1.76s11,4.42,18.26,1.72,8.94-7.21,11.07-12.49c2.24-5.57,4.78-11.88,14-15.31s15.86-.65,21.87,1.76,11,4.42,18.26,1.72S115.86,229.24,118,224c2.24-5.57,4.78-11.88,14-15.31s15.86-.65,21.87,1.76,11,4.42,18.26,1.72,8.94-7.21,11.07-12.49c2.24-5.57,4.78-11.88,14-15.31S213,183.69,219,186.1s11,4.42,18.26,1.72,8.95-7.21,11.07-12.49c2.24-5.57,4.78-11.88,14-15.31s15.86-.65,21.87,1.76,11,4.42,18.26,1.72,8.95-7.21,11.07-12.49c2.24-5.57,4.78-11.88,14-15.31s15.86-.65,21.87,1.76,11,4.42,18.27,1.72,8.95-7.21,11.07-12.49c2.24-5.57,4.78-11.88,14-15.31a2.5,2.5,0,1,1,1.75,4.68c-7.11,2.66-8.95,7.21-11.07,12.49-2.24,5.57-4.78,11.88-14,15.31s-15.87.65-21.87-1.76-11-4.42-18.27-1.72-8.95,7.21-11.07,12.49c-2.24,5.57-4.78,11.88-14,15.31s-15.86.65-21.87-1.76-11-4.42-18.26-1.72-8.95,7.21-11.07,12.49c-2.24,5.57-4.78,11.88-14,15.31s-15.86.65-21.87-1.76-11-4.42-18.26-1.72-8.94,7.21-11.07,12.49c-2.24,5.57-4.78,11.88-14,15.31s-15.86.65-21.87-1.76-11-4.42-18.26-1.72-8.94,7.21-11.06,12.49c-2.24,5.57-4.78,11.88-14,15.31s-15.86.65-21.87-1.76-11-4.42-18.26-1.72-8.94,7.21-11.07,12.49c-2.24,5.57-4.78,11.88-14,15.31A23.83,23.83,0,0,1,35.09,267Z" style="fill:#f55254"/></g></g></svg>