<svg xmlns="http://www.w3.org/2000/svg" viewBox="0 0 320.87 225.41">
    <title>
        pattern-38
    </title>
    <g id="Layer_2" data-name="Layer 2">
        <g id="Base">
            <polygon points="74.69 225.41 68.51 196.23 41.05 207.86 34.88 178.68 7.42 190.32 0 155.26 9.69 153.21 14.62 176.51 42.08 164.87 48.26 194.05 75.72 182.42 81.89 211.59 103.82 202.3 107.68 211.43 74.69 225.41" style="fill:#061a25"/>
            <polygon points="241.79 105.7 251.88 75.24 220.05 71.15 230.14 40.69 198.31 36.6 210.44 0 220.56 3.35 212.5 27.68 244.33 31.76 234.24 62.23 266.07 66.31 255.97 96.78 281.39 100.04 280.04 110.61 241.79 105.7" style="fill:#e0ed3a"/>
            <circle cx="305.86" cy="196.94" r="15.01" style="fill:#061a25" transform="translate(-10.21 377.05) rotate(-62.45)"/>
        </g>
    </g>
</svg>
