<svg xmlns="http://www.w3.org/2000/svg" xmlns:xlink="http://www.w3.org/1999/xlink" viewBox="0 0 205.29 102.34"><defs><linearGradient id="New_Gradient_Swatch" x1="706.6" y1="-277.25" x2="819.92" y2="-277.25" gradientTransform="translate(-715.54 25.41) rotate(20.23)" gradientUnits="userSpaceOnUse"><stop offset="0" stop-color="#ff512f"/><stop offset="1" stop-color="#dd2476"/></linearGradient><linearGradient id="New_Gradient_Swatch-2" x1="696.53" y1="-252.87" x2="861.04" y2="-252.87" xlink:href="#New_Gradient_Swatch"/></defs><title>pattern-40</title><g id="Layer_2" data-name="Layer 2"><g id="Base"><path d="M26.41,57.7c5.84-2.37,8.74,3.22,14.58.84s2.94-8,8.78-10.34,8.74,3.22,14.58.84,2.94-8,8.78-10.34,8.74,3.22,14.58.84,2.94-8,8.78-10.34,8.74,3.22,14.58.84,2.94-8,8.78-10.34,8.74,3.22,14.58.84,2.94-8,8.78-10.34,8.74,3.22,14.59.84,2.94-8,8.78-10.34" style="fill:none;stroke-linecap:round;stroke-miterlimit:10;stroke-width:1.4649832248687744px;stroke:url(#New_Gradient_Swatch)"/><path d="M1.83,98.43c8.4-3.41,12.57,4.63,21,1.21S27,88.19,35.43,84.78,48,89.4,56.41,86,60.63,74.54,69,71.12s12.57,4.63,21,1.21,4.23-11.45,12.63-14.87,12.57,4.63,21,1.21,4.23-11.45,12.63-14.87,12.57,4.63,21,1.21,4.23-11.45,12.63-14.87,12.57,4.63,21,1.21,4.23-11.45,12.63-14.87" style="fill:none;stroke-linecap:round;stroke-miterlimit:10;stroke-width:3.662458062171936px;stroke:url(#New_Gradient_Swatch-2)"/></g></g></svg>