<svg xmlns="http://www.w3.org/2000/svg" xmlns:xlink="http://www.w3.org/1999/xlink" viewBox="0 0 178.57 218.82"><defs><linearGradient id="linear-gradient" x1="26.56" y1="201.2" x2="61.8" y2="201.2" gradientUnits="userSpaceOnUse"><stop offset="0" stop-color="#0cebeb"/><stop offset="0.5" stop-color="#20e3b2"/><stop offset="1" stop-color="#29ffc6"/></linearGradient></defs><title>pattern-1.7</title><g id="Layer_2" data-name="Layer 2"><g id="Layer_1-2" data-name="Layer 1"><circle cx="44.18" cy="201.2" r="17.62" style="fill:url(#linear-gradient)"/><path d="M145.13,1h0a32.8,32.8,0,0,1,32.4,32.4,2.41,2.41,0,0,1-.65,1.79,2.8,2.8,0,0,1-2,.76,2.55,2.55,0,0,1-2.74-2.58,27.29,27.29,0,0,0-27-27,2.56,2.56,0,0,1-2.58-2.75A2.46,2.46,0,0,1,145.13,1m0-1c-4.71,0-4.69,7.34.05,7.39a26.29,26.29,0,0,1,26,26A3.54,3.54,0,0,0,174.91,37a3.44,3.44,0,0,0,3.65-3.57A33.8,33.8,0,0,0,145.18,0Z" style="fill:#f68d5d"/><circle cx="7.51" cy="68.01" r="7.51" style="fill:#061a25"/></g></g></svg>