<svg xmlns="http://www.w3.org/2000/svg" xmlns:xlink="http://www.w3.org/1999/xlink" viewBox="0 0 247.83 283.96" preserveAspectRatio="xMinYMin meet" class="svg-content">
    <defs>
        <linearGradient id="New_Gradient_Swatch_1" x1="1570.24" x2="1782.11" y1="-1455.47" y2="-1455.47" gradientTransform="translate(-1534.29 1561.41)" gradientUnits="userSpaceOnUse">
            <stop offset="0" stop-color="#e0ed3a"/>
            <stop offset="1" stop-color="#4ff0d6"/>
        </linearGradient>
        <linearGradient id="New_Gradient_Swatch" x1="141.78" x2="174.83" y1="144.9" y2="144.9" gradientUnits="userSpaceOnUse">
            <stop offset="0" stop-color="#0ceaea"/>
            <stop offset="0.5" stop-color="#20e2b1"/>
            <stop offset="1" stop-color="#29ffc5"/>
        </linearGradient>
        <linearGradient id="New_Gradient_Swatch-2" x1="115.33" x2="148.38" y1="247.46" y2="247.46" xlink:href="#New_Gradient_Swatch"/>
        <linearGradient id="New_Gradient_Swatch-3" x1="143.37" x2="176.42" y1="79.38" y2="79.38" xlink:href="#New_Gradient_Swatch"/>
        <linearGradient id="New_Gradient_Swatch-4" x1="69.83" x2="171.41" y1="152.56" y2="152.56" xlink:href="#New_Gradient_Swatch"/>
        <linearGradient id="New_Gradient_Swatch-5" x1="6.11" x2="107.69" y1="117.35" y2="117.35" xlink:href="#New_Gradient_Swatch"/>
        <linearGradient id="New_Gradient_Swatch-6" x1="46.37" x2="179.82" y1="217.07" y2="217.07" xlink:href="#New_Gradient_Swatch"/>
        <linearGradient id="New_Gradient_Swatch-7" x1="35.08" x2="87.49" y1="167.47" y2="167.47" xlink:href="#New_Gradient_Swatch"/>
    </defs>
    <title>
        pattern-1.4
    </title>
    <g id="Layer_2" data-name="Layer 2">
        <g id="Layer_1-2" data-name="Layer 1">
            <circle cx="141.89" cy="105.94" r="105.94" style="fill:url(#New_Gradient_Swatch_1)" transform="translate(-33.35 131.36) rotate(-45)"/>
            <path d="M145.07,161.43a3.28,3.28,0,0,1-2.32-5.61l26.48-26.48a3.28,3.28,0,0,1,4.64,4.64l-26.48,26.48A3.27,3.27,0,0,1,145.07,161.43Z" style="fill:url(#New_Gradient_Swatch)"/>
            <circle cx="145.07" cy="158.14" r="3.15" style="fill:#f55254"/>
            <path d="M145.07,155.16a3,3,0,1,1-3,3,3,3,0,0,1,3-3m0-.33a3.31,3.31,0,1,0,3.31,3.31,3.31,3.31,0,0,0-3.31-3.31Z" style="fill:#4ff0d6"/>
            <path d="M118.62,264a3.28,3.28,0,0,1-2.32-5.61l26.48-26.48a3.28,3.28,0,0,1,4.64,4.64L120.94,263A3.27,3.27,0,0,1,118.62,264Z" style="fill:url(#New_Gradient_Swatch-2)"/>
            <circle cx="118.62" cy="260.7" r="3.15" style="fill:#f55254"/>
            <path d="M118.62,257.71a3,3,0,1,1-3,3,3,3,0,0,1,3-3m0-.33a3.31,3.31,0,1,0,3.31,3.31,3.31,3.31,0,0,0-3.31-3.31Z" style="fill:#4ff0d6"/>
            <path d="M146.65,95.9a3.28,3.28,0,0,1-2.32-5.61l26.48-26.48a3.28,3.28,0,1,1,4.64,4.64L149,94.94A3.27,3.27,0,0,1,146.65,95.9Z" style="fill:url(#New_Gradient_Swatch-3)"/>
            <circle cx="146.65" cy="92.62" r="3.15" style="fill:#f55254"/>
            <path d="M146.65,89.63a3,3,0,1,1-3,3,3,3,0,0,1,3-3m0-.33A3.31,3.31,0,1,0,150,92.62a3.31,3.31,0,0,0-3.31-3.31Z" style="fill:#4ff0d6"/>
            <circle cx="107.69" cy="108.23" r="2.04" style="fill:#f55254"/>
            <circle cx="56.9" cy="79.38" r="2.04" style="fill:#f55254"/>
            <circle cx="121.93" cy="185.37" r="2.04" style="fill:#f55254"/>
            <circle cx="61.29" cy="235.52" r="2.04" style="fill:#f55254"/>
            <circle cx="2.04" cy="215.03" r="2.04" style="fill:#f55254"/>
            <circle cx="159.89" cy="217.07" r="2.04" style="fill:#f55254"/>
            <circle cx="196" cy="123.56" r="2.04" style="fill:#f55254"/>
            <path d="M73.12,203.35a3.28,3.28,0,0,1-2.32-5.61l95-95a3.28,3.28,0,0,1,4.64,4.64l-95,95A3.27,3.27,0,0,1,73.12,203.35Z" style="fill:url(#New_Gradient_Swatch-4)"/>
            <path d="M73.12,203.22a3.15,3.15,0,1,1,1.15-.22A3.13,3.13,0,0,1,73.12,203.22Z" style="fill:#f55254"/>
            <path d="M73.11,197.08h0a3,3,0,1,1-1.09.21,3,3,0,0,1,1.09-.21m0-.33a3.32,3.32,0,1,0,3.09,2.11,3.31,3.31,0,0,0-3.09-2.11Z" style="fill:#4ff0d6"/>
            <path d="M9.4,168.14a3.28,3.28,0,0,1-2.32-5.61l95-95a3.28,3.28,0,0,1,4.64,4.64l-95,95A3.27,3.27,0,0,1,9.4,168.14Z" style="fill:url(#New_Gradient_Swatch-5)"/>
            <path d="M9.4,168a3.15,3.15,0,1,1,1.15-.22A3.13,3.13,0,0,1,9.4,168Z" style="fill:#f55254"/>
            <path d="M9.4,161.87h0a3,3,0,1,1-1.09.21,3,3,0,0,1,1.09-.21m0-.33a3.32,3.32,0,1,0,3.09,2.11,3.31,3.31,0,0,0-3.09-2.11Z" style="fill:#4ff0d6"/>
            <path d="M47.68,283.79a1.31,1.31,0,0,1-.93-2.24L177.58,150.72a1.31,1.31,0,0,1,1.86,1.86L48.61,283.41A1.31,1.31,0,0,1,47.68,283.79Z" style="fill:url(#New_Gradient_Swatch-6)"/>
            <circle cx="47.52" cy="282.64" r="1.32" style="fill:#f55254"/>
            <path d="M36.39,193.68a1.31,1.31,0,0,1-.93-2.24l49.79-49.79a1.31,1.31,0,0,1,1.86,1.86L37.32,193.29A1.31,1.31,0,0,1,36.39,193.68Z" style="fill:url(#New_Gradient_Swatch-7)"/>
            <circle cx="36.38" cy="192.38" r="1.32" style="fill:#f55254"/>
        </g>
    </g>
</svg>
