<svg xmlns="http://www.w3.org/2000/svg" xmlns:xlink="http://www.w3.org/1999/xlink" viewBox="0 0 392.96 371.5"><defs><linearGradient id="New_Gradient_Swatch_3" x1="1844.35" y1="496.28" x2="1955.84" y2="496.28" gradientTransform="translate(-1409.64 -708.29) rotate(14.78)" gradientUnits="userSpaceOnUse"><stop offset="0" stop-color="#dfec3a"/><stop offset="1" stop-color="#4ff0d6"/></linearGradient><linearGradient id="New_Gradient_Swatch_3-2" x1="1726.25" y1="487.76" x2="1880.27" y2="487.76" xlink:href="#New_Gradient_Swatch_3"/><linearGradient id="New_Gradient_Swatch_3-3" x1="1785.75" y1="355.34" x2="1864.94" y2="355.34" xlink:href="#New_Gradient_Swatch_3"/><linearGradient id="New_Gradient_Swatch_3-4" x1="1633.9" y1="461.8" x2="1933.05" y2="461.8" xlink:href="#New_Gradient_Swatch_3"/><linearGradient id="New_Gradient_Swatch_3-5" x1="1605.8" y1="375.36" x2="1883.75" y2="375.36" xlink:href="#New_Gradient_Swatch_3"/><linearGradient id="New_Gradient_Swatch_3-6" x1="1679.81" y1="529.52" x2="1966.55" y2="529.52" xlink:href="#New_Gradient_Swatch_3"/><linearGradient id="New_Gradient_Swatch_3-7" x1="1634.28" y1="474.88" x2="1762.41" y2="474.88" xlink:href="#New_Gradient_Swatch_3"/></defs><title>pattern-39</title><g id="Layer_2" data-name="Layer 2"><g id="Base"><path d="M236.28,297a3.61,3.61,0,0,1-.89-6.6l127.43-74.22a3.6,3.6,0,0,1,3.63,6.23L239,296.63A3.59,3.59,0,0,1,236.28,297Z" style="fill:url(#New_Gradient_Swatch_3)"/><path d="M237.21,297a3.49,3.49,0,0,1-.88-.12,3.46,3.46,0,0,1,.88-6.8,3.49,3.49,0,0,1,.88.12,3.46,3.46,0,0,1-.88,6.8Z" style="fill:#f83c7a"/><path d="M237.2,289.88v.36a3.28,3.28,0,1,1-3.17,2.44,3.28,3.28,0,0,1,3.17-2.44v-.36m0,0a3.64,3.64,0,1,0,.93.12,3.64,3.64,0,0,0-.93-.12Z" style="fill:#f83c7a"/><path d="M118.81,279.1a3.6,3.6,0,0,1-2.33-1.92,3.76,3.76,0,0,1,1.63-4.79L297.16,168.11c2.72-1.59,6.66.79,5.12,5.36L121.54,278.73A3.59,3.59,0,0,1,118.81,279.1Z" style="fill:url(#New_Gradient_Swatch_3-2)"/><path d="M119.73,279.08a3.46,3.46,0,1,1,3.34-2.58A3.49,3.49,0,0,1,119.73,279.08Z" style="fill:#f83c7a"/><path d="M119.73,272.34h0a3.28,3.28,0,1,1-3.17,2.44,3.28,3.28,0,0,1,3.17-2.44m0-.36a3.64,3.64,0,1,0,.93.12,3.64,3.64,0,0,0-.93-.12Z" style="fill:#f83c7a"/><path d="M219.71,130.15a3.61,3.61,0,0,1-.89-6.6l88-51.23a3.6,3.6,0,0,1,3.63,6.23l-88,51.23A3.59,3.59,0,0,1,219.71,130.15Z" style="fill:url(#New_Gradient_Swatch_3-3)"/><path d="M220.63,130.13a3.46,3.46,0,1,1,.88-6.8,3.46,3.46,0,0,1-.88,6.8Z" style="fill:#f83c7a"/><path d="M220.62,123.39h0a3.28,3.28,0,1,1-3.17,2.44,3.28,3.28,0,0,1,3.17-2.44m0-.36a3.64,3.64,0,1,0,.93.12,3.64,3.64,0,0,0-.93-.12Z" style="fill:#f83c7a"/><circle cx="167.69" cy="178.66" r="2.24" transform="translate(-47.84 295.21) rotate(-75.22)" style="fill:#f83c7a"/><circle cx="95.33" cy="118.18" r="2.24" transform="matrix(0.26, -0.97, 0.97, 0.26, -43.26, 180.19)" style="fill:#f83c7a"/><circle cx="89.29" cy="226.3" r="2.24" transform="translate(-152.31 254.89) rotate(-75.22)" style="fill:#f83c7a"/><circle cx="62.78" cy="312.59" r="2.24" transform="translate(-255.49 293.53) rotate(-75.22)" style="fill:#f83c7a"/><circle cx="2.24" cy="260.86" r="2.24" transform="translate(-250.55 196.46) rotate(-75.22)" style="fill:#f83c7a"/><circle cx="230.28" cy="26.91" r="2.24" transform="translate(145.5 242.7) rotate(-75.22)" style="fill:#f83c7a"/><circle cx="168.92" cy="336.87" r="2.24" transform="translate(-199.91 414.24) rotate(-75.22)" style="fill:#f83c7a"/><circle cx="305.25" cy="324.58" r="2.24" transform="matrix(0.26, -0.97, 0.97, 0.26, -86.47, 536.9)" style="fill:#f83c7a"/><circle cx="249.33" cy="224.54" r="2.24" transform="translate(-31.4 408.32) rotate(-75.22)" style="fill:#f83c7a"/><circle cx="351.6" cy="148.93" r="2.24" transform="translate(117.88 450.89) rotate(-75.22)" style="fill:#f83c7a"/><circle cx="378.8" cy="45.87" r="2.24" transform="matrix(0.26, -0.97, 0.97, 0.26, 237.79, 400.42)" style="fill:#f83c7a"/><path d="M17.66,300.69a3.61,3.61,0,0,1-.89-6.6L373.53,86.3a3.6,3.6,0,1,1,3.63,6.23L20.39,300.31A3.59,3.59,0,0,1,17.66,300.69Z" style="fill:url(#New_Gradient_Swatch_3-4)"/><path d="M18.57,300.66a3.46,3.46,0,0,1-.39-6.89l.4,0a3.46,3.46,0,0,1,.39,6.89Z" style="fill:#f83c7a"/><path d="M18.58,293.92a3.28,3.28,0,0,1,.37,6.53l-.38,0a3.28,3.28,0,0,1-.37-6.53l.38,0m0-.36-.42,0a3.64,3.64,0,0,0,.41,7.25l.42,0a3.64,3.64,0,0,0-.41-7.25Z" style="fill:#f83c7a"/><path d="M15.27,199.57a3.61,3.61,0,0,1-.89-6.6L345.19.49a3.6,3.6,0,1,1,3.63,6.23L18,199.2A3.59,3.59,0,0,1,15.27,199.57Z" style="fill:url(#New_Gradient_Swatch_3-5)"/><path d="M16.19,199.55a3.46,3.46,0,0,1-.39-6.89l.4,0a3.46,3.46,0,0,1,.39,6.89Z" style="fill:#f83c7a"/><path d="M16.2,192.81a3.28,3.28,0,0,1,.37,6.53l-.38,0a3.28,3.28,0,0,1-.37-6.53l.38,0m0-.36-.42,0a3.64,3.64,0,0,0,.41,7.25l.42,0a3.64,3.64,0,0,0-.41-7.25Z" style="fill:#f83c7a"/><path d="M44.26,371.32a1.44,1.44,0,0,1-.36-2.64l346.89-202a1.44,1.44,0,0,1,1.45,2.49l-346.89,202A1.44,1.44,0,0,1,44.26,371.32Z" style="fill:url(#New_Gradient_Swatch_3-6)"/><circle cx="44.42" cy="370.05" r="1.45" transform="translate(-324.72 318.58) rotate(-75.22)" style="fill:#f83c7a"/><path d="M34.41,230.19a1.44,1.44,0,0,1-.36-2.64l153.06-89.14a1.44,1.44,0,1,1,1.45,2.49L35.5,230A1.44,1.44,0,0,1,34.41,230.19Z" style="fill:url(#New_Gradient_Swatch_3-7)"/><circle cx="34.76" cy="228.81" r="1.45" transform="matrix(0.26, -0.97, 0.97, 0.26, -195.35, 204.04)" style="fill:#f83c7a"/></g></g></svg>