<svg xmlns="http://www.w3.org/2000/svg" xmlns:xlink="http://www.w3.org/1999/xlink" viewBox="0 0 593.4 490.46"><defs><linearGradient id="linear-gradient" x1="2057.08" y1="2239.15" x2="2208.75" y2="2239.15" gradientTransform="translate(2592.37 -1732.71) rotate(90)" gradientUnits="userSpaceOnUse"><stop offset="0" stop-color="#dfec3a"/><stop offset="1" stop-color="#4ff0d6"/></linearGradient><linearGradient id="linear-gradient-2" x1="1896.54" y1="2250.68" x2="2105.89" y2="2250.68" xlink:href="#linear-gradient"/><linearGradient id="linear-gradient-3" x1="1771.01" y1="2285.91" x2="2177.53" y2="2285.91" xlink:href="#linear-gradient"/><linearGradient id="linear-gradient-4" x1="1732.78" y1="2403.54" x2="2110.75" y2="2403.54" xlink:href="#linear-gradient"/><linearGradient id="linear-gradient-5" x1="1833.39" y1="2193.86" x2="2223.17" y2="2193.86" xlink:href="#linear-gradient"/><linearGradient id="linear-gradient-6" x1="1771.48" y1="2268.19" x2="1945.66" y2="2268.19" xlink:href="#linear-gradient"/></defs><title>pattern-1.2</title><g id="Layer_2" data-name="Layer 2"><g id="Layer_1-2" data-name="Layer 1"><path d="M429.06,329.26a4.89,4.89,0,0,1-1.43,3.47L285.87,474.49l-.24.24a4.91,4.91,0,1,1-6.69-7.17L420.69,325.8a4.91,4.91,0,0,1,8.36,3.46Z" style="fill:url(#linear-gradient)"/><circle cx="424.15" cy="329.26" r="4.7" style="fill:#f83c7a"/><path d="M419.69,329.26a4.47,4.47,0,1,1,4.47,4.47,4.47,4.47,0,0,1-4.47-4.47m4.46,5h0a5,5,0,1,0-5-5A5,5,0,0,0,424.15,334.21Z" style="fill:#f83c7a"/><path d="M446.28,168.66a4.89,4.89,0,0,1-1.43,3.46l-201,201c-6.55.43-8.26-5.61-5.28-8.59L437.71,165.41a5.11,5.11,0,0,1,6.86-.48,4.89,4.89,0,0,1,1.71,3.73Z" style="fill:url(#linear-gradient-2)"/><circle cx="441.37" cy="168.66" r="4.7" style="fill:#f83c7a"/><path d="M436.92,168.66a4.47,4.47,0,1,1,4.47,4.47,4.47,4.47,0,0,1-4.47-4.47m4.46,5h0a5,5,0,1,0-5-5A5,5,0,0,0,441.37,173.61Z" style="fill:#f83c7a"/><circle cx="297.31" cy="198.06" r="3.04" style="fill:#e0ed3a"/><circle cx="242.9" cy="81.97" r="3.04" style="fill:#e0ed3a"/><circle cx="387.12" cy="111.53" r="3.04" style="fill:#e0ed3a"/><circle cx="509.72" cy="106.61" r="3.04" style="fill:#e0ed3a"/><circle cx="462.73" cy="9.1" r="3.04" style="fill:#e0ed3a"/><circle cx="504.83" cy="254.54" r="3.04" style="fill:#e0ed3a"/><circle cx="329.29" cy="321.27" r="3.04" style="fill:#e0ed3a"/><path d="M508.29,46.7,111.45,443.5a4.91,4.91,0,0,1-6.93-6.93L501.36,39.72a4.92,4.92,0,0,1,6.93,7Z" style="fill:url(#linear-gradient-3)"/><path d="M509.2,44.9a4.7,4.7,0,1,1,.33-1.71A4.7,4.7,0,0,1,509.2,44.9Z" style="fill:#f83c7a"/><path d="M500.38,43.18a4.47,4.47,0,1,1,4.45,4.49,4.47,4.47,0,0,1-4.45-4.49M503,47.79a5,5,0,1,0-3.15-4.61A5,5,0,0,0,503,47.79Z" style="fill:#f83c7a"/><path d="M377.66,5a4.89,4.89,0,0,1-1.43,3.49L8.49,376.48l-.24.24a4.91,4.91,0,1,1-6.69-7.17L369.3,1.49A4.91,4.91,0,0,1,377.66,5Z" style="fill:url(#linear-gradient-4)"/><path d="M377.14,6.67A4.71,4.71,0,1,1,377.47,5,4.71,4.71,0,0,1,377.14,6.67Z" style="fill:#f83c7a"/><path d="M368.25,5a4.47,4.47,0,1,1,4.45,4.49A4.47,4.47,0,0,1,368.25,5m2.65,4.61A5,5,0,1,0,367.76,5,5,5,0,0,0,370.91,9.56Z" style="fill:#f83c7a"/><path d="M593.4,102.65a2,2,0,0,1-.63,1.39L207,489.89h0a2,2,0,0,1-2.77-2.77L590.06,101.26a2,2,0,0,1,3.34,1.39Z" style="fill:url(#linear-gradient-5)"/><path d="M411.27,40.74a2,2,0,0,1-.58,1.4L240.46,212.37a2,2,0,1,1-2.77-2.77L407.93,39.35a2,2,0,0,1,3.34,1.39Z" style="fill:url(#linear-gradient-6)"/><circle cx="409.33" cy="40.74" r="1.97" style="fill:#e0ed3a"/></g></g></svg>