<svg xmlns="http://www.w3.org/2000/svg" xmlns:xlink="http://www.w3.org/1999/xlink" width="100%" viewBox="0 0 579.71 42.13" preserveAspectRatio="xMinYMin meet" class="svg-content">
    <defs>
        <linearGradient id="New_Gradient_Swatch_1" x1="422.84" x2="579.71" y1="21.07" y2="21.07" gradientUnits="userSpaceOnUse">
            <stop offset="0" stop-color="#e0ed3a"/>
            <stop offset="1" stop-color="#4ff0d6"/>
        </linearGradient>
    </defs>
    <title>
        pattern-16
    </title>
    <g id="Layer_2" data-name="Layer 2">
        <g id="Base">
            <path d="M30.54,14.45a11.07,11.07,0,0,0-8.89-4.39,10.9,10.9,0,0,0-4.31.85,10.34,10.34,0,0,0-5.66,5.77A11.37,11.37,0,0,0,10.85,21a11.52,11.52,0,0,0,.82,4.39,10.6,10.6,0,0,0,5.69,5.82,10.53,10.53,0,0,0,4.23.85,12,12,0,0,0,8.94-4.23V40.12l-1.06.37A30.82,30.82,0,0,1,25,41.73a21.59,21.59,0,0,1-4.08.4,20.83,20.83,0,0,1-14.58-6,21.82,21.82,0,0,1-4.63-6.72A20.49,20.49,0,0,1,0,21a20.39,20.39,0,0,1,1.72-8.44A21.08,21.08,0,0,1,21,0,21.83,21.83,0,0,1,25.7.5a28.39,28.39,0,0,1,4.84,1.56Z" style="fill:#061a25"/>
            <path d="M35.88,21.07a20.84,20.84,0,0,1,1.64-8.28A20.47,20.47,0,0,1,49,1.62a25.35,25.35,0,0,1,17.81,0,21.05,21.05,0,0,1,7,4.47,20.49,20.49,0,0,1,4.58,6.69,20.87,20.87,0,0,1,1.64,8.28,20.86,20.86,0,0,1-1.64,8.28A20.48,20.48,0,0,1,73.86,36a21.05,21.05,0,0,1-7,4.47,25.37,25.37,0,0,1-17.81,0A20.64,20.64,0,0,1,35.88,21.07Zm10.85,0a10.63,10.63,0,0,0,.9,4.39,11,11,0,0,0,6,5.8A11.54,11.54,0,0,0,65.87,29a10.93,10.93,0,0,0,2.46-3.49,10.65,10.65,0,0,0,.9-4.39,10.65,10.65,0,0,0-.9-4.39,10.93,10.93,0,0,0-2.46-3.49,11.64,11.64,0,0,0-12.23-2.3,11,11,0,0,0-6,5.8A10.62,10.62,0,0,0,46.73,21.07Z" style="fill:#061a25"/>
            <path d="M84.84,41,91.62,1.11h10.27l8,21.28,7.94-21.28h10.27L134.86,41H124.54L121.1,18l-9.42,23h-4.13L98.6,18,95.16,41Z" style="fill:#061a25"/>
            <path d="M164.13,9.9H151.8v6.67h11.64v8.79H151.8v6.88h12.33V41H141.42V1.11h22.71Z" style="fill:#061a25"/>
            <path d="M214,34.09H199.22L196.84,41H185.78L201,1.11h11.33L227.48,41H216.42Zm-2.75-7.89-4.66-13.29L202,26.2Z" style="fill:#061a25"/>
            <path d="M232,41V1.11h10.37l19.16,24.4V1.11h10.32V41H261.57l-19.16-24.4V41Z" style="fill:#061a25"/>
            <path d="M280.25,1.11H295.6a18.13,18.13,0,0,1,7.65,1.64,20.86,20.86,0,0,1,6.25,4.37,20.3,20.3,0,0,1,4.21,6.35,19.59,19.59,0,0,1,0,15.14A20.22,20.22,0,0,1,309.55,35a20.59,20.59,0,0,1-6.24,4.39A18.23,18.23,0,0,1,295.6,41H280.25Zm10.37,31.12H293a12.89,12.89,0,0,0,4.82-.85,10.28,10.28,0,0,0,3.57-2.33,10,10,0,0,0,2.22-3.52,12.6,12.6,0,0,0,.77-4.47,12.26,12.26,0,0,0-.79-4.45,10,10,0,0,0-5.82-5.88A12.74,12.74,0,0,0,293,9.9h-2.38Z" style="fill:#061a25"/>
            <path d="M339.85,1.11H355.3q5.5,0,8.36,2.65t2.86,7.62a10.36,10.36,0,0,1-1.09,5,9.14,9.14,0,0,1-3.31,3.36,12.54,12.54,0,0,1,3.78,1.3,8.22,8.22,0,0,1,2.54,2.14,8,8,0,0,1,1.4,2.86,13.1,13.1,0,0,1,.42,3.39,12,12,0,0,1-1,5,10.11,10.11,0,0,1-2.75,3.65,11.78,11.78,0,0,1-4.31,2.22,20.41,20.41,0,0,1-5.72.74H339.85Zm10.37,15.67h1.91q4.87,0,4.87-3.86t-4.87-3.86h-1.91Zm0,16.2h2.28q3.92,0,5.61-1a3.47,3.47,0,0,0,1.69-3.23,3.47,3.47,0,0,0-1.69-3.23q-1.69-1-5.61-1h-2.28Z" style="fill:#061a25"/>
            <path d="M399.18,9.9H386.85v6.67h11.64v8.79H386.85v6.88h12.33V41H376.47V1.11h22.71Z" style="fill:#061a25"/>
            <path d="M446.55,11.33a12.9,12.9,0,0,0-3.39-2,9,9,0,0,0-3.28-.66,5.31,5.31,0,0,0-3.28,1,3,3,0,0,0-1.27,2.49,2.47,2.47,0,0,0,.63,1.75A5.51,5.51,0,0,0,437.63,15a14.24,14.24,0,0,0,2.33.87q1.3.37,2.57.79A16,16,0,0,1,450,21.2a11.17,11.17,0,0,1,2.35,7.38,14.35,14.35,0,0,1-1,5.56,11.58,11.58,0,0,1-3,4.26,13.9,13.9,0,0,1-4.87,2.75,20.27,20.27,0,0,1-6.54,1,24,24,0,0,1-14-4.5l4.45-8.36a18,18,0,0,0,4.61,3.07,11.06,11.06,0,0,0,4.5,1,5.37,5.37,0,0,0,3.78-1.16,3.55,3.55,0,0,0,1.24-2.65A3.59,3.59,0,0,0,441.1,28,3.38,3.38,0,0,0,440,26.76a8.51,8.51,0,0,0-1.93-1q-1.19-.48-2.88-1.06-2-.64-3.94-1.4a12.36,12.36,0,0,1-3.44-2A9.44,9.44,0,0,1,425.4,18a11.33,11.33,0,0,1-.93-4.9,14.14,14.14,0,0,1,1-5.37,11.9,11.9,0,0,1,2.75-4.13A12.25,12.25,0,0,1,432.55,1a16.42,16.42,0,0,1,5.74-1,25.13,25.13,0,0,1,6.19.82,27.33,27.33,0,0,1,6.19,2.41Zm35-1.43H469.2v6.67h11.64v8.79H469.2v6.88h12.33V41H458.83V1.11h22.71Zm30.17,0H499.37v6.67H511v8.79H499.37v6.88H511.7V41H489V1.11H511.7ZM519.16,41V1.11h10.37l19.16,24.4V1.11H559V41H548.7l-19.16-24.4V41Zm48.16-5.08a6.21,6.21,0,1,1,.48,2.41A6.15,6.15,0,0,1,567.33,35.94Z" style="fill:url(#New_Gradient_Swatch_1)"/>
        </g>
    </g>
</svg>
