<svg xmlns="http://www.w3.org/2000/svg" xmlns:xlink="http://www.w3.org/1999/xlink" viewBox="0 0 426.64 44.09"><defs><linearGradient id="New_Gradient_Swatch" x1="139.7" y1="22.05" x2="213.82" y2="22.05" gradientUnits="userSpaceOnUse"><stop offset="0" stop-color="#ff512f"/><stop offset="1" stop-color="#dd2476"/></linearGradient><linearGradient id="New_Gradient_Swatch_1" x1="334.19" y1="22.05" x2="408.31" y2="22.05" gradientUnits="userSpaceOnUse"><stop offset="0" stop-color="#e0ed3a"/><stop offset="1" stop-color="#4ff0d6"/></linearGradient></defs><title>pattern-31</title><g id="Layer_2" data-name="Layer 2"><g id="Base"><path d="M23.93,10.36H10.86v7H22.77v9.2H10.86v16.4H0V1.16H23.93Z" style="fill:#061a25"/><path d="M28.47,22A21.52,21.52,0,0,1,42.24,1.69,25,25,0,0,1,51.57,0a25,25,0,0,1,9.31,1.69,22,22,0,0,1,7.34,4.68,21.43,21.43,0,0,1,4.79,7A21.84,21.84,0,0,1,74.73,22,21.84,21.84,0,0,1,73,30.72a21.42,21.42,0,0,1-4.79,7,22,22,0,0,1-7.34,4.68,25,25,0,0,1-9.31,1.69,25,25,0,0,1-9.33-1.69A21.61,21.61,0,0,1,28.47,22Zm11.36,0a11.12,11.12,0,0,0,.94,4.6,11.51,11.51,0,0,0,6.29,6.07A12.08,12.08,0,0,0,59.85,30.3a11.4,11.4,0,0,0,2.58-3.66,11.14,11.14,0,0,0,.94-4.6,11.14,11.14,0,0,0-.94-4.6,11.42,11.42,0,0,0-2.58-3.66,11.86,11.86,0,0,0-3.77-2.41,12.29,12.29,0,0,0-9,0,11.51,11.51,0,0,0-6.29,6.07A11.12,11.12,0,0,0,39.83,22Z" style="fill:#061a25"/><path d="M116.33,42.93H102.81L92.45,26.87V42.93H81.59V1.16H98.49a16.57,16.57,0,0,1,6.09,1,11.47,11.47,0,0,1,6.84,6.9,14.27,14.27,0,0,1,.86,5A12.25,12.25,0,0,1,110,21.8a11.57,11.57,0,0,1-6.79,4ZM92.45,19.83h2a7.91,7.91,0,0,0,4.93-1.33,4.54,4.54,0,0,0,1.72-3.82,4.55,4.55,0,0,0-1.72-3.82A7.92,7.92,0,0,0,94.5,9.53h-2Z" style="fill:#061a25"/><path d="M150.56,1.16V23.87q0,1.83.14,3.74a10.2,10.2,0,0,0,.83,3.46,5.75,5.75,0,0,0,2.19,2.52,7.71,7.71,0,0,0,4.21,1,7.57,7.57,0,0,0,4.18-1,6,6,0,0,0,2.19-2.52,9.87,9.87,0,0,0,.86-3.46q.14-1.91.14-3.74V1.16h10.8V25.37q0,9.75-4.46,14.24t-13.71,4.49q-9.25,0-13.74-4.49T139.7,25.37V1.16Zm57.22,10.69a13.41,13.41,0,0,0-3.55-2.13A9.43,9.43,0,0,0,200.8,9a5.58,5.58,0,0,0-3.44,1,3.11,3.11,0,0,0-1.33,2.6,2.59,2.59,0,0,0,.66,1.83,5.8,5.8,0,0,0,1.75,1.25,14.91,14.91,0,0,0,2.44.91q1.36.39,2.69.83,5.32,1.77,7.78,4.74a11.69,11.69,0,0,1,2.47,7.73,15,15,0,0,1-1.08,5.82,12.13,12.13,0,0,1-3.16,4.46,14.58,14.58,0,0,1-5.1,2.88,21.24,21.24,0,0,1-6.84,1A25.15,25.15,0,0,1,183,39.38l4.65-8.75a18.88,18.88,0,0,0,4.82,3.21,11.57,11.57,0,0,0,4.71,1.05,5.62,5.62,0,0,0,4-1.22,3.77,3.77,0,0,0,1-4.4A3.54,3.54,0,0,0,201,28a8.9,8.9,0,0,0-2-1.08q-1.25-.5-3-1.11-2.11-.67-4.13-1.47a13,13,0,0,1-3.6-2.13,9.89,9.89,0,0,1-2.55-3.35,11.84,11.84,0,0,1-1-5.12,14.79,14.79,0,0,1,1-5.62,12.49,12.49,0,0,1,2.88-4.32A12.82,12.82,0,0,1,193.13,1a17.18,17.18,0,0,1,6-1,26.34,26.34,0,0,1,6.48.86,28.69,28.69,0,0,1,6.48,2.52Z" style="fill:url(#New_Gradient_Swatch)"/><path d="M239.47,1.16h16.17q5.76,0,8.75,2.77t3,8a10.83,10.83,0,0,1-1.14,5.23,9.55,9.55,0,0,1-3.46,3.52,13.15,13.15,0,0,1,4,1.36,8.62,8.62,0,0,1,2.66,2.24,8.39,8.39,0,0,1,1.47,3,13.73,13.73,0,0,1,.44,3.54,12.55,12.55,0,0,1-1,5.21,10.59,10.59,0,0,1-2.88,3.82,12.31,12.31,0,0,1-4.51,2.33,21.33,21.33,0,0,1-6,.78H239.47Zm10.86,16.4h2q5.1,0,5.1-4t-5.1-4h-2Zm0,17h2.38q4.1,0,5.87-1.05a3.63,3.63,0,0,0,1.77-3.38,3.63,3.63,0,0,0-1.77-3.38q-1.77-1.05-5.87-1.05h-2.38Z" style="fill:#061a25"/><path d="M285.39,22.88,270.16,1.16h13l7.76,11.41,7.7-11.41h13L296.25,22.88V42.93H285.39Z" style="fill:#061a25"/><path d="M345,1.16V23.87q0,1.83.14,3.74a10.2,10.2,0,0,0,.83,3.46,5.75,5.75,0,0,0,2.19,2.52,7.71,7.71,0,0,0,4.21,1,7.57,7.57,0,0,0,4.18-1,6,6,0,0,0,2.19-2.52,9.87,9.87,0,0,0,.86-3.46q.14-1.91.14-3.74V1.16h10.8V25.37q0,9.75-4.46,14.24t-13.71,4.49q-9.25,0-13.74-4.49t-4.49-14.24V1.16Zm57.22,10.69a13.41,13.41,0,0,0-3.55-2.13A9.43,9.43,0,0,0,395.29,9a5.58,5.58,0,0,0-3.44,1,3.11,3.11,0,0,0-1.33,2.6,2.59,2.59,0,0,0,.66,1.83,5.8,5.8,0,0,0,1.75,1.25,14.91,14.91,0,0,0,2.44.91q1.36.39,2.69.83,5.32,1.77,7.78,4.74a11.69,11.69,0,0,1,2.47,7.73,15,15,0,0,1-1.08,5.82,12.13,12.13,0,0,1-3.16,4.46,14.58,14.58,0,0,1-5.1,2.88,21.24,21.24,0,0,1-6.84,1,25.15,25.15,0,0,1-14.68-4.71l4.65-8.75a18.88,18.88,0,0,0,4.82,3.21,11.57,11.57,0,0,0,4.71,1.05,5.62,5.62,0,0,0,4-1.22,3.77,3.77,0,0,0,1-4.4A3.54,3.54,0,0,0,395.46,28a8.9,8.9,0,0,0-2-1.08q-1.25-.5-3-1.11-2.11-.67-4.13-1.47a13,13,0,0,1-3.6-2.13,9.89,9.89,0,0,1-2.55-3.35,11.84,11.84,0,0,1-1-5.12,14.79,14.79,0,0,1,1-5.62,12.49,12.49,0,0,1,2.88-4.32A12.82,12.82,0,0,1,387.62,1a17.18,17.18,0,0,1,6-1,26.34,26.34,0,0,1,6.48.86,28.69,28.69,0,0,1,6.48,2.52Z" style="fill:url(#New_Gradient_Swatch_1)"/><path d="M413.68,37.61a6.48,6.48,0,0,1,1.88-4.6,6.39,6.39,0,0,1,2.08-1.39,6.5,6.5,0,0,1,8.5,8.5,6.36,6.36,0,0,1-3.46,3.46,6.62,6.62,0,0,1-5,0,6.37,6.37,0,0,1-3.46-3.46A6.46,6.46,0,0,1,413.68,37.61Z" style="fill:#061a25"/></g></g></svg>