<svg xmlns="http://www.w3.org/2000/svg" viewBox="0 0 252.98 261.01" preserveAspectRatio="xMinYMin meet">
    <title>
        pattern-45
    </title>
    <g id="Layer_2" data-name="Layer 2">
        <g id="Layer_1-2" data-name="Layer 1">
            <path d="M250.34,163.83a2.72,2.72,0,0,1-3-2.46q0-.13,0-.26a2.64,2.64,0,0,1,2.44-2.82H250a2.79,2.79,0,0,1,3,2.59s0,.09,0,.13a2.72,2.72,0,0,1-2.6,2.83Zm-3-64.62a2.81,2.81,0,0,1,2.73-2.89h.15A2.72,2.72,0,0,1,253,99a2.88,2.88,0,0,1-2.85,2.91H250A2.72,2.72,0,0,1,247.38,99.21ZM.22,148.56a2.58,2.58,0,0,1,2.44-2.71h.17a2.87,2.87,0,0,1,2.83,2.91v0A2.72,2.72,0,0,1,3,151.51a2.87,2.87,0,0,1-2.8-2.93Zm222.45-98.8a2.72,2.72,0,0,1,2.56-2.87h.24a2.72,2.72,0,0,1,2.64,2.79,2.81,2.81,0,0,1-2.81,2.81h0a2.61,2.61,0,0,1-2.59-2.63S222.67,49.79,222.67,49.76ZM2.64,163.83A2.62,2.62,0,0,1,0,161.22s0-.07,0-.11a2.72,2.72,0,0,1,2.62-2.81h.22A2.72,2.72,0,0,1,5.45,161a2.8,2.8,0,0,1-2.79,2.81h0Zm220,46.61a2.6,2.6,0,0,1,2.47-2.72h.18a2.79,2.79,0,0,1,.18,5.57h0a2.72,2.72,0,0,1-2.83-2.6Q222.66,210.56,222.67,210.43ZM37.3,222.79a2.64,2.64,0,0,1,2.55-2.72h0a2.72,2.72,0,0,1,2.72,2.72s0,.06,0,.1a2.65,2.65,0,1,1-5.29,0S37.3,222.82,37.3,222.79ZM5.44,99.18a2.72,2.72,0,0,1-2.5,2.72A2.72,2.72,0,0,1,.22,99.37a2.64,2.64,0,0,1,3.17-3A2.72,2.72,0,0,1,5.44,99.18ZM30.18,49.65a2.72,2.72,0,0,1-2.59,2.84h0a2.81,2.81,0,1,1,2.6-3C30.17,49.54,30.18,49.6,30.18,49.65Zm182.72,176a2.8,2.8,0,0,1,0-5.6,2.72,2.72,0,0,1,2.72,2.72s0,.06,0,.1a2.72,2.72,0,0,1-2.65,2.79ZM178.45,74.44a2.72,2.72,0,0,1-2.63,2.8h0a2.77,2.77,0,0,1,0-5.53h.1a2.72,2.72,0,0,1,2.53,2.73Zm-15-39.84a2.78,2.78,0,0,1,0,5.56,2.72,2.72,0,0,1-2.6-2.84h0a2.64,2.64,0,0,1,2.55-2.72ZM62,99.21a2.72,2.72,0,0,1,2.62-2.8,2.78,2.78,0,0,1,0,5.56A2.72,2.72,0,0,1,62,99.21Zm17.59,0a2.65,2.65,0,1,1-5.29-.08,2.62,2.62,0,1,1,5.25,0h0Zm81.27,37.08a2.72,2.72,0,0,1,2.63-2.8h0a2.79,2.79,0,0,1,0,5.56,2.64,2.64,0,0,1-2.64-2.63s0-.08,0-.13Zm64.39-2.81a2.79,2.79,0,1,1-2.58,2.58A2.79,2.79,0,0,1,225.25,133.48ZM160.86,99.18a2.64,2.64,0,0,1,2.55-2.72h.17a2.78,2.78,0,0,1-.08,5.56,2.72,2.72,0,0,1-2.64-2.8ZM79.6,222.8A2.62,2.62,0,1,1,77,220,2.72,2.72,0,0,1,79.6,222.8Zm-17.59,0A2.64,2.64,0,0,1,64.56,220h0a2.78,2.78,0,0,1,0,5.56A2.72,2.72,0,0,1,62,222.76ZM62,198a2.72,2.72,0,0,1,2.6-2.72,2.78,2.78,0,0,1,0,5.56,2.64,2.64,0,0,1-2.6-2.67C62,198.15,62,198.09,62,198Zm17.59,0a2.62,2.62,0,0,1-5.25,0h0a2.62,2.62,0,0,1,5.25,0ZM116.66,74.49a2.62,2.62,0,0,1-5.25,0h0a2.62,2.62,0,1,1,5.25,0Zm44.2-61.79a2.72,2.72,0,0,1,2.62-2.81h0a2.78,2.78,0,0,1,0,5.56,2.64,2.64,0,0,1-2.63-2.65S160.86,12.73,160.86,12.7Zm0,61.79a2.72,2.72,0,0,1,2.62-2.81h0a2.78,2.78,0,1,1,0,5.56A2.72,2.72,0,0,1,160.86,74.49ZM62,161a2.64,2.64,0,0,1,2.55-2.72h0a2.78,2.78,0,0,1,0,5.56A2.72,2.72,0,0,1,62,161Zm98.86,37.15a2.64,2.64,0,1,1,0,.06ZM79.6,160.94A2.62,2.62,0,1,1,77,158.23,2.72,2.72,0,0,1,79.6,160.94Zm19.48,0a2.72,2.72,0,0,1,2.61-2.72,2.78,2.78,0,1,1,0,5.56A2.72,2.72,0,0,1,99.07,161ZM64.62,71.69A2.79,2.79,0,1,1,62,74.27,2.78,2.78,0,0,1,64.62,71.69Zm-22.09,2.8a2.72,2.72,0,0,1-2.61,2.72,2.79,2.79,0,0,1,0-5.56,2.72,2.72,0,0,1,2.61,2.82ZM17.79,99.14a2.62,2.62,0,1,1-2.62-2.72A2.72,2.72,0,0,1,17.79,99.14Zm0,61.84a2.72,2.72,0,0,1-2.65,2.79h-.07a2.79,2.79,0,0,1,0-5.56,2.72,2.72,0,0,1,2.72,2.72V161Zm0-86.54a2.62,2.62,0,1,1-5.25,0h0a2.62,2.62,0,0,1,5.25,0ZM225.25,176.06a2.62,2.62,0,0,1-2.6-2.64q0-.09,0-.17a2.63,2.63,0,1,1,5.25.09v0a2.72,2.72,0,0,1-2.65,2.69ZM123.8,74.5a2.72,2.72,0,0,1,2.62-2.81h0a2.78,2.78,0,0,1,0,5.56,2.62,2.62,0,0,1-2.63-2.62S123.8,74.54,123.8,74.5Zm37.07,148.33a2.63,2.63,0,1,1,2.64,2.73h0A2.72,2.72,0,0,1,160.86,222.83Zm39.7-138.76a2.72,2.72,0,1,1-2.64,2.8s0-.05,0-.08a2.65,2.65,0,0,1,2.58-2.72Zm-39.7,76.88a2.72,2.72,0,0,1,2.61-2.72,2.78,2.78,0,0,1,0,5.56,2.72,2.72,0,0,1-2.61-2.82ZM200.53,52.51a2.77,2.77,0,1,1,0-5.55,2.72,2.72,0,0,1,2.6,2.84h0a2.64,2.64,0,0,1-2.57,2.7Zm22.13,9.61a2.62,2.62,0,0,1,2.53-2.72h.12a2.72,2.72,0,1,1-2.65,2.72ZM24.86,210.43a2.61,2.61,0,0,1,2.5-2.72h.22a2.78,2.78,0,0,1,0,5.54h0a2.72,2.72,0,0,1-2.68-2.76s0,0,0-.07ZM222.65,74.5a2.72,2.72,0,0,1,2.61-2.83h0a2.78,2.78,0,1,1,0,5.56h0a2.64,2.64,0,0,1-2.63-2.65S222.65,74.53,222.65,74.5Zm0,24.64a2.64,2.64,0,0,1,2.55-2.72h.06a2.78,2.78,0,1,1,0,5.56,2.72,2.72,0,0,1-2.61-2.82ZM62,136.23a2.65,2.65,0,1,1,5.3,0s0,.06,0,.1a2.65,2.65,0,1,1-5.3,0ZM116.66,198a2.62,2.62,0,0,1-5.25,0h0a2.72,2.72,0,0,1,2.62-2.81h.1A2.72,2.72,0,0,1,116.66,198Zm86.51-12.33a2.62,2.62,0,0,1-5.25,0h0a2.62,2.62,0,0,1,5.25,0Zm-61.79,12.36a2.62,2.62,0,1,1-2.58-2.72A2.72,2.72,0,0,1,141.39,198.06Zm-67,49.35a2.64,2.64,0,1,1,5.26.11,2.54,2.54,0,0,1-2.35,2.72h-.37A2.72,2.72,0,0,1,74.34,247.42Zm148.32-49.31a2.72,2.72,0,0,1,2.62-2.81h0a2.77,2.77,0,0,1,0,5.53h0a2.72,2.72,0,0,1-2.61-2.72ZM79.6,136.26a2.62,2.62,0,0,1-5.25,0h0a2.62,2.62,0,0,1,5.25,0ZM42.53,37.42a2.62,2.62,0,1,1-5.25,0h0a2.62,2.62,0,1,1,5.25,0Zm182.71,83.73a2.72,2.72,0,1,1-2.53,2.64h0A2.61,2.61,0,0,1,225.24,121.15ZM104.32,222.82a2.62,2.62,0,0,1-5.25,0h0a2.62,2.62,0,1,1,5.25,0ZM126.38,9.88a2.79,2.79,0,0,1,0,5.56,2.62,2.62,0,0,1-2.64-2.61s0-.07,0-.11a2.72,2.72,0,0,1,2.59-2.84ZM104.32,136.34a2.72,2.72,0,0,1-2.72,2.72,2.79,2.79,0,0,1,.08-5.56,2.72,2.72,0,0,1,2.64,2.8Zm-2.64,108.4a2.72,2.72,0,1,1-2.61,2.82s0-.07,0-.11a2.62,2.62,0,0,1,2.53-2.72ZM126.45,34.61a2.78,2.78,0,1,1-.08,5.56,2.72,2.72,0,0,1-2.57-2.86h0a2.62,2.62,0,0,1,2.55-2.69h.1ZM99.07,99.14a2.72,2.72,0,1,1,0,.11S99.07,99.18,99.07,99.14Zm0-61.79a2.72,2.72,0,1,1,0,.11S99.07,37.39,99.07,37.35ZM86.72,12.7a2.62,2.62,0,1,1,2.61,2.72A2.72,2.72,0,0,1,86.72,12.7Zm17.6-.05a2.72,2.72,0,0,1-2.63,2.8h0a2.79,2.79,0,0,1,0-5.56,2.72,2.72,0,0,1,2.65,2.76ZM79.6,37.42A2.62,2.62,0,1,1,77,34.61a2.72,2.72,0,0,1,2.62,2.81Zm44.2,61.64a2.62,2.62,0,0,1,2.52-2.72h.19a2.78,2.78,0,0,1-.15,5.56h0A2.72,2.72,0,0,1,123.8,99.06Zm54.65,12.52a2.62,2.62,0,0,1-2.53,2.72h-.08a2.72,2.72,0,0,1-2.64-2.8h0a2.63,2.63,0,1,1,5.25.08Zm59.21,9.57a2.77,2.77,0,1,1-2.77,2.77A2.77,2.77,0,0,1,237.66,121.15ZM42.53,111.5A2.72,2.72,0,0,1,40,114.31a2.62,2.62,0,0,1-2.72-2.52q0-.1,0-.19a2.62,2.62,0,1,1,5.25-.1h0Zm59.14,2.81a2.62,2.62,0,0,1-2.6-2.64c0-.06,0-.12,0-.18a2.63,2.63,0,1,1,5.25.1v0A2.72,2.72,0,0,1,101.67,114.31ZM17.79,136.25a2.62,2.62,0,0,1-5.25,0h0a2.72,2.72,0,0,1,2.57-2.8,2.72,2.72,0,0,1,2.68,2.76Zm204.86-24.7a2.64,2.64,0,1,1,2.57,2.65,2.61,2.61,0,0,1-2.57-2.65Zm-19.48,37.07a2.62,2.62,0,1,1-2.58-2.72,2.62,2.62,0,0,1,2.58,2.72Zm12.36-74.17a2.62,2.62,0,0,1-5.25,0h0a2.62,2.62,0,0,1,5.25,0Zm-98.87,61.82A2.72,2.72,0,0,1,114,139a2.79,2.79,0,1,1,2.65-2.92Q116.67,136.16,116.66,136.26ZM27.58,96.41a2.78,2.78,0,0,1,0,5.56A2.72,2.72,0,0,1,25,99.13h0a2.64,2.64,0,0,1,2.55-2.72ZM141.39,222.78a2.62,2.62,0,0,1-5.25,0h0a2.62,2.62,0,1,1,5.25,0ZM123.8,136.23a2.63,2.63,0,1,1,5.25.07v0a2.72,2.72,0,0,1-2.64,2.72,2.64,2.64,0,0,1-2.62-2.66C123.79,136.35,123.79,136.29,123.8,136.23Zm-7.14-37a2.65,2.65,0,1,1-5.3-.13v0a2.62,2.62,0,0,1,5.25.19Zm24.72,37a2.62,2.62,0,1,1-2.64-2.81,2.72,2.72,0,0,1,2.64,2.8Zm0-37.09a2.62,2.62,0,1,1-2.64-2.8,2.72,2.72,0,0,1,2.64,2.8Zm46.82,34.27a2.72,2.72,0,0,1,2.62,2.81v0a2.72,2.72,0,0,1-2.72,2.72,2.79,2.79,0,0,1,0-5.56Zm27.32,2.79a2.62,2.62,0,1,1-5.25,0h0a2.62,2.62,0,1,1,5.25,0Zm-37.08,86.5a2.62,2.62,0,1,1-5.25,0h0a2.72,2.72,0,0,1,2.64-2.8h.08A2.72,2.72,0,0,1,178.45,222.76Zm61.79-86.53a2.62,2.62,0,1,1-5.25.07,2.72,2.72,0,0,1,2.61-2.83h0a2.72,2.72,0,0,1,2.61,2.76ZM123.8,222.72a2.72,2.72,0,0,1,2.62-2.72,2.78,2.78,0,1,1,0,5.56,2.72,2.72,0,0,1-2.62-2.81ZM237.65,114.31a2.72,2.72,0,1,1,2.6-2.64h0A2.64,2.64,0,0,1,237.65,114.31ZM250,133.47a2.79,2.79,0,1,1-2.58,2.58A2.78,2.78,0,0,1,250,133.47Zm-64.41,89.31a2.64,2.64,0,0,1,2.55-2.72h0a2.72,2.72,0,1,1-2.57,2.72ZM178.45,99.2a2.72,2.72,0,0,1-2.57,2.72,2.78,2.78,0,1,1,0-5.56h0A2.72,2.72,0,0,1,178.45,99.2Zm61.79-24.74a2.62,2.62,0,0,1-5.25,0h0a2.72,2.72,0,0,1,2.64-2.8h.08A2.72,2.72,0,0,1,240.24,74.46ZM215.53,99.18a2.62,2.62,0,1,1-2.58-2.72A2.72,2.72,0,0,1,215.53,99.18Zm-15,114a2.72,2.72,0,1,1,2.64-2.8s0,.05,0,.08a2.64,2.64,0,0,1-2.55,2.72ZM39.81,176.06a2.77,2.77,0,1,1,.12-5.55,2.72,2.72,0,0,1,2.57,2.86v0A2.72,2.72,0,0,1,39.81,176.06Zm64.51-126.3a2.72,2.72,0,0,1-2.61,2.72,2.62,2.62,0,0,1-2.64-2.61s0-.07,0-.11a2.62,2.62,0,1,1,5.25,0Zm-61.79,0A2.72,2.72,0,0,1,40,52.45a2.62,2.62,0,0,1-2.72-2.52q0-.1,0-.19a2.62,2.62,0,0,1,5.25,0h0ZM203.18,37.42a2.62,2.62,0,1,1-2.64-2.8,2.72,2.72,0,0,1,2.64,2.8Zm-17.59,0a2.64,2.64,0,0,1,2.55-2.72h0a2.78,2.78,0,1,1,0,5.56,2.72,2.72,0,0,1-2.6-2.84Zm-7.14,0a2.72,2.72,0,0,1-2.6,2.72,2.78,2.78,0,1,1,0-5.56,2.72,2.72,0,0,1,2.6,2.84Zm-37.07,0a2.62,2.62,0,1,1-2.58-2.72A2.72,2.72,0,0,1,141.39,37.42Zm-24.72,0a2.72,2.72,0,0,1-2.63,2.8h0a2.78,2.78,0,0,1,0-5.56,2.72,2.72,0,0,1,2.64,2.76Zm-61.79-.07a2.72,2.72,0,0,1-2.61,2.83h0a2.78,2.78,0,1,1,0-5.56,2.64,2.64,0,0,1,2.63,2.65S54.87,37.32,54.87,37.35Zm86.51,148.33a2.62,2.62,0,1,1-2.72-2.72A2.72,2.72,0,0,1,141.39,185.68ZM42.53,198.11a2.72,2.72,0,0,1-2.62,2.72,2.79,2.79,0,0,1,0-5.56,2.72,2.72,0,0,1,2.62,2.81Zm135.92,37a2.62,2.62,0,0,1-2.44,2.79h-.18a2.72,2.72,0,0,1-2.62-2.72,2.62,2.62,0,1,1,5.25-.07h0Zm-74.13-37.07a2.72,2.72,0,0,1-2.64,2.8h-.08a2.76,2.76,0,1,1,2.72-2.84Zm74.13-185.3a2.64,2.64,0,1,1-5.26-.15,2.62,2.62,0,0,1,2.52-2.72h.19A2.72,2.72,0,0,1,178.45,12.75Zm9.72,182.53a2.78,2.78,0,0,1,0,5.56,2.62,2.62,0,0,1-2.64-2.61s0-.07,0-.11a2.72,2.72,0,0,1,2.59-2.84Zm9.76,2.75a2.62,2.62,0,1,1,5.25.08h0a2.62,2.62,0,1,1-5.25-.08Zm17.6,0a2.62,2.62,0,0,1-5.25,0h0a2.63,2.63,0,1,1,5.25,0ZM116.66,12.63A2.72,2.72,0,0,1,114,15.44h0a2.78,2.78,0,0,1,0-5.56A2.72,2.72,0,0,1,116.66,12.63Zm22.11,232.11a2.72,2.72,0,1,1-2.64,2.8h0a2.65,2.65,0,0,1,2.51-2.78ZM185.59,161a2.62,2.62,0,0,1,2.53-2.72h.06a2.78,2.78,0,0,1,0,5.56,2.64,2.64,0,0,1-2.59-2.68Q185.58,161.05,185.59,161ZM76.95,237.9a2.72,2.72,0,1,1,2.65-2.79v.07A2.65,2.65,0,0,1,77,237.9ZM27.58,158.21A2.78,2.78,0,1,1,24.8,161,2.78,2.78,0,0,1,27.58,158.21Zm52-83.75A2.62,2.62,0,1,1,77,71.74,2.72,2.72,0,0,1,79.6,74.46ZM54.87,161a2.72,2.72,0,0,1-2.63,2.8h0a2.78,2.78,0,1,1,0-5.56A2.72,2.72,0,0,1,54.87,161Zm61.79,0a2.72,2.72,0,0,1-2.61,2.83h0a2.78,2.78,0,0,1,0-5.56A2.72,2.72,0,0,1,116.66,160.94ZM104.32,62.08a2.72,2.72,0,0,1-2.63,2.8h0a2.72,2.72,0,1,1,2.65-2.8ZM99.07,74.44a2.72,2.72,0,0,1,2.6-2.72,2.78,2.78,0,0,1,0,5.56,2.72,2.72,0,0,1-2.6-2.84ZM215.53,161a2.72,2.72,0,0,1-2.63,2.8h0a2.79,2.79,0,0,1,0-5.56,2.72,2.72,0,0,1,2.64,2.76Zm9.73-2.75a2.72,2.72,0,1,1-2.61,2.82s0-.07,0-.11A2.72,2.72,0,0,1,225.26,158.21Zm-200.4-22a2.63,2.63,0,1,1,5.25.08v0a2.63,2.63,0,1,1-5.25-.09v0Zm101.56,59a2.72,2.72,0,0,1,2.62,2.81v0a2.72,2.72,0,0,1-2.72,2.72,2.64,2.64,0,0,1-2.6-2.67q0-.08,0-.16A2.72,2.72,0,0,1,126.42,195.28Zm52,2.81a2.72,2.72,0,0,1-2.6,2.72,2.78,2.78,0,1,1,0-5.56,2.72,2.72,0,0,1,2.6,2.84ZM2.82,133.47a2.78,2.78,0,0,1,0,5.56,2.64,2.64,0,0,1-2.62-2.65s0,0,0-.07a2.72,2.72,0,0,1,2.59-2.84Zm83.9,89.27A2.64,2.64,0,0,1,89.27,220h.17a2.79,2.79,0,0,1-.07,5.56,2.72,2.72,0,0,1-2.65-2.78Zm39.7-64.54a2.78,2.78,0,1,1-2.78,2.78A2.78,2.78,0,0,1,126.42,158.21ZM24.86,198.09a2.62,2.62,0,1,1,2.6,2.72A2.72,2.72,0,0,1,24.86,198.09Zm200.38-46.72a2.76,2.76,0,1,1,2.76-2.76A2.76,2.76,0,0,1,225.24,151.38Zm15-2.72a2.64,2.64,0,1,1,0-.14S240.25,148.61,240.24,148.66ZM116.66,222.79a2.62,2.62,0,1,1-2.57-2.72A2.72,2.72,0,0,1,116.66,222.79Zm24.72-98.86a2.62,2.62,0,1,1-2.64-2.72A2.72,2.72,0,0,1,141.39,123.93Zm-39.73-2.79a2.72,2.72,0,1,1-2.53,2.65h0A2.64,2.64,0,0,1,101.66,121.15Zm0,92a2.76,2.76,0,1,1,2.76-2.76A2.76,2.76,0,0,1,101.68,213.18Zm-64.4-89.3a2.62,2.62,0,1,1,5.25,0h0a2.62,2.62,0,0,1-5.25,0Zm-19.49.05a2.72,2.72,0,0,1-2.61,2.72,2.72,2.72,0,0,1-2.64-2.8v0a2.62,2.62,0,1,1,5.25.07h0Zm22,83.74a2.76,2.76,0,1,1-2.76,2.76A2.76,2.76,0,0,1,39.81,207.67Zm37.09,5.5a2.72,2.72,0,1,1,2.72-2.72A2.65,2.65,0,0,1,77,213.18ZM240.24,161a2.62,2.62,0,1,1-2.65-2.72A2.72,2.72,0,0,1,240.24,161ZM17.79,173.34a2.62,2.62,0,1,1-2.64-2.8,2.65,2.65,0,0,1,2.64,2.66S17.8,173.29,17.79,173.34Zm61.8,0A2.62,2.62,0,1,1,77,170.62a2.65,2.65,0,0,1,2.61,2.69Zm61.79,0a2.62,2.62,0,0,1-5.25,0h0a2.62,2.62,0,1,1,5.25,0Zm37.07-37.05a2.66,2.66,0,1,1-5.32,0s0-.06,0-.08a2.66,2.66,0,1,1,5.32,0S178.45,136.27,178.45,136.29Zm0,74.16a2.61,2.61,0,1,1,0-.14S178.45,210.4,178.45,210.45Zm-15-34.39a2.77,2.77,0,1,1,.11-5.53,2.77,2.77,0,0,1,0,5.53ZM17.79,148.63a2.62,2.62,0,0,1-5.25,0h0a2.72,2.72,0,0,1,2.6-2.72,2.64,2.64,0,0,1,2.65,2.62S17.79,148.6,17.79,148.63Zm185.38,24.71a2.62,2.62,0,1,1-2.58-2.72A2.72,2.72,0,0,1,203.18,173.34Zm37.07,0a2.62,2.62,0,1,1-5.25,0h0a2.63,2.63,0,1,1,5.25,0ZM163.5,213.18a2.61,2.61,0,0,1-2.63-2.59s0-.08,0-.12a2.62,2.62,0,1,1,2.62,2.72ZM203.18,161a2.62,2.62,0,1,1-2.6-2.72A2.72,2.72,0,0,1,203.18,161Zm-64.4,52.21a2.72,2.72,0,1,1,2.61-2.82s0,.07,0,.11a2.64,2.64,0,0,1-2.55,2.72ZM79.6,148.62a2.62,2.62,0,1,1,0-.19Q79.6,148.52,79.6,148.62Zm22.09-2.75a2.76,2.76,0,1,1-2.76,2.76A2.76,2.76,0,0,1,101.68,145.87ZM17.79,185.68A2.62,2.62,0,1,1,15.21,183a2.62,2.62,0,0,1,2.58,2.72ZM163.5,145.87a2.75,2.75,0,1,1-2.75,2.75A2.75,2.75,0,0,1,163.5,145.87Zm-76.78-9.64a2.63,2.63,0,1,1,5.25.08v0a2.63,2.63,0,1,1-5.25-.09h0ZM178.45,161a2.72,2.72,0,0,1-2.6,2.72,2.78,2.78,0,0,1,0-5.56,2.72,2.72,0,0,1,2.6,2.84ZM42.53,185.68a2.62,2.62,0,0,1-5.25,0h0a2.62,2.62,0,0,1,5.25,0Zm34.42-2.75a2.72,2.72,0,1,1-2.59,2.84s0-.08,0-.12a2.65,2.65,0,0,1,2.58-2.72Zm64.44-22a2.62,2.62,0,1,1-2.58-2.72A2.72,2.72,0,0,1,141.39,161Zm44.2,24.68a2.61,2.61,0,0,1,2.5-2.72h.1a2.77,2.77,0,0,1,0,5.53,2.64,2.64,0,0,1-2.6-2.67S185.59,185.72,185.59,185.67ZM160.86,62.13a2.62,2.62,0,1,1,5.25,0h0a2.63,2.63,0,1,1-5.25,0ZM62,37.42a2.63,2.63,0,1,1,2.64,2.73h-.1A2.72,2.72,0,0,1,62,37.42Zm24.71,0a2.72,2.72,0,0,1,2.65-2.72,2.78,2.78,0,0,1-.07,5.56h0a2.72,2.72,0,0,1-2.58-2.84Zm15,200.48a2.62,2.62,0,0,1-2.63-2.62s0-.06,0-.1a2.62,2.62,0,1,1,5.25,0h0a2.72,2.72,0,0,1-2.62,2.72Zm-22.1-151a2.62,2.62,0,1,1,0-.11S79.6,86.82,79.6,86.85ZM54.87,49.77a2.63,2.63,0,1,1-5.25-.07v0a2.63,2.63,0,1,1,5.25.08ZM17.79,111.5a2.62,2.62,0,1,1-2.62-2.72A2.72,2.72,0,0,1,17.79,111.5Zm83.89-27.43a2.75,2.75,0,1,1-2.75,2.75A2.75,2.75,0,0,1,101.68,84.07Zm138.56,15.1a2.72,2.72,0,0,1-2.63,2.8h0a2.78,2.78,0,0,1,0-5.56,2.72,2.72,0,0,1,2.65,2.76ZM76.95,52.51a2.72,2.72,0,0,1-2.6-2.72A2.62,2.62,0,1,1,77,52.51Zm46.85-2.76a2.63,2.63,0,1,1,2.54,2.72,2.62,2.62,0,0,1-2.54-2.7Zm17.59,0a2.62,2.62,0,1,1-5.25,0h0a2.63,2.63,0,1,1,5.25-.07S141.39,49.7,141.39,49.72Zm44.2,49.45a2.72,2.72,0,0,1,2.58-2.72,2.78,2.78,0,0,1,0,5.56A2.72,2.72,0,0,1,185.59,99.17Zm-44.2-12.34a2.62,2.62,0,1,1-5.25,0h0a2.62,2.62,0,1,1,5.25,0ZM42.53,99.14A2.72,2.72,0,0,1,39.93,102h0a2.72,2.72,0,1,1,2.62-2.83Zm195.1-9.56a2.76,2.76,0,1,1,2.76-2.76A2.76,2.76,0,0,1,237.63,89.59ZM188.18,52.51A2.77,2.77,0,1,1,191,49.73,2.77,2.77,0,0,1,188.18,52.51ZM79.6,62.12a2.62,2.62,0,0,1-5.25,0h0a2.62,2.62,0,1,1,5.25,0ZM62,62.06a2.61,2.61,0,0,1,2.5-2.72h.22a2.77,2.77,0,0,1-.1,5.53A2.72,2.72,0,0,1,62,62.07ZM203.18,74.49a2.62,2.62,0,1,1-2.57-2.8A2.72,2.72,0,0,1,203.18,74.49Zm-17.59,0a2.72,2.72,0,0,1,2.56-2.79,2.79,2.79,0,0,1,.1,5.56,2.62,2.62,0,0,1-2.65-2.59q0-.09,0-.18Zm-31.85.11a2.62,2.62,0,1,1-2.54-2.9,2.72,2.72,0,0,1,2.54,2.88Zm0-61.83a2.62,2.62,0,1,1-2.58-2.87,2.72,2.72,0,0,1,2.58,2.85Zm-74.16-.07A2.62,2.62,0,1,1,77,10a2.58,2.58,0,0,1,2.56,2.61S79.59,12.64,79.58,12.68ZM15.1,89.59a2.72,2.72,0,1,1,2.72-2.72s0,.05,0,.08a2.64,2.64,0,0,1-2.64,2.64ZM79.6,25a2.62,2.62,0,1,1,0-.19Q79.6,24.93,79.6,25Zm61.79,49.42a2.62,2.62,0,1,1-2.61-2.72A2.72,2.72,0,0,1,141.39,74.44Zm0,37.05a2.63,2.63,0,1,1-5.26.1,2.62,2.62,0,1,1,5.25-.08Zm-86.51-37a2.72,2.72,0,1,1,0-.08S54.87,74.43,54.87,74.46ZM27.58,71.68a2.78,2.78,0,1,1,0,5.56A2.64,2.64,0,0,1,25,74.59s0,0,0-.07a2.72,2.72,0,0,1,2.59-2.84Zm98.8,42.62a2.77,2.77,0,1,1,2.77-2.77A2.77,2.77,0,0,1,126.38,114.31Zm76.8,108.45a2.72,2.72,0,0,1-2.56,2.81,2.79,2.79,0,1,1,2.55-3Q203.18,222.66,203.18,222.76ZM163.5,237.9a2.77,2.77,0,0,1,0-5.53,2.72,2.72,0,0,1,2.61,2.82v0A2.72,2.72,0,0,1,163.5,237.9ZM89.33,71.67a2.79,2.79,0,1,1-2.58,2.58A2.79,2.79,0,0,1,89.33,71.67Zm64.41,89.27a2.62,2.62,0,1,1-2.72-2.72A2.72,2.72,0,0,1,153.74,160.94ZM114.05,59.34A2.62,2.62,0,0,1,116.66,62s0,.06,0,.08a2.72,2.72,0,0,1-2.61,2.81,2.77,2.77,0,0,1,0-5.53ZM64.58,237.9a2.77,2.77,0,1,1,2.81-2.73A2.77,2.77,0,0,1,64.58,237.9Zm52.08-2.79a2.62,2.62,0,1,1-5.25.07,2.72,2.72,0,0,1,2.62-2.81h0a2.72,2.72,0,0,1,2.6,2.75ZM42.53,161a2.72,2.72,0,1,1,0-.09S42.53,161,42.53,161Zm158-101.68A2.64,2.64,0,0,1,203.18,62s0,0,0,.07a2.62,2.62,0,1,1-2.62-2.72Zm-22.1,2.73a2.72,2.72,0,0,1-2.62,2.8,2.77,2.77,0,1,1,0-5.53A2.62,2.62,0,0,1,178.45,62s0,.07,0,.11Zm-15,182.66a2.72,2.72,0,1,1-2.64,2.8s0-.05,0-.08a2.61,2.61,0,0,1,2.5-2.72Zm-39.7,2.8a2.61,2.61,0,0,1,2.41-2.79h.21a2.77,2.77,0,0,1,0,5.53h0a2.72,2.72,0,0,1-2.61-2.73ZM141.39,12.63a2.62,2.62,0,1,1-2.61-2.72A2.72,2.72,0,0,1,141.39,12.63Zm12.36,185.46a2.62,2.62,0,1,1-2.64-2.81,2.72,2.72,0,0,1,2.64,2.8Zm-52-170.31A2.76,2.76,0,1,1,104.45,25,2.76,2.76,0,0,1,101.73,27.78Zm-15,170.28a2.65,2.65,0,1,1,5.3,0v.07a2.62,2.62,0,1,1-5.25,0h0ZM141.39,25a2.62,2.62,0,1,1-2.57-2.72A2.62,2.62,0,0,1,141.39,25Zm-86.51,173a2.72,2.72,0,0,1-2.58,2.72,2.79,2.79,0,1,1,2.58-3C54.87,197.9,54.87,198,54.87,198.08ZM163.5,27.78A2.76,2.76,0,1,1,166.26,25,2.76,2.76,0,0,1,163.5,27.78ZM237.66,183a2.77,2.77,0,1,1-.07,5.53,2.77,2.77,0,0,1,0-5.53h0Zm-15,2.77a2.62,2.62,0,0,1,2.53-2.72h.11a2.76,2.76,0,0,1,0,5.52h-.08A2.72,2.72,0,0,1,222.65,185.72ZM175.86,183a2.77,2.77,0,0,1,0,5.53,2.72,2.72,0,0,1-2.61-2.82v0A2.72,2.72,0,0,1,175.86,183Zm-12.36,0a2.72,2.72,0,1,1-2.72,2.72,2.61,2.61,0,0,1,2.5-2.72Zm-61.86,0a2.72,2.72,0,0,1,.14,5.44,2.77,2.77,0,1,1-.1-5.53Zm52.1-145.52A2.62,2.62,0,1,1,151,34.7,2.72,2.72,0,0,1,153.74,37.42Zm61.79,0a2.62,2.62,0,1,1-2.62-2.81,2.72,2.72,0,0,1,2.62,2.81Zm-151,15.09A2.61,2.61,0,0,1,62,49.86s0,0,0-.07a2.64,2.64,0,0,1,2.55-2.72h.08a2.72,2.72,0,0,1-.07,5.44Zm34.5,120.73a2.64,2.64,0,1,1,5.28.15v0a2.63,2.63,0,1,1-5.25-.23Zm-37.07,0a2.62,2.62,0,0,1,2.53-2.72h.12a2.77,2.77,0,0,1-.08,5.53h0A2.61,2.61,0,0,1,62,173.43c0-.06,0-.11,0-.17ZM163.5,52.51a2.62,2.62,0,0,1-2.63-2.62s0-.06,0-.1a2.72,2.72,0,0,1,2.58-2.85h0a2.72,2.72,0,0,1,2.65,2.78v0A2.72,2.72,0,0,1,163.5,52.51Zm15-2.85a2.64,2.64,0,0,1-2.47,2.8h-.15a2.72,2.72,0,0,1-2.62-2.72,2.62,2.62,0,1,1,5.25-.08ZM37.28,62.1a2.62,2.62,0,0,1,5.25,0h0a2.62,2.62,0,1,1-5.25,0Zm17.59,0a2.72,2.72,0,0,1-2.72,2.72,2.77,2.77,0,0,1,.1-5.53,2.72,2.72,0,0,1,2.62,2.81ZM197.93,99.22a2.62,2.62,0,1,1,2.62,2.72A2.72,2.72,0,0,1,197.93,99.22Zm-155.4,37a2.62,2.62,0,1,1-2.6-2.72A2.72,2.72,0,0,1,42.53,136.25Zm12.34.08A2.72,2.72,0,0,1,52.24,139a2.79,2.79,0,1,1,2.63-2.93Q54.88,136.22,54.87,136.33Zm9.69-22a2.77,2.77,0,1,1,.11-5.53h0a2.77,2.77,0,1,1-.11,5.53Zm89.18-15.1a2.62,2.62,0,1,1-2.54-2.8A2.72,2.72,0,0,1,153.74,99.21Zm49.43,24.67a2.62,2.62,0,1,1-5.25,0h0a2.62,2.62,0,0,1,5.25,0Zm-15-2.73a2.77,2.77,0,1,1-2.77,2.77A2.77,2.77,0,0,1,188.21,121.15ZM153.74,222.8a2.62,2.62,0,1,1-2.56-2.79A2.72,2.72,0,0,1,153.74,222.8Zm0-86.58a2.62,2.62,0,1,1-2.62-2.72A2.72,2.72,0,0,1,153.74,136.22Zm24.71-12.3a2.72,2.72,0,0,1-2.58,2.72,2.77,2.77,0,1,1,0-5.53,2.62,2.62,0,0,1,2.59,2.66Q178.46,123.84,178.45,123.92Zm46.82-34.33A2.75,2.75,0,1,1,228,86.83,2.75,2.75,0,0,1,225.28,89.59Zm-22.1,46.65a2.62,2.62,0,1,1-2.61-2.72A2.72,2.72,0,0,1,203.18,136.23ZM163.5,89.59a2.76,2.76,0,1,1,2.76-2.76A2.76,2.76,0,0,1,163.5,89.59Zm-2.64,34.36a2.62,2.62,0,0,1,2.44-2.79h.17a2.77,2.77,0,0,1,0,5.53h0a2.64,2.64,0,0,1-2.61-2.66v-.07ZM79.6,111.56a2.62,2.62,0,0,1-5.25,0h0a2.62,2.62,0,1,1,5.25,0Zm121,2.75a2.64,2.64,0,0,1-2.72-2.55q0-.08,0-.17a2.62,2.62,0,1,1,2.72,2.72ZM42.53,148.63a2.64,2.64,0,1,1,0-.17Q42.53,148.55,42.53,148.63ZM79.6,123.88a2.62,2.62,0,1,1-2.72-2.72A2.72,2.72,0,0,1,79.6,123.88ZM54.87,222.82a2.66,2.66,0,1,1-5.32,0s0-.06,0-.1a2.62,2.62,0,0,1,5.25,0h0ZM163.5,114.31a2.62,2.62,0,0,1-2.59-2.66c0-.06,0-.11,0-.17a2.63,2.63,0,1,1,5.25.1v0A2.72,2.72,0,0,1,163.5,114.31ZM.22,123.93a2.61,2.61,0,0,1,2.5-2.72h.12a2.76,2.76,0,0,1,0,5.52H2.75a2.72,2.72,0,0,1-2.53-2.8ZM39.81,84.07a2.72,2.72,0,1,1-2.58,2.85s0-.09,0-.13a2.64,2.64,0,0,1,2.55-2.72ZM178.45,247.54a2.72,2.72,0,0,1-2.72,2.72,2.61,2.61,0,0,1-2.59-2.63q0-.09,0-.17a2.65,2.65,0,1,1,5.3,0ZM2.79,114.31a2.77,2.77,0,1,1,2.81-2.73A2.77,2.77,0,0,1,2.79,114.31Zm49.49,0a2.72,2.72,0,1,1,2.53-2.64h0A2.64,2.64,0,0,1,52.28,114.31Zm64.39,133.26a2.63,2.63,0,1,1-5.25-.09v0a2.62,2.62,0,0,1,5.25.11Zm71.52-133.26a2.61,2.61,0,0,1-2.6-2.62s0-.07,0-.1a2.72,2.72,0,0,1,2.62-2.81h0a2.77,2.77,0,1,1,0,5.55ZM52.26,182.94a2.61,2.61,0,0,1,2.61,2.61s0,.07,0,.11a2.72,2.72,0,0,1-2.62,2.81h0a2.77,2.77,0,0,1,0-5.53Zm12.31,0a2.72,2.72,0,0,1,.12,5.44,2.77,2.77,0,1,1,0-5.53Zm61.78,24.74a2.75,2.75,0,1,1,.11,5.5h0a2.75,2.75,0,0,1-.11-5.5Zm123.59-93.36a2.77,2.77,0,1,1,.08-5.55,2.78,2.78,0,0,1,0,5.54h-.07ZM54.87,123.89a2.72,2.72,0,0,1-2.56,2.72,2.77,2.77,0,0,1,0-5.53,2.62,2.62,0,0,1,2.56,2.68S54.88,123.85,54.87,123.89Zm59.17,59a2.64,2.64,0,0,1,2.62,2.65s0,0,0,.07a2.72,2.72,0,0,1-2.61,2.83h0a2.78,2.78,0,0,1,0-5.54h0ZM62,123.87a2.62,2.62,0,0,1,2.53-2.72h.08a2.77,2.77,0,0,1,0,5.53A2.64,2.64,0,0,1,62,124C62,124,62,123.92,62,123.87Zm61.79,61.79a2.61,2.61,0,0,1,2.5-2.72h.22a2.77,2.77,0,1,1-.08,5.53,2.72,2.72,0,0,1-2.64-2.8Zm17.59,49.45a2.62,2.62,0,1,1-2.62-2.72A2.72,2.72,0,0,1,141.39,235.1ZM116.66,111.55a2.64,2.64,0,0,1-2.55,2.72h-.17a2.72,2.72,0,1,1,2.72-2.72Zm-2.62,9.6a2.77,2.77,0,1,1-2.77,2.77A2.77,2.77,0,0,1,114,121.15Zm9.76,2.72a2.6,2.6,0,0,1,2.47-2.72h.14a2.77,2.77,0,0,1,0,5.53,2.64,2.64,0,0,1-2.62-2.66C123.79,124,123.8,123.92,123.8,123.87Zm61.79,24.7a2.61,2.61,0,0,1,2.5-2.72h.14a2.76,2.76,0,0,1,0,5.52,2.61,2.61,0,0,1-2.64-2.58Q185.58,148.67,185.59,148.56Zm-44.2.08a2.64,2.64,0,1,1,0-.17Q141.39,148.56,141.39,148.64Zm0-86.58a2.62,2.62,0,1,1,0-.19Q141.39,62,141.39,62.06Zm46.78,27.52a2.75,2.75,0,1,1,2.75-2.75A2.75,2.75,0,0,1,188.17,89.59ZM54.87,99.21a2.72,2.72,0,0,1-2.6,2.72,2.78,2.78,0,0,1,0-5.56,2.72,2.72,0,0,1,2.6,2.84Zm0,74.13a2.62,2.62,0,0,1-2.53,2.72h-.08a2.72,2.72,0,1,1,2.61-2.82S54.87,173.31,54.87,173.34ZM86.72,99.06a2.64,2.64,0,0,1,2.62-2.65h.1a2.72,2.72,0,0,1,2.46,2.9,2.63,2.63,0,0,1-5.25-.24Zm101.44,77a2.77,2.77,0,1,1,2.81-2.73A2.77,2.77,0,0,1,188.16,176.06Zm-61.75,0a2.61,2.61,0,0,1-2.62-2.6q0-.1,0-.2a2.63,2.63,0,1,1,5.26.07v0a2.72,2.72,0,0,1-2.65,2.7ZM114.07,52.51a2.72,2.72,0,0,1-.11-5.44,2.77,2.77,0,1,1,0,5.55Zm64.39,120.83a2.62,2.62,0,1,1-5.25.07,2.72,2.72,0,0,1,2.62-2.81h0a2.72,2.72,0,0,1,2.61,2.75ZM52.25,213.18A2.75,2.75,0,1,1,55,210.43,2.75,2.75,0,0,1,52.25,213.18Zm126.2-64.58a2.61,2.61,0,0,1-2.5,2.72h-.14a2.72,2.72,0,0,1,0-5.44,2.61,2.61,0,0,1,2.67,2.55C178.46,148.49,178.45,148.55,178.45,148.6Zm37.08-37.05a2.62,2.62,0,0,1-5.25,0h0a2.62,2.62,0,0,1,5.25,0Zm-126.18-59a2.64,2.64,0,0,1-2.64-2.63c0-.05,0-.1,0-.15a2.63,2.63,0,1,1,5.25.07v0A2.72,2.72,0,0,1,89.36,52.51Zm-2.64,195a2.62,2.62,0,1,1,5.25,0h0a2.63,2.63,0,1,1-5.25,0ZM64.62,27.78A2.76,2.76,0,1,1,67.38,25,2.76,2.76,0,0,1,64.62,27.78ZM188.17,237.9a2.77,2.77,0,1,1,2.77-2.77A2.77,2.77,0,0,1,188.17,237.9ZM126.46,27.78a2.58,2.58,0,0,1-2.72-2.44,2.62,2.62,0,0,1,0-.28,2.64,2.64,0,0,1,2.41-2.85h.15a2.76,2.76,0,1,1,.1,5.52ZM86.72,161A2.62,2.62,0,1,1,92,161a2.62,2.62,0,1,1-5.23,0ZM178.45,25a2.61,2.61,0,0,1-2.5,2.72h-.15a2.75,2.75,0,0,1,0-5.5,2.61,2.61,0,0,1,2.66,2.56Q178.46,24.9,178.45,25ZM123.8,62.14a2.61,2.61,0,0,1,2.41-2.79h.1a2.78,2.78,0,0,1,.11,5.54h0a2.64,2.64,0,0,1-2.6-2.68s0,0,0-.07Zm89.12,120.79a2.72,2.72,0,0,1,2.61,2.81,2.62,2.62,0,1,1-2.61-2.81Zm-96.26-9.6a2.62,2.62,0,0,1-2.53,2.72h-.08a2.72,2.72,0,0,1-2.64-2.8h0a2.63,2.63,0,1,1,5.25.08Zm-89.08-59a2.77,2.77,0,1,1,2.77-2.77A2.77,2.77,0,0,1,27.58,114.31ZM126.44,237.9a2.61,2.61,0,0,1-2.64-2.58s0-.09,0-.14a2.72,2.72,0,0,1,2.58-2.72,2.77,2.77,0,0,1,0,5.53ZM62,210.39a2.6,2.6,0,0,1,2.47-2.72h.13a2.76,2.76,0,1,1,0,5.52A2.6,2.6,0,0,1,62,210.6C62,210.53,62,210.46,62,210.39ZM27.58,182.94a2.77,2.77,0,1,1-.08,5.53,2.72,2.72,0,0,1-2.57-2.72,2.62,2.62,0,0,1,2.43-2.81h.22Zm123.57,61.8a2.77,2.77,0,1,1,0,5.55h0a2.77,2.77,0,0,1,0-5.55Zm-.05-192.23a2.76,2.76,0,0,1,0-5.52h.08a2.77,2.77,0,0,1,0,5.55Zm-37,160.67a2.76,2.76,0,0,1,0-5.52,2.6,2.6,0,0,1,2.64,2.55q0,.08,0,.17a2.64,2.64,0,0,1-2.47,2.8Zm12.3-61.8a2.62,2.62,0,0,1-2.58-2.67q0-.09,0-.17a2.6,2.6,0,0,1,2.47-2.72h.18a2.75,2.75,0,0,1-.08,5.5h0Zm-9.7-2.76a2.62,2.62,0,0,1-2.53,2.72H114a2.76,2.76,0,0,1,0-5.52,2.61,2.61,0,0,1,2.66,2.56C116.67,148.46,116.67,148.54,116.66,148.62ZM54.87,86.8a2.62,2.62,0,0,1-5.25,0h0A2.72,2.72,0,0,1,52.2,84a2.62,2.62,0,0,1,2.68,2.56Q54.88,86.69,54.87,86.8Zm160.66-37A2.64,2.64,0,0,1,213,52.49h-.17a2.72,2.72,0,1,1,2.72-2.72ZM62,148.56a2.6,2.6,0,0,1,2.47-2.72h.15a2.75,2.75,0,0,1,0,5.5A2.61,2.61,0,0,1,62,148.76Q62,148.66,62,148.56Zm91.73-36.93a2.62,2.62,0,1,1-5.25-.18h0a2.62,2.62,0,0,1,5.25.18Zm24.71-24.81a2.62,2.62,0,0,1-2.52,2.72h-.19a2.76,2.76,0,0,1,0-5.52,2.61,2.61,0,0,1,2.72,2.8ZM24.93,123.89a2.62,2.62,0,0,1,2.52-2.72h.19a2.77,2.77,0,0,1,0,5.53,2.64,2.64,0,0,1-2.72-2.55Q24.92,124,24.93,123.89ZM116.66,25a2.61,2.61,0,0,1-2.5,2.72h-.07a2.75,2.75,0,0,1,0-5.5,2.62,2.62,0,0,1,2.57,2.67S116.67,25,116.66,25Zm71.49,34.31a2.72,2.72,0,0,1,.12,5.44,2.77,2.77,0,0,1-.07-5.53h0ZM151.13,183a2.72,2.72,0,0,1,2.61,2.72,2.62,2.62,0,0,1-5.25,0h0A2.72,2.72,0,0,1,151.13,183ZM54.87,148.59a2.62,2.62,0,0,1-2.44,2.79h-.18a2.76,2.76,0,0,1,0-5.52,2.62,2.62,0,0,1,2.63,2.62S54.87,148.56,54.87,148.59Zm71.59-59a2.6,2.6,0,0,1-2.72-2.47c0-.08,0-.17,0-.25A2.62,2.62,0,0,1,126.13,84h.17a2.75,2.75,0,0,1,.11,5.5Zm-61.86,0a2.76,2.76,0,1,1,2.76-2.76A2.76,2.76,0,0,1,64.61,89.59Zm49.46,0a2.72,2.72,0,1,1,2.58-2.85s0,.09,0,.13a2.62,2.62,0,0,1-2.53,2.72Zm98.86,86.47a2.72,2.72,0,0,1-2.64-2.8h0a2.63,2.63,0,1,1,5.25.09h0a2.64,2.64,0,0,1-2.57,2.7h0ZM86.72,111.52a2.72,2.72,0,0,1,2.6-2.72,2.77,2.77,0,1,1,0,5.55,2.64,2.64,0,0,1-2.6-2.67Q86.71,111.6,86.72,111.52ZM188.21,27.78A2.76,2.76,0,1,1,191,25,2.76,2.76,0,0,1,188.21,27.78Zm0,185.4a2.76,2.76,0,1,1,2.76-2.76A2.76,2.76,0,0,1,188.17,213.18Zm-98.83-92a2.72,2.72,0,1,1-2.64,2.8h0A2.72,2.72,0,0,1,89.34,121.15ZM24.86,62.09a2.62,2.62,0,0,1,2.52-2.72h.19a2.77,2.77,0,0,1,0,5.53,2.64,2.64,0,0,1-2.72-2.55Q24.85,62.22,24.86,62.09ZM89.33,182.94a2.72,2.72,0,1,1-2.61,2.82s0-.07,0-.11a2.62,2.62,0,0,1,2.53-2.72Zm0-123.59a2.72,2.72,0,1,1-2.61,2.82s0-.07,0-.11A2.72,2.72,0,0,1,89.33,59.34Zm61.78,0a2.72,2.72,0,1,1-2.61,2.82s0-.07,0-.11A2.72,2.72,0,0,1,151.11,59.34Zm2.64,114a2.62,2.62,0,1,1-5.25,0h0a2.62,2.62,0,1,1,5.25,0ZM27.58,176.06a2.62,2.62,0,0,1-2.6-2.64q0-.09,0-.17a2.63,2.63,0,1,1,2.63,2.81h0Zm188-52.15a2.64,2.64,0,1,1,0-.17Q215.54,123.82,215.53,123.91Zm31.85,0a2.61,2.61,0,0,1,2.5-2.72H250a2.76,2.76,0,0,1,0,5.52h-.08a2.72,2.72,0,0,1-2.53-2.8ZM215.53,62.14a2.63,2.63,0,1,1,0-.06ZM89.36,176.06a2.62,2.62,0,0,1-2.64-2.61s0-.07,0-.11a2.72,2.72,0,0,1,2.6-2.72,2.77,2.77,0,0,1,0,5.53Zm64.39-52.11a2.64,2.64,0,1,1,0-.15Q153.75,123.87,153.74,123.95Zm-64.43,114a2.62,2.62,0,0,1-2.6-2.65v-.07a2.72,2.72,0,0,1,2.63-2.8h0a2.76,2.76,0,0,1,0,5.52Zm123.62-92a2.72,2.72,0,1,1-2.72,2.72,2.64,2.64,0,0,1,2.55-2.72Zm0-56.29a2.72,2.72,0,1,1,2.62-2.81s0,.06,0,.09a2.61,2.61,0,0,1-2.5,2.72Zm-185.41,0a2.75,2.75,0,1,1,2.8-2.7A2.75,2.75,0,0,1,27.5,89.59ZM212.88,213.18a2.72,2.72,0,1,1,2.65-2.79v.07a2.61,2.61,0,0,1-2.5,2.72ZM151.16,237.9a2.77,2.77,0,1,1,2.73-2.8,2.77,2.77,0,0,1-2.73,2.8Zm98.79-86.53a2.76,2.76,0,1,1,2.8-2.72A2.76,2.76,0,0,1,249.95,151.38ZM89.3,27.78A2.76,2.76,0,1,1,92.06,25,2.76,2.76,0,0,1,89.3,27.78Zm.05,185.4a2.76,2.76,0,1,1,2.76-2.76A2.76,2.76,0,0,1,89.36,213.18Zm-61.78-61.8a2.76,2.76,0,1,1,2.76-2.76A2.76,2.76,0,0,1,27.58,151.38ZM89.32,89.59a2.76,2.76,0,1,1,2.76-2.76A2.76,2.76,0,0,1,89.32,89.59Zm0,61.79a2.76,2.76,0,1,1,2.76-2.76A2.76,2.76,0,0,1,89.33,151.38Zm61.94-129.1a2.72,2.72,0,0,1,2.5,2.84,2.62,2.62,0,0,1-2.52,2.72h-.19a2.72,2.72,0,0,1-2.5-2.84,2.62,2.62,0,0,1,2.52-2.72Zm-.1,185.4a2.72,2.72,0,1,1-2.72,2.72A2.72,2.72,0,0,1,151.17,207.67Zm0-118.09a2.72,2.72,0,1,1,2.56-2.86s0,.1,0,.15A2.72,2.72,0,0,1,151.17,89.59Zm0,61.79a2.72,2.72,0,1,1,2.61-2.82s0,.07,0,.11a2.62,2.62,0,0,1-2.53,2.72ZM148.84,259a1.81,1.81,0,0,1,1.81-1.81h0a1.9,1.9,0,0,1-.18,3.79,1.83,1.83,0,0,1-1.67-2ZM6.53,172.89a1.85,1.85,0,0,1-1.9,1.77,1.88,1.88,0,0,1-1.9-1.78,1.92,1.92,0,0,1,2-1.82,1.89,1.89,0,0,1,1.85,1.83Zm230,22.92a1.89,1.89,0,0,1,1.9,1.79,1.85,1.85,0,0,1-1.85,1.82,1.89,1.89,0,0,1-2-1.82h0a1.92,1.92,0,0,1,1.9-1.79Zm-220.3,3.6a1.81,1.81,0,1,1,1.86-1.81A1.85,1.85,0,0,1,16.25,199.41ZM136.82,2.3A1.81,1.81,0,0,1,138.5.37h0a1.92,1.92,0,0,1,1.88,1.92,2,2,0,0,1-1.82,1.89,1.79,1.79,0,0,1-1.78-1.81S136.82,2.32,136.82,2.3Zm61.8,23.3a1.84,1.84,0,0,1,1.79-1.88h0a1.9,1.9,0,0,1,0,3.79,1.84,1.84,0,0,1-1.8-1.87Zm-61.8,233.49a1.79,1.79,0,0,1,1.72-1.86h.06a1.9,1.9,0,0,1-.08,3.79,1.81,1.81,0,0,1-1.7-1.91Zm25.83-1.86a1.92,1.92,0,0,1,1.82,1.88,1.94,1.94,0,0,1-1.88,1.92,1.9,1.9,0,0,1,0-3.79Zm-61.27-.1a1.9,1.9,0,0,1,1.83,1.85,1.86,1.86,0,0,1-1.79,1.93h0a1.79,1.79,0,0,1-1.77-1.82s0,0,0-.06A1.86,1.86,0,0,1,101.37,257.12ZM52.51,23.72a1.9,1.9,0,1,1-1.78,2s0-.08,0-.12A1.86,1.86,0,0,1,52.51,23.72ZM64.28,10.81a1.9,1.9,0,0,1,1.85,1.85,1.86,1.86,0,0,1-1.78,1.94h0a1.79,1.79,0,0,1-1.78-1.81v-.06A1.86,1.86,0,0,1,64.28,10.81ZM162.63.27a1.88,1.88,0,0,1,1.85,1.86,1.85,1.85,0,0,1-1.75,1.93,1.81,1.81,0,0,1-1.83-1.78s0,0,0-.05a1.88,1.88,0,0,1,1.74-2ZM101.35,4.06a1.81,1.81,0,0,1-1.73-1.88s0-.07,0-.11A1.85,1.85,0,0,1,101.41.2a1.92,1.92,0,0,1,1.79,2,1.83,1.83,0,0,1-1.79,1.88h-.07Zm13.88,255a1.83,1.83,0,0,1-1.75,1.92h0a1.9,1.9,0,0,1,0-3.79,1.82,1.82,0,0,1,1.77,1.87Zm12.94-.31a1.83,1.83,0,0,1-1.79,1.88h0a1.94,1.94,0,0,1-1.78-1.94,1.86,1.86,0,0,1,1.85-1.85,1.78,1.78,0,0,1,1.74,1.82S128.17,258.75,128.16,258.78ZM89.07,260.4a1.84,1.84,0,0,1-1.89-1.78h0a1.9,1.9,0,0,1,3.79,0,1.81,1.81,0,0,1-1.83,1.78Zm100.47-13a1.82,1.82,0,0,1-1.79,1.85h0a1.86,1.86,0,0,1-2-1.76v0a1.89,1.89,0,0,1,3.78,0ZM64.28,245.66a1.88,1.88,0,0,1,1.86,1.81,1.82,1.82,0,0,1-1.85,1.79h0a1.86,1.86,0,0,1-1.92-1.81v0a1.89,1.89,0,0,1,1.92-1.77ZM128.16,1.85a1.85,1.85,0,0,1-1.73,1.94,1.93,1.93,0,0,1-1.85-1.86A1.86,1.86,0,0,1,126.36,0a1.77,1.77,0,0,1,1.81,1.72S128.16,1.81,128.16,1.85Zm-37,.34a1.83,1.83,0,0,1-1.79,1.88h0a1.81,1.81,0,0,1-1.78-1.83V2.18a1.79,1.79,0,1,1,3.59,0Zm61.27,0a1.79,1.79,0,1,1-3.59,0,1.89,1.89,0,0,1,1.79-1.9,1.86,1.86,0,0,1,1.79,1.9Zm-37.22.12a1.83,1.83,0,0,1-1.79,1.88h0a1.9,1.9,0,0,1,0-3.79,1.82,1.82,0,0,1,1.81,1.83S115.22,2.27,115.22,2.3Zm75,10.4a1.79,1.79,0,1,1-3.59,0,1.9,1.9,0,0,1,1.77-1.93,1.86,1.86,0,0,1,1.82,1.9Zm10.48,224a1.81,1.81,0,0,1-1.78-1.83v-.06a1.79,1.79,0,0,1,3.59,0,1.83,1.83,0,0,1-1.78,1.89Zm-148.22,0a1.81,1.81,0,0,1-1.73-1.88v-.06a1.85,1.85,0,0,1,1.85-1.85,1.88,1.88,0,0,1,1.73,2,1.82,1.82,0,0,1-1.81,1.84h0ZM250.23,173a1.79,1.79,0,0,1-3.59,0,1.9,1.9,0,0,1,1.77-1.93,1.86,1.86,0,0,1,1.82,1.9ZM16,64.47a1.84,1.84,0,0,1-1.89-1.78h0a1.9,1.9,0,0,1,3.79,0,1.81,1.81,0,0,1-1.83,1.78Zm220.55,0a1.8,1.8,0,1,1,.08,0Zm13.65,23.41a1.79,1.79,0,1,1-3.59,0,1.8,1.8,0,1,1,3.59,0ZM3.46,89.59a1.81,1.81,0,0,1-1.86-1.75v-.06A1.84,1.84,0,0,1,3.51,86h0a1.82,1.82,0,0,1,1.85,1.79v0a1.79,1.79,0,0,1-1.84,1.74Z" style="fill:#f55254"/>
        </g>
    </g>
</svg>
